<svg width="323" height="43" viewBox="0 0 323 43" fill="none" xmlns="http://www.w3.org/2000/svg">
<mask id="path-1-outside-1_2878_7720" maskUnits="userSpaceOnUse" x="2" y="3" width="319" height="38" fill="black">
<rect fill="white" x="2" y="3" width="319" height="38"/>
<path d="M5.81641 36.5078C9.64453 26.7422 12.7435 17.3281 15.1133 8.26562L26.9883 6.27344C25.6341 14.1641 25.0221 23.5 25.1523 34.2812L16.8711 36.1953L17.457 31.3125L14.8398 31.8203L14.0195 35.2578L5.81641 36.5078ZM18.082 26.0781L19.8789 11.3125H19.8398L16.168 26.4297L18.082 26.0781ZM29.1758 8.53906C30.0091 8.40885 31.5716 8.05729 33.8633 7.48438C35.8424 7.01562 37.431 6.71615 38.6289 6.58594C39.0977 6.5599 39.5534 6.54688 39.9961 6.54688C43.4336 6.54688 45.1393 7.77083 45.1133 10.2188C45.1133 13.6823 42.9779 17.1458 38.707 20.6094C41.3893 20.4271 42.9388 21.1823 43.3555 22.875C43.4336 23.2396 43.4727 23.6172 43.4727 24.0078C43.4727 25.9609 42.5352 27.9401 40.6602 29.9453C39.2279 31.4818 37.457 32.8359 35.3477 34.0078C32.8216 35.4141 29.918 36.1172 26.6367 36.1172C26.1159 36.1172 25.5951 36.1042 25.0742 36.0781C26.0898 30.7396 27.2096 23.5651 28.4336 14.5547C28.7982 12.0026 29.0456 9.9974 29.1758 8.53906ZM33.3164 24.7891C33.1081 25.7786 32.8867 27.1198 32.6523 28.8125C36.3242 27.6927 38.1602 26.4167 38.1602 24.9844C38.1602 24.4635 37.7044 24.2031 36.793 24.2031C35.9857 24.2031 34.8268 24.3984 33.3164 24.7891ZM35.4648 14.3203C35.2565 15.1797 35.0612 16.0391 34.8789 16.8984L34.332 19.4766C36.2331 18.3047 37.5872 16.9505 38.3945 15.4141C38.5768 15.0755 38.668 14.8021 38.668 14.5938C38.668 14.151 38.3294 13.9297 37.6523 13.9297C37.1315 13.9297 36.4023 14.0599 35.4648 14.3203ZM61.1289 15.3359C60.2956 15.6484 59.306 16.026 58.1602 16.4688L55.2305 17.6016C55.2305 16.3776 54.8919 15.7656 54.2148 15.7656C53.2513 15.7656 52.2878 16.3125 51.3242 17.4062C50.6471 18.2135 50.3607 18.9948 50.4648 19.75C50.543 20.2448 51.0378 20.4922 51.9492 20.4922C52.444 20.4922 53.0951 20.4141 53.9023 20.2578C55.0221 20.0234 56.0117 19.9062 56.8711 19.9062C59.0586 19.9062 60.3346 20.6615 60.6992 22.1719C60.8034 22.6406 60.8555 23.1354 60.8555 23.6562C60.8555 25.3229 60.2305 27.1198 58.9805 29.0469C57.3659 31.5729 55.1003 33.6953 52.1836 35.4141C50.6471 36.3255 49.1367 36.7812 47.6523 36.7812C46.2982 36.7812 44.9701 36.4036 43.668 35.6484C44.319 34.0859 45.3607 31.7812 46.793 28.7344C47.6263 29.3073 48.5117 29.5938 49.4492 29.5938C49.8659 29.5938 50.2956 29.5286 50.7383 29.3984C51.5456 29.1901 52.3138 28.8906 53.043 28.5C54.0846 27.9271 54.6055 27.3411 54.6055 26.7422C54.6055 26.0911 54.0716 25.7656 53.0039 25.7656C52.2747 25.7656 51.207 25.9219 49.8008 26.2344C48.4206 26.5208 47.3659 26.6641 46.6367 26.6641C45.6732 26.6641 44.931 26.4818 44.4102 26.1172C43.3945 25.4401 42.9779 24.3854 43.1602 22.9531C43.4987 20.0625 45.3607 16.7161 48.7461 12.9141C52.2096 9.00781 55.1914 6.96354 57.6914 6.78125C60.1133 6.625 61.3242 8.44792 61.3242 12.25C61.3242 13.1615 61.2591 14.1901 61.1289 15.3359ZM75.2695 5.45312C78.0299 5.45312 79.9831 6.98958 81.1289 10.0625C81.7279 11.651 82.0273 13.3958 82.0273 15.2969C82.0273 17.1198 81.7539 19.099 81.207 21.2344C80.2435 24.8802 78.5768 28.2396 76.207 31.3125C73.3164 35.0625 70.2565 36.9375 67.0273 36.9375C64.2409 36.9375 62.2617 35.401 61.0898 32.3281C60.5169 30.8177 60.2305 29.125 60.2305 27.25C60.2305 25.401 60.5169 23.3958 61.0898 21.2344C62.0534 17.5625 63.707 14.1901 66.0508 11.1172C68.9414 7.34115 72.0143 5.45312 75.2695 5.45312ZM73.8633 15.1406C72.431 15.1406 70.9727 16.3125 69.4883 18.6562C68.2904 20.5052 67.457 22.3151 66.9883 24.0859C66.7539 25.0234 66.6367 25.8698 66.6367 26.625C66.6367 27.6927 66.8971 28.5651 67.418 29.2422C68.0169 29.9974 68.8503 30.375 69.918 30.375C71.3763 30.375 72.6914 29.6068 73.8633 28.0703C74.8008 26.8464 75.4779 25.401 75.8945 23.7344C76.3893 21.7812 76.4935 19.8542 76.207 17.9531C75.8945 16.0781 75.1133 15.1406 73.8633 15.1406ZM83.9805 8.42188L90.6992 7.17188C88.8242 14.3854 87.3789 21.0391 86.3633 27.1328L93.2383 26.0781L92.6523 33.3438C89.1107 33.6562 84.6185 34.5547 79.1758 36.0391L83.9805 8.42188ZM97.2227 8.42188L103.902 7.17188C102.105 13.9948 100.777 20.1146 99.918 25.5312L103.629 23.9688L106.363 8.42188L113.043 7.17188C110.335 17.849 108.577 26.8984 107.77 34.3203L101.52 36.0391L102.301 31.7031C100.113 32.6667 96.806 34.112 92.3789 36.0391L97.2227 8.42188ZM128.355 6.78125L128.121 14.0469C126.298 14.151 124.566 14.2812 122.926 14.4375C121.207 21.651 120.048 28.2786 119.449 34.3203L112.848 36.0391L116.441 15.2578C115.738 15.362 115.035 15.4792 114.332 15.6094L112.262 16L111.793 8.69531L128.355 6.78125ZM133.316 14.2422C133.108 14.9974 132.926 15.7396 132.77 16.4688L132.34 18.6172L138.59 17.2891L138.238 22.6797C135.27 23.2005 132.939 23.6562 131.246 24.0469C131.142 24.5677 131.051 25.0885 130.973 25.6094L130.699 27.1328L137.965 26.0781L137.457 33.3438C133.707 33.6562 128.954 34.5547 123.199 36.0391L127.848 8.03125L140.855 6.15625L140.348 13.3828C137.796 13.6172 135.452 13.9036 133.316 14.2422ZM142.691 8.42188L149.41 7.17188C147.535 14.3854 146.09 21.0391 145.074 27.1328L151.949 26.0781L151.363 33.3438C147.822 33.6562 143.329 34.5547 137.887 36.0391L142.691 8.42188ZM165.738 7.83594L172.027 8.92969C166.402 18.7995 161.949 27.7318 158.668 35.7266L152.652 35.3359L156.793 26.625L153.512 10.9219L161.129 7.40625C161.051 8.60417 160.999 10.1016 160.973 11.8984C160.947 13.6953 161.038 15.4922 161.246 17.2891L165.738 7.83594ZM178.121 8.53906C178.954 8.40885 180.517 8.05729 182.809 7.48438C184.788 7.01562 186.376 6.71615 187.574 6.58594C188.043 6.5599 188.499 6.54688 188.941 6.54688C192.379 6.54688 194.085 7.77083 194.059 10.2188C194.059 13.6823 191.923 17.1458 187.652 20.6094C190.335 20.4271 191.884 21.1823 192.301 22.875C192.379 23.2396 192.418 23.6172 192.418 24.0078C192.418 25.9609 191.48 27.9401 189.605 29.9453C188.173 31.4818 186.402 32.8359 184.293 34.0078C181.767 35.4141 178.863 36.1172 175.582 36.1172C175.061 36.1172 174.54 36.1042 174.02 36.0781C175.035 30.7396 176.155 23.5651 177.379 14.5547C177.743 12.0026 177.991 9.9974 178.121 8.53906ZM182.262 24.7891C182.053 25.7786 181.832 27.1198 181.598 28.8125C185.27 27.6927 187.105 26.4167 187.105 24.9844C187.105 24.4635 186.65 24.2031 185.738 24.2031C184.931 24.2031 183.772 24.3984 182.262 24.7891ZM184.41 14.3203C184.202 15.1797 184.007 16.0391 183.824 16.8984L183.277 19.4766C185.178 18.3047 186.533 16.9505 187.34 15.4141C187.522 15.0755 187.613 14.8021 187.613 14.5938C187.613 14.151 187.275 13.9297 186.598 13.9297C186.077 13.9297 185.348 14.0599 184.41 14.3203ZM195.934 8.38281C200.022 7.15885 203.368 6.54688 205.973 6.54688C209.488 6.54688 211.233 7.77083 211.207 10.2188C211.181 13.7344 208.967 17.263 204.566 20.8047C204.931 21.7943 206.441 24.9062 209.098 30.1406C207.743 31.3906 205.699 33.2266 202.965 35.6484L198.785 24.8672H198.746C198.121 28.2786 197.652 31.4297 197.34 34.3203L191.168 36.0391C191.22 35.4661 191.507 33.7344 192.027 30.8438L195.934 8.38281ZM200.855 14.5547C200.621 15.4401 200.413 16.3255 200.23 17.2109L199.684 19.8672C200.595 19.3984 201.493 18.7865 202.379 18.0312C203.395 17.1458 204.072 16.2995 204.41 15.4922C204.54 15.2578 204.605 15.0365 204.605 14.8281C204.605 14.2552 204.228 13.9688 203.473 13.9688C202.874 13.9688 202.001 14.1641 200.855 14.5547ZM212.887 8.42188L219.605 7.17188C216.897 17.6146 215.126 26.6641 214.293 34.3203L208.082 36.0391L212.887 8.42188ZM220.855 8.42188L227.574 7.17188C225.699 14.3854 224.254 21.0391 223.238 27.1328L230.113 26.0781L229.527 33.3438C225.986 33.6562 221.493 34.5547 216.051 36.0391L220.855 8.42188ZM233.902 8.42188L240.621 7.17188C238.746 14.3854 237.301 21.0391 236.285 27.1328L243.16 26.0781L242.574 33.3438C239.033 33.6562 234.54 34.5547 229.098 36.0391L233.902 8.42188ZM247.691 8.42188L254.41 7.17188C251.702 17.6146 249.931 26.6641 249.098 34.3203L242.887 36.0391L247.691 8.42188ZM247.77 36.5078C251.598 26.7422 254.697 17.3281 257.066 8.26562L268.941 6.27344C267.587 14.1641 266.975 23.5 267.105 34.2812L258.824 36.1953L259.41 31.3125L256.793 31.8203L255.973 35.2578L247.77 36.5078ZM260.035 26.0781L261.832 11.3125H261.793L258.121 26.4297L260.035 26.0781ZM271.949 8.53906L278.707 7.17188C278.655 7.97917 278.629 9.125 278.629 10.6094C278.629 14.151 278.746 17.263 278.98 19.9453C279.111 21.4818 279.306 22.7188 279.566 23.6562L282.223 8.42188L288.941 7.17188C286.233 17.6146 284.462 26.6641 283.629 34.3203L277.457 36.0391C277.431 35.987 277.262 35.5312 276.949 34.6719L274.918 28.8906C274.579 27.9531 274.384 27.3542 274.332 27.0938C273.785 30.1667 273.355 33.1484 273.043 36.0391L266.793 37.9141L271.949 8.53906ZM304.137 6.78125L303.902 14.0469C302.079 14.151 300.348 14.2812 298.707 14.4375C296.988 21.651 295.829 28.2786 295.23 34.3203L288.629 36.0391L292.223 15.2578C291.52 15.362 290.816 15.4792 290.113 15.6094L288.043 16L287.574 8.69531L304.137 6.78125ZM304.527 29.6328C305.439 29.5026 306.246 29.6328 306.949 30.0234C307.783 30.4401 308.199 31.0911 308.199 31.9766C308.199 33.1745 307.561 34.2682 306.285 35.2578C305.296 36.0391 304.215 36.5078 303.043 36.6641C302.105 36.7943 301.298 36.6901 300.621 36.3516C299.814 35.9349 299.41 35.2839 299.41 34.3984C299.41 33.2005 300.022 32.0938 301.246 31.0781C302.236 30.2708 303.329 29.7891 304.527 29.6328ZM308.941 5.33594L317.105 6.70312C314.944 10.5833 313.355 13.6172 312.34 15.8047C310.96 18.7995 309.736 22.0417 308.668 25.5312L303.238 25.2969L308.941 5.33594Z"/>
</mask>
<path d="M5.81641 36.5078C9.64453 26.7422 12.7435 17.3281 15.1133 8.26562L26.9883 6.27344C25.6341 14.1641 25.0221 23.5 25.1523 34.2812L16.8711 36.1953L17.457 31.3125L14.8398 31.8203L14.0195 35.2578L5.81641 36.5078ZM18.082 26.0781L19.8789 11.3125H19.8398L16.168 26.4297L18.082 26.0781ZM29.1758 8.53906C30.0091 8.40885 31.5716 8.05729 33.8633 7.48438C35.8424 7.01562 37.431 6.71615 38.6289 6.58594C39.0977 6.5599 39.5534 6.54688 39.9961 6.54688C43.4336 6.54688 45.1393 7.77083 45.1133 10.2188C45.1133 13.6823 42.9779 17.1458 38.707 20.6094C41.3893 20.4271 42.9388 21.1823 43.3555 22.875C43.4336 23.2396 43.4727 23.6172 43.4727 24.0078C43.4727 25.9609 42.5352 27.9401 40.6602 29.9453C39.2279 31.4818 37.457 32.8359 35.3477 34.0078C32.8216 35.4141 29.918 36.1172 26.6367 36.1172C26.1159 36.1172 25.5951 36.1042 25.0742 36.0781C26.0898 30.7396 27.2096 23.5651 28.4336 14.5547C28.7982 12.0026 29.0456 9.9974 29.1758 8.53906ZM33.3164 24.7891C33.1081 25.7786 32.8867 27.1198 32.6523 28.8125C36.3242 27.6927 38.1602 26.4167 38.1602 24.9844C38.1602 24.4635 37.7044 24.2031 36.793 24.2031C35.9857 24.2031 34.8268 24.3984 33.3164 24.7891ZM35.4648 14.3203C35.2565 15.1797 35.0612 16.0391 34.8789 16.8984L34.332 19.4766C36.2331 18.3047 37.5872 16.9505 38.3945 15.4141C38.5768 15.0755 38.668 14.8021 38.668 14.5938C38.668 14.151 38.3294 13.9297 37.6523 13.9297C37.1315 13.9297 36.4023 14.0599 35.4648 14.3203ZM61.1289 15.3359C60.2956 15.6484 59.306 16.026 58.1602 16.4688L55.2305 17.6016C55.2305 16.3776 54.8919 15.7656 54.2148 15.7656C53.2513 15.7656 52.2878 16.3125 51.3242 17.4062C50.6471 18.2135 50.3607 18.9948 50.4648 19.75C50.543 20.2448 51.0378 20.4922 51.9492 20.4922C52.444 20.4922 53.0951 20.4141 53.9023 20.2578C55.0221 20.0234 56.0117 19.9062 56.8711 19.9062C59.0586 19.9062 60.3346 20.6615 60.6992 22.1719C60.8034 22.6406 60.8555 23.1354 60.8555 23.6562C60.8555 25.3229 60.2305 27.1198 58.9805 29.0469C57.3659 31.5729 55.1003 33.6953 52.1836 35.4141C50.6471 36.3255 49.1367 36.7812 47.6523 36.7812C46.2982 36.7812 44.9701 36.4036 43.668 35.6484C44.319 34.0859 45.3607 31.7812 46.793 28.7344C47.6263 29.3073 48.5117 29.5938 49.4492 29.5938C49.8659 29.5938 50.2956 29.5286 50.7383 29.3984C51.5456 29.1901 52.3138 28.8906 53.043 28.5C54.0846 27.9271 54.6055 27.3411 54.6055 26.7422C54.6055 26.0911 54.0716 25.7656 53.0039 25.7656C52.2747 25.7656 51.207 25.9219 49.8008 26.2344C48.4206 26.5208 47.3659 26.6641 46.6367 26.6641C45.6732 26.6641 44.931 26.4818 44.4102 26.1172C43.3945 25.4401 42.9779 24.3854 43.1602 22.9531C43.4987 20.0625 45.3607 16.7161 48.7461 12.9141C52.2096 9.00781 55.1914 6.96354 57.6914 6.78125C60.1133 6.625 61.3242 8.44792 61.3242 12.25C61.3242 13.1615 61.2591 14.1901 61.1289 15.3359ZM75.2695 5.45312C78.0299 5.45312 79.9831 6.98958 81.1289 10.0625C81.7279 11.651 82.0273 13.3958 82.0273 15.2969C82.0273 17.1198 81.7539 19.099 81.207 21.2344C80.2435 24.8802 78.5768 28.2396 76.207 31.3125C73.3164 35.0625 70.2565 36.9375 67.0273 36.9375C64.2409 36.9375 62.2617 35.401 61.0898 32.3281C60.5169 30.8177 60.2305 29.125 60.2305 27.25C60.2305 25.401 60.5169 23.3958 61.0898 21.2344C62.0534 17.5625 63.707 14.1901 66.0508 11.1172C68.9414 7.34115 72.0143 5.45312 75.2695 5.45312ZM73.8633 15.1406C72.431 15.1406 70.9727 16.3125 69.4883 18.6562C68.2904 20.5052 67.457 22.3151 66.9883 24.0859C66.7539 25.0234 66.6367 25.8698 66.6367 26.625C66.6367 27.6927 66.8971 28.5651 67.418 29.2422C68.0169 29.9974 68.8503 30.375 69.918 30.375C71.3763 30.375 72.6914 29.6068 73.8633 28.0703C74.8008 26.8464 75.4779 25.401 75.8945 23.7344C76.3893 21.7812 76.4935 19.8542 76.207 17.9531C75.8945 16.0781 75.1133 15.1406 73.8633 15.1406ZM83.9805 8.42188L90.6992 7.17188C88.8242 14.3854 87.3789 21.0391 86.3633 27.1328L93.2383 26.0781L92.6523 33.3438C89.1107 33.6562 84.6185 34.5547 79.1758 36.0391L83.9805 8.42188ZM97.2227 8.42188L103.902 7.17188C102.105 13.9948 100.777 20.1146 99.918 25.5312L103.629 23.9688L106.363 8.42188L113.043 7.17188C110.335 17.849 108.577 26.8984 107.77 34.3203L101.52 36.0391L102.301 31.7031C100.113 32.6667 96.806 34.112 92.3789 36.0391L97.2227 8.42188ZM128.355 6.78125L128.121 14.0469C126.298 14.151 124.566 14.2812 122.926 14.4375C121.207 21.651 120.048 28.2786 119.449 34.3203L112.848 36.0391L116.441 15.2578C115.738 15.362 115.035 15.4792 114.332 15.6094L112.262 16L111.793 8.69531L128.355 6.78125ZM133.316 14.2422C133.108 14.9974 132.926 15.7396 132.77 16.4688L132.34 18.6172L138.59 17.2891L138.238 22.6797C135.27 23.2005 132.939 23.6562 131.246 24.0469C131.142 24.5677 131.051 25.0885 130.973 25.6094L130.699 27.1328L137.965 26.0781L137.457 33.3438C133.707 33.6562 128.954 34.5547 123.199 36.0391L127.848 8.03125L140.855 6.15625L140.348 13.3828C137.796 13.6172 135.452 13.9036 133.316 14.2422ZM142.691 8.42188L149.41 7.17188C147.535 14.3854 146.09 21.0391 145.074 27.1328L151.949 26.0781L151.363 33.3438C147.822 33.6562 143.329 34.5547 137.887 36.0391L142.691 8.42188ZM165.738 7.83594L172.027 8.92969C166.402 18.7995 161.949 27.7318 158.668 35.7266L152.652 35.3359L156.793 26.625L153.512 10.9219L161.129 7.40625C161.051 8.60417 160.999 10.1016 160.973 11.8984C160.947 13.6953 161.038 15.4922 161.246 17.2891L165.738 7.83594ZM178.121 8.53906C178.954 8.40885 180.517 8.05729 182.809 7.48438C184.788 7.01562 186.376 6.71615 187.574 6.58594C188.043 6.5599 188.499 6.54688 188.941 6.54688C192.379 6.54688 194.085 7.77083 194.059 10.2188C194.059 13.6823 191.923 17.1458 187.652 20.6094C190.335 20.4271 191.884 21.1823 192.301 22.875C192.379 23.2396 192.418 23.6172 192.418 24.0078C192.418 25.9609 191.48 27.9401 189.605 29.9453C188.173 31.4818 186.402 32.8359 184.293 34.0078C181.767 35.4141 178.863 36.1172 175.582 36.1172C175.061 36.1172 174.54 36.1042 174.02 36.0781C175.035 30.7396 176.155 23.5651 177.379 14.5547C177.743 12.0026 177.991 9.9974 178.121 8.53906ZM182.262 24.7891C182.053 25.7786 181.832 27.1198 181.598 28.8125C185.27 27.6927 187.105 26.4167 187.105 24.9844C187.105 24.4635 186.65 24.2031 185.738 24.2031C184.931 24.2031 183.772 24.3984 182.262 24.7891ZM184.41 14.3203C184.202 15.1797 184.007 16.0391 183.824 16.8984L183.277 19.4766C185.178 18.3047 186.533 16.9505 187.34 15.4141C187.522 15.0755 187.613 14.8021 187.613 14.5938C187.613 14.151 187.275 13.9297 186.598 13.9297C186.077 13.9297 185.348 14.0599 184.41 14.3203ZM195.934 8.38281C200.022 7.15885 203.368 6.54688 205.973 6.54688C209.488 6.54688 211.233 7.77083 211.207 10.2188C211.181 13.7344 208.967 17.263 204.566 20.8047C204.931 21.7943 206.441 24.9062 209.098 30.1406C207.743 31.3906 205.699 33.2266 202.965 35.6484L198.785 24.8672H198.746C198.121 28.2786 197.652 31.4297 197.34 34.3203L191.168 36.0391C191.22 35.4661 191.507 33.7344 192.027 30.8438L195.934 8.38281ZM200.855 14.5547C200.621 15.4401 200.413 16.3255 200.23 17.2109L199.684 19.8672C200.595 19.3984 201.493 18.7865 202.379 18.0312C203.395 17.1458 204.072 16.2995 204.41 15.4922C204.54 15.2578 204.605 15.0365 204.605 14.8281C204.605 14.2552 204.228 13.9688 203.473 13.9688C202.874 13.9688 202.001 14.1641 200.855 14.5547ZM212.887 8.42188L219.605 7.17188C216.897 17.6146 215.126 26.6641 214.293 34.3203L208.082 36.0391L212.887 8.42188ZM220.855 8.42188L227.574 7.17188C225.699 14.3854 224.254 21.0391 223.238 27.1328L230.113 26.0781L229.527 33.3438C225.986 33.6562 221.493 34.5547 216.051 36.0391L220.855 8.42188ZM233.902 8.42188L240.621 7.17188C238.746 14.3854 237.301 21.0391 236.285 27.1328L243.16 26.0781L242.574 33.3438C239.033 33.6562 234.54 34.5547 229.098 36.0391L233.902 8.42188ZM247.691 8.42188L254.41 7.17188C251.702 17.6146 249.931 26.6641 249.098 34.3203L242.887 36.0391L247.691 8.42188ZM247.77 36.5078C251.598 26.7422 254.697 17.3281 257.066 8.26562L268.941 6.27344C267.587 14.1641 266.975 23.5 267.105 34.2812L258.824 36.1953L259.41 31.3125L256.793 31.8203L255.973 35.2578L247.77 36.5078ZM260.035 26.0781L261.832 11.3125H261.793L258.121 26.4297L260.035 26.0781ZM271.949 8.53906L278.707 7.17188C278.655 7.97917 278.629 9.125 278.629 10.6094C278.629 14.151 278.746 17.263 278.98 19.9453C279.111 21.4818 279.306 22.7188 279.566 23.6562L282.223 8.42188L288.941 7.17188C286.233 17.6146 284.462 26.6641 283.629 34.3203L277.457 36.0391C277.431 35.987 277.262 35.5312 276.949 34.6719L274.918 28.8906C274.579 27.9531 274.384 27.3542 274.332 27.0938C273.785 30.1667 273.355 33.1484 273.043 36.0391L266.793 37.9141L271.949 8.53906ZM304.137 6.78125L303.902 14.0469C302.079 14.151 300.348 14.2812 298.707 14.4375C296.988 21.651 295.829 28.2786 295.23 34.3203L288.629 36.0391L292.223 15.2578C291.52 15.362 290.816 15.4792 290.113 15.6094L288.043 16L287.574 8.69531L304.137 6.78125ZM304.527 29.6328C305.439 29.5026 306.246 29.6328 306.949 30.0234C307.783 30.4401 308.199 31.0911 308.199 31.9766C308.199 33.1745 307.561 34.2682 306.285 35.2578C305.296 36.0391 304.215 36.5078 303.043 36.6641C302.105 36.7943 301.298 36.6901 300.621 36.3516C299.814 35.9349 299.41 35.2839 299.41 34.3984C299.41 33.2005 300.022 32.0938 301.246 31.0781C302.236 30.2708 303.329 29.7891 304.527 29.6328ZM308.941 5.33594L317.105 6.70312C314.944 10.5833 313.355 13.6172 312.34 15.8047C310.96 18.7995 309.736 22.0417 308.668 25.5312L303.238 25.2969L308.941 5.33594Z" fill="#FAD557"/>
<path d="M5.81641 36.5078L3.95436 35.7779L2.68833 39.0076L6.11769 38.485L5.81641 36.5078ZM15.1133 8.26562L14.7824 6.29319L13.5058 6.50735L13.1783 7.75965L15.1133 8.26562ZM26.9883 6.27344L28.9595 6.61173L29.436 3.83485L26.6574 4.301L26.9883 6.27344ZM25.1523 34.2812L25.6027 36.2299L27.1716 35.8673L27.1522 34.2571L25.1523 34.2812ZM16.8711 36.1953L14.8853 35.957L14.5459 38.7855L17.3215 38.1439L16.8711 36.1953ZM17.457 31.3125L19.4428 31.5508L19.7697 28.8265L17.0761 29.3491L17.457 31.3125ZM14.8398 31.8203L14.4589 29.8569L13.1936 30.1024L12.8945 31.3561L14.8398 31.8203ZM14.0195 35.2578L14.3208 37.235L15.6523 37.0321L15.9649 35.722L14.0195 35.2578ZM18.082 26.0781L18.4433 28.0452L19.8897 27.7796L20.0674 26.3197L18.082 26.0781ZM19.8789 11.3125L21.8643 11.5541L22.137 9.3125H19.8789V11.3125ZM19.8398 11.3125V9.3125H18.2675L17.8964 10.8404L19.8398 11.3125ZM16.168 26.4297L14.2245 25.9576L13.4967 28.9538L16.5293 28.3968L16.168 26.4297ZM7.67845 37.2377C11.5319 27.4075 14.6564 17.9185 17.0482 8.7716L13.1783 7.75965C10.8306 16.7378 7.75715 26.0769 3.95436 35.7779L7.67845 37.2377ZM15.4442 10.2381L27.3192 8.24587L26.6574 4.301L14.7824 6.29319L15.4442 10.2381ZM25.0171 5.93515C23.6367 13.9784 23.0213 23.4415 23.1525 34.3054L27.1522 34.2571C27.023 23.5585 27.6315 14.3497 28.9595 6.61173L25.0171 5.93515ZM24.702 32.3326L16.4207 34.2467L17.3215 38.1439L25.6027 36.2299L24.702 32.3326ZM18.8568 36.4336L19.4428 31.5508L15.4713 31.0742L14.8853 35.957L18.8568 36.4336ZM17.0761 29.3491L14.4589 29.8569L15.2208 33.7837L17.838 33.2759L17.0761 29.3491ZM12.8945 31.3561L12.0742 34.7936L15.9649 35.722L16.7852 32.2845L12.8945 31.3561ZM13.7182 33.2806L5.51512 34.5306L6.11769 38.485L14.3208 37.235L13.7182 33.2806ZM20.0674 26.3197L21.8643 11.5541L17.8936 11.0709L16.0967 25.8365L20.0674 26.3197ZM19.8789 9.3125H19.8398V13.3125H19.8789V9.3125ZM17.8964 10.8404L14.2245 25.9576L18.1115 26.9017L21.7833 11.7846L17.8964 10.8404ZM16.5293 28.3968L18.4433 28.0452L17.7207 24.111L15.8067 24.4626L16.5293 28.3968ZM29.1758 8.53906L28.867 6.56304L27.3227 6.80434L27.1837 8.3612L29.1758 8.53906ZM33.8633 7.48438L33.4023 5.53821L33.3903 5.54108L33.3782 5.54409L33.8633 7.48438ZM38.6289 6.58594L38.518 4.58902L38.4653 4.59194L38.4128 4.59765L38.6289 6.58594ZM45.1133 10.2188L43.1134 10.1975L43.1133 10.2081V10.2188H45.1133ZM38.707 20.6094L37.4473 19.056L32.5434 23.0329L38.8426 22.6048L38.707 20.6094ZM43.3555 22.875L45.3111 22.4559L45.3047 22.4263L45.2975 22.397L43.3555 22.875ZM40.6602 29.9453L39.1993 28.5793L39.1972 28.5816L40.6602 29.9453ZM35.3477 34.0078L34.3764 32.2595L34.3748 32.2603L35.3477 34.0078ZM25.0742 36.0781L23.1095 35.7043L22.6802 37.9609L24.9743 38.0756L25.0742 36.0781ZM28.4336 14.5547L26.4536 14.2718L26.4518 14.2855L28.4336 14.5547ZM33.3164 24.7891L32.8156 22.8528L31.6148 23.1633L31.3593 24.377L33.3164 24.7891ZM32.6523 28.8125L30.6712 28.5382L30.242 31.6385L33.2357 30.7255L32.6523 28.8125ZM35.4648 14.3203L34.9296 12.3933L33.7979 12.7076L33.5211 13.8491L35.4648 14.3203ZM34.332 19.4766L32.3756 19.0616L31.4066 23.6294L35.3815 21.1791L34.332 19.4766ZM38.3945 15.4141L36.6336 14.4659L36.6288 14.4748L36.624 14.4838L38.3945 15.4141ZM29.4845 10.5151C30.4201 10.3689 32.0668 9.99505 34.3484 9.42466L33.3782 5.54409C31.0764 6.11953 29.5982 6.4488 28.867 6.56304L29.4845 10.5151ZM34.3242 9.43054C36.2694 8.96983 37.7664 8.69147 38.845 8.57423L38.4128 4.59765C37.0956 4.74082 35.4155 5.06142 33.4023 5.53821L34.3242 9.43054ZM38.7398 8.58286C39.1739 8.55875 39.5925 8.54688 39.9961 8.54688V4.54688C39.5142 4.54688 39.0215 4.56104 38.518 4.58902L38.7398 8.58286ZM39.9961 8.54688C41.5398 8.54688 42.3296 8.83299 42.6875 9.08979C42.9172 9.2546 43.1208 9.50106 43.1134 10.1975L47.1132 10.24C47.1318 8.48852 46.4956 6.89905 45.0195 5.83989C43.6717 4.87274 41.8899 4.54688 39.9961 4.54688V8.54688ZM43.1133 10.2188C43.1133 12.7976 41.5246 15.7494 37.4473 19.056L39.9668 22.1628C44.4311 18.5423 47.1133 14.567 47.1133 10.2188H43.1133ZM38.8426 22.6048C40.0129 22.5252 40.6728 22.6752 41.0046 22.8369C41.2389 22.9511 41.3451 23.0754 41.4134 23.353L45.2975 22.397C44.9492 20.9819 44.0723 19.8822 42.7571 19.2412C41.5395 18.6478 40.0835 18.5112 38.5714 18.614L38.8426 22.6048ZM41.3999 23.2941C41.4471 23.5145 41.4727 23.7514 41.4727 24.0078H45.4727C45.4727 23.483 45.4201 22.9646 45.3111 22.4559L41.3999 23.2941ZM41.4727 24.0078C41.4727 25.2794 40.8688 26.7939 39.1993 28.5793L42.121 31.3113C44.2015 29.0864 45.4727 26.6425 45.4727 24.0078H41.4727ZM39.1972 28.5816C37.9271 29.944 36.3295 31.1745 34.3764 32.2595L36.3189 35.7561C38.5846 34.4974 40.5286 33.0195 42.1231 31.3091L39.1972 28.5816ZM34.3748 32.2603C32.1845 33.4797 29.6241 34.1172 26.6367 34.1172V38.1172C30.2118 38.1172 33.4587 37.3484 36.3205 35.7553L34.3748 32.2603ZM26.6367 34.1172C26.1492 34.1172 25.6617 34.105 25.1741 34.0806L24.9743 38.0756C25.5284 38.1033 26.0825 38.1172 26.6367 38.1172V34.1172ZM27.039 36.4519C28.0641 31.0634 29.1894 23.8494 30.4154 14.8239L26.4518 14.2855C25.2299 23.2808 24.1156 30.4158 23.1095 35.7043L27.039 36.4519ZM30.4135 14.8375C30.7799 12.2724 31.033 10.227 31.1679 8.71693L27.1837 8.3612C27.0581 9.76775 26.8164 11.7328 26.4537 14.2718L30.4135 14.8375ZM31.3593 24.377C31.1371 25.4326 30.9083 26.8261 30.6712 28.5382L34.6334 29.0868C34.8651 27.4135 35.0791 26.1246 35.2735 25.2011L31.3593 24.377ZM33.2357 30.7255C35.1497 30.1418 36.7562 29.47 37.9246 28.6579C39.0686 27.8628 40.1602 26.6605 40.1602 24.9844H36.1602C36.1602 24.7405 36.3337 24.8924 35.6418 25.3733C34.9742 25.8373 33.8269 26.3634 32.0689 26.8995L33.2357 30.7255ZM40.1602 24.9844C40.1602 23.9993 39.6556 23.1448 38.8106 22.662C38.1327 22.2746 37.3736 22.2031 36.793 22.2031V26.2031C36.9314 26.2031 37.0004 26.2135 37.0169 26.2166C37.037 26.2205 36.9552 26.2087 36.8261 26.1349C36.6847 26.0542 36.4938 25.9016 36.3471 25.6503C36.2001 25.3982 36.1602 25.1538 36.1602 24.9844H40.1602ZM36.793 22.2031C35.7253 22.2031 34.3677 22.4514 32.8156 22.8528L33.8172 26.7254C35.2859 26.3455 36.246 26.2031 36.793 26.2031V22.2031ZM33.5211 13.8491C33.3083 14.727 33.1087 15.6051 32.9224 16.4834L36.8354 17.3134C37.0137 16.473 37.2047 15.6323 37.4085 14.7915L33.5211 13.8491ZM32.9224 16.4834L32.3756 19.0616L36.2885 19.8916L36.8354 17.3134L32.9224 16.4834ZM35.3815 21.1791C37.502 19.872 39.1496 18.2769 40.165 16.3443L36.624 14.4838C36.0249 15.6242 34.9642 16.7374 33.2825 17.774L35.3815 21.1791ZM40.1555 16.3623C40.3828 15.94 40.668 15.308 40.668 14.5938H36.668C36.668 14.5015 36.6779 14.4319 36.6857 14.3904C36.6937 14.3486 36.7014 14.3252 36.7022 14.3226C36.7032 14.3197 36.6997 14.3305 36.6881 14.3565C36.6767 14.3821 36.6592 14.4184 36.6336 14.4659L40.1555 16.3623ZM40.668 14.5938C40.668 13.773 40.3033 12.9414 39.5086 12.4218C38.8615 11.9987 38.1451 11.9297 37.6523 11.9297V15.9297C37.8367 15.9297 37.6281 15.9714 37.3196 15.7696C37.1379 15.6509 36.9522 15.4656 36.8227 15.2116C36.697 14.9651 36.668 14.7399 36.668 14.5938H40.668ZM37.6523 11.9297C36.8564 11.9297 35.9183 12.1186 34.9296 12.3933L36.0001 16.2473C36.8864 16.0012 37.4066 15.9297 37.6523 15.9297V11.9297ZM61.1289 15.3359L61.8312 17.2086L62.9778 16.7786L63.1161 15.5618L61.1289 15.3359ZM58.1602 16.4688L57.4394 14.6032L57.4389 14.6033L58.1602 16.4688ZM55.2305 17.6016H53.2305V20.5192L55.9518 19.467L55.2305 17.6016ZM51.3242 17.4062L49.8235 16.0842L49.8074 16.1024L49.7918 16.121L51.3242 17.4062ZM50.4648 19.75L48.4836 20.0233L48.4863 20.0426L48.4893 20.0619L50.4648 19.75ZM53.9023 20.2578L54.2824 22.2214L54.2973 22.2185L54.3121 22.2154L53.9023 20.2578ZM60.6992 22.1719L62.6516 21.738L62.6476 21.7203L62.6434 21.7026L60.6992 22.1719ZM58.9805 29.0469L57.3025 27.9585L57.2953 27.9698L58.9805 29.0469ZM52.1836 35.4141L51.1682 33.691L51.1632 33.694L52.1836 35.4141ZM43.668 35.6484L41.8218 34.8792L41.1471 36.4984L42.6645 37.3785L43.668 35.6484ZM46.793 28.7344L47.926 27.0863L45.985 25.7519L44.983 27.8835L46.793 28.7344ZM50.7383 29.3984L50.2385 27.4619L50.2061 27.4703L50.1739 27.4797L50.7383 29.3984ZM53.043 28.5L53.9874 30.263L53.9971 30.2577L54.0068 30.2524L53.043 28.5ZM49.8008 26.2344L50.2072 28.1926L50.2209 28.1898L50.2346 28.1867L49.8008 26.2344ZM44.4102 26.1172L45.5571 24.4787L45.5385 24.4657L45.5196 24.4531L44.4102 26.1172ZM43.1602 22.9531L45.1442 23.2056L45.1454 23.1957L45.1466 23.1858L43.1602 22.9531ZM48.7461 12.9141L50.2398 14.2441L50.2426 14.2409L48.7461 12.9141ZM57.6914 6.78125L57.5626 4.7854L57.5543 4.78594L57.546 4.78655L57.6914 6.78125ZM60.4267 13.4633C59.5853 13.7788 58.5892 14.1589 57.4394 14.6032L58.881 18.3343C60.0227 17.8932 61.0058 17.5181 61.8312 17.2086L60.4267 13.4633ZM57.4389 14.6033L54.5092 15.7362L55.9518 19.467L58.8814 18.3342L57.4389 14.6033ZM57.2305 17.6016C57.2305 16.8707 57.1407 16.005 56.7266 15.2565C56.5029 14.852 56.1688 14.455 55.6914 14.1673C55.2106 13.8776 54.6952 13.7656 54.2148 13.7656V17.7656C54.073 17.7656 53.8538 17.7301 53.627 17.5934C53.4034 17.4587 53.281 17.2912 53.2265 17.1927C53.1783 17.1057 53.1847 17.0772 53.2002 17.161C53.2148 17.2406 53.2305 17.382 53.2305 17.6016H57.2305ZM54.2148 13.7656C52.4357 13.7656 50.9711 14.7815 49.8235 16.0842L52.8249 18.7283C53.6044 17.8435 54.0669 17.7656 54.2148 17.7656V13.7656ZM49.7918 16.121C48.8955 17.1898 48.2762 18.5198 48.4836 20.0233L52.4461 19.4767C52.4451 19.4698 52.3988 19.2373 52.8566 18.6915L49.7918 16.121ZM48.4893 20.0619C48.6408 21.021 49.2451 21.718 50.0001 22.0955C50.6492 22.4201 51.3603 22.4922 51.9492 22.4922V18.4922C51.8074 18.4922 51.7254 18.4822 51.6903 18.4761C51.6527 18.4694 51.698 18.4723 51.789 18.5178C51.8865 18.5665 52.0421 18.6678 52.1847 18.8526C52.3322 19.0437 52.4113 19.2537 52.4404 19.4381L48.4893 20.0619ZM51.9492 22.4922C52.6275 22.4922 53.4203 22.3882 54.2824 22.2214L53.5223 18.2943C52.7698 18.4399 52.2605 18.4922 51.9492 18.4922V22.4922ZM54.3121 22.2154C55.3385 22.0006 56.186 21.9062 56.8711 21.9062V17.9062C55.8374 17.9062 54.7058 18.0463 53.4926 18.3002L54.3121 22.2154ZM56.8711 21.9062C57.7655 21.9062 58.2334 22.0656 58.4501 22.1938C58.5989 22.2819 58.6927 22.383 58.7551 22.6412L62.6434 21.7026C62.3411 20.4504 61.6147 19.4187 60.4874 18.7515C59.428 18.1245 58.1642 17.9062 56.8711 17.9062V21.9062ZM58.7468 22.6057C58.8168 22.9206 58.8555 23.2691 58.8555 23.6562H62.8555C62.8555 23.0017 62.79 22.3607 62.6516 21.738L58.7468 22.6057ZM58.8555 23.6562C58.8555 24.8163 58.4191 26.2371 57.3025 27.9585L60.6584 30.1353C62.0418 28.0025 62.8555 25.8295 62.8555 23.6562H58.8555ZM57.2953 27.9698C55.8709 30.1983 53.8493 32.1111 51.1682 33.691L53.199 37.1371C56.3513 35.2795 58.8609 32.9475 60.6656 30.124L57.2953 27.9698ZM51.1632 33.694C49.8726 34.4596 48.7108 34.7812 47.6523 34.7812V38.7812C49.5626 38.7812 51.4217 38.1915 53.204 37.1342L51.1632 33.694ZM47.6523 34.7812C46.6888 34.7812 45.7035 34.517 44.6714 33.9184L42.6645 37.3785C44.2366 38.2903 45.9075 38.7812 47.6523 38.7812V34.7812ZM45.5141 36.4177C46.1474 34.8978 47.1736 32.6259 48.603 29.5852L44.983 27.8835C43.5478 30.9366 42.4906 33.2741 41.8218 34.8792L45.5141 36.4177ZM45.6599 30.3825C46.7991 31.1656 48.0749 31.5938 49.4492 31.5938V27.5938C48.9485 27.5938 48.4535 27.4489 47.926 27.0863L45.6599 30.3825ZM49.4492 31.5938C50.0762 31.5938 50.6961 31.4956 51.3026 31.3172L50.1739 27.4797C49.895 27.5617 49.6556 27.5938 49.4492 27.5938V31.5938ZM51.238 31.335C52.1987 31.0871 53.1164 30.7296 53.9874 30.263L52.0985 26.737C51.5112 27.0517 50.8924 27.2931 50.2385 27.4619L51.238 31.335ZM54.0068 30.2524C54.6351 29.9069 55.2407 29.4872 55.7097 28.9596C56.1928 28.4161 56.6055 27.6667 56.6055 26.7422H52.6055C52.6055 26.5931 52.6396 26.469 52.6769 26.3842C52.7114 26.3057 52.7398 26.2798 52.72 26.3021C52.6999 26.3248 52.6452 26.3798 52.5351 26.4615C52.4261 26.5423 52.2771 26.6387 52.0791 26.7476L54.0068 30.2524ZM56.6055 26.7422C56.6055 25.7543 56.138 24.8459 55.2463 24.3022C54.5152 23.8564 53.6759 23.7656 53.0039 23.7656V27.7656C53.1753 27.7656 53.2699 27.7792 53.3062 27.7866C53.3451 27.7945 53.2787 27.7874 53.1639 27.7174C53.0357 27.6392 52.872 27.4965 52.7505 27.2743C52.631 27.0558 52.6055 26.8575 52.6055 26.7422H56.6055ZM53.0039 23.7656C52.0481 23.7656 50.806 23.9622 49.3669 24.282L50.2346 28.1867C51.6081 27.8815 52.5013 27.7656 53.0039 27.7656V23.7656ZM49.3943 24.2761C48.0485 24.5554 47.1557 24.6641 46.6367 24.6641V28.6641C47.576 28.6641 48.7926 28.4862 50.2072 28.1926L49.3943 24.2761ZM46.6367 24.6641C45.8848 24.6641 45.6092 24.5152 45.5571 24.4787L43.2632 27.7557C44.2528 28.4483 45.4616 28.6641 46.6367 28.6641V24.6641ZM45.5196 24.4531C45.3235 24.3224 45.243 24.2025 45.196 24.0835C45.1409 23.9439 45.0842 23.6768 45.1442 23.2056L41.1762 22.7006C41.0538 23.6617 41.1143 24.6382 41.4758 25.5532C41.8455 26.4889 42.4811 27.2349 43.3008 27.7813L45.5196 24.4531ZM45.1466 23.1858C45.4133 20.9082 46.9465 17.9427 50.2398 14.2441L47.2524 11.5841C43.7749 15.4896 41.5841 19.2168 41.1737 22.7205L45.1466 23.1858ZM50.2426 14.2409C51.9095 12.361 53.3996 10.9998 54.711 10.1007C56.0313 9.19556 57.0627 8.8324 57.8369 8.77595L57.546 4.78655C55.8201 4.91239 54.1107 5.66252 52.4492 6.80162C50.7788 7.94682 49.0463 9.56092 47.2496 11.5872L50.2426 14.2409ZM57.8202 8.7771C58.4111 8.73898 58.5903 8.89729 58.7501 9.1379C59.0296 9.55864 59.3242 10.4866 59.3242 12.25H63.3242C63.3242 10.2113 63.0134 8.32678 62.0819 6.9246C61.0308 5.34229 59.3936 4.66727 57.5626 4.7854L57.8202 8.7771ZM59.3242 12.25C59.3242 13.0693 59.2655 14.0206 59.1417 15.1101L63.1161 15.5618C63.2527 14.3596 63.3242 13.2536 63.3242 12.25H59.3242ZM81.1289 10.0625L79.2549 10.7613L79.2575 10.7681L81.1289 10.0625ZM81.207 21.2344L83.1406 21.7454L83.1426 21.738L83.1445 21.7306L81.207 21.2344ZM76.207 31.3125L74.6233 30.0911L74.623 30.0915L76.207 31.3125ZM61.0898 32.3281L59.2198 33.0374L59.2211 33.0408L61.0898 32.3281ZM61.0898 21.2344L63.0231 21.7468L63.0243 21.742L61.0898 21.2344ZM66.0508 11.1172L64.4627 9.90147L64.4605 9.90429L66.0508 11.1172ZM69.4883 18.6562L71.1668 19.7437L71.1724 19.7351L71.1779 19.7264L69.4883 18.6562ZM66.9883 24.0859L65.0549 23.5742L65.0513 23.5875L65.048 23.6009L66.9883 24.0859ZM67.418 29.2422L65.8327 30.4616L65.8418 30.4734L65.851 30.485L67.418 29.2422ZM73.8633 28.0703L72.2755 26.8542L72.273 26.8574L73.8633 28.0703ZM75.8945 23.7344L73.9558 23.2432L73.9542 23.2493L75.8945 23.7344ZM76.207 17.9531L78.1847 17.6551L78.1824 17.6397L78.1798 17.6243L76.207 17.9531ZM75.2695 7.45312C76.2538 7.45312 76.9833 7.71734 77.5681 8.17738C78.1777 8.65694 78.7703 9.4616 79.2549 10.7613L83.0029 9.36374C82.3417 7.59048 81.3848 6.09046 80.0413 5.03356C78.6729 3.95714 77.0456 3.45312 75.2695 3.45312V7.45312ZM79.2575 10.7681C79.7619 12.1057 80.0273 13.6082 80.0273 15.2969H84.0273C84.0273 13.1835 83.6939 11.1963 83.0003 9.35689L79.2575 10.7681ZM80.0273 15.2969C80.0273 16.9219 79.7832 18.7324 79.2696 20.7382L83.1445 21.7306C83.7246 19.4656 84.0273 17.3177 84.0273 15.2969H80.0273ZM79.2734 20.7233C78.38 24.1039 76.8351 27.223 74.6233 30.0911L77.7908 32.5339C80.3185 29.2561 82.107 25.6565 83.1406 21.7454L79.2734 20.7233ZM74.623 30.0915C71.9273 33.5887 69.3871 34.9375 67.0273 34.9375V38.9375C71.1259 38.9375 74.7056 36.5363 77.7911 32.5335L74.623 30.0915ZM67.0273 34.9375C66.0256 34.9375 65.2789 34.6706 64.6796 34.2053C64.0567 33.7218 63.4538 32.914 62.9586 31.6155L59.2211 33.0408C59.8978 34.8151 60.8704 36.3121 62.2267 37.365C63.6065 38.4362 65.2426 38.9375 67.0273 38.9375V34.9375ZM62.9598 31.6188C62.4855 30.3683 62.2305 28.921 62.2305 27.25H58.2305C58.2305 29.329 58.5484 31.2671 59.2198 33.0374L62.9598 31.6188ZM62.2305 27.25C62.2305 25.6056 62.4856 23.7747 63.0231 21.7468L59.1566 20.7219C58.5483 23.017 58.2305 25.1964 58.2305 27.25H62.2305ZM63.0243 21.742C63.9196 18.3303 65.4545 15.1968 67.641 12.3301L64.4605 9.90429C61.9595 13.1834 60.1872 16.7947 59.1553 20.7267L63.0243 21.742ZM67.6389 12.3329C70.3331 8.8134 72.8852 7.45312 75.2695 7.45312V3.45312C71.1434 3.45312 67.5497 5.86889 64.4627 9.90147L67.6389 12.3329ZM73.8633 13.1406C71.3026 13.1406 69.3235 15.1785 67.7986 17.5861L71.1779 19.7264C72.6218 17.4465 73.5594 17.1406 73.8633 17.1406V13.1406ZM67.8098 17.5688C66.5196 19.5602 65.5873 21.5626 65.0549 23.5742L68.9217 24.5977C69.3267 23.0676 70.0612 21.4502 71.1668 19.7437L67.8098 17.5688ZM65.048 23.6009C64.7844 24.6552 64.6367 25.6682 64.6367 26.625H68.6367C68.6367 26.0714 68.7234 25.3916 68.9286 24.571L65.048 23.6009ZM64.6367 26.625C64.6367 28.0216 64.9817 29.3553 65.8327 30.4616L69.0032 28.0228C68.8126 27.7749 68.6367 27.3639 68.6367 26.625H64.6367ZM65.851 30.485C66.8736 31.7744 68.3147 32.375 69.918 32.375V28.375C69.3858 28.375 69.1603 28.2204 68.985 27.9994L65.851 30.485ZM69.918 32.375C72.1912 32.375 74.0366 31.141 75.4535 29.2832L72.273 26.8574C71.3462 28.0726 70.5614 28.375 69.918 28.375V32.375ZM75.451 29.2865C76.5728 27.8219 77.3594 26.1209 77.8348 24.2194L73.9542 23.2493C73.5963 24.6811 73.0287 25.8708 72.2755 26.8542L75.451 29.2865ZM77.8333 24.2255C78.3902 22.0272 78.5127 19.8317 78.1847 17.6551L74.2294 18.2511C74.4743 19.8766 74.3884 21.5353 73.9558 23.2432L77.8333 24.2255ZM78.1798 17.6243C77.9949 16.5149 77.6342 15.4166 76.9232 14.5634C76.142 13.626 75.0652 13.1406 73.8633 13.1406V17.1406C73.9206 17.1406 73.913 17.15 73.8748 17.1323C73.8352 17.1141 73.8275 17.0968 73.8503 17.1241C73.9205 17.2084 74.1067 17.5164 74.2342 18.2819L78.1798 17.6243ZM83.9805 8.42188L83.6147 6.45561L82.2483 6.70982L82.0101 8.07908L83.9805 8.42188ZM90.6992 7.17188L92.6349 7.67501L93.4263 4.63019L90.3334 5.20561L90.6992 7.17188ZM86.3633 27.1328L84.3905 26.804L83.9364 29.5285L86.6666 29.1097L86.3633 27.1328ZM93.2383 26.0781L95.2318 26.2389L95.4351 23.7177L92.935 24.1013L93.2383 26.0781ZM92.6523 33.3438L92.8281 35.336L94.5101 35.1876L94.6459 33.5045L92.6523 33.3438ZM79.1758 36.0391L77.2054 35.6963L76.666 38.7966L79.702 37.9686L79.1758 36.0391ZM84.3463 10.3881L91.065 9.13814L90.3334 5.20561L83.6147 6.45561L84.3463 10.3881ZM88.7635 6.66874C86.8765 13.9285 85.4176 20.6412 84.3905 26.804L88.3361 27.4616C89.3402 21.437 90.7719 14.8423 92.6349 7.67501L88.7635 6.66874ZM86.6666 29.1097L93.5416 28.055L92.935 24.1013L86.06 25.1559L86.6666 29.1097ZM91.2448 25.9174L90.6588 33.183L94.6459 33.5045L95.2318 26.2389L91.2448 25.9174ZM92.4766 31.3515C88.7685 31.6787 84.1487 32.6098 78.6495 34.1095L79.702 37.9686C85.0883 36.4996 89.4528 35.6338 92.8281 35.336L92.4766 31.3515ZM81.1462 36.3819L85.9509 8.76467L82.0101 8.07908L77.2054 35.6963L81.1462 36.3819ZM97.2227 8.42188L96.8548 6.456L95.4922 6.71099L95.2527 8.07637L97.2227 8.42188ZM103.902 7.17188L105.836 7.68122L106.641 4.62459L103.534 5.206L103.902 7.17188ZM99.918 25.5312L97.9427 25.2179L97.3791 28.7703L100.694 27.3745L99.918 25.5312ZM103.629 23.9688L104.405 25.812L105.41 25.3889L105.599 24.3152L103.629 23.9688ZM106.363 8.42188L105.995 6.456L104.634 6.71086L104.394 8.07543L106.363 8.42188ZM113.043 7.17188L114.982 7.66362L115.751 4.6304L112.675 5.206L113.043 7.17188ZM107.77 34.3203L108.3 36.2487L109.611 35.8882L109.758 34.5366L107.77 34.3203ZM101.52 36.0391L99.5512 35.6844L98.9882 38.8094L102.05 37.9675L101.52 36.0391ZM102.301 31.7031L104.269 32.0578L104.936 28.357L101.495 29.8728L102.301 31.7031ZM92.3789 36.0391L90.409 35.6936L89.7664 39.3576L93.1771 37.8729L92.3789 36.0391ZM97.5905 10.3877L104.27 9.13775L103.534 5.206L96.8548 6.456L97.5905 10.3877ZM101.968 6.66253C100.159 13.5328 98.815 19.7197 97.9427 25.2179L101.893 25.8446C102.74 20.5095 104.052 14.4568 105.836 7.68122L101.968 6.66253ZM100.694 27.3745L104.405 25.812L102.853 22.1255L99.1419 23.688L100.694 27.3745ZM105.599 24.3152L108.333 8.76832L104.394 8.07543L101.659 23.6223L105.599 24.3152ZM106.731 10.3877L113.411 9.13775L112.675 5.206L105.995 6.456L106.731 10.3877ZM111.104 6.68013C108.383 17.4095 106.602 26.5569 105.781 34.104L109.758 34.5366C110.551 27.2399 112.287 18.2884 114.982 7.66362L111.104 6.68013ZM107.239 32.3919L100.989 34.1107L102.05 37.9675L108.3 36.2487L107.239 32.3919ZM103.488 36.3937L104.269 32.0578L100.332 31.3485L99.5512 35.6844L103.488 36.3937ZM101.495 29.8728C99.3112 30.8345 96.0072 32.2784 91.5807 34.2053L93.1771 37.8729C97.6048 35.9455 100.915 34.4988 103.107 33.5334L101.495 29.8728ZM94.3488 36.3846L99.1926 8.76738L95.2527 8.07637L90.409 35.6936L94.3488 36.3846ZM128.355 6.78125L130.354 6.84573L130.429 4.52829L128.126 4.79447L128.355 6.78125ZM128.121 14.0469L128.235 16.0436L130.061 15.9393L130.12 14.1114L128.121 14.0469ZM122.926 14.4375L122.736 12.4465L121.312 12.5822L120.98 13.9739L122.926 14.4375ZM119.449 34.3203L119.953 36.2558L121.302 35.9046L121.439 34.5176L119.449 34.3203ZM112.848 36.0391L110.877 35.6983L110.348 38.7565L113.352 37.9745L112.848 36.0391ZM116.441 15.2578L118.412 15.5986L118.883 12.8742L116.148 13.2794L116.441 15.2578ZM114.332 15.6094L113.968 13.6428L113.961 13.6441L114.332 15.6094ZM112.262 16L110.266 16.1281L110.411 18.3846L112.633 17.9653L112.262 16ZM111.793 8.69531L111.563 6.70854L109.675 6.92672L109.797 8.82339L111.793 8.69531ZM126.357 6.71677L126.122 13.9824L130.12 14.1114L130.354 6.84573L126.357 6.71677ZM128.007 12.0501C126.162 12.1556 124.404 12.2876 122.736 12.4465L123.115 16.4285C124.728 16.2749 126.435 16.1465 128.235 16.0436L128.007 12.0501ZM120.98 13.9739C119.245 21.2567 118.069 27.9746 117.459 34.123L121.439 34.5176C122.028 28.5826 123.169 22.0454 124.871 14.9011L120.98 13.9739ZM118.945 32.3848L112.344 34.1036L113.352 37.9745L119.953 36.2558L118.945 32.3848ZM114.818 36.3799L118.412 15.5986L114.471 14.917L110.877 35.6983L114.818 36.3799ZM116.148 13.2794C115.421 13.3871 114.694 13.5083 113.968 13.6428L114.696 17.5759C115.376 17.4501 116.055 17.3368 116.735 17.2362L116.148 13.2794ZM113.961 13.6441L111.891 14.0347L112.633 17.9653L114.703 17.5747L113.961 13.6441ZM114.258 15.8719L113.789 8.56723L109.797 8.82339L110.266 16.1281L114.258 15.8719ZM112.023 10.6821L128.585 8.76803L128.126 4.79447L111.563 6.70854L112.023 10.6821ZM133.316 14.2422L133.003 12.2669L131.731 12.4686L131.388 13.7103L133.316 14.2422ZM132.77 16.4688L130.814 16.0497L130.811 16.0631L130.808 16.0765L132.77 16.4688ZM132.34 18.6172L130.379 18.225L129.783 21.2053L132.756 20.5735L132.34 18.6172ZM138.59 17.2891L140.586 17.4192L140.757 14.7838L138.174 15.3327L138.59 17.2891ZM138.238 22.6797L138.584 24.6496L140.132 24.378L140.234 22.8098L138.238 22.6797ZM131.246 24.0469L130.796 22.0981L129.538 22.3884L129.285 23.6546L131.246 24.0469ZM130.973 25.6094L132.941 25.9627L132.946 25.9344L132.951 25.9061L130.973 25.6094ZM130.699 27.1328L128.731 26.7795L128.24 29.5107L130.987 29.1121L130.699 27.1328ZM137.965 26.0781L139.96 26.2176L140.133 23.7424L137.678 24.0989L137.965 26.0781ZM137.457 33.3438L137.623 35.3368L139.333 35.1944L139.452 33.4832L137.457 33.3438ZM123.199 36.0391L121.226 35.7116L120.723 38.7432L123.699 37.9757L123.199 36.0391ZM127.848 8.03125L127.562 6.05171L126.114 6.26045L125.875 7.70379L127.848 8.03125ZM140.855 6.15625L142.851 6.29644L143.024 3.82295L140.57 4.17671L140.855 6.15625ZM140.348 13.3828L140.531 15.3744L142.224 15.219L142.343 13.523L140.348 13.3828ZM131.388 13.7103C131.17 14.501 130.979 15.2808 130.814 16.0497L134.725 16.8878C134.873 16.1983 135.046 15.4938 135.244 14.774L131.388 13.7103ZM130.808 16.0765L130.379 18.225L134.301 19.0094L134.731 16.861L130.808 16.0765ZM132.756 20.5735L139.006 19.2454L138.174 15.3327L131.924 16.6609L132.756 20.5735ZM136.594 17.1589L136.243 22.5495L140.234 22.8098L140.586 17.4192L136.594 17.1589ZM137.893 20.7098C134.91 21.233 132.54 21.6958 130.796 22.0981L131.696 25.9957C133.338 25.6167 135.629 25.168 138.584 24.6496L137.893 20.7098ZM129.285 23.6546C129.174 24.2069 129.078 24.7596 128.995 25.3127L132.951 25.9061C133.024 25.4175 133.109 24.9285 133.207 24.4391L129.285 23.6546ZM129.004 25.256L128.731 26.7795L132.668 27.4861L132.941 25.9627L129.004 25.256ZM130.987 29.1121L138.252 28.0574L137.678 24.0989L130.412 25.1536L130.987 29.1121ZM135.97 25.9387L135.462 33.2043L139.452 33.4832L139.96 26.2176L135.97 25.9387ZM137.291 31.3507C133.383 31.6763 128.509 32.604 122.7 34.1024L123.699 37.9757C129.4 36.5053 134.031 35.6362 137.623 35.3368L137.291 31.3507ZM125.172 36.3665L129.821 8.35871L125.875 7.70379L121.226 35.7116L125.172 36.3665ZM128.133 10.0108L141.141 8.13579L140.57 4.17671L127.562 6.05171L128.133 10.0108ZM138.86 6.01606L138.353 13.2426L142.343 13.523L142.851 6.29644L138.86 6.01606ZM140.165 11.3912C137.577 11.6289 135.189 11.9203 133.003 12.2669L133.63 16.2175C135.715 15.8869 138.014 15.6055 140.531 15.3744L140.165 11.3912ZM142.691 8.42188L142.326 6.45561L140.959 6.70982L140.721 8.07908L142.691 8.42188ZM149.41 7.17188L151.346 7.67501L152.137 4.63019L149.044 5.20561L149.41 7.17188ZM145.074 27.1328L143.101 26.804L142.647 29.5285L145.377 29.1097L145.074 27.1328ZM151.949 26.0781L153.943 26.2389L154.146 23.7177L151.646 24.1013L151.949 26.0781ZM151.363 33.3438L151.539 35.336L153.221 35.1876L153.357 33.5045L151.363 33.3438ZM137.887 36.0391L135.916 35.6963L135.377 38.7966L138.413 37.9686L137.887 36.0391ZM143.057 10.3881L149.776 9.13814L149.044 5.20561L142.326 6.45561L143.057 10.3881ZM147.474 6.66874C145.587 13.9285 144.129 20.6412 143.101 26.804L147.047 27.4616C148.051 21.437 149.483 14.8423 151.346 7.67501L147.474 6.66874ZM145.377 29.1097L152.252 28.055L151.646 24.1013L144.771 25.1559L145.377 29.1097ZM149.956 25.9174L149.37 33.183L153.357 33.5045L153.943 26.2389L149.956 25.9174ZM151.187 31.3515C147.479 31.6787 142.86 32.6098 137.36 34.1095L138.413 37.9686C143.799 36.4996 148.164 35.6338 151.539 35.336L151.187 31.3515ZM139.857 36.3819L144.662 8.76467L140.721 8.07908L135.916 35.6963L139.857 36.3819ZM165.738 7.83594L166.081 5.86551L164.584 5.60518L163.932 6.97752L165.738 7.83594ZM172.027 8.92969L173.765 9.91999L175.174 7.44698L172.37 6.95926L172.027 8.92969ZM158.668 35.7266L158.538 37.7224L159.973 37.8155L160.518 36.4859L158.668 35.7266ZM152.652 35.3359L150.846 34.4773L149.58 37.1407L152.523 37.3317L152.652 35.3359ZM156.793 26.625L158.599 27.4836L158.888 26.8753L158.751 26.2159L156.793 26.625ZM153.512 10.9219L152.674 9.10596L151.228 9.77295L151.554 11.331L153.512 10.9219ZM161.129 7.40625L163.125 7.53641L163.343 4.1814L160.291 5.59033L161.129 7.40625ZM161.246 17.2891L159.259 17.5194L160.062 24.4408L163.053 18.1475L161.246 17.2891ZM165.396 9.80636L171.685 10.9001L172.37 6.95926L166.081 5.86551L165.396 9.80636ZM170.29 7.93939C164.635 17.862 160.14 26.8729 156.818 34.9672L160.518 36.4859C163.759 28.5906 168.17 19.737 173.765 9.91999L170.29 7.93939ZM158.798 33.7308L152.782 33.3401L152.523 37.3317L158.538 37.7224L158.798 33.7308ZM154.459 36.1945L158.599 27.4836L154.987 25.7664L150.846 34.4773L154.459 36.1945ZM158.751 26.2159L155.469 10.5128L151.554 11.331L154.835 27.0341L158.751 26.2159ZM154.35 12.7378L161.967 9.22217L160.291 5.59033L152.674 9.10596L154.35 12.7378ZM159.133 7.27609C159.052 8.51977 158.999 10.0536 158.973 11.8695L162.972 11.9274C162.998 10.1495 163.05 8.68856 163.125 7.53641L159.133 7.27609ZM158.973 11.8695C158.946 13.7535 159.041 15.637 159.259 17.5194L163.233 17.0587C163.034 15.3473 162.948 13.6371 162.972 11.9274L158.973 11.8695ZM163.053 18.1475L167.545 8.69436L163.932 6.97752L159.44 16.4306L163.053 18.1475ZM178.121 8.53906L177.812 6.56304L176.268 6.80434L176.129 8.3612L178.121 8.53906ZM182.809 7.48438L182.348 5.53821L182.336 5.54108L182.324 5.54409L182.809 7.48438ZM187.574 6.58594L187.463 4.58902L187.411 4.59194L187.358 4.59765L187.574 6.58594ZM194.059 10.2188L192.059 10.1975L192.059 10.2081V10.2188H194.059ZM187.652 20.6094L186.393 19.056L181.489 23.0329L187.788 22.6048L187.652 20.6094ZM192.301 22.875L194.256 22.4559L194.25 22.4263L194.243 22.397L192.301 22.875ZM189.605 29.9453L188.145 28.5793L188.143 28.5816L189.605 29.9453ZM184.293 34.0078L183.322 32.2595L183.32 32.2603L184.293 34.0078ZM174.02 36.0781L172.055 35.7043L171.625 37.9609L173.92 38.0756L174.02 36.0781ZM177.379 14.5547L175.399 14.2718L175.397 14.2855L177.379 14.5547ZM182.262 24.7891L181.761 22.8528L180.56 23.1633L180.305 24.377L182.262 24.7891ZM181.598 28.8125L179.617 28.5382L179.187 31.6385L182.181 30.7255L181.598 28.8125ZM184.41 14.3203L183.875 12.3933L182.743 12.7076L182.466 13.8491L184.41 14.3203ZM183.277 19.4766L181.321 19.0616L180.352 23.6294L184.327 21.1791L183.277 19.4766ZM187.34 15.4141L185.579 14.4659L185.574 14.4748L185.569 14.4838L187.34 15.4141ZM178.43 10.5151C179.365 10.3689 181.012 9.99505 183.294 9.42466L182.324 5.54409C180.022 6.11953 178.543 6.4488 177.812 6.56304L178.43 10.5151ZM183.27 9.43054C185.215 8.96983 186.712 8.69147 187.79 8.57423L187.358 4.59765C186.041 4.74082 184.361 5.06142 182.348 5.53821L183.27 9.43054ZM187.685 8.58286C188.119 8.55875 188.538 8.54688 188.941 8.54688V4.54688C188.46 4.54688 187.967 4.56104 187.463 4.58902L187.685 8.58286ZM188.941 8.54688C190.485 8.54688 191.275 8.83299 191.633 9.08979C191.863 9.2546 192.066 9.50106 192.059 10.1975L196.058 10.24C196.077 8.48852 195.441 6.89905 193.965 5.83989C192.617 4.87274 190.835 4.54688 188.941 4.54688V8.54688ZM192.059 10.2188C192.059 12.7976 190.47 15.7494 186.393 19.056L188.912 22.1628C193.376 18.5423 196.059 14.567 196.059 10.2188H192.059ZM187.788 22.6048C188.958 22.5252 189.618 22.6752 189.95 22.8369C190.184 22.9511 190.29 23.0754 190.359 23.353L194.243 22.397C193.894 20.9819 193.018 19.8822 191.702 19.2412C190.485 18.6478 189.029 18.5112 187.517 18.614L187.788 22.6048ZM190.345 23.2941C190.392 23.5145 190.418 23.7514 190.418 24.0078H194.418C194.418 23.483 194.365 22.9646 194.256 22.4559L190.345 23.2941ZM190.418 24.0078C190.418 25.2794 189.814 26.7939 188.145 28.5793L191.066 31.3113C193.147 29.0864 194.418 26.6425 194.418 24.0078H190.418ZM188.143 28.5816C186.872 29.944 185.275 31.1745 183.322 32.2595L185.264 35.7561C187.53 34.4974 189.474 33.0195 191.068 31.3091L188.143 28.5816ZM183.32 32.2603C181.13 33.4797 178.569 34.1172 175.582 34.1172V38.1172C179.157 38.1172 182.404 37.3484 185.266 35.7553L183.32 32.2603ZM175.582 34.1172C175.095 34.1172 174.607 34.105 174.119 34.0806L173.92 38.0756C174.474 38.1033 175.028 38.1172 175.582 38.1172V34.1172ZM175.984 36.4519C177.009 31.0634 178.135 23.8494 179.361 14.8239L175.397 14.2855C174.175 23.2808 173.061 30.4158 172.055 35.7043L175.984 36.4519ZM179.359 14.8375C179.725 12.2724 179.978 10.227 180.113 8.71693L176.129 8.3612C176.003 9.76775 175.762 11.7328 175.399 14.2718L179.359 14.8375ZM180.305 24.377C180.082 25.4326 179.854 26.8261 179.617 28.5382L183.579 29.0868C183.81 27.4135 184.024 26.1246 184.219 25.2011L180.305 24.377ZM182.181 30.7255C184.095 30.1418 185.702 29.47 186.87 28.6579C188.014 27.8628 189.105 26.6605 189.105 24.9844H185.105C185.105 24.7405 185.279 24.8924 184.587 25.3733C183.92 25.8373 182.772 26.3634 181.014 26.8995L182.181 30.7255ZM189.105 24.9844C189.105 23.9993 188.601 23.1448 187.756 22.662C187.078 22.2746 186.319 22.2031 185.738 22.2031V26.2031C185.877 26.2031 185.946 26.2135 185.962 26.2166C185.982 26.2205 185.9 26.2087 185.771 26.1349C185.63 26.0542 185.439 25.9016 185.292 25.6503C185.145 25.3982 185.105 25.1538 185.105 24.9844H189.105ZM185.738 22.2031C184.671 22.2031 183.313 22.4514 181.761 22.8528L182.762 26.7254C184.231 26.3455 185.191 26.2031 185.738 26.2031V22.2031ZM182.466 13.8491C182.254 14.727 182.054 15.6051 181.868 16.4834L185.781 17.3134C185.959 16.473 186.15 15.6323 186.354 14.7915L182.466 13.8491ZM181.868 16.4834L181.321 19.0616L185.234 19.8916L185.781 17.3134L181.868 16.4834ZM184.327 21.1791C186.447 19.872 188.095 18.2769 189.11 16.3443L185.569 14.4838C184.97 15.6242 183.91 16.7374 182.228 17.774L184.327 21.1791ZM189.101 16.3623C189.328 15.94 189.613 15.308 189.613 14.5938H185.613C185.613 14.5015 185.623 14.4319 185.631 14.3904C185.639 14.3486 185.647 14.3252 185.648 14.3226C185.649 14.3197 185.645 14.3305 185.633 14.3565C185.622 14.3821 185.604 14.4184 185.579 14.4659L189.101 16.3623ZM189.613 14.5938C189.613 13.773 189.249 12.9414 188.454 12.4218C187.807 11.9987 187.09 11.9297 186.598 11.9297V15.9297C186.782 15.9297 186.573 15.9714 186.265 15.7696C186.083 15.6509 185.897 15.4656 185.768 15.2116C185.642 14.9651 185.613 14.7399 185.613 14.5938H189.613ZM186.598 11.9297C185.802 11.9297 184.864 12.1186 183.875 12.3933L184.945 16.2473C185.832 16.0012 186.352 15.9297 186.598 15.9297V11.9297ZM195.934 8.38281L195.36 6.46682L194.175 6.82155L193.963 8.04013L195.934 8.38281ZM211.207 10.2188L209.207 10.1975L209.207 10.2039L211.207 10.2188ZM204.566 20.8047L203.313 19.2466L202.193 20.1476L202.69 21.4961L204.566 20.8047ZM209.098 30.1406L210.454 31.6102L211.566 30.5843L210.881 29.2356L209.098 30.1406ZM202.965 35.6484L201.1 36.3714L202.139 39.0515L204.291 37.1456L202.965 35.6484ZM198.785 24.8672L200.65 24.1443L200.155 22.8672H198.785V24.8672ZM198.746 24.8672V22.8672H197.079L196.779 24.5068L198.746 24.8672ZM197.34 34.3203L197.876 36.247L199.183 35.8833L199.328 34.5353L197.34 34.3203ZM191.168 36.0391L189.176 35.858L188.914 38.7429L191.705 37.9657L191.168 36.0391ZM192.027 30.8438L193.996 31.1984L193.998 31.1864L192.027 30.8438ZM200.855 14.5547L200.21 12.6617L199.196 13.0073L198.922 14.0429L200.855 14.5547ZM200.23 17.2109L202.189 17.6142L200.23 17.2109ZM199.684 19.8672L197.725 19.4639L196.882 23.557L200.598 21.6458L199.684 19.8672ZM202.379 18.0312L203.677 19.5529L203.685 19.5459L203.693 19.5388L202.379 18.0312ZM204.41 15.4922L202.662 14.5209L202.608 14.6172L202.566 14.7187L204.41 15.4922ZM196.507 10.2988C200.512 9.09985 203.647 8.54688 205.973 8.54688V4.54688C203.09 4.54688 199.532 5.21786 195.36 6.46682L196.507 10.2988ZM205.973 8.54688C207.562 8.54688 208.389 8.835 208.769 9.10216C209.015 9.27458 209.214 9.51937 209.207 10.1975L213.207 10.24C213.226 8.47021 212.566 6.87907 211.067 5.82753C209.703 4.87073 207.899 4.54688 205.973 4.54688V8.54688ZM209.207 10.2039C209.188 12.8329 207.527 15.8546 203.313 19.2466L205.82 22.3628C210.407 18.6714 213.174 14.6358 213.207 10.2336L209.207 10.2039ZM202.69 21.4961C203.106 22.625 204.689 25.8722 207.314 31.0457L210.881 29.2356C208.194 23.9403 206.756 20.9636 206.443 20.1133L202.69 21.4961ZM207.741 28.671C206.403 29.9066 204.371 31.7315 201.639 34.1513L204.291 37.1456C207.028 34.7216 209.084 32.8746 210.454 31.6102L207.741 28.671ZM204.83 34.9255L200.65 24.1443L196.92 25.5901L201.1 36.3714L204.83 34.9255ZM198.785 22.8672H198.746V26.8672H198.785V22.8672ZM196.779 24.5068C196.147 27.9576 195.67 31.1578 195.351 34.1053L199.328 34.5353C199.635 31.7016 200.096 28.5997 200.713 25.2276L196.779 24.5068ZM196.803 32.3936L190.631 34.1124L191.705 37.9657L197.876 36.247L196.803 32.3936ZM193.16 36.2201C193.202 35.7574 193.467 34.1349 193.996 31.1984L190.059 30.4891C189.546 33.3338 189.238 35.1749 189.176 35.858L193.16 36.2201ZM193.998 31.1864L197.904 8.72549L193.963 8.04013L190.057 30.5011L193.998 31.1864ZM198.922 14.0429C198.678 14.9638 198.461 15.8853 198.272 16.8076L202.189 17.6142C202.364 16.7657 202.564 15.9164 202.789 15.0665L198.922 14.0429ZM198.272 16.8076L197.725 19.4639L201.643 20.2705L202.189 17.6142L198.272 16.8076ZM200.598 21.6458C201.664 21.0977 202.69 20.395 203.677 19.5529L201.081 16.5096C200.297 17.1779 199.526 17.6992 198.769 18.0886L200.598 21.6458ZM203.693 19.5388C204.827 18.5505 205.751 17.4662 206.255 16.2656L202.566 14.7187C202.392 15.1328 201.962 15.7412 201.065 16.5237L203.693 19.5388ZM206.158 16.4635C206.408 16.0151 206.605 15.4603 206.605 14.8281H202.605C202.605 14.6127 202.673 14.5005 202.662 14.5209L206.158 16.4635ZM206.605 14.8281C206.605 14.0622 206.324 13.192 205.531 12.5902C204.842 12.0676 204.046 11.9688 203.473 11.9688V15.9688C203.654 15.9688 203.425 16.0131 203.113 15.777C202.94 15.645 202.795 15.4641 202.704 15.2567C202.618 15.0611 202.605 14.9022 202.605 14.8281H206.605ZM203.473 11.9688C202.528 11.9688 201.396 12.2572 200.21 12.6617L201.501 16.4477C202.606 16.0709 203.219 15.9688 203.473 15.9688V11.9688ZM212.887 8.42188L212.521 6.45561L211.155 6.70982L210.916 8.07908L212.887 8.42188ZM219.605 7.17188L221.541 7.67397L222.331 4.63053L219.24 5.20561L219.605 7.17188ZM214.293 34.3203L214.826 36.2479L216.134 35.8859L216.281 34.5367L214.293 34.3203ZM208.082 36.0391L206.112 35.6963L205.57 38.8094L208.615 37.9666L208.082 36.0391ZM213.253 10.3881L219.971 9.13814L219.24 5.20561L212.521 6.45561L213.253 10.3881ZM217.67 6.66978C214.946 17.1722 213.152 26.3217 212.305 34.1039L216.281 34.5367C217.101 27.0064 218.849 18.0569 221.541 7.67397L217.67 6.66978ZM213.76 32.3928L207.549 34.1115L208.615 37.9666L214.826 36.2479L213.76 32.3928ZM210.052 36.3819L214.857 8.76467L210.916 8.07908L206.112 35.6963L210.052 36.3819ZM220.855 8.42188L220.49 6.45561L219.123 6.70982L218.885 8.07908L220.855 8.42188ZM227.574 7.17188L229.51 7.67501L230.301 4.63019L227.208 5.20561L227.574 7.17188ZM223.238 27.1328L221.265 26.804L220.811 29.5285L223.542 29.1097L223.238 27.1328ZM230.113 26.0781L232.107 26.2389L232.31 23.7177L229.81 24.1013L230.113 26.0781ZM229.527 33.3438L229.703 35.336L231.385 35.1876L231.521 33.5045L229.527 33.3438ZM216.051 36.0391L214.08 35.6963L213.541 38.7966L216.577 37.9686L216.051 36.0391ZM221.221 10.3881L227.94 9.13814L227.208 5.20561L220.49 6.45561L221.221 10.3881ZM225.639 6.66874C223.752 13.9285 222.293 20.6412 221.265 26.804L225.211 27.4616C226.215 21.437 227.647 14.8423 229.51 7.67501L225.639 6.66874ZM223.542 29.1097L230.417 28.055L229.81 24.1013L222.935 25.1559L223.542 29.1097ZM228.12 25.9174L227.534 33.183L231.521 33.5045L232.107 26.2389L228.12 25.9174ZM229.352 31.3515C225.644 31.6787 221.024 32.6098 215.525 34.1095L216.577 37.9686C221.963 36.4996 226.328 35.6338 229.703 35.336L229.352 31.3515ZM218.021 36.3819L222.826 8.76467L218.885 8.07908L214.08 35.6963L218.021 36.3819ZM233.902 8.42188L233.537 6.45561L232.17 6.70982L231.932 8.07908L233.902 8.42188ZM240.621 7.17188L242.557 7.67501L243.348 4.63019L240.255 5.20561L240.621 7.17188ZM236.285 27.1328L234.312 26.804L233.858 29.5285L236.588 29.1097L236.285 27.1328ZM243.16 26.0781L245.154 26.2389L245.357 23.7177L242.857 24.1013L243.16 26.0781ZM242.574 33.3438L242.75 35.336L244.432 35.1876L244.568 33.5045L242.574 33.3438ZM229.098 36.0391L227.127 35.6963L226.588 38.7966L229.624 37.9686L229.098 36.0391ZM234.268 10.3881L240.987 9.13814L240.255 5.20561L233.537 6.45561L234.268 10.3881ZM238.685 6.66874C236.798 13.9285 235.34 20.6412 234.312 26.804L238.258 27.4616C239.262 21.437 240.694 14.8423 242.557 7.67501L238.685 6.66874ZM236.588 29.1097L243.463 28.055L242.857 24.1013L235.982 25.1559L236.588 29.1097ZM241.167 25.9174L240.581 33.183L244.568 33.5045L245.154 26.2389L241.167 25.9174ZM242.398 31.3515C238.69 31.6787 234.071 32.6098 228.571 34.1095L229.624 37.9686C235.01 36.4996 239.375 35.6338 242.75 35.336L242.398 31.3515ZM231.068 36.3819L235.873 8.76467L231.932 8.07908L227.127 35.6963L231.068 36.3819ZM247.691 8.42188L247.326 6.45561L245.959 6.70982L245.721 8.07908L247.691 8.42188ZM254.41 7.17188L256.346 7.67397L257.135 4.63053L254.044 5.20561L254.41 7.17188ZM249.098 34.3203L249.631 36.2479L250.939 35.8859L251.086 34.5367L249.098 34.3203ZM242.887 36.0391L240.916 35.6963L240.375 38.8094L243.42 37.9666L242.887 36.0391ZM248.057 10.3881L254.776 9.13814L254.044 5.20561L247.326 6.45561L248.057 10.3881ZM252.474 6.66978C249.75 17.1722 247.956 26.3217 247.109 34.1039L251.086 34.5367C251.906 27.0064 253.653 18.0569 256.346 7.67397L252.474 6.66978ZM248.564 32.3928L242.353 34.1115L243.42 37.9666L249.631 36.2479L248.564 32.3928ZM244.857 36.3819L249.662 8.76467L245.721 8.07908L240.916 35.6963L244.857 36.3819ZM247.77 36.5078L245.907 35.7779L244.641 39.0076L248.071 38.485L247.77 36.5078ZM257.066 8.26562L256.736 6.29319L255.459 6.50735L255.131 7.75965L257.066 8.26562ZM268.941 6.27344L270.913 6.61173L271.389 3.83485L268.611 4.301L268.941 6.27344ZM267.105 34.2812L267.556 36.2299L269.125 35.8673L269.105 34.2571L267.105 34.2812ZM258.824 36.1953L256.838 35.957L256.499 38.7855L259.275 38.1439L258.824 36.1953ZM259.41 31.3125L261.396 31.5508L261.723 28.8265L259.029 29.3491L259.41 31.3125ZM256.793 31.8203L256.412 29.8569L255.147 30.1024L254.848 31.3561L256.793 31.8203ZM255.973 35.2578L256.274 37.235L257.605 37.0321L257.918 35.722L255.973 35.2578ZM260.035 26.0781L260.396 28.0452L261.843 27.7796L262.021 26.3197L260.035 26.0781ZM261.832 11.3125L263.817 11.5541L264.09 9.3125H261.832V11.3125ZM261.793 11.3125V9.3125H260.221L259.849 10.8404L261.793 11.3125ZM258.121 26.4297L256.178 25.9576L255.45 28.9538L258.482 28.3968L258.121 26.4297ZM249.632 37.2377C253.485 27.4075 256.609 17.9185 259.001 8.7716L255.131 7.75965C252.784 16.7378 249.71 26.0769 245.907 35.7779L249.632 37.2377ZM257.397 10.2381L269.272 8.24587L268.611 4.301L256.736 6.29319L257.397 10.2381ZM266.97 5.93515C265.59 13.9784 264.974 23.4415 265.106 34.3054L269.105 34.2571C268.976 23.5585 269.585 14.3497 270.913 6.61173L266.97 5.93515ZM266.655 32.3326L258.374 34.2467L259.275 38.1439L267.556 36.2299L266.655 32.3326ZM260.81 36.4336L261.396 31.5508L257.424 31.0742L256.838 35.957L260.81 36.4336ZM259.029 29.3491L256.412 29.8569L257.174 33.7837L259.791 33.2759L259.029 29.3491ZM254.848 31.3561L254.027 34.7936L257.918 35.722L258.738 32.2845L254.848 31.3561ZM255.671 33.2806L247.468 34.5306L248.071 38.485L256.274 37.235L255.671 33.2806ZM262.021 26.3197L263.817 11.5541L259.847 11.0709L258.05 25.8365L262.021 26.3197ZM261.832 9.3125H261.793V13.3125H261.832V9.3125ZM259.849 10.8404L256.178 25.9576L260.065 26.9017L263.736 11.7846L259.849 10.8404ZM258.482 28.3968L260.396 28.0452L259.674 24.111L257.76 24.4626L258.482 28.3968ZM271.949 8.53906L271.553 6.57878L270.215 6.84935L269.979 8.19329L271.949 8.53906ZM278.707 7.17188L280.703 7.30064L280.871 4.69354L278.31 5.21159L278.707 7.17188ZM278.98 19.9453L280.973 19.7764L280.973 19.7712L278.98 19.9453ZM279.566 23.6562L277.639 24.1915L281.537 23.9998L279.566 23.6562ZM282.223 8.42188L281.857 6.45561L280.491 6.70972L280.252 8.07834L282.223 8.42188ZM288.941 7.17188L290.877 7.67397L291.667 4.63053L288.576 5.20561L288.941 7.17188ZM283.629 34.3203L284.165 36.247L285.471 35.8835L285.617 34.5367L283.629 34.3203ZM277.457 36.0391L275.668 36.9335L276.405 38.408L277.994 37.9657L277.457 36.0391ZM276.949 34.6719L275.062 35.3348L275.066 35.3451L275.07 35.3554L276.949 34.6719ZM274.918 28.8906L276.805 28.2277L276.802 28.2195L276.799 28.2113L274.918 28.8906ZM274.332 27.0938L276.293 26.7015L272.363 26.7433L274.332 27.0938ZM273.043 36.0391L273.618 37.9547L274.889 37.5734L275.031 36.254L273.043 36.0391ZM266.793 37.9141L264.823 37.5683L264.263 40.7612L267.368 39.8297L266.793 37.9141ZM272.346 10.4993L279.104 9.13216L278.31 5.21159L271.553 6.57878L272.346 10.4993ZM276.711 7.04311C276.655 7.91481 276.629 9.11109 276.629 10.6094H280.629C280.629 9.13891 280.655 8.04352 280.703 7.30064L276.711 7.04311ZM276.629 10.6094C276.629 14.1922 276.747 17.3645 276.988 20.1194L280.973 19.7712C280.745 17.1615 280.629 14.1099 280.629 10.6094H276.629ZM276.988 20.1142C277.123 21.7118 277.332 23.0858 277.639 24.1915L281.493 23.121C281.28 22.3517 281.098 21.2518 280.973 19.7764L276.988 20.1142ZM281.537 23.9998L284.193 8.76541L280.252 8.07834L277.596 23.3127L281.537 23.9998ZM282.588 10.3881L289.307 9.13814L288.576 5.20561L281.857 6.45561L282.588 10.3881ZM287.005 6.66978C284.282 17.1722 282.488 26.3217 281.641 34.1039L285.617 34.5367C286.437 27.0064 288.185 18.0569 290.877 7.67397L287.005 6.66978ZM283.092 32.3936L276.92 34.1124L277.994 37.9657L284.165 36.247L283.092 32.3936ZM279.246 35.1446C279.284 35.2201 279.306 35.2793 279.295 35.251C279.293 35.2469 279.288 35.2333 279.277 35.2064C279.257 35.1535 279.227 35.0732 279.185 34.9618C279.103 34.7405 278.985 34.4168 278.829 33.9884L275.07 35.3554C275.226 35.7863 275.349 36.1202 275.436 36.3546C275.49 36.5019 275.592 36.7815 275.668 36.9335L279.246 35.1446ZM278.836 34.0089L276.805 28.2277L273.031 29.5536L275.062 35.3348L278.836 34.0089ZM276.799 28.2113C276.633 27.7524 276.508 27.3899 276.419 27.1182C276.375 26.9825 276.342 26.8774 276.32 26.7993C276.295 26.7144 276.291 26.6883 276.293 26.7015L272.371 27.486C272.459 27.9245 272.715 28.6791 273.037 29.5699L276.799 28.2113ZM272.363 26.7433C271.809 29.8579 271.372 32.8849 271.055 35.8241L275.031 36.254C275.339 33.4119 275.762 30.4754 276.301 27.4442L272.363 26.7433ZM272.468 34.1234L266.218 35.9984L267.368 39.8297L273.618 37.9547L272.468 34.1234ZM268.763 38.2598L273.919 8.88484L269.979 8.19329L264.823 37.5683L268.763 38.2598ZM304.137 6.78125L306.136 6.84573L306.21 4.52829L303.907 4.79447L304.137 6.78125ZM303.902 14.0469L304.016 16.0436L305.842 15.9393L305.901 14.1114L303.902 14.0469ZM298.707 14.4375L298.517 12.4465L297.093 12.5822L296.761 13.9739L298.707 14.4375ZM295.23 34.3203L295.734 36.2558L297.083 35.9046L297.221 34.5176L295.23 34.3203ZM288.629 36.0391L286.658 35.6983L286.129 38.7565L289.133 37.9745L288.629 36.0391ZM292.223 15.2578L294.193 15.5986L294.665 12.8742L291.93 13.2794L292.223 15.2578ZM290.113 15.6094L289.749 13.6428L289.742 13.6441L290.113 15.6094ZM288.043 16L286.047 16.1281L286.192 18.3846L288.414 17.9653L288.043 16ZM287.574 8.69531L287.345 6.70854L285.457 6.92672L285.578 8.82339L287.574 8.69531ZM302.138 6.71677L301.903 13.9824L305.901 14.1114L306.136 6.84573L302.138 6.71677ZM303.788 12.0501C301.943 12.1556 300.186 12.2876 298.517 12.4465L298.897 16.4285C300.51 16.2749 302.216 16.1465 304.016 16.0436L303.788 12.0501ZM296.761 13.9739C295.026 21.2567 293.85 27.9746 293.24 34.123L297.221 34.5176C297.809 28.5826 298.95 22.0454 300.653 14.9011L296.761 13.9739ZM294.727 32.3848L288.125 34.1036L289.133 37.9745L295.734 36.2558L294.727 32.3848ZM290.6 36.3799L294.193 15.5986L290.252 14.917L286.658 35.6983L290.6 36.3799ZM291.93 13.2794C291.203 13.3871 290.476 13.5083 289.749 13.6428L290.477 17.5759C291.157 17.4501 291.837 17.3368 292.516 17.2362L291.93 13.2794ZM289.742 13.6441L287.672 14.0347L288.414 17.9653L290.484 17.5747L289.742 13.6441ZM290.039 15.8719L289.57 8.56723L285.578 8.82339L286.047 16.1281L290.039 15.8719ZM287.804 10.6821L304.366 8.76803L303.907 4.79447L287.345 6.70854L287.804 10.6821ZM304.527 29.6328L304.786 31.616L304.798 31.6144L304.81 31.6127L304.527 29.6328ZM306.949 30.0234L305.978 31.7718L306.016 31.7929L306.055 31.8123L306.949 30.0234ZM306.285 35.2578L305.06 33.6774L305.053 33.6827L305.046 33.688L306.285 35.2578ZM303.043 36.6641L302.779 34.6816L302.768 34.6831L303.043 36.6641ZM300.621 36.3516L299.704 38.1288L299.715 38.1347L299.727 38.1404L300.621 36.3516ZM301.246 31.0781L299.982 29.5284L299.975 29.5337L299.969 29.539L301.246 31.0781ZM308.941 5.33594L309.272 3.36341L307.509 3.06826L307.018 4.7865L308.941 5.33594ZM317.105 6.70312L318.853 7.6764L320.233 5.19898L317.436 4.73059L317.105 6.70312ZM312.34 15.8047L310.526 14.9625L310.523 14.9676L312.34 15.8047ZM308.668 25.5312L308.582 27.5294L310.128 27.5961L310.58 26.1164L308.668 25.5312ZM303.238 25.2969L301.315 24.7474L300.619 27.1857L303.152 27.295L303.238 25.2969ZM304.81 31.6127C305.355 31.5349 305.71 31.6231 305.978 31.7718L307.921 28.2751C306.782 27.6426 305.523 27.4703 304.245 27.6529L304.81 31.6127ZM306.055 31.8123C306.137 31.8533 306.179 31.8856 306.197 31.9006C306.213 31.9144 306.211 31.9155 306.202 31.9023C306.193 31.8887 306.19 31.8782 306.191 31.8799C306.192 31.8834 306.199 31.9124 306.199 31.9766H310.199C310.199 31.2087 310.014 30.4383 309.571 29.7461C309.132 29.0598 308.517 28.571 307.844 28.2346L306.055 31.8123ZM306.199 31.9766C306.199 32.3571 306.03 32.9251 305.06 33.6774L307.511 36.8383C309.093 35.6114 310.199 33.9918 310.199 31.9766H306.199ZM305.046 33.688C304.319 34.262 303.571 34.576 302.779 34.6816L303.307 38.6465C304.859 38.4396 306.272 37.8161 307.524 36.8276L305.046 33.688ZM302.768 34.6831C302.13 34.7717 301.75 34.6798 301.516 34.5627L299.727 38.1404C300.847 38.7004 302.081 38.8169 303.318 38.645L302.768 34.6831ZM301.538 34.5743C301.465 34.5363 301.428 34.5072 301.414 34.495C301.402 34.484 301.405 34.4845 301.413 34.4969C301.421 34.5095 301.422 34.517 301.42 34.5104C301.418 34.5019 301.41 34.4676 301.41 34.3984H297.41C297.41 35.1544 297.586 35.9159 298.013 36.6047C298.438 37.2906 299.039 37.7857 299.704 38.1288L301.538 34.5743ZM301.41 34.3984C301.41 33.9762 301.597 33.3857 302.523 32.6172L299.969 29.539C298.447 30.8018 297.41 32.4248 297.41 34.3984H301.41ZM302.51 32.6279C303.229 32.0417 303.979 31.7213 304.786 31.616L304.269 27.6496C302.68 27.8568 301.243 28.4999 299.982 29.5284L302.51 32.6279ZM308.611 7.30847L316.775 8.67566L317.436 4.73059L309.272 3.36341L308.611 7.30847ZM315.358 5.72985C313.189 9.62374 311.573 12.708 310.526 14.9625L314.154 16.6469C315.138 14.5264 316.699 11.5429 318.853 7.6764L315.358 5.72985ZM310.523 14.9676C309.102 18.0522 307.847 21.3794 306.755 24.9461L310.58 26.1164C311.625 22.7039 312.817 19.5468 314.156 16.6418L310.523 14.9676ZM308.754 23.5331L303.325 23.2987L303.152 27.295L308.582 27.5294L308.754 23.5331ZM305.161 25.8463L310.864 5.88538L307.018 4.7865L301.315 24.7474L305.161 25.8463Z" fill="#F7931E" mask="url(#path-1-outside-1_2878_7720)"/>
</svg>
