<svg width="154" height="43" viewBox="0 0 154 43" fill="none" xmlns="http://www.w3.org/2000/svg">
<mask id="path-1-outside-1_2877_7715" maskUnits="userSpaceOnUse" x="2" y="3" width="150" height="38" fill="black">
<rect fill="white" x="2" y="3" width="150" height="38"/>
<path d="M5.47656 36.5078C9.30469 26.7422 12.4036 17.3281 14.7734 8.26562L26.6484 6.27344C25.2943 14.1641 24.6823 23.5 24.8125 34.2812L16.5312 36.1953L17.1172 31.3125L14.5 31.8203L13.6797 35.2578L5.47656 36.5078ZM17.7422 26.0781L19.5391 11.3125H19.5L15.8281 26.4297L17.7422 26.0781ZM22.625 36.2344C26.1406 27.3281 28.8229 18.2656 30.6719 9.04688L40.0078 7.52344L38.6797 21.8594L42.3125 8.61719L51.2969 7.05469C50.2292 15.5443 49.6953 23.2005 49.6953 30.0234C49.6953 31.3776 49.7083 32.7188 49.7344 34.0469L41.7266 35.4531L43.1328 18.3438L38.0156 37.2891L33.7188 37.875L36.2969 13.8125L30.75 35.1406L22.625 36.2344ZM46.5312 36.5078C50.3594 26.7422 53.4583 17.3281 55.8281 8.26562L67.7031 6.27344C66.349 14.1641 65.737 23.5 65.8672 34.2812L57.5859 36.1953L58.1719 31.3125L55.5547 31.8203L54.7344 35.2578L46.5312 36.5078ZM58.7969 26.0781L60.5938 11.3125H60.5547L56.8828 26.4297L58.7969 26.0781ZM87.0391 14.75C85.9453 15.8438 83.7839 18.1875 80.5547 21.7812C79.4609 22.9531 78.3802 24.125 77.3125 25.2969C75.9062 26.8333 74.9167 28.0312 74.3438 28.8906L83.5625 28.2656L82.7422 35.5703C75.9974 35.7526 70.3724 36.1562 65.8672 36.7812L65.9062 29.5547C67 28.2786 69.1745 25.8958 72.4297 22.4062L79.1875 15.1797C76.9479 15.362 74.5391 15.6615 71.9609 16.0781L72.2344 8.69531L88.0547 7.44531C87.8203 9.0599 87.4818 11.4948 87.0391 14.75ZM90.125 8.42188L96.8438 7.17188C94.1354 17.6146 92.3646 26.6641 91.5312 34.3203L85.3203 36.0391L90.125 8.42188ZM98.4453 8.53906L105.203 7.17188C105.151 7.97917 105.125 9.125 105.125 10.6094C105.125 14.151 105.242 17.263 105.477 19.9453C105.607 21.4818 105.802 22.7188 106.062 23.6562L108.719 8.42188L115.438 7.17188C112.729 17.6146 110.958 26.6641 110.125 34.3203L103.953 36.0391C103.927 35.987 103.758 35.5312 103.445 34.6719L101.414 28.8906C101.076 27.9531 100.88 27.3542 100.828 27.0938C100.281 30.1667 99.8516 33.1484 99.5391 36.0391L93.2891 37.9141L98.4453 8.53906ZM118.602 36.9375C115.841 36.9375 113.888 35.4531 112.742 32.4844C112.143 31 111.844 29.3333 111.844 27.4844C111.844 25.7396 112.117 23.8255 112.664 21.7422C113.576 18.1745 115.203 14.9062 117.547 11.9375C120.385 8.31771 123.406 6.50781 126.609 6.50781C129.396 6.50781 131.362 8.04427 132.508 11.1172L128.172 15.7656C127.703 15.0625 127.013 14.7109 126.102 14.7109C124.331 14.7109 122.664 15.9349 121.102 18.3828C119.93 20.2318 119.057 22.276 118.484 24.5156C118.25 25.401 118.133 26.1953 118.133 26.8984C118.133 27.9661 118.406 28.8255 118.953 29.4766C119.552 30.2057 120.385 30.5703 121.453 30.5703C122.677 30.5703 123.81 30.0104 124.852 28.8906C125.685 28.0052 126.362 26.8854 126.883 25.5312C124.956 25.9219 123.172 26.3255 121.531 26.7422L122.781 20.9609L133.133 18.7734C133.185 20.4661 132.82 22.4062 132.039 24.5938C131.336 26.5208 130.464 28.2917 129.422 29.9062C126.375 34.5938 122.768 36.9375 118.602 36.9375ZM135.867 29.6328C136.779 29.5026 137.586 29.6328 138.289 30.0234C139.122 30.4401 139.539 31.0911 139.539 31.9766C139.539 33.1745 138.901 34.2682 137.625 35.2578C136.635 36.0391 135.555 36.5078 134.383 36.6641C133.445 36.7943 132.638 36.6901 131.961 36.3516C131.154 35.9349 130.75 35.2839 130.75 34.3984C130.75 33.2005 131.362 32.0938 132.586 31.0781C133.576 30.2708 134.669 29.7891 135.867 29.6328ZM140.281 5.33594L148.445 6.70312C146.284 10.5833 144.695 13.6172 143.68 15.8047C142.299 18.7995 141.076 22.0417 140.008 25.5312L134.578 25.2969L140.281 5.33594Z"/>
</mask>
<path d="M5.47656 36.5078C9.30469 26.7422 12.4036 17.3281 14.7734 8.26562L26.6484 6.27344C25.2943 14.1641 24.6823 23.5 24.8125 34.2812L16.5312 36.1953L17.1172 31.3125L14.5 31.8203L13.6797 35.2578L5.47656 36.5078ZM17.7422 26.0781L19.5391 11.3125H19.5L15.8281 26.4297L17.7422 26.0781ZM22.625 36.2344C26.1406 27.3281 28.8229 18.2656 30.6719 9.04688L40.0078 7.52344L38.6797 21.8594L42.3125 8.61719L51.2969 7.05469C50.2292 15.5443 49.6953 23.2005 49.6953 30.0234C49.6953 31.3776 49.7083 32.7188 49.7344 34.0469L41.7266 35.4531L43.1328 18.3438L38.0156 37.2891L33.7188 37.875L36.2969 13.8125L30.75 35.1406L22.625 36.2344ZM46.5312 36.5078C50.3594 26.7422 53.4583 17.3281 55.8281 8.26562L67.7031 6.27344C66.349 14.1641 65.737 23.5 65.8672 34.2812L57.5859 36.1953L58.1719 31.3125L55.5547 31.8203L54.7344 35.2578L46.5312 36.5078ZM58.7969 26.0781L60.5938 11.3125H60.5547L56.8828 26.4297L58.7969 26.0781ZM87.0391 14.75C85.9453 15.8438 83.7839 18.1875 80.5547 21.7812C79.4609 22.9531 78.3802 24.125 77.3125 25.2969C75.9062 26.8333 74.9167 28.0312 74.3438 28.8906L83.5625 28.2656L82.7422 35.5703C75.9974 35.7526 70.3724 36.1562 65.8672 36.7812L65.9062 29.5547C67 28.2786 69.1745 25.8958 72.4297 22.4062L79.1875 15.1797C76.9479 15.362 74.5391 15.6615 71.9609 16.0781L72.2344 8.69531L88.0547 7.44531C87.8203 9.0599 87.4818 11.4948 87.0391 14.75ZM90.125 8.42188L96.8438 7.17188C94.1354 17.6146 92.3646 26.6641 91.5312 34.3203L85.3203 36.0391L90.125 8.42188ZM98.4453 8.53906L105.203 7.17188C105.151 7.97917 105.125 9.125 105.125 10.6094C105.125 14.151 105.242 17.263 105.477 19.9453C105.607 21.4818 105.802 22.7188 106.062 23.6562L108.719 8.42188L115.438 7.17188C112.729 17.6146 110.958 26.6641 110.125 34.3203L103.953 36.0391C103.927 35.987 103.758 35.5312 103.445 34.6719L101.414 28.8906C101.076 27.9531 100.88 27.3542 100.828 27.0938C100.281 30.1667 99.8516 33.1484 99.5391 36.0391L93.2891 37.9141L98.4453 8.53906ZM118.602 36.9375C115.841 36.9375 113.888 35.4531 112.742 32.4844C112.143 31 111.844 29.3333 111.844 27.4844C111.844 25.7396 112.117 23.8255 112.664 21.7422C113.576 18.1745 115.203 14.9062 117.547 11.9375C120.385 8.31771 123.406 6.50781 126.609 6.50781C129.396 6.50781 131.362 8.04427 132.508 11.1172L128.172 15.7656C127.703 15.0625 127.013 14.7109 126.102 14.7109C124.331 14.7109 122.664 15.9349 121.102 18.3828C119.93 20.2318 119.057 22.276 118.484 24.5156C118.25 25.401 118.133 26.1953 118.133 26.8984C118.133 27.9661 118.406 28.8255 118.953 29.4766C119.552 30.2057 120.385 30.5703 121.453 30.5703C122.677 30.5703 123.81 30.0104 124.852 28.8906C125.685 28.0052 126.362 26.8854 126.883 25.5312C124.956 25.9219 123.172 26.3255 121.531 26.7422L122.781 20.9609L133.133 18.7734C133.185 20.4661 132.82 22.4062 132.039 24.5938C131.336 26.5208 130.464 28.2917 129.422 29.9062C126.375 34.5938 122.768 36.9375 118.602 36.9375ZM135.867 29.6328C136.779 29.5026 137.586 29.6328 138.289 30.0234C139.122 30.4401 139.539 31.0911 139.539 31.9766C139.539 33.1745 138.901 34.2682 137.625 35.2578C136.635 36.0391 135.555 36.5078 134.383 36.6641C133.445 36.7943 132.638 36.6901 131.961 36.3516C131.154 35.9349 130.75 35.2839 130.75 34.3984C130.75 33.2005 131.362 32.0938 132.586 31.0781C133.576 30.2708 134.669 29.7891 135.867 29.6328ZM140.281 5.33594L148.445 6.70312C146.284 10.5833 144.695 13.6172 143.68 15.8047C142.299 18.7995 141.076 22.0417 140.008 25.5312L134.578 25.2969L140.281 5.33594Z" fill="#FAD557"/>
<path d="M5.47656 36.5078L3.61452 35.7779L2.34849 39.0076L5.77785 38.485L5.47656 36.5078ZM14.7734 8.26562L14.4425 6.29319L13.166 6.50735L12.8385 7.75965L14.7734 8.26562ZM26.6484 6.27344L28.6196 6.61173L29.0962 3.83485L26.3175 4.301L26.6484 6.27344ZM24.8125 34.2812L25.2629 36.2299L26.8318 35.8673L26.8124 34.2571L24.8125 34.2812ZM16.5312 36.1953L14.5455 35.957L14.2061 38.7855L16.9816 38.1439L16.5312 36.1953ZM17.1172 31.3125L19.1029 31.5508L19.4299 28.8265L16.7362 29.3491L17.1172 31.3125ZM14.5 31.8203L14.119 29.8569L12.8538 30.1024L12.5546 31.3561L14.5 31.8203ZM13.6797 35.2578L13.981 37.235L15.3124 37.0321L15.6251 35.722L13.6797 35.2578ZM17.7422 26.0781L18.1035 28.0452L19.5499 27.7796L19.7275 26.3197L17.7422 26.0781ZM19.5391 11.3125L21.5244 11.5541L21.7972 9.3125H19.5391V11.3125ZM19.5 11.3125V9.3125H17.9276L17.5565 10.8404L19.5 11.3125ZM15.8281 26.4297L13.8846 25.9576L13.1569 28.9538L16.1894 28.3968L15.8281 26.4297ZM7.33861 37.2377C11.1921 27.4075 14.3165 17.9185 16.7084 8.7716L12.8385 7.75965C10.4908 16.7378 7.41731 26.0769 3.61452 35.7779L7.33861 37.2377ZM15.1043 10.2381L26.9793 8.24587L26.3175 4.301L14.4425 6.29319L15.1043 10.2381ZM24.6773 5.93515C23.2969 13.9784 22.6814 23.4415 22.8126 34.3054L26.8124 34.2571C26.6831 23.5585 27.2917 14.3497 28.6196 6.61173L24.6773 5.93515ZM24.3621 32.3326L16.0809 34.2467L16.9816 38.1439L25.2629 36.2299L24.3621 32.3326ZM18.517 36.4336L19.1029 31.5508L15.1314 31.0742L14.5455 35.957L18.517 36.4336ZM16.7362 29.3491L14.119 29.8569L14.881 33.7837L17.4981 33.2759L16.7362 29.3491ZM12.5546 31.3561L11.7343 34.7936L15.6251 35.722L16.4454 32.2845L12.5546 31.3561ZM13.3784 33.2806L5.17528 34.5306L5.77785 38.485L13.981 37.235L13.3784 33.2806ZM19.7275 26.3197L21.5244 11.5541L17.5537 11.0709L15.7568 25.8365L19.7275 26.3197ZM19.5391 9.3125H19.5V13.3125H19.5391V9.3125ZM17.5565 10.8404L13.8846 25.9576L17.7716 26.9017L21.4435 11.7846L17.5565 10.8404ZM16.1894 28.3968L18.1035 28.0452L17.3809 24.111L15.4668 24.4626L16.1894 28.3968ZM22.625 36.2344L20.7647 35.5L19.5129 38.6714L22.8918 38.2165L22.625 36.2344ZM30.6719 9.04688L30.3498 7.07298L28.9832 7.29598L28.7109 8.65358L30.6719 9.04688ZM40.0078 7.52344L41.9993 7.70793L42.2378 5.13309L39.6857 5.54954L40.0078 7.52344ZM38.6797 21.8594L36.6882 21.6749L40.6084 22.3885L38.6797 21.8594ZM42.3125 8.61719L41.9698 6.64676L40.7195 6.86421L40.3838 8.08806L42.3125 8.61719ZM51.2969 7.05469L53.2812 7.30426L53.6187 4.62087L50.9542 5.08426L51.2969 7.05469ZM49.7344 34.0469L50.0803 36.0167L51.7676 35.7204L51.734 34.0077L49.7344 34.0469ZM41.7266 35.4531L39.7333 35.2893L39.5211 37.871L42.0725 37.423L41.7266 35.4531ZM43.1328 18.3438L45.1261 18.5076L41.202 17.8222L43.1328 18.3438ZM38.0156 37.2891L38.2859 39.2707L39.6005 39.0915L39.9464 37.8106L38.0156 37.2891ZM33.7188 37.875L31.7301 37.6619L31.458 40.2018L33.989 39.8567L33.7188 37.875ZM36.2969 13.8125L38.2855 14.0256L34.3613 13.3091L36.2969 13.8125ZM30.75 35.1406L31.0168 37.1227L32.3476 36.9436L32.6856 35.644L30.75 35.1406ZM24.4853 36.9687C28.0437 27.954 30.7601 18.7775 32.6328 9.44017L28.7109 8.65358C26.8857 17.7538 24.2375 26.7022 20.7647 35.5L24.4853 36.9687ZM30.994 11.0208L40.3299 9.49733L39.6857 5.54954L30.3498 7.07298L30.994 11.0208ZM38.0163 7.33894L36.6882 21.6749L40.6712 22.0439L41.9993 7.70793L38.0163 7.33894ZM40.6084 22.3885L44.2412 9.14631L40.3838 8.08806L36.7509 21.3303L40.6084 22.3885ZM42.6552 10.5876L51.6396 9.02511L50.9542 5.08426L41.9698 6.64676L42.6552 10.5876ZM49.3125 6.80512C48.2369 15.3577 47.6953 23.0993 47.6953 30.0234H51.6953C51.6953 23.3018 52.2215 15.7308 53.2812 7.30426L49.3125 6.80512ZM47.6953 30.0234C47.6953 31.3904 47.7085 32.7446 47.7348 34.0861L51.734 34.0077C51.7082 32.6929 51.6953 31.3648 51.6953 30.0234H47.6953ZM49.3884 32.077L41.3806 33.4833L42.0725 37.423L50.0803 36.0167L49.3884 32.077ZM43.7198 35.617L45.1261 18.5076L41.1395 18.1799L39.7333 35.2893L43.7198 35.617ZM41.202 17.8222L36.0848 36.7675L39.9464 37.8106L45.0636 18.8653L41.202 17.8222ZM37.7454 35.3074L33.4485 35.8933L33.989 39.8567L38.2859 39.2707L37.7454 35.3074ZM35.7074 38.0881L38.2855 14.0256L34.3083 13.5994L31.7301 37.6619L35.7074 38.0881ZM34.3613 13.3091L28.8144 34.6372L32.6856 35.644L38.2325 14.3159L34.3613 13.3091ZM30.4832 33.1585L22.3582 34.2523L22.8918 38.2165L31.0168 37.1227L30.4832 33.1585ZM46.5312 36.5078L44.6692 35.7779L43.4032 39.0076L46.8325 38.485L46.5312 36.5078ZM55.8281 8.26562L55.4972 6.29319L54.2207 6.50735L53.8932 7.75965L55.8281 8.26562ZM67.7031 6.27344L69.6743 6.61173L70.1509 3.83485L67.3722 4.301L67.7031 6.27344ZM65.8672 34.2812L66.3176 36.2299L67.8865 35.8673L67.867 34.2571L65.8672 34.2812ZM57.5859 36.1953L55.6002 35.957L55.2608 38.7855L58.0363 38.1439L57.5859 36.1953ZM58.1719 31.3125L60.1576 31.5508L60.4845 28.8265L57.7909 29.3491L58.1719 31.3125ZM55.5547 31.8203L55.1737 29.8569L53.9085 30.1024L53.6093 31.3561L55.5547 31.8203ZM54.7344 35.2578L55.0357 37.235L56.3671 37.0321L56.6797 35.722L54.7344 35.2578ZM58.7969 26.0781L59.1582 28.0452L60.6046 27.7796L60.7822 26.3197L58.7969 26.0781ZM60.5938 11.3125L62.5791 11.5541L62.8519 9.3125H60.5938V11.3125ZM60.5547 11.3125V9.3125H58.9823L58.6112 10.8404L60.5547 11.3125ZM56.8828 26.4297L54.9393 25.9576L54.2116 28.9538L57.2441 28.3968L56.8828 26.4297ZM48.3933 37.2377C52.2468 27.4075 55.3712 17.9185 57.7631 8.7716L53.8932 7.75965C51.5455 16.7378 48.472 26.0769 44.6692 35.7779L48.3933 37.2377ZM56.159 10.2381L68.034 8.24587L67.3722 4.301L55.4972 6.29319L56.159 10.2381ZM65.7319 5.93515C64.3516 13.9784 63.7361 23.4415 63.8673 34.3054L67.867 34.2571C67.7378 23.5585 68.3463 14.3497 69.6743 6.61173L65.7319 5.93515ZM65.4168 32.3326L57.1355 34.2467L58.0363 38.1439L66.3176 36.2299L65.4168 32.3326ZM59.5717 36.4336L60.1576 31.5508L56.1861 31.0742L55.6002 35.957L59.5717 36.4336ZM57.7909 29.3491L55.1737 29.8569L55.9356 33.7837L58.5528 33.2759L57.7909 29.3491ZM53.6093 31.3561L52.789 34.7936L56.6797 35.722L57.5001 32.2845L53.6093 31.3561ZM54.4331 33.2806L46.23 34.5306L46.8325 38.485L55.0357 37.235L54.4331 33.2806ZM60.7822 26.3197L62.5791 11.5541L58.6084 11.0709L56.8115 25.8365L60.7822 26.3197ZM60.5938 9.3125H60.5547V13.3125H60.5938V9.3125ZM58.6112 10.8404L54.9393 25.9576L58.8263 26.9017L62.4982 11.7846L58.6112 10.8404ZM57.2441 28.3968L59.1582 28.0452L58.4356 24.111L56.5215 24.4626L57.2441 28.3968ZM87.0391 14.75L88.4533 16.1642L88.93 15.6875L89.0208 15.0195L87.0391 14.75ZM80.5547 21.7812L82.0168 23.1459L82.0297 23.1321L82.0423 23.118L80.5547 21.7812ZM77.3125 25.2969L78.7878 26.6472L78.7909 26.6439L77.3125 25.2969ZM74.3438 28.8906L72.6796 27.7812L70.4266 31.1608L74.479 30.886L74.3438 28.8906ZM83.5625 28.2656L85.55 28.4888L85.8174 26.1082L83.4272 26.2702L83.5625 28.2656ZM82.7422 35.5703L82.7962 37.5696L84.5355 37.5226L84.7297 35.7935L82.7422 35.5703ZM65.8672 36.7812L63.8672 36.7704L63.8547 39.0796L66.142 38.7623L65.8672 36.7812ZM65.9062 29.5547L64.3877 28.2531L63.9102 28.8102L63.9063 29.5439L65.9062 29.5547ZM72.4297 22.4062L70.9689 21.0402L70.9672 21.042L72.4297 22.4062ZM79.1875 15.1797L80.6483 16.5457L84.1824 12.7665L79.0252 13.1863L79.1875 15.1797ZM71.9609 16.0781L69.9623 16.0041L69.872 18.4417L72.28 18.0525L71.9609 16.0781ZM72.2344 8.69531L72.0768 6.70153L70.3017 6.84179L70.2357 8.62129L72.2344 8.69531ZM88.0547 7.44531L90.0339 7.73262L90.3937 5.25427L87.8972 5.45153L88.0547 7.44531ZM85.6248 13.3358C84.4867 14.474 82.2892 16.8586 79.067 20.4445L82.0423 23.118C85.2785 19.5164 87.4039 17.2135 88.4533 16.1642L85.6248 13.3358ZM79.0926 20.4166C77.9934 21.5943 76.9073 22.772 75.8341 23.9499L78.7909 26.6439C79.8531 25.478 80.9285 24.312 82.0168 23.1459L79.0926 20.4166ZM75.8372 23.9466C74.4165 25.4988 73.3411 26.789 72.6796 27.7812L76.0079 30C76.4922 29.2735 77.396 28.1679 78.7878 26.6472L75.8372 23.9466ZM74.479 30.886L83.6978 30.261L83.4272 26.2702L74.2085 26.8952L74.479 30.886ZM81.575 28.0424L80.7547 35.3471L84.7297 35.7935L85.55 28.4888L81.575 28.0424ZM82.6882 33.571C75.9011 33.7545 70.1966 34.1615 65.5924 34.8002L66.142 38.7623C70.5482 38.151 76.0937 37.7507 82.7962 37.5696L82.6882 33.571ZM67.8672 36.7921L67.9062 29.5655L63.9063 29.5439L63.8672 36.7704L67.8672 36.7921ZM67.4248 30.8563C68.487 29.617 70.6334 27.2639 73.8922 23.7705L70.9672 21.042C67.7156 24.5277 65.513 26.9403 64.3877 28.2531L67.4248 30.8563ZM73.8905 23.7723L80.6483 16.5457L77.7267 13.8136L70.9689 21.0402L73.8905 23.7723ZM79.0252 13.1863C76.7256 13.3735 74.2639 13.68 71.6418 14.1037L72.28 18.0525C74.8143 17.6429 77.1703 17.3505 79.3498 17.1731L79.0252 13.1863ZM73.9596 16.1521L74.233 8.76934L70.2357 8.62129L69.9623 16.0041L73.9596 16.1521ZM72.3919 10.6891L88.2122 9.4391L87.8972 5.45153L72.0768 6.70153L72.3919 10.6891ZM86.0754 7.158C85.8397 8.78183 85.5002 11.224 85.0573 14.4805L89.0208 15.0195C89.4634 11.7656 89.8009 9.33796 90.0339 7.73262L86.0754 7.158ZM90.125 8.42188L89.7592 6.45561L88.3928 6.70982L88.1546 8.07908L90.125 8.42188ZM96.8438 7.17188L98.7797 7.67397L99.569 4.63053L96.4779 5.20561L96.8438 7.17188ZM91.5312 34.3203L92.0647 36.2479L93.3727 35.8859L93.5195 34.5367L91.5312 34.3203ZM85.3203 36.0391L83.3499 35.6963L82.8083 38.8094L85.8537 37.9666L85.3203 36.0391ZM90.4908 10.3881L97.2096 9.13814L96.4779 5.20561L89.7592 6.45561L90.4908 10.3881ZM94.9078 6.66978C92.184 17.1722 90.39 26.3217 89.543 34.1039L93.5195 34.5367C94.3391 27.0064 96.0869 18.0569 98.7797 7.67397L94.9078 6.66978ZM90.9978 32.3928L84.7869 34.1115L85.8537 37.9666L92.0647 36.2479L90.9978 32.3928ZM87.2907 36.3819L92.0954 8.76467L88.1546 8.07908L83.3499 35.6963L87.2907 36.3819ZM98.4453 8.53906L98.0487 6.57878L96.7113 6.84935L96.4754 8.19329L98.4453 8.53906ZM105.203 7.17188L107.199 7.30064L107.367 4.69354L104.807 5.21159L105.203 7.17188ZM105.477 19.9453L107.469 19.7764L107.469 19.7712L105.477 19.9453ZM106.062 23.6562L104.135 24.1915L108.033 23.9998L106.062 23.6562ZM108.719 8.42188L108.353 6.45561L106.987 6.70972L106.748 8.07834L108.719 8.42188ZM115.438 7.17188L117.373 7.67397L118.163 4.63053L115.072 5.20561L115.438 7.17188ZM110.125 34.3203L110.662 36.247L111.967 35.8835L112.113 34.5367L110.125 34.3203ZM103.953 36.0391L102.164 36.9335L102.902 38.408L104.49 37.9657L103.953 36.0391ZM103.445 34.6719L101.558 35.3348L101.562 35.3451L101.566 35.3554L103.445 34.6719ZM101.414 28.8906L103.301 28.2277L103.298 28.2195L103.295 28.2113L101.414 28.8906ZM100.828 27.0938L102.789 26.7015L98.8591 26.7433L100.828 27.0938ZM99.5391 36.0391L100.114 37.9547L101.385 37.5734L101.527 36.254L99.5391 36.0391ZM93.2891 37.9141L91.3192 37.5683L90.7587 40.7612L93.8638 39.8297L93.2891 37.9141ZM98.8419 10.4993L105.6 9.13216L104.807 5.21159L98.0487 6.57878L98.8419 10.4993ZM103.207 7.04311C103.151 7.91481 103.125 9.11109 103.125 10.6094H107.125C107.125 9.13891 107.151 8.04352 107.199 7.30064L103.207 7.04311ZM103.125 10.6094C103.125 14.1922 103.243 17.3645 103.484 20.1194L107.469 19.7712C107.241 17.1615 107.125 14.1099 107.125 10.6094H103.125ZM103.484 20.1142C103.619 21.7118 103.828 23.0858 104.135 24.1915L107.99 23.121C107.776 22.3517 107.594 21.2518 107.469 19.7764L103.484 20.1142ZM108.033 23.9998L110.689 8.76541L106.748 8.07834L104.092 23.3127L108.033 23.9998ZM109.085 10.3881L115.803 9.13814L115.072 5.20561L108.353 6.45561L109.085 10.3881ZM113.502 6.66978C110.778 17.1722 108.984 26.3217 108.137 34.1039L112.113 34.5367C112.933 27.0064 114.681 18.0569 117.373 7.67397L113.502 6.66978ZM109.588 32.3936L103.417 34.1124L104.49 37.9657L110.662 36.247L109.588 32.3936ZM105.742 35.1446C105.78 35.2201 105.802 35.2793 105.791 35.251C105.789 35.2469 105.784 35.2333 105.773 35.2064C105.753 35.1535 105.723 35.0732 105.681 34.9618C105.599 34.7405 105.481 34.4168 105.325 33.9884L101.566 35.3554C101.722 35.7863 101.845 36.1202 101.932 36.3546C101.987 36.5019 102.088 36.7815 102.164 36.9335L105.742 35.1446ZM105.332 34.0089L103.301 28.2277L99.5271 29.5536L101.558 35.3348L105.332 34.0089ZM103.295 28.2113C103.129 27.7524 103.004 27.3899 102.915 27.1182C102.871 26.9825 102.838 26.8774 102.816 26.7993C102.792 26.7144 102.787 26.6883 102.789 26.7015L98.867 27.486C98.9547 27.9245 99.2113 28.6791 99.533 29.5699L103.295 28.2113ZM98.8591 26.7433C98.3048 29.8579 97.8684 32.8849 97.5506 35.8241L101.527 36.254C101.835 33.4119 102.258 30.4754 102.797 27.4442L98.8591 26.7433ZM98.9644 34.1234L92.7144 35.9984L93.8638 39.8297L100.114 37.9547L98.9644 34.1234ZM95.2589 38.2598L100.415 8.88484L96.4754 8.19329L91.3192 37.5683L95.2589 38.2598ZM112.742 32.4844L114.608 31.7642L114.603 31.7501L114.597 31.736L112.742 32.4844ZM112.664 21.7422L114.599 22.25L114.602 22.2372L112.664 21.7422ZM117.547 11.9375L119.117 13.1768L119.121 13.1716L117.547 11.9375ZM132.508 11.1172L133.97 12.4814L134.814 11.5771L134.382 10.4184L132.508 11.1172ZM128.172 15.7656L126.508 16.875L127.91 18.9784L129.634 17.1298L128.172 15.7656ZM121.102 18.3828L119.416 17.3067L119.412 17.3121L121.102 18.3828ZM118.484 24.5156L120.418 25.0274L120.42 25.0194L120.422 25.0113L118.484 24.5156ZM118.953 29.4766L120.499 28.2071L120.492 28.1986L120.485 28.1902L118.953 29.4766ZM124.852 28.8906L123.395 27.5199L123.387 27.5284L124.852 28.8906ZM126.883 25.5312L128.75 26.2492L130.058 22.8469L126.485 23.5711L126.883 25.5312ZM121.531 26.7422L119.576 26.3195L118.894 29.4754L122.024 28.6806L121.531 26.7422ZM122.781 20.9609L122.368 19.0042L121.1 19.272L120.826 20.5383L122.781 20.9609ZM133.133 18.7734L135.132 18.7119L135.058 16.3224L132.719 16.8167L133.133 18.7734ZM132.039 24.5938L133.918 25.2793L133.923 25.2664L132.039 24.5938ZM129.422 29.9062L131.099 30.9962L131.102 30.9905L129.422 29.9062ZM118.602 34.9375C117.601 34.9375 116.862 34.6768 116.277 34.2319C115.671 33.7715 115.086 33.0036 114.608 31.7642L110.876 33.2045C111.544 34.9339 112.509 36.3925 113.856 37.4165C115.224 38.456 116.842 38.9375 118.602 38.9375V34.9375ZM114.597 31.736C114.108 30.5234 113.844 29.1162 113.844 27.4844H109.844C109.844 29.5505 110.179 31.4766 110.887 33.2328L114.597 31.736ZM113.844 27.4844C113.844 25.9455 114.085 24.2046 114.599 22.25L110.73 21.2344C110.149 23.4464 109.844 25.5337 109.844 27.4844H113.844ZM114.602 22.2372C115.442 18.9481 116.941 15.9321 119.117 13.1768L115.977 10.6982C113.465 13.8804 111.709 17.4009 110.726 21.2471L114.602 22.2372ZM119.121 13.1716C121.753 9.8147 124.255 8.50781 126.609 8.50781V4.50781C122.557 4.50781 119.018 6.82072 115.973 10.7034L119.121 13.1716ZM126.609 8.50781C127.611 8.50781 128.352 8.77469 128.942 9.23605C129.556 9.71587 130.15 10.5193 130.634 11.816L134.382 10.4184C133.719 8.64215 132.757 7.1409 131.405 6.08427C130.03 5.00916 128.394 4.50781 126.609 4.50781V8.50781ZM131.045 9.75299L126.709 14.4014L129.634 17.1298L133.97 12.4814L131.045 9.75299ZM129.836 14.6562C128.963 13.3468 127.619 12.7109 126.102 12.7109V16.7109C126.297 16.7109 126.377 16.7474 126.395 16.7567C126.407 16.7628 126.446 16.7821 126.508 16.875L129.836 14.6562ZM126.102 12.7109C123.296 12.7109 121.104 14.6616 119.416 17.3067L122.787 19.4589C124.224 17.2082 125.366 16.7109 126.102 16.7109V12.7109ZM119.412 17.3121C118.122 19.3483 117.169 21.5883 116.547 24.02L120.422 25.0113C120.946 22.9638 121.738 21.1153 122.791 19.4535L119.412 17.3121ZM116.551 24.0038C116.285 25.0089 116.133 25.9796 116.133 26.8984H120.133C120.133 26.411 120.215 25.7932 120.418 25.0274L116.551 24.0038ZM116.133 26.8984C116.133 28.313 116.501 29.667 117.422 30.7629L120.485 28.1902C120.311 27.984 120.133 27.6193 120.133 26.8984H116.133ZM117.408 30.746C118.439 32.0021 119.876 32.5703 121.453 32.5703V28.5703C120.895 28.5703 120.665 28.4094 120.499 28.2071L117.408 30.746ZM121.453 32.5703C123.365 32.5703 124.997 31.6709 126.316 30.2528L123.387 27.5284C122.623 28.3499 121.989 28.5703 121.453 28.5703V32.5703ZM126.308 30.2614C127.35 29.1543 128.153 27.7997 128.75 26.2492L125.016 24.8133C124.571 25.9711 124.02 26.8561 123.395 27.5199L126.308 30.2614ZM126.485 23.5711C124.532 23.9672 122.716 24.3779 121.039 24.8037L122.024 28.6806C123.628 28.2731 125.38 27.8766 127.28 27.4914L126.485 23.5711ZM123.486 27.1649L124.736 21.3836L120.826 20.5383L119.576 26.3195L123.486 27.1649ZM123.195 22.9177L133.546 20.7302L132.719 16.8167L122.368 19.0042L123.195 22.9177ZM131.134 18.8349C131.176 20.2038 130.882 21.8873 130.156 23.9211L133.923 25.2664C134.759 22.9252 135.194 20.7285 135.132 18.7119L131.134 18.8349ZM130.16 23.9082C129.505 25.7048 128.697 27.3407 127.741 28.822L131.102 30.9905C132.23 29.2427 133.167 27.3368 133.918 25.2793L130.16 23.9082ZM127.745 28.8163C124.927 33.1517 121.869 34.9375 118.602 34.9375V38.9375C123.667 38.9375 127.823 36.0358 131.099 30.9962L127.745 28.8163ZM135.867 29.6328L136.126 31.616L136.138 31.6144L136.15 31.6127L135.867 29.6328ZM138.289 30.0234L137.318 31.7718L137.356 31.7929L137.395 31.8123L138.289 30.0234ZM137.625 35.2578L136.399 33.6774L136.393 33.6827L136.386 33.688L137.625 35.2578ZM134.383 36.6641L134.118 34.6816L134.108 34.6831L134.383 36.6641ZM131.961 36.3516L131.044 38.1288L131.055 38.1347L131.067 38.1404L131.961 36.3516ZM132.586 31.0781L131.322 29.5284L131.315 29.5337L131.309 29.539L132.586 31.0781ZM140.281 5.33594L140.612 3.36341L138.849 3.06826L138.358 4.7865L140.281 5.33594ZM148.445 6.70312L150.193 7.6764L151.573 5.19898L148.776 4.73059L148.445 6.70312ZM143.68 15.8047L141.866 14.9625L141.863 14.9676L143.68 15.8047ZM140.008 25.5312L139.922 27.5294L141.468 27.5961L141.92 26.1164L140.008 25.5312ZM134.578 25.2969L132.655 24.7474L131.958 27.1857L134.492 27.295L134.578 25.2969ZM136.15 31.6127C136.695 31.5349 137.05 31.6231 137.318 31.7718L139.26 28.2751C138.122 27.6426 136.863 27.4703 135.584 27.6529L136.15 31.6127ZM137.395 31.8123C137.477 31.8533 137.519 31.8856 137.537 31.9006C137.553 31.9144 137.55 31.9155 137.542 31.9023C137.533 31.8887 137.53 31.8782 137.531 31.8799C137.532 31.8834 137.539 31.9124 137.539 31.9766H141.539C141.539 31.2087 141.354 30.4383 140.911 29.7461C140.472 29.0598 139.856 28.571 139.183 28.2346L137.395 31.8123ZM137.539 31.9766C137.539 32.3571 137.369 32.9251 136.399 33.6774L138.851 36.8383C140.433 35.6114 141.539 33.9918 141.539 31.9766H137.539ZM136.386 33.688C135.659 34.262 134.91 34.576 134.118 34.6816L134.647 38.6465C136.199 38.4396 137.612 37.8161 138.864 36.8276L136.386 33.688ZM134.108 34.6831C133.47 34.7717 133.09 34.6798 132.855 34.5627L131.067 38.1404C132.186 38.7004 133.421 38.8169 134.658 38.645L134.108 34.6831ZM132.878 34.5743C132.804 34.5363 132.768 34.5072 132.754 34.495C132.741 34.484 132.745 34.4845 132.753 34.4969C132.76 34.5095 132.762 34.517 132.76 34.5104C132.758 34.5019 132.75 34.4676 132.75 34.3984H128.75C128.75 35.1544 128.926 35.9159 129.353 36.6047C129.778 37.2906 130.379 37.7857 131.044 38.1288L132.878 34.5743ZM132.75 34.3984C132.75 33.9762 132.937 33.3857 133.863 32.6172L131.309 29.539C129.787 30.8018 128.75 32.4248 128.75 34.3984H132.75ZM133.85 32.6279C134.569 32.0417 135.318 31.7213 136.126 31.616L135.609 27.6496C134.02 27.8568 132.582 28.4999 131.322 29.5284L133.85 32.6279ZM139.951 7.30847L148.115 8.67566L148.776 4.73059L140.612 3.36341L139.951 7.30847ZM146.698 5.72985C144.529 9.62374 142.912 12.708 141.866 14.9625L145.494 16.6469C146.478 14.5264 148.039 11.5429 150.193 7.6764L146.698 5.72985ZM141.863 14.9676C140.442 18.0522 139.187 21.3794 138.095 24.9461L141.92 26.1164C142.964 22.7039 144.157 19.5468 145.496 16.6418L141.863 14.9676ZM140.094 23.5331L134.664 23.2987L134.492 27.295L139.922 27.5294L140.094 23.5331ZM136.501 25.8463L142.204 5.88538L138.358 4.7865L132.655 24.7474L136.501 25.8463Z" fill="#F7931E" mask="url(#path-1-outside-1_2877_7715)"/>
</svg>
