<svg width="80" height="51" viewBox="0 0 80 51" fill="none" xmlns="http://www.w3.org/2000/svg">
<mask id="path-1-outside-1_2877_7712" maskUnits="userSpaceOnUse" x="5.5" y="2" width="74" height="44" fill="black">
<rect fill="white" x="5.5" y="2" width="74" height="44"/>
<path d="M16.5625 43.125C13.25 43.125 10.9062 41.3438 9.53125 37.7812C8.8125 36 8.45312 34 8.45312 31.7812C8.45312 29.6875 8.78125 27.3906 9.4375 24.8906C10.5312 20.6094 12.4844 16.6875 15.2969 13.125C18.7031 8.78125 22.3281 6.60938 26.1719 6.60938C29.5156 6.60938 31.875 8.45313 33.25 12.1406L28.0469 17.7188C27.4844 16.875 26.6562 16.4531 25.5625 16.4531C23.4375 16.4531 21.4375 17.9219 19.5625 20.8594C18.1562 23.0781 17.1094 25.5312 16.4219 28.2188C16.1406 29.2812 16 30.2344 16 31.0781C16 32.3594 16.3281 33.3906 16.9844 34.1719C17.7031 35.0469 18.7031 35.4844 19.9844 35.4844C21.4531 35.4844 22.8125 34.8125 24.0625 33.4688C25.0625 32.4062 25.875 31.0625 26.5 29.4375C24.1875 29.9062 22.0469 30.3906 20.0781 30.8906L21.5781 23.9531L34 21.3281C34.0625 23.3594 33.625 25.6875 32.6875 28.3125C31.8438 30.625 30.7969 32.75 29.5469 34.6875C25.8906 40.3125 21.5625 43.125 16.5625 43.125ZM49.4688 5.34375C52.7812 5.34375 55.125 7.1875 56.5 10.875C57.2188 12.7812 57.5781 14.875 57.5781 17.1562C57.5781 19.3438 57.25 21.7188 56.5938 24.2812C55.4375 28.6562 53.4375 32.6875 50.5938 36.375C47.125 40.875 43.4531 43.125 39.5781 43.125C36.2344 43.125 33.8594 41.2812 32.4531 37.5938C31.7656 35.7812 31.4219 33.75 31.4219 31.5C31.4219 29.2812 31.7656 26.875 32.4531 24.2812C33.6094 19.875 35.5938 15.8281 38.4062 12.1406C41.875 7.60938 45.5625 5.34375 49.4688 5.34375ZM47.7812 16.9688C46.0625 16.9688 44.3125 18.375 42.5312 21.1875C41.0938 23.4062 40.0938 25.5781 39.5312 27.7031C39.25 28.8281 39.1094 29.8438 39.1094 30.75C39.1094 32.0312 39.4219 33.0781 40.0469 33.8906C40.7656 34.7969 41.7656 35.25 43.0469 35.25C44.7969 35.25 46.375 34.3281 47.7812 32.4844C48.9062 31.0156 49.7188 29.2812 50.2188 27.2812C50.8125 24.9375 50.9375 22.625 50.5938 20.3438C50.2188 18.0938 49.2812 16.9688 47.7812 16.9688ZM60.4844 34.3594C61.5781 34.2031 62.5469 34.3594 63.3906 34.8281C64.3906 35.3281 64.8906 36.1094 64.8906 37.1719C64.8906 38.6094 64.125 39.9219 62.5938 41.1094C61.4062 42.0469 60.1094 42.6094 58.7031 42.7969C57.5781 42.9531 56.6094 42.8281 55.7969 42.4219C54.8281 41.9219 54.3438 41.1406 54.3438 40.0781C54.3438 38.6406 55.0781 37.3125 56.5469 36.0938C57.7344 35.125 59.0469 34.5469 60.4844 34.3594ZM65.7812 5.20312L75.5781 6.84375C72.9844 11.5 71.0781 15.1406 69.8594 17.7656C68.2031 21.3594 66.7344 25.25 65.4531 29.4375L58.9375 29.1562L65.7812 5.20312Z"/>
</mask>
<path d="M16.5625 43.125C13.25 43.125 10.9062 41.3438 9.53125 37.7812C8.8125 36 8.45312 34 8.45312 31.7812C8.45312 29.6875 8.78125 27.3906 9.4375 24.8906C10.5312 20.6094 12.4844 16.6875 15.2969 13.125C18.7031 8.78125 22.3281 6.60938 26.1719 6.60938C29.5156 6.60938 31.875 8.45313 33.25 12.1406L28.0469 17.7188C27.4844 16.875 26.6562 16.4531 25.5625 16.4531C23.4375 16.4531 21.4375 17.9219 19.5625 20.8594C18.1562 23.0781 17.1094 25.5312 16.4219 28.2188C16.1406 29.2812 16 30.2344 16 31.0781C16 32.3594 16.3281 33.3906 16.9844 34.1719C17.7031 35.0469 18.7031 35.4844 19.9844 35.4844C21.4531 35.4844 22.8125 34.8125 24.0625 33.4688C25.0625 32.4062 25.875 31.0625 26.5 29.4375C24.1875 29.9062 22.0469 30.3906 20.0781 30.8906L21.5781 23.9531L34 21.3281C34.0625 23.3594 33.625 25.6875 32.6875 28.3125C31.8438 30.625 30.7969 32.75 29.5469 34.6875C25.8906 40.3125 21.5625 43.125 16.5625 43.125ZM49.4688 5.34375C52.7812 5.34375 55.125 7.1875 56.5 10.875C57.2188 12.7812 57.5781 14.875 57.5781 17.1562C57.5781 19.3438 57.25 21.7188 56.5938 24.2812C55.4375 28.6562 53.4375 32.6875 50.5938 36.375C47.125 40.875 43.4531 43.125 39.5781 43.125C36.2344 43.125 33.8594 41.2812 32.4531 37.5938C31.7656 35.7812 31.4219 33.75 31.4219 31.5C31.4219 29.2812 31.7656 26.875 32.4531 24.2812C33.6094 19.875 35.5938 15.8281 38.4062 12.1406C41.875 7.60938 45.5625 5.34375 49.4688 5.34375ZM47.7812 16.9688C46.0625 16.9688 44.3125 18.375 42.5312 21.1875C41.0938 23.4062 40.0938 25.5781 39.5312 27.7031C39.25 28.8281 39.1094 29.8438 39.1094 30.75C39.1094 32.0312 39.4219 33.0781 40.0469 33.8906C40.7656 34.7969 41.7656 35.25 43.0469 35.25C44.7969 35.25 46.375 34.3281 47.7812 32.4844C48.9062 31.0156 49.7188 29.2812 50.2188 27.2812C50.8125 24.9375 50.9375 22.625 50.5938 20.3438C50.2188 18.0938 49.2812 16.9688 47.7812 16.9688ZM60.4844 34.3594C61.5781 34.2031 62.5469 34.3594 63.3906 34.8281C64.3906 35.3281 64.8906 36.1094 64.8906 37.1719C64.8906 38.6094 64.125 39.9219 62.5938 41.1094C61.4062 42.0469 60.1094 42.6094 58.7031 42.7969C57.5781 42.9531 56.6094 42.8281 55.7969 42.4219C54.8281 41.9219 54.3438 41.1406 54.3438 40.0781C54.3438 38.6406 55.0781 37.3125 56.5469 36.0938C57.7344 35.125 59.0469 34.5469 60.4844 34.3594ZM65.7812 5.20312L75.5781 6.84375C72.9844 11.5 71.0781 15.1406 69.8594 17.7656C68.2031 21.3594 66.7344 25.25 65.4531 29.4375L58.9375 29.1562L65.7812 5.20312Z" fill="#FAD557"/>
<path d="M9.53125 37.7812L11.3971 37.0611L11.3916 37.0469L11.386 37.0329L9.53125 37.7812ZM9.4375 24.8906L11.372 25.3984L11.3753 25.3857L9.4375 24.8906ZM15.2969 13.125L16.8666 14.3643L16.8707 14.3591L15.2969 13.125ZM33.25 12.1406L34.7125 13.5048L35.556 12.6005L35.124 11.4419L33.25 12.1406ZM28.0469 17.7188L26.3828 18.8282L27.7851 20.9316L29.5094 19.0829L28.0469 17.7188ZM19.5625 20.8594L17.8766 19.7833L17.8732 19.7887L19.5625 20.8594ZM16.4219 28.2188L18.3553 28.7305L18.3574 28.7225L18.3595 28.7144L16.4219 28.2188ZM16.9844 34.1719L18.5298 32.9024L18.5229 32.8939L18.5158 32.8855L16.9844 34.1719ZM24.0625 33.4688L22.6061 32.098L22.5981 32.1065L24.0625 33.4688ZM26.5 29.4375L28.3667 30.1555L29.6753 26.7532L26.1027 27.4774L26.5 29.4375ZM20.0781 30.8906L18.1233 30.468L17.4409 33.6239L20.5704 32.8291L20.0781 30.8906ZM21.5781 23.9531L21.1646 21.9963L19.8971 22.2642L19.6233 23.5305L21.5781 23.9531ZM34 21.3281L35.9991 21.2666L35.9255 18.8771L33.5865 19.3713L34 21.3281ZM32.6875 28.3125L34.5664 28.998L34.571 28.9852L32.6875 28.3125ZM29.5469 34.6875L31.2238 35.7775L31.2275 35.7718L29.5469 34.6875ZM16.5625 41.125C15.2859 41.125 14.3112 40.7901 13.5305 40.1967C12.7294 39.5879 11.99 38.5974 11.3971 37.0611L7.6654 38.5014C8.44745 40.5276 9.56744 42.2089 11.1101 43.3814C12.6732 44.5693 14.5266 45.125 16.5625 45.125V41.125ZM11.386 37.0329C10.7769 35.5234 10.4531 33.7829 10.4531 31.7812H6.45312C6.45312 34.2171 6.84814 36.4766 7.67655 38.5296L11.386 37.0329ZM10.4531 31.7812C10.4531 29.8934 10.7495 27.7697 11.372 25.3984L7.50304 24.3828C6.81301 27.0115 6.45312 29.4816 6.45312 31.7812H10.4531ZM11.3753 25.3857C12.3978 21.383 14.2227 17.7133 16.8666 14.3643L13.7271 11.8857C10.7461 15.6617 8.66465 19.8358 7.49974 24.3956L11.3753 25.3857ZM16.8707 14.3591C20.0708 10.2782 23.1769 8.60938 26.1719 8.60938V4.60938C21.4794 4.60938 17.3354 7.28426 13.7231 11.8909L16.8707 14.3591ZM26.1719 8.60938C27.4524 8.60938 28.4307 8.95308 29.2177 9.56808C30.0284 10.2016 30.778 11.2355 31.376 12.8394L35.124 11.4419C34.347 9.3583 33.2295 7.62657 31.6807 6.4163C30.1083 5.18755 28.2351 4.60938 26.1719 4.60938V8.60938ZM31.7875 10.7764L26.5844 16.3546L29.5094 19.0829L34.7125 13.5048L31.7875 10.7764ZM29.711 16.6093C28.7442 15.1593 27.2626 14.4531 25.5625 14.4531V18.4531C26.0499 18.4531 26.2245 18.5907 26.3828 18.8282L29.711 16.6093ZM25.5625 14.4531C22.4025 14.4531 19.8776 16.6485 17.8767 19.7833L21.2483 21.9354C22.9974 19.1952 24.4725 18.4531 25.5625 18.4531V14.4531ZM17.8732 19.7887C16.3484 22.1946 15.2209 24.8435 14.4843 27.7231L18.3595 28.7144C18.9978 26.219 19.9641 23.9616 21.2518 21.93L17.8732 19.7887ZM14.4885 27.707C14.1755 28.8891 14 30.0187 14 31.0781H18C18 30.4501 18.1057 29.6734 18.3553 28.7305L14.4885 27.707ZM14 31.0781C14 32.7062 14.423 34.2321 15.453 35.4583L18.5158 32.8855C18.2333 32.5492 18 32.0126 18 31.0781H14ZM15.4389 35.4414C16.5905 36.8432 18.1932 37.4844 19.9844 37.4844V33.4844C19.213 33.4844 18.8158 33.2505 18.5298 32.9024L15.4389 35.4414ZM19.9844 37.4844C22.1412 37.4844 23.9994 36.473 25.5269 34.831L22.5981 32.1065C21.6256 33.152 20.765 33.4844 19.9844 33.4844V37.4844ZM25.5189 34.8395C26.7275 33.5553 27.6662 31.9768 28.3667 30.1555L24.6333 28.7195C24.0838 30.1482 23.3975 31.2572 22.6061 32.098L25.5189 34.8395ZM26.1027 27.4774C23.7633 27.9516 21.5906 28.443 19.5858 28.9522L20.5704 32.8291C22.5032 32.3382 24.6117 31.8609 26.8973 31.3976L26.1027 27.4774ZM22.033 31.3133L23.533 24.3758L19.6233 23.5305L18.1233 30.468L22.033 31.3133ZM21.9916 25.9099L34.4135 23.2849L33.5865 19.3713L21.1646 21.9963L21.9916 25.9099ZM32.0009 21.3896C32.0535 23.097 31.6866 25.1686 30.804 27.6398L34.571 28.9852C35.5634 26.2064 36.0715 23.6217 35.9991 21.2666L32.0009 21.3896ZM30.8087 27.627C30.0125 29.809 29.0303 31.799 27.8663 33.6032L31.2275 35.7718C32.5634 33.701 33.675 31.441 34.5663 28.998L30.8087 27.627ZM27.87 33.5975C24.4426 38.8704 20.6634 41.125 16.5625 41.125V45.125C22.4616 45.125 27.3386 41.7546 31.2238 35.7775L27.87 33.5975ZM56.5 10.875L54.626 11.5738L54.6286 11.5806L56.5 10.875ZM56.5938 24.2812L58.5274 24.7923L58.5293 24.7849L58.5312 24.7774L56.5938 24.2812ZM50.5938 36.375L49.01 35.1536L49.0097 35.154L50.5938 36.375ZM32.4531 37.5938L30.5831 38.3031L30.5844 38.3064L32.4531 37.5938ZM32.4531 24.2812L34.3864 24.7937L34.3876 24.7889L32.4531 24.2812ZM38.4062 12.1406L36.8182 10.9249L36.816 10.9277L38.4062 12.1406ZM42.5312 21.1875L44.2098 22.275L44.2154 22.2663L44.2209 22.2576L42.5312 21.1875ZM39.5312 27.7031L37.5978 27.1913L37.5943 27.2047L37.591 27.2181L39.5312 27.7031ZM40.0469 33.8906L38.4616 35.11L38.4707 35.1218L38.4799 35.1334L40.0469 33.8906ZM47.7812 32.4844L46.1935 31.2682L46.191 31.2715L47.7812 32.4844ZM50.2188 27.2812L48.28 26.7901L48.2785 26.7962L50.2188 27.2812ZM50.5938 20.3438L52.5714 20.0457L52.5691 20.0303L52.5665 20.015L50.5938 20.3438ZM49.4688 7.34375C50.7291 7.34375 51.6943 7.68479 52.4744 8.29847C53.2793 8.93168 54.0268 9.96681 54.626 11.5738L58.374 10.1762C57.5982 8.09569 56.4863 6.3652 54.9475 5.15465C53.3839 3.92459 51.5209 3.34375 49.4688 3.34375V7.34375ZM54.6286 11.5806C55.2527 13.2359 55.5781 15.0873 55.5781 17.1562H59.5781C59.5781 14.6627 59.1848 12.3266 58.3714 10.1694L54.6286 11.5806ZM55.5781 17.1562C55.5781 19.1458 55.2793 21.3522 54.6563 23.7851L58.5312 24.7774C59.2207 22.0853 59.5781 19.5417 59.5781 17.1562H55.5781ZM54.6601 23.7702C53.574 27.8799 51.6958 31.671 49.01 35.1536L52.1775 37.5964C55.1792 33.704 57.301 29.4326 58.5274 24.7923L54.6601 23.7702ZM49.0097 35.154C45.7358 39.4012 42.5837 41.125 39.5781 41.125V45.125C44.3225 45.125 48.5142 42.3488 52.1778 37.596L49.0097 35.154ZM39.5781 41.125C38.2978 41.125 37.3128 40.7813 36.5155 40.1624C35.6947 39.5252 34.9342 38.4869 34.3218 36.8811L30.5844 38.3064C31.3783 40.3881 32.5084 42.1155 34.0626 43.322C35.6404 44.5468 37.5147 45.125 39.5781 45.125V41.125ZM34.3231 36.8844C33.7342 35.3318 33.4219 33.546 33.4219 31.5H29.4219C29.4219 33.954 29.7971 36.2307 30.5831 38.3031L34.3231 36.8844ZM33.4219 31.5C33.4219 29.4859 33.7343 27.2538 34.3864 24.7937L30.5199 23.7688C29.797 26.4962 29.4219 29.0766 29.4219 31.5H33.4219ZM34.3876 24.7889C35.4756 20.6428 37.3412 16.8349 39.9965 13.3535L36.816 10.9277C33.8463 14.8214 31.7432 19.1072 30.5186 23.7736L34.3876 24.7889ZM39.9943 13.3563C43.2667 9.08163 46.4334 7.34375 49.4688 7.34375V3.34375C44.6916 3.34375 40.4833 6.13712 36.8182 10.9249L39.9943 13.3563ZM47.7812 14.9688C44.9341 14.9688 42.6633 17.241 40.8416 20.1174L44.2209 22.2576C45.9617 19.509 47.1909 18.9688 47.7812 18.9688V14.9688ZM40.8527 20.1C39.3229 22.4612 38.224 24.8257 37.5978 27.1913L41.4647 28.2149C41.9635 26.3306 42.8646 24.3513 44.2098 22.275L40.8527 20.1ZM37.591 27.2181C37.2805 28.4599 37.1094 29.6422 37.1094 30.75H41.1094C41.1094 30.0453 41.2195 29.1963 41.4715 28.1882L37.591 27.2181ZM37.1094 30.75C37.1094 32.3601 37.5065 33.8683 38.4616 35.11L41.6321 32.6712C41.3373 32.2879 41.1094 31.7024 41.1094 30.75H37.1094ZM38.4799 35.1334C39.6223 36.5738 41.2301 37.25 43.0469 37.25V33.25C42.3012 33.25 41.909 33.0199 41.6139 32.6478L38.4799 35.1334ZM43.0469 37.25C45.6118 37.25 47.7202 35.8623 49.3715 33.6973L46.191 31.2715C45.0298 32.7939 43.982 33.25 43.0469 33.25V37.25ZM49.369 33.7005C50.6783 31.9912 51.6003 30.0012 52.159 27.7663L48.2785 26.7962C47.8372 28.5613 47.1342 30.0401 46.1935 31.2682L49.369 33.7005ZM52.1575 27.7724C52.8134 25.1834 52.9567 22.6026 52.5714 20.0457L48.6161 20.6418C48.9183 22.6474 48.8116 24.6916 48.28 26.7901L52.1575 27.7724ZM52.5665 20.015C52.3504 18.718 51.9349 17.4791 51.1458 16.5321C50.2865 15.501 49.1082 14.9688 47.7812 14.9688V18.9688C47.901 18.9688 47.9501 18.9898 47.9627 18.9956C47.9739 19.0008 48.0111 19.0187 48.0729 19.0929C48.2213 19.2709 48.4621 19.7195 48.621 20.6725L52.5665 20.015ZM60.4844 34.3594L60.7431 36.3426L60.7551 36.341L60.7672 36.3393L60.4844 34.3594ZM63.3906 34.8281L62.4193 36.5764L62.4573 36.5975L62.4962 36.617L63.3906 34.8281ZM62.5938 41.1094L61.3681 39.5289L61.3613 39.5342L61.3545 39.5396L62.5938 41.1094ZM58.7031 42.7969L58.4388 40.8144L58.428 40.8159L58.7031 42.7969ZM55.7969 42.4219L54.8796 44.1991L54.891 44.205L54.9024 44.2107L55.7969 42.4219ZM56.5469 36.0938L55.2826 34.544L55.2762 34.5493L55.2697 34.5546L56.5469 36.0938ZM65.7812 5.20312L66.1116 3.23059L64.3491 2.93545L63.8582 4.65368L65.7812 5.20312ZM75.5781 6.84375L77.3253 7.81703L78.7054 5.3396L75.9085 4.87122L75.5781 6.84375ZM69.8594 17.7656L68.0453 16.9234L68.043 16.9285L69.8594 17.7656ZM65.4531 29.4375L65.3669 31.4356L66.9129 31.5024L67.3656 30.0227L65.4531 29.4375ZM58.9375 29.1562L57.0145 28.6068L56.3178 31.045L58.8512 31.1544L58.9375 29.1562ZM60.7672 36.3393C61.4942 36.2354 62.0111 36.3496 62.4193 36.5764L64.3619 33.0798C63.0827 32.3691 61.6621 32.1708 60.2015 32.3795L60.7672 36.3393ZM62.4962 36.617C62.74 36.7389 62.812 36.8374 62.8311 36.8672C62.8464 36.8911 62.8906 36.9658 62.8906 37.1719H66.8906C66.8906 36.3155 66.6849 35.4683 66.2002 34.711C65.7192 33.9595 65.0413 33.4174 64.2851 33.0393L62.4962 36.617ZM62.8906 37.1719C62.8906 37.792 62.5934 38.5787 61.3681 39.5289L63.8194 42.6898C65.6566 41.265 66.8906 39.4267 66.8906 37.1719H62.8906ZM61.3545 39.5396C60.4295 40.2698 59.4651 40.6776 58.4388 40.8144L58.9675 44.7793C60.7537 44.5412 62.383 43.8239 63.833 42.6791L61.3545 39.5396ZM58.428 40.8159C57.6026 40.9305 57.061 40.8179 56.6913 40.633L54.9024 44.2107C56.1578 44.8384 57.5536 44.9757 58.9783 44.7779L58.428 40.8159ZM56.7142 40.6446C56.491 40.5294 56.4256 40.4373 56.4068 40.4071C56.3899 40.3797 56.3438 40.2961 56.3438 40.0781H52.3438C52.3438 40.9226 52.5398 41.7609 53.0072 42.5148C53.4728 43.2658 54.134 43.8143 54.8796 44.1991L56.7142 40.6446ZM56.3438 40.0781C56.3438 39.4164 56.6531 38.6045 57.824 37.6329L55.2697 34.5546C53.5032 36.0205 52.3438 37.8649 52.3438 40.0781H56.3438ZM57.8111 37.6435C58.7275 36.8959 59.696 36.4792 60.7431 36.3426L60.2257 32.3762C58.3978 32.6146 56.7412 33.3541 55.2826 34.544L57.8111 37.6435ZM65.4509 7.17566L75.2478 8.81628L75.9085 4.87122L66.1116 3.23059L65.4509 7.17566ZM73.8309 5.87047C71.2295 10.5404 69.2952 14.2314 68.0454 16.9234L71.6734 18.6078C72.8611 16.0498 74.7392 12.4596 77.3253 7.81703L73.8309 5.87047ZM68.043 16.9285C66.3453 20.6121 64.8455 24.5878 63.5406 28.8523L67.3656 30.0227C68.6233 25.9122 70.0609 22.1067 71.6758 18.6027L68.043 16.9285ZM65.5394 27.4394L59.0238 27.1581L58.8512 31.1544L65.3669 31.4356L65.5394 27.4394ZM60.8605 29.7057L67.7043 5.75257L63.8582 4.65368L57.0145 28.6068L60.8605 29.7057Z" fill="#F7931E" mask="url(#path-1-outside-1_2877_7712)"/>
</svg>
