<svg width="264" height="43" viewBox="0 0 264 43" fill="none" xmlns="http://www.w3.org/2000/svg">
<mask id="path-1-outside-1_2877_7717" maskUnits="userSpaceOnUse" x="9" y="2" width="253" height="39" fill="black">
<rect fill="white" x="9" y="2" width="253" height="39"/>
<path d="M28.0156 6.78125L27.7812 14.0469C25.9583 14.151 24.2266 14.2812 22.5859 14.4375C20.8672 21.651 19.7083 28.2786 19.1094 34.3203L12.5078 36.0391L16.1016 15.2578C15.3984 15.362 14.6953 15.4792 13.9922 15.6094L11.9219 16L11.4531 8.69531L28.0156 6.78125ZM27.8984 8.42188L35.125 7.17188C33.8229 12.1458 32.7682 16.6771 31.9609 20.7656L35.2031 20.1016L37.1953 8.42188L44.4219 7.17188C41.6615 17.8229 39.9167 26.8724 39.1875 34.3203L32.4688 36.0391L34.2656 25.4141C33.5365 25.5703 32.4297 25.8047 30.9453 26.1172C30.4505 29.3203 30.099 32.0547 29.8906 34.3203L23.1719 36.0391L27.8984 8.42188ZM37.3125 36.5078C41.1406 26.7422 44.2396 17.3281 46.6094 8.26562L58.4844 6.27344C57.1302 14.1641 56.5182 23.5 56.6484 34.2812L48.3672 36.1953L48.9531 31.3125L46.3359 31.8203L45.5156 35.2578L37.3125 36.5078ZM49.5781 26.0781L51.375 11.3125H51.3359L47.6641 26.4297L49.5781 26.0781ZM75.4766 6.78125L75.2422 14.0469C73.4193 14.151 71.6875 14.2812 70.0469 14.4375C68.3281 21.651 67.1693 28.2786 66.5703 34.3203L59.9688 36.0391L63.5625 15.2578C62.8594 15.362 62.1562 15.4792 61.4531 15.6094L59.3828 16L58.9141 8.69531L75.4766 6.78125ZM84.8125 4.47656C83.1458 9.00781 81.987 13.1224 81.3359 16.8203L73.7969 17.9922L77.5859 5.02344L84.8125 4.47656ZM98.9141 15.3359C98.0807 15.6484 97.0911 16.026 95.9453 16.4688L93.0156 17.6016C93.0156 16.3776 92.6771 15.7656 92 15.7656C91.0365 15.7656 90.0729 16.3125 89.1094 17.4062C88.4323 18.2135 88.1458 18.9948 88.25 19.75C88.3281 20.2448 88.8229 20.4922 89.7344 20.4922C90.2292 20.4922 90.8802 20.4141 91.6875 20.2578C92.8073 20.0234 93.7969 19.9062 94.6562 19.9062C96.8438 19.9062 98.1198 20.6615 98.4844 22.1719C98.5885 22.6406 98.6406 23.1354 98.6406 23.6562C98.6406 25.3229 98.0156 27.1198 96.7656 29.0469C95.151 31.5729 92.8854 33.6953 89.9688 35.4141C88.4323 36.3255 86.9219 36.7812 85.4375 36.7812C84.0833 36.7812 82.7552 36.4036 81.4531 35.6484C82.1042 34.0859 83.1458 31.7812 84.5781 28.7344C85.4115 29.3073 86.2969 29.5938 87.2344 29.5938C87.651 29.5938 88.0807 29.5286 88.5234 29.3984C89.3307 29.1901 90.099 28.8906 90.8281 28.5C91.8698 27.9271 92.3906 27.3411 92.3906 26.7422C92.3906 26.0911 91.8568 25.7656 90.7891 25.7656C90.0599 25.7656 88.9922 25.9219 87.5859 26.2344C86.2057 26.5208 85.151 26.6641 84.4219 26.6641C83.4583 26.6641 82.7161 26.4818 82.1953 26.1172C81.1797 25.4401 80.763 24.3854 80.9453 22.9531C81.2839 20.0625 83.1458 16.7161 86.5312 12.9141C89.9948 9.00781 92.9766 6.96354 95.4766 6.78125C97.8984 6.625 99.1094 8.44792 99.1094 12.25C99.1094 13.1615 99.0443 14.1901 98.9141 15.3359ZM115.242 14.2422C115.06 14.9714 114.904 15.6875 114.773 16.3906L114.305 18.5L121.141 17.0547L120.789 22.5234C118.107 22.9401 115.581 23.4219 113.211 23.9688C112.586 27.4583 112.091 30.9089 111.727 34.3203L105.047 36.0391L109.617 8.03125L122.977 6.15625L122.508 13.3828C119.904 13.6172 117.482 13.9036 115.242 14.2422ZM116.727 36.5078C120.555 26.7422 123.654 17.3281 126.023 8.26562L137.898 6.27344C136.544 14.1641 135.932 23.5 136.062 34.2812L127.781 36.1953L128.367 31.3125L125.75 31.8203L124.93 35.2578L116.727 36.5078ZM128.992 26.0781L130.789 11.3125H130.75L127.078 26.4297L128.992 26.0781ZM140.906 8.53906L147.664 7.17188C147.612 7.97917 147.586 9.125 147.586 10.6094C147.586 14.151 147.703 17.263 147.938 19.9453C148.068 21.4818 148.263 22.7188 148.523 23.6562L151.18 8.42188L157.898 7.17188C155.19 17.6146 153.419 26.6641 152.586 34.3203L146.414 36.0391C146.388 35.987 146.219 35.5312 145.906 34.6719L143.875 28.8906C143.536 27.9531 143.341 27.3542 143.289 27.0938C142.742 30.1667 142.312 33.1484 142 36.0391L135.75 37.9141L140.906 8.53906ZM173.094 6.78125L172.859 14.0469C171.036 14.151 169.305 14.2812 167.664 14.4375C165.945 21.651 164.786 28.2786 164.188 34.3203L157.586 36.0391L161.18 15.2578C160.477 15.362 159.773 15.4792 159.07 15.6094L157 16L156.531 8.69531L173.094 6.78125ZM165.125 36.5078C168.953 26.7422 172.052 17.3281 174.422 8.26562L186.297 6.27344C184.943 14.1641 184.331 23.5 184.461 34.2812L176.18 36.1953L176.766 31.3125L174.148 31.8203L173.328 35.2578L165.125 36.5078ZM177.391 26.0781L179.188 11.3125H179.148L175.477 26.4297L177.391 26.0781ZM202.82 15.3359C201.987 15.6484 200.997 16.026 199.852 16.4688L196.922 17.6016C196.922 16.3776 196.583 15.7656 195.906 15.7656C194.943 15.7656 193.979 16.3125 193.016 17.4062C192.339 18.2135 192.052 18.9948 192.156 19.75C192.234 20.2448 192.729 20.4922 193.641 20.4922C194.135 20.4922 194.786 20.4141 195.594 20.2578C196.714 20.0234 197.703 19.9062 198.562 19.9062C200.75 19.9062 202.026 20.6615 202.391 22.1719C202.495 22.6406 202.547 23.1354 202.547 23.6562C202.547 25.3229 201.922 27.1198 200.672 29.0469C199.057 31.5729 196.792 33.6953 193.875 35.4141C192.339 36.3255 190.828 36.7812 189.344 36.7812C187.99 36.7812 186.661 36.4036 185.359 35.6484C186.01 34.0859 187.052 31.7812 188.484 28.7344C189.318 29.3073 190.203 29.5938 191.141 29.5938C191.557 29.5938 191.987 29.5286 192.43 29.3984C193.237 29.1901 194.005 28.8906 194.734 28.5C195.776 27.9271 196.297 27.3411 196.297 26.7422C196.297 26.0911 195.763 25.7656 194.695 25.7656C193.966 25.7656 192.898 25.9219 191.492 26.2344C190.112 26.5208 189.057 26.6641 188.328 26.6641C187.365 26.6641 186.622 26.4818 186.102 26.1172C185.086 25.4401 184.669 24.3854 184.852 22.9531C185.19 20.0625 187.052 16.7161 190.438 12.9141C193.901 9.00781 196.883 6.96354 199.383 6.78125C201.805 6.625 203.016 8.44792 203.016 12.25C203.016 13.1615 202.951 14.1901 202.82 15.3359ZM220.672 6.78125L220.438 14.0469C218.615 14.151 216.883 14.2812 215.242 14.4375C213.523 21.651 212.365 28.2786 211.766 34.3203L205.164 36.0391L208.758 15.2578C208.055 15.362 207.352 15.4792 206.648 15.6094L204.578 16L204.109 8.69531L220.672 6.78125ZM221.336 8.42188L228.055 7.17188C225.346 17.6146 223.576 26.6641 222.742 34.3203L216.531 36.0391L221.336 8.42188ZM238.758 6.50781C241.466 6.50781 243.458 7.97917 244.734 10.9219L240.32 15.7656C239.721 15.1406 239.031 14.8281 238.25 14.8281C236.87 14.8281 235.438 16.013 233.953 18.3828C232.729 20.3359 231.935 22.1589 231.57 23.8516C231.388 24.6589 231.297 25.388 231.297 26.0391C231.297 27.7839 231.935 28.9818 233.211 29.6328C233.628 29.8411 234.07 29.9453 234.539 29.9453C235.893 29.9453 237.312 28.9427 238.797 26.9375L240.047 31.5859C237.469 34.4505 234.852 35.8828 232.195 35.8828C229.487 35.8828 227.508 34.4505 226.258 31.5859C225.503 29.9193 225.125 28.0573 225.125 26C225.125 24.4896 225.32 22.888 225.711 21.1953C226.492 17.7318 227.977 14.5677 230.164 11.7031C232.794 8.23958 235.659 6.50781 238.758 6.50781ZM245.555 29.6328C246.466 29.5026 247.273 29.6328 247.977 30.0234C248.81 30.4401 249.227 31.0911 249.227 31.9766C249.227 33.1745 248.589 34.2682 247.312 35.2578C246.323 36.0391 245.242 36.5078 244.07 36.6641C243.133 36.7943 242.326 36.6901 241.648 36.3516C240.841 35.9349 240.438 35.2839 240.438 34.3984C240.438 33.2005 241.049 32.0938 242.273 31.0781C243.263 30.2708 244.357 29.7891 245.555 29.6328ZM249.969 5.33594L258.133 6.70312C255.971 10.5833 254.383 13.6172 253.367 15.8047C251.987 18.7995 250.763 22.0417 249.695 25.5312L244.266 25.2969L249.969 5.33594Z"/>
</mask>
<path d="M28.0156 6.78125L27.7812 14.0469C25.9583 14.151 24.2266 14.2812 22.5859 14.4375C20.8672 21.651 19.7083 28.2786 19.1094 34.3203L12.5078 36.0391L16.1016 15.2578C15.3984 15.362 14.6953 15.4792 13.9922 15.6094L11.9219 16L11.4531 8.69531L28.0156 6.78125ZM27.8984 8.42188L35.125 7.17188C33.8229 12.1458 32.7682 16.6771 31.9609 20.7656L35.2031 20.1016L37.1953 8.42188L44.4219 7.17188C41.6615 17.8229 39.9167 26.8724 39.1875 34.3203L32.4688 36.0391L34.2656 25.4141C33.5365 25.5703 32.4297 25.8047 30.9453 26.1172C30.4505 29.3203 30.099 32.0547 29.8906 34.3203L23.1719 36.0391L27.8984 8.42188ZM37.3125 36.5078C41.1406 26.7422 44.2396 17.3281 46.6094 8.26562L58.4844 6.27344C57.1302 14.1641 56.5182 23.5 56.6484 34.2812L48.3672 36.1953L48.9531 31.3125L46.3359 31.8203L45.5156 35.2578L37.3125 36.5078ZM49.5781 26.0781L51.375 11.3125H51.3359L47.6641 26.4297L49.5781 26.0781ZM75.4766 6.78125L75.2422 14.0469C73.4193 14.151 71.6875 14.2812 70.0469 14.4375C68.3281 21.651 67.1693 28.2786 66.5703 34.3203L59.9688 36.0391L63.5625 15.2578C62.8594 15.362 62.1562 15.4792 61.4531 15.6094L59.3828 16L58.9141 8.69531L75.4766 6.78125ZM84.8125 4.47656C83.1458 9.00781 81.987 13.1224 81.3359 16.8203L73.7969 17.9922L77.5859 5.02344L84.8125 4.47656ZM98.9141 15.3359C98.0807 15.6484 97.0911 16.026 95.9453 16.4688L93.0156 17.6016C93.0156 16.3776 92.6771 15.7656 92 15.7656C91.0365 15.7656 90.0729 16.3125 89.1094 17.4062C88.4323 18.2135 88.1458 18.9948 88.25 19.75C88.3281 20.2448 88.8229 20.4922 89.7344 20.4922C90.2292 20.4922 90.8802 20.4141 91.6875 20.2578C92.8073 20.0234 93.7969 19.9062 94.6562 19.9062C96.8438 19.9062 98.1198 20.6615 98.4844 22.1719C98.5885 22.6406 98.6406 23.1354 98.6406 23.6562C98.6406 25.3229 98.0156 27.1198 96.7656 29.0469C95.151 31.5729 92.8854 33.6953 89.9688 35.4141C88.4323 36.3255 86.9219 36.7812 85.4375 36.7812C84.0833 36.7812 82.7552 36.4036 81.4531 35.6484C82.1042 34.0859 83.1458 31.7812 84.5781 28.7344C85.4115 29.3073 86.2969 29.5938 87.2344 29.5938C87.651 29.5938 88.0807 29.5286 88.5234 29.3984C89.3307 29.1901 90.099 28.8906 90.8281 28.5C91.8698 27.9271 92.3906 27.3411 92.3906 26.7422C92.3906 26.0911 91.8568 25.7656 90.7891 25.7656C90.0599 25.7656 88.9922 25.9219 87.5859 26.2344C86.2057 26.5208 85.151 26.6641 84.4219 26.6641C83.4583 26.6641 82.7161 26.4818 82.1953 26.1172C81.1797 25.4401 80.763 24.3854 80.9453 22.9531C81.2839 20.0625 83.1458 16.7161 86.5312 12.9141C89.9948 9.00781 92.9766 6.96354 95.4766 6.78125C97.8984 6.625 99.1094 8.44792 99.1094 12.25C99.1094 13.1615 99.0443 14.1901 98.9141 15.3359ZM115.242 14.2422C115.06 14.9714 114.904 15.6875 114.773 16.3906L114.305 18.5L121.141 17.0547L120.789 22.5234C118.107 22.9401 115.581 23.4219 113.211 23.9688C112.586 27.4583 112.091 30.9089 111.727 34.3203L105.047 36.0391L109.617 8.03125L122.977 6.15625L122.508 13.3828C119.904 13.6172 117.482 13.9036 115.242 14.2422ZM116.727 36.5078C120.555 26.7422 123.654 17.3281 126.023 8.26562L137.898 6.27344C136.544 14.1641 135.932 23.5 136.062 34.2812L127.781 36.1953L128.367 31.3125L125.75 31.8203L124.93 35.2578L116.727 36.5078ZM128.992 26.0781L130.789 11.3125H130.75L127.078 26.4297L128.992 26.0781ZM140.906 8.53906L147.664 7.17188C147.612 7.97917 147.586 9.125 147.586 10.6094C147.586 14.151 147.703 17.263 147.938 19.9453C148.068 21.4818 148.263 22.7188 148.523 23.6562L151.18 8.42188L157.898 7.17188C155.19 17.6146 153.419 26.6641 152.586 34.3203L146.414 36.0391C146.388 35.987 146.219 35.5312 145.906 34.6719L143.875 28.8906C143.536 27.9531 143.341 27.3542 143.289 27.0938C142.742 30.1667 142.312 33.1484 142 36.0391L135.75 37.9141L140.906 8.53906ZM173.094 6.78125L172.859 14.0469C171.036 14.151 169.305 14.2812 167.664 14.4375C165.945 21.651 164.786 28.2786 164.188 34.3203L157.586 36.0391L161.18 15.2578C160.477 15.362 159.773 15.4792 159.07 15.6094L157 16L156.531 8.69531L173.094 6.78125ZM165.125 36.5078C168.953 26.7422 172.052 17.3281 174.422 8.26562L186.297 6.27344C184.943 14.1641 184.331 23.5 184.461 34.2812L176.18 36.1953L176.766 31.3125L174.148 31.8203L173.328 35.2578L165.125 36.5078ZM177.391 26.0781L179.188 11.3125H179.148L175.477 26.4297L177.391 26.0781ZM202.82 15.3359C201.987 15.6484 200.997 16.026 199.852 16.4688L196.922 17.6016C196.922 16.3776 196.583 15.7656 195.906 15.7656C194.943 15.7656 193.979 16.3125 193.016 17.4062C192.339 18.2135 192.052 18.9948 192.156 19.75C192.234 20.2448 192.729 20.4922 193.641 20.4922C194.135 20.4922 194.786 20.4141 195.594 20.2578C196.714 20.0234 197.703 19.9062 198.562 19.9062C200.75 19.9062 202.026 20.6615 202.391 22.1719C202.495 22.6406 202.547 23.1354 202.547 23.6562C202.547 25.3229 201.922 27.1198 200.672 29.0469C199.057 31.5729 196.792 33.6953 193.875 35.4141C192.339 36.3255 190.828 36.7812 189.344 36.7812C187.99 36.7812 186.661 36.4036 185.359 35.6484C186.01 34.0859 187.052 31.7812 188.484 28.7344C189.318 29.3073 190.203 29.5938 191.141 29.5938C191.557 29.5938 191.987 29.5286 192.43 29.3984C193.237 29.1901 194.005 28.8906 194.734 28.5C195.776 27.9271 196.297 27.3411 196.297 26.7422C196.297 26.0911 195.763 25.7656 194.695 25.7656C193.966 25.7656 192.898 25.9219 191.492 26.2344C190.112 26.5208 189.057 26.6641 188.328 26.6641C187.365 26.6641 186.622 26.4818 186.102 26.1172C185.086 25.4401 184.669 24.3854 184.852 22.9531C185.19 20.0625 187.052 16.7161 190.438 12.9141C193.901 9.00781 196.883 6.96354 199.383 6.78125C201.805 6.625 203.016 8.44792 203.016 12.25C203.016 13.1615 202.951 14.1901 202.82 15.3359ZM220.672 6.78125L220.438 14.0469C218.615 14.151 216.883 14.2812 215.242 14.4375C213.523 21.651 212.365 28.2786 211.766 34.3203L205.164 36.0391L208.758 15.2578C208.055 15.362 207.352 15.4792 206.648 15.6094L204.578 16L204.109 8.69531L220.672 6.78125ZM221.336 8.42188L228.055 7.17188C225.346 17.6146 223.576 26.6641 222.742 34.3203L216.531 36.0391L221.336 8.42188ZM238.758 6.50781C241.466 6.50781 243.458 7.97917 244.734 10.9219L240.32 15.7656C239.721 15.1406 239.031 14.8281 238.25 14.8281C236.87 14.8281 235.438 16.013 233.953 18.3828C232.729 20.3359 231.935 22.1589 231.57 23.8516C231.388 24.6589 231.297 25.388 231.297 26.0391C231.297 27.7839 231.935 28.9818 233.211 29.6328C233.628 29.8411 234.07 29.9453 234.539 29.9453C235.893 29.9453 237.312 28.9427 238.797 26.9375L240.047 31.5859C237.469 34.4505 234.852 35.8828 232.195 35.8828C229.487 35.8828 227.508 34.4505 226.258 31.5859C225.503 29.9193 225.125 28.0573 225.125 26C225.125 24.4896 225.32 22.888 225.711 21.1953C226.492 17.7318 227.977 14.5677 230.164 11.7031C232.794 8.23958 235.659 6.50781 238.758 6.50781ZM245.555 29.6328C246.466 29.5026 247.273 29.6328 247.977 30.0234C248.81 30.4401 249.227 31.0911 249.227 31.9766C249.227 33.1745 248.589 34.2682 247.312 35.2578C246.323 36.0391 245.242 36.5078 244.07 36.6641C243.133 36.7943 242.326 36.6901 241.648 36.3516C240.841 35.9349 240.438 35.2839 240.438 34.3984C240.438 33.2005 241.049 32.0938 242.273 31.0781C243.263 30.2708 244.357 29.7891 245.555 29.6328ZM249.969 5.33594L258.133 6.70312C255.971 10.5833 254.383 13.6172 253.367 15.8047C251.987 18.7995 250.763 22.0417 249.695 25.5312L244.266 25.2969L249.969 5.33594Z" fill="#FAD557"/>
<path d="M28.0156 6.78125L30.0146 6.84573L30.0893 4.52829L27.786 4.79447L28.0156 6.78125ZM27.7812 14.0469L27.8953 16.0436L29.7212 15.9393L29.7802 14.1114L27.7812 14.0469ZM22.5859 14.4375L22.3963 12.4465L20.972 12.5822L20.6404 13.9739L22.5859 14.4375ZM19.1094 34.3203L19.6133 36.2558L20.9621 35.9046L21.0996 34.5176L19.1094 34.3203ZM12.5078 36.0391L10.5371 35.6983L10.0082 38.7565L13.0117 37.9745L12.5078 36.0391ZM16.1016 15.2578L18.0723 15.5986L18.5434 12.8742L15.8085 13.2794L16.1016 15.2578ZM13.9922 15.6094L13.628 13.6428L13.6214 13.6441L13.9922 15.6094ZM11.9219 16L9.92598 16.1281L10.0708 18.3846L12.2927 17.9653L11.9219 16ZM11.4531 8.69531L11.2235 6.70854L9.33552 6.92672L9.45723 8.82339L11.4531 8.69531ZM26.0167 6.71677L25.7823 13.9824L29.7802 14.1114L30.0146 6.84573L26.0167 6.71677ZM27.6672 12.0501C25.8217 12.1556 24.0646 12.2876 22.3963 12.4465L22.7756 16.4285C24.3885 16.2749 26.095 16.1465 27.8953 16.0436L27.6672 12.0501ZM20.6404 13.9739C18.9052 21.2567 17.7287 27.9746 17.1191 34.123L21.0996 34.5176C21.688 28.5826 22.8292 22.0454 24.5315 14.9011L20.6404 13.9739ZM18.6055 32.3848L12.0039 34.1036L13.0117 37.9745L19.6133 36.2558L18.6055 32.3848ZM14.4786 36.3799L18.0723 15.5986L14.1308 14.917L10.5371 35.6983L14.4786 36.3799ZM15.8085 13.2794C15.0814 13.3871 14.3546 13.5083 13.628 13.6428L14.3564 17.5759C15.036 17.4501 15.7154 17.3368 16.3947 17.2362L15.8085 13.2794ZM13.6214 13.6441L11.5511 14.0347L12.2927 17.9653L14.363 17.5747L13.6214 13.6441ZM13.9178 15.8719L13.449 8.56723L9.45723 8.82339L9.92598 16.1281L13.9178 15.8719ZM11.6827 10.6821L28.2452 8.76803L27.786 4.79447L11.2235 6.70854L11.6827 10.6821ZM27.8984 8.42188L27.5576 6.45114L26.1654 6.69194L25.9271 8.08449L27.8984 8.42188ZM35.125 7.17188L37.0598 7.67837L37.847 4.67135L34.7841 5.20114L35.125 7.17188ZM31.9609 20.7656L29.9988 20.3782L29.4163 23.3283L32.3622 22.7249L31.9609 20.7656ZM35.2031 20.1016L35.6044 22.0609L36.9446 21.7864L37.1747 20.4378L35.2031 20.1016ZM37.1953 8.42188L36.8544 6.45114L35.4615 6.69208L35.2238 8.08559L37.1953 8.42188ZM44.4219 7.17188L46.3579 7.67364L47.1356 4.67277L44.081 5.20114L44.4219 7.17188ZM39.1875 34.3203L39.6832 36.2579L41.0414 35.9105L41.178 34.5152L39.1875 34.3203ZM32.4688 36.0391L30.4968 35.7056L29.9837 38.7392L32.9644 37.9767L32.4688 36.0391ZM34.2656 25.4141L36.2376 25.7476L36.7292 22.8407L33.8466 23.4585L34.2656 25.4141ZM30.9453 26.1172L30.5333 24.1601L29.1799 24.445L28.9688 25.8119L30.9453 26.1172ZM29.8906 34.3203L30.3863 36.2579L31.753 35.9083L31.8822 34.5034L29.8906 34.3203ZM23.1719 36.0391L21.2005 35.7017L20.6804 38.7408L23.6675 37.9767L23.1719 36.0391ZM28.2393 10.3926L35.4659 9.14261L34.7841 5.20114L27.5576 6.45114L28.2393 10.3926ZM33.1902 6.66538C31.8801 11.6701 30.8156 16.2418 29.9988 20.3782L33.9231 21.153C34.7209 17.1124 35.7658 12.6216 37.0598 7.67837L33.1902 6.66538ZM32.3622 22.7249L35.6044 22.0609L34.8018 18.1422L31.5596 18.8063L32.3622 22.7249ZM37.1747 20.4378L39.1668 8.75816L35.2238 8.08559L33.2316 19.7653L37.1747 20.4378ZM37.5362 10.3926L44.7628 9.14261L44.081 5.20114L36.8544 6.45114L37.5362 10.3926ZM42.4858 6.67011C39.7103 17.3797 37.9398 26.5381 37.197 34.1254L41.178 34.5152C41.8935 27.2067 43.6127 18.2661 46.3579 7.67364L42.4858 6.67011ZM38.6918 32.3827L31.9731 34.1015L32.9644 37.9767L39.6832 36.2579L38.6918 32.3827ZM34.4407 36.3726L36.2376 25.7476L32.2936 25.0806L30.4968 35.7056L34.4407 36.3726ZM33.8466 23.4585C33.1211 23.6139 32.0172 23.8477 30.5333 24.1601L31.3573 28.0743C32.8422 27.7617 33.9518 27.5267 34.6847 27.3697L33.8466 23.4585ZM28.9688 25.8119C28.4701 29.0401 28.1123 31.8176 27.899 34.1372L31.8822 34.5034C32.0856 32.2918 32.431 29.6005 32.9219 26.4225L28.9688 25.8119ZM29.395 32.3827L22.6762 34.1015L23.6675 37.9767L30.3863 36.2579L29.395 32.3827ZM25.1432 36.3764L29.8698 8.75926L25.9271 8.08449L21.2005 35.7017L25.1432 36.3764ZM37.3125 36.5078L35.4505 35.7779L34.1844 39.0076L37.6138 38.485L37.3125 36.5078ZM46.6094 8.26562L46.2785 6.29319L45.0019 6.50735L44.6744 7.75965L46.6094 8.26562ZM58.4844 6.27344L60.4556 6.61173L60.9321 3.83485L58.1535 4.301L58.4844 6.27344ZM56.6484 34.2812L57.0988 36.2299L58.6677 35.8673L58.6483 34.2571L56.6484 34.2812ZM48.3672 36.1953L46.3814 35.957L46.042 38.7855L48.8176 38.1439L48.3672 36.1953ZM48.9531 31.3125L50.9389 31.5508L51.2658 28.8265L48.5722 29.3491L48.9531 31.3125ZM46.3359 31.8203L45.955 29.8569L44.6897 30.1024L44.3906 31.3561L46.3359 31.8203ZM45.5156 35.2578L45.8169 37.235L47.1484 37.0321L47.461 35.722L45.5156 35.2578ZM49.5781 26.0781L49.9394 28.0452L51.3858 27.7796L51.5635 26.3197L49.5781 26.0781ZM51.375 11.3125L53.3604 11.5541L53.6331 9.3125H51.375V11.3125ZM51.3359 11.3125V9.3125H49.7636L49.3924 10.8404L51.3359 11.3125ZM47.6641 26.4297L45.7206 25.9576L44.9928 28.9538L48.0254 28.3968L47.6641 26.4297ZM39.1745 37.2377C43.028 27.4075 46.1525 17.9185 48.5443 8.7716L44.6744 7.75965C42.3267 16.7378 39.2532 26.0769 35.4505 35.7779L39.1745 37.2377ZM46.9403 10.2381L58.8153 8.24587L58.1535 4.301L46.2785 6.29319L46.9403 10.2381ZM56.5132 5.93515C55.1328 13.9784 54.5174 23.4415 54.6486 34.3054L58.6483 34.2571C58.5191 23.5585 59.1276 14.3497 60.4556 6.61173L56.5132 5.93515ZM56.198 32.3326L47.9168 34.2467L48.8176 38.1439L57.0988 36.2299L56.198 32.3326ZM50.3529 36.4336L50.9389 31.5508L46.9674 31.0742L46.3814 35.957L50.3529 36.4336ZM48.5722 29.3491L45.955 29.8569L46.7169 33.7837L49.3341 33.2759L48.5722 29.3491ZM44.3906 31.3561L43.5703 34.7936L47.461 35.722L48.2813 32.2845L44.3906 31.3561ZM45.2143 33.2806L37.0112 34.5306L37.6138 38.485L45.8169 37.235L45.2143 33.2806ZM51.5635 26.3197L53.3604 11.5541L49.3896 11.0709L47.5928 25.8365L51.5635 26.3197ZM51.375 9.3125H51.3359V13.3125H51.375V9.3125ZM49.3924 10.8404L45.7206 25.9576L49.6076 26.9017L53.2794 11.7846L49.3924 10.8404ZM48.0254 28.3968L49.9394 28.0452L49.2168 24.111L47.3028 24.4626L48.0254 28.3968ZM75.4766 6.78125L77.4755 6.84573L77.5503 4.52829L75.247 4.79447L75.4766 6.78125ZM75.2422 14.0469L75.3563 16.0436L77.1822 15.9393L77.2411 14.1114L75.2422 14.0469ZM70.0469 14.4375L69.8573 12.4465L68.433 12.5822L68.1013 13.9739L70.0469 14.4375ZM66.5703 34.3203L67.0742 36.2558L68.4231 35.9046L68.5606 34.5176L66.5703 34.3203ZM59.9688 36.0391L57.998 35.6983L57.4691 38.7565L60.4727 37.9745L59.9688 36.0391ZM63.5625 15.2578L65.5332 15.5986L66.0044 12.8742L63.2694 13.2794L63.5625 15.2578ZM61.4531 15.6094L61.0889 13.6428L61.0823 13.6441L61.4531 15.6094ZM59.3828 16L57.3869 16.1281L57.5317 18.3846L59.7536 17.9653L59.3828 16ZM58.9141 8.69531L58.6845 6.70854L56.7965 6.92672L56.9182 8.82339L58.9141 8.69531ZM73.4776 6.71677L73.2432 13.9824L77.2411 14.1114L77.4755 6.84573L73.4776 6.71677ZM75.1281 12.0501C73.2826 12.1556 71.5255 12.2876 69.8573 12.4465L70.2365 16.4285C71.8495 16.2749 73.5559 16.1465 75.3563 16.0436L75.1281 12.0501ZM68.1013 13.9739C66.3661 21.2567 65.1896 27.9746 64.5801 34.123L68.5606 34.5176C69.1489 28.5826 70.2902 22.0454 71.9924 14.9011L68.1013 13.9739ZM66.0664 32.3848L59.4648 34.1036L60.4727 37.9745L67.0742 36.2558L66.0664 32.3848ZM61.9395 36.3799L65.5332 15.5986L61.5918 14.917L57.998 35.6983L61.9395 36.3799ZM63.2694 13.2794C62.5424 13.3871 61.8156 13.5083 61.0889 13.6428L61.8173 17.5759C62.4969 17.4501 63.1764 17.3368 63.8556 17.2362L63.2694 13.2794ZM61.0823 13.6441L59.012 14.0347L59.7536 17.9653L61.8239 17.5747L61.0823 13.6441ZM61.3787 15.8719L60.91 8.56723L56.9182 8.82339L57.3869 16.1281L61.3787 15.8719ZM59.1437 10.6821L75.7062 8.76803L75.247 4.79447L58.6845 6.70854L59.1437 10.6821ZM84.8125 4.47656L86.6896 5.16697L87.7634 2.24753L84.6616 2.48226L84.8125 4.47656ZM81.3359 16.8203L81.6431 18.7966L83.0575 18.5767L83.3056 17.1671L81.3359 16.8203ZM73.7969 17.9922L71.8771 17.4313L70.9946 20.4518L74.1041 19.9685L73.7969 17.9922ZM77.5859 5.02344L77.435 3.02914L76.0545 3.13361L75.6662 4.46255L77.5859 5.02344ZM82.9354 3.78615C81.2387 8.39914 80.0427 12.6309 79.3662 16.4735L83.3056 17.1671C83.9312 13.6139 85.053 9.61648 86.6896 5.16697L82.9354 3.78615ZM81.0287 14.844L73.4897 16.0159L74.1041 19.9685L81.6431 18.7966L81.0287 14.844ZM75.7166 18.5531L79.5057 5.58433L75.6662 4.46255L71.8771 17.4313L75.7166 18.5531ZM77.7369 7.01774L84.9634 6.47086L84.6616 2.48226L77.435 3.02914L77.7369 7.01774ZM98.9141 15.3359L99.6163 17.2086L100.763 16.7786L100.901 15.5618L98.9141 15.3359ZM95.9453 16.4688L95.2245 14.6032L95.224 14.6033L95.9453 16.4688ZM93.0156 17.6016H91.0156V20.5192L93.7369 19.467L93.0156 17.6016ZM89.1094 17.4062L87.6087 16.0842L87.5926 16.1024L87.577 16.121L89.1094 17.4062ZM88.25 19.75L86.2688 20.0233L86.2714 20.0426L86.2745 20.0619L88.25 19.75ZM91.6875 20.2578L92.0675 22.2214L92.0824 22.2185L92.0972 22.2154L91.6875 20.2578ZM98.4844 22.1719L100.437 21.738L100.433 21.7203L100.429 21.7026L98.4844 22.1719ZM96.7656 29.0469L95.0877 27.9585L95.0805 27.9698L96.7656 29.0469ZM89.9688 35.4141L88.9534 33.691L88.9483 33.694L89.9688 35.4141ZM81.4531 35.6484L79.607 34.8792L78.9323 36.4984L80.4497 37.3785L81.4531 35.6484ZM84.5781 28.7344L85.7112 27.0863L83.7702 25.7519L82.7681 27.8835L84.5781 28.7344ZM88.5234 29.3984L88.0237 27.4619L87.9912 27.4703L87.9591 27.4797L88.5234 29.3984ZM90.8281 28.5L91.7726 30.263L91.7823 30.2577L91.792 30.2524L90.8281 28.5ZM87.5859 26.2344L87.9924 28.1926L88.0061 28.1898L88.0198 28.1867L87.5859 26.2344ZM82.1953 26.1172L83.3422 24.4787L83.3236 24.4657L83.3047 24.4531L82.1953 26.1172ZM80.9453 22.9531L82.9293 23.2056L82.9306 23.1957L82.9317 23.1858L80.9453 22.9531ZM86.5312 12.9141L88.0249 14.2441L88.0277 14.2409L86.5312 12.9141ZM95.4766 6.78125L95.3478 4.7854L95.3395 4.78594L95.3311 4.78655L95.4766 6.78125ZM98.2118 13.4633C97.3705 13.7788 96.3744 14.1589 95.2245 14.6032L96.6661 18.3343C97.8079 17.8932 98.791 17.5181 99.6163 17.2086L98.2118 13.4633ZM95.224 14.6033L92.2943 15.7362L93.7369 19.467L96.6666 18.3342L95.224 14.6033ZM95.0156 17.6016C95.0156 16.8707 94.9259 16.005 94.5118 15.2565C94.288 14.852 93.954 14.455 93.4766 14.1673C92.9958 13.8776 92.4803 13.7656 92 13.7656V17.7656C91.8582 17.7656 91.639 17.7301 91.4121 17.5934C91.1886 17.4587 91.0661 17.2912 91.0117 17.1927C90.9635 17.1057 90.9699 17.0772 90.9853 17.161C91 17.2406 91.0156 17.382 91.0156 17.6016H95.0156ZM92 13.7656C90.2208 13.7656 88.7562 14.7815 87.6087 16.0842L90.6101 18.7283C91.3896 17.8435 91.8521 17.7656 92 17.7656V13.7656ZM87.577 16.121C86.6806 17.1898 86.0614 18.5198 86.2688 20.0233L90.2312 19.4767C90.2303 19.4698 90.184 19.2373 90.6418 18.6915L87.577 16.121ZM86.2745 20.0619C86.4259 21.021 87.0303 21.718 87.7853 22.0955C88.4344 22.4201 89.1454 22.4922 89.7344 22.4922V18.4922C89.5926 18.4922 89.5105 18.4822 89.4754 18.4761C89.4379 18.4694 89.4831 18.4723 89.5741 18.5178C89.6716 18.5665 89.8273 18.6678 89.9699 18.8526C90.1174 19.0437 90.1964 19.2537 90.2255 19.4381L86.2745 20.0619ZM89.7344 22.4922C90.4126 22.4922 91.2055 22.3882 92.0675 22.2214L91.3075 18.2943C90.5549 18.4399 90.0457 18.4922 89.7344 18.4922V22.4922ZM92.0972 22.2154C93.1236 22.0006 93.9712 21.9062 94.6562 21.9062V17.9062C93.6226 17.9062 92.491 18.0463 91.2778 18.3002L92.0972 22.2154ZM94.6562 21.9062C95.5506 21.9062 96.0186 22.0656 96.2353 22.1938C96.384 22.2819 96.4779 22.383 96.5402 22.6412L100.429 21.7026C100.126 20.4504 99.3998 19.4187 98.2725 18.7515C97.2132 18.1245 95.9494 17.9062 94.6562 17.9062V21.9062ZM96.532 22.6057C96.602 22.9206 96.6406 23.2691 96.6406 23.6562H100.641C100.641 23.0017 100.575 22.3607 100.437 21.738L96.532 22.6057ZM96.6406 23.6562C96.6406 24.8163 96.2043 26.2371 95.0877 27.9585L98.4435 30.1353C99.827 28.0025 100.641 25.8295 100.641 23.6562H96.6406ZM95.0805 27.9698C93.656 30.1983 91.6344 32.1111 88.9534 33.691L90.9841 37.1371C94.1364 35.2795 96.6461 32.9475 98.4508 30.124L95.0805 27.9698ZM88.9483 33.694C87.6577 34.4596 86.496 34.7812 85.4375 34.7812V38.7812C87.3478 38.7812 89.2069 38.1915 90.9892 37.1342L88.9483 33.694ZM85.4375 34.7812C84.474 34.7812 83.4886 34.517 82.4566 33.9184L80.4497 37.3785C82.0218 38.2903 83.6927 38.7812 85.4375 38.7812V34.7812ZM83.2993 36.4177C83.9326 34.8978 84.9587 32.6259 86.3881 29.5852L82.7681 27.8835C81.333 30.9366 80.2758 33.2741 79.607 34.8792L83.2993 36.4177ZM83.4451 30.3825C84.5842 31.1656 85.8601 31.5938 87.2344 31.5938V27.5938C86.7337 27.5938 86.2387 27.4489 85.7112 27.0863L83.4451 30.3825ZM87.2344 31.5938C87.8614 31.5938 88.4813 31.4956 89.0878 31.3172L87.9591 27.4797C87.6802 27.5617 87.4407 27.5938 87.2344 27.5938V31.5938ZM89.0232 31.335C89.9839 31.0871 90.9015 30.7296 91.7726 30.263L89.8837 26.737C89.2964 27.0517 88.6776 27.2931 88.0237 27.4619L89.0232 31.335ZM91.792 30.2524C92.4203 29.9069 93.0258 29.4872 93.4948 28.9596C93.9779 28.4161 94.3906 27.6667 94.3906 26.7422H90.3906C90.3906 26.5931 90.4247 26.469 90.462 26.3842C90.4965 26.3057 90.525 26.2798 90.5052 26.3021C90.485 26.3248 90.4304 26.3798 90.3203 26.4615C90.2113 26.5423 90.0623 26.6387 89.8643 26.7476L91.792 30.2524ZM94.3906 26.7422C94.3906 25.7543 93.9231 24.8459 93.0314 24.3022C92.3004 23.8564 91.4611 23.7656 90.7891 23.7656V27.7656C90.9604 27.7656 91.0551 27.7792 91.0914 27.7866C91.1302 27.7945 91.0639 27.7874 90.949 27.7174C90.8209 27.6392 90.6571 27.4965 90.5356 27.2743C90.4162 27.0558 90.3906 26.8575 90.3906 26.7422H94.3906ZM90.7891 23.7656C89.8333 23.7656 88.5911 23.9622 87.1521 24.282L88.0198 28.1867C89.3932 27.8815 90.2865 27.7656 90.7891 27.7656V23.7656ZM87.1795 24.2761C85.8337 24.5554 84.9409 24.6641 84.4219 24.6641V28.6641C85.3612 28.6641 86.5778 28.4862 87.9924 28.1926L87.1795 24.2761ZM84.4219 24.6641C83.67 24.6641 83.3943 24.5152 83.3422 24.4787L81.0484 27.7557C82.0379 28.4483 83.2467 28.6641 84.4219 28.6641V24.6641ZM83.3047 24.4531C83.1087 24.3224 83.0282 24.2025 82.9812 24.0835C82.926 23.9439 82.8693 23.6768 82.9293 23.2056L78.9613 22.7006C78.839 23.6617 78.8995 24.6382 79.261 25.5532C79.6306 26.4889 80.2663 27.2349 81.0859 27.7813L83.3047 24.4531ZM82.9317 23.1858C83.1985 20.9082 84.7316 17.9427 88.0249 14.2441L85.0376 11.5841C81.56 15.4896 79.3692 19.2168 78.9589 22.7205L82.9317 23.1858ZM88.0277 14.2409C89.6946 12.361 91.1848 10.9998 92.4962 10.1007C93.8164 9.19556 94.8478 8.8324 95.622 8.77595L95.3311 4.78655C93.6053 4.91239 91.8958 5.66252 90.2343 6.80162C88.5639 7.94682 86.8314 9.56092 85.0348 11.5872L88.0277 14.2409ZM95.6053 8.7771C96.1962 8.73898 96.3754 8.89729 96.5352 9.1379C96.8147 9.55864 97.1094 10.4866 97.1094 12.25H101.109C101.109 10.2113 100.799 8.32678 99.8671 6.9246C98.816 5.34229 97.1788 4.66727 95.3478 4.7854L95.6053 8.7771ZM97.1094 12.25C97.1094 13.0693 97.0507 14.0206 96.9269 15.1101L100.901 15.5618C101.038 14.3596 101.109 13.2536 101.109 12.25H97.1094ZM115.242 14.2422L114.943 12.2647L113.625 12.4639L113.302 13.7571L115.242 14.2422ZM114.773 16.3906L116.726 16.8245L116.734 16.7898L116.74 16.7548L114.773 16.3906ZM114.305 18.5L112.352 18.0661L111.678 21.0995L114.718 20.4567L114.305 18.5ZM121.141 17.0547L123.137 17.183L123.306 14.5527L120.727 15.0979L121.141 17.0547ZM120.789 22.5234L121.096 24.4997L122.682 24.2534L122.785 22.6517L120.789 22.5234ZM113.211 23.9688L112.761 22.02L111.475 22.3168L111.242 23.6162L113.211 23.9688ZM111.727 34.3203L112.225 36.2572L113.568 35.9117L113.715 34.5328L111.727 34.3203ZM105.047 36.0391L103.073 35.717L102.58 38.739L105.545 37.976L105.047 36.0391ZM109.617 8.03125L109.339 6.05066L107.881 6.25539L107.643 7.70915L109.617 8.03125ZM122.977 6.15625L124.972 6.28571L125.131 3.83422L122.699 4.17566L122.977 6.15625ZM122.508 13.3828L122.687 15.3748L124.393 15.2213L124.504 13.5123L122.508 13.3828ZM113.302 13.7571C113.11 14.5243 112.945 15.2808 112.807 16.0264L116.74 16.7548C116.862 16.0942 117.01 15.4184 117.182 14.7273L113.302 13.7571ZM112.821 15.9568L112.352 18.0661L116.257 18.9339L116.726 16.8245L112.821 15.9568ZM114.718 20.4567L121.554 19.0114L120.727 15.0979L113.891 16.5433L114.718 20.4567ZM119.145 16.9264L118.793 22.3951L122.785 22.6517L123.137 17.183L119.145 16.9264ZM120.482 20.5471C117.757 20.9704 115.183 21.461 112.761 22.02L113.661 25.9175C115.978 25.3827 118.456 24.9098 121.096 24.4997L120.482 20.5471ZM111.242 23.6162C110.609 27.1506 110.108 30.6479 109.738 34.1078L113.715 34.5328C114.075 31.1698 114.563 27.766 115.18 24.3213L111.242 23.6162ZM111.228 32.3834L104.548 34.1022L105.545 37.976L112.225 36.2572L111.228 32.3834ZM107.021 36.3612L111.591 8.35335L107.643 7.70915L103.073 35.717L107.021 36.3612ZM109.895 10.0118L123.255 8.13684L122.699 4.17566L109.339 6.05066L109.895 10.0118ZM120.981 6.02679L120.512 13.2534L124.504 13.5123L124.972 6.28571L120.981 6.02679ZM122.329 11.3909C119.69 11.6283 117.228 11.9193 114.943 12.2647L115.541 16.2197C117.735 15.888 120.117 15.6061 122.687 15.3748L122.329 11.3909ZM116.727 36.5078L114.865 35.7779L113.598 39.0076L117.028 38.485L116.727 36.5078ZM126.023 8.26562L125.693 6.29319L124.416 6.50735L124.088 7.75965L126.023 8.26562ZM137.898 6.27344L139.87 6.61173L140.346 3.83485L137.568 4.301L137.898 6.27344ZM136.062 34.2812L136.513 36.2299L138.082 35.8673L138.062 34.2571L136.062 34.2812ZM127.781 36.1953L125.795 35.957L125.456 38.7855L128.232 38.1439L127.781 36.1953ZM128.367 31.3125L130.353 31.5508L130.68 28.8265L127.986 29.3491L128.367 31.3125ZM125.75 31.8203L125.369 29.8569L124.104 30.1024L123.805 31.3561L125.75 31.8203ZM124.93 35.2578L125.231 37.235L126.562 37.0321L126.875 35.722L124.93 35.2578ZM128.992 26.0781L129.353 28.0452L130.8 27.7796L130.978 26.3197L128.992 26.0781ZM130.789 11.3125L132.774 11.5541L133.047 9.3125H130.789V11.3125ZM130.75 11.3125V9.3125H129.178L128.807 10.8404L130.75 11.3125ZM127.078 26.4297L125.135 25.9576L124.407 28.9538L127.439 28.3968L127.078 26.4297ZM118.589 37.2377C122.442 27.4075 125.567 17.9185 127.958 8.7716L124.088 7.75965C121.741 16.7378 118.667 26.0769 114.865 35.7779L118.589 37.2377ZM126.354 10.2381L138.229 8.24587L137.568 4.301L125.693 6.29319L126.354 10.2381ZM135.927 5.93515C134.547 13.9784 133.931 23.4415 134.063 34.3054L138.062 34.2571C137.933 23.5585 138.542 14.3497 139.87 6.61173L135.927 5.93515ZM135.612 32.3326L127.331 34.2467L128.232 38.1439L136.513 36.2299L135.612 32.3326ZM129.767 36.4336L130.353 31.5508L126.381 31.0742L125.795 35.957L129.767 36.4336ZM127.986 29.3491L125.369 29.8569L126.131 33.7837L128.748 33.2759L127.986 29.3491ZM123.805 31.3561L122.984 34.7936L126.875 35.722L127.695 32.2845L123.805 31.3561ZM124.628 33.2806L116.425 34.5306L117.028 38.485L125.231 37.235L124.628 33.2806ZM130.978 26.3197L132.774 11.5541L128.804 11.0709L127.007 25.8365L130.978 26.3197ZM130.789 9.3125H130.75V13.3125H130.789V9.3125ZM128.807 10.8404L125.135 25.9576L129.022 26.9017L132.693 11.7846L128.807 10.8404ZM127.439 28.3968L129.353 28.0452L128.631 24.111L126.717 24.4626L127.439 28.3968ZM140.906 8.53906L140.51 6.57878L139.172 6.84935L138.936 8.19329L140.906 8.53906ZM147.664 7.17188L149.66 7.30064L149.828 4.69354L147.267 5.21159L147.664 7.17188ZM147.938 19.9453L149.93 19.7764L149.93 19.7712L147.938 19.9453ZM148.523 23.6562L146.596 24.1915L150.494 23.9998L148.523 23.6562ZM151.18 8.42188L150.814 6.45561L149.448 6.70972L149.209 8.07834L151.18 8.42188ZM157.898 7.17188L159.834 7.67397L160.624 4.63053L157.533 5.20561L157.898 7.17188ZM152.586 34.3203L153.122 36.247L154.428 35.8835L154.574 34.5367L152.586 34.3203ZM146.414 36.0391L144.625 36.9335L145.362 38.408L146.951 37.9657L146.414 36.0391ZM145.906 34.6719L144.019 35.3348L144.023 35.3451L144.027 35.3554L145.906 34.6719ZM143.875 28.8906L145.762 28.2277L145.759 28.2195L145.756 28.2113L143.875 28.8906ZM143.289 27.0938L145.25 26.7015L141.32 26.7433L143.289 27.0938ZM142 36.0391L142.575 37.9547L143.846 37.5734L143.988 36.254L142 36.0391ZM135.75 37.9141L133.78 37.5683L133.22 40.7612L136.325 39.8297L135.75 37.9141ZM141.303 10.4993L148.061 9.13216L147.267 5.21159L140.51 6.57878L141.303 10.4993ZM145.668 7.04311C145.612 7.91481 145.586 9.11109 145.586 10.6094H149.586C149.586 9.13891 149.612 8.04352 149.66 7.30064L145.668 7.04311ZM145.586 10.6094C145.586 14.1922 145.704 17.3645 145.945 20.1194L149.93 19.7712C149.702 17.1615 149.586 14.1099 149.586 10.6094H145.586ZM145.945 20.1142C146.08 21.7118 146.289 23.0858 146.596 24.1915L150.45 23.121C150.237 22.3517 150.055 21.2518 149.93 19.7764L145.945 20.1142ZM150.494 23.9998L153.15 8.76541L149.209 8.07834L146.553 23.3127L150.494 23.9998ZM151.546 10.3881L158.264 9.13814L157.533 5.20561L150.814 6.45561L151.546 10.3881ZM155.962 6.66978C153.239 17.1722 151.445 26.3217 150.598 34.1039L154.574 34.5367C155.394 27.0064 157.142 18.0569 159.834 7.67397L155.962 6.66978ZM152.049 32.3936L145.878 34.1124L146.951 37.9657L153.122 36.247L152.049 32.3936ZM148.203 35.1446C148.241 35.2201 148.263 35.2793 148.252 35.251C148.25 35.2469 148.245 35.2333 148.234 35.2064C148.214 35.1535 148.184 35.0732 148.142 34.9618C148.06 34.7405 147.942 34.4168 147.786 33.9884L144.027 35.3554C144.183 35.7863 144.306 36.1202 144.393 36.3546C144.447 36.5019 144.549 36.7815 144.625 36.9335L148.203 35.1446ZM147.793 34.0089L145.762 28.2277L141.988 29.5536L144.019 35.3348L147.793 34.0089ZM145.756 28.2113C145.59 27.7524 145.465 27.3899 145.376 27.1182C145.332 26.9825 145.299 26.8774 145.277 26.7993C145.252 26.7144 145.248 26.6883 145.25 26.7015L141.328 27.486C141.416 27.9245 141.672 28.6791 141.994 29.5699L145.756 28.2113ZM141.32 26.7433C140.766 29.8579 140.329 32.8849 140.012 35.8241L143.988 36.254C144.296 33.4119 144.719 30.4754 145.258 27.4442L141.32 26.7433ZM141.425 34.1234L135.175 35.9984L136.325 39.8297L142.575 37.9547L141.425 34.1234ZM137.72 38.2598L142.876 8.88484L138.936 8.19329L133.78 37.5683L137.72 38.2598ZM173.094 6.78125L175.093 6.84573L175.167 4.52829L172.864 4.79447L173.094 6.78125ZM172.859 14.0469L172.973 16.0436L174.799 15.9393L174.858 14.1114L172.859 14.0469ZM167.664 14.4375L167.474 12.4465L166.05 12.5822L165.719 13.9739L167.664 14.4375ZM164.188 34.3203L164.691 36.2558L166.04 35.9046L166.178 34.5176L164.188 34.3203ZM157.586 36.0391L155.615 35.6983L155.086 38.7565L158.09 37.9745L157.586 36.0391ZM161.18 15.2578L163.15 15.5986L163.622 12.8742L160.887 13.2794L161.18 15.2578ZM159.07 15.6094L158.706 13.6428L158.699 13.6441L159.07 15.6094ZM157 16L155.004 16.1281L155.149 18.3846L157.371 17.9653L157 16ZM156.531 8.69531L156.302 6.70854L154.414 6.92672L154.535 8.82339L156.531 8.69531ZM171.095 6.71677L170.86 13.9824L174.858 14.1114L175.093 6.84573L171.095 6.71677ZM172.745 12.0501C170.9 12.1556 169.143 12.2876 167.474 12.4465L167.854 16.4285C169.467 16.2749 171.173 16.1465 172.973 16.0436L172.745 12.0501ZM165.719 13.9739C163.983 21.2567 162.807 27.9746 162.197 34.123L166.178 34.5176C166.766 28.5826 167.907 22.0454 169.61 14.9011L165.719 13.9739ZM163.684 32.3848L157.082 34.1036L158.09 37.9745L164.691 36.2558L163.684 32.3848ZM159.557 36.3799L163.15 15.5986L159.209 14.917L155.615 35.6983L159.557 36.3799ZM160.887 13.2794C160.16 13.3871 159.433 13.5083 158.706 13.6428L159.434 17.5759C160.114 17.4501 160.794 17.3368 161.473 17.2362L160.887 13.2794ZM158.699 13.6441L156.629 14.0347L157.371 17.9653L159.441 17.5747L158.699 13.6441ZM158.996 15.8719L158.527 8.56723L154.535 8.82339L155.004 16.1281L158.996 15.8719ZM156.761 10.6821L173.323 8.76803L172.864 4.79447L156.302 6.70854L156.761 10.6821ZM165.125 36.5078L163.263 35.7779L161.997 39.0076L165.426 38.485L165.125 36.5078ZM174.422 8.26562L174.091 6.29319L172.814 6.50735L172.487 7.75965L174.422 8.26562ZM186.297 6.27344L188.268 6.61173L188.745 3.83485L185.966 4.301L186.297 6.27344ZM184.461 34.2812L184.911 36.2299L186.48 35.8673L186.461 34.2571L184.461 34.2812ZM176.18 36.1953L174.194 35.957L173.855 38.7855L176.63 38.1439L176.18 36.1953ZM176.766 31.3125L178.751 31.5508L179.078 28.8265L176.385 29.3491L176.766 31.3125ZM174.148 31.8203L173.767 29.8569L172.502 30.1024L172.203 31.3561L174.148 31.8203ZM173.328 35.2578L173.629 37.235L174.961 37.0321L175.273 35.722L173.328 35.2578ZM177.391 26.0781L177.752 28.0452L179.198 27.7796L179.376 26.3197L177.391 26.0781ZM179.188 11.3125L181.173 11.5541L181.446 9.3125H179.188V11.3125ZM179.148 11.3125V9.3125H177.576L177.205 10.8404L179.148 11.3125ZM175.477 26.4297L173.533 25.9576L172.805 28.9538L175.838 28.3968L175.477 26.4297ZM166.987 37.2377C170.841 27.4075 173.965 17.9185 176.357 8.7716L172.487 7.75965C170.139 16.7378 167.066 26.0769 163.263 35.7779L166.987 37.2377ZM174.753 10.2381L186.628 8.24587L185.966 4.301L174.091 6.29319L174.753 10.2381ZM184.326 5.93515C182.945 13.9784 182.33 23.4415 182.461 34.3054L186.461 34.2571C186.332 23.5585 186.94 14.3497 188.268 6.61173L184.326 5.93515ZM184.011 32.3326L175.729 34.2467L176.63 38.1439L184.911 36.2299L184.011 32.3326ZM178.165 36.4336L178.751 31.5508L174.78 31.0742L174.194 35.957L178.165 36.4336ZM176.385 29.3491L173.767 29.8569L174.529 33.7837L177.147 33.2759L176.385 29.3491ZM172.203 31.3561L171.383 34.7936L175.273 35.722L176.094 32.2845L172.203 31.3561ZM173.027 33.2806L164.824 34.5306L165.426 38.485L173.629 37.235L173.027 33.2806ZM179.376 26.3197L181.173 11.5541L177.202 11.0709L175.405 25.8365L179.376 26.3197ZM179.188 9.3125H179.148V13.3125H179.188V9.3125ZM177.205 10.8404L173.533 25.9576L177.42 26.9017L181.092 11.7846L177.205 10.8404ZM175.838 28.3968L177.752 28.0452L177.029 24.111L175.115 24.4626L175.838 28.3968ZM202.82 15.3359L203.523 17.2086L204.669 16.7786L204.808 15.5618L202.82 15.3359ZM199.852 16.4688L199.131 14.6032L199.13 14.6033L199.852 16.4688ZM196.922 17.6016H194.922V20.5192L197.643 19.467L196.922 17.6016ZM193.016 17.4062L191.515 16.0842L191.499 16.1024L191.483 16.121L193.016 17.4062ZM192.156 19.75L190.175 20.0233L190.178 20.0426L190.181 20.0619L192.156 19.75ZM195.594 20.2578L195.974 22.2214L195.989 22.2185L196.003 22.2154L195.594 20.2578ZM202.391 22.1719L204.343 21.738L204.339 21.7203L204.335 21.7026L202.391 22.1719ZM200.672 29.0469L198.994 27.9585L198.987 27.9698L200.672 29.0469ZM193.875 35.4141L192.86 33.691L192.855 33.694L193.875 35.4141ZM185.359 35.6484L183.513 34.8792L182.839 36.4984L184.356 37.3785L185.359 35.6484ZM188.484 28.7344L189.617 27.0863L187.676 25.7519L186.674 27.8835L188.484 28.7344ZM192.43 29.3984L191.93 27.4619L191.897 27.4703L191.865 27.4797L192.43 29.3984ZM194.734 28.5L195.679 30.263L195.689 30.2577L195.698 30.2524L194.734 28.5ZM191.492 26.2344L191.899 28.1926L191.912 28.1898L191.926 28.1867L191.492 26.2344ZM186.102 26.1172L187.248 24.4787L187.23 24.4657L187.211 24.4531L186.102 26.1172ZM184.852 22.9531L186.836 23.2056L186.837 23.1957L186.838 23.1858L184.852 22.9531ZM190.438 12.9141L191.931 14.2441L191.934 14.2409L190.438 12.9141ZM199.383 6.78125L199.254 4.7854L199.246 4.78594L199.237 4.78655L199.383 6.78125ZM202.118 13.4633C201.277 13.7788 200.281 14.1589 199.131 14.6032L200.572 18.3343C201.714 17.8932 202.697 17.5181 203.523 17.2086L202.118 13.4633ZM199.13 14.6033L196.201 15.7362L197.643 19.467L200.573 18.3342L199.13 14.6033ZM198.922 17.6016C198.922 16.8707 198.832 16.005 198.418 15.2565C198.194 14.852 197.86 14.455 197.383 14.1673C196.902 13.8776 196.387 13.7656 195.906 13.7656V17.7656C195.764 17.7656 195.545 17.7301 195.318 17.5934C195.095 17.4587 194.972 17.2912 194.918 17.1927C194.87 17.1057 194.876 17.0772 194.892 17.161C194.906 17.2406 194.922 17.382 194.922 17.6016H198.922ZM195.906 13.7656C194.127 13.7656 192.662 14.7815 191.515 16.0842L194.516 18.7283C195.296 17.8435 195.758 17.7656 195.906 17.7656V13.7656ZM191.483 16.121C190.587 17.1898 189.968 18.5198 190.175 20.0233L194.137 19.4767C194.137 19.4698 194.09 19.2373 194.548 18.6915L191.483 16.121ZM190.181 20.0619C190.332 21.021 190.937 21.718 191.692 22.0955C192.341 22.4201 193.052 22.4922 193.641 22.4922V18.4922C193.499 18.4922 193.417 18.4822 193.382 18.4761C193.344 18.4694 193.389 18.4723 193.48 18.5178C193.578 18.5665 193.734 18.6678 193.876 18.8526C194.024 19.0437 194.103 19.2537 194.132 19.4381L190.181 20.0619ZM193.641 22.4922C194.319 22.4922 195.112 22.3882 195.974 22.2214L195.214 18.2943C194.461 18.4399 193.952 18.4922 193.641 18.4922V22.4922ZM196.003 22.2154C197.03 22.0006 197.877 21.9062 198.562 21.9062V17.9062C197.529 17.9062 196.397 18.0463 195.184 18.3002L196.003 22.2154ZM198.562 21.9062C199.457 21.9062 199.925 22.0656 200.142 22.1938C200.29 22.2819 200.384 22.383 200.446 22.6412L204.335 21.7026C204.033 20.4504 203.306 19.4187 202.179 18.7515C201.119 18.1245 199.856 17.9062 198.562 17.9062V21.9062ZM200.438 22.6057C200.508 22.9206 200.547 23.2691 200.547 23.6562H204.547C204.547 23.0017 204.481 22.3607 204.343 21.738L200.438 22.6057ZM200.547 23.6562C200.547 24.8163 200.111 26.2371 198.994 27.9585L202.35 30.1353C203.733 28.0025 204.547 25.8295 204.547 23.6562H200.547ZM198.987 27.9698C197.562 30.1983 195.541 32.1111 192.86 33.691L194.89 37.1371C198.043 35.2795 200.552 32.9475 202.357 30.124L198.987 27.9698ZM192.855 33.694C191.564 34.4596 190.402 34.7812 189.344 34.7812V38.7812C191.254 38.7812 193.113 38.1915 194.895 37.1342L192.855 33.694ZM189.344 34.7812C188.38 34.7812 187.395 34.517 186.363 33.9184L184.356 37.3785C185.928 38.2903 187.599 38.7812 189.344 38.7812V34.7812ZM187.206 36.4177C187.839 34.8978 188.865 32.6259 190.294 29.5852L186.674 27.8835C185.239 30.9366 184.182 33.2741 183.513 34.8792L187.206 36.4177ZM187.351 30.3825C188.49 31.1656 189.766 31.5938 191.141 31.5938V27.5938C190.64 27.5938 190.145 27.4489 189.617 27.0863L187.351 30.3825ZM191.141 31.5938C191.768 31.5938 192.388 31.4956 192.994 31.3172L191.865 27.4797C191.586 27.5617 191.347 27.5938 191.141 27.5938V31.5938ZM192.929 31.335C193.89 31.0871 194.808 30.7296 195.679 30.263L193.79 26.737C193.203 27.0517 192.584 27.2931 191.93 27.4619L192.929 31.335ZM195.698 30.2524C196.327 29.9069 196.932 29.4872 197.401 28.9596C197.884 28.4161 198.297 27.6667 198.297 26.7422H194.297C194.297 26.5931 194.331 26.469 194.368 26.3842C194.403 26.3057 194.431 26.2798 194.411 26.3021C194.391 26.3248 194.337 26.3798 194.227 26.4615C194.118 26.5423 193.969 26.6387 193.771 26.7476L195.698 30.2524ZM198.297 26.7422C198.297 25.7543 197.829 24.8459 196.938 24.3022C196.207 23.8564 195.367 23.7656 194.695 23.7656V27.7656C194.867 27.7656 194.961 27.7792 194.998 27.7866C195.036 27.7945 194.97 27.7874 194.855 27.7174C194.727 27.6392 194.563 27.4965 194.442 27.2743C194.322 27.0558 194.297 26.8575 194.297 26.7422H198.297ZM194.695 23.7656C193.74 23.7656 192.497 23.9622 191.058 24.282L191.926 28.1867C193.299 27.8815 194.193 27.7656 194.695 27.7656V23.7656ZM191.086 24.2761C189.74 24.5554 188.847 24.6641 188.328 24.6641V28.6641C189.267 28.6641 190.484 28.4862 191.899 28.1926L191.086 24.2761ZM188.328 24.6641C187.576 24.6641 187.301 24.5152 187.248 24.4787L184.955 27.7557C185.944 28.4483 187.153 28.6641 188.328 28.6641V24.6641ZM187.211 24.4531C187.015 24.3224 186.934 24.2025 186.887 24.0835C186.832 23.9439 186.776 23.6768 186.836 23.2056L182.868 22.7006C182.745 23.6617 182.806 24.6382 183.167 25.5532C183.537 26.4889 184.173 27.2349 184.992 27.7813L187.211 24.4531ZM186.838 23.1858C187.105 20.9082 188.638 17.9427 191.931 14.2441L188.944 11.5841C185.466 15.4896 183.275 19.2168 182.865 22.7205L186.838 23.1858ZM191.934 14.2409C193.601 12.361 195.091 10.9998 196.402 10.1007C197.723 9.19556 198.754 8.8324 199.528 8.77595L199.237 4.78655C197.512 4.91239 195.802 5.66252 194.141 6.80162C192.47 7.94682 190.738 9.56092 188.941 11.5872L191.934 14.2409ZM199.512 8.7771C200.102 8.73898 200.282 8.89729 200.441 9.1379C200.721 9.55864 201.016 10.4866 201.016 12.25H205.016C205.016 10.2113 204.705 8.32678 203.773 6.9246C202.722 5.34229 201.085 4.66727 199.254 4.7854L199.512 8.7771ZM201.016 12.25C201.016 13.0693 200.957 14.0206 200.833 15.1101L204.808 15.5618C204.944 14.3596 205.016 13.2536 205.016 12.25H201.016ZM220.672 6.78125L222.671 6.84573L222.746 4.52829L220.442 4.79447L220.672 6.78125ZM220.438 14.0469L220.552 16.0436L222.377 15.9393L222.436 14.1114L220.438 14.0469ZM215.242 14.4375L215.053 12.4465L213.628 12.5822L213.297 13.9739L215.242 14.4375ZM211.766 34.3203L212.27 36.2558L213.618 35.9046L213.756 34.5176L211.766 34.3203ZM205.164 36.0391L203.193 35.6983L202.664 38.7565L205.668 37.9745L205.164 36.0391ZM208.758 15.2578L210.729 15.5986L211.2 12.8742L208.465 13.2794L208.758 15.2578ZM206.648 15.6094L206.284 13.6428L206.278 13.6441L206.648 15.6094ZM204.578 16L202.582 16.1281L202.727 18.3846L204.949 17.9653L204.578 16ZM204.109 8.69531L203.88 6.70854L201.992 6.92672L202.113 8.82339L204.109 8.69531ZM218.673 6.71677L218.439 13.9824L222.436 14.1114L222.671 6.84573L218.673 6.71677ZM220.323 12.0501C218.478 12.1556 216.721 12.2876 215.053 12.4465L215.432 16.4285C217.045 16.2749 218.751 16.1465 220.552 16.0436L220.323 12.0501ZM213.297 13.9739C211.561 21.2567 210.385 27.9746 209.775 34.123L213.756 34.5176C214.344 28.5826 215.485 22.0454 217.188 14.9011L213.297 13.9739ZM211.262 32.3848L204.66 34.1036L205.668 37.9745L212.27 36.2558L211.262 32.3848ZM207.135 36.3799L210.729 15.5986L206.787 14.917L203.193 35.6983L207.135 36.3799ZM208.465 13.2794C207.738 13.3871 207.011 13.5083 206.284 13.6428L207.013 17.5759C207.692 17.4501 208.372 17.3368 209.051 17.2362L208.465 13.2794ZM206.278 13.6441L204.207 14.0347L204.949 17.9653L207.019 17.5747L206.278 13.6441ZM206.574 15.8719L206.105 8.56723L202.113 8.82339L202.582 16.1281L206.574 15.8719ZM204.339 10.6821L220.901 8.76803L220.442 4.79447L203.88 6.70854L204.339 10.6821ZM221.336 8.42188L220.97 6.45561L219.604 6.70982L219.366 8.07908L221.336 8.42188ZM228.055 7.17188L229.991 7.67397L230.78 4.63053L227.689 5.20561L228.055 7.17188ZM222.742 34.3203L223.276 36.2479L224.584 35.8859L224.73 34.5367L222.742 34.3203ZM216.531 36.0391L214.561 35.6963L214.019 38.8094L217.065 37.9666L216.531 36.0391ZM221.702 10.3881L228.421 9.13814L227.689 5.20561L220.97 6.45561L221.702 10.3881ZM226.119 6.66978C223.395 17.1722 221.601 26.3217 220.754 34.1039L224.73 34.5367C225.55 27.0064 227.298 18.0569 229.991 7.67397L226.119 6.66978ZM222.209 32.3928L215.998 34.1115L217.065 37.9666L223.276 36.2479L222.209 32.3928ZM218.502 36.3819L223.306 8.76467L219.366 8.07908L214.561 35.6963L218.502 36.3819ZM244.734 10.9219L246.213 12.269L247.084 11.3129L246.569 10.1262L244.734 10.9219ZM240.32 15.7656L238.876 17.1494L240.357 18.6946L241.799 17.1127L240.32 15.7656ZM233.953 18.3828L235.648 19.4448L235.648 19.4445L233.953 18.3828ZM231.57 23.8516L233.521 24.2921L233.523 24.2824L233.525 24.2727L231.57 23.8516ZM233.211 29.6328L232.302 31.4143L232.309 31.418L232.317 31.4217L233.211 29.6328ZM238.797 26.9375L240.728 26.4181L239.653 22.4195L237.189 25.7475L238.797 26.9375ZM240.047 31.5859L241.533 32.9239L242.26 32.1161L241.978 31.0666L240.047 31.5859ZM226.258 31.5859L228.091 30.786L228.085 30.7732L228.08 30.7605L226.258 31.5859ZM225.711 21.1953L227.66 21.645L227.662 21.6354L225.711 21.1953ZM230.164 11.7031L231.754 12.917L231.757 12.9127L230.164 11.7031ZM238.758 8.50781C239.726 8.50781 240.475 8.76253 241.095 9.22012C241.736 9.6934 242.361 10.4763 242.899 11.7175L246.569 10.1262C245.831 8.42476 244.823 7.00061 243.471 6.00254C242.099 4.98877 240.497 4.50781 238.758 4.50781V8.50781ZM243.256 9.57475L238.842 14.4185L241.799 17.1127L246.213 12.269L243.256 9.57475ZM241.764 14.3818C240.833 13.4101 239.638 12.8281 238.25 12.8281V16.8281C238.424 16.8281 238.61 16.8711 238.876 17.1494L241.764 14.3818ZM238.25 12.8281C236.955 12.8281 235.816 13.3897 234.866 14.1758C233.924 14.9548 233.063 16.0369 232.258 17.3211L235.648 19.4445C236.328 18.359 236.925 17.6637 237.415 17.2578C237.898 16.859 238.165 16.8281 238.25 16.8281V12.8281ZM232.258 17.3208C230.949 19.4095 230.042 21.4493 229.615 23.4305L233.525 24.2727C233.828 22.8684 234.509 21.2624 235.648 19.4448L232.258 17.3208ZM229.619 23.411C229.413 24.326 229.297 25.2062 229.297 26.0391H233.297C233.297 25.5698 233.363 24.9917 233.521 24.2921L229.619 23.411ZM229.297 26.0391C229.297 28.3384 230.197 30.3405 232.302 31.4143L234.12 27.8513C233.673 27.6231 233.297 27.2293 233.297 26.0391H229.297ZM232.317 31.4217C233.013 31.7698 233.762 31.9453 234.539 31.9453V27.9453C234.379 27.9453 234.243 27.9125 234.105 27.844L232.317 31.4217ZM234.539 31.9453C236.903 31.9453 238.844 30.2354 240.404 28.1275L237.189 25.7475C235.781 27.65 234.883 27.9453 234.539 27.9453V31.9453ZM236.865 27.4569L238.115 32.1053L241.978 31.0666L240.728 26.4181L236.865 27.4569ZM238.56 30.248C236.187 32.8846 234.068 33.8828 232.195 33.8828V37.8828C235.635 37.8828 238.75 36.0164 241.533 32.9239L238.56 30.248ZM232.195 33.8828C231.214 33.8828 230.464 33.6309 229.852 33.1884C229.222 32.7326 228.612 31.9807 228.091 30.786L224.425 32.3858C225.153 34.0558 226.158 35.4523 227.507 36.4288C228.875 37.4185 230.468 37.8828 232.195 37.8828V33.8828ZM228.08 30.7605C227.456 29.3836 227.125 27.8081 227.125 26H223.125C223.125 28.3065 223.55 30.4549 224.436 32.4114L228.08 30.7605ZM227.125 26C227.125 24.6615 227.298 23.2118 227.66 21.645L223.762 20.7456C223.342 22.5643 223.125 24.3176 223.125 26H227.125ZM227.662 21.6354C228.379 18.4571 229.738 15.5562 231.754 12.917L228.575 10.4893C226.215 13.5792 224.606 17.0064 223.76 20.7552L227.662 21.6354ZM231.757 12.9127C234.171 9.73385 236.511 8.50781 238.758 8.50781V4.50781C234.807 4.50781 231.418 6.74532 228.571 10.4936L231.757 12.9127ZM245.555 29.6328L245.813 31.616L245.825 31.6144L245.838 31.6127L245.555 29.6328ZM247.977 30.0234L247.005 31.7718L247.043 31.7929L247.082 31.8123L247.977 30.0234ZM247.312 35.2578L246.087 33.6774L246.08 33.6827L246.073 33.688L247.312 35.2578ZM244.07 36.6641L243.806 34.6816L243.795 34.6831L244.07 36.6641ZM241.648 36.3516L240.731 38.1288L240.743 38.1347L240.754 38.1404L241.648 36.3516ZM242.273 31.0781L241.009 29.5284L241.003 29.5337L240.996 29.539L242.273 31.0781ZM249.969 5.33594L250.299 3.36341L248.537 3.06826L248.046 4.7865L249.969 5.33594ZM258.133 6.70312L259.88 7.6764L261.26 5.19898L258.463 4.73059L258.133 6.70312ZM253.367 15.8047L251.553 14.9625L251.551 14.9676L253.367 15.8047ZM249.695 25.5312L249.609 27.5294L251.155 27.5961L251.608 26.1164L249.695 25.5312ZM244.266 25.2969L242.343 24.7474L241.646 27.1857L244.179 27.295L244.266 25.2969ZM245.838 31.6127C246.382 31.5349 246.738 31.6231 247.005 31.7718L248.948 28.2751C247.809 27.6426 246.55 27.4703 245.272 27.6529L245.838 31.6127ZM247.082 31.8123C247.164 31.8533 247.207 31.8856 247.224 31.9006C247.241 31.9144 247.238 31.9155 247.23 31.9023C247.221 31.8887 247.218 31.8782 247.218 31.8799C247.219 31.8834 247.227 31.9124 247.227 31.9766H251.227C251.227 31.2087 251.042 30.4383 250.599 29.7461C250.159 29.0598 249.544 28.571 248.871 28.2346L247.082 31.8123ZM247.227 31.9766C247.227 32.3571 247.057 32.9251 246.087 33.6774L248.538 36.8383C250.12 35.6114 251.227 33.9918 251.227 31.9766H247.227ZM246.073 33.688C245.346 34.262 244.598 34.576 243.806 34.6816L244.335 38.6465C245.886 38.4396 247.3 37.8161 248.552 36.8276L246.073 33.688ZM243.795 34.6831C243.157 34.7717 242.777 34.6798 242.543 34.5627L240.754 38.1404C241.874 38.7004 243.108 38.8169 244.345 38.645L243.795 34.6831ZM242.566 34.5743C242.492 34.5363 242.455 34.5072 242.441 34.495C242.429 34.484 242.432 34.4845 242.44 34.4969C242.448 34.5095 242.449 34.517 242.448 34.5104C242.445 34.5019 242.438 34.4676 242.438 34.3984H238.438C238.438 35.1544 238.613 35.9159 239.04 36.6047C239.466 37.2906 240.066 37.7857 240.731 38.1288L242.566 34.5743ZM242.438 34.3984C242.438 33.9762 242.624 33.3857 243.551 32.6172L240.996 29.539C239.475 30.8018 238.438 32.4248 238.438 34.3984H242.438ZM243.538 32.6279C244.256 32.0417 245.006 31.7213 245.813 31.616L245.296 27.6496C243.708 27.8568 242.27 28.4999 241.009 29.5284L243.538 32.6279ZM249.638 7.30847L257.802 8.67566L258.463 4.73059L250.299 3.36341L249.638 7.30847ZM256.386 5.72985C254.217 9.62374 252.6 12.708 251.553 14.9625L255.181 16.6469C256.166 14.5264 257.726 11.5429 259.88 7.6764L256.386 5.72985ZM251.551 14.9676C250.129 18.0522 248.874 21.3794 247.783 24.9461L251.608 26.1164C252.652 22.7039 253.845 19.5468 255.184 16.6418L251.551 14.9676ZM249.782 23.5331L244.352 23.2987L244.179 27.295L249.609 27.5294L249.782 23.5331ZM246.189 25.8463L251.892 5.88538L248.046 4.7865L242.343 24.7474L246.189 25.8463Z" fill="#F7931E" mask="url(#path-1-outside-1_2877_7717)"/>
</svg>
