<svg width="98" height="43" viewBox="0 0 98 43" fill="none" xmlns="http://www.w3.org/2000/svg">
<mask id="path-1-outside-1_2877_7714" maskUnits="userSpaceOnUse" x="7" y="2" width="89" height="37" fill="black">
<rect fill="white" x="7" y="2" width="89" height="37"/>
<path d="M37.2227 6.9375C33.707 16.2604 31.0898 25.349 29.3711 34.2031L20.6211 35.6875L22.0664 21.3516L18.4336 34.6328L10.1133 36.1562C11.3633 26.3646 11.9753 17.3802 11.9492 9.20312L19.3711 7.79688L17.8477 24.9062L22.9258 5.92188L26.9102 5.33594L24.2148 29.4375L29.6445 8.10938L37.2227 6.9375ZM47.3398 5.45312C50.1003 5.45312 52.0534 6.98958 53.1992 10.0625C53.7982 11.651 54.0977 13.3958 54.0977 15.2969C54.0977 17.1198 53.8242 19.099 53.2773 21.2344C52.3138 24.8802 50.6471 28.2396 48.2773 31.3125C45.3867 35.0625 42.3268 36.9375 39.0977 36.9375C36.3112 36.9375 34.332 35.401 33.1602 32.3281C32.5872 30.8177 32.3008 29.125 32.3008 27.25C32.3008 25.401 32.5872 23.3958 33.1602 21.2344C34.1237 17.5625 35.7773 14.1901 38.1211 11.1172C41.0117 7.34115 44.0846 5.45312 47.3398 5.45312ZM45.9336 15.1406C44.5013 15.1406 43.043 16.3125 41.5586 18.6562C40.3607 20.5052 39.5273 22.3151 39.0586 24.0859C38.8242 25.0234 38.707 25.8698 38.707 26.625C38.707 27.6927 38.9674 28.5651 39.4883 29.2422C40.0872 29.9974 40.9206 30.375 41.9883 30.375C43.4466 30.375 44.7617 29.6068 45.9336 28.0703C46.8711 26.8464 47.5482 25.401 47.9648 23.7344C48.4596 21.7812 48.5638 19.8542 48.2773 17.9531C47.9648 16.0781 47.1836 15.1406 45.9336 15.1406ZM79.6055 6.9375C76.0898 16.2604 73.4727 25.349 71.7539 34.2031L63.0039 35.6875L64.4492 21.3516L60.8164 34.6328L52.4961 36.1562C53.7461 26.3646 54.3581 17.3802 54.332 9.20312L61.7539 7.79688L60.2305 24.9062L65.3086 5.92188L69.293 5.33594L66.5977 29.4375L72.0273 8.10938L79.6055 6.9375ZM79.5664 29.6328C80.4779 29.5026 81.2852 29.6328 81.9883 30.0234C82.8216 30.4401 83.2383 31.0911 83.2383 31.9766C83.2383 33.1745 82.6003 34.2682 81.3242 35.2578C80.3346 36.0391 79.2539 36.5078 78.082 36.6641C77.1445 36.7943 76.3372 36.6901 75.6602 36.3516C74.8529 35.9349 74.4492 35.2839 74.4492 34.3984C74.4492 33.2005 75.0612 32.0938 76.2852 31.0781C77.2747 30.2708 78.3685 29.7891 79.5664 29.6328ZM83.9805 5.33594L92.1445 6.70312C89.9831 10.5833 88.3945 13.6172 87.3789 15.8047C85.9987 18.7995 84.7747 22.0417 83.707 25.5312L78.2773 25.2969L83.9805 5.33594Z"/>
</mask>
<path d="M37.2227 6.9375C33.707 16.2604 31.0898 25.349 29.3711 34.2031L20.6211 35.6875L22.0664 21.3516L18.4336 34.6328L10.1133 36.1562C11.3633 26.3646 11.9753 17.3802 11.9492 9.20312L19.3711 7.79688L17.8477 24.9062L22.9258 5.92188L26.9102 5.33594L24.2148 29.4375L29.6445 8.10938L37.2227 6.9375ZM47.3398 5.45312C50.1003 5.45312 52.0534 6.98958 53.1992 10.0625C53.7982 11.651 54.0977 13.3958 54.0977 15.2969C54.0977 17.1198 53.8242 19.099 53.2773 21.2344C52.3138 24.8802 50.6471 28.2396 48.2773 31.3125C45.3867 35.0625 42.3268 36.9375 39.0977 36.9375C36.3112 36.9375 34.332 35.401 33.1602 32.3281C32.5872 30.8177 32.3008 29.125 32.3008 27.25C32.3008 25.401 32.5872 23.3958 33.1602 21.2344C34.1237 17.5625 35.7773 14.1901 38.1211 11.1172C41.0117 7.34115 44.0846 5.45312 47.3398 5.45312ZM45.9336 15.1406C44.5013 15.1406 43.043 16.3125 41.5586 18.6562C40.3607 20.5052 39.5273 22.3151 39.0586 24.0859C38.8242 25.0234 38.707 25.8698 38.707 26.625C38.707 27.6927 38.9674 28.5651 39.4883 29.2422C40.0872 29.9974 40.9206 30.375 41.9883 30.375C43.4466 30.375 44.7617 29.6068 45.9336 28.0703C46.8711 26.8464 47.5482 25.401 47.9648 23.7344C48.4596 21.7812 48.5638 19.8542 48.2773 17.9531C47.9648 16.0781 47.1836 15.1406 45.9336 15.1406ZM79.6055 6.9375C76.0898 16.2604 73.4727 25.349 71.7539 34.2031L63.0039 35.6875L64.4492 21.3516L60.8164 34.6328L52.4961 36.1562C53.7461 26.3646 54.3581 17.3802 54.332 9.20312L61.7539 7.79688L60.2305 24.9062L65.3086 5.92188L69.293 5.33594L66.5977 29.4375L72.0273 8.10938L79.6055 6.9375ZM79.5664 29.6328C80.4779 29.5026 81.2852 29.6328 81.9883 30.0234C82.8216 30.4401 83.2383 31.0911 83.2383 31.9766C83.2383 33.1745 82.6003 34.2682 81.3242 35.2578C80.3346 36.0391 79.2539 36.5078 78.082 36.6641C77.1445 36.7943 76.3372 36.6901 75.6602 36.3516C74.8529 35.9349 74.4492 35.2839 74.4492 34.3984C74.4492 33.2005 75.0612 32.0938 76.2852 31.0781C77.2747 30.2708 78.3685 29.7891 79.5664 29.6328ZM83.9805 5.33594L92.1445 6.70312C89.9831 10.5833 88.3945 13.6172 87.3789 15.8047C85.9987 18.7995 84.7747 22.0417 83.707 25.5312L78.2773 25.2969L83.9805 5.33594Z" fill="#FAD557"/>
<path d="M37.2227 6.9375L39.094 7.64318L40.3029 4.4374L36.917 4.96099L37.2227 6.9375ZM29.3711 34.2031L29.7056 36.175L31.0706 35.9434L31.3344 34.5842L29.3711 34.2031ZM20.6211 35.6875L18.6312 35.4869L18.3679 38.0983L20.9556 37.6593L20.6211 35.6875ZM22.0664 21.3516L24.0563 21.5522L20.1373 20.8239L22.0664 21.3516ZM18.4336 34.6328L18.7938 36.6001L20.0309 36.3736L20.3627 35.1605L18.4336 34.6328ZM10.1133 36.1562L8.12938 35.903L7.78302 38.6162L10.4735 38.1235L10.1133 36.1562ZM11.9492 9.20312L11.5769 7.23809L9.94394 7.54749L9.94923 9.20949L11.9492 9.20312ZM19.3711 7.79688L21.3632 7.97426L21.5978 5.33938L18.9988 5.83184L19.3711 7.79688ZM17.8477 24.9062L15.8555 24.7289L19.7797 25.4231L17.8477 24.9062ZM22.9258 5.92188L22.6348 3.94316L21.3336 4.13451L20.9937 5.40507L22.9258 5.92188ZM26.9102 5.33594L28.8978 5.55821L29.1861 2.97973L26.6192 3.35722L26.9102 5.33594ZM24.2148 29.4375L22.2272 29.2152L26.153 29.9309L24.2148 29.4375ZM29.6445 8.10938L29.3389 6.13287L28.0325 6.33489L27.7064 7.61596L29.6445 8.10938ZM35.3513 6.23182C31.8 15.6493 29.1501 24.8465 27.4077 33.822L31.3344 34.5842C33.0296 25.8514 35.6141 16.8715 39.094 7.64318L35.3513 6.23182ZM29.0366 32.2313L20.2866 33.7157L20.9556 37.6593L29.7056 36.175L29.0366 32.2313ZM22.611 35.8881L24.0563 21.5522L20.0765 21.1509L18.6312 35.4869L22.611 35.8881ZM20.1373 20.8239L16.5045 34.1051L20.3627 35.1605L23.9955 21.8792L20.1373 20.8239ZM18.0734 32.6655L9.75307 34.189L10.4735 38.1235L18.7938 36.6001L18.0734 32.6655ZM12.0972 36.4095C13.356 26.5487 13.9756 17.4762 13.9492 9.19676L9.94923 9.20949C9.97494 17.2842 9.37056 26.1804 8.12938 35.903L12.0972 36.4095ZM12.3215 11.1682L19.7434 9.76191L18.9988 5.83184L11.5769 7.23809L12.3215 11.1682ZM17.379 7.61949L15.8555 24.7289L19.8398 25.0836L21.3632 7.97426L17.379 7.61949ZM19.7797 25.4231L24.8579 6.43868L20.9937 5.40507L15.9156 24.3894L19.7797 25.4231ZM23.2168 7.90059L27.2011 7.31466L26.6192 3.35722L22.6348 3.94316L23.2168 7.90059ZM24.9225 5.11366L22.2272 29.2152L26.2025 29.6598L28.8978 5.55821L24.9225 5.11366ZM26.153 29.9309L31.5827 8.60279L27.7064 7.61596L22.2767 28.9441L26.153 29.9309ZM29.9502 10.0859L37.5283 8.91401L36.917 4.96099L29.3389 6.13287L29.9502 10.0859ZM53.1992 10.0625L51.3252 10.7613L51.3278 10.7681L53.1992 10.0625ZM53.2773 21.2344L55.211 21.7454L55.2129 21.738L55.2148 21.7306L53.2773 21.2344ZM48.2773 31.3125L46.6936 30.0911L46.6933 30.0915L48.2773 31.3125ZM33.1602 32.3281L31.2902 33.0374L31.2914 33.0408L33.1602 32.3281ZM33.1602 21.2344L35.0934 21.7468L35.0947 21.742L33.1602 21.2344ZM38.1211 11.1172L36.533 9.90147L36.5308 9.90429L38.1211 11.1172ZM41.5586 18.6562L43.2371 19.7437L43.2427 19.7351L43.2482 19.7264L41.5586 18.6562ZM39.0586 24.0859L37.1252 23.5742L37.1217 23.5875L37.1183 23.6009L39.0586 24.0859ZM39.4883 29.2422L37.903 30.4616L37.9121 30.4734L37.9213 30.485L39.4883 29.2422ZM45.9336 28.0703L44.3458 26.8542L44.3433 26.8574L45.9336 28.0703ZM47.9648 23.7344L46.0261 23.2432L46.0246 23.2493L47.9648 23.7344ZM48.2773 17.9531L50.255 17.6551L50.2527 17.6397L50.2501 17.6243L48.2773 17.9531ZM47.3398 7.45312C48.3241 7.45312 49.0536 7.71734 49.6384 8.17738C50.248 8.65694 50.8406 9.4616 51.3253 10.7613L55.0732 9.36374C54.412 7.59048 53.4551 6.09046 52.1116 5.03356C50.7432 3.95714 49.116 3.45312 47.3398 3.45312V7.45312ZM51.3278 10.7681C51.8322 12.1057 52.0977 13.6082 52.0977 15.2969H56.0977C56.0977 13.1835 55.7642 11.1963 55.0706 9.35689L51.3278 10.7681ZM52.0977 15.2969C52.0977 16.9219 51.8536 18.7324 51.3399 20.7382L55.2148 21.7306C55.7949 19.4656 56.0977 17.3177 56.0977 15.2969H52.0977ZM51.3437 20.7233C50.4503 24.1039 48.9054 27.223 46.6936 30.0911L49.8611 32.5339C52.3888 29.2561 54.1773 25.6565 55.211 21.7454L51.3437 20.7233ZM46.6933 30.0915C43.9976 33.5887 41.4574 34.9375 39.0977 34.9375V38.9375C43.1962 38.9375 46.7759 36.5363 49.8614 32.5335L46.6933 30.0915ZM39.0977 34.9375C38.0959 34.9375 37.3492 34.6706 36.7499 34.2053C36.127 33.7218 35.5241 32.914 35.0289 31.6155L31.2914 33.0408C31.9681 34.8151 32.9407 36.3121 34.297 37.365C35.6768 38.4362 37.3129 38.9375 39.0977 38.9375V34.9375ZM35.0302 31.6188C34.5558 30.3683 34.3008 28.921 34.3008 27.25H30.3008C30.3008 29.329 30.6187 31.2671 31.2902 33.0374L35.0302 31.6188ZM34.3008 27.25C34.3008 25.6056 34.5559 23.7747 35.0934 21.7468L31.2269 20.7219C30.6186 23.017 30.3008 25.1964 30.3008 27.25H34.3008ZM35.0947 21.742C35.9899 18.3303 37.5248 15.1968 39.7113 12.3301L36.5308 9.90429C34.0299 13.1834 32.2575 16.7947 31.2257 20.7267L35.0947 21.742ZM39.7092 12.3329C42.4034 8.8134 44.9555 7.45312 47.3398 7.45312V3.45312C43.2137 3.45312 39.62 5.86889 36.533 9.90147L39.7092 12.3329ZM45.9336 13.1406C43.3729 13.1406 41.3938 15.1785 39.869 17.5861L43.2482 19.7264C44.6921 17.4465 45.6297 17.1406 45.9336 17.1406V13.1406ZM39.8801 17.5688C38.5899 19.5602 37.6576 21.5626 37.1252 23.5742L40.992 24.5977C41.397 23.0676 42.1315 21.4502 43.2371 19.7437L39.8801 17.5688ZM37.1183 23.6009C36.8547 24.6552 36.707 25.6682 36.707 26.625H40.707C40.707 26.0714 40.7937 25.3916 40.9989 24.571L37.1183 23.6009ZM36.707 26.625C36.707 28.0216 37.052 29.3553 37.903 30.4616L41.0735 28.0228C40.8829 27.7749 40.707 27.3639 40.707 26.625H36.707ZM37.9213 30.485C38.9439 31.7744 40.385 32.375 41.9883 32.375V28.375C41.4561 28.375 41.2306 28.2204 41.0553 27.9994L37.9213 30.485ZM41.9883 32.375C44.2615 32.375 46.1069 31.141 47.5238 29.2832L44.3433 26.8574C43.4165 28.0726 42.6317 28.375 41.9883 28.375V32.375ZM47.5214 29.2865C48.6431 27.8219 49.4298 26.1209 49.9051 24.2194L46.0246 23.2493C45.6666 24.6811 45.099 25.8708 44.3458 26.8542L47.5214 29.2865ZM49.9036 24.2255C50.4605 22.0272 50.583 19.8317 50.255 17.6551L46.2997 18.2511C46.5446 19.8766 46.4588 21.5353 46.0261 23.2432L49.9036 24.2255ZM50.2501 17.6243C50.0652 16.5149 49.7045 15.4166 48.9935 14.5634C48.2123 13.626 47.1355 13.1406 45.9336 13.1406V17.1406C45.9909 17.1406 45.9833 17.15 45.9451 17.1323C45.9055 17.1141 45.8979 17.0968 45.9206 17.1241C45.9908 17.2084 46.177 17.5164 46.3046 18.2819L50.2501 17.6243ZM79.6055 6.9375L81.4768 7.64318L82.6857 4.4374L79.2998 4.96099L79.6055 6.9375ZM71.7539 34.2031L72.0884 36.175L73.4534 35.9434L73.7173 34.5842L71.7539 34.2031ZM63.0039 35.6875L61.014 35.4869L60.7507 38.0983L63.3384 37.6593L63.0039 35.6875ZM64.4492 21.3516L66.4391 21.5522L62.5201 20.8239L64.4492 21.3516ZM60.8164 34.6328L61.1766 36.6001L62.4137 36.3736L62.7455 35.1605L60.8164 34.6328ZM52.4961 36.1562L50.5122 35.903L50.1658 38.6162L52.8563 38.1235L52.4961 36.1562ZM54.332 9.20312L53.9597 7.23809L52.3267 7.54749L52.332 9.20949L54.332 9.20312ZM61.7539 7.79688L63.746 7.97426L63.9806 5.33938L61.3816 5.83184L61.7539 7.79688ZM60.2305 24.9062L58.2384 24.7289L62.1625 25.4231L60.2305 24.9062ZM65.3086 5.92188L65.0176 3.94316L63.7164 4.13451L63.3765 5.40507L65.3086 5.92188ZM69.293 5.33594L71.2806 5.55821L71.5689 2.97973L69.002 3.35722L69.293 5.33594ZM66.5977 29.4375L64.61 29.2152L68.5358 29.9309L66.5977 29.4375ZM72.0273 8.10938L71.7217 6.13287L70.4153 6.33489L70.0892 7.61596L72.0273 8.10938ZM77.7341 6.23182C74.1828 15.6493 71.5329 24.8465 69.7906 33.822L73.7173 34.5842C75.4124 25.8514 77.9969 16.8715 81.4768 7.64318L77.7341 6.23182ZM71.4194 32.2313L62.6694 33.7157L63.3384 37.6593L72.0884 36.175L71.4194 32.2313ZM64.9938 35.8881L66.4391 21.5522L62.4593 21.1509L61.014 35.4869L64.9938 35.8881ZM62.5201 20.8239L58.8873 34.1051L62.7455 35.1605L66.3784 21.8792L62.5201 20.8239ZM60.4562 32.6655L52.1359 34.189L52.8563 38.1235L61.1766 36.6001L60.4562 32.6655ZM54.48 36.4095C55.7388 26.5487 56.3584 17.4762 56.332 9.19676L52.332 9.20949C52.3578 17.2842 51.7534 26.1804 50.5122 35.903L54.48 36.4095ZM54.7044 11.1682L62.1262 9.76191L61.3816 5.83184L53.9597 7.23809L54.7044 11.1682ZM59.7618 7.61949L58.2384 24.7289L62.2226 25.0836L63.746 7.97426L59.7618 7.61949ZM62.1625 25.4231L67.2407 6.43868L63.3765 5.40507L58.2984 24.3894L62.1625 25.4231ZM65.5996 7.90059L69.584 7.31466L69.002 3.35722L65.0176 3.94316L65.5996 7.90059ZM67.3054 5.11366L64.61 29.2152L68.5853 29.6598L71.2806 5.55821L67.3054 5.11366ZM68.5358 29.9309L73.9655 8.60279L70.0892 7.61596L64.6595 28.9441L68.5358 29.9309ZM72.333 10.0859L79.9111 8.91401L79.2998 4.96099L71.7217 6.13287L72.333 10.0859ZM79.5664 29.6328L79.8251 31.616L79.8372 31.6144L79.8492 31.6127L79.5664 29.6328ZM81.9883 30.0234L81.017 31.7718L81.055 31.7929L81.0939 31.8123L81.9883 30.0234ZM81.3242 35.2578L80.0986 33.6774L80.0917 33.6827L80.0849 33.688L81.3242 35.2578ZM78.082 36.6641L77.8177 34.6816L77.8069 34.6831L78.082 36.6641ZM75.6602 36.3516L74.7429 38.1288L74.7543 38.1347L74.7657 38.1404L75.6602 36.3516ZM76.2852 31.0781L75.0209 29.5284L75.0144 29.5337L75.008 29.539L76.2852 31.0781ZM83.9805 5.33594L84.3108 3.36341L82.5483 3.06826L82.0574 4.7865L83.9805 5.33594ZM92.1445 6.70312L93.8917 7.6764L95.2718 5.19898L92.4749 4.73059L92.1445 6.70312ZM87.3789 15.8047L85.5649 14.9625L85.5625 14.9676L87.3789 15.8047ZM83.707 25.5312L83.6208 27.5294L85.1668 27.5961L85.6195 26.1164L83.707 25.5312ZM78.2773 25.2969L76.3543 24.7474L75.6577 27.1857L78.1911 27.295L78.2773 25.2969ZM79.8492 31.6127C80.3939 31.5349 80.7494 31.6231 81.017 31.7718L82.9596 28.2751C81.821 27.6426 80.5618 27.4703 79.2836 27.6529L79.8492 31.6127ZM81.0939 31.8123C81.1759 31.8533 81.2185 31.8856 81.2362 31.9006C81.2523 31.9144 81.2496 31.9155 81.2412 31.9023C81.2325 31.8887 81.2294 31.8782 81.2299 31.8799C81.2308 31.8834 81.2383 31.9124 81.2383 31.9766H85.2383C85.2383 31.2087 85.0533 30.4383 84.6103 29.7461C84.1711 29.0598 83.5556 28.571 82.8827 28.2346L81.0939 31.8123ZM81.2383 31.9766C81.2383 32.3571 81.0687 32.9251 80.0986 33.6774L82.5499 36.8383C84.1319 35.6114 85.2383 33.9918 85.2383 31.9766H81.2383ZM80.0849 33.688C79.3579 34.262 78.6096 34.576 77.8177 34.6816L78.3464 38.6465C79.8982 38.4396 81.3114 37.8161 82.5635 36.8276L80.0849 33.688ZM77.8069 34.6831C77.169 34.7717 76.7888 34.6798 76.5546 34.5627L74.7657 38.1404C75.8856 38.7004 77.12 38.8169 78.3572 38.645L77.8069 34.6831ZM76.5774 34.5743C76.5037 34.5363 76.4669 34.5072 76.4531 34.495C76.4407 34.484 76.4441 34.4845 76.4518 34.4969C76.4596 34.5095 76.461 34.517 76.4593 34.5104C76.457 34.5019 76.4492 34.4676 76.4492 34.3984H72.4492C72.4492 35.1544 72.6251 35.9159 73.0521 36.6047C73.4774 37.2906 74.078 37.7857 74.7429 38.1288L76.5774 34.5743ZM76.4492 34.3984C76.4492 33.9762 76.6362 33.3857 77.5623 32.6172L75.008 29.539C73.4862 30.8018 72.4492 32.4248 72.4492 34.3984H76.4492ZM77.5494 32.6279C78.2679 32.0417 79.0176 31.7213 79.8251 31.616L79.3077 27.6496C77.7194 27.8568 76.2816 28.4999 75.0209 29.5284L77.5494 32.6279ZM83.6501 7.30847L91.8142 8.67566L92.4749 4.73059L84.3108 3.36341L83.6501 7.30847ZM90.3973 5.72985C88.2282 9.62374 86.6116 12.708 85.5649 14.9625L89.1929 16.6469C90.1775 14.5264 91.7379 11.5429 93.8917 7.6764L90.3973 5.72985ZM85.5625 14.9676C84.1409 18.0522 82.8858 21.3794 81.7945 24.9461L85.6195 26.1164C86.6636 22.7039 87.8565 19.5468 89.1953 16.6418L85.5625 14.9676ZM83.7933 23.5331L78.3636 23.2987L78.1911 27.295L83.6208 27.5294L83.7933 23.5331ZM80.2004 25.8463L85.9035 5.88538L82.0574 4.7865L76.3543 24.7474L80.2004 25.8463Z" fill="#F7931E" mask="url(#path-1-outside-1_2877_7714)"/>
</svg>
