<svg width="152" height="43" viewBox="0 0 152 43" fill="none" xmlns="http://www.w3.org/2000/svg">
<mask id="path-1-outside-1_2878_7729" maskUnits="userSpaceOnUse" x="7" y="2" width="143" height="39" fill="black">
<rect fill="white" x="7" y="2" width="143" height="39"/>
<path d="M23.2422 7.83594L29.5312 8.92969C23.9062 18.7995 19.4531 27.7318 16.1719 35.7266L10.1562 35.3359L14.2969 26.625L11.0156 10.9219L18.6328 7.40625C18.5547 8.60417 18.5026 10.1016 18.4766 11.8984C18.4505 13.6953 18.5417 15.4922 18.75 17.2891L23.2422 7.83594ZM38.9844 5.45312C41.7448 5.45312 43.6979 6.98958 44.8438 10.0625C45.4427 11.651 45.7422 13.3958 45.7422 15.2969C45.7422 17.1198 45.4688 19.099 44.9219 21.2344C43.9583 24.8802 42.2917 28.2396 39.9219 31.3125C37.0312 35.0625 33.9714 36.9375 30.7422 36.9375C27.9557 36.9375 25.9766 35.401 24.8047 32.3281C24.2318 30.8177 23.9453 29.125 23.9453 27.25C23.9453 25.401 24.2318 23.3958 24.8047 21.2344C25.7682 17.5625 27.4219 14.1901 29.7656 11.1172C32.6562 7.34115 35.7292 5.45312 38.9844 5.45312ZM37.5781 15.1406C36.1458 15.1406 34.6875 16.3125 33.2031 18.6562C32.0052 20.5052 31.1719 22.3151 30.7031 24.0859C30.4688 25.0234 30.3516 25.8698 30.3516 26.625C30.3516 27.6927 30.612 28.5651 31.1328 29.2422C31.7318 29.9974 32.5651 30.375 33.6328 30.375C35.0911 30.375 36.4062 29.6068 37.5781 28.0703C38.5156 26.8464 39.1927 25.401 39.6094 23.7344C40.1042 21.7812 40.2083 19.8542 39.9219 17.9531C39.6094 16.0781 38.8281 15.1406 37.5781 15.1406ZM47.8906 8.42188L54.5703 7.17188C52.7734 13.9948 51.4453 20.1146 50.5859 25.5312L54.2969 23.9688L57.0312 8.42188L63.7109 7.17188C61.0026 17.849 59.2448 26.8984 58.4375 34.3203L52.1875 36.0391L52.9688 31.7031C50.7812 32.6667 47.474 34.112 43.0469 36.0391L47.8906 8.42188ZM95.9766 6.9375C92.4609 16.2604 89.8438 25.349 88.125 34.2031L79.375 35.6875L80.8203 21.3516L77.1875 34.6328L68.8672 36.1562C70.1172 26.3646 70.7292 17.3802 70.7031 9.20312L78.125 7.79688L76.6016 24.9062L81.6797 5.92188L85.6641 5.33594L82.9688 29.4375L88.3984 8.10938L95.9766 6.9375ZM106.094 5.45312C108.854 5.45312 110.807 6.98958 111.953 10.0625C112.552 11.651 112.852 13.3958 112.852 15.2969C112.852 17.1198 112.578 19.099 112.031 21.2344C111.068 24.8802 109.401 28.2396 107.031 31.3125C104.141 35.0625 101.081 36.9375 97.8516 36.9375C95.0651 36.9375 93.0859 35.401 91.9141 32.3281C91.3411 30.8177 91.0547 29.125 91.0547 27.25C91.0547 25.401 91.3411 23.3958 91.9141 21.2344C92.8776 17.5625 94.5312 14.1901 96.875 11.1172C99.7656 7.34115 102.839 5.45312 106.094 5.45312ZM104.688 15.1406C103.255 15.1406 101.797 16.3125 100.312 18.6562C99.1146 20.5052 98.2812 22.3151 97.8125 24.0859C97.5781 25.0234 97.4609 25.8698 97.4609 26.625C97.4609 27.6927 97.7214 28.5651 98.2422 29.2422C98.8411 29.9974 99.6745 30.375 100.742 30.375C102.201 30.375 103.516 29.6068 104.688 28.0703C105.625 26.8464 106.302 25.401 106.719 23.7344C107.214 21.7812 107.318 19.8542 107.031 17.9531C106.719 16.0781 105.938 15.1406 104.688 15.1406ZM115.156 8.53906L121.914 7.17188C121.862 7.97917 121.836 9.125 121.836 10.6094C121.836 14.151 121.953 17.263 122.188 19.9453C122.318 21.4818 122.513 22.7188 122.773 23.6562L125.43 8.42188L132.148 7.17188C129.44 17.6146 127.669 26.6641 126.836 34.3203L120.664 36.0391C120.638 35.987 120.469 35.5312 120.156 34.6719L118.125 28.8906C117.786 27.9531 117.591 27.3542 117.539 27.0938C116.992 30.1667 116.562 33.1484 116.25 36.0391L110 37.9141L115.156 8.53906ZM133.477 29.6328C134.388 29.5026 135.195 29.6328 135.898 30.0234C136.732 30.4401 137.148 31.0911 137.148 31.9766C137.148 33.1745 136.51 34.2682 135.234 35.2578C134.245 36.0391 133.164 36.5078 131.992 36.6641C131.055 36.7943 130.247 36.6901 129.57 36.3516C128.763 35.9349 128.359 35.2839 128.359 34.3984C128.359 33.2005 128.971 32.0938 130.195 31.0781C131.185 30.2708 132.279 29.7891 133.477 29.6328ZM137.891 5.33594L146.055 6.70312C143.893 10.5833 142.305 13.6172 141.289 15.8047C139.909 18.7995 138.685 22.0417 137.617 25.5312L132.188 25.2969L137.891 5.33594Z"/>
</mask>
<path d="M23.2422 7.83594L29.5312 8.92969C23.9062 18.7995 19.4531 27.7318 16.1719 35.7266L10.1562 35.3359L14.2969 26.625L11.0156 10.9219L18.6328 7.40625C18.5547 8.60417 18.5026 10.1016 18.4766 11.8984C18.4505 13.6953 18.5417 15.4922 18.75 17.2891L23.2422 7.83594ZM38.9844 5.45312C41.7448 5.45312 43.6979 6.98958 44.8438 10.0625C45.4427 11.651 45.7422 13.3958 45.7422 15.2969C45.7422 17.1198 45.4688 19.099 44.9219 21.2344C43.9583 24.8802 42.2917 28.2396 39.9219 31.3125C37.0312 35.0625 33.9714 36.9375 30.7422 36.9375C27.9557 36.9375 25.9766 35.401 24.8047 32.3281C24.2318 30.8177 23.9453 29.125 23.9453 27.25C23.9453 25.401 24.2318 23.3958 24.8047 21.2344C25.7682 17.5625 27.4219 14.1901 29.7656 11.1172C32.6562 7.34115 35.7292 5.45312 38.9844 5.45312ZM37.5781 15.1406C36.1458 15.1406 34.6875 16.3125 33.2031 18.6562C32.0052 20.5052 31.1719 22.3151 30.7031 24.0859C30.4688 25.0234 30.3516 25.8698 30.3516 26.625C30.3516 27.6927 30.612 28.5651 31.1328 29.2422C31.7318 29.9974 32.5651 30.375 33.6328 30.375C35.0911 30.375 36.4062 29.6068 37.5781 28.0703C38.5156 26.8464 39.1927 25.401 39.6094 23.7344C40.1042 21.7812 40.2083 19.8542 39.9219 17.9531C39.6094 16.0781 38.8281 15.1406 37.5781 15.1406ZM47.8906 8.42188L54.5703 7.17188C52.7734 13.9948 51.4453 20.1146 50.5859 25.5312L54.2969 23.9688L57.0312 8.42188L63.7109 7.17188C61.0026 17.849 59.2448 26.8984 58.4375 34.3203L52.1875 36.0391L52.9688 31.7031C50.7812 32.6667 47.474 34.112 43.0469 36.0391L47.8906 8.42188ZM95.9766 6.9375C92.4609 16.2604 89.8438 25.349 88.125 34.2031L79.375 35.6875L80.8203 21.3516L77.1875 34.6328L68.8672 36.1562C70.1172 26.3646 70.7292 17.3802 70.7031 9.20312L78.125 7.79688L76.6016 24.9062L81.6797 5.92188L85.6641 5.33594L82.9688 29.4375L88.3984 8.10938L95.9766 6.9375ZM106.094 5.45312C108.854 5.45312 110.807 6.98958 111.953 10.0625C112.552 11.651 112.852 13.3958 112.852 15.2969C112.852 17.1198 112.578 19.099 112.031 21.2344C111.068 24.8802 109.401 28.2396 107.031 31.3125C104.141 35.0625 101.081 36.9375 97.8516 36.9375C95.0651 36.9375 93.0859 35.401 91.9141 32.3281C91.3411 30.8177 91.0547 29.125 91.0547 27.25C91.0547 25.401 91.3411 23.3958 91.9141 21.2344C92.8776 17.5625 94.5312 14.1901 96.875 11.1172C99.7656 7.34115 102.839 5.45312 106.094 5.45312ZM104.688 15.1406C103.255 15.1406 101.797 16.3125 100.312 18.6562C99.1146 20.5052 98.2812 22.3151 97.8125 24.0859C97.5781 25.0234 97.4609 25.8698 97.4609 26.625C97.4609 27.6927 97.7214 28.5651 98.2422 29.2422C98.8411 29.9974 99.6745 30.375 100.742 30.375C102.201 30.375 103.516 29.6068 104.688 28.0703C105.625 26.8464 106.302 25.401 106.719 23.7344C107.214 21.7812 107.318 19.8542 107.031 17.9531C106.719 16.0781 105.938 15.1406 104.688 15.1406ZM115.156 8.53906L121.914 7.17188C121.862 7.97917 121.836 9.125 121.836 10.6094C121.836 14.151 121.953 17.263 122.188 19.9453C122.318 21.4818 122.513 22.7188 122.773 23.6562L125.43 8.42188L132.148 7.17188C129.44 17.6146 127.669 26.6641 126.836 34.3203L120.664 36.0391C120.638 35.987 120.469 35.5312 120.156 34.6719L118.125 28.8906C117.786 27.9531 117.591 27.3542 117.539 27.0938C116.992 30.1667 116.562 33.1484 116.25 36.0391L110 37.9141L115.156 8.53906ZM133.477 29.6328C134.388 29.5026 135.195 29.6328 135.898 30.0234C136.732 30.4401 137.148 31.0911 137.148 31.9766C137.148 33.1745 136.51 34.2682 135.234 35.2578C134.245 36.0391 133.164 36.5078 131.992 36.6641C131.055 36.7943 130.247 36.6901 129.57 36.3516C128.763 35.9349 128.359 35.2839 128.359 34.3984C128.359 33.2005 128.971 32.0938 130.195 31.0781C131.185 30.2708 132.279 29.7891 133.477 29.6328ZM137.891 5.33594L146.055 6.70312C143.893 10.5833 142.305 13.6172 141.289 15.8047C139.909 18.7995 138.685 22.0417 137.617 25.5312L132.188 25.2969L137.891 5.33594Z" fill="#FAD557"/>
<path d="M23.2422 7.83594L23.5849 5.86551L22.0879 5.60518L21.4358 6.97752L23.2422 7.83594ZM29.5312 8.92969L31.2689 9.91999L32.6783 7.44698L29.8739 6.95926L29.5312 8.92969ZM16.1719 35.7266L16.0423 37.7224L17.4764 37.8155L18.0221 36.4859L16.1719 35.7266ZM10.1562 35.3359L8.34993 34.4773L7.08396 37.1407L10.0267 37.3317L10.1562 35.3359ZM14.2969 26.625L16.1032 27.4836L16.3924 26.8753L16.2546 26.2159L14.2969 26.625ZM11.0156 10.9219L10.1775 9.10596L8.73236 9.77295L9.05791 11.331L11.0156 10.9219ZM18.6328 7.40625L20.6286 7.53641L20.8474 4.1814L17.7947 5.59033L18.6328 7.40625ZM18.75 17.2891L16.7633 17.5194L17.5658 24.4408L20.5564 18.1475L18.75 17.2891ZM22.8995 9.80636L29.1886 10.9001L29.8739 6.95926L23.5849 5.86551L22.8995 9.80636ZM27.7936 7.93939C22.1385 17.862 17.6437 26.8729 14.3216 34.9672L18.0221 36.4859C21.2625 28.5906 25.674 19.737 31.2689 9.91999L27.7936 7.93939ZM16.3015 33.7308L10.2858 33.3401L10.0267 37.3317L16.0423 37.7224L16.3015 33.7308ZM11.9626 36.1945L16.1032 27.4836L12.4906 25.7664L8.34993 34.4773L11.9626 36.1945ZM16.2546 26.2159L12.9733 10.5128L9.05791 11.331L12.3392 27.0341L16.2546 26.2159ZM11.8537 12.7378L19.4709 9.22217L17.7947 5.59033L10.1775 9.10596L11.8537 12.7378ZM16.6371 7.27609C16.5559 8.51977 16.5031 10.0536 16.4768 11.8695L20.4764 11.9274C20.5021 10.1495 20.5534 8.68856 20.6286 7.53641L16.6371 7.27609ZM16.4768 11.8695C16.4495 13.7535 16.5451 15.637 16.7633 17.5194L20.7367 17.0587C20.5383 15.3473 20.4516 13.6371 20.4764 11.9274L16.4768 11.8695ZM20.5564 18.1475L25.0486 8.69436L21.4358 6.97752L16.9436 16.4306L20.5564 18.1475ZM44.8438 10.0625L42.9698 10.7613L42.9724 10.7681L44.8438 10.0625ZM44.9219 21.2344L46.8555 21.7454L46.8574 21.738L46.8593 21.7306L44.9219 21.2344ZM39.9219 31.3125L38.3381 30.0911L38.3379 30.0915L39.9219 31.3125ZM24.8047 32.3281L22.9347 33.0374L22.936 33.0408L24.8047 32.3281ZM24.8047 21.2344L26.7379 21.7468L26.7392 21.742L24.8047 21.2344ZM29.7656 11.1172L28.1775 9.90147L28.1754 9.90429L29.7656 11.1172ZM33.2031 18.6562L34.8816 19.7437L34.8872 19.7351L34.8928 19.7264L33.2031 18.6562ZM30.7031 24.0859L28.7697 23.5742L28.7662 23.5875L28.7628 23.6009L30.7031 24.0859ZM31.1328 29.2422L29.5476 30.4616L29.5566 30.4734L29.5658 30.485L31.1328 29.2422ZM37.5781 28.0703L35.9904 26.8542L35.9879 26.8574L37.5781 28.0703ZM39.6094 23.7344L37.6706 23.2432L37.6691 23.2493L39.6094 23.7344ZM39.9219 17.9531L41.8995 17.6551L41.8972 17.6397L41.8947 17.6243L39.9219 17.9531ZM38.9844 7.45312C39.9687 7.45312 40.6982 7.71734 41.283 8.17738C41.8926 8.65694 42.4852 9.4616 42.9698 10.7613L46.7177 9.36374C46.0565 7.59048 45.0996 6.09046 43.7561 5.03356C42.3878 3.95714 40.7605 3.45312 38.9844 3.45312V7.45312ZM42.9724 10.7681C43.4767 12.1057 43.7422 13.6082 43.7422 15.2969H47.7422C47.7422 13.1835 47.4087 11.1963 46.7151 9.35689L42.9724 10.7681ZM43.7422 15.2969C43.7422 16.9219 43.4981 18.7324 42.9844 20.7382L46.8593 21.7306C47.4394 19.4656 47.7422 17.3177 47.7422 15.2969H43.7422ZM42.9883 20.7233C42.0948 24.1039 40.55 27.223 38.3381 30.0911L41.5056 32.5339C44.0334 29.2561 45.8218 25.6565 46.8555 21.7454L42.9883 20.7233ZM38.3379 30.0915C35.6421 33.5887 33.102 34.9375 30.7422 34.9375V38.9375C34.8407 38.9375 38.4204 36.5363 41.5059 32.5335L38.3379 30.0915ZM30.7422 34.9375C29.7405 34.9375 28.9938 34.6706 28.3944 34.2053C27.7715 33.7218 27.1686 32.914 26.6734 31.6155L22.936 33.0408C23.6126 34.8151 24.5852 36.3121 25.9415 37.365C27.3213 38.4362 28.9574 38.9375 30.7422 38.9375V34.9375ZM26.6747 31.6188C26.2003 30.3683 25.9453 28.921 25.9453 27.25H21.9453C21.9453 29.329 22.2632 31.2671 22.9347 33.0374L26.6747 31.6188ZM25.9453 27.25C25.9453 25.6056 26.2004 23.7747 26.7379 21.7468L22.8714 20.7219C22.2631 23.017 21.9453 25.1964 21.9453 27.25H25.9453ZM26.7392 21.742C27.6345 18.3303 29.1694 15.1968 31.3559 12.3301L28.1754 9.90429C25.6744 13.1834 23.902 16.7947 22.8702 20.7267L26.7392 21.742ZM31.3537 12.3329C34.048 8.8134 36.6001 7.45312 38.9844 7.45312V3.45312C34.8583 3.45312 31.2645 5.86889 28.1775 9.90147L31.3537 12.3329ZM37.5781 13.1406C35.0175 13.1406 33.0383 15.1785 31.5135 17.5861L34.8928 19.7264C36.3367 17.4465 37.2742 17.1406 37.5781 17.1406V13.1406ZM31.5246 17.5688C30.2344 19.5602 29.3022 21.5626 28.7697 23.5742L32.6365 24.5977C33.0416 23.0676 33.776 21.4502 34.8816 19.7437L31.5246 17.5688ZM28.7628 23.6009C28.4992 24.6552 28.3516 25.6682 28.3516 26.625H32.3516C32.3516 26.0714 32.4383 25.3916 32.6434 24.571L28.7628 23.6009ZM28.3516 26.625C28.3516 28.0216 28.6966 29.3553 29.5476 30.4616L32.7181 28.0228C32.5274 27.7749 32.3516 27.3639 32.3516 26.625H28.3516ZM29.5658 30.485C30.5884 31.7744 32.0296 32.375 33.6328 32.375V28.375C33.1007 28.375 32.8751 28.2204 32.6998 27.9994L29.5658 30.485ZM33.6328 32.375C35.906 32.375 37.7514 31.141 39.1684 29.2832L35.9879 26.8574C35.0611 28.0726 34.2763 28.375 33.6328 28.375V32.375ZM39.1659 29.2865C40.2877 27.8219 41.0743 26.1209 41.5497 24.2194L37.6691 23.2493C37.3111 24.6811 36.7436 25.8708 35.9904 26.8542L39.1659 29.2865ZM41.5481 24.2255C42.105 22.0272 42.2275 19.8317 41.8995 17.6551L37.9442 18.2511C38.1891 19.8766 38.1033 21.5353 37.6706 23.2432L41.5481 24.2255ZM41.8947 17.6243C41.7098 16.5149 41.349 15.4166 40.638 14.5634C39.8569 13.626 38.78 13.1406 37.5781 13.1406V17.1406C37.6354 17.1406 37.6278 17.15 37.5896 17.1323C37.55 17.1141 37.5424 17.0968 37.5651 17.1241C37.6354 17.2084 37.8215 17.5164 37.9491 18.2819L41.8947 17.6243ZM47.8906 8.42188L47.5227 6.456L46.1602 6.71099L45.9207 8.07637L47.8906 8.42188ZM54.5703 7.17188L56.5044 7.68122L57.3094 4.62459L54.2024 5.206L54.5703 7.17188ZM50.5859 25.5312L48.6106 25.2179L48.047 28.7703L51.3621 27.3745L50.5859 25.5312ZM54.2969 23.9688L55.073 25.812L56.0778 25.3889L56.2666 24.3152L54.2969 23.9688ZM57.0312 8.42188L56.6634 6.456L55.3015 6.71086L55.0615 8.07543L57.0312 8.42188ZM63.7109 7.17188L65.6495 7.66362L66.4189 4.6304L63.3431 5.206L63.7109 7.17188ZM58.4375 34.3203L58.9678 36.2487L60.2788 35.8882L60.4258 34.5366L58.4375 34.3203ZM52.1875 36.0391L50.2192 35.6844L49.6561 38.8094L52.7178 37.9675L52.1875 36.0391ZM52.9688 31.7031L54.9371 32.0578L55.6039 28.357L52.1625 29.8728L52.9688 31.7031ZM43.0469 36.0391L41.0769 35.6936L40.4343 39.3576L43.8451 37.8729L43.0469 36.0391ZM48.2585 10.3877L54.9382 9.13775L54.2024 5.206L47.5227 6.456L48.2585 10.3877ZM52.6363 6.66253C50.8269 13.5328 49.4829 19.7197 48.6106 25.2179L52.5612 25.8446C53.4077 20.5095 54.72 14.4568 56.5044 7.68122L52.6363 6.66253ZM51.3621 27.3745L55.073 25.812L53.5208 22.1255L49.8098 23.688L51.3621 27.3745ZM56.2666 24.3152L59.001 8.76832L55.0615 8.07543L52.3271 23.6223L56.2666 24.3152ZM57.3991 10.3877L64.0788 9.13775L63.3431 5.206L56.6634 6.456L57.3991 10.3877ZM61.7723 6.68013C59.0507 17.4095 57.2701 26.5569 56.4492 34.104L60.4258 34.5366C61.2194 27.2399 62.9545 18.2884 65.6495 7.66362L61.7723 6.68013ZM57.9072 32.3919L51.6572 34.1107L52.7178 37.9675L58.9678 36.2487L57.9072 32.3919ZM54.1558 36.3937L54.9371 32.0578L51.0004 31.3485L50.2192 35.6844L54.1558 36.3937ZM52.1625 29.8728C49.9792 30.8345 46.6752 32.2784 42.2486 34.2053L43.8451 37.8729C48.2728 35.9455 51.5833 34.4988 53.775 33.5334L52.1625 29.8728ZM45.0168 36.3846L49.8606 8.76738L45.9207 8.07637L41.0769 35.6936L45.0168 36.3846ZM95.9766 6.9375L97.8479 7.64318L99.0568 4.4374L95.6709 4.96099L95.9766 6.9375ZM88.125 34.2031L88.4595 36.175L89.8245 35.9434L90.0884 34.5842L88.125 34.2031ZM79.375 35.6875L77.3851 35.4869L77.1218 38.0983L79.7095 37.6593L79.375 35.6875ZM80.8203 21.3516L82.8102 21.5522L78.8912 20.8239L80.8203 21.3516ZM77.1875 34.6328L77.5477 36.6001L78.7848 36.3736L79.1166 35.1605L77.1875 34.6328ZM68.8672 36.1562L66.8833 35.903L66.5369 38.6162L69.2274 38.1235L68.8672 36.1562ZM70.7031 9.20312L70.3308 7.23809L68.6978 7.54749L68.7031 9.20949L70.7031 9.20312ZM78.125 7.79688L80.1171 7.97426L80.3517 5.33938L77.7527 5.83184L78.125 7.79688ZM76.6016 24.9062L74.6094 24.7289L78.5336 25.4231L76.6016 24.9062ZM81.6797 5.92188L81.3887 3.94316L80.0875 4.13451L79.7476 5.40507L81.6797 5.92188ZM85.6641 5.33594L87.6517 5.55821L87.94 2.97973L85.3731 3.35722L85.6641 5.33594ZM82.9688 29.4375L80.9811 29.2152L84.9069 29.9309L82.9688 29.4375ZM88.3984 8.10938L88.0928 6.13287L86.7864 6.33489L86.4603 7.61596L88.3984 8.10938ZM94.1052 6.23182C90.5539 15.6493 87.904 24.8465 86.1616 33.822L90.0884 34.5842C91.7835 25.8514 94.368 16.8715 97.8479 7.64318L94.1052 6.23182ZM87.7905 32.2313L79.0405 33.7157L79.7095 37.6593L88.4595 36.175L87.7905 32.2313ZM81.3649 35.8881L82.8102 21.5522L78.8304 21.1509L77.3851 35.4869L81.3649 35.8881ZM78.8912 20.8239L75.2584 34.1051L79.1166 35.1605L82.7494 21.8792L78.8912 20.8239ZM76.8273 32.6655L68.507 34.189L69.2274 38.1235L77.5477 36.6001L76.8273 32.6655ZM70.8511 36.4095C72.1099 26.5487 72.7295 17.4762 72.7031 9.19676L68.7031 9.20949C68.7289 17.2842 68.1245 26.1804 66.8833 35.903L70.8511 36.4095ZM71.0754 11.1682L78.4973 9.76191L77.7527 5.83184L70.3308 7.23809L71.0754 11.1682ZM76.1329 7.61949L74.6094 24.7289L78.5937 25.0836L80.1171 7.97426L76.1329 7.61949ZM78.5336 25.4231L83.6118 6.43868L79.7476 5.40507L74.6695 24.3894L78.5336 25.4231ZM81.9707 7.90059L85.9551 7.31466L85.3731 3.35722L81.3887 3.94316L81.9707 7.90059ZM83.6765 5.11366L80.9811 29.2152L84.9564 29.6598L87.6517 5.55821L83.6765 5.11366ZM84.9069 29.9309L90.3366 8.60279L86.4603 7.61596L81.0306 28.9441L84.9069 29.9309ZM88.7041 10.0859L96.2822 8.91401L95.6709 4.96099L88.0928 6.13287L88.7041 10.0859ZM111.953 10.0625L110.079 10.7613L110.082 10.7681L111.953 10.0625ZM112.031 21.2344L113.965 21.7454L113.967 21.738L113.969 21.7306L112.031 21.2344ZM107.031 31.3125L105.448 30.0911L105.447 30.0915L107.031 31.3125ZM91.9141 32.3281L90.0441 33.0374L90.0453 33.0408L91.9141 32.3281ZM91.9141 21.2344L93.8473 21.7468L93.8486 21.742L91.9141 21.2344ZM96.875 11.1172L95.2869 9.90147L95.2848 9.90429L96.875 11.1172ZM100.312 18.6562L101.991 19.7437L101.997 19.7351L102.002 19.7264L100.312 18.6562ZM97.8125 24.0859L95.8791 23.5742L95.8756 23.5875L95.8722 23.6009L97.8125 24.0859ZM98.2422 29.2422L96.6569 30.4616L96.666 30.4734L96.6752 30.485L98.2422 29.2422ZM104.688 28.0703L103.1 26.8542L103.097 26.8574L104.688 28.0703ZM106.719 23.7344L104.78 23.2432L104.778 23.2493L106.719 23.7344ZM107.031 17.9531L109.009 17.6551L109.007 17.6397L109.004 17.6243L107.031 17.9531ZM106.094 7.45312C107.078 7.45312 107.808 7.71734 108.392 8.17738C109.002 8.65694 109.595 9.4616 110.079 10.7613L113.827 9.36374C113.166 7.59048 112.209 6.09046 110.865 5.03356C109.497 3.95714 107.87 3.45312 106.094 3.45312V7.45312ZM110.082 10.7681C110.586 12.1057 110.852 13.6082 110.852 15.2969H114.852C114.852 13.1835 114.518 11.1963 113.825 9.35689L110.082 10.7681ZM110.852 15.2969C110.852 16.9219 110.607 18.7324 110.094 20.7382L113.969 21.7306C114.549 19.4656 114.852 17.3177 114.852 15.2969H110.852ZM110.098 20.7233C109.204 24.1039 107.659 27.223 105.448 30.0911L108.615 32.5339C111.143 29.2561 112.931 25.6565 113.965 21.7454L110.098 20.7233ZM105.447 30.0915C102.751 33.5887 100.211 34.9375 97.8516 34.9375V38.9375C101.95 38.9375 105.53 36.5363 108.615 32.5335L105.447 30.0915ZM97.8516 34.9375C96.8498 34.9375 96.1031 34.6706 95.5038 34.2053C94.8809 33.7218 94.278 32.914 93.7828 31.6155L90.0453 33.0408C90.722 34.8151 91.6946 36.3121 93.0509 37.365C94.4307 38.4362 96.0668 38.9375 97.8516 38.9375V34.9375ZM93.7841 31.6188C93.3097 30.3683 93.0547 28.921 93.0547 27.25H89.0547C89.0547 29.329 89.3726 31.2671 90.0441 33.0374L93.7841 31.6188ZM93.0547 27.25C93.0547 25.6056 93.3098 23.7747 93.8473 21.7468L89.9808 20.7219C89.3725 23.017 89.0547 25.1964 89.0547 27.25H93.0547ZM93.8486 21.742C94.7438 18.3303 96.2787 15.1968 98.4652 12.3301L95.2848 9.90429C92.7838 13.1834 91.0114 16.7947 89.9796 20.7267L93.8486 21.742ZM98.4631 12.3329C101.157 8.8134 103.709 7.45312 106.094 7.45312V3.45312C101.968 3.45312 98.3739 5.86889 95.2869 9.90147L98.4631 12.3329ZM104.688 13.1406C102.127 13.1406 100.148 15.1785 98.6229 17.5861L102.002 19.7264C103.446 17.4465 104.384 17.1406 104.688 17.1406V13.1406ZM98.634 17.5688C97.3438 19.5602 96.4115 21.5626 95.8791 23.5742L99.7459 24.5977C100.151 23.0676 100.885 21.4502 101.991 19.7437L98.634 17.5688ZM95.8722 23.6009C95.6086 24.6552 95.4609 25.6682 95.4609 26.625H99.4609C99.4609 26.0714 99.5476 25.3916 99.7528 24.571L95.8722 23.6009ZM95.4609 26.625C95.4609 28.0216 95.8059 29.3553 96.6569 30.4616L99.8274 28.0228C99.6368 27.7749 99.4609 27.3639 99.4609 26.625H95.4609ZM96.6752 30.485C97.6978 31.7744 99.1389 32.375 100.742 32.375V28.375C100.21 28.375 99.9845 28.2204 99.8092 27.9994L96.6752 30.485ZM100.742 32.375C103.015 32.375 104.861 31.141 106.278 29.2832L103.097 26.8574C102.17 28.0726 101.386 28.375 100.742 28.375V32.375ZM106.275 29.2865C107.397 27.8219 108.184 26.1209 108.659 24.2194L104.778 23.2493C104.421 24.6811 103.853 25.8708 103.1 26.8542L106.275 29.2865ZM108.658 24.2255C109.214 22.0272 109.337 19.8317 109.009 17.6551L105.054 18.2511C105.299 19.8766 105.213 21.5353 104.78 23.2432L108.658 24.2255ZM109.004 17.6243C108.819 16.5149 108.458 15.4166 107.747 14.5634C106.966 13.626 105.889 13.1406 104.688 13.1406V17.1406C104.745 17.1406 104.737 17.15 104.699 17.1323C104.659 17.1141 104.652 17.0968 104.674 17.1241C104.745 17.2084 104.931 17.5164 105.058 18.2819L109.004 17.6243ZM115.156 8.53906L114.76 6.57878L113.422 6.84935L113.186 8.19329L115.156 8.53906ZM121.914 7.17188L123.91 7.30064L124.078 4.69354L121.517 5.21159L121.914 7.17188ZM122.188 19.9453L124.18 19.7764L124.18 19.7712L122.188 19.9453ZM122.773 23.6562L120.846 24.1915L124.744 23.9998L122.773 23.6562ZM125.43 8.42188L125.064 6.45561L123.698 6.70972L123.459 8.07834L125.43 8.42188ZM132.148 7.17188L134.084 7.67397L134.874 4.63053L131.783 5.20561L132.148 7.17188ZM126.836 34.3203L127.372 36.247L128.678 35.8835L128.824 34.5367L126.836 34.3203ZM120.664 36.0391L118.875 36.9335L119.612 38.408L121.201 37.9657L120.664 36.0391ZM120.156 34.6719L118.269 35.3348L118.273 35.3451L118.277 35.3554L120.156 34.6719ZM118.125 28.8906L120.012 28.2277L120.009 28.2195L120.006 28.2113L118.125 28.8906ZM117.539 27.0938L119.5 26.7015L115.57 26.7433L117.539 27.0938ZM116.25 36.0391L116.825 37.9547L118.096 37.5734L118.238 36.254L116.25 36.0391ZM110 37.9141L108.03 37.5683L107.47 40.7612L110.575 39.8297L110 37.9141ZM115.553 10.4993L122.311 9.13216L121.517 5.21159L114.76 6.57878L115.553 10.4993ZM119.918 7.04311C119.862 7.91481 119.836 9.11109 119.836 10.6094H123.836C123.836 9.13891 123.862 8.04352 123.91 7.30064L119.918 7.04311ZM119.836 10.6094C119.836 14.1922 119.954 17.3645 120.195 20.1194L124.18 19.7712C123.952 17.1615 123.836 14.1099 123.836 10.6094H119.836ZM120.195 20.1142C120.33 21.7118 120.539 23.0858 120.846 24.1915L124.7 23.121C124.487 22.3517 124.305 21.2518 124.18 19.7764L120.195 20.1142ZM124.744 23.9998L127.4 8.76541L123.459 8.07834L120.803 23.3127L124.744 23.9998ZM125.796 10.3881L132.514 9.13814L131.783 5.20561L125.064 6.45561L125.796 10.3881ZM130.212 6.66978C127.489 17.1722 125.695 26.3217 124.848 34.1039L128.824 34.5367C129.644 27.0064 131.392 18.0569 134.084 7.67397L130.212 6.66978ZM126.299 32.3936L120.128 34.1124L121.201 37.9657L127.372 36.247L126.299 32.3936ZM122.453 35.1446C122.491 35.2201 122.513 35.2793 122.502 35.251C122.5 35.2469 122.495 35.2333 122.484 35.2064C122.464 35.1535 122.434 35.0732 122.392 34.9618C122.31 34.7405 122.192 34.4168 122.036 33.9884L118.277 35.3554C118.433 35.7863 118.556 36.1202 118.643 36.3546C118.697 36.5019 118.799 36.7815 118.875 36.9335L122.453 35.1446ZM122.043 34.0089L120.012 28.2277L116.238 29.5536L118.269 35.3348L122.043 34.0089ZM120.006 28.2113C119.84 27.7524 119.715 27.3899 119.626 27.1182C119.582 26.9825 119.549 26.8774 119.527 26.7993C119.502 26.7144 119.498 26.6883 119.5 26.7015L115.578 27.486C115.666 27.9245 115.922 28.6791 116.244 29.5699L120.006 28.2113ZM115.57 26.7433C115.016 29.8579 114.579 32.8849 114.262 35.8241L118.238 36.254C118.546 33.4119 118.969 30.4754 119.508 27.4442L115.57 26.7433ZM115.675 34.1234L109.425 35.9984L110.575 39.8297L116.825 37.9547L115.675 34.1234ZM111.97 38.2598L117.126 8.88484L113.186 8.19329L108.03 37.5683L111.97 38.2598ZM133.477 29.6328L133.735 31.616L133.747 31.6144L133.759 31.6127L133.477 29.6328ZM135.898 30.0234L134.927 31.7718L134.965 31.7929L135.004 31.8123L135.898 30.0234ZM135.234 35.2578L134.009 33.6774L134.002 33.6827L133.995 33.688L135.234 35.2578ZM131.992 36.6641L131.728 34.6816L131.717 34.6831L131.992 36.6641ZM129.57 36.3516L128.653 38.1288L128.664 38.1347L128.676 38.1404L129.57 36.3516ZM130.195 31.0781L128.931 29.5284L128.925 29.5337L128.918 29.539L130.195 31.0781ZM137.891 5.33594L138.221 3.36341L136.459 3.06826L135.968 4.7865L137.891 5.33594ZM146.055 6.70312L147.802 7.6764L149.182 5.19898L146.385 4.73059L146.055 6.70312ZM141.289 15.8047L139.475 14.9625L139.473 14.9676L141.289 15.8047ZM137.617 25.5312L137.531 27.5294L139.077 27.5961L139.53 26.1164L137.617 25.5312ZM132.188 25.2969L130.264 24.7474L129.568 27.1857L132.101 27.295L132.188 25.2969ZM133.759 31.6127C134.304 31.5349 134.66 31.6231 134.927 31.7718L136.87 28.2751C135.731 27.6426 134.472 27.4703 133.194 27.6529L133.759 31.6127ZM135.004 31.8123C135.086 31.8533 135.129 31.8856 135.146 31.9006C135.162 31.9144 135.16 31.9155 135.151 31.9023C135.143 31.8887 135.14 31.8782 135.14 31.8799C135.141 31.8834 135.148 31.9124 135.148 31.9766H139.148C139.148 31.2087 138.964 30.4383 138.52 29.7461C138.081 29.0598 137.466 28.571 136.793 28.2346L135.004 31.8123ZM135.148 31.9766C135.148 32.3571 134.979 32.9251 134.009 33.6774L136.46 36.8383C138.042 35.6114 139.148 33.9918 139.148 31.9766H135.148ZM133.995 33.688C133.268 34.262 132.52 34.576 131.728 34.6816L132.257 38.6465C133.808 38.4396 135.222 37.8161 136.474 36.8276L133.995 33.688ZM131.717 34.6831C131.079 34.7717 130.699 34.6798 130.465 34.5627L128.676 38.1404C129.796 38.7004 131.03 38.8169 132.267 38.645L131.717 34.6831ZM130.488 34.5743C130.414 34.5363 130.377 34.5072 130.363 34.495C130.351 34.484 130.354 34.4845 130.362 34.4969C130.37 34.5095 130.371 34.517 130.369 34.5104C130.367 34.5019 130.359 34.4676 130.359 34.3984H126.359C126.359 35.1544 126.535 35.9159 126.962 36.6047C127.388 37.2906 127.988 37.7857 128.653 38.1288L130.488 34.5743ZM130.359 34.3984C130.359 33.9762 130.546 33.3857 131.472 32.6172L128.918 29.539C127.396 30.8018 126.359 32.4248 126.359 34.3984H130.359ZM131.46 32.6279C132.178 32.0417 132.928 31.7213 133.735 31.616L133.218 27.6496C131.63 27.8568 130.192 28.4999 128.931 29.5284L131.46 32.6279ZM137.56 7.30847L145.724 8.67566L146.385 4.73059L138.221 3.36341L137.56 7.30847ZM144.307 5.72985C142.138 9.62374 140.522 12.708 139.475 14.9625L143.103 16.6469C144.088 14.5264 145.648 11.5429 147.802 7.6764L144.307 5.72985ZM139.473 14.9676C138.051 18.0522 136.796 21.3794 135.705 24.9461L139.53 26.1164C140.574 22.7039 141.767 19.5468 143.105 16.6418L139.473 14.9676ZM137.703 23.5331L132.274 23.2987L132.101 27.295L137.531 27.5294L137.703 23.5331ZM134.111 25.8463L139.814 5.88538L135.968 4.7865L130.264 24.7474L134.111 25.8463Z" fill="#F7931E" mask="url(#path-1-outside-1_2878_7729)"/>
</svg>
