<svg width="307" height="43" viewBox="0 0 307 43" fill="none" xmlns="http://www.w3.org/2000/svg">
<mask id="path-1-outside-1_2878_7724" maskUnits="userSpaceOnUse" x="7" y="2" width="298" height="39" fill="black">
<rect fill="white" x="7" y="2" width="298" height="39"/>
<path d="M23.3242 7.83594L29.6133 8.92969C23.9883 18.7995 19.5352 27.7318 16.2539 35.7266L10.2383 35.3359L14.3789 26.625L11.0977 10.9219L18.7148 7.40625C18.6367 8.60417 18.5846 10.1016 18.5586 11.8984C18.5326 13.6953 18.6237 15.4922 18.832 17.2891L23.3242 7.83594ZM39.0664 5.45312C41.8268 5.45312 43.7799 6.98958 44.9258 10.0625C45.5247 11.651 45.8242 13.3958 45.8242 15.2969C45.8242 17.1198 45.5508 19.099 45.0039 21.2344C44.0404 24.8802 42.3737 28.2396 40.0039 31.3125C37.1133 35.0625 34.0534 36.9375 30.8242 36.9375C28.0378 36.9375 26.0586 35.401 24.8867 32.3281C24.3138 30.8177 24.0273 29.125 24.0273 27.25C24.0273 25.401 24.3138 23.3958 24.8867 21.2344C25.8503 17.5625 27.5039 14.1901 29.8477 11.1172C32.7383 7.34115 35.8112 5.45312 39.0664 5.45312ZM37.6602 15.1406C36.2279 15.1406 34.7695 16.3125 33.2852 18.6562C32.0872 20.5052 31.2539 22.3151 30.7852 24.0859C30.5508 25.0234 30.4336 25.8698 30.4336 26.625C30.4336 27.6927 30.694 28.5651 31.2148 29.2422C31.8138 29.9974 32.6471 30.375 33.7148 30.375C35.1732 30.375 36.4883 29.6068 37.6602 28.0703C38.5977 26.8464 39.2747 25.401 39.6914 23.7344C40.1862 21.7812 40.2904 19.8542 40.0039 17.9531C39.6914 16.0781 38.9102 15.1406 37.6602 15.1406ZM47.9727 8.42188L54.6523 7.17188C52.8555 13.9948 51.5273 20.1146 50.668 25.5312L54.3789 23.9688L57.1133 8.42188L63.793 7.17188C61.0846 17.849 59.3268 26.8984 58.5195 34.3203L52.2695 36.0391L53.0508 31.7031C50.8633 32.6667 47.556 34.112 43.1289 36.0391L47.9727 8.42188ZM74.1836 4.47656C72.5169 9.00781 71.3581 13.1224 70.707 16.8203L63.168 17.9922L66.957 5.02344L74.1836 4.47656ZM74.1445 8.38281C78.2331 7.15885 81.5794 6.54688 84.1836 6.54688C87.6992 6.54688 89.444 7.77083 89.418 10.2188C89.3919 13.7344 87.1784 17.263 82.7773 20.8047C83.1419 21.7943 84.6523 24.9062 87.3086 30.1406C85.9544 31.3906 83.9102 33.2266 81.1758 35.6484L76.9961 24.8672H76.957C76.332 28.2786 75.8633 31.4297 75.5508 34.3203L69.3789 36.0391C69.431 35.4661 69.7174 33.7344 70.2383 30.8438L74.1445 8.38281ZM79.0664 14.5547C78.832 15.4401 78.6237 16.3255 78.4414 17.2109L77.8945 19.8672C78.806 19.3984 79.7044 18.7865 80.5898 18.0312C81.6055 17.1458 82.2826 16.2995 82.6211 15.4922C82.7513 15.2578 82.8164 15.0365 82.8164 14.8281C82.8164 14.2552 82.4388 13.9688 81.6836 13.9688C81.0846 13.9688 80.2122 14.1641 79.0664 14.5547ZM95.3945 14.2422C95.1862 14.9974 95.0039 15.7396 94.8477 16.4688L94.418 18.6172L100.668 17.2891L100.316 22.6797C97.3477 23.2005 95.0169 23.6562 93.3242 24.0469C93.2201 24.5677 93.1289 25.0885 93.0508 25.6094L92.7773 27.1328L100.043 26.0781L99.5352 33.3438C95.7852 33.6562 91.0326 34.5547 85.2773 36.0391L89.9258 8.03125L102.934 6.15625L102.426 13.3828C99.8737 13.6172 97.5299 13.9036 95.3945 14.2422ZM112.699 8.42188L119.379 7.17188C117.582 13.9948 116.254 20.1146 115.395 25.5312L119.105 23.9688L121.84 8.42188L128.52 7.17188C125.811 17.849 124.053 26.8984 123.246 34.3203L116.996 36.0391L117.777 31.7031C115.59 32.6667 112.283 34.112 107.855 36.0391L112.699 8.42188ZM129.848 8.53906L136.605 7.17188C136.553 7.97917 136.527 9.125 136.527 10.6094C136.527 14.151 136.645 17.263 136.879 19.9453C137.009 21.4818 137.204 22.7188 137.465 23.6562L140.121 8.42188L146.84 7.17188C144.132 17.6146 142.361 26.6641 141.527 34.3203L135.355 36.0391C135.329 35.987 135.16 35.5312 134.848 34.6719L132.816 28.8906C132.478 27.9531 132.283 27.3542 132.23 27.0938C131.684 30.1667 131.254 33.1484 130.941 36.0391L124.691 37.9141L129.848 8.53906ZM161.566 15.3359C160.733 15.6484 159.743 16.026 158.598 16.4688L155.668 17.6016C155.668 16.3776 155.329 15.7656 154.652 15.7656C153.689 15.7656 152.725 16.3125 151.762 17.4062C151.085 18.2135 150.798 18.9948 150.902 19.75C150.98 20.2448 151.475 20.4922 152.387 20.4922C152.882 20.4922 153.533 20.4141 154.34 20.2578C155.46 20.0234 156.449 19.9062 157.309 19.9062C159.496 19.9062 160.772 20.6615 161.137 22.1719C161.241 22.6406 161.293 23.1354 161.293 23.6562C161.293 25.3229 160.668 27.1198 159.418 29.0469C157.803 31.5729 155.538 33.6953 152.621 35.4141C151.085 36.3255 149.574 36.7812 148.09 36.7812C146.736 36.7812 145.408 36.4036 144.105 35.6484C144.757 34.0859 145.798 31.7812 147.23 28.7344C148.064 29.3073 148.949 29.5938 149.887 29.5938C150.303 29.5938 150.733 29.5286 151.176 29.3984C151.983 29.1901 152.751 28.8906 153.48 28.5C154.522 27.9271 155.043 27.3411 155.043 26.7422C155.043 26.0911 154.509 25.7656 153.441 25.7656C152.712 25.7656 151.645 25.9219 150.238 26.2344C148.858 26.5208 147.803 26.6641 147.074 26.6641C146.111 26.6641 145.368 26.4818 144.848 26.1172C143.832 25.4401 143.415 24.3854 143.598 22.9531C143.936 20.0625 145.798 16.7161 149.184 12.9141C152.647 9.00781 155.629 6.96354 158.129 6.78125C160.551 6.625 161.762 8.44792 161.762 12.25C161.762 13.1615 161.697 14.1901 161.566 15.3359ZM179.418 6.78125L179.184 14.0469C177.361 14.151 175.629 14.2812 173.988 14.4375C172.27 21.651 171.111 28.2786 170.512 34.3203L163.91 36.0391L167.504 15.2578C166.801 15.362 166.098 15.4792 165.395 15.6094L163.324 16L162.855 8.69531L179.418 6.78125ZM189.965 5.45312C192.725 5.45312 194.678 6.98958 195.824 10.0625C196.423 11.651 196.723 13.3958 196.723 15.2969C196.723 17.1198 196.449 19.099 195.902 21.2344C194.939 24.8802 193.272 28.2396 190.902 31.3125C188.012 35.0625 184.952 36.9375 181.723 36.9375C178.936 36.9375 176.957 35.401 175.785 32.3281C175.212 30.8177 174.926 29.125 174.926 27.25C174.926 25.401 175.212 23.3958 175.785 21.2344C176.749 17.5625 178.402 14.1901 180.746 11.1172C183.637 7.34115 186.71 5.45312 189.965 5.45312ZM188.559 15.1406C187.126 15.1406 185.668 16.3125 184.184 18.6562C182.986 20.5052 182.152 22.3151 181.684 24.0859C181.449 25.0234 181.332 25.8698 181.332 26.625C181.332 27.6927 181.592 28.5651 182.113 29.2422C182.712 29.9974 183.546 30.375 184.613 30.375C186.072 30.375 187.387 29.6068 188.559 28.0703C189.496 26.8464 190.173 25.401 190.59 23.7344C191.085 21.7812 191.189 19.8542 190.902 17.9531C190.59 16.0781 189.809 15.1406 188.559 15.1406ZM198.441 8.38281C202.478 7.15885 205.785 6.54688 208.363 6.54688C211.879 6.54688 213.611 7.77083 213.559 10.2188C213.48 15.1406 209.34 20.2318 201.137 25.4922C200.564 28.6693 200.147 31.612 199.887 34.3203L193.676 36.0391C193.754 35.4661 194.066 33.7214 194.613 30.8047L196.332 21.5469C197.868 13.0312 198.572 8.64323 198.441 8.38281ZM203.363 14.6328C203.181 15.362 203.012 16.0911 202.855 16.8203L202.426 18.9688C204.848 17.7708 206.41 16.5078 207.113 15.1797C207.217 14.9714 207.27 14.8021 207.27 14.6719C207.27 14.2292 206.944 14.0078 206.293 14.0078C205.668 14.0078 204.691 14.2161 203.363 14.6328ZM212.816 8.38281C216.853 7.15885 220.16 6.54688 222.738 6.54688C226.254 6.54688 227.986 7.77083 227.934 10.2188C227.855 15.1406 223.715 20.2318 215.512 25.4922C214.939 28.6693 214.522 31.612 214.262 34.3203L208.051 36.0391C208.129 35.4661 208.441 33.7214 208.988 30.8047L210.707 21.5469C212.243 13.0312 212.947 8.64323 212.816 8.38281ZM217.738 14.6328C217.556 15.362 217.387 16.0911 217.23 16.8203L216.801 18.9688C219.223 17.7708 220.785 16.5078 221.488 15.1797C221.592 14.9714 221.645 14.8021 221.645 14.6719C221.645 14.2292 221.319 14.0078 220.668 14.0078C220.043 14.0078 219.066 14.2161 217.738 14.6328ZM219.535 36.5078C223.363 26.7422 226.462 17.3281 228.832 8.26562L240.707 6.27344C239.353 14.1641 238.741 23.5 238.871 34.2812L230.59 36.1953L231.176 31.3125L228.559 31.8203L227.738 35.2578L219.535 36.5078ZM231.801 26.0781L233.598 11.3125H233.559L229.887 26.4297L231.801 26.0781ZM242.895 8.53906C243.728 8.40885 245.29 8.05729 247.582 7.48438C249.561 7.01562 251.15 6.71615 252.348 6.58594C252.816 6.5599 253.272 6.54688 253.715 6.54688C257.152 6.54688 258.858 7.77083 258.832 10.2188C258.832 13.6823 256.697 17.1458 252.426 20.6094C255.108 20.4271 256.658 21.1823 257.074 22.875C257.152 23.2396 257.191 23.6172 257.191 24.0078C257.191 25.9609 256.254 27.9401 254.379 29.9453C252.947 31.4818 251.176 32.8359 249.066 34.0078C246.54 35.4141 243.637 36.1172 240.355 36.1172C239.835 36.1172 239.314 36.1042 238.793 36.0781C239.809 30.7396 240.928 23.5651 242.152 14.5547C242.517 12.0026 242.764 9.9974 242.895 8.53906ZM247.035 24.7891C246.827 25.7786 246.605 27.1198 246.371 28.8125C250.043 27.6927 251.879 26.4167 251.879 24.9844C251.879 24.4635 251.423 24.2031 250.512 24.2031C249.704 24.2031 248.546 24.3984 247.035 24.7891ZM249.184 14.3203C248.975 15.1797 248.78 16.0391 248.598 16.8984L248.051 19.4766C249.952 18.3047 251.306 16.9505 252.113 15.4141C252.296 15.0755 252.387 14.8021 252.387 14.5938C252.387 14.151 252.048 13.9297 251.371 13.9297C250.85 13.9297 250.121 14.0599 249.184 14.3203ZM260.98 8.42188L267.699 7.17188C265.824 14.3854 264.379 21.0391 263.363 27.1328L270.238 26.0781L269.652 33.3438C266.111 33.6562 261.618 34.5547 256.176 36.0391L260.98 8.42188ZM279.066 14.2422C278.858 14.9974 278.676 15.7396 278.52 16.4688L278.09 18.6172L284.34 17.2891L283.988 22.6797C281.02 23.2005 278.689 23.6562 276.996 24.0469C276.892 24.5677 276.801 25.0885 276.723 25.6094L276.449 27.1328L283.715 26.0781L283.207 33.3438C279.457 33.6562 274.704 34.5547 268.949 36.0391L273.598 8.03125L286.605 6.15625L286.098 13.3828C283.546 13.6172 281.202 13.9036 279.066 14.2422ZM288.91 29.6328C289.822 29.5026 290.629 29.6328 291.332 30.0234C292.165 30.4401 292.582 31.0911 292.582 31.9766C292.582 33.1745 291.944 34.2682 290.668 35.2578C289.678 36.0391 288.598 36.5078 287.426 36.6641C286.488 36.7943 285.681 36.6901 285.004 36.3516C284.197 35.9349 283.793 35.2839 283.793 34.3984C283.793 33.2005 284.405 32.0938 285.629 31.0781C286.618 30.2708 287.712 29.7891 288.91 29.6328ZM293.324 5.33594L301.488 6.70312C299.327 10.5833 297.738 13.6172 296.723 15.8047C295.342 18.7995 294.118 22.0417 293.051 25.5312L287.621 25.2969L293.324 5.33594Z"/>
</mask>
<path d="M23.3242 7.83594L29.6133 8.92969C23.9883 18.7995 19.5352 27.7318 16.2539 35.7266L10.2383 35.3359L14.3789 26.625L11.0977 10.9219L18.7148 7.40625C18.6367 8.60417 18.5846 10.1016 18.5586 11.8984C18.5326 13.6953 18.6237 15.4922 18.832 17.2891L23.3242 7.83594ZM39.0664 5.45312C41.8268 5.45312 43.7799 6.98958 44.9258 10.0625C45.5247 11.651 45.8242 13.3958 45.8242 15.2969C45.8242 17.1198 45.5508 19.099 45.0039 21.2344C44.0404 24.8802 42.3737 28.2396 40.0039 31.3125C37.1133 35.0625 34.0534 36.9375 30.8242 36.9375C28.0378 36.9375 26.0586 35.401 24.8867 32.3281C24.3138 30.8177 24.0273 29.125 24.0273 27.25C24.0273 25.401 24.3138 23.3958 24.8867 21.2344C25.8503 17.5625 27.5039 14.1901 29.8477 11.1172C32.7383 7.34115 35.8112 5.45312 39.0664 5.45312ZM37.6602 15.1406C36.2279 15.1406 34.7695 16.3125 33.2852 18.6562C32.0872 20.5052 31.2539 22.3151 30.7852 24.0859C30.5508 25.0234 30.4336 25.8698 30.4336 26.625C30.4336 27.6927 30.694 28.5651 31.2148 29.2422C31.8138 29.9974 32.6471 30.375 33.7148 30.375C35.1732 30.375 36.4883 29.6068 37.6602 28.0703C38.5977 26.8464 39.2747 25.401 39.6914 23.7344C40.1862 21.7812 40.2904 19.8542 40.0039 17.9531C39.6914 16.0781 38.9102 15.1406 37.6602 15.1406ZM47.9727 8.42188L54.6523 7.17188C52.8555 13.9948 51.5273 20.1146 50.668 25.5312L54.3789 23.9688L57.1133 8.42188L63.793 7.17188C61.0846 17.849 59.3268 26.8984 58.5195 34.3203L52.2695 36.0391L53.0508 31.7031C50.8633 32.6667 47.556 34.112 43.1289 36.0391L47.9727 8.42188ZM74.1836 4.47656C72.5169 9.00781 71.3581 13.1224 70.707 16.8203L63.168 17.9922L66.957 5.02344L74.1836 4.47656ZM74.1445 8.38281C78.2331 7.15885 81.5794 6.54688 84.1836 6.54688C87.6992 6.54688 89.444 7.77083 89.418 10.2188C89.3919 13.7344 87.1784 17.263 82.7773 20.8047C83.1419 21.7943 84.6523 24.9062 87.3086 30.1406C85.9544 31.3906 83.9102 33.2266 81.1758 35.6484L76.9961 24.8672H76.957C76.332 28.2786 75.8633 31.4297 75.5508 34.3203L69.3789 36.0391C69.431 35.4661 69.7174 33.7344 70.2383 30.8438L74.1445 8.38281ZM79.0664 14.5547C78.832 15.4401 78.6237 16.3255 78.4414 17.2109L77.8945 19.8672C78.806 19.3984 79.7044 18.7865 80.5898 18.0312C81.6055 17.1458 82.2826 16.2995 82.6211 15.4922C82.7513 15.2578 82.8164 15.0365 82.8164 14.8281C82.8164 14.2552 82.4388 13.9688 81.6836 13.9688C81.0846 13.9688 80.2122 14.1641 79.0664 14.5547ZM95.3945 14.2422C95.1862 14.9974 95.0039 15.7396 94.8477 16.4688L94.418 18.6172L100.668 17.2891L100.316 22.6797C97.3477 23.2005 95.0169 23.6562 93.3242 24.0469C93.2201 24.5677 93.1289 25.0885 93.0508 25.6094L92.7773 27.1328L100.043 26.0781L99.5352 33.3438C95.7852 33.6562 91.0326 34.5547 85.2773 36.0391L89.9258 8.03125L102.934 6.15625L102.426 13.3828C99.8737 13.6172 97.5299 13.9036 95.3945 14.2422ZM112.699 8.42188L119.379 7.17188C117.582 13.9948 116.254 20.1146 115.395 25.5312L119.105 23.9688L121.84 8.42188L128.52 7.17188C125.811 17.849 124.053 26.8984 123.246 34.3203L116.996 36.0391L117.777 31.7031C115.59 32.6667 112.283 34.112 107.855 36.0391L112.699 8.42188ZM129.848 8.53906L136.605 7.17188C136.553 7.97917 136.527 9.125 136.527 10.6094C136.527 14.151 136.645 17.263 136.879 19.9453C137.009 21.4818 137.204 22.7188 137.465 23.6562L140.121 8.42188L146.84 7.17188C144.132 17.6146 142.361 26.6641 141.527 34.3203L135.355 36.0391C135.329 35.987 135.16 35.5312 134.848 34.6719L132.816 28.8906C132.478 27.9531 132.283 27.3542 132.23 27.0938C131.684 30.1667 131.254 33.1484 130.941 36.0391L124.691 37.9141L129.848 8.53906ZM161.566 15.3359C160.733 15.6484 159.743 16.026 158.598 16.4688L155.668 17.6016C155.668 16.3776 155.329 15.7656 154.652 15.7656C153.689 15.7656 152.725 16.3125 151.762 17.4062C151.085 18.2135 150.798 18.9948 150.902 19.75C150.98 20.2448 151.475 20.4922 152.387 20.4922C152.882 20.4922 153.533 20.4141 154.34 20.2578C155.46 20.0234 156.449 19.9062 157.309 19.9062C159.496 19.9062 160.772 20.6615 161.137 22.1719C161.241 22.6406 161.293 23.1354 161.293 23.6562C161.293 25.3229 160.668 27.1198 159.418 29.0469C157.803 31.5729 155.538 33.6953 152.621 35.4141C151.085 36.3255 149.574 36.7812 148.09 36.7812C146.736 36.7812 145.408 36.4036 144.105 35.6484C144.757 34.0859 145.798 31.7812 147.23 28.7344C148.064 29.3073 148.949 29.5938 149.887 29.5938C150.303 29.5938 150.733 29.5286 151.176 29.3984C151.983 29.1901 152.751 28.8906 153.48 28.5C154.522 27.9271 155.043 27.3411 155.043 26.7422C155.043 26.0911 154.509 25.7656 153.441 25.7656C152.712 25.7656 151.645 25.9219 150.238 26.2344C148.858 26.5208 147.803 26.6641 147.074 26.6641C146.111 26.6641 145.368 26.4818 144.848 26.1172C143.832 25.4401 143.415 24.3854 143.598 22.9531C143.936 20.0625 145.798 16.7161 149.184 12.9141C152.647 9.00781 155.629 6.96354 158.129 6.78125C160.551 6.625 161.762 8.44792 161.762 12.25C161.762 13.1615 161.697 14.1901 161.566 15.3359ZM179.418 6.78125L179.184 14.0469C177.361 14.151 175.629 14.2812 173.988 14.4375C172.27 21.651 171.111 28.2786 170.512 34.3203L163.91 36.0391L167.504 15.2578C166.801 15.362 166.098 15.4792 165.395 15.6094L163.324 16L162.855 8.69531L179.418 6.78125ZM189.965 5.45312C192.725 5.45312 194.678 6.98958 195.824 10.0625C196.423 11.651 196.723 13.3958 196.723 15.2969C196.723 17.1198 196.449 19.099 195.902 21.2344C194.939 24.8802 193.272 28.2396 190.902 31.3125C188.012 35.0625 184.952 36.9375 181.723 36.9375C178.936 36.9375 176.957 35.401 175.785 32.3281C175.212 30.8177 174.926 29.125 174.926 27.25C174.926 25.401 175.212 23.3958 175.785 21.2344C176.749 17.5625 178.402 14.1901 180.746 11.1172C183.637 7.34115 186.71 5.45312 189.965 5.45312ZM188.559 15.1406C187.126 15.1406 185.668 16.3125 184.184 18.6562C182.986 20.5052 182.152 22.3151 181.684 24.0859C181.449 25.0234 181.332 25.8698 181.332 26.625C181.332 27.6927 181.592 28.5651 182.113 29.2422C182.712 29.9974 183.546 30.375 184.613 30.375C186.072 30.375 187.387 29.6068 188.559 28.0703C189.496 26.8464 190.173 25.401 190.59 23.7344C191.085 21.7812 191.189 19.8542 190.902 17.9531C190.59 16.0781 189.809 15.1406 188.559 15.1406ZM198.441 8.38281C202.478 7.15885 205.785 6.54688 208.363 6.54688C211.879 6.54688 213.611 7.77083 213.559 10.2188C213.48 15.1406 209.34 20.2318 201.137 25.4922C200.564 28.6693 200.147 31.612 199.887 34.3203L193.676 36.0391C193.754 35.4661 194.066 33.7214 194.613 30.8047L196.332 21.5469C197.868 13.0312 198.572 8.64323 198.441 8.38281ZM203.363 14.6328C203.181 15.362 203.012 16.0911 202.855 16.8203L202.426 18.9688C204.848 17.7708 206.41 16.5078 207.113 15.1797C207.217 14.9714 207.27 14.8021 207.27 14.6719C207.27 14.2292 206.944 14.0078 206.293 14.0078C205.668 14.0078 204.691 14.2161 203.363 14.6328ZM212.816 8.38281C216.853 7.15885 220.16 6.54688 222.738 6.54688C226.254 6.54688 227.986 7.77083 227.934 10.2188C227.855 15.1406 223.715 20.2318 215.512 25.4922C214.939 28.6693 214.522 31.612 214.262 34.3203L208.051 36.0391C208.129 35.4661 208.441 33.7214 208.988 30.8047L210.707 21.5469C212.243 13.0312 212.947 8.64323 212.816 8.38281ZM217.738 14.6328C217.556 15.362 217.387 16.0911 217.23 16.8203L216.801 18.9688C219.223 17.7708 220.785 16.5078 221.488 15.1797C221.592 14.9714 221.645 14.8021 221.645 14.6719C221.645 14.2292 221.319 14.0078 220.668 14.0078C220.043 14.0078 219.066 14.2161 217.738 14.6328ZM219.535 36.5078C223.363 26.7422 226.462 17.3281 228.832 8.26562L240.707 6.27344C239.353 14.1641 238.741 23.5 238.871 34.2812L230.59 36.1953L231.176 31.3125L228.559 31.8203L227.738 35.2578L219.535 36.5078ZM231.801 26.0781L233.598 11.3125H233.559L229.887 26.4297L231.801 26.0781ZM242.895 8.53906C243.728 8.40885 245.29 8.05729 247.582 7.48438C249.561 7.01562 251.15 6.71615 252.348 6.58594C252.816 6.5599 253.272 6.54688 253.715 6.54688C257.152 6.54688 258.858 7.77083 258.832 10.2188C258.832 13.6823 256.697 17.1458 252.426 20.6094C255.108 20.4271 256.658 21.1823 257.074 22.875C257.152 23.2396 257.191 23.6172 257.191 24.0078C257.191 25.9609 256.254 27.9401 254.379 29.9453C252.947 31.4818 251.176 32.8359 249.066 34.0078C246.54 35.4141 243.637 36.1172 240.355 36.1172C239.835 36.1172 239.314 36.1042 238.793 36.0781C239.809 30.7396 240.928 23.5651 242.152 14.5547C242.517 12.0026 242.764 9.9974 242.895 8.53906ZM247.035 24.7891C246.827 25.7786 246.605 27.1198 246.371 28.8125C250.043 27.6927 251.879 26.4167 251.879 24.9844C251.879 24.4635 251.423 24.2031 250.512 24.2031C249.704 24.2031 248.546 24.3984 247.035 24.7891ZM249.184 14.3203C248.975 15.1797 248.78 16.0391 248.598 16.8984L248.051 19.4766C249.952 18.3047 251.306 16.9505 252.113 15.4141C252.296 15.0755 252.387 14.8021 252.387 14.5938C252.387 14.151 252.048 13.9297 251.371 13.9297C250.85 13.9297 250.121 14.0599 249.184 14.3203ZM260.98 8.42188L267.699 7.17188C265.824 14.3854 264.379 21.0391 263.363 27.1328L270.238 26.0781L269.652 33.3438C266.111 33.6562 261.618 34.5547 256.176 36.0391L260.98 8.42188ZM279.066 14.2422C278.858 14.9974 278.676 15.7396 278.52 16.4688L278.09 18.6172L284.34 17.2891L283.988 22.6797C281.02 23.2005 278.689 23.6562 276.996 24.0469C276.892 24.5677 276.801 25.0885 276.723 25.6094L276.449 27.1328L283.715 26.0781L283.207 33.3438C279.457 33.6562 274.704 34.5547 268.949 36.0391L273.598 8.03125L286.605 6.15625L286.098 13.3828C283.546 13.6172 281.202 13.9036 279.066 14.2422ZM288.91 29.6328C289.822 29.5026 290.629 29.6328 291.332 30.0234C292.165 30.4401 292.582 31.0911 292.582 31.9766C292.582 33.1745 291.944 34.2682 290.668 35.2578C289.678 36.0391 288.598 36.5078 287.426 36.6641C286.488 36.7943 285.681 36.6901 285.004 36.3516C284.197 35.9349 283.793 35.2839 283.793 34.3984C283.793 33.2005 284.405 32.0938 285.629 31.0781C286.618 30.2708 287.712 29.7891 288.91 29.6328ZM293.324 5.33594L301.488 6.70312C299.327 10.5833 297.738 13.6172 296.723 15.8047C295.342 18.7995 294.118 22.0417 293.051 25.5312L287.621 25.2969L293.324 5.33594Z" fill="#FAD557"/>
<path d="M23.3242 7.83594L23.6669 5.86551L22.17 5.60518L21.5178 6.97752L23.3242 7.83594ZM29.6133 8.92969L31.3509 9.91999L32.7603 7.44698L29.956 6.95926L29.6133 8.92969ZM16.2539 35.7266L16.1243 37.7224L17.5585 37.8155L18.1041 36.4859L16.2539 35.7266ZM10.2383 35.3359L8.43196 34.4773L7.16599 37.1407L10.1087 37.3317L10.2383 35.3359ZM14.3789 26.625L16.1852 27.4836L16.4744 26.8753L16.3366 26.2159L14.3789 26.625ZM11.0977 10.9219L10.2595 9.10596L8.81439 9.77295L9.13994 11.331L11.0977 10.9219ZM18.7148 7.40625L20.7106 7.53641L20.9294 4.1814L17.8767 5.59033L18.7148 7.40625ZM18.832 17.2891L16.8453 17.5194L17.6478 24.4408L20.6384 18.1475L18.832 17.2891ZM22.9815 9.80636L29.2706 10.9001L29.956 6.95926L23.6669 5.86551L22.9815 9.80636ZM27.8757 7.93939C22.2206 17.862 17.7257 26.8729 14.4037 34.9672L18.1041 36.4859C21.3446 28.5906 25.756 19.737 31.3509 9.91999L27.8757 7.93939ZM16.3835 33.7308L10.3679 33.3401L10.1087 37.3317L16.1243 37.7224L16.3835 33.7308ZM12.0446 36.1945L16.1852 27.4836L12.5726 25.7664L8.43196 34.4773L12.0446 36.1945ZM16.3366 26.2159L13.0554 10.5128L9.13994 11.331L12.4212 27.0341L16.3366 26.2159ZM11.9358 12.7378L19.553 9.22217L17.8767 5.59033L10.2595 9.10596L11.9358 12.7378ZM16.7191 7.27609C16.638 8.51977 16.5851 10.0536 16.5588 11.8695L20.5584 11.9274C20.5842 10.1495 20.6355 8.68856 20.7106 7.53641L16.7191 7.27609ZM16.5588 11.8695C16.5315 13.7535 16.6271 15.637 16.8453 17.5194L20.8187 17.0587C20.6203 15.3473 20.5336 13.6371 20.5584 11.9274L16.5588 11.8695ZM20.6384 18.1475L25.1306 8.69436L21.5178 6.97752L17.0256 16.4306L20.6384 18.1475ZM44.9258 10.0625L43.0518 10.7613L43.0544 10.7681L44.9258 10.0625ZM45.0039 21.2344L46.9375 21.7454L46.9395 21.738L46.9414 21.7306L45.0039 21.2344ZM40.0039 31.3125L38.4202 30.0911L38.4199 30.0915L40.0039 31.3125ZM24.8867 32.3281L23.0167 33.0374L23.018 33.0408L24.8867 32.3281ZM24.8867 21.2344L26.82 21.7468L26.8212 21.742L24.8867 21.2344ZM29.8477 11.1172L28.2596 9.90147L28.2574 9.90429L29.8477 11.1172ZM33.2852 18.6562L34.9637 19.7437L34.9693 19.7351L34.9748 19.7264L33.2852 18.6562ZM30.7852 24.0859L28.8517 23.5742L28.8482 23.5875L28.8449 23.6009L30.7852 24.0859ZM31.2148 29.2422L29.6296 30.4616L29.6386 30.4734L29.6478 30.485L31.2148 29.2422ZM37.6602 28.0703L36.0724 26.8542L36.0699 26.8574L37.6602 28.0703ZM39.6914 23.7344L37.7526 23.2432L37.7511 23.2493L39.6914 23.7344ZM40.0039 17.9531L41.9816 17.6551L41.9793 17.6397L41.9767 17.6243L40.0039 17.9531ZM39.0664 7.45312C40.0507 7.45312 40.7802 7.71734 41.365 8.17738C41.9746 8.65694 42.5672 9.4616 43.0518 10.7613L46.7997 9.36374C46.1385 7.59048 45.1816 6.09046 43.8381 5.03356C42.4698 3.95714 40.8425 3.45312 39.0664 3.45312V7.45312ZM43.0544 10.7681C43.5587 12.1057 43.8242 13.6082 43.8242 15.2969H47.8242C47.8242 13.1835 47.4907 11.1963 46.7972 9.35689L43.0544 10.7681ZM43.8242 15.2969C43.8242 16.9219 43.5801 18.7324 43.0664 20.7382L46.9414 21.7306C47.5214 19.4656 47.8242 17.3177 47.8242 15.2969H43.8242ZM43.0703 20.7233C42.1769 24.1039 40.632 27.223 38.4202 30.0911L41.5877 32.5339C44.1154 29.2561 45.9039 25.6565 46.9375 21.7454L43.0703 20.7233ZM38.4199 30.0915C35.7241 33.5887 33.184 34.9375 30.8242 34.9375V38.9375C34.9228 38.9375 38.5024 36.5363 41.5879 32.5335L38.4199 30.0915ZM30.8242 34.9375C29.8225 34.9375 29.0758 34.6706 28.4764 34.2053C27.8536 33.7218 27.2507 32.914 26.7554 31.6155L23.018 33.0408C23.6947 34.8151 24.6673 36.3121 26.0236 37.365C27.4034 38.4362 29.0395 38.9375 30.8242 38.9375V34.9375ZM26.7567 31.6188C26.2824 30.3683 26.0273 28.921 26.0273 27.25H22.0273C22.0273 29.329 22.3452 31.2671 23.0167 33.0374L26.7567 31.6188ZM26.0273 27.25C26.0273 25.6056 26.2825 23.7747 26.82 21.7468L22.9535 20.7219C22.3452 23.017 22.0273 25.1964 22.0273 27.25H26.0273ZM26.8212 21.742C27.7165 18.3303 29.2514 15.1968 31.4379 12.3301L28.2574 9.90429C25.7564 13.1834 23.984 16.7947 22.9522 20.7267L26.8212 21.742ZM31.4357 12.3329C34.13 8.8134 36.6821 7.45312 39.0664 7.45312V3.45312C34.9403 3.45312 31.3466 5.86889 28.2596 9.90147L31.4357 12.3329ZM37.6602 13.1406C35.0995 13.1406 33.1204 15.1785 31.5955 17.5861L34.9748 19.7264C36.4187 17.4465 37.3562 17.1406 37.6602 17.1406V13.1406ZM31.6067 17.5688C30.3164 19.5602 29.3842 21.5626 28.8517 23.5742L32.7186 24.5977C33.1236 23.0676 33.8581 21.4502 34.9637 19.7437L31.6067 17.5688ZM28.8449 23.6009C28.5813 24.6552 28.4336 25.6682 28.4336 26.625H32.4336C32.4336 26.0714 32.5203 25.3916 32.7254 24.571L28.8449 23.6009ZM28.4336 26.625C28.4336 28.0216 28.7786 29.3553 29.6296 30.4616L32.8001 28.0228C32.6094 27.7749 32.4336 27.3639 32.4336 26.625H28.4336ZM29.6478 30.485C30.6705 31.7744 32.1116 32.375 33.7148 32.375V28.375C33.1827 28.375 32.9571 28.2204 32.7818 27.9994L29.6478 30.485ZM33.7148 32.375C35.9881 32.375 37.8335 31.141 39.2504 29.2832L36.0699 26.8574C35.1431 28.0726 34.3583 28.375 33.7148 28.375V32.375ZM39.2479 29.2865C40.3697 27.8219 41.1563 26.1209 41.6317 24.2194L37.7511 23.2493C37.3932 24.6811 36.8256 25.8708 36.0724 26.8542L39.2479 29.2865ZM41.6302 24.2255C42.1871 22.0272 42.3096 19.8317 41.9816 17.6551L38.0262 18.2511C38.2712 19.8766 38.1853 21.5353 37.7527 23.2432L41.6302 24.2255ZM41.9767 17.6243C41.7918 16.5149 41.431 15.4166 40.72 14.5634C39.9389 13.626 38.8621 13.1406 37.6602 13.1406V17.1406C37.7174 17.1406 37.7099 17.15 37.6716 17.1323C37.6321 17.1141 37.6244 17.0968 37.6472 17.1241C37.7174 17.2084 37.9035 17.5164 38.0311 18.2819L41.9767 17.6243ZM47.9727 8.42188L47.6048 6.456L46.2422 6.71099L46.0027 8.07637L47.9727 8.42188ZM54.6523 7.17188L56.5864 7.68122L57.3914 4.62459L54.2845 5.206L54.6523 7.17188ZM50.668 25.5312L48.6927 25.2179L48.1291 28.7703L51.4441 27.3745L50.668 25.5312ZM54.3789 23.9688L55.155 25.812L56.1598 25.3889L56.3487 24.3152L54.3789 23.9688ZM57.1133 8.42188L56.7454 6.456L55.3835 6.71086L55.1435 8.07543L57.1133 8.42188ZM63.793 7.17188L65.7316 7.66362L66.501 4.6304L63.4251 5.206L63.793 7.17188ZM58.5195 34.3203L59.0498 36.2487L60.3608 35.8882L60.5078 34.5366L58.5195 34.3203ZM52.2695 36.0391L50.3012 35.6844L49.7382 38.8094L52.7998 37.9675L52.2695 36.0391ZM53.0508 31.7031L55.0191 32.0578L55.6859 28.357L52.2446 29.8728L53.0508 31.7031ZM43.1289 36.0391L41.159 35.6936L40.5164 39.3576L43.9271 37.8729L43.1289 36.0391ZM48.3405 10.3877L55.0202 9.13775L54.2845 5.206L47.6048 6.456L48.3405 10.3877ZM52.7183 6.66253C50.9089 13.5328 49.565 19.7197 48.6927 25.2179L52.6433 25.8446C53.4897 20.5095 54.802 14.4568 56.5864 7.68122L52.7183 6.66253ZM51.4441 27.3745L55.155 25.812L53.6028 22.1255L49.8919 23.688L51.4441 27.3745ZM56.3487 24.3152L59.083 8.76832L55.1435 8.07543L52.4091 23.6223L56.3487 24.3152ZM57.4812 10.3877L64.1609 9.13775L63.4251 5.206L56.7454 6.456L57.4812 10.3877ZM61.8544 6.68013C59.1328 17.4095 57.3522 26.5569 56.5313 34.104L60.5078 34.5366C61.3015 27.2399 63.0365 18.2884 65.7316 7.66362L61.8544 6.68013ZM57.9892 32.3919L51.7392 34.1107L52.7998 37.9675L59.0498 36.2487L57.9892 32.3919ZM54.2378 36.3937L55.0191 32.0578L51.0825 31.3485L50.3012 35.6844L54.2378 36.3937ZM52.2446 29.8728C50.0612 30.8345 46.7572 32.2784 42.3307 34.2053L43.9271 37.8729C48.3548 35.9455 51.6653 34.4988 53.857 33.5334L52.2446 29.8728ZM45.0988 36.3846L49.9426 8.76738L46.0027 8.07637L41.159 35.6936L45.0988 36.3846ZM74.1836 4.47656L76.0606 5.16697L77.1345 2.24753L74.0327 2.48226L74.1836 4.47656ZM70.707 16.8203L71.0142 18.7966L72.4286 18.5767L72.6767 17.1671L70.707 16.8203ZM63.168 17.9922L61.2482 17.4313L60.3657 20.4518L63.4752 19.9685L63.168 17.9922ZM66.957 5.02344L66.8061 3.02914L65.4256 3.13361L65.0373 4.46255L66.957 5.02344ZM72.3065 3.78615C70.6098 8.39914 69.4138 12.6309 68.7373 16.4735L72.6767 17.1671C73.3023 13.6139 74.424 9.61648 76.0606 5.16697L72.3065 3.78615ZM70.3998 14.844L62.8608 16.0159L63.4752 19.9685L71.0142 18.7966L70.3998 14.844ZM65.0877 18.5531L68.8768 5.58433L65.0373 4.46255L61.2482 17.4313L65.0877 18.5531ZM67.108 7.01774L74.3345 6.47086L74.0327 2.48226L66.8061 3.02914L67.108 7.01774ZM74.1445 8.38281L73.571 6.46682L72.386 6.82155L72.1741 8.04013L74.1445 8.38281ZM89.418 10.2188L87.4181 10.1975L87.418 10.2039L89.418 10.2188ZM82.7773 20.8047L81.5235 19.2466L80.4038 20.1476L80.9007 21.4961L82.7773 20.8047ZM87.3086 30.1406L88.6652 31.6102L89.7765 30.5843L89.0921 29.2356L87.3086 30.1406ZM81.1758 35.6484L79.311 36.3714L80.35 39.0515L82.5019 37.1456L81.1758 35.6484ZM76.9961 24.8672L78.8609 24.1443L78.3658 22.8672H76.9961V24.8672ZM76.957 24.8672V22.8672H75.2902L74.9898 24.5068L76.957 24.8672ZM75.5508 34.3203L76.0873 36.247L77.3935 35.8833L77.5392 34.5353L75.5508 34.3203ZM69.3789 36.0391L67.3871 35.858L67.1249 38.7429L69.9155 37.9657L69.3789 36.0391ZM70.2383 30.8438L72.2066 31.1984L72.2087 31.1864L70.2383 30.8438ZM79.0664 14.5547L78.4211 12.6617L77.4071 13.0073L77.133 14.0429L79.0664 14.5547ZM78.4414 17.2109L80.4003 17.6142L78.4414 17.2109ZM77.8945 19.8672L75.9356 19.4639L75.0929 23.557L78.8092 21.6458L77.8945 19.8672ZM80.5898 18.0312L81.8877 19.5529L81.896 19.5459L81.9041 19.5388L80.5898 18.0312ZM82.6211 15.4922L80.8728 14.5209L80.8193 14.6172L80.7767 14.7187L82.6211 15.4922ZM74.7181 10.2988C78.7231 9.09985 81.8576 8.54688 84.1836 8.54688V4.54688C81.3012 4.54688 77.743 5.21786 73.571 6.46682L74.7181 10.2988ZM84.1836 8.54688C85.7726 8.54688 86.5995 8.835 86.9803 9.10216C87.2261 9.27458 87.4253 9.51937 87.4181 10.1975L91.4179 10.24C91.4367 8.47021 90.7765 6.87907 89.2775 5.82753C87.9135 4.87073 86.1102 4.54688 84.1836 4.54688V8.54688ZM87.418 10.2039C87.3985 12.8329 85.7384 15.8546 81.5235 19.2466L84.0312 22.3628C88.6184 18.6714 91.3853 14.6358 91.4179 10.2336L87.418 10.2039ZM80.9007 21.4961C81.3166 22.625 82.8997 25.8722 85.5251 31.0457L89.0921 29.2356C86.405 23.9403 84.9673 20.9636 84.654 20.1133L80.9007 21.4961ZM85.952 28.671C84.6135 29.9066 82.5817 31.7315 79.8497 34.1513L82.5019 37.1456C85.2386 34.7216 87.2954 32.8746 88.6652 31.6102L85.952 28.671ZM83.0406 34.9255L78.8609 24.1443L75.1313 25.5901L79.311 36.3714L83.0406 34.9255ZM76.9961 22.8672H76.957V26.8672H76.9961V22.8672ZM74.9898 24.5068C74.3576 27.9576 73.881 31.1578 73.5624 34.1053L77.5392 34.5353C77.8455 31.7016 78.3065 28.5997 78.9243 25.2276L74.9898 24.5068ZM75.0142 32.3936L68.8424 34.1124L69.9155 37.9657L76.0873 36.247L75.0142 32.3936ZM71.3707 36.2201C71.4128 35.7574 71.6775 34.1349 72.2066 31.1984L68.27 30.4891C67.7574 33.3338 67.4492 35.1749 67.3871 35.858L71.3707 36.2201ZM72.2087 31.1864L76.115 8.72549L72.1741 8.04013L68.2679 30.5011L72.2087 31.1864ZM77.133 14.0429C76.8892 14.9638 76.6724 15.8853 76.4825 16.8076L80.4003 17.6142C80.575 16.7657 80.7748 15.9164 80.9998 15.0665L77.133 14.0429ZM76.4825 16.8076L75.9356 19.4639L79.8534 20.2705L80.4003 17.6142L76.4825 16.8076ZM78.8092 21.6458C79.8749 21.0977 80.9004 20.395 81.8877 19.5529L79.292 16.5096C78.5084 17.1779 77.7371 17.6992 76.9798 18.0886L78.8092 21.6458ZM81.9041 19.5388C83.0377 18.5505 83.962 17.4662 84.4655 16.2656L80.7767 14.7187C80.6031 15.1328 80.1732 15.7412 79.2756 16.5237L81.9041 19.5388ZM84.3694 16.4635C84.6185 16.0151 84.8164 15.4603 84.8164 14.8281H80.8164C80.8164 14.6127 80.8841 14.5005 80.8728 14.5209L84.3694 16.4635ZM84.8164 14.8281C84.8164 14.0622 84.5352 13.192 83.742 12.5902C83.0531 12.0676 82.2571 11.9688 81.6836 11.9688V15.9688C81.8653 15.9688 81.6357 16.0131 81.3244 15.777C81.1505 15.645 81.0057 15.4641 80.9146 15.2567C80.8286 15.0611 80.8164 14.9022 80.8164 14.8281H84.8164ZM81.6836 11.9688C80.7394 11.9688 79.6074 12.2572 78.4211 12.6617L79.7118 16.4477C80.8171 16.0709 81.4298 15.9688 81.6836 15.9688V11.9688ZM95.3945 14.2422L95.0814 12.2669L93.8091 12.4686L93.4665 13.7103L95.3945 14.2422ZM94.8477 16.4688L92.8921 16.0497L92.8892 16.0631L92.8865 16.0765L94.8477 16.4688ZM94.418 18.6172L92.4568 18.225L91.8607 21.2053L94.8337 20.5735L94.418 18.6172ZM100.668 17.2891L102.664 17.4192L102.836 14.7838L100.252 15.3327L100.668 17.2891ZM100.316 22.6797L100.662 24.6496L102.21 24.378L102.312 22.8098L100.316 22.6797ZM93.3242 24.0469L92.8745 22.0981L91.6163 22.3884L91.3631 23.6546L93.3242 24.0469ZM93.0508 25.6094L95.0193 25.9627L95.0244 25.9344L95.0287 25.9061L93.0508 25.6094ZM92.7773 27.1328L90.8088 26.7795L90.3186 29.5107L93.0647 29.1121L92.7773 27.1328ZM100.043 26.0781L102.038 26.2176L102.211 23.7424L99.7557 24.0989L100.043 26.0781ZM99.5352 33.3438L99.7012 35.3368L101.411 35.1944L101.53 33.4832L99.5352 33.3438ZM85.2773 36.0391L83.3043 35.7116L82.8012 38.7432L85.7768 37.9757L85.2773 36.0391ZM89.9258 8.03125L89.6404 6.05171L88.1923 6.26045L87.9528 7.70379L89.9258 8.03125ZM102.934 6.15625L104.929 6.29644L105.102 3.82295L102.648 4.17671L102.934 6.15625ZM102.426 13.3828L102.609 15.3744L104.302 15.219L104.421 13.523L102.426 13.3828ZM93.4665 13.7103C93.2484 14.501 93.0568 15.2808 92.8921 16.0497L96.8033 16.8878C96.951 16.1983 97.124 15.4938 97.3225 14.774L93.4665 13.7103ZM92.8865 16.0765L92.4568 18.225L96.3791 19.0094L96.8088 16.861L92.8865 16.0765ZM94.8337 20.5735L101.084 19.2454L100.252 15.3327L94.0023 16.6609L94.8337 20.5735ZM98.6722 17.1589L98.3206 22.5495L102.312 22.8098L102.664 17.4192L98.6722 17.1589ZM99.9708 20.7098C96.9885 21.233 94.6178 21.6958 92.8745 22.0981L93.7739 25.9957C95.4161 25.6167 97.7069 25.168 100.662 24.6496L99.9708 20.7098ZM91.3631 23.6546C91.2526 24.2069 91.1559 24.7596 91.0729 25.3127L95.0287 25.9061C95.1019 25.4175 95.1875 24.9285 95.2854 24.4391L91.3631 23.6546ZM91.0822 25.256L90.8088 26.7795L94.7459 27.4861L95.0193 25.9627L91.0822 25.256ZM93.0647 29.1121L100.33 28.0574L99.7557 24.0989L92.49 25.1536L93.0647 29.1121ZM98.0478 25.9387L97.54 33.2043L101.53 33.4832L102.038 26.2176L98.0478 25.9387ZM99.3691 31.3507C95.4614 31.6763 90.5875 32.604 84.7779 34.1024L85.7768 37.9757C91.4776 36.5053 96.1089 35.6362 99.7012 35.3368L99.3691 31.3507ZM87.2504 36.3665L91.8988 8.35871L87.9528 7.70379L83.3043 35.7116L87.2504 36.3665ZM90.2111 10.0108L103.219 8.13579L102.648 4.17671L89.6404 6.05171L90.2111 10.0108ZM100.939 6.01606L100.431 13.2426L104.421 13.523L104.929 6.29644L100.939 6.01606ZM102.243 11.3912C99.6549 11.6289 97.267 11.9203 95.0814 12.2669L95.7077 16.2175C97.7929 15.8869 100.092 15.6055 102.609 15.3744L102.243 11.3912ZM112.699 8.42188L112.331 6.456L110.969 6.71099L110.729 8.07637L112.699 8.42188ZM119.379 7.17188L121.313 7.68122L122.118 4.62459L119.011 5.206L119.379 7.17188ZM115.395 25.5312L113.419 25.2179L112.856 28.7703L116.171 27.3745L115.395 25.5312ZM119.105 23.9688L119.882 25.812L120.886 25.3889L121.075 24.3152L119.105 23.9688ZM121.84 8.42188L121.472 6.456L120.11 6.71086L119.87 8.07543L121.84 8.42188ZM128.52 7.17188L130.458 7.66362L131.228 4.6304L128.152 5.206L128.52 7.17188ZM123.246 34.3203L123.776 36.2487L125.087 35.8882L125.234 34.5366L123.246 34.3203ZM116.996 36.0391L115.028 35.6844L114.465 38.8094L117.526 37.9675L116.996 36.0391ZM117.777 31.7031L119.746 32.0578L120.412 28.357L116.971 29.8728L117.777 31.7031ZM107.855 36.0391L105.886 35.6936L105.243 39.3576L108.654 37.8729L107.855 36.0391ZM113.067 10.3877L119.747 9.13775L119.011 5.206L112.331 6.456L113.067 10.3877ZM117.445 6.66253C115.636 13.5328 114.292 19.7197 113.419 25.2179L117.37 25.8446C118.216 20.5095 119.529 14.4568 121.313 7.68122L117.445 6.66253ZM116.171 27.3745L119.882 25.812L118.329 22.1255L114.618 23.688L116.171 27.3745ZM121.075 24.3152L123.81 8.76832L119.87 8.07543L117.136 23.6223L121.075 24.3152ZM122.208 10.3877L128.887 9.13775L128.152 5.206L121.472 6.456L122.208 10.3877ZM126.581 6.68013C123.859 17.4095 122.079 26.5569 121.258 34.104L125.234 34.5366C126.028 27.2399 127.763 18.2884 130.458 7.66362L126.581 6.68013ZM122.716 32.3919L116.466 34.1107L117.526 37.9675L123.776 36.2487L122.716 32.3919ZM118.964 36.3937L119.746 32.0578L115.809 31.3485L115.028 35.6844L118.964 36.3937ZM116.971 29.8728C114.788 30.8345 111.484 32.2784 107.057 34.2053L108.654 37.8729C113.081 35.9455 116.392 34.4988 118.584 33.5334L116.971 29.8728ZM109.825 36.3846L114.669 8.76738L110.729 8.07637L105.886 35.6936L109.825 36.3846ZM129.848 8.53906L129.451 6.57878L128.114 6.84935L127.878 8.19329L129.848 8.53906ZM136.605 7.17188L138.601 7.30064L138.77 4.69354L136.209 5.21159L136.605 7.17188ZM136.879 19.9453L138.872 19.7764L138.871 19.7712L136.879 19.9453ZM137.465 23.6562L135.538 24.1915L139.435 23.9998L137.465 23.6562ZM140.121 8.42188L139.755 6.45561L138.389 6.70972L138.151 8.07834L140.121 8.42188ZM146.84 7.17188L148.776 7.67397L149.565 4.63053L146.474 5.20561L146.84 7.17188ZM141.527 34.3203L142.064 36.247L143.369 35.8835L143.516 34.5367L141.527 34.3203ZM135.355 36.0391L133.567 36.9335L134.304 38.408L135.892 37.9657L135.355 36.0391ZM134.848 34.6719L132.961 35.3348L132.964 35.3451L132.968 35.3554L134.848 34.6719ZM132.816 28.8906L134.703 28.2277L134.7 28.2195L134.698 28.2113L132.816 28.8906ZM132.23 27.0938L134.192 26.7015L130.261 26.7433L132.23 27.0938ZM130.941 36.0391L131.516 37.9547L132.787 37.5734L132.93 36.254L130.941 36.0391ZM124.691 37.9141L122.722 37.5683L122.161 40.7612L125.266 39.8297L124.691 37.9141ZM130.244 10.4993L137.002 9.13216L136.209 5.21159L129.451 6.57878L130.244 10.4993ZM134.61 7.04311C134.553 7.91481 134.527 9.11109 134.527 10.6094H138.527C138.527 9.13891 138.553 8.04352 138.601 7.30064L134.61 7.04311ZM134.527 10.6094C134.527 14.1922 134.646 17.3645 134.886 20.1194L138.871 19.7712C138.643 17.1615 138.527 14.1099 138.527 10.6094H134.527ZM134.886 20.1142C135.021 21.7118 135.231 23.0858 135.538 24.1915L139.392 23.121C139.178 22.3517 138.997 21.2518 138.872 19.7764L134.886 20.1142ZM139.435 23.9998L142.091 8.76541L138.151 8.07834L135.495 23.3127L139.435 23.9998ZM140.487 10.3881L147.206 9.13814L146.474 5.20561L139.755 6.45561L140.487 10.3881ZM144.904 6.66978C142.18 17.1722 140.386 26.3217 139.539 34.1039L143.516 34.5367C144.335 27.0064 146.083 18.0569 148.776 7.67397L144.904 6.66978ZM140.991 32.3936L134.819 34.1124L135.892 37.9657L142.064 36.247L140.991 32.3936ZM137.144 35.1446C137.182 35.2201 137.205 35.2793 137.193 35.251C137.192 35.2469 137.186 35.2333 137.176 35.2064C137.155 35.1535 137.125 35.0732 137.084 34.9618C137.002 34.7405 136.883 34.4168 136.727 33.9884L132.968 35.3554C133.125 35.7863 133.247 36.1202 133.334 36.3546C133.389 36.5019 133.491 36.7815 133.567 36.9335L137.144 35.1446ZM136.735 34.0089L134.703 28.2277L130.929 29.5536L132.961 35.3348L136.735 34.0089ZM134.698 28.2113C134.532 27.7524 134.406 27.3899 134.317 27.1182C134.273 26.9825 134.241 26.8774 134.218 26.7993C134.194 26.7144 134.189 26.6883 134.192 26.7015L130.269 27.486C130.357 27.9245 130.614 28.6791 130.935 29.5699L134.698 28.2113ZM130.261 26.7433C129.707 29.8579 129.271 32.8849 128.953 35.8241L132.93 36.254C133.237 33.4119 133.66 30.4754 134.2 27.4442L130.261 26.7433ZM130.367 34.1234L124.117 35.9984L125.266 39.8297L131.516 37.9547L130.367 34.1234ZM126.661 38.2598L131.818 8.88484L127.878 8.19329L122.722 37.5683L126.661 38.2598ZM161.566 15.3359L162.269 17.2086L163.415 16.7786L163.554 15.5618L161.566 15.3359ZM158.598 16.4688L157.877 14.6032L157.876 14.6033L158.598 16.4688ZM155.668 17.6016H153.668V20.5192L156.389 19.467L155.668 17.6016ZM151.762 17.4062L150.261 16.0842L150.245 16.1024L150.229 16.121L151.762 17.4062ZM150.902 19.75L148.921 20.0233L148.924 20.0426L148.927 20.0619L150.902 19.75ZM154.34 20.2578L154.72 22.2214L154.735 22.2185L154.75 22.2154L154.34 20.2578ZM161.137 22.1719L163.089 21.738L163.085 21.7203L163.081 21.7026L161.137 22.1719ZM159.418 29.0469L157.74 27.9585L157.733 27.9698L159.418 29.0469ZM152.621 35.4141L151.606 33.691L151.601 33.694L152.621 35.4141ZM144.105 35.6484L142.259 34.8792L141.585 36.4984L143.102 37.3785L144.105 35.6484ZM147.23 28.7344L148.364 27.0863L146.423 25.7519L145.42 27.8835L147.23 28.7344ZM151.176 29.3984L150.676 27.4619L150.644 27.4703L150.611 27.4797L151.176 29.3984ZM153.48 28.5L154.425 30.263L154.435 30.2577L154.444 30.2524L153.48 28.5ZM150.238 26.2344L150.645 28.1926L150.658 28.1898L150.672 28.1867L150.238 26.2344ZM144.848 26.1172L145.995 24.4787L145.976 24.4657L145.957 24.4531L144.848 26.1172ZM143.598 22.9531L145.582 23.2056L145.583 23.1957L145.584 23.1858L143.598 22.9531ZM149.184 12.9141L150.677 14.2441L150.68 14.2409L149.184 12.9141ZM158.129 6.78125L158 4.7854L157.992 4.78594L157.983 4.78655L158.129 6.78125ZM160.864 13.4633C160.023 13.7788 159.027 14.1589 157.877 14.6032L159.318 18.3343C160.46 17.8932 161.443 17.5181 162.269 17.2086L160.864 13.4633ZM157.876 14.6033L154.947 15.7362L156.389 19.467L159.319 18.3342L157.876 14.6033ZM157.668 17.6016C157.668 16.8707 157.578 16.005 157.164 15.2565C156.94 14.852 156.606 14.455 156.129 14.1673C155.648 13.8776 155.133 13.7656 154.652 13.7656V17.7656C154.511 17.7656 154.291 17.7301 154.064 17.5934C153.841 17.4587 153.718 17.2912 153.664 17.1927C153.616 17.1057 153.622 17.0772 153.638 17.161C153.652 17.2406 153.668 17.382 153.668 17.6016H157.668ZM154.652 13.7656C152.873 13.7656 151.409 14.7815 150.261 16.0842L153.262 18.7283C154.042 17.8435 154.504 17.7656 154.652 17.7656V13.7656ZM150.229 16.121C149.333 17.1898 148.714 18.5198 148.921 20.0233L152.884 19.4767C152.883 19.4698 152.836 19.2373 153.294 18.6915L150.229 16.121ZM148.927 20.0619C149.078 21.021 149.683 21.718 150.438 22.0955C151.087 22.4201 151.798 22.4922 152.387 22.4922V18.4922C152.245 18.4922 152.163 18.4822 152.128 18.4761C152.09 18.4694 152.135 18.4723 152.226 18.5178C152.324 18.5665 152.48 18.6678 152.622 18.8526C152.77 19.0437 152.849 19.2537 152.878 19.4381L148.927 20.0619ZM152.387 22.4922C153.065 22.4922 153.858 22.3882 154.72 22.2214L153.96 18.2943C153.207 18.4399 152.698 18.4922 152.387 18.4922V22.4922ZM154.75 22.2154C155.776 22.0006 156.624 21.9062 157.309 21.9062V17.9062C156.275 17.9062 155.143 18.0463 153.93 18.3002L154.75 22.2154ZM157.309 21.9062C158.203 21.9062 158.671 22.0656 158.888 22.1938C159.036 22.2819 159.13 22.383 159.193 22.6412L163.081 21.7026C162.779 20.4504 162.052 19.4187 160.925 18.7515C159.866 18.1245 158.602 17.9062 157.309 17.9062V21.9062ZM159.184 22.6057C159.254 22.9206 159.293 23.2691 159.293 23.6562H163.293C163.293 23.0017 163.227 22.3607 163.089 21.738L159.184 22.6057ZM159.293 23.6562C159.293 24.8163 158.857 26.2371 157.74 27.9585L161.096 30.1353C162.479 28.0025 163.293 25.8295 163.293 23.6562H159.293ZM157.733 27.9698C156.308 30.1983 154.287 32.1111 151.606 33.691L153.636 37.1371C156.789 35.2795 159.298 32.9475 161.103 30.124L157.733 27.9698ZM151.601 33.694C150.31 34.4596 149.148 34.7812 148.09 34.7812V38.7812C150 38.7812 151.859 38.1915 153.641 37.1342L151.601 33.694ZM148.09 34.7812C147.126 34.7812 146.141 34.517 145.109 33.9184L143.102 37.3785C144.674 38.2903 146.345 38.7812 148.09 38.7812V34.7812ZM145.952 36.4177C146.585 34.8978 147.611 32.6259 149.04 29.5852L145.42 27.8835C143.985 30.9366 142.928 33.2741 142.259 34.8792L145.952 36.4177ZM146.097 30.3825C147.237 31.1656 148.512 31.5938 149.887 31.5938V27.5938C149.386 27.5938 148.891 27.4489 148.364 27.0863L146.097 30.3825ZM149.887 31.5938C150.514 31.5938 151.134 31.4956 151.74 31.3172L150.611 27.4797C150.333 27.5617 150.093 27.5938 149.887 27.5938V31.5938ZM151.676 31.335C152.636 31.0871 153.554 30.7296 154.425 30.263L152.536 26.737C151.949 27.0517 151.33 27.2931 150.676 27.4619L151.676 31.335ZM154.444 30.2524C155.073 29.9069 155.678 29.4872 156.147 28.9596C156.63 28.4161 157.043 27.6667 157.043 26.7422H153.043C153.043 26.5931 153.077 26.469 153.114 26.3842C153.149 26.3057 153.177 26.2798 153.158 26.3021C153.137 26.3248 153.083 26.3798 152.973 26.4615C152.864 26.5423 152.715 26.6387 152.517 26.7476L154.444 30.2524ZM157.043 26.7422C157.043 25.7543 156.575 24.8459 155.684 24.3022C154.953 23.8564 154.113 23.7656 153.441 23.7656V27.7656C153.613 27.7656 153.707 27.7792 153.744 27.7866C153.783 27.7945 153.716 27.7874 153.601 27.7174C153.473 27.6392 153.309 27.4965 153.188 27.2743C153.069 27.0558 153.043 26.8575 153.043 26.7422H157.043ZM153.441 23.7656C152.486 23.7656 151.243 23.9622 149.804 24.282L150.672 28.1867C152.046 27.8815 152.939 27.7656 153.441 27.7656V23.7656ZM149.832 24.2761C148.486 24.5554 147.593 24.6641 147.074 24.6641V28.6641C148.014 28.6641 149.23 28.4862 150.645 28.1926L149.832 24.2761ZM147.074 24.6641C146.322 24.6641 146.047 24.5152 145.995 24.4787L143.701 27.7557C144.69 28.4483 145.899 28.6641 147.074 28.6641V24.6641ZM145.957 24.4531C145.761 24.3224 145.681 24.2025 145.634 24.0835C145.578 23.9439 145.522 23.6768 145.582 23.2056L141.614 22.7006C141.491 23.6617 141.552 24.6382 141.913 25.5532C142.283 26.4889 142.919 27.2349 143.738 27.7813L145.957 24.4531ZM145.584 23.1858C145.851 20.9082 147.384 17.9427 150.677 14.2441L147.69 11.5841C144.212 15.4896 142.022 19.2168 141.611 22.7205L145.584 23.1858ZM150.68 14.2409C152.347 12.361 153.837 10.9998 155.148 10.1007C156.469 9.19556 157.5 8.8324 158.274 8.77595L157.983 4.78655C156.258 4.91239 154.548 5.66252 152.887 6.80162C151.216 7.94682 149.484 9.56092 147.687 11.5872L150.68 14.2409ZM158.258 8.7771C158.849 8.73898 159.028 8.89729 159.188 9.1379C159.467 9.55864 159.762 10.4866 159.762 12.25H163.762C163.762 10.2113 163.451 8.32678 162.519 6.9246C161.468 5.34229 159.831 4.66727 158 4.7854L158.258 8.7771ZM159.762 12.25C159.762 13.0693 159.703 14.0206 159.579 15.1101L163.554 15.5618C163.69 14.3596 163.762 13.2536 163.762 12.25H159.762ZM179.418 6.78125L181.417 6.84573L181.492 4.52829L179.188 4.79447L179.418 6.78125ZM179.184 14.0469L179.298 16.0436L181.124 15.9393L181.183 14.1114L179.184 14.0469ZM173.988 14.4375L173.799 12.4465L172.374 12.5822L172.043 13.9739L173.988 14.4375ZM170.512 34.3203L171.016 36.2558L172.364 35.9046L172.502 34.5176L170.512 34.3203ZM163.91 36.0391L161.939 35.6983L161.411 38.7565L164.414 37.9745L163.91 36.0391ZM167.504 15.2578L169.475 15.5986L169.946 12.8742L167.211 13.2794L167.504 15.2578ZM165.395 15.6094L165.03 13.6428L165.024 13.6441L165.395 15.6094ZM163.324 16L161.328 16.1281L161.473 18.3846L163.695 17.9653L163.324 16ZM162.855 8.69531L162.626 6.70854L160.738 6.92672L160.86 8.82339L162.855 8.69531ZM177.419 6.71677L177.185 13.9824L181.183 14.1114L181.417 6.84573L177.419 6.71677ZM179.069 12.0501C177.224 12.1556 175.467 12.2876 173.799 12.4465L174.178 16.4285C175.791 16.2749 177.497 16.1465 179.298 16.0436L179.069 12.0501ZM172.043 13.9739C170.307 21.2567 169.131 27.9746 168.521 34.123L172.502 34.5176C173.09 28.5826 174.232 22.0454 175.934 14.9011L172.043 13.9739ZM170.008 32.3848L163.406 34.1036L164.414 37.9745L171.016 36.2558L170.008 32.3848ZM165.881 36.3799L169.475 15.5986L165.533 14.917L161.939 35.6983L165.881 36.3799ZM167.211 13.2794C166.484 13.3871 165.757 13.5083 165.03 13.6428L165.759 17.5759C166.438 17.4501 167.118 17.3368 167.797 17.2362L167.211 13.2794ZM165.024 13.6441L162.953 14.0347L163.695 17.9653L165.765 17.5747L165.024 13.6441ZM165.32 15.8719L164.851 8.56723L160.86 8.82339L161.328 16.1281L165.32 15.8719ZM163.085 10.6821L179.648 8.76803L179.188 4.79447L162.626 6.70854L163.085 10.6821ZM195.824 10.0625L193.95 10.7613L193.953 10.7681L195.824 10.0625ZM195.902 21.2344L197.836 21.7454L197.838 21.738L197.84 21.7306L195.902 21.2344ZM190.902 31.3125L189.319 30.0911L189.318 30.0915L190.902 31.3125ZM175.785 32.3281L173.915 33.0374L173.916 33.0408L175.785 32.3281ZM175.785 21.2344L177.718 21.7468L177.72 21.742L175.785 21.2344ZM180.746 11.1172L179.158 9.90147L179.156 9.90429L180.746 11.1172ZM184.184 18.6562L185.862 19.7437L185.868 19.7351L185.873 19.7264L184.184 18.6562ZM181.684 24.0859L179.75 23.5742L179.747 23.5875L179.743 23.6009L181.684 24.0859ZM182.113 29.2422L180.528 30.4616L180.537 30.4734L180.546 30.485L182.113 29.2422ZM188.559 28.0703L186.971 26.8542L186.968 26.8574L188.559 28.0703ZM190.59 23.7344L188.651 23.2432L188.65 23.2493L190.59 23.7344ZM190.902 17.9531L192.88 17.6551L192.878 17.6397L192.875 17.6243L190.902 17.9531ZM189.965 7.45312C190.949 7.45312 191.679 7.71734 192.263 8.17738C192.873 8.65694 193.466 9.4616 193.95 10.7613L197.698 9.36374C197.037 7.59048 196.08 6.09046 194.737 5.03356C193.368 3.95714 191.741 3.45312 189.965 3.45312V7.45312ZM193.953 10.7681C194.457 12.1057 194.723 13.6082 194.723 15.2969H198.723C198.723 13.1835 198.389 11.1963 197.696 9.35689L193.953 10.7681ZM194.723 15.2969C194.723 16.9219 194.479 18.7324 193.965 20.7382L197.84 21.7306C198.42 19.4656 198.723 17.3177 198.723 15.2969H194.723ZM193.969 20.7233C193.075 24.1039 191.53 27.223 189.319 30.0911L192.486 32.5339C195.014 29.2561 196.802 25.6565 197.836 21.7454L193.969 20.7233ZM189.318 30.0915C186.623 33.5887 184.082 34.9375 181.723 34.9375V38.9375C185.821 38.9375 189.401 36.5363 192.486 32.5335L189.318 30.0915ZM181.723 34.9375C180.721 34.9375 179.974 34.6706 179.375 34.2053C178.752 33.7218 178.149 32.914 177.654 31.6155L173.916 33.0408C174.593 34.8151 175.566 36.3121 176.922 37.365C178.302 38.4362 179.938 38.9375 181.723 38.9375V34.9375ZM177.655 31.6188C177.181 30.3683 176.926 28.921 176.926 27.25H172.926C172.926 29.329 173.244 31.2671 173.915 33.0374L177.655 31.6188ZM176.926 27.25C176.926 25.6056 177.181 23.7747 177.718 21.7468L173.852 20.7219C173.244 23.017 172.926 25.1964 172.926 27.25H176.926ZM177.72 21.742C178.615 18.3303 180.15 15.1968 182.336 12.3301L179.156 9.90429C176.655 13.1834 174.882 16.7947 173.851 20.7267L177.72 21.742ZM182.334 12.3329C185.028 8.8134 187.581 7.45312 189.965 7.45312V3.45312C185.839 3.45312 182.245 5.86889 179.158 9.90147L182.334 12.3329ZM188.559 13.1406C185.998 13.1406 184.019 15.1785 182.494 17.5861L185.873 19.7264C187.317 17.4465 188.255 17.1406 188.559 17.1406V13.1406ZM182.505 17.5688C181.215 19.5602 180.283 21.5626 179.75 23.5742L183.617 24.5977C184.022 23.0676 184.756 21.4502 185.862 19.7437L182.505 17.5688ZM179.743 23.6009C179.48 24.6552 179.332 25.6682 179.332 26.625H183.332C183.332 26.0714 183.419 25.3916 183.624 24.571L179.743 23.6009ZM179.332 26.625C179.332 28.0216 179.677 29.3553 180.528 30.4616L183.699 28.0228C183.508 27.7749 183.332 27.3639 183.332 26.625H179.332ZM180.546 30.485C181.569 31.7744 183.01 32.375 184.613 32.375V28.375C184.081 28.375 183.856 28.2204 183.68 27.9994L180.546 30.485ZM184.613 32.375C186.886 32.375 188.732 31.141 190.149 29.2832L186.968 26.8574C186.042 28.0726 185.257 28.375 184.613 28.375V32.375ZM190.146 29.2865C191.268 27.8219 192.055 26.1209 192.53 24.2194L188.65 23.2493C188.292 24.6811 187.724 25.8708 186.971 26.8542L190.146 29.2865ZM192.529 24.2255C193.086 22.0272 193.208 19.8317 192.88 17.6551L188.925 18.2511C189.17 19.8766 189.084 21.5353 188.651 23.2432L192.529 24.2255ZM192.875 17.6243C192.69 16.5149 192.329 15.4166 191.618 14.5634C190.837 13.626 189.761 13.1406 188.559 13.1406V17.1406C188.616 17.1406 188.608 17.15 188.57 17.1323C188.531 17.1141 188.523 17.0968 188.546 17.1241C188.616 17.2084 188.802 17.5164 188.93 18.2819L192.875 17.6243ZM198.441 8.38281L197.861 6.46887L195.592 7.1568L196.653 9.27724L198.441 8.38281ZM213.559 10.2188L211.559 10.1762L211.559 10.187L213.559 10.2188ZM201.137 25.4922L200.057 23.8086L199.323 24.2792L199.168 25.1373L201.137 25.4922ZM199.887 34.3203L200.42 36.2479L201.746 35.881L201.878 34.5117L199.887 34.3203ZM193.676 36.0391L191.694 35.7688L191.284 38.7761L194.209 37.9666L193.676 36.0391ZM194.613 30.8047L196.579 31.1733L196.58 31.1698L194.613 30.8047ZM196.332 21.5469L198.298 21.9119L198.3 21.902L196.332 21.5469ZM203.363 14.6328L202.765 12.7245L201.695 13.0601L201.423 14.1477L203.363 14.6328ZM202.855 16.8203L200.9 16.4013L200.897 16.4146L200.894 16.4281L202.855 16.8203ZM202.426 18.9688L200.465 18.5765L199.667 22.5646L203.312 20.7614L202.426 18.9688ZM207.113 15.1797L208.881 16.1155L208.892 16.0949L208.902 16.0741L207.113 15.1797ZM199.022 10.2968C202.973 9.09851 206.067 8.54688 208.363 8.54688V4.54688C205.504 4.54688 201.982 5.21919 197.861 6.46887L199.022 10.2968ZM208.363 8.54688C209.954 8.54688 210.773 8.83569 211.144 9.0981C211.377 9.26255 211.573 9.49743 211.559 10.1762L215.558 10.2613C215.596 8.49215 214.952 6.89109 213.453 5.83159C212.093 4.87003 210.288 4.54688 208.363 4.54688V8.54688ZM211.559 10.187C211.498 13.9991 208.211 18.5799 200.057 23.8086L202.216 27.1758C210.469 21.8836 215.463 16.2821 215.558 10.2505L211.559 10.187ZM199.168 25.1373C198.588 28.3589 198.162 31.3568 197.896 34.1289L201.878 34.5117C202.132 31.8672 202.54 28.9797 203.105 25.8471L199.168 25.1373ZM199.353 32.3928L193.142 34.1115L194.209 37.9666L200.42 36.2479L199.353 32.3928ZM195.657 36.3093C195.727 35.7987 196.027 34.1161 196.579 31.1733L192.648 30.4361C192.106 33.3266 191.781 35.1336 191.694 35.7688L195.657 36.3093ZM196.58 31.1698L198.298 21.9119L194.366 21.1818L192.647 30.4396L196.58 31.1698ZM198.3 21.902C199.069 17.6409 199.632 14.3995 199.987 12.1856C200.163 11.0818 200.292 10.2143 200.368 9.5967C200.405 9.29214 200.434 9.01804 200.448 8.79464C200.454 8.68658 200.46 8.55149 200.455 8.41296C200.453 8.34438 200.447 8.24089 200.429 8.12127C200.416 8.03557 200.375 7.77777 200.23 7.48839L196.653 9.27724C196.516 9.00413 196.482 8.77067 196.474 8.71737C196.46 8.63015 196.458 8.56712 196.457 8.54706C196.456 8.50558 196.458 8.49978 196.455 8.55326C196.449 8.65294 196.432 8.83091 196.398 9.1074C196.331 9.6519 196.212 10.4625 196.037 11.5527C195.689 13.7268 195.131 16.9372 194.364 21.1918L198.3 21.902ZM201.423 14.1477C201.235 14.8987 201.061 15.6498 200.9 16.4013L204.811 17.2394C204.963 16.5325 205.127 15.8253 205.304 15.1179L201.423 14.1477ZM200.894 16.4281L200.465 18.5765L204.387 19.361L204.817 17.2125L200.894 16.4281ZM203.312 20.7614C205.848 19.5075 207.878 18.0093 208.881 16.1155L205.346 14.2439C204.942 15.0063 203.848 16.0341 201.539 17.1761L203.312 20.7614ZM208.902 16.0741C209.052 15.7744 209.27 15.2693 209.27 14.6719H205.27C205.27 14.4805 205.306 14.3506 205.319 14.3083C205.334 14.2608 205.342 14.2508 205.324 14.2853L208.902 16.0741ZM209.27 14.6719C209.27 13.8847 208.936 13.0541 208.15 12.52C207.503 12.0797 206.783 12.0078 206.293 12.0078V16.0078C206.454 16.0078 206.223 16.0466 205.901 15.8277C205.714 15.7008 205.535 15.5106 205.413 15.2617C205.295 15.0218 205.27 14.8068 205.27 14.6719H209.27ZM206.293 12.0078C205.338 12.0078 204.108 12.3029 202.765 12.7245L203.962 16.5411C205.274 16.1293 205.998 16.0078 206.293 16.0078V12.0078ZM212.816 8.38281L212.236 6.46887L209.967 7.1568L211.028 9.27724L212.816 8.38281ZM227.934 10.2188L225.934 10.1762L225.934 10.187L227.934 10.2188ZM215.512 25.4922L214.432 23.8086L213.698 24.2792L213.543 25.1373L215.512 25.4922ZM214.262 34.3203L214.795 36.2479L216.121 35.881L216.253 34.5117L214.262 34.3203ZM208.051 36.0391L206.069 35.7688L205.659 38.7761L208.584 37.9666L208.051 36.0391ZM208.988 30.8047L210.954 31.1733L210.955 31.1698L208.988 30.8047ZM210.707 21.5469L212.673 21.9119L212.675 21.902L210.707 21.5469ZM217.738 14.6328L217.14 12.7245L216.07 13.0601L215.798 14.1477L217.738 14.6328ZM217.23 16.8203L215.275 16.4013L215.272 16.4146L215.269 16.4281L217.23 16.8203ZM216.801 18.9688L214.84 18.5765L214.042 22.5646L217.687 20.7614L216.801 18.9688ZM221.488 15.1797L223.256 16.1155L223.267 16.0949L223.277 16.0741L221.488 15.1797ZM213.397 10.2968C217.348 9.09851 220.442 8.54688 222.738 8.54688V4.54688C219.879 4.54688 216.357 5.21919 212.236 6.46887L213.397 10.2968ZM222.738 8.54688C224.329 8.54688 225.148 8.83569 225.519 9.0981C225.752 9.26255 225.948 9.49743 225.934 10.1762L229.933 10.2613C229.971 8.49215 229.327 6.89109 227.828 5.83159C226.468 4.87003 224.663 4.54688 222.738 4.54688V8.54688ZM225.934 10.187C225.873 13.9991 222.586 18.5799 214.432 23.8086L216.591 27.1758C224.844 21.8836 229.838 16.2821 229.933 10.2505L225.934 10.187ZM213.543 25.1373C212.963 28.3589 212.537 31.3568 212.271 34.1289L216.253 34.5117C216.507 31.8672 216.915 28.9797 217.48 25.8471L213.543 25.1373ZM213.728 32.3928L207.517 34.1115L208.584 37.9666L214.795 36.2479L213.728 32.3928ZM210.032 36.3093C210.102 35.7987 210.402 34.1161 210.954 31.1733L207.023 30.4361C206.481 33.3266 206.156 35.1336 206.069 35.7688L210.032 36.3093ZM210.955 31.1698L212.673 21.9119L208.741 21.1818L207.022 30.4396L210.955 31.1698ZM212.675 21.902C213.444 17.6409 214.007 14.3995 214.362 12.1856C214.538 11.0818 214.667 10.2143 214.743 9.5967C214.78 9.29214 214.809 9.01804 214.823 8.79464C214.829 8.68658 214.835 8.55149 214.83 8.41296C214.828 8.34438 214.822 8.24089 214.804 8.12127C214.791 8.03557 214.75 7.77777 214.605 7.48839L211.028 9.27724C210.891 9.00413 210.857 8.77067 210.849 8.71737C210.835 8.63015 210.833 8.56712 210.832 8.54706C210.831 8.50558 210.833 8.49978 210.83 8.55326C210.824 8.65294 210.807 8.83091 210.773 9.1074C210.706 9.6519 210.587 10.4625 210.412 11.5527C210.064 13.7268 209.506 16.9372 208.739 21.1918L212.675 21.902ZM215.798 14.1477C215.61 14.8987 215.436 15.6498 215.275 16.4013L219.186 17.2394C219.338 16.5325 219.502 15.8253 219.679 15.1179L215.798 14.1477ZM215.269 16.4281L214.84 18.5765L218.762 19.361L219.192 17.2125L215.269 16.4281ZM217.687 20.7614C220.223 19.5075 222.253 18.0093 223.256 16.1155L219.721 14.2439C219.317 15.0063 218.223 16.0341 215.914 17.1761L217.687 20.7614ZM223.277 16.0741C223.427 15.7744 223.645 15.2693 223.645 14.6719H219.645C219.645 14.4805 219.681 14.3506 219.694 14.3083C219.709 14.2608 219.717 14.2508 219.699 14.2853L223.277 16.0741ZM223.645 14.6719C223.645 13.8847 223.311 13.0541 222.525 12.52C221.878 12.0797 221.158 12.0078 220.668 12.0078V16.0078C220.829 16.0078 220.598 16.0466 220.276 15.8277C220.089 15.7008 219.91 15.5106 219.788 15.2617C219.67 15.0218 219.645 14.8068 219.645 14.6719H223.645ZM220.668 12.0078C219.713 12.0078 218.483 12.3029 217.14 12.7245L218.337 16.5411C219.649 16.1293 220.373 16.0078 220.668 16.0078V12.0078ZM219.535 36.5078L217.673 35.7779L216.407 39.0076L219.836 38.485L219.535 36.5078ZM228.832 8.26562L228.501 6.29319L227.225 6.50735L226.897 7.75965L228.832 8.26562ZM240.707 6.27344L242.678 6.61173L243.155 3.83485L240.376 4.301L240.707 6.27344ZM238.871 34.2812L239.321 36.2299L240.89 35.8673L240.871 34.2571L238.871 34.2812ZM230.59 36.1953L228.604 35.957L228.265 38.7855L231.04 38.1439L230.59 36.1953ZM231.176 31.3125L233.162 31.5508L233.488 28.8265L230.795 29.3491L231.176 31.3125ZM228.559 31.8203L228.178 29.8569L226.912 30.1024L226.613 31.3561L228.559 31.8203ZM227.738 35.2578L228.04 37.235L229.371 37.0321L229.684 35.722L227.738 35.2578ZM231.801 26.0781L232.162 28.0452L233.608 27.7796L233.786 26.3197L231.801 26.0781ZM233.598 11.3125L235.583 11.5541L235.856 9.3125H233.598V11.3125ZM233.559 11.3125V9.3125H231.986L231.615 10.8404L233.559 11.3125ZM229.887 26.4297L227.943 25.9576L227.215 28.9538L230.248 28.3968L229.887 26.4297ZM221.397 37.2377C225.251 27.4075 228.375 17.9185 230.767 8.7716L226.897 7.75965C224.549 16.7378 221.476 26.0769 217.673 35.7779L221.397 37.2377ZM229.163 10.2381L241.038 8.24587L240.376 4.301L228.501 6.29319L229.163 10.2381ZM238.736 5.93515C237.355 13.9784 236.74 23.4415 236.871 34.3054L240.871 34.2571C240.742 23.5585 241.35 14.3497 242.678 6.61173L238.736 5.93515ZM238.421 32.3326L230.139 34.2467L231.04 38.1439L239.321 36.2299L238.421 32.3326ZM232.576 36.4336L233.162 31.5508L229.19 31.0742L228.604 35.957L232.576 36.4336ZM230.795 29.3491L228.178 29.8569L228.94 33.7837L231.557 33.2759L230.795 29.3491ZM226.613 31.3561L225.793 34.7936L229.684 35.722L230.504 32.2845L226.613 31.3561ZM227.437 33.2806L219.234 34.5306L219.836 38.485L228.04 37.235L227.437 33.2806ZM233.786 26.3197L235.583 11.5541L231.612 11.0709L229.815 25.8365L233.786 26.3197ZM233.598 9.3125H233.559V13.3125H233.598V9.3125ZM231.615 10.8404L227.943 25.9576L231.83 26.9017L235.502 11.7846L231.615 10.8404ZM230.248 28.3968L232.162 28.0452L231.439 24.111L229.525 24.4626L230.248 28.3968ZM242.895 8.53906L242.586 6.56304L241.041 6.80434L240.902 8.3612L242.895 8.53906ZM247.582 7.48438L247.121 5.53821L247.109 5.54108L247.097 5.54409L247.582 7.48438ZM252.348 6.58594L252.237 4.58902L252.184 4.59194L252.132 4.59765L252.348 6.58594ZM258.832 10.2188L256.832 10.1975L256.832 10.2081V10.2188H258.832ZM252.426 20.6094L251.166 19.056L246.262 23.0329L252.561 22.6048L252.426 20.6094ZM257.074 22.875L259.03 22.4559L259.023 22.4263L259.016 22.397L257.074 22.875ZM254.379 29.9453L252.918 28.5793L252.916 28.5816L254.379 29.9453ZM249.066 34.0078L248.095 32.2595L248.094 32.2603L249.066 34.0078ZM238.793 36.0781L236.828 35.7043L236.399 37.9609L238.693 38.0756L238.793 36.0781ZM242.152 14.5547L240.172 14.2718L240.171 14.2855L242.152 14.5547ZM247.035 24.7891L246.534 22.8528L245.334 23.1633L245.078 24.377L247.035 24.7891ZM246.371 28.8125L244.39 28.5382L243.961 31.6385L246.954 30.7255L246.371 28.8125ZM249.184 14.3203L248.648 12.3933L247.517 12.7076L247.24 13.8491L249.184 14.3203ZM248.051 19.4766L246.094 19.0616L245.125 23.6294L249.1 21.1791L248.051 19.4766ZM252.113 15.4141L250.352 14.4659L250.348 14.4748L250.343 14.4838L252.113 15.4141ZM243.203 10.5151C244.139 10.3689 245.786 9.99505 248.067 9.42466L247.097 5.54409C244.795 6.11953 243.317 6.4488 242.586 6.56304L243.203 10.5151ZM248.043 9.43054C249.988 8.96983 251.485 8.69147 252.564 8.57423L252.132 4.59765C250.814 4.74082 249.134 5.06142 247.121 5.53821L248.043 9.43054ZM252.459 8.58286C252.893 8.55875 253.311 8.54688 253.715 8.54688V4.54688C253.233 4.54688 252.74 4.56104 252.237 4.58902L252.459 8.58286ZM253.715 8.54688C255.259 8.54688 256.048 8.83299 256.406 9.08979C256.636 9.2546 256.84 9.50106 256.832 10.1975L260.832 10.24C260.851 8.48852 260.214 6.89905 258.738 5.83989C257.39 4.87274 255.609 4.54688 253.715 4.54688V8.54688ZM256.832 10.2188C256.832 12.7976 255.243 15.7494 251.166 19.056L253.686 22.1628C258.15 18.5423 260.832 14.567 260.832 10.2188H256.832ZM252.561 22.6048C253.732 22.5252 254.392 22.6752 254.723 22.8369C254.958 22.9511 255.064 23.0754 255.132 23.353L259.016 22.397C258.668 20.9819 257.791 19.8822 256.476 19.2412C255.258 18.6478 253.802 18.5112 252.29 18.614L252.561 22.6048ZM255.119 23.2941C255.166 23.5145 255.191 23.7514 255.191 24.0078H259.191C259.191 23.483 259.139 22.9646 259.03 22.4559L255.119 23.2941ZM255.191 24.0078C255.191 25.2794 254.588 26.7939 252.918 28.5793L255.84 31.3113C257.92 29.0864 259.191 26.6425 259.191 24.0078H255.191ZM252.916 28.5816C251.646 29.944 250.048 31.1745 248.095 32.2595L250.038 35.7561C252.303 34.4974 254.247 33.0195 255.842 31.3091L252.916 28.5816ZM248.094 32.2603C245.903 33.4797 243.343 34.1172 240.355 34.1172V38.1172C243.931 38.1172 247.177 37.3484 250.039 35.7553L248.094 32.2603ZM240.355 34.1172C239.868 34.1172 239.38 34.105 238.893 34.0806L238.693 38.0756C239.247 38.1033 239.801 38.1172 240.355 38.1172V34.1172ZM240.758 36.4519C241.783 31.0634 242.908 23.8494 244.134 14.8239L240.171 14.2855C238.949 23.2808 237.834 30.4158 236.828 35.7043L240.758 36.4519ZM244.132 14.8375C244.499 12.2724 244.752 10.227 244.887 8.71693L240.902 8.3612C240.777 9.76775 240.535 11.7328 240.172 14.2718L244.132 14.8375ZM245.078 24.377C244.856 25.4326 244.627 26.8261 244.39 28.5382L248.352 29.0868C248.584 27.4135 248.798 26.1246 248.992 25.2011L245.078 24.377ZM246.954 30.7255C248.868 30.1418 250.475 29.47 251.643 28.6579C252.787 27.8628 253.879 26.6605 253.879 24.9844H249.879C249.879 24.7405 250.052 24.8924 249.361 25.3733C248.693 25.8373 247.546 26.3634 245.788 26.8995L246.954 30.7255ZM253.879 24.9844C253.879 23.9993 253.374 23.1448 252.529 22.662C251.851 22.2746 251.092 22.2031 250.512 22.2031V26.2031C250.65 26.2031 250.719 26.2135 250.736 26.2166C250.756 26.2205 250.674 26.2087 250.545 26.1349C250.403 26.0542 250.213 25.9016 250.066 25.6503C249.919 25.3982 249.879 25.1538 249.879 24.9844H253.879ZM250.512 22.2031C249.444 22.2031 248.086 22.4514 246.534 22.8528L247.536 26.7254C249.005 26.3455 249.965 26.2031 250.512 26.2031V22.2031ZM247.24 13.8491C247.027 14.727 246.827 15.6051 246.641 16.4834L250.554 17.3134C250.732 16.473 250.923 15.6323 251.127 14.7915L247.24 13.8491ZM246.641 16.4834L246.094 19.0616L250.007 19.8916L250.554 17.3134L246.641 16.4834ZM249.1 21.1791C251.221 19.872 252.868 18.2769 253.884 16.3443L250.343 14.4838C249.744 15.6242 248.683 16.7374 247.001 17.774L249.1 21.1791ZM253.874 16.3623C254.102 15.94 254.387 15.308 254.387 14.5938H250.387C250.387 14.5015 250.397 14.4319 250.404 14.3904C250.412 14.3486 250.42 14.3252 250.421 14.3226C250.422 14.3197 250.418 14.3305 250.407 14.3565C250.395 14.3821 250.378 14.4184 250.352 14.4659L253.874 16.3623ZM254.387 14.5938C254.387 13.773 254.022 12.9414 253.227 12.4218C252.58 11.9987 251.864 11.9297 251.371 11.9297V15.9297C251.555 15.9297 251.347 15.9714 251.038 15.7696C250.857 15.6509 250.671 15.4656 250.541 15.2116C250.416 14.9651 250.387 14.7399 250.387 14.5938H254.387ZM251.371 11.9297C250.575 11.9297 249.637 12.1186 248.648 12.3933L249.719 16.2473C250.605 16.0012 251.125 15.9297 251.371 15.9297V11.9297ZM260.98 8.42188L260.615 6.45561L259.248 6.70982L259.01 8.07908L260.98 8.42188ZM267.699 7.17188L269.635 7.67501L270.426 4.63019L267.333 5.20561L267.699 7.17188ZM263.363 27.1328L261.39 26.804L260.936 29.5285L263.667 29.1097L263.363 27.1328ZM270.238 26.0781L272.232 26.2389L272.435 23.7177L269.935 24.1013L270.238 26.0781ZM269.652 33.3438L269.828 35.336L271.51 35.1876L271.646 33.5045L269.652 33.3438ZM256.176 36.0391L254.205 35.6963L253.666 38.7966L256.702 37.9686L256.176 36.0391ZM261.346 10.3881L268.065 9.13814L267.333 5.20561L260.615 6.45561L261.346 10.3881ZM265.764 6.66874C263.877 13.9285 262.418 20.6412 261.39 26.804L265.336 27.4616C266.34 21.437 267.772 14.8423 269.635 7.67501L265.764 6.66874ZM263.667 29.1097L270.542 28.055L269.935 24.1013L263.06 25.1559L263.667 29.1097ZM268.245 25.9174L267.659 33.183L271.646 33.5045L272.232 26.2389L268.245 25.9174ZM269.477 31.3515C265.769 31.6787 261.149 32.6098 255.65 34.1095L256.702 37.9686C262.088 36.4996 266.453 35.6338 269.828 35.336L269.477 31.3515ZM258.146 36.3819L262.951 8.76467L259.01 8.07908L254.205 35.6963L258.146 36.3819ZM279.066 14.2422L278.753 12.2669L277.481 12.4686L277.138 13.7103L279.066 14.2422ZM278.52 16.4688L276.564 16.0497L276.561 16.0631L276.558 16.0765L278.52 16.4688ZM278.09 18.6172L276.129 18.225L275.533 21.2053L278.506 20.5735L278.09 18.6172ZM284.34 17.2891L286.336 17.4192L286.507 14.7838L283.924 15.3327L284.34 17.2891ZM283.988 22.6797L284.334 24.6496L285.882 24.378L285.984 22.8098L283.988 22.6797ZM276.996 24.0469L276.546 22.0981L275.288 22.3884L275.035 23.6546L276.996 24.0469ZM276.723 25.6094L278.691 25.9627L278.696 25.9344L278.701 25.9061L276.723 25.6094ZM276.449 27.1328L274.481 26.7795L273.99 29.5107L276.737 29.1121L276.449 27.1328ZM283.715 26.0781L285.71 26.2176L285.883 23.7424L283.428 24.0989L283.715 26.0781ZM283.207 33.3438L283.373 35.3368L285.083 35.1944L285.202 33.4832L283.207 33.3438ZM268.949 36.0391L266.976 35.7116L266.473 38.7432L269.449 37.9757L268.949 36.0391ZM273.598 8.03125L273.312 6.05171L271.864 6.26045L271.625 7.70379L273.598 8.03125ZM286.605 6.15625L288.601 6.29644L288.774 3.82295L286.32 4.17671L286.605 6.15625ZM286.098 13.3828L286.281 15.3744L287.974 15.219L288.093 13.523L286.098 13.3828ZM277.138 13.7103C276.92 14.501 276.729 15.2808 276.564 16.0497L280.475 16.8878C280.623 16.1983 280.796 15.4938 280.994 14.774L277.138 13.7103ZM276.558 16.0765L276.129 18.225L280.051 19.0094L280.481 16.861L276.558 16.0765ZM278.506 20.5735L284.756 19.2454L283.924 15.3327L277.674 16.6609L278.506 20.5735ZM282.344 17.1589L281.993 22.5495L285.984 22.8098L286.336 17.4192L282.344 17.1589ZM283.643 20.7098C280.66 21.233 278.29 21.6958 276.546 22.0981L277.446 25.9957C279.088 25.6167 281.379 25.168 284.334 24.6496L283.643 20.7098ZM275.035 23.6546C274.924 24.2069 274.828 24.7596 274.745 25.3127L278.701 25.9061C278.774 25.4175 278.859 24.9285 278.957 24.4391L275.035 23.6546ZM274.754 25.256L274.481 26.7795L278.418 27.4861L278.691 25.9627L274.754 25.256ZM276.737 29.1121L284.002 28.0574L283.428 24.0989L276.162 25.1536L276.737 29.1121ZM281.72 25.9387L281.212 33.2043L285.202 33.4832L285.71 26.2176L281.72 25.9387ZM283.041 31.3507C279.133 31.6763 274.259 32.604 268.45 34.1024L269.449 37.9757C275.15 36.5053 279.781 35.6362 283.373 35.3368L283.041 31.3507ZM270.922 36.3665L275.571 8.35871L271.625 7.70379L266.976 35.7116L270.922 36.3665ZM273.883 10.0108L286.891 8.13579L286.32 4.17671L273.312 6.05171L273.883 10.0108ZM284.61 6.01606L284.103 13.2426L288.093 13.523L288.601 6.29644L284.61 6.01606ZM285.915 11.3912C283.327 11.6289 280.939 11.9203 278.753 12.2669L279.38 16.2175C281.465 15.8869 283.764 15.6055 286.281 15.3744L285.915 11.3912ZM288.91 29.6328L289.169 31.616L289.181 31.6144L289.193 31.6127L288.91 29.6328ZM291.332 30.0234L290.361 31.7718L290.399 31.7929L290.438 31.8123L291.332 30.0234ZM290.668 35.2578L289.442 33.6774L289.435 33.6827L289.429 33.688L290.668 35.2578ZM287.426 36.6641L287.161 34.6816L287.151 34.6831L287.426 36.6641ZM285.004 36.3516L284.087 38.1288L284.098 38.1347L284.109 38.1404L285.004 36.3516ZM285.629 31.0781L284.365 29.5284L284.358 29.5337L284.352 29.539L285.629 31.0781ZM293.324 5.33594L293.655 3.36341L291.892 3.06826L291.401 4.7865L293.324 5.33594ZM301.488 6.70312L303.235 7.6764L304.616 5.19898L301.819 4.73059L301.488 6.70312ZM296.723 15.8047L294.909 14.9625L294.906 14.9676L296.723 15.8047ZM293.051 25.5312L292.965 27.5294L294.511 27.5961L294.963 26.1164L293.051 25.5312ZM287.621 25.2969L285.698 24.7474L285.001 27.1857L287.535 27.295L287.621 25.2969ZM289.193 31.6127C289.738 31.5349 290.093 31.6231 290.361 31.7718L292.303 28.2751C291.165 27.6426 289.906 27.4703 288.627 27.6529L289.193 31.6127ZM290.438 31.8123C290.52 31.8533 290.562 31.8856 290.58 31.9006C290.596 31.9144 290.593 31.9155 290.585 31.9023C290.576 31.8887 290.573 31.8782 290.574 31.8799C290.575 31.8834 290.582 31.9124 290.582 31.9766H294.582C294.582 31.2087 294.397 30.4383 293.954 29.7461C293.515 29.0598 292.899 28.571 292.226 28.2346L290.438 31.8123ZM290.582 31.9766C290.582 32.3571 290.412 32.9251 289.442 33.6774L291.894 36.8383C293.476 35.6114 294.582 33.9918 294.582 31.9766H290.582ZM289.429 33.688C288.702 34.262 287.953 34.576 287.161 34.6816L287.69 38.6465C289.242 38.4396 290.655 37.8161 291.907 36.8276L289.429 33.688ZM287.151 34.6831C286.513 34.7717 286.133 34.6798 285.898 34.5627L284.109 38.1404C285.229 38.7004 286.464 38.8169 287.701 38.645L287.151 34.6831ZM285.921 34.5743C285.847 34.5363 285.811 34.5072 285.797 34.495C285.784 34.484 285.788 34.4845 285.796 34.4969C285.803 34.5095 285.805 34.517 285.803 34.5104C285.801 34.5019 285.793 34.4676 285.793 34.3984H281.793C281.793 35.1544 281.969 35.9159 282.396 36.6047C282.821 37.2906 283.422 37.7857 284.087 38.1288L285.921 34.5743ZM285.793 34.3984C285.793 33.9762 285.98 33.3857 286.906 32.6172L284.352 29.539C282.83 30.8018 281.793 32.4248 281.793 34.3984H285.793ZM286.893 32.6279C287.612 32.0417 288.361 31.7213 289.169 31.616L288.651 27.6496C287.063 27.8568 285.625 28.4999 284.365 29.5284L286.893 32.6279ZM292.994 7.30847L301.158 8.67566L301.819 4.73059L293.655 3.36341L292.994 7.30847ZM299.741 5.72985C297.572 9.62374 295.955 12.708 294.909 14.9625L298.537 16.6469C299.521 14.5264 301.082 11.5429 303.235 7.6764L299.741 5.72985ZM294.906 14.9676C293.485 18.0522 292.23 21.3794 291.138 24.9461L294.963 26.1164C296.007 22.7039 297.2 19.5468 298.539 16.6418L294.906 14.9676ZM293.137 23.5331L287.707 23.2987L287.535 27.295L292.965 27.5294L293.137 23.5331ZM289.544 25.8463L295.247 5.88538L291.401 4.7865L285.698 24.7474L289.544 25.8463Z" fill="#F7931E" mask="url(#path-1-outside-1_2878_7724)"/>
</svg>
