<svg width="291" height="43" viewBox="0 0 291 43" fill="none" xmlns="http://www.w3.org/2000/svg">
<mask id="path-1-outside-1_2878_7721" maskUnits="userSpaceOnUse" x="7" y="2" width="282" height="39" fill="black">
<rect fill="white" x="7" y="2" width="282" height="39"/>
<path d="M23.2539 7.83594L29.543 8.92969C23.918 18.7995 19.4648 27.7318 16.1836 35.7266L10.168 35.3359L14.3086 26.625L11.0273 10.9219L18.6445 7.40625C18.5664 8.60417 18.5143 10.1016 18.4883 11.8984C18.4622 13.6953 18.5534 15.4922 18.7617 17.2891L23.2539 7.83594ZM38.9961 5.45312C41.7565 5.45312 43.7096 6.98958 44.8555 10.0625C45.4544 11.651 45.7539 13.3958 45.7539 15.2969C45.7539 17.1198 45.4805 19.099 44.9336 21.2344C43.9701 24.8802 42.3034 28.2396 39.9336 31.3125C37.043 35.0625 33.9831 36.9375 30.7539 36.9375C27.9674 36.9375 25.9883 35.401 24.8164 32.3281C24.2435 30.8177 23.957 29.125 23.957 27.25C23.957 25.401 24.2435 23.3958 24.8164 21.2344C25.7799 17.5625 27.4336 14.1901 29.7773 11.1172C32.668 7.34115 35.7409 5.45312 38.9961 5.45312ZM37.5898 15.1406C36.1576 15.1406 34.6992 16.3125 33.2148 18.6562C32.0169 20.5052 31.1836 22.3151 30.7148 24.0859C30.4805 25.0234 30.3633 25.8698 30.3633 26.625C30.3633 27.6927 30.6237 28.5651 31.1445 29.2422C31.7435 29.9974 32.5768 30.375 33.6445 30.375C35.1029 30.375 36.418 29.6068 37.5898 28.0703C38.5273 26.8464 39.2044 25.401 39.6211 23.7344C40.1159 21.7812 40.2201 19.8542 39.9336 17.9531C39.6211 16.0781 38.8398 15.1406 37.5898 15.1406ZM47.9023 8.42188L54.582 7.17188C52.7852 13.9948 51.457 20.1146 50.5977 25.5312L54.3086 23.9688L57.043 8.42188L63.7227 7.17188C61.0143 17.849 59.2565 26.8984 58.4492 34.3203L52.1992 36.0391L52.9805 31.7031C50.793 32.6667 47.4857 34.112 43.0586 36.0391L47.9023 8.42188ZM74.1133 4.47656C72.4466 9.00781 71.2878 13.1224 70.6367 16.8203L63.0977 17.9922L66.8867 5.02344L74.1133 4.47656ZM74.0742 8.38281C78.1628 7.15885 81.5091 6.54688 84.1133 6.54688C87.6289 6.54688 89.3737 7.77083 89.3477 10.2188C89.3216 13.7344 87.1081 17.263 82.707 20.8047C83.0716 21.7943 84.582 24.9062 87.2383 30.1406C85.8841 31.3906 83.8398 33.2266 81.1055 35.6484L76.9258 24.8672H76.8867C76.2617 28.2786 75.793 31.4297 75.4805 34.3203L69.3086 36.0391C69.3607 35.4661 69.6471 33.7344 70.168 30.8438L74.0742 8.38281ZM78.9961 14.5547C78.7617 15.4401 78.5534 16.3255 78.3711 17.2109L77.8242 19.8672C78.7357 19.3984 79.6341 18.7865 80.5195 18.0312C81.5352 17.1458 82.2122 16.2995 82.5508 15.4922C82.681 15.2578 82.7461 15.0365 82.7461 14.8281C82.7461 14.2552 82.3685 13.9688 81.6133 13.9688C81.0143 13.9688 80.1419 14.1641 78.9961 14.5547ZM95.3242 14.2422C95.1159 14.9974 94.9336 15.7396 94.7773 16.4688L94.3477 18.6172L100.598 17.2891L100.246 22.6797C97.2773 23.2005 94.9466 23.6562 93.2539 24.0469C93.1497 24.5677 93.0586 25.0885 92.9805 25.6094L92.707 27.1328L99.9727 26.0781L99.4648 33.3438C95.7148 33.6562 90.9622 34.5547 85.207 36.0391L89.8555 8.03125L102.863 6.15625L102.355 13.3828C99.8034 13.6172 97.4596 13.9036 95.3242 14.2422ZM121.887 6.50781C124.595 6.50781 126.587 7.97917 127.863 10.9219L123.449 15.7656C122.85 15.1406 122.16 14.8281 121.379 14.8281C119.999 14.8281 118.566 16.013 117.082 18.3828C115.858 20.3359 115.064 22.1589 114.699 23.8516C114.517 24.6589 114.426 25.388 114.426 26.0391C114.426 27.7839 115.064 28.9818 116.34 29.6328C116.757 29.8411 117.199 29.9453 117.668 29.9453C119.022 29.9453 120.441 28.9427 121.926 26.9375L123.176 31.5859C120.598 34.4505 117.98 35.8828 115.324 35.8828C112.616 35.8828 110.637 34.4505 109.387 31.5859C108.632 29.9193 108.254 28.0573 108.254 26C108.254 24.4896 108.449 22.888 108.84 21.1953C109.621 17.7318 111.105 14.5677 113.293 11.7031C115.923 8.23958 118.788 6.50781 121.887 6.50781ZM127.941 8.38281C132.03 7.15885 135.376 6.54688 137.98 6.54688C141.496 6.54688 143.241 7.77083 143.215 10.2188C143.189 13.7344 140.975 17.263 136.574 20.8047C136.939 21.7943 138.449 24.9062 141.105 30.1406C139.751 31.3906 137.707 33.2266 134.973 35.6484L130.793 24.8672H130.754C130.129 28.2786 129.66 31.4297 129.348 34.3203L123.176 36.0391C123.228 35.4661 123.514 33.7344 124.035 30.8438L127.941 8.38281ZM132.863 14.5547C132.629 15.4401 132.421 16.3255 132.238 17.2109L131.691 19.8672C132.603 19.3984 133.501 18.7865 134.387 18.0312C135.402 17.1458 136.079 16.2995 136.418 15.4922C136.548 15.2578 136.613 15.0365 136.613 14.8281C136.613 14.2552 136.236 13.9688 135.48 13.9688C134.882 13.9688 134.009 14.1641 132.863 14.5547ZM144.348 8.42188L151.027 7.17188C149.23 13.9948 147.902 20.1146 147.043 25.5312L150.754 23.9688L153.488 8.42188L160.168 7.17188C157.46 17.849 155.702 26.8984 154.895 34.3203L148.645 36.0391L149.426 31.7031C147.238 32.6667 143.931 34.112 139.504 36.0391L144.348 8.42188ZM175.012 15.3359C174.178 15.6484 173.189 16.026 172.043 16.4688L169.113 17.6016C169.113 16.3776 168.775 15.7656 168.098 15.7656C167.134 15.7656 166.171 16.3125 165.207 17.4062C164.53 18.2135 164.243 18.9948 164.348 19.75C164.426 20.2448 164.921 20.4922 165.832 20.4922C166.327 20.4922 166.978 20.4141 167.785 20.2578C168.905 20.0234 169.895 19.9062 170.754 19.9062C172.941 19.9062 174.217 20.6615 174.582 22.1719C174.686 22.6406 174.738 23.1354 174.738 23.6562C174.738 25.3229 174.113 27.1198 172.863 29.0469C171.249 31.5729 168.983 33.6953 166.066 35.4141C164.53 36.3255 163.02 36.7812 161.535 36.7812C160.181 36.7812 158.853 36.4036 157.551 35.6484C158.202 34.0859 159.243 31.7812 160.676 28.7344C161.509 29.3073 162.395 29.5938 163.332 29.5938C163.749 29.5938 164.178 29.5286 164.621 29.3984C165.428 29.1901 166.197 28.8906 166.926 28.5C167.967 27.9271 168.488 27.3411 168.488 26.7422C168.488 26.0911 167.954 25.7656 166.887 25.7656C166.158 25.7656 165.09 25.9219 163.684 26.2344C162.303 26.5208 161.249 26.6641 160.52 26.6641C159.556 26.6641 158.814 26.4818 158.293 26.1172C157.277 25.4401 156.861 24.3854 157.043 22.9531C157.382 20.0625 159.243 16.7161 162.629 12.9141C166.092 9.00781 169.074 6.96354 171.574 6.78125C173.996 6.625 175.207 8.44792 175.207 12.25C175.207 13.1615 175.142 14.1901 175.012 15.3359ZM178.488 8.42188L185.715 7.17188C184.413 12.1458 183.358 16.6771 182.551 20.7656L185.793 20.1016L187.785 8.42188L195.012 7.17188C192.251 17.8229 190.507 26.8724 189.777 34.3203L183.059 36.0391L184.855 25.4141C184.126 25.5703 183.02 25.8047 181.535 26.1172C181.04 29.3203 180.689 32.0547 180.48 34.3203L173.762 36.0391L178.488 8.42188ZM196.535 8.42188L203.254 7.17188C200.546 17.6146 198.775 26.6641 197.941 34.3203L191.73 36.0391L196.535 8.42188ZM204.855 8.53906L211.613 7.17188C211.561 7.97917 211.535 9.125 211.535 10.6094C211.535 14.151 211.652 17.263 211.887 19.9453C212.017 21.4818 212.212 22.7188 212.473 23.6562L215.129 8.42188L221.848 7.17188C219.139 17.6146 217.368 26.6641 216.535 34.3203L210.363 36.0391C210.337 35.987 210.168 35.5312 209.855 34.6719L207.824 28.8906C207.486 27.9531 207.29 27.3542 207.238 27.0938C206.691 30.1667 206.262 33.1484 205.949 36.0391L199.699 37.9141L204.855 8.53906ZM225.012 36.9375C222.251 36.9375 220.298 35.4531 219.152 32.4844C218.553 31 218.254 29.3333 218.254 27.4844C218.254 25.7396 218.527 23.8255 219.074 21.7422C219.986 18.1745 221.613 14.9062 223.957 11.9375C226.796 8.31771 229.816 6.50781 233.02 6.50781C235.806 6.50781 237.772 8.04427 238.918 11.1172L234.582 15.7656C234.113 15.0625 233.423 14.7109 232.512 14.7109C230.741 14.7109 229.074 15.9349 227.512 18.3828C226.34 20.2318 225.467 22.276 224.895 24.5156C224.66 25.401 224.543 26.1953 224.543 26.8984C224.543 27.9661 224.816 28.8255 225.363 29.4766C225.962 30.2057 226.796 30.5703 227.863 30.5703C229.087 30.5703 230.22 30.0104 231.262 28.8906C232.095 28.0052 232.772 26.8854 233.293 25.5312C231.366 25.9219 229.582 26.3255 227.941 26.7422L229.191 20.9609L239.543 18.7734C239.595 20.4661 239.23 22.4062 238.449 24.5938C237.746 26.5208 236.874 28.2917 235.832 29.9062C232.785 34.5938 229.178 36.9375 225.012 36.9375ZM250.285 8.42188L257.004 7.17188C254.296 17.6146 252.525 26.6641 251.691 34.3203L245.48 36.0391L250.285 8.42188ZM272.59 6.78125L272.355 14.0469C270.533 14.151 268.801 14.2812 267.16 14.4375C265.441 21.651 264.283 28.2786 263.684 34.3203L257.082 36.0391L260.676 15.2578C259.973 15.362 259.27 15.4792 258.566 15.6094L256.496 16L256.027 8.69531L272.59 6.78125ZM272.98 29.6328C273.892 29.5026 274.699 29.6328 275.402 30.0234C276.236 30.4401 276.652 31.0911 276.652 31.9766C276.652 33.1745 276.014 34.2682 274.738 35.2578C273.749 36.0391 272.668 36.5078 271.496 36.6641C270.559 36.7943 269.751 36.6901 269.074 36.3516C268.267 35.9349 267.863 35.2839 267.863 34.3984C267.863 33.2005 268.475 32.0938 269.699 31.0781C270.689 30.2708 271.783 29.7891 272.98 29.6328ZM277.395 5.33594L285.559 6.70312C283.397 10.5833 281.809 13.6172 280.793 15.8047C279.413 18.7995 278.189 22.0417 277.121 25.5312L271.691 25.2969L277.395 5.33594Z"/>
</mask>
<path d="M23.2539 7.83594L29.543 8.92969C23.918 18.7995 19.4648 27.7318 16.1836 35.7266L10.168 35.3359L14.3086 26.625L11.0273 10.9219L18.6445 7.40625C18.5664 8.60417 18.5143 10.1016 18.4883 11.8984C18.4622 13.6953 18.5534 15.4922 18.7617 17.2891L23.2539 7.83594ZM38.9961 5.45312C41.7565 5.45312 43.7096 6.98958 44.8555 10.0625C45.4544 11.651 45.7539 13.3958 45.7539 15.2969C45.7539 17.1198 45.4805 19.099 44.9336 21.2344C43.9701 24.8802 42.3034 28.2396 39.9336 31.3125C37.043 35.0625 33.9831 36.9375 30.7539 36.9375C27.9674 36.9375 25.9883 35.401 24.8164 32.3281C24.2435 30.8177 23.957 29.125 23.957 27.25C23.957 25.401 24.2435 23.3958 24.8164 21.2344C25.7799 17.5625 27.4336 14.1901 29.7773 11.1172C32.668 7.34115 35.7409 5.45312 38.9961 5.45312ZM37.5898 15.1406C36.1576 15.1406 34.6992 16.3125 33.2148 18.6562C32.0169 20.5052 31.1836 22.3151 30.7148 24.0859C30.4805 25.0234 30.3633 25.8698 30.3633 26.625C30.3633 27.6927 30.6237 28.5651 31.1445 29.2422C31.7435 29.9974 32.5768 30.375 33.6445 30.375C35.1029 30.375 36.418 29.6068 37.5898 28.0703C38.5273 26.8464 39.2044 25.401 39.6211 23.7344C40.1159 21.7812 40.2201 19.8542 39.9336 17.9531C39.6211 16.0781 38.8398 15.1406 37.5898 15.1406ZM47.9023 8.42188L54.582 7.17188C52.7852 13.9948 51.457 20.1146 50.5977 25.5312L54.3086 23.9688L57.043 8.42188L63.7227 7.17188C61.0143 17.849 59.2565 26.8984 58.4492 34.3203L52.1992 36.0391L52.9805 31.7031C50.793 32.6667 47.4857 34.112 43.0586 36.0391L47.9023 8.42188ZM74.1133 4.47656C72.4466 9.00781 71.2878 13.1224 70.6367 16.8203L63.0977 17.9922L66.8867 5.02344L74.1133 4.47656ZM74.0742 8.38281C78.1628 7.15885 81.5091 6.54688 84.1133 6.54688C87.6289 6.54688 89.3737 7.77083 89.3477 10.2188C89.3216 13.7344 87.1081 17.263 82.707 20.8047C83.0716 21.7943 84.582 24.9062 87.2383 30.1406C85.8841 31.3906 83.8398 33.2266 81.1055 35.6484L76.9258 24.8672H76.8867C76.2617 28.2786 75.793 31.4297 75.4805 34.3203L69.3086 36.0391C69.3607 35.4661 69.6471 33.7344 70.168 30.8438L74.0742 8.38281ZM78.9961 14.5547C78.7617 15.4401 78.5534 16.3255 78.3711 17.2109L77.8242 19.8672C78.7357 19.3984 79.6341 18.7865 80.5195 18.0312C81.5352 17.1458 82.2122 16.2995 82.5508 15.4922C82.681 15.2578 82.7461 15.0365 82.7461 14.8281C82.7461 14.2552 82.3685 13.9688 81.6133 13.9688C81.0143 13.9688 80.1419 14.1641 78.9961 14.5547ZM95.3242 14.2422C95.1159 14.9974 94.9336 15.7396 94.7773 16.4688L94.3477 18.6172L100.598 17.2891L100.246 22.6797C97.2773 23.2005 94.9466 23.6562 93.2539 24.0469C93.1497 24.5677 93.0586 25.0885 92.9805 25.6094L92.707 27.1328L99.9727 26.0781L99.4648 33.3438C95.7148 33.6562 90.9622 34.5547 85.207 36.0391L89.8555 8.03125L102.863 6.15625L102.355 13.3828C99.8034 13.6172 97.4596 13.9036 95.3242 14.2422ZM121.887 6.50781C124.595 6.50781 126.587 7.97917 127.863 10.9219L123.449 15.7656C122.85 15.1406 122.16 14.8281 121.379 14.8281C119.999 14.8281 118.566 16.013 117.082 18.3828C115.858 20.3359 115.064 22.1589 114.699 23.8516C114.517 24.6589 114.426 25.388 114.426 26.0391C114.426 27.7839 115.064 28.9818 116.34 29.6328C116.757 29.8411 117.199 29.9453 117.668 29.9453C119.022 29.9453 120.441 28.9427 121.926 26.9375L123.176 31.5859C120.598 34.4505 117.98 35.8828 115.324 35.8828C112.616 35.8828 110.637 34.4505 109.387 31.5859C108.632 29.9193 108.254 28.0573 108.254 26C108.254 24.4896 108.449 22.888 108.84 21.1953C109.621 17.7318 111.105 14.5677 113.293 11.7031C115.923 8.23958 118.788 6.50781 121.887 6.50781ZM127.941 8.38281C132.03 7.15885 135.376 6.54688 137.98 6.54688C141.496 6.54688 143.241 7.77083 143.215 10.2188C143.189 13.7344 140.975 17.263 136.574 20.8047C136.939 21.7943 138.449 24.9062 141.105 30.1406C139.751 31.3906 137.707 33.2266 134.973 35.6484L130.793 24.8672H130.754C130.129 28.2786 129.66 31.4297 129.348 34.3203L123.176 36.0391C123.228 35.4661 123.514 33.7344 124.035 30.8438L127.941 8.38281ZM132.863 14.5547C132.629 15.4401 132.421 16.3255 132.238 17.2109L131.691 19.8672C132.603 19.3984 133.501 18.7865 134.387 18.0312C135.402 17.1458 136.079 16.2995 136.418 15.4922C136.548 15.2578 136.613 15.0365 136.613 14.8281C136.613 14.2552 136.236 13.9688 135.48 13.9688C134.882 13.9688 134.009 14.1641 132.863 14.5547ZM144.348 8.42188L151.027 7.17188C149.23 13.9948 147.902 20.1146 147.043 25.5312L150.754 23.9688L153.488 8.42188L160.168 7.17188C157.46 17.849 155.702 26.8984 154.895 34.3203L148.645 36.0391L149.426 31.7031C147.238 32.6667 143.931 34.112 139.504 36.0391L144.348 8.42188ZM175.012 15.3359C174.178 15.6484 173.189 16.026 172.043 16.4688L169.113 17.6016C169.113 16.3776 168.775 15.7656 168.098 15.7656C167.134 15.7656 166.171 16.3125 165.207 17.4062C164.53 18.2135 164.243 18.9948 164.348 19.75C164.426 20.2448 164.921 20.4922 165.832 20.4922C166.327 20.4922 166.978 20.4141 167.785 20.2578C168.905 20.0234 169.895 19.9062 170.754 19.9062C172.941 19.9062 174.217 20.6615 174.582 22.1719C174.686 22.6406 174.738 23.1354 174.738 23.6562C174.738 25.3229 174.113 27.1198 172.863 29.0469C171.249 31.5729 168.983 33.6953 166.066 35.4141C164.53 36.3255 163.02 36.7812 161.535 36.7812C160.181 36.7812 158.853 36.4036 157.551 35.6484C158.202 34.0859 159.243 31.7812 160.676 28.7344C161.509 29.3073 162.395 29.5938 163.332 29.5938C163.749 29.5938 164.178 29.5286 164.621 29.3984C165.428 29.1901 166.197 28.8906 166.926 28.5C167.967 27.9271 168.488 27.3411 168.488 26.7422C168.488 26.0911 167.954 25.7656 166.887 25.7656C166.158 25.7656 165.09 25.9219 163.684 26.2344C162.303 26.5208 161.249 26.6641 160.52 26.6641C159.556 26.6641 158.814 26.4818 158.293 26.1172C157.277 25.4401 156.861 24.3854 157.043 22.9531C157.382 20.0625 159.243 16.7161 162.629 12.9141C166.092 9.00781 169.074 6.96354 171.574 6.78125C173.996 6.625 175.207 8.44792 175.207 12.25C175.207 13.1615 175.142 14.1901 175.012 15.3359ZM178.488 8.42188L185.715 7.17188C184.413 12.1458 183.358 16.6771 182.551 20.7656L185.793 20.1016L187.785 8.42188L195.012 7.17188C192.251 17.8229 190.507 26.8724 189.777 34.3203L183.059 36.0391L184.855 25.4141C184.126 25.5703 183.02 25.8047 181.535 26.1172C181.04 29.3203 180.689 32.0547 180.48 34.3203L173.762 36.0391L178.488 8.42188ZM196.535 8.42188L203.254 7.17188C200.546 17.6146 198.775 26.6641 197.941 34.3203L191.73 36.0391L196.535 8.42188ZM204.855 8.53906L211.613 7.17188C211.561 7.97917 211.535 9.125 211.535 10.6094C211.535 14.151 211.652 17.263 211.887 19.9453C212.017 21.4818 212.212 22.7188 212.473 23.6562L215.129 8.42188L221.848 7.17188C219.139 17.6146 217.368 26.6641 216.535 34.3203L210.363 36.0391C210.337 35.987 210.168 35.5312 209.855 34.6719L207.824 28.8906C207.486 27.9531 207.29 27.3542 207.238 27.0938C206.691 30.1667 206.262 33.1484 205.949 36.0391L199.699 37.9141L204.855 8.53906ZM225.012 36.9375C222.251 36.9375 220.298 35.4531 219.152 32.4844C218.553 31 218.254 29.3333 218.254 27.4844C218.254 25.7396 218.527 23.8255 219.074 21.7422C219.986 18.1745 221.613 14.9062 223.957 11.9375C226.796 8.31771 229.816 6.50781 233.02 6.50781C235.806 6.50781 237.772 8.04427 238.918 11.1172L234.582 15.7656C234.113 15.0625 233.423 14.7109 232.512 14.7109C230.741 14.7109 229.074 15.9349 227.512 18.3828C226.34 20.2318 225.467 22.276 224.895 24.5156C224.66 25.401 224.543 26.1953 224.543 26.8984C224.543 27.9661 224.816 28.8255 225.363 29.4766C225.962 30.2057 226.796 30.5703 227.863 30.5703C229.087 30.5703 230.22 30.0104 231.262 28.8906C232.095 28.0052 232.772 26.8854 233.293 25.5312C231.366 25.9219 229.582 26.3255 227.941 26.7422L229.191 20.9609L239.543 18.7734C239.595 20.4661 239.23 22.4062 238.449 24.5938C237.746 26.5208 236.874 28.2917 235.832 29.9062C232.785 34.5938 229.178 36.9375 225.012 36.9375ZM250.285 8.42188L257.004 7.17188C254.296 17.6146 252.525 26.6641 251.691 34.3203L245.48 36.0391L250.285 8.42188ZM272.59 6.78125L272.355 14.0469C270.533 14.151 268.801 14.2812 267.16 14.4375C265.441 21.651 264.283 28.2786 263.684 34.3203L257.082 36.0391L260.676 15.2578C259.973 15.362 259.27 15.4792 258.566 15.6094L256.496 16L256.027 8.69531L272.59 6.78125ZM272.98 29.6328C273.892 29.5026 274.699 29.6328 275.402 30.0234C276.236 30.4401 276.652 31.0911 276.652 31.9766C276.652 33.1745 276.014 34.2682 274.738 35.2578C273.749 36.0391 272.668 36.5078 271.496 36.6641C270.559 36.7943 269.751 36.6901 269.074 36.3516C268.267 35.9349 267.863 35.2839 267.863 34.3984C267.863 33.2005 268.475 32.0938 269.699 31.0781C270.689 30.2708 271.783 29.7891 272.98 29.6328ZM277.395 5.33594L285.559 6.70312C283.397 10.5833 281.809 13.6172 280.793 15.8047C279.413 18.7995 278.189 22.0417 277.121 25.5312L271.691 25.2969L277.395 5.33594Z" fill="#FAD557"/>
<path d="M23.2539 7.83594L23.5966 5.86551L22.0996 5.60518L21.4475 6.97752L23.2539 7.83594ZM29.543 8.92969L31.2806 9.91999L32.69 7.44698L29.8857 6.95926L29.543 8.92969ZM16.1836 35.7266L16.054 37.7224L17.4881 37.8155L18.0338 36.4859L16.1836 35.7266ZM10.168 35.3359L8.36165 34.4773L7.09568 37.1407L10.0384 37.3317L10.168 35.3359ZM14.3086 26.625L16.1149 27.4836L16.4041 26.8753L16.2663 26.2159L14.3086 26.625ZM11.0273 10.9219L10.1892 9.10596L8.74407 9.77295L9.06963 11.331L11.0273 10.9219ZM18.6445 7.40625L20.6403 7.53641L20.8591 4.1814L17.8064 5.59033L18.6445 7.40625ZM18.7617 17.2891L16.775 17.5194L17.5775 24.4408L20.5681 18.1475L18.7617 17.2891ZM22.9112 9.80636L29.2003 10.9001L29.8857 6.95926L23.5966 5.86551L22.9112 9.80636ZM27.8054 7.93939C22.1503 17.862 17.6554 26.8729 14.3334 34.9672L18.0338 36.4859C21.2743 28.5906 25.6857 19.737 31.2806 9.91999L27.8054 7.93939ZM16.3132 33.7308L10.2976 33.3401L10.0384 37.3317L16.054 37.7224L16.3132 33.7308ZM11.9743 36.1945L16.1149 27.4836L12.5023 25.7664L8.36165 34.4773L11.9743 36.1945ZM16.2663 26.2159L12.9851 10.5128L9.06963 11.331L12.3509 27.0341L16.2663 26.2159ZM11.8655 12.7378L19.4826 9.22217L17.8064 5.59033L10.1892 9.10596L11.8655 12.7378ZM16.6488 7.27609C16.5677 8.51977 16.5148 10.0536 16.4885 11.8695L20.4881 11.9274C20.5138 10.1495 20.5652 8.68856 20.6403 7.53641L16.6488 7.27609ZM16.4885 11.8695C16.4612 13.7535 16.5568 15.637 16.775 17.5194L20.7484 17.0587C20.55 15.3473 20.4633 13.6371 20.4881 11.9274L16.4885 11.8695ZM20.5681 18.1475L25.0603 8.69436L21.4475 6.97752L16.9553 16.4306L20.5681 18.1475ZM44.8555 10.0625L42.9815 10.7613L42.9841 10.7681L44.8555 10.0625ZM44.9336 21.2344L46.8672 21.7454L46.8692 21.738L46.8711 21.7306L44.9336 21.2344ZM39.9336 31.3125L38.3498 30.0911L38.3496 30.0915L39.9336 31.3125ZM24.8164 32.3281L22.9464 33.0374L22.9477 33.0408L24.8164 32.3281ZM24.8164 21.2344L26.7497 21.7468L26.7509 21.742L24.8164 21.2344ZM29.7773 11.1172L28.1892 9.90147L28.1871 9.90429L29.7773 11.1172ZM33.2148 18.6562L34.8933 19.7437L34.899 19.7351L34.9045 19.7264L33.2148 18.6562ZM30.7148 24.0859L28.7814 23.5742L28.7779 23.5875L28.7746 23.6009L30.7148 24.0859ZM31.1445 29.2422L29.5593 30.4616L29.5683 30.4734L29.5775 30.485L31.1445 29.2422ZM37.5898 28.0703L36.0021 26.8542L35.9996 26.8574L37.5898 28.0703ZM39.6211 23.7344L37.6823 23.2432L37.6808 23.2493L39.6211 23.7344ZM39.9336 17.9531L41.9113 17.6551L41.9089 17.6397L41.9064 17.6243L39.9336 17.9531ZM38.9961 7.45312C39.9804 7.45312 40.7099 7.71734 41.2947 8.17738C41.9043 8.65694 42.4969 9.4616 42.9815 10.7613L46.7294 9.36374C46.0682 7.59048 45.1113 6.09046 43.7678 5.03356C42.3995 3.95714 40.7722 3.45312 38.9961 3.45312V7.45312ZM42.9841 10.7681C43.4884 12.1057 43.7539 13.6082 43.7539 15.2969H47.7539C47.7539 13.1835 47.4204 11.1963 46.7269 9.35689L42.9841 10.7681ZM43.7539 15.2969C43.7539 16.9219 43.5098 18.7324 42.9961 20.7382L46.8711 21.7306C47.4511 19.4656 47.7539 17.3177 47.7539 15.2969H43.7539ZM43 20.7233C42.1066 24.1039 40.5617 27.223 38.3498 30.0911L41.5173 32.5339C44.0451 29.2561 45.8336 25.6565 46.8672 21.7454L43 20.7233ZM38.3496 30.0915C35.6538 33.5887 33.1137 34.9375 30.7539 34.9375V38.9375C34.8525 38.9375 38.4321 36.5363 41.5176 32.5335L38.3496 30.0915ZM30.7539 34.9375C29.7522 34.9375 29.0055 34.6706 28.4061 34.2053C27.7832 33.7218 27.1803 32.914 26.6851 31.6155L22.9477 33.0408C23.6243 34.8151 24.597 36.3121 25.9532 37.365C27.3331 38.4362 28.9692 38.9375 30.7539 38.9375V34.9375ZM26.6864 31.6188C26.2121 30.3683 25.957 28.921 25.957 27.25H21.957C21.957 29.329 22.2749 31.2671 22.9464 33.0374L26.6864 31.6188ZM25.957 27.25C25.957 25.6056 26.2121 23.7747 26.7496 21.7468L22.8832 20.7219C22.2748 23.017 21.957 25.1964 21.957 27.25H25.957ZM26.7509 21.742C27.6462 18.3303 29.1811 15.1968 31.3676 12.3301L28.1871 9.90429C25.6861 13.1834 23.9137 16.7947 22.8819 20.7267L26.7509 21.742ZM31.3654 12.3329C34.0597 8.8134 36.6118 7.45312 38.9961 7.45312V3.45312C34.87 3.45312 31.2763 5.86889 28.1893 9.90147L31.3654 12.3329ZM37.5898 13.1406C35.0292 13.1406 33.0501 15.1785 31.5252 17.5861L34.9045 19.7264C36.3484 17.4465 37.2859 17.1406 37.5898 17.1406V13.1406ZM31.5363 17.5688C30.2461 19.5602 29.3139 21.5626 28.7814 23.5742L32.6483 24.5977C33.0533 23.0676 33.7877 21.4502 34.8933 19.7437L31.5363 17.5688ZM28.7746 23.6009C28.511 24.6552 28.3633 25.6682 28.3633 26.625H32.3633C32.3633 26.0714 32.45 25.3916 32.6551 24.571L28.7746 23.6009ZM28.3633 26.625C28.3633 28.0216 28.7083 29.3553 29.5593 30.4616L32.7298 28.0228C32.5391 27.7749 32.3633 27.3639 32.3633 26.625H28.3633ZM29.5775 30.485C30.6001 31.7744 32.0413 32.375 33.6445 32.375V28.375C33.1124 28.375 32.8868 28.2204 32.7115 27.9994L29.5775 30.485ZM33.6445 32.375C35.9177 32.375 37.7632 31.141 39.1801 29.2832L35.9996 26.8574C35.0728 28.0726 34.288 28.375 33.6445 28.375V32.375ZM39.1776 29.2865C40.2994 27.8219 41.086 26.1209 41.5614 24.2194L37.6808 23.2493C37.3229 24.6811 36.7553 25.8708 36.0021 26.8542L39.1776 29.2865ZM41.5598 24.2255C42.1168 22.0272 42.2393 19.8317 41.9113 17.6551L37.9559 18.2511C38.2009 19.8766 38.115 21.5353 37.6823 23.2432L41.5598 24.2255ZM41.9064 17.6243C41.7215 16.5149 41.3607 15.4166 40.6497 14.5634C39.8686 13.626 38.7918 13.1406 37.5898 13.1406V17.1406C37.6471 17.1406 37.6396 17.15 37.6013 17.1323C37.5618 17.1141 37.5541 17.0968 37.5768 17.1241C37.6471 17.2084 37.8332 17.5164 37.9608 18.2819L41.9064 17.6243ZM47.9023 8.42188L47.5345 6.456L46.1719 6.71099L45.9324 8.07637L47.9023 8.42188ZM54.582 7.17188L56.5161 7.68122L57.3211 4.62459L54.2141 5.206L54.582 7.17188ZM50.5977 25.5312L48.6224 25.2179L48.0588 28.7703L51.3738 27.3745L50.5977 25.5312ZM54.3086 23.9688L55.0847 25.812L56.0895 25.3889L56.2784 24.3152L54.3086 23.9688ZM57.043 8.42188L56.6751 6.456L55.3132 6.71086L55.0732 8.07543L57.043 8.42188ZM63.7227 7.17188L65.6613 7.66362L66.4307 4.6304L63.3548 5.206L63.7227 7.17188ZM58.4492 34.3203L58.9795 36.2487L60.2905 35.8882L60.4375 34.5366L58.4492 34.3203ZM52.1992 36.0391L50.2309 35.6844L49.6678 38.8094L52.7295 37.9675L52.1992 36.0391ZM52.9805 31.7031L54.9488 32.0578L55.6156 28.357L52.1743 29.8728L52.9805 31.7031ZM43.0586 36.0391L41.0887 35.6936L40.446 39.3576L43.8568 37.8729L43.0586 36.0391ZM48.2702 10.3877L54.9499 9.13775L54.2141 5.206L47.5345 6.456L48.2702 10.3877ZM52.648 6.66253C50.8386 13.5328 49.4947 19.7197 48.6224 25.2179L52.573 25.8446C53.4194 20.5095 54.7317 14.4568 56.5161 7.68122L52.648 6.66253ZM51.3738 27.3745L55.0847 25.812L53.5325 22.1255L49.8215 23.688L51.3738 27.3745ZM56.2784 24.3152L59.0127 8.76832L55.0732 8.07543L52.3388 23.6223L56.2784 24.3152ZM57.4109 10.3877L64.0905 9.13775L63.3548 5.206L56.6751 6.456L57.4109 10.3877ZM61.7841 6.68013C59.0625 17.4095 57.2819 26.5569 56.4609 34.104L60.4375 34.5366C61.2312 27.2399 62.9662 18.2884 65.6613 7.66362L61.7841 6.68013ZM57.9189 32.3919L51.6689 34.1107L52.7295 37.9675L58.9795 36.2487L57.9189 32.3919ZM54.1675 36.3937L54.9488 32.0578L51.0122 31.3485L50.2309 35.6844L54.1675 36.3937ZM52.1743 29.8728C49.9909 30.8345 46.6869 32.2784 42.2604 34.2053L43.8568 37.8729C48.2845 35.9455 51.595 34.4988 53.7867 33.5334L52.1743 29.8728ZM45.0285 36.3846L49.8723 8.76738L45.9324 8.07637L41.0887 35.6936L45.0285 36.3846ZM74.1133 4.47656L75.9903 5.16697L77.0642 2.24753L73.9624 2.48226L74.1133 4.47656ZM70.6367 16.8203L70.9439 18.7966L72.3582 18.5767L72.6064 17.1671L70.6367 16.8203ZM63.0977 17.9922L61.1779 17.4313L60.2954 20.4518L63.4048 19.9685L63.0977 17.9922ZM66.8867 5.02344L66.7358 3.02914L65.3553 3.13361L64.967 4.46255L66.8867 5.02344ZM72.2362 3.78615C70.5395 8.39914 69.3435 12.6309 68.667 16.4735L72.6064 17.1671C73.232 13.6139 74.3537 9.61648 75.9903 5.16697L72.2362 3.78615ZM70.3295 14.844L62.7905 16.0159L63.4048 19.9685L70.9439 18.7966L70.3295 14.844ZM65.0174 18.5531L68.8065 5.58433L64.967 4.46255L61.1779 17.4313L65.0174 18.5531ZM67.0376 7.01774L74.2642 6.47086L73.9624 2.48226L66.7358 3.02914L67.0376 7.01774ZM74.0742 8.38281L73.5006 6.46682L72.3157 6.82155L72.1038 8.04013L74.0742 8.38281ZM89.3477 10.2188L87.3478 10.1975L87.3477 10.2039L89.3477 10.2188ZM82.707 20.8047L81.4531 19.2466L80.3335 20.1476L80.8303 21.4961L82.707 20.8047ZM87.2383 30.1406L88.5948 31.6102L89.7062 30.5843L89.0218 29.2356L87.2383 30.1406ZM81.1055 35.6484L79.2407 36.3714L80.2797 39.0515L82.4315 37.1456L81.1055 35.6484ZM76.9258 24.8672L78.7906 24.1443L78.2955 22.8672H76.9258V24.8672ZM76.8867 24.8672V22.8672H75.2198L74.9195 24.5068L76.8867 24.8672ZM75.4805 34.3203L76.017 36.247L77.3232 35.8833L77.4689 34.5353L75.4805 34.3203ZM69.3086 36.0391L67.3168 35.858L67.0545 38.7429L69.8451 37.9657L69.3086 36.0391ZM70.168 30.8438L72.1363 31.1984L72.1384 31.1864L70.168 30.8438ZM78.9961 14.5547L78.3507 12.6617L77.3368 13.0073L77.0627 14.0429L78.9961 14.5547ZM78.3711 17.2109L80.33 17.6142L78.3711 17.2109ZM77.8242 19.8672L75.8653 19.4639L75.0226 23.557L78.7389 21.6458L77.8242 19.8672ZM80.5195 18.0312L81.8174 19.5529L81.8257 19.5459L81.8338 19.5388L80.5195 18.0312ZM82.5508 15.4922L80.8025 14.5209L80.749 14.6172L80.7064 14.7187L82.5508 15.4922ZM74.6478 10.2988C78.6528 9.09985 81.7873 8.54688 84.1133 8.54688V4.54688C81.2309 4.54688 77.6727 5.21786 73.5006 6.46682L74.6478 10.2988ZM84.1133 8.54688C85.7023 8.54688 86.5292 8.835 86.91 9.10216C87.1558 9.27458 87.355 9.51937 87.3478 10.1975L91.3475 10.24C91.3664 8.47021 90.7062 6.87907 89.2072 5.82753C87.8432 4.87073 86.0399 4.54688 84.1133 4.54688V8.54688ZM87.3477 10.2039C87.3282 12.8329 85.6681 15.8546 81.4531 19.2466L83.9609 22.3628C88.5481 18.6714 91.315 14.6358 91.3476 10.2336L87.3477 10.2039ZM80.8303 21.4961C81.2462 22.625 82.8294 25.8722 85.4548 31.0457L89.0218 29.2356C86.3347 23.9403 84.897 20.9636 84.5837 20.1133L80.8303 21.4961ZM85.8817 28.671C84.5432 29.9066 82.5114 31.7315 79.7794 34.1513L82.4315 37.1456C85.1683 34.7216 87.2251 32.8746 88.5948 31.6102L85.8817 28.671ZM82.9702 34.9255L78.7906 24.1443L75.061 25.5901L79.2407 36.3714L82.9702 34.9255ZM76.9258 22.8672H76.8867V26.8672H76.9258V22.8672ZM74.9195 24.5068C74.2873 27.9576 73.8107 31.1578 73.4921 34.1053L77.4689 34.5353C77.7752 31.7016 78.2362 28.5997 78.854 25.2276L74.9195 24.5068ZM74.9439 32.3936L68.772 34.1124L69.8451 37.9657L76.017 36.247L74.9439 32.3936ZM71.3004 36.2201C71.3424 35.7574 71.6072 34.1349 72.1363 31.1984L68.1997 30.4891C67.6871 33.3338 67.3789 35.1749 67.3168 35.858L71.3004 36.2201ZM72.1384 31.1864L76.0446 8.72549L72.1038 8.04013L68.1975 30.5011L72.1384 31.1864ZM77.0627 14.0429C76.8189 14.9638 76.6021 15.8853 76.4122 16.8076L80.33 17.6142C80.5047 16.7657 80.7045 15.9164 80.9295 15.0665L77.0627 14.0429ZM76.4122 16.8076L75.8653 19.4639L79.7831 20.2705L80.33 17.6142L76.4122 16.8076ZM78.7389 21.6458C79.8046 21.0977 80.8301 20.395 81.8174 19.5529L79.2216 16.5096C78.4381 17.1779 77.6667 17.6992 76.9095 18.0886L78.7389 21.6458ZM81.8338 19.5388C82.9674 18.5505 83.8917 17.4662 84.3952 16.2656L80.7064 14.7187C80.5328 15.1328 80.1029 15.7412 79.2053 16.5237L81.8338 19.5388ZM84.2991 16.4635C84.5482 16.0151 84.7461 15.4603 84.7461 14.8281H80.7461C80.7461 14.6127 80.8138 14.5005 80.8025 14.5209L84.2991 16.4635ZM84.7461 14.8281C84.7461 14.0622 84.4649 13.192 83.6717 12.5902C82.9827 12.0676 82.1868 11.9688 81.6133 11.9688V15.9688C81.795 15.9688 81.5654 16.0131 81.2541 15.777C81.0802 15.645 80.9354 15.4641 80.8443 15.2567C80.7583 15.0611 80.7461 14.9022 80.7461 14.8281H84.7461ZM81.6133 11.9688C80.6691 11.9688 79.5371 12.2572 78.3507 12.6617L79.6414 16.4477C80.7468 16.0709 81.3595 15.9688 81.6133 15.9688V11.9688ZM95.3242 14.2422L95.0111 12.2669L93.7388 12.4686L93.3962 13.7103L95.3242 14.2422ZM94.7773 16.4688L92.8217 16.0497L92.8189 16.0631L92.8162 16.0765L94.7773 16.4688ZM94.3477 18.6172L92.3865 18.225L91.7904 21.2053L94.7634 20.5735L94.3477 18.6172ZM100.598 17.2891L102.593 17.4192L102.765 14.7838L100.182 15.3327L100.598 17.2891ZM100.246 22.6797L100.592 24.6496L102.14 24.378L102.242 22.8098L100.246 22.6797ZM93.2539 24.0469L92.8042 22.0981L91.546 22.3884L91.2927 23.6546L93.2539 24.0469ZM92.9805 25.6094L94.949 25.9627L94.9541 25.9344L94.9583 25.9061L92.9805 25.6094ZM92.707 27.1328L90.7385 26.7795L90.2483 29.5107L92.9943 29.1121L92.707 27.1328ZM99.9727 26.0781L101.968 26.2176L102.141 23.7424L99.6853 24.0989L99.9727 26.0781ZM99.4648 33.3438L99.6309 35.3368L101.34 35.1944L101.46 33.4832L99.4648 33.3438ZM85.207 36.0391L83.234 35.7116L82.7309 38.7432L85.7065 37.9757L85.207 36.0391ZM89.8555 8.03125L89.5701 6.05171L88.122 6.26045L87.8825 7.70379L89.8555 8.03125ZM102.863 6.15625L104.858 6.29644L105.032 3.82295L102.578 4.17671L102.863 6.15625ZM102.355 13.3828L102.538 15.3744L104.231 15.219L104.351 13.523L102.355 13.3828ZM93.3962 13.7103C93.1781 14.501 92.9865 15.2808 92.8217 16.0497L96.7329 16.8878C96.8807 16.1983 97.0537 15.4938 97.2522 14.774L93.3962 13.7103ZM92.8162 16.0765L92.3865 18.225L96.3088 19.0094L96.7385 16.861L92.8162 16.0765ZM94.7634 20.5735L101.013 19.2454L100.182 15.3327L93.9319 16.6609L94.7634 20.5735ZM98.6019 17.1589L98.2503 22.5495L102.242 22.8098L102.593 17.4192L98.6019 17.1589ZM99.9005 20.7098C96.9181 21.233 94.5475 21.6958 92.8042 22.0981L93.7036 25.9957C95.3458 25.6167 97.6365 25.168 100.592 24.6496L99.9005 20.7098ZM91.2927 23.6546C91.1823 24.2069 91.0856 24.7596 91.0026 25.3127L94.9583 25.9061C95.0316 25.4175 95.1172 24.9285 95.2151 24.4391L91.2927 23.6546ZM91.0119 25.256L90.7385 26.7795L94.6756 27.4861L94.949 25.9627L91.0119 25.256ZM92.9943 29.1121L100.26 28.0574L99.6853 24.0989L92.4197 25.1536L92.9943 29.1121ZM97.9775 25.9387L97.4697 33.2043L101.46 33.4832L101.968 26.2176L97.9775 25.9387ZM99.2988 31.3507C95.3911 31.6763 90.5172 32.604 84.7075 34.1024L85.7065 37.9757C91.4073 36.5053 96.0386 35.6362 99.6309 35.3368L99.2988 31.3507ZM87.18 36.3665L91.8285 8.35871L87.8825 7.70379L83.234 35.7116L87.18 36.3665ZM90.1408 10.0108L103.149 8.13579L102.578 4.17671L89.5701 6.05171L90.1408 10.0108ZM100.868 6.01606L100.36 13.2426L104.351 13.523L104.858 6.29644L100.868 6.01606ZM102.173 11.3912C99.5846 11.6289 97.1967 11.9203 95.0111 12.2669L95.6374 16.2175C97.7225 15.8869 100.022 15.6055 102.538 15.3744L102.173 11.3912ZM127.863 10.9219L129.342 12.269L130.213 11.3129L129.698 10.1262L127.863 10.9219ZM123.449 15.7656L122.005 17.1494L123.486 18.6946L124.927 17.1127L123.449 15.7656ZM117.082 18.3828L118.777 19.4448L118.777 19.4445L117.082 18.3828ZM114.699 23.8516L116.65 24.2921L116.652 24.2824L116.654 24.2727L114.699 23.8516ZM116.34 29.6328L115.431 31.4143L115.438 31.418L115.445 31.4217L116.34 29.6328ZM121.926 26.9375L123.857 26.4181L122.782 22.4195L120.318 25.7475L121.926 26.9375ZM123.176 31.5859L124.662 32.9239L125.389 32.1161L125.107 31.0666L123.176 31.5859ZM109.387 31.5859L111.22 30.786L111.214 30.7732L111.208 30.7605L109.387 31.5859ZM108.84 21.1953L110.789 21.645L110.791 21.6354L108.84 21.1953ZM113.293 11.7031L114.883 12.917L114.886 12.9127L113.293 11.7031ZM121.887 8.50781C122.855 8.50781 123.604 8.76253 124.224 9.22012C124.865 9.6934 125.49 10.4763 126.028 11.7175L129.698 10.1262C128.96 8.42476 127.952 7.00061 126.6 6.00254C125.228 4.98877 123.626 4.50781 121.887 4.50781V8.50781ZM126.385 9.57475L121.971 14.4185L124.927 17.1127L129.342 12.269L126.385 9.57475ZM124.893 14.3818C123.962 13.4101 122.767 12.8281 121.379 12.8281V16.8281C121.553 16.8281 121.739 16.8711 122.005 17.1494L124.893 14.3818ZM121.379 12.8281C120.084 12.8281 118.945 13.3897 117.995 14.1758C117.053 14.9548 116.192 16.0369 115.387 17.3211L118.777 19.4445C119.457 18.359 120.054 17.6637 120.544 17.2578C121.027 16.859 121.294 16.8281 121.379 16.8281V12.8281ZM115.387 17.3208C114.078 19.4095 113.171 21.4493 112.744 23.4305L116.654 24.2727C116.957 22.8684 117.638 21.2624 118.777 19.4448L115.387 17.3208ZM112.748 23.411C112.542 24.326 112.426 25.2062 112.426 26.0391H116.426C116.426 25.5698 116.492 24.9917 116.65 24.2921L112.748 23.411ZM112.426 26.0391C112.426 28.3384 113.326 30.3405 115.431 31.4143L117.249 27.8513C116.801 27.6231 116.426 27.2293 116.426 26.0391H112.426ZM115.445 31.4217C116.142 31.7698 116.891 31.9453 117.668 31.9453V27.9453C117.508 27.9453 117.371 27.9125 117.234 27.844L115.445 31.4217ZM117.668 31.9453C120.032 31.9453 121.973 30.2354 123.533 28.1275L120.318 25.7475C118.91 27.65 118.012 27.9453 117.668 27.9453V31.9453ZM119.994 27.4569L121.244 32.1053L125.107 31.0666L123.857 26.4181L119.994 27.4569ZM121.689 30.248C119.316 32.8846 117.197 33.8828 115.324 33.8828V37.8828C118.764 37.8828 121.879 36.0164 124.662 32.9239L121.689 30.248ZM115.324 33.8828C114.343 33.8828 113.593 33.6309 112.981 33.1884C112.351 32.7326 111.741 31.9807 111.22 30.786L107.554 32.3858C108.282 34.0558 109.287 35.4523 110.636 36.4288C112.004 37.4185 113.597 37.8828 115.324 37.8828V33.8828ZM111.208 30.7605C110.585 29.3836 110.254 27.8081 110.254 26H106.254C106.254 28.3065 106.678 30.4549 107.565 32.4114L111.208 30.7605ZM110.254 26C110.254 24.6615 110.427 23.2118 110.789 21.645L106.891 20.7456C106.471 22.5643 106.254 24.3176 106.254 26H110.254ZM110.791 21.6354C111.508 18.4571 112.867 15.5562 114.883 12.917L111.703 10.4893C109.344 13.5792 107.734 17.0064 106.889 20.7552L110.791 21.6354ZM114.886 12.9127C117.3 9.73385 119.639 8.50781 121.887 8.50781V4.50781C117.936 4.50781 114.547 6.74532 111.7 10.4936L114.886 12.9127ZM127.941 8.38281L127.368 6.46682L126.183 6.82155L125.971 8.04013L127.941 8.38281ZM143.215 10.2188L141.215 10.1975L141.215 10.2039L143.215 10.2188ZM136.574 20.8047L135.32 19.2466L134.201 20.1476L134.698 21.4961L136.574 20.8047ZM141.105 30.1406L142.462 31.6102L143.573 30.5843L142.889 29.2356L141.105 30.1406ZM134.973 35.6484L133.108 36.3714L134.147 39.0515L136.299 37.1456L134.973 35.6484ZM130.793 24.8672L132.658 24.1443L132.163 22.8672H130.793V24.8672ZM130.754 24.8672V22.8672H129.087L128.787 24.5068L130.754 24.8672ZM129.348 34.3203L129.884 36.247L131.19 35.8833L131.336 34.5353L129.348 34.3203ZM123.176 36.0391L121.184 35.858L120.922 38.7429L123.712 37.9657L123.176 36.0391ZM124.035 30.8438L126.003 31.1984L126.006 31.1864L124.035 30.8438ZM132.863 14.5547L132.218 12.6617L131.204 13.0073L130.93 14.0429L132.863 14.5547ZM132.238 17.2109L134.197 17.6142L132.238 17.2109ZM131.691 19.8672L129.732 19.4639L128.89 23.557L132.606 21.6458L131.691 19.8672ZM134.387 18.0312L135.685 19.5529L135.693 19.5459L135.701 19.5388L134.387 18.0312ZM136.418 15.4922L134.67 14.5209L134.616 14.6172L134.574 14.7187L136.418 15.4922ZM128.515 10.2988C132.52 9.09985 135.655 8.54688 137.98 8.54688V4.54688C135.098 4.54688 131.54 5.21786 127.368 6.46682L128.515 10.2988ZM137.98 8.54688C139.57 8.54688 140.396 8.835 140.777 9.10216C141.023 9.27458 141.222 9.51937 141.215 10.1975L145.215 10.24C145.234 8.47021 144.573 6.87907 143.074 5.82753C141.71 4.87073 139.907 4.54688 137.98 4.54688V8.54688ZM141.215 10.2039C141.195 12.8329 139.535 15.8546 135.32 19.2466L137.828 22.3628C142.415 18.6714 145.182 14.6358 145.215 10.2336L141.215 10.2039ZM134.698 21.4961C135.113 22.625 136.697 25.8722 139.322 31.0457L142.889 29.2356C140.202 23.9403 138.764 20.9636 138.451 20.1133L134.698 21.4961ZM139.749 28.671C138.41 29.9066 136.379 31.7315 133.647 34.1513L136.299 37.1456C139.035 34.7216 141.092 32.8746 142.462 31.6102L139.749 28.671ZM136.837 34.9255L132.658 24.1443L128.928 25.5901L133.108 36.3714L136.837 34.9255ZM130.793 22.8672H130.754V26.8672H130.793V22.8672ZM128.787 24.5068C128.154 27.9576 127.678 31.1578 127.359 34.1053L131.336 34.5353C131.642 31.7016 132.103 28.5997 132.721 25.2276L128.787 24.5068ZM128.811 32.3936L122.639 34.1124L123.712 37.9657L129.884 36.247L128.811 32.3936ZM125.168 36.2201C125.21 35.7574 125.474 34.1349 126.003 31.1984L122.067 30.4891C121.554 33.3338 121.246 35.1749 121.184 35.858L125.168 36.2201ZM126.006 31.1864L129.912 8.72549L125.971 8.04013L122.065 30.5011L126.006 31.1864ZM130.93 14.0429C130.686 14.9638 130.469 15.8853 130.279 16.8076L134.197 17.6142C134.372 16.7657 134.572 15.9164 134.797 15.0665L130.93 14.0429ZM130.279 16.8076L129.732 19.4639L133.65 20.2705L134.197 17.6142L130.279 16.8076ZM132.606 21.6458C133.672 21.0977 134.697 20.395 135.685 19.5529L133.089 16.5096C132.305 17.1779 131.534 17.6992 130.777 18.0886L132.606 21.6458ZM135.701 19.5388C136.835 18.5505 137.759 17.4662 138.262 16.2656L134.574 14.7187C134.4 15.1328 133.97 15.7412 133.072 16.5237L135.701 19.5388ZM138.166 16.4635C138.415 16.0151 138.613 15.4603 138.613 14.8281H134.613C134.613 14.6127 134.681 14.5005 134.67 14.5209L138.166 16.4635ZM138.613 14.8281C138.613 14.0622 138.332 13.192 137.539 12.5902C136.85 12.0676 136.054 11.9688 135.48 11.9688V15.9688C135.662 15.9688 135.433 16.0131 135.121 15.777C134.947 15.645 134.803 15.4641 134.711 15.2567C134.625 15.0611 134.613 14.9022 134.613 14.8281H138.613ZM135.48 11.9688C134.536 11.9688 133.404 12.2572 132.218 12.6617L133.509 16.4477C134.614 16.0709 135.227 15.9688 135.48 15.9688V11.9688ZM144.348 8.42188L143.98 6.456L142.617 6.71099L142.378 8.07637L144.348 8.42188ZM151.027 7.17188L152.961 7.68122L153.766 4.62459L150.659 5.206L151.027 7.17188ZM147.043 25.5312L145.068 25.2179L144.504 28.7703L147.819 27.3745L147.043 25.5312ZM150.754 23.9688L151.53 25.812L152.535 25.3889L152.724 24.3152L150.754 23.9688ZM153.488 8.42188L153.12 6.456L151.759 6.71086L151.519 8.07543L153.488 8.42188ZM160.168 7.17188L162.107 7.66362L162.876 4.6304L159.8 5.206L160.168 7.17188ZM154.895 34.3203L155.425 36.2487L156.736 35.8882L156.883 34.5366L154.895 34.3203ZM148.645 36.0391L146.676 35.6844L146.113 38.8094L149.175 37.9675L148.645 36.0391ZM149.426 31.7031L151.394 32.0578L152.061 28.357L148.62 29.8728L149.426 31.7031ZM139.504 36.0391L137.534 35.6936L136.891 39.3576L140.302 37.8729L139.504 36.0391ZM144.716 10.3877L151.395 9.13775L150.659 5.206L143.98 6.456L144.716 10.3877ZM149.093 6.66253C147.284 13.5328 145.94 19.7197 145.068 25.2179L149.018 25.8446C149.865 20.5095 151.177 14.4568 152.961 7.68122L149.093 6.66253ZM147.819 27.3745L151.53 25.812L149.978 22.1255L146.267 23.688L147.819 27.3745ZM152.724 24.3152L155.458 8.76832L151.519 8.07543L148.784 23.6223L152.724 24.3152ZM153.856 10.3877L160.536 9.13775L159.8 5.206L153.12 6.456L153.856 10.3877ZM158.229 6.68013C155.508 17.4095 153.727 26.5569 152.906 34.104L156.883 34.5366C157.676 27.2399 159.412 18.2884 162.107 7.66362L158.229 6.68013ZM154.364 32.3919L148.114 34.1107L149.175 37.9675L155.425 36.2487L154.364 32.3919ZM150.613 36.3937L151.394 32.0578L147.457 31.3485L146.676 35.6844L150.613 36.3937ZM148.62 29.8728C146.436 30.8345 143.132 32.2784 138.706 34.2053L140.302 37.8729C144.73 35.9455 148.04 34.4988 150.232 33.5334L148.62 29.8728ZM141.474 36.3846L146.318 8.76738L142.378 8.07637L137.534 35.6936L141.474 36.3846ZM175.012 15.3359L175.714 17.2086L176.861 16.7786L176.999 15.5618L175.012 15.3359ZM172.043 16.4688L171.322 14.6032L171.322 14.6033L172.043 16.4688ZM169.113 17.6016H167.113V20.5192L169.835 19.467L169.113 17.6016ZM165.207 17.4062L163.706 16.0842L163.69 16.1024L163.675 16.121L165.207 17.4062ZM164.348 19.75L162.366 20.0233L162.369 20.0426L162.372 20.0619L164.348 19.75ZM167.785 20.2578L168.165 22.2214L168.18 22.2185L168.195 22.2154L167.785 20.2578ZM174.582 22.1719L176.534 21.738L176.53 21.7203L176.526 21.7026L174.582 22.1719ZM172.863 29.0469L171.185 27.9585L171.178 27.9698L172.863 29.0469ZM166.066 35.4141L165.051 33.691L165.046 33.694L166.066 35.4141ZM157.551 35.6484L155.705 34.8792L155.03 36.4984L156.547 37.3785L157.551 35.6484ZM160.676 28.7344L161.809 27.0863L159.868 25.7519L158.866 27.8835L160.676 28.7344ZM164.621 29.3984L164.121 27.4619L164.089 27.4703L164.057 27.4797L164.621 29.3984ZM166.926 28.5L167.87 30.263L167.88 30.2577L167.89 30.2524L166.926 28.5ZM163.684 26.2344L164.09 28.1926L164.104 28.1898L164.117 28.1867L163.684 26.2344ZM158.293 26.1172L159.44 24.4787L159.421 24.4657L159.402 24.4531L158.293 26.1172ZM157.043 22.9531L159.027 23.2056L159.028 23.1957L159.029 23.1858L157.043 22.9531ZM162.629 12.9141L164.123 14.2441L164.125 14.2409L162.629 12.9141ZM171.574 6.78125L171.445 4.7854L171.437 4.78594L171.429 4.78655L171.574 6.78125ZM174.309 13.4633C173.468 13.7788 172.472 14.1589 171.322 14.6032L172.764 18.3343C173.906 17.8932 174.889 17.5181 175.714 17.2086L174.309 13.4633ZM171.322 14.6033L168.392 15.7362L169.835 19.467L172.764 18.3342L171.322 14.6033ZM171.113 17.6016C171.113 16.8707 171.024 16.005 170.609 15.2565C170.386 14.852 170.052 14.455 169.574 14.1673C169.093 13.8776 168.578 13.7656 168.098 13.7656V17.7656C167.956 17.7656 167.737 17.7301 167.51 17.5934C167.286 17.4587 167.164 17.2912 167.109 17.1927C167.061 17.1057 167.068 17.0772 167.083 17.161C167.098 17.2406 167.113 17.382 167.113 17.6016H171.113ZM168.098 13.7656C166.318 13.7656 164.854 14.7815 163.706 16.0842L166.708 18.7283C167.487 17.8435 167.95 17.7656 168.098 17.7656V13.7656ZM163.675 16.121C162.778 17.1898 162.159 18.5198 162.366 20.0233L166.329 19.4767C166.328 19.4698 166.282 19.2373 166.739 18.6915L163.675 16.121ZM162.372 20.0619C162.524 21.021 163.128 21.718 163.883 22.0955C164.532 22.4201 165.243 22.4922 165.832 22.4922V18.4922C165.69 18.4922 165.608 18.4822 165.573 18.4761C165.536 18.4694 165.581 18.4723 165.672 18.5178C165.769 18.5665 165.925 18.6678 166.068 18.8526C166.215 19.0437 166.294 19.2537 166.323 19.4381L162.372 20.0619ZM165.832 22.4922C166.51 22.4922 167.303 22.3882 168.165 22.2214L167.405 18.2943C166.653 18.4399 166.143 18.4922 165.832 18.4922V22.4922ZM168.195 22.2154C169.221 22.0006 170.069 21.9062 170.754 21.9062V17.9062C169.72 17.9062 168.589 18.0463 167.375 18.3002L168.195 22.2154ZM170.754 21.9062C171.648 21.9062 172.116 22.0656 172.333 22.1938C172.482 22.2819 172.576 22.383 172.638 22.6412L176.526 21.7026C176.224 20.4504 175.497 19.4187 174.37 18.7515C173.311 18.1245 172.047 17.9062 170.754 17.9062V21.9062ZM172.63 22.6057C172.7 22.9206 172.738 23.2691 172.738 23.6562H176.738C176.738 23.0017 176.673 22.3607 176.534 21.738L172.63 22.6057ZM172.738 23.6562C172.738 24.8163 172.302 26.2371 171.185 27.9585L174.541 30.1353C175.925 28.0025 176.738 25.8295 176.738 23.6562H172.738ZM171.178 27.9698C169.754 30.1983 167.732 32.1111 165.051 33.691L167.082 37.1371C170.234 35.2795 172.744 32.9475 174.548 30.124L171.178 27.9698ZM165.046 33.694C163.755 34.4596 162.594 34.7812 161.535 34.7812V38.7812C163.445 38.7812 165.305 38.1915 167.087 37.1342L165.046 33.694ZM161.535 34.7812C160.572 34.7812 159.586 34.517 158.554 33.9184L156.547 37.3785C158.119 38.2903 159.79 38.7812 161.535 38.7812V34.7812ZM159.397 36.4177C160.03 34.8978 161.056 32.6259 162.486 29.5852L158.866 27.8835C157.431 30.9366 156.373 33.2741 155.705 34.8792L159.397 36.4177ZM159.543 30.3825C160.682 31.1656 161.958 31.5938 163.332 31.5938V27.5938C162.831 27.5938 162.336 27.4489 161.809 27.0863L159.543 30.3825ZM163.332 31.5938C163.959 31.5938 164.579 31.4956 165.185 31.3172L164.057 27.4797C163.778 27.5617 163.538 27.5938 163.332 27.5938V31.5938ZM165.121 31.335C166.082 31.0871 166.999 30.7296 167.87 30.263L165.981 26.737C165.394 27.0517 164.775 27.2931 164.121 27.4619L165.121 31.335ZM167.89 30.2524C168.518 29.9069 169.123 29.4872 169.592 28.9596C170.076 28.4161 170.488 27.6667 170.488 26.7422H166.488C166.488 26.5931 166.522 26.469 166.56 26.3842C166.594 26.3057 166.623 26.2798 166.603 26.3021C166.583 26.3248 166.528 26.3798 166.418 26.4615C166.309 26.5423 166.16 26.6387 165.962 26.7476L167.89 30.2524ZM170.488 26.7422C170.488 25.7543 170.021 24.8459 169.129 24.3022C168.398 23.8564 167.559 23.7656 166.887 23.7656V27.7656C167.058 27.7656 167.153 27.7792 167.189 27.7866C167.228 27.7945 167.162 27.7874 167.047 27.7174C166.919 27.6392 166.755 27.4965 166.633 27.2743C166.514 27.0558 166.488 26.8575 166.488 26.7422H170.488ZM166.887 23.7656C165.931 23.7656 164.689 23.9622 163.25 24.282L164.117 28.1867C165.491 27.8815 166.384 27.7656 166.887 27.7656V23.7656ZM163.277 24.2761C161.931 24.5554 161.039 24.6641 160.52 24.6641V28.6641C161.459 28.6641 162.675 28.4862 164.09 28.1926L163.277 24.2761ZM160.52 24.6641C159.768 24.6641 159.492 24.5152 159.44 24.4787L157.146 27.7557C158.136 28.4483 159.344 28.6641 160.52 28.6641V24.6641ZM159.402 24.4531C159.206 24.3224 159.126 24.2025 159.079 24.0835C159.024 23.9439 158.967 23.6768 159.027 23.2056L155.059 22.7006C154.937 23.6617 154.997 24.6382 155.359 25.5532C155.728 26.4889 156.364 27.2349 157.184 27.7813L159.402 24.4531ZM159.029 23.1858C159.296 20.9082 160.829 17.9427 164.123 14.2441L161.135 11.5841C157.658 15.4896 155.467 19.2168 155.057 22.7205L159.029 23.1858ZM164.125 14.2409C165.792 12.361 167.282 10.9998 168.594 10.1007C169.914 9.19556 170.945 8.8324 171.72 8.77595L171.429 4.78655C169.703 4.91239 167.993 5.66252 166.332 6.80162C164.662 7.94682 162.929 9.56092 161.132 11.5872L164.125 14.2409ZM171.703 8.7771C172.294 8.73898 172.473 8.89729 172.633 9.1379C172.912 9.55864 173.207 10.4866 173.207 12.25H177.207C177.207 10.2113 176.896 8.32678 175.965 6.9246C174.914 5.34229 173.276 4.66727 171.445 4.7854L171.703 8.7771ZM173.207 12.25C173.207 13.0693 173.148 14.0206 173.025 15.1101L176.999 15.5618C177.136 14.3596 177.207 13.2536 177.207 12.25H173.207ZM178.488 8.42188L178.147 6.45114L176.755 6.69194L176.517 8.08449L178.488 8.42188ZM185.715 7.17188L187.65 7.67837L188.437 4.67135L185.374 5.20114L185.715 7.17188ZM182.551 20.7656L180.589 20.3782L180.006 23.3283L182.952 22.7249L182.551 20.7656ZM185.793 20.1016L186.194 22.0609L187.534 21.7864L187.764 20.4378L185.793 20.1016ZM187.785 8.42188L187.444 6.45114L186.051 6.69208L185.814 8.08559L187.785 8.42188ZM195.012 7.17188L196.948 7.67364L197.725 4.67277L194.671 5.20114L195.012 7.17188ZM189.777 34.3203L190.273 36.2579L191.631 35.9105L191.768 34.5152L189.777 34.3203ZM183.059 36.0391L181.087 35.7056L180.574 38.7392L183.554 37.9767L183.059 36.0391ZM184.855 25.4141L186.827 25.7476L187.319 22.8407L184.436 23.4585L184.855 25.4141ZM181.535 26.1172L181.123 24.1601L179.77 24.445L179.559 25.8119L181.535 26.1172ZM180.48 34.3203L180.976 36.2579L182.343 35.9083L182.472 34.5034L180.48 34.3203ZM173.762 36.0391L171.79 35.7017L171.27 38.7408L174.257 37.9767L173.762 36.0391ZM178.829 10.3926L186.056 9.14261L185.374 5.20114L178.147 6.45114L178.829 10.3926ZM183.78 6.66538C182.47 11.6701 181.405 16.2418 180.589 20.3782L184.513 21.153C185.311 17.1124 186.356 12.6216 187.65 7.67837L183.78 6.66538ZM182.952 22.7249L186.194 22.0609L185.392 18.1422L182.149 18.8063L182.952 22.7249ZM187.764 20.4378L189.757 8.75816L185.814 8.08559L183.821 19.7653L187.764 20.4378ZM188.126 10.3926L195.353 9.14261L194.671 5.20114L187.444 6.45114L188.126 10.3926ZM193.076 6.67011C190.3 17.3797 188.53 26.5381 187.787 34.1254L191.768 34.5152C192.483 27.2067 194.203 18.2661 196.948 7.67364L193.076 6.67011ZM189.282 32.3827L182.563 34.1015L183.554 37.9767L190.273 36.2579L189.282 32.3827ZM185.031 36.3726L186.827 25.7476L182.883 25.0806L181.087 35.7056L185.031 36.3726ZM184.436 23.4585C183.711 23.6139 182.607 23.8477 181.123 24.1601L181.947 28.0743C183.432 27.7617 184.542 27.5267 185.275 27.3697L184.436 23.4585ZM179.559 25.8119C179.06 29.0401 178.702 31.8176 178.489 34.1372L182.472 34.5034C182.675 32.2918 183.021 29.6005 183.512 26.4225L179.559 25.8119ZM179.985 32.3827L173.266 34.1015L174.257 37.9767L180.976 36.2579L179.985 32.3827ZM175.733 36.3764L180.46 8.75926L176.517 8.08449L171.79 35.7017L175.733 36.3764ZM196.535 8.42188L196.169 6.45561L194.803 6.70982L194.565 8.07908L196.535 8.42188ZM203.254 7.17188L205.19 7.67397L205.979 4.63053L202.888 5.20561L203.254 7.17188ZM197.941 34.3203L198.475 36.2479L199.783 35.8859L199.93 34.5367L197.941 34.3203ZM191.73 36.0391L189.76 35.6963L189.218 38.8094L192.264 37.9666L191.73 36.0391ZM196.901 10.3881L203.62 9.13814L202.888 5.20561L196.169 6.45561L196.901 10.3881ZM201.318 6.66978C198.594 17.1722 196.8 26.3217 195.953 34.1039L199.93 34.5367C200.749 27.0064 202.497 18.0569 205.19 7.67397L201.318 6.66978ZM197.408 32.3928L191.197 34.1115L192.264 37.9666L198.475 36.2479L197.408 32.3928ZM193.701 36.3819L198.506 8.76467L194.565 8.07908L189.76 35.6963L193.701 36.3819ZM204.855 8.53906L204.459 6.57878L203.121 6.84935L202.886 8.19329L204.855 8.53906ZM211.613 7.17188L213.609 7.30064L213.777 4.69354L211.217 5.21159L211.613 7.17188ZM211.887 19.9453L213.88 19.7764L213.879 19.7712L211.887 19.9453ZM212.473 23.6562L210.546 24.1915L214.443 23.9998L212.473 23.6562ZM215.129 8.42188L214.763 6.45561L213.397 6.70972L213.159 8.07834L215.129 8.42188ZM221.848 7.17188L223.784 7.67397L224.573 4.63053L221.482 5.20561L221.848 7.17188ZM216.535 34.3203L217.072 36.247L218.377 35.8835L218.523 34.5367L216.535 34.3203ZM210.363 36.0391L208.574 36.9335L209.312 38.408L210.9 37.9657L210.363 36.0391ZM209.855 34.6719L207.969 35.3348L207.972 35.3451L207.976 35.3554L209.855 34.6719ZM207.824 28.8906L209.711 28.2277L209.708 28.2195L209.705 28.2113L207.824 28.8906ZM207.238 27.0938L209.199 26.7015L205.269 26.7433L207.238 27.0938ZM205.949 36.0391L206.524 37.9547L207.795 37.5734L207.938 36.254L205.949 36.0391ZM199.699 37.9141L197.729 37.5683L197.169 40.7612L200.274 39.8297L199.699 37.9141ZM205.252 10.4993L212.01 9.13216L211.217 5.21159L204.459 6.57878L205.252 10.4993ZM209.617 7.04311C209.561 7.91481 209.535 9.11109 209.535 10.6094H213.535C213.535 9.13891 213.561 8.04352 213.609 7.30064L209.617 7.04311ZM209.535 10.6094C209.535 14.1922 209.654 17.3645 209.894 20.1194L213.879 19.7712C213.651 17.1615 213.535 14.1099 213.535 10.6094H209.535ZM209.894 20.1142C210.029 21.7118 210.238 23.0858 210.546 24.1915L214.4 23.121C214.186 22.3517 214.005 21.2518 213.88 19.7764L209.894 20.1142ZM214.443 23.9998L217.099 8.76541L213.159 8.07834L210.502 23.3127L214.443 23.9998ZM215.495 10.3881L222.213 9.13814L221.482 5.20561L214.763 6.45561L215.495 10.3881ZM219.912 6.66978C217.188 17.1722 215.394 26.3217 214.547 34.1039L218.523 34.5367C219.343 27.0064 221.091 18.0569 223.784 7.67397L219.912 6.66978ZM215.999 32.3936L209.827 34.1124L210.9 37.9657L217.072 36.247L215.999 32.3936ZM212.152 35.1446C212.19 35.2201 212.212 35.2793 212.201 35.251C212.199 35.2469 212.194 35.2333 212.184 35.2064C212.163 35.1535 212.133 35.0732 212.092 34.9618C212.009 34.7405 211.891 34.4168 211.735 33.9884L207.976 35.3554C208.133 35.7863 208.255 36.1202 208.342 36.3546C208.397 36.5019 208.498 36.7815 208.574 36.9335L212.152 35.1446ZM211.742 34.0089L209.711 28.2277L205.937 29.5536L207.969 35.3348L211.742 34.0089ZM209.705 28.2113C209.54 27.7524 209.414 27.3899 209.325 27.1182C209.281 26.9825 209.249 26.8774 209.226 26.7993C209.202 26.7144 209.197 26.6883 209.199 26.7015L205.277 27.486C205.365 27.9245 205.621 28.6791 205.943 29.5699L209.705 28.2113ZM205.269 26.7433C204.715 29.8579 204.279 32.8849 203.961 35.8241L207.938 36.254C208.245 33.4119 208.668 30.4754 209.207 27.4442L205.269 26.7433ZM205.375 34.1234L199.125 35.9984L200.274 39.8297L206.524 37.9547L205.375 34.1234ZM201.669 38.2598L206.825 8.88484L202.886 8.19329L197.729 37.5683L201.669 38.2598ZM219.152 32.4844L221.018 31.7642L221.013 31.7501L221.007 31.736L219.152 32.4844ZM219.074 21.7422L221.009 22.25L221.012 22.2372L219.074 21.7422ZM223.957 11.9375L225.527 13.1768L225.531 13.1716L223.957 11.9375ZM238.918 11.1172L240.38 12.4814L241.224 11.5771L240.792 10.4184L238.918 11.1172ZM234.582 15.7656L232.918 16.875L234.32 18.9784L236.045 17.1298L234.582 15.7656ZM227.512 18.3828L225.826 17.3067L225.822 17.3121L227.512 18.3828ZM224.895 24.5156L226.828 25.0274L226.83 25.0194L226.832 25.0113L224.895 24.5156ZM225.363 29.4766L226.909 28.2071L226.902 28.1986L226.895 28.1902L225.363 29.4766ZM231.262 28.8906L229.805 27.5199L229.797 27.5284L231.262 28.8906ZM233.293 25.5312L235.16 26.2492L236.468 22.8469L232.896 23.5711L233.293 25.5312ZM227.941 26.7422L225.987 26.3195L225.304 29.4754L228.434 28.6806L227.941 26.7422ZM229.191 20.9609L228.778 19.0042L227.51 19.272L227.237 20.5383L229.191 20.9609ZM239.543 18.7734L241.542 18.7119L241.468 16.3224L239.129 16.8167L239.543 18.7734ZM238.449 24.5938L240.328 25.2793L240.333 25.2664L238.449 24.5938ZM235.832 29.9062L237.509 30.9962L237.513 30.9905L235.832 29.9062ZM225.012 34.9375C224.011 34.9375 223.272 34.6768 222.687 34.2319C222.081 33.7715 221.497 33.0036 221.018 31.7642L217.286 33.2045C217.954 34.9339 218.919 36.3925 220.266 37.4165C221.634 38.456 223.252 38.9375 225.012 38.9375V34.9375ZM221.007 31.736C220.518 30.5234 220.254 29.1162 220.254 27.4844H216.254C216.254 29.5505 216.589 31.4766 217.298 33.2328L221.007 31.736ZM220.254 27.4844C220.254 25.9455 220.496 24.2046 221.009 22.25L217.14 21.2344C216.559 23.4464 216.254 25.5337 216.254 27.4844H220.254ZM221.012 22.2372C221.852 18.9481 223.352 15.9321 225.527 13.1768L222.387 10.6982C219.875 13.8804 218.119 17.4009 217.136 21.2471L221.012 22.2372ZM225.531 13.1716C228.163 9.8147 230.665 8.50781 233.02 8.50781V4.50781C228.968 4.50781 225.428 6.82072 222.383 10.7034L225.531 13.1716ZM233.02 8.50781C234.021 8.50781 234.762 8.77469 235.352 9.23605C235.967 9.71587 236.561 10.5193 237.044 11.816L240.792 10.4184C240.13 8.64215 239.168 7.1409 237.815 6.08427C236.44 5.00916 234.804 4.50781 233.02 4.50781V8.50781ZM237.455 9.75299L233.12 14.4014L236.045 17.1298L240.38 12.4814L237.455 9.75299ZM236.246 14.6562C235.373 13.3468 234.03 12.7109 232.512 12.7109V16.7109C232.708 16.7109 232.787 16.7474 232.805 16.7567C232.817 16.7628 232.856 16.7821 232.918 16.875L236.246 14.6562ZM232.512 12.7109C229.706 12.7109 227.514 14.6616 225.826 17.3067L229.198 19.4589C230.634 17.2082 231.776 16.7109 232.512 16.7109V12.7109ZM225.822 17.3121C224.532 19.3483 223.579 21.5883 222.957 24.02L226.832 25.0113C227.356 22.9638 228.148 21.1153 229.201 19.4535L225.822 17.3121ZM222.961 24.0038C222.695 25.0089 222.543 25.9796 222.543 26.8984H226.543C226.543 26.411 226.625 25.7932 226.828 25.0274L222.961 24.0038ZM222.543 26.8984C222.543 28.313 222.911 29.667 223.832 30.7629L226.895 28.1902C226.722 27.984 226.543 27.6193 226.543 26.8984H222.543ZM223.818 30.746C224.85 32.0021 226.286 32.5703 227.863 32.5703V28.5703C227.305 28.5703 227.075 28.4094 226.909 28.2071L223.818 30.746ZM227.863 32.5703C229.775 32.5703 231.407 31.6709 232.726 30.2528L229.797 27.5284C229.033 28.3499 228.399 28.5703 227.863 28.5703V32.5703ZM232.718 30.2614C233.76 29.1543 234.563 27.7997 235.16 26.2492L231.426 24.8133C230.981 25.9711 230.43 26.8561 229.805 27.5199L232.718 30.2614ZM232.896 23.5711C230.942 23.9672 229.126 24.3779 227.449 24.8037L228.434 28.6806C230.038 28.2731 231.79 27.8766 233.69 27.4914L232.896 23.5711ZM229.896 27.1649L231.146 21.3836L227.237 20.5383L225.987 26.3195L229.896 27.1649ZM229.605 22.9177L239.956 20.7302L239.129 16.8167L228.778 19.0042L229.605 22.9177ZM237.544 18.8349C237.586 20.2038 237.292 21.8873 236.566 23.9211L240.333 25.2664C241.169 22.9252 241.604 20.7285 241.542 18.7119L237.544 18.8349ZM236.57 23.9082C235.915 25.7048 235.107 27.3407 234.151 28.822L237.513 30.9905C238.64 29.2427 239.577 27.3368 240.328 25.2793L236.57 23.9082ZM234.155 28.8163C231.337 33.1517 228.279 34.9375 225.012 34.9375V38.9375C230.077 38.9375 234.233 36.0358 237.509 30.9962L234.155 28.8163ZM250.285 8.42188L249.919 6.45561L248.553 6.70982L248.315 8.07908L250.285 8.42188ZM257.004 7.17188L258.94 7.67397L259.729 4.63053L256.638 5.20561L257.004 7.17188ZM251.691 34.3203L252.225 36.2479L253.533 35.8859L253.68 34.5367L251.691 34.3203ZM245.48 36.0391L243.51 35.6963L242.968 38.8094L246.014 37.9666L245.48 36.0391ZM250.651 10.3881L257.37 9.13814L256.638 5.20561L249.919 6.45561L250.651 10.3881ZM255.068 6.66978C252.344 17.1722 250.55 26.3217 249.703 34.1039L253.68 34.5367C254.499 27.0064 256.247 18.0569 258.94 7.67397L255.068 6.66978ZM251.158 32.3928L244.947 34.1115L246.014 37.9666L252.225 36.2479L251.158 32.3928ZM247.451 36.3819L252.256 8.76467L248.315 8.07908L243.51 35.6963L247.451 36.3819ZM272.59 6.78125L274.589 6.84573L274.664 4.52829L272.36 4.79447L272.59 6.78125ZM272.355 14.0469L272.47 16.0436L274.295 15.9393L274.354 14.1114L272.355 14.0469ZM267.16 14.4375L266.971 12.4465L265.546 12.5822L265.215 13.9739L267.16 14.4375ZM263.684 34.3203L264.188 36.2558L265.536 35.9046L265.674 34.5176L263.684 34.3203ZM257.082 36.0391L255.111 35.6983L254.582 38.7565L257.586 37.9745L257.082 36.0391ZM260.676 15.2578L262.647 15.5986L263.118 12.8742L260.383 13.2794L260.676 15.2578ZM258.566 15.6094L258.202 13.6428L258.196 13.6441L258.566 15.6094ZM256.496 16L254.5 16.1281L254.645 18.3846L256.867 17.9653L256.496 16ZM256.027 8.69531L255.798 6.70854L253.91 6.92672L254.031 8.82339L256.027 8.69531ZM270.591 6.71677L270.357 13.9824L274.354 14.1114L274.589 6.84573L270.591 6.71677ZM272.241 12.0501C270.396 12.1556 268.639 12.2876 266.971 12.4465L267.35 16.4285C268.963 16.2749 270.669 16.1465 272.47 16.0436L272.241 12.0501ZM265.215 13.9739C263.479 21.2567 262.303 27.9746 261.693 34.123L265.674 34.5176C266.262 28.5826 267.403 22.0454 269.106 14.9011L265.215 13.9739ZM263.18 32.3848L256.578 34.1036L257.586 37.9745L264.188 36.2558L263.18 32.3848ZM259.053 36.3799L262.647 15.5986L258.705 14.917L255.111 35.6983L259.053 36.3799ZM260.383 13.2794C259.656 13.3871 258.929 13.5083 258.202 13.6428L258.931 17.5759C259.61 17.4501 260.29 17.3368 260.969 17.2362L260.383 13.2794ZM258.196 13.6441L256.125 14.0347L256.867 17.9653L258.937 17.5747L258.196 13.6441ZM258.492 15.8719L258.023 8.56723L254.031 8.82339L254.5 16.1281L258.492 15.8719ZM256.257 10.6821L272.819 8.76803L272.36 4.79447L255.798 6.70854L256.257 10.6821ZM272.98 29.6328L273.239 31.616L273.251 31.6144L273.263 31.6127L272.98 29.6328ZM275.402 30.0234L274.431 31.7718L274.469 31.7929L274.508 31.8123L275.402 30.0234ZM274.738 35.2578L273.513 33.6774L273.506 33.6827L273.499 33.688L274.738 35.2578ZM271.496 36.6641L271.232 34.6816L271.221 34.6831L271.496 36.6641ZM269.074 36.3516L268.157 38.1288L268.168 38.1347L268.18 38.1404L269.074 36.3516ZM269.699 31.0781L268.435 29.5284L268.428 29.5337L268.422 29.539L269.699 31.0781ZM277.395 5.33594L277.725 3.36341L275.962 3.06826L275.471 4.7865L277.395 5.33594ZM285.559 6.70312L287.306 7.6764L288.686 5.19898L285.889 4.73059L285.559 6.70312ZM280.793 15.8047L278.979 14.9625L278.977 14.9676L280.793 15.8047ZM277.121 25.5312L277.035 27.5294L278.581 27.5961L279.034 26.1164L277.121 25.5312ZM271.691 25.2969L269.768 24.7474L269.072 27.1857L271.605 27.295L271.691 25.2969ZM273.263 31.6127C273.808 31.5349 274.163 31.6231 274.431 31.7718L276.374 28.2751C275.235 27.6426 273.976 27.4703 272.698 27.6529L273.263 31.6127ZM274.508 31.8123C274.59 31.8533 274.633 31.8856 274.65 31.9006C274.666 31.9144 274.664 31.9155 274.655 31.9023C274.647 31.8887 274.643 31.8782 274.644 31.8799C274.645 31.8834 274.652 31.9124 274.652 31.9766H278.652C278.652 31.2087 278.467 30.4383 278.024 29.7461C277.585 29.0598 276.97 28.571 276.297 28.2346L274.508 31.8123ZM274.652 31.9766C274.652 32.3571 274.483 32.9251 273.513 33.6774L275.964 36.8383C277.546 35.6114 278.652 33.9918 278.652 31.9766H274.652ZM273.499 33.688C272.772 34.262 272.024 34.576 271.232 34.6816L271.76 38.6465C273.312 38.4396 274.725 37.8161 275.978 36.8276L273.499 33.688ZM271.221 34.6831C270.583 34.7717 270.203 34.6798 269.969 34.5627L268.18 38.1404C269.3 38.7004 270.534 38.8169 271.771 38.645L271.221 34.6831ZM269.992 34.5743C269.918 34.5363 269.881 34.5072 269.867 34.495C269.855 34.484 269.858 34.4845 269.866 34.4969C269.874 34.5095 269.875 34.517 269.873 34.5104C269.871 34.5019 269.863 34.4676 269.863 34.3984H265.863C265.863 35.1544 266.039 35.9159 266.466 36.6047C266.891 37.2906 267.492 37.7857 268.157 38.1288L269.992 34.5743ZM269.863 34.3984C269.863 33.9762 270.05 33.3857 270.976 32.6172L268.422 29.539C266.9 30.8018 265.863 32.4248 265.863 34.3984H269.863ZM270.963 32.6279C271.682 32.0417 272.432 31.7213 273.239 31.616L272.722 27.6496C271.133 27.8568 269.696 28.4999 268.435 29.5284L270.963 32.6279ZM277.064 7.30847L285.228 8.67566L285.889 4.73059L277.725 3.36341L277.064 7.30847ZM283.811 5.72985C281.642 9.62374 280.026 12.708 278.979 14.9625L282.607 16.6469C283.592 14.5264 285.152 11.5429 287.306 7.6764L283.811 5.72985ZM278.977 14.9676C277.555 18.0522 276.3 21.3794 275.209 24.9461L279.034 26.1164C280.078 22.7039 281.271 19.5468 282.609 16.6418L278.977 14.9676ZM277.207 23.5331L271.778 23.2987L271.605 27.295L277.035 27.5294L277.207 23.5331ZM273.614 25.8463L279.318 5.88538L275.471 4.7865L269.768 24.7474L273.614 25.8463Z" fill="#F7931E" mask="url(#path-1-outside-1_2878_7721)"/>
</svg>
