<svg width="250" height="43" viewBox="0 0 250 43" fill="none" xmlns="http://www.w3.org/2000/svg">
<mask id="path-1-outside-1_2878_7722" maskUnits="userSpaceOnUse" x="7" y="2" width="241" height="39" fill="black">
<rect fill="white" x="7" y="2" width="241" height="39"/>
<path d="M23.5547 7.83594L29.8438 8.92969C24.2188 18.7995 19.7656 27.7318 16.4844 35.7266L10.4688 35.3359L14.6094 26.625L11.3281 10.9219L18.9453 7.40625C18.8672 8.60417 18.8151 10.1016 18.7891 11.8984C18.763 13.6953 18.8542 15.4922 19.0625 17.2891L23.5547 7.83594ZM39.2969 5.45312C42.0573 5.45312 44.0104 6.98958 45.1562 10.0625C45.7552 11.651 46.0547 13.3958 46.0547 15.2969C46.0547 17.1198 45.7812 19.099 45.2344 21.2344C44.2708 24.8802 42.6042 28.2396 40.2344 31.3125C37.3438 35.0625 34.2839 36.9375 31.0547 36.9375C28.2682 36.9375 26.2891 35.401 25.1172 32.3281C24.5443 30.8177 24.2578 29.125 24.2578 27.25C24.2578 25.401 24.5443 23.3958 25.1172 21.2344C26.0807 17.5625 27.7344 14.1901 30.0781 11.1172C32.9688 7.34115 36.0417 5.45312 39.2969 5.45312ZM37.8906 15.1406C36.4583 15.1406 35 16.3125 33.5156 18.6562C32.3177 20.5052 31.4844 22.3151 31.0156 24.0859C30.7812 25.0234 30.6641 25.8698 30.6641 26.625C30.6641 27.6927 30.9245 28.5651 31.4453 29.2422C32.0443 29.9974 32.8776 30.375 33.9453 30.375C35.4036 30.375 36.7188 29.6068 37.8906 28.0703C38.8281 26.8464 39.5052 25.401 39.9219 23.7344C40.4167 21.7812 40.5208 19.8542 40.2344 17.9531C39.9219 16.0781 39.1406 15.1406 37.8906 15.1406ZM48.2031 8.42188L54.8828 7.17188C53.0859 13.9948 51.7578 20.1146 50.8984 25.5312L54.6094 23.9688L57.3438 8.42188L64.0234 7.17188C61.3151 17.849 59.5573 26.8984 58.75 34.3203L52.5 36.0391L53.2812 31.7031C51.0938 32.6667 47.7865 34.112 43.3594 36.0391L48.2031 8.42188ZM74.4141 4.47656C72.7474 9.00781 71.5885 13.1224 70.9375 16.8203L63.3984 17.9922L67.1875 5.02344L74.4141 4.47656ZM74.375 8.38281C78.4635 7.15885 81.8099 6.54688 84.4141 6.54688C87.9297 6.54688 89.6745 7.77083 89.6484 10.2188C89.6224 13.7344 87.4089 17.263 83.0078 20.8047C83.3724 21.7943 84.8828 24.9062 87.5391 30.1406C86.1849 31.3906 84.1406 33.2266 81.4062 35.6484L77.2266 24.8672H77.1875C76.5625 28.2786 76.0938 31.4297 75.7812 34.3203L69.6094 36.0391C69.6615 35.4661 69.9479 33.7344 70.4688 30.8438L74.375 8.38281ZM79.2969 14.5547C79.0625 15.4401 78.8542 16.3255 78.6719 17.2109L78.125 19.8672C79.0365 19.3984 79.9349 18.7865 80.8203 18.0312C81.8359 17.1458 82.513 16.2995 82.8516 15.4922C82.9818 15.2578 83.0469 15.0365 83.0469 14.8281C83.0469 14.2552 82.6693 13.9688 81.9141 13.9688C81.3151 13.9688 80.4427 14.1641 79.2969 14.5547ZM95.625 14.2422C95.4167 14.9974 95.2344 15.7396 95.0781 16.4688L94.6484 18.6172L100.898 17.2891L100.547 22.6797C97.5781 23.2005 95.2474 23.6562 93.5547 24.0469C93.4505 24.5677 93.3594 25.0885 93.2812 25.6094L93.0078 27.1328L100.273 26.0781L99.7656 33.3438C96.0156 33.6562 91.263 34.5547 85.5078 36.0391L90.1562 8.03125L103.164 6.15625L102.656 13.3828C100.104 13.6172 97.7604 13.9036 95.625 14.2422ZM104.844 36.5078C108.672 26.7422 111.771 17.3281 114.141 8.26562L126.016 6.27344C124.661 14.1641 124.049 23.5 124.18 34.2812L115.898 36.1953L116.484 31.3125L113.867 31.8203L113.047 35.2578L104.844 36.5078ZM117.109 26.0781L118.906 11.3125H118.867L115.195 26.4297L117.109 26.0781ZM138.711 36.9375C135.951 36.9375 133.997 35.4531 132.852 32.4844C132.253 31 131.953 29.3333 131.953 27.4844C131.953 25.7396 132.227 23.8255 132.773 21.7422C133.685 18.1745 135.312 14.9062 137.656 11.9375C140.495 8.31771 143.516 6.50781 146.719 6.50781C149.505 6.50781 151.471 8.04427 152.617 11.1172L148.281 15.7656C147.812 15.0625 147.122 14.7109 146.211 14.7109C144.44 14.7109 142.773 15.9349 141.211 18.3828C140.039 20.2318 139.167 22.276 138.594 24.5156C138.359 25.401 138.242 26.1953 138.242 26.8984C138.242 27.9661 138.516 28.8255 139.062 29.4766C139.661 30.2057 140.495 30.5703 141.562 30.5703C142.786 30.5703 143.919 30.0104 144.961 28.8906C145.794 28.0052 146.471 26.8854 146.992 25.5312C145.065 25.9219 143.281 26.3255 141.641 26.7422L142.891 20.9609L153.242 18.7734C153.294 20.4661 152.93 22.4062 152.148 24.5938C151.445 26.5208 150.573 28.2917 149.531 29.9062C146.484 34.5938 142.878 36.9375 138.711 36.9375ZM160.547 14.2422C160.339 14.9974 160.156 15.7396 160 16.4688L159.57 18.6172L165.82 17.2891L165.469 22.6797C162.5 23.2005 160.169 23.6562 158.477 24.0469C158.372 24.5677 158.281 25.0885 158.203 25.6094L157.93 27.1328L165.195 26.0781L164.688 33.3438C160.938 33.6562 156.185 34.5547 150.43 36.0391L155.078 8.03125L168.086 6.15625L167.578 13.3828C165.026 13.6172 162.682 13.9036 160.547 14.2422ZM170.273 8.53906L177.031 7.17188C176.979 7.97917 176.953 9.125 176.953 10.6094C176.953 14.151 177.07 17.263 177.305 19.9453C177.435 21.4818 177.63 22.7188 177.891 23.6562L180.547 8.42188L187.266 7.17188C184.557 17.6146 182.786 26.6641 181.953 34.3203L175.781 36.0391C175.755 35.987 175.586 35.5312 175.273 34.6719L173.242 28.8906C172.904 27.9531 172.708 27.3542 172.656 27.0938C172.109 30.1667 171.68 33.1484 171.367 36.0391L165.117 37.9141L170.273 8.53906ZM188.867 8.42188L195.586 7.17188C192.878 17.6146 191.107 26.6641 190.273 34.3203L184.062 36.0391L188.867 8.42188ZM197.031 8.42188L203.711 7.17188C201.914 13.9948 200.586 20.1146 199.727 25.5312L203.438 23.9688L206.172 8.42188L212.852 7.17188C210.143 17.849 208.385 26.8984 207.578 34.3203L201.328 36.0391L202.109 31.7031C199.922 32.6667 196.615 34.112 192.188 36.0391L197.031 8.42188ZM227.695 15.3359C226.862 15.6484 225.872 16.026 224.727 16.4688L221.797 17.6016C221.797 16.3776 221.458 15.7656 220.781 15.7656C219.818 15.7656 218.854 16.3125 217.891 17.4062C217.214 18.2135 216.927 18.9948 217.031 19.75C217.109 20.2448 217.604 20.4922 218.516 20.4922C219.01 20.4922 219.661 20.4141 220.469 20.2578C221.589 20.0234 222.578 19.9062 223.438 19.9062C225.625 19.9062 226.901 20.6615 227.266 22.1719C227.37 22.6406 227.422 23.1354 227.422 23.6562C227.422 25.3229 226.797 27.1198 225.547 29.0469C223.932 31.5729 221.667 33.6953 218.75 35.4141C217.214 36.3255 215.703 36.7812 214.219 36.7812C212.865 36.7812 211.536 36.4036 210.234 35.6484C210.885 34.0859 211.927 31.7812 213.359 28.7344C214.193 29.3073 215.078 29.5938 216.016 29.5938C216.432 29.5938 216.862 29.5286 217.305 29.3984C218.112 29.1901 218.88 28.8906 219.609 28.5C220.651 27.9271 221.172 27.3411 221.172 26.7422C221.172 26.0911 220.638 25.7656 219.57 25.7656C218.841 25.7656 217.773 25.9219 216.367 26.2344C214.987 26.5208 213.932 26.6641 213.203 26.6641C212.24 26.6641 211.497 26.4818 210.977 26.1172C209.961 25.4401 209.544 24.3854 209.727 22.9531C210.065 20.0625 211.927 16.7161 215.312 12.9141C218.776 9.00781 221.758 6.96354 224.258 6.78125C226.68 6.625 227.891 8.44792 227.891 12.25C227.891 13.1615 227.826 14.1901 227.695 15.3359ZM231.68 29.6328C232.591 29.5026 233.398 29.6328 234.102 30.0234C234.935 30.4401 235.352 31.0911 235.352 31.9766C235.352 33.1745 234.714 34.2682 233.438 35.2578C232.448 36.0391 231.367 36.5078 230.195 36.6641C229.258 36.7943 228.451 36.6901 227.773 36.3516C226.966 35.9349 226.562 35.2839 226.562 34.3984C226.562 33.2005 227.174 32.0938 228.398 31.0781C229.388 30.2708 230.482 29.7891 231.68 29.6328ZM236.094 5.33594L244.258 6.70312C242.096 10.5833 240.508 13.6172 239.492 15.8047C238.112 18.7995 236.888 22.0417 235.82 25.5312L230.391 25.2969L236.094 5.33594Z"/>
</mask>
<path d="M23.5547 7.83594L29.8438 8.92969C24.2188 18.7995 19.7656 27.7318 16.4844 35.7266L10.4688 35.3359L14.6094 26.625L11.3281 10.9219L18.9453 7.40625C18.8672 8.60417 18.8151 10.1016 18.7891 11.8984C18.763 13.6953 18.8542 15.4922 19.0625 17.2891L23.5547 7.83594ZM39.2969 5.45312C42.0573 5.45312 44.0104 6.98958 45.1562 10.0625C45.7552 11.651 46.0547 13.3958 46.0547 15.2969C46.0547 17.1198 45.7812 19.099 45.2344 21.2344C44.2708 24.8802 42.6042 28.2396 40.2344 31.3125C37.3438 35.0625 34.2839 36.9375 31.0547 36.9375C28.2682 36.9375 26.2891 35.401 25.1172 32.3281C24.5443 30.8177 24.2578 29.125 24.2578 27.25C24.2578 25.401 24.5443 23.3958 25.1172 21.2344C26.0807 17.5625 27.7344 14.1901 30.0781 11.1172C32.9688 7.34115 36.0417 5.45312 39.2969 5.45312ZM37.8906 15.1406C36.4583 15.1406 35 16.3125 33.5156 18.6562C32.3177 20.5052 31.4844 22.3151 31.0156 24.0859C30.7812 25.0234 30.6641 25.8698 30.6641 26.625C30.6641 27.6927 30.9245 28.5651 31.4453 29.2422C32.0443 29.9974 32.8776 30.375 33.9453 30.375C35.4036 30.375 36.7188 29.6068 37.8906 28.0703C38.8281 26.8464 39.5052 25.401 39.9219 23.7344C40.4167 21.7812 40.5208 19.8542 40.2344 17.9531C39.9219 16.0781 39.1406 15.1406 37.8906 15.1406ZM48.2031 8.42188L54.8828 7.17188C53.0859 13.9948 51.7578 20.1146 50.8984 25.5312L54.6094 23.9688L57.3438 8.42188L64.0234 7.17188C61.3151 17.849 59.5573 26.8984 58.75 34.3203L52.5 36.0391L53.2812 31.7031C51.0938 32.6667 47.7865 34.112 43.3594 36.0391L48.2031 8.42188ZM74.4141 4.47656C72.7474 9.00781 71.5885 13.1224 70.9375 16.8203L63.3984 17.9922L67.1875 5.02344L74.4141 4.47656ZM74.375 8.38281C78.4635 7.15885 81.8099 6.54688 84.4141 6.54688C87.9297 6.54688 89.6745 7.77083 89.6484 10.2188C89.6224 13.7344 87.4089 17.263 83.0078 20.8047C83.3724 21.7943 84.8828 24.9062 87.5391 30.1406C86.1849 31.3906 84.1406 33.2266 81.4062 35.6484L77.2266 24.8672H77.1875C76.5625 28.2786 76.0938 31.4297 75.7812 34.3203L69.6094 36.0391C69.6615 35.4661 69.9479 33.7344 70.4688 30.8438L74.375 8.38281ZM79.2969 14.5547C79.0625 15.4401 78.8542 16.3255 78.6719 17.2109L78.125 19.8672C79.0365 19.3984 79.9349 18.7865 80.8203 18.0312C81.8359 17.1458 82.513 16.2995 82.8516 15.4922C82.9818 15.2578 83.0469 15.0365 83.0469 14.8281C83.0469 14.2552 82.6693 13.9688 81.9141 13.9688C81.3151 13.9688 80.4427 14.1641 79.2969 14.5547ZM95.625 14.2422C95.4167 14.9974 95.2344 15.7396 95.0781 16.4688L94.6484 18.6172L100.898 17.2891L100.547 22.6797C97.5781 23.2005 95.2474 23.6562 93.5547 24.0469C93.4505 24.5677 93.3594 25.0885 93.2812 25.6094L93.0078 27.1328L100.273 26.0781L99.7656 33.3438C96.0156 33.6562 91.263 34.5547 85.5078 36.0391L90.1562 8.03125L103.164 6.15625L102.656 13.3828C100.104 13.6172 97.7604 13.9036 95.625 14.2422ZM104.844 36.5078C108.672 26.7422 111.771 17.3281 114.141 8.26562L126.016 6.27344C124.661 14.1641 124.049 23.5 124.18 34.2812L115.898 36.1953L116.484 31.3125L113.867 31.8203L113.047 35.2578L104.844 36.5078ZM117.109 26.0781L118.906 11.3125H118.867L115.195 26.4297L117.109 26.0781ZM138.711 36.9375C135.951 36.9375 133.997 35.4531 132.852 32.4844C132.253 31 131.953 29.3333 131.953 27.4844C131.953 25.7396 132.227 23.8255 132.773 21.7422C133.685 18.1745 135.312 14.9062 137.656 11.9375C140.495 8.31771 143.516 6.50781 146.719 6.50781C149.505 6.50781 151.471 8.04427 152.617 11.1172L148.281 15.7656C147.812 15.0625 147.122 14.7109 146.211 14.7109C144.44 14.7109 142.773 15.9349 141.211 18.3828C140.039 20.2318 139.167 22.276 138.594 24.5156C138.359 25.401 138.242 26.1953 138.242 26.8984C138.242 27.9661 138.516 28.8255 139.062 29.4766C139.661 30.2057 140.495 30.5703 141.562 30.5703C142.786 30.5703 143.919 30.0104 144.961 28.8906C145.794 28.0052 146.471 26.8854 146.992 25.5312C145.065 25.9219 143.281 26.3255 141.641 26.7422L142.891 20.9609L153.242 18.7734C153.294 20.4661 152.93 22.4062 152.148 24.5938C151.445 26.5208 150.573 28.2917 149.531 29.9062C146.484 34.5938 142.878 36.9375 138.711 36.9375ZM160.547 14.2422C160.339 14.9974 160.156 15.7396 160 16.4688L159.57 18.6172L165.82 17.2891L165.469 22.6797C162.5 23.2005 160.169 23.6562 158.477 24.0469C158.372 24.5677 158.281 25.0885 158.203 25.6094L157.93 27.1328L165.195 26.0781L164.688 33.3438C160.938 33.6562 156.185 34.5547 150.43 36.0391L155.078 8.03125L168.086 6.15625L167.578 13.3828C165.026 13.6172 162.682 13.9036 160.547 14.2422ZM170.273 8.53906L177.031 7.17188C176.979 7.97917 176.953 9.125 176.953 10.6094C176.953 14.151 177.07 17.263 177.305 19.9453C177.435 21.4818 177.63 22.7188 177.891 23.6562L180.547 8.42188L187.266 7.17188C184.557 17.6146 182.786 26.6641 181.953 34.3203L175.781 36.0391C175.755 35.987 175.586 35.5312 175.273 34.6719L173.242 28.8906C172.904 27.9531 172.708 27.3542 172.656 27.0938C172.109 30.1667 171.68 33.1484 171.367 36.0391L165.117 37.9141L170.273 8.53906ZM188.867 8.42188L195.586 7.17188C192.878 17.6146 191.107 26.6641 190.273 34.3203L184.062 36.0391L188.867 8.42188ZM197.031 8.42188L203.711 7.17188C201.914 13.9948 200.586 20.1146 199.727 25.5312L203.438 23.9688L206.172 8.42188L212.852 7.17188C210.143 17.849 208.385 26.8984 207.578 34.3203L201.328 36.0391L202.109 31.7031C199.922 32.6667 196.615 34.112 192.188 36.0391L197.031 8.42188ZM227.695 15.3359C226.862 15.6484 225.872 16.026 224.727 16.4688L221.797 17.6016C221.797 16.3776 221.458 15.7656 220.781 15.7656C219.818 15.7656 218.854 16.3125 217.891 17.4062C217.214 18.2135 216.927 18.9948 217.031 19.75C217.109 20.2448 217.604 20.4922 218.516 20.4922C219.01 20.4922 219.661 20.4141 220.469 20.2578C221.589 20.0234 222.578 19.9062 223.438 19.9062C225.625 19.9062 226.901 20.6615 227.266 22.1719C227.37 22.6406 227.422 23.1354 227.422 23.6562C227.422 25.3229 226.797 27.1198 225.547 29.0469C223.932 31.5729 221.667 33.6953 218.75 35.4141C217.214 36.3255 215.703 36.7812 214.219 36.7812C212.865 36.7812 211.536 36.4036 210.234 35.6484C210.885 34.0859 211.927 31.7812 213.359 28.7344C214.193 29.3073 215.078 29.5938 216.016 29.5938C216.432 29.5938 216.862 29.5286 217.305 29.3984C218.112 29.1901 218.88 28.8906 219.609 28.5C220.651 27.9271 221.172 27.3411 221.172 26.7422C221.172 26.0911 220.638 25.7656 219.57 25.7656C218.841 25.7656 217.773 25.9219 216.367 26.2344C214.987 26.5208 213.932 26.6641 213.203 26.6641C212.24 26.6641 211.497 26.4818 210.977 26.1172C209.961 25.4401 209.544 24.3854 209.727 22.9531C210.065 20.0625 211.927 16.7161 215.312 12.9141C218.776 9.00781 221.758 6.96354 224.258 6.78125C226.68 6.625 227.891 8.44792 227.891 12.25C227.891 13.1615 227.826 14.1901 227.695 15.3359ZM231.68 29.6328C232.591 29.5026 233.398 29.6328 234.102 30.0234C234.935 30.4401 235.352 31.0911 235.352 31.9766C235.352 33.1745 234.714 34.2682 233.438 35.2578C232.448 36.0391 231.367 36.5078 230.195 36.6641C229.258 36.7943 228.451 36.6901 227.773 36.3516C226.966 35.9349 226.562 35.2839 226.562 34.3984C226.562 33.2005 227.174 32.0938 228.398 31.0781C229.388 30.2708 230.482 29.7891 231.68 29.6328ZM236.094 5.33594L244.258 6.70312C242.096 10.5833 240.508 13.6172 239.492 15.8047C238.112 18.7995 236.888 22.0417 235.82 25.5312L230.391 25.2969L236.094 5.33594Z" fill="#FAD557"/>
<path d="M23.5547 7.83594L23.8974 5.86551L22.4004 5.60518L21.7483 6.97752L23.5547 7.83594ZM29.8438 8.92969L31.5814 9.91999L32.9908 7.44698L30.1864 6.95926L29.8438 8.92969ZM16.4844 35.7266L16.3548 37.7224L17.7889 37.8155L18.3346 36.4859L16.4844 35.7266ZM10.4688 35.3359L8.66243 34.4773L7.39646 37.1407L10.3392 37.3317L10.4688 35.3359ZM14.6094 26.625L16.4157 27.4836L16.7049 26.8753L16.5671 26.2159L14.6094 26.625ZM11.3281 10.9219L10.49 9.10596L9.04486 9.77295L9.37041 11.331L11.3281 10.9219ZM18.9453 7.40625L20.9411 7.53641L21.1599 4.1814L18.1072 5.59033L18.9453 7.40625ZM19.0625 17.2891L17.0758 17.5194L17.8783 24.4408L20.8689 18.1475L19.0625 17.2891ZM23.212 9.80636L29.5011 10.9001L30.1864 6.95926L23.8974 5.86551L23.212 9.80636ZM28.1061 7.93939C22.451 17.862 17.9562 26.8729 14.6341 34.9672L18.3346 36.4859C21.575 28.5906 25.9865 19.737 31.5814 9.91999L28.1061 7.93939ZM16.614 33.7308L10.5983 33.3401L10.3392 37.3317L16.3548 37.7224L16.614 33.7308ZM12.2751 36.1945L16.4157 27.4836L12.8031 25.7664L8.66243 34.4773L12.2751 36.1945ZM16.5671 26.2159L13.2858 10.5128L9.37041 11.331L12.6517 27.0341L16.5671 26.2159ZM12.1662 12.7378L19.7834 9.22217L18.1072 5.59033L10.49 9.10596L12.1662 12.7378ZM16.9496 7.27609C16.8684 8.51977 16.8156 10.0536 16.7893 11.8695L20.7889 11.9274C20.8146 10.1495 20.8659 8.68856 20.9411 7.53641L16.9496 7.27609ZM16.7893 11.8695C16.762 13.7535 16.8576 15.637 17.0758 17.5194L21.0492 17.0587C20.8508 15.3473 20.7641 13.6371 20.7889 11.9274L16.7893 11.8695ZM20.8689 18.1475L25.3611 8.69436L21.7483 6.97752L17.2561 16.4306L20.8689 18.1475ZM45.1562 10.0625L43.2823 10.7613L43.2849 10.7681L45.1562 10.0625ZM45.2344 21.2344L47.168 21.7454L47.1699 21.738L47.1718 21.7306L45.2344 21.2344ZM40.2344 31.3125L38.6506 30.0911L38.6504 30.0915L40.2344 31.3125ZM25.1172 32.3281L23.2472 33.0374L23.2485 33.0408L25.1172 32.3281ZM25.1172 21.2344L27.0504 21.7468L27.0517 21.742L25.1172 21.2344ZM30.0781 11.1172L28.49 9.90147L28.4879 9.90429L30.0781 11.1172ZM33.5156 18.6562L35.1941 19.7437L35.1997 19.7351L35.2053 19.7264L33.5156 18.6562ZM31.0156 24.0859L29.0822 23.5742L29.0787 23.5875L29.0753 23.6009L31.0156 24.0859ZM31.4453 29.2422L29.8601 30.4616L29.8691 30.4734L29.8783 30.485L31.4453 29.2422ZM37.8906 28.0703L36.3029 26.8542L36.3004 26.8574L37.8906 28.0703ZM39.9219 23.7344L37.9831 23.2432L37.9816 23.2493L39.9219 23.7344ZM40.2344 17.9531L42.212 17.6551L42.2097 17.6397L42.2072 17.6243L40.2344 17.9531ZM39.2969 7.45312C40.2812 7.45312 41.0107 7.71734 41.5955 8.17738C42.2051 8.65694 42.7977 9.4616 43.2823 10.7613L47.0302 9.36374C46.369 7.59048 45.4121 6.09046 44.0686 5.03356C42.7003 3.95714 41.073 3.45312 39.2969 3.45312V7.45312ZM43.2849 10.7681C43.7892 12.1057 44.0547 13.6082 44.0547 15.2969H48.0547C48.0547 13.1835 47.7212 11.1963 47.0276 9.35689L43.2849 10.7681ZM44.0547 15.2969C44.0547 16.9219 43.8106 18.7324 43.2969 20.7382L47.1718 21.7306C47.7519 19.4656 48.0547 17.3177 48.0547 15.2969H44.0547ZM43.3008 20.7233C42.4073 24.1039 40.8625 27.223 38.6506 30.0911L41.8181 32.5339C44.3459 29.2561 46.1343 25.6565 47.168 21.7454L43.3008 20.7233ZM38.6504 30.0915C35.9546 33.5887 33.4145 34.9375 31.0547 34.9375V38.9375C35.1532 38.9375 38.7329 36.5363 41.8184 32.5335L38.6504 30.0915ZM31.0547 34.9375C30.053 34.9375 29.3063 34.6706 28.7069 34.2053C28.084 33.7218 27.4811 32.914 26.9859 31.6155L23.2485 33.0408C23.9251 34.8151 24.8977 36.3121 26.254 37.365C27.6338 38.4362 29.2699 38.9375 31.0547 38.9375V34.9375ZM26.9872 31.6188C26.5128 30.3683 26.2578 28.921 26.2578 27.25H22.2578C22.2578 29.329 22.5757 31.2671 23.2472 33.0374L26.9872 31.6188ZM26.2578 27.25C26.2578 25.6056 26.5129 23.7747 27.0504 21.7468L23.1839 20.7219C22.5756 23.017 22.2578 25.1964 22.2578 27.25H26.2578ZM27.0517 21.742C27.947 18.3303 29.4819 15.1968 31.6684 12.3301L28.4879 9.90429C25.9869 13.1834 24.2145 16.7947 23.1827 20.7267L27.0517 21.742ZM31.6662 12.3329C34.3605 8.8134 36.9126 7.45312 39.2969 7.45312V3.45312C35.1708 3.45312 31.577 5.86889 28.49 9.90147L31.6662 12.3329ZM37.8906 13.1406C35.33 13.1406 33.3508 15.1785 31.826 17.5861L35.2053 19.7264C36.6492 17.4465 37.5867 17.1406 37.8906 17.1406V13.1406ZM31.8371 17.5688C30.5469 19.5602 29.6147 21.5626 29.0822 23.5742L32.949 24.5977C33.3541 23.0676 34.0885 21.4502 35.1941 19.7437L31.8371 17.5688ZM29.0753 23.6009C28.8117 24.6552 28.6641 25.6682 28.6641 26.625H32.6641C32.6641 26.0714 32.7508 25.3916 32.9559 24.571L29.0753 23.6009ZM28.6641 26.625C28.6641 28.0216 29.0091 29.3553 29.8601 30.4616L33.0306 28.0228C32.8399 27.7749 32.6641 27.3639 32.6641 26.625H28.6641ZM29.8783 30.485C30.9009 31.7744 32.3421 32.375 33.9453 32.375V28.375C33.4132 28.375 33.1876 28.2204 33.0123 27.9994L29.8783 30.485ZM33.9453 32.375C36.2185 32.375 38.0639 31.141 39.4809 29.2832L36.3004 26.8574C35.3736 28.0726 34.5888 28.375 33.9453 28.375V32.375ZM39.4784 29.2865C40.6002 27.8219 41.3868 26.1209 41.8622 24.2194L37.9816 23.2493C37.6236 24.6811 37.0561 25.8708 36.3029 26.8542L39.4784 29.2865ZM41.8606 24.2255C42.4175 22.0272 42.54 19.8317 42.212 17.6551L38.2567 18.2511C38.5016 19.8766 38.4158 21.5353 37.9831 23.2432L41.8606 24.2255ZM42.2072 17.6243C42.0223 16.5149 41.6615 15.4166 40.9505 14.5634C40.1694 13.626 39.0925 13.1406 37.8906 13.1406V17.1406C37.9479 17.1406 37.9403 17.15 37.9021 17.1323C37.8625 17.1141 37.8549 17.0968 37.8776 17.1241C37.9479 17.2084 38.134 17.5164 38.2616 18.2819L42.2072 17.6243ZM48.2031 8.42188L47.8352 6.456L46.4727 6.71099L46.2332 8.07637L48.2031 8.42188ZM54.8828 7.17188L56.8169 7.68122L57.6219 4.62459L54.5149 5.206L54.8828 7.17188ZM50.8984 25.5312L48.9231 25.2179L48.3595 28.7703L51.6746 27.3745L50.8984 25.5312ZM54.6094 23.9688L55.3855 25.812L56.3903 25.3889L56.5791 24.3152L54.6094 23.9688ZM57.3438 8.42188L56.9759 6.456L55.614 6.71086L55.374 8.07543L57.3438 8.42188ZM64.0234 7.17188L65.962 7.66362L66.7314 4.6304L63.6556 5.206L64.0234 7.17188ZM58.75 34.3203L59.2803 36.2487L60.5913 35.8882L60.7383 34.5366L58.75 34.3203ZM52.5 36.0391L50.5317 35.6844L49.9686 38.8094L53.0303 37.9675L52.5 36.0391ZM53.2812 31.7031L55.2496 32.0578L55.9164 28.357L52.475 29.8728L53.2812 31.7031ZM43.3594 36.0391L41.3894 35.6936L40.7468 39.3576L44.1576 37.8729L43.3594 36.0391ZM48.571 10.3877L55.2507 9.13775L54.5149 5.206L47.8352 6.456L48.571 10.3877ZM52.9488 6.66253C51.1394 13.5328 49.7954 19.7197 48.9231 25.2179L52.8737 25.8446C53.7202 20.5095 55.0325 14.4568 56.8169 7.68122L52.9488 6.66253ZM51.6746 27.3745L55.3855 25.812L53.8333 22.1255L50.1223 23.688L51.6746 27.3745ZM56.5791 24.3152L59.3135 8.76832L55.374 8.07543L52.6396 23.6223L56.5791 24.3152ZM57.7116 10.3877L64.3913 9.13775L63.6556 5.206L56.9759 6.456L57.7116 10.3877ZM62.0848 6.68013C59.3632 17.4095 57.5826 26.5569 56.7617 34.104L60.7383 34.5366C61.5319 27.2399 63.267 18.2884 65.962 7.66362L62.0848 6.68013ZM58.2197 32.3919L51.9697 34.1107L53.0303 37.9675L59.2803 36.2487L58.2197 32.3919ZM54.4683 36.3937L55.2496 32.0578L51.3129 31.3485L50.5317 35.6844L54.4683 36.3937ZM52.475 29.8728C50.2917 30.8345 46.9877 32.2784 42.5611 34.2053L44.1576 37.8729C48.5853 35.9455 51.8958 34.4988 54.0875 33.5334L52.475 29.8728ZM45.3293 36.3846L50.1731 8.76738L46.2332 8.07637L41.3894 35.6936L45.3293 36.3846ZM74.4141 4.47656L76.2911 5.16697L77.3649 2.24753L74.2631 2.48226L74.4141 4.47656ZM70.9375 16.8203L71.2447 18.7966L72.659 18.5767L72.9072 17.1671L70.9375 16.8203ZM63.3984 17.9922L61.4787 17.4313L60.5962 20.4518L63.7056 19.9685L63.3984 17.9922ZM67.1875 5.02344L67.0366 3.02914L65.656 3.13361L65.2678 4.46255L67.1875 5.02344ZM72.537 3.78615C70.8403 8.39914 69.6443 12.6309 68.9678 16.4735L72.9072 17.1671C73.5328 13.6139 74.6545 9.61648 76.2911 5.16697L72.537 3.78615ZM70.6303 14.844L63.0912 16.0159L63.7056 19.9685L71.2447 18.7966L70.6303 14.844ZM65.3182 18.5531L69.1072 5.58433L65.2678 4.46255L61.4787 17.4313L65.3182 18.5531ZM67.3384 7.01774L74.565 6.47086L74.2631 2.48226L67.0366 3.02914L67.3384 7.01774ZM74.375 8.38281L73.8014 6.46682L72.6165 6.82155L72.4046 8.04013L74.375 8.38281ZM89.6484 10.2188L87.6485 10.1975L87.6485 10.2039L89.6484 10.2188ZM83.0078 20.8047L81.7539 19.2466L80.6343 20.1476L81.1311 21.4961L83.0078 20.8047ZM87.5391 30.1406L88.8956 31.6102L90.007 30.5843L89.3226 29.2356L87.5391 30.1406ZM81.4062 35.6484L79.5415 36.3714L80.5805 39.0515L82.7323 37.1456L81.4062 35.6484ZM77.2266 24.8672L79.0913 24.1443L78.5962 22.8672H77.2266V24.8672ZM77.1875 24.8672V22.8672H75.5206L75.2202 24.5068L77.1875 24.8672ZM75.7812 34.3203L76.3178 36.247L77.6239 35.8833L77.7697 34.5353L75.7812 34.3203ZM69.6094 36.0391L67.6176 35.858L67.3553 38.7429L70.1459 37.9657L69.6094 36.0391ZM70.4688 30.8438L72.4371 31.1984L72.4392 31.1864L70.4688 30.8438ZM79.2969 14.5547L78.6515 12.6617L77.6376 13.0073L77.3635 14.0429L79.2969 14.5547ZM78.6719 17.2109L80.6308 17.6142L78.6719 17.2109ZM78.125 19.8672L76.1661 19.4639L75.3234 23.557L79.0397 21.6458L78.125 19.8672ZM80.8203 18.0312L82.1182 19.5529L82.1264 19.5459L82.1346 19.5388L80.8203 18.0312ZM82.8516 15.4922L81.1032 14.5209L81.0498 14.6172L81.0072 14.7187L82.8516 15.4922ZM74.9486 10.2988C78.9536 9.09985 82.0881 8.54688 84.4141 8.54688V4.54688C81.5317 4.54688 77.9735 5.21786 73.8014 6.46682L74.9486 10.2988ZM84.4141 8.54688C86.0031 8.54688 86.83 8.835 87.2108 9.10216C87.4566 9.27458 87.6558 9.51937 87.6486 10.1975L91.6483 10.24C91.6672 8.47021 91.0069 6.87907 89.5079 5.82753C88.144 4.87073 86.3407 4.54688 84.4141 4.54688V8.54688ZM87.6485 10.2039C87.629 12.8329 85.9689 15.8546 81.7539 19.2466L84.2617 22.3628C88.8488 18.6714 91.6158 14.6358 91.6484 10.2336L87.6485 10.2039ZM81.1311 21.4961C81.547 22.625 83.1302 25.8722 85.7556 31.0457L89.3226 29.2356C86.6354 23.9403 85.1978 20.9636 84.8845 20.1133L81.1311 21.4961ZM86.1825 28.671C84.8439 29.9066 82.8122 31.7315 80.0802 34.1513L82.7323 37.1456C85.4691 34.7216 87.5258 32.8746 88.8956 31.6102L86.1825 28.671ZM83.271 34.9255L79.0913 24.1443L75.3618 25.5901L79.5415 36.3714L83.271 34.9255ZM77.2266 22.8672H77.1875V26.8672H77.2266V22.8672ZM75.2202 24.5068C74.588 27.9576 74.1115 31.1578 73.7928 34.1053L77.7697 34.5353C78.076 31.7016 78.537 28.5997 79.1548 25.2276L75.2202 24.5068ZM75.2447 32.3936L69.0728 34.1124L70.1459 37.9657L76.3178 36.247L75.2447 32.3936ZM71.6012 36.2201C71.6432 35.7574 71.9079 34.1349 72.4371 31.1984L68.5004 30.4891C67.9879 33.3338 67.6797 35.1749 67.6176 35.858L71.6012 36.2201ZM72.4392 31.1864L76.3454 8.72549L72.4046 8.04013L68.4983 30.5011L72.4392 31.1864ZM77.3635 14.0429C77.1197 14.9638 76.9028 15.8853 76.713 16.8076L80.6308 17.6142C80.8055 16.7657 81.0053 15.9164 81.2303 15.0665L77.3635 14.0429ZM76.713 16.8076L76.1661 19.4639L80.0839 20.2705L80.6308 17.6142L76.713 16.8076ZM79.0397 21.6458C80.1054 21.0977 81.1309 20.395 82.1182 19.5529L79.5224 16.5096C78.7389 17.1779 77.9675 17.6992 77.2103 18.0886L79.0397 21.6458ZM82.1346 19.5388C83.2682 18.5505 84.1925 17.4662 84.696 16.2656L81.0072 14.7187C80.8335 15.1328 80.4037 15.7412 79.506 16.5237L82.1346 19.5388ZM84.5999 16.4635C84.8489 16.0151 85.0469 15.4603 85.0469 14.8281H81.0469C81.0469 14.6127 81.1146 14.5005 81.1032 14.5209L84.5999 16.4635ZM85.0469 14.8281C85.0469 14.0622 84.7657 13.192 83.9724 12.5902C83.2835 12.0676 82.4876 11.9688 81.9141 11.9688V15.9688C82.0957 15.9688 81.8662 16.0131 81.5549 15.777C81.3809 15.645 81.2362 15.4641 81.145 15.2567C81.0591 15.0611 81.0469 14.9022 81.0469 14.8281H85.0469ZM81.9141 11.9688C80.9699 11.9688 79.8378 12.2572 78.6515 12.6617L79.9422 16.4477C81.0476 16.0709 81.6603 15.9688 81.9141 15.9688V11.9688ZM95.625 14.2422L95.3118 12.2669L94.0396 12.4686L93.697 13.7103L95.625 14.2422ZM95.0781 16.4688L93.1225 16.0497L93.1197 16.0631L93.117 16.0765L95.0781 16.4688ZM94.6484 18.6172L92.6873 18.225L92.0912 21.2053L95.0642 20.5735L94.6484 18.6172ZM100.898 17.2891L102.894 17.4192L103.066 14.7838L100.483 15.3327L100.898 17.2891ZM100.547 22.6797L100.892 24.6496L102.44 24.378L102.543 22.8098L100.547 22.6797ZM93.5547 24.0469L93.105 22.0981L91.8468 22.3884L91.5935 23.6546L93.5547 24.0469ZM93.2812 25.6094L95.2498 25.9627L95.2549 25.9344L95.2591 25.9061L93.2812 25.6094ZM93.0078 27.1328L91.0393 26.7795L90.5491 29.5107L93.2951 29.1121L93.0078 27.1328ZM100.273 26.0781L102.269 26.2176L102.442 23.7424L99.9861 24.0989L100.273 26.0781ZM99.7656 33.3438L99.9317 35.3368L101.641 35.1944L101.761 33.4832L99.7656 33.3438ZM85.5078 36.0391L83.5348 35.7116L83.0317 38.7432L86.0073 37.9757L85.5078 36.0391ZM90.1562 8.03125L89.8709 6.05171L88.4228 6.26045L88.1832 7.70379L90.1562 8.03125ZM103.164 6.15625L105.159 6.29644L105.333 3.82295L102.879 4.17671L103.164 6.15625ZM102.656 13.3828L102.839 15.3744L104.532 15.219L104.651 13.523L102.656 13.3828ZM93.697 13.7103C93.4789 14.501 93.2873 15.2808 93.1225 16.0497L97.0337 16.8878C97.1815 16.1983 97.3544 15.4938 97.553 14.774L93.697 13.7103ZM93.117 16.0765L92.6873 18.225L96.6096 19.0094L97.0393 16.861L93.117 16.0765ZM95.0642 20.5735L101.314 19.2454L100.483 15.3327L94.2327 16.6609L95.0642 20.5735ZM98.9027 17.1589L98.5511 22.5495L102.543 22.8098L102.894 17.4192L98.9027 17.1589ZM100.201 20.7098C97.2189 21.233 94.8483 21.6958 93.105 22.0981L94.0044 25.9957C95.6465 25.6167 97.9373 25.168 100.892 24.6496L100.201 20.7098ZM91.5935 23.6546C91.4831 24.2069 91.3863 24.7596 91.3034 25.3127L95.2591 25.9061C95.3324 25.4175 95.418 24.9285 95.5158 24.4391L91.5935 23.6546ZM91.3127 25.256L91.0393 26.7795L94.9764 27.4861L95.2498 25.9627L91.3127 25.256ZM93.2951 29.1121L100.561 28.0574L99.9861 24.0989L92.7205 25.1536L93.2951 29.1121ZM98.2783 25.9387L97.7705 33.2043L101.761 33.4832L102.269 26.2176L98.2783 25.9387ZM99.5995 31.3507C95.6919 31.6763 90.8179 32.604 85.0083 34.1024L86.0073 37.9757C91.7081 36.5053 96.3394 35.6362 99.9317 35.3368L99.5995 31.3507ZM87.4808 36.3665L92.1293 8.35871L88.1832 7.70379L83.5348 35.7116L87.4808 36.3665ZM90.4416 10.0108L103.449 8.13579L102.879 4.17671L89.8709 6.05171L90.4416 10.0108ZM101.169 6.01606L100.661 13.2426L104.651 13.523L105.159 6.29644L101.169 6.01606ZM102.473 11.3912C99.8854 11.6289 97.4975 11.9203 95.3118 12.2669L95.9382 16.2175C98.0233 15.8869 100.323 15.6055 102.839 15.3744L102.473 11.3912ZM104.844 36.5078L102.982 35.7779L101.716 39.0076L105.145 38.485L104.844 36.5078ZM114.141 8.26562L113.81 6.29319L112.533 6.50735L112.206 7.75965L114.141 8.26562ZM126.016 6.27344L127.987 6.61173L128.463 3.83485L125.685 4.301L126.016 6.27344ZM124.18 34.2812L124.63 36.2299L126.199 35.8673L126.18 34.2571L124.18 34.2812ZM115.898 36.1953L113.913 35.957L113.573 38.7855L116.349 38.1439L115.898 36.1953ZM116.484 31.3125L118.47 31.5508L118.797 28.8265L116.103 29.3491L116.484 31.3125ZM113.867 31.8203L113.486 29.8569L112.221 30.1024L111.922 31.3561L113.867 31.8203ZM113.047 35.2578L113.348 37.235L114.68 37.0321L114.992 35.722L113.047 35.2578ZM117.109 26.0781L117.471 28.0452L118.917 27.7796L119.095 26.3197L117.109 26.0781ZM118.906 11.3125L120.892 11.5541L121.164 9.3125H118.906V11.3125ZM118.867 11.3125V9.3125H117.295L116.924 10.8404L118.867 11.3125ZM115.195 26.4297L113.252 25.9576L112.524 28.9538L115.557 28.3968L115.195 26.4297ZM106.706 37.2377C110.559 27.4075 113.684 17.9185 116.076 8.7716L112.206 7.75965C109.858 16.7378 106.784 26.0769 102.982 35.7779L106.706 37.2377ZM114.472 10.2381L126.347 8.24587L125.685 4.301L113.81 6.29319L114.472 10.2381ZM124.044 5.93515C122.664 13.9784 122.049 23.4415 122.18 34.3054L126.18 34.2571C126.05 23.5585 126.659 14.3497 127.987 6.61173L124.044 5.93515ZM123.729 32.3326L115.448 34.2467L116.349 38.1439L124.63 36.2299L123.729 32.3326ZM117.884 36.4336L118.47 31.5508L114.499 31.0742L113.913 35.957L117.884 36.4336ZM116.103 29.3491L113.486 29.8569L114.248 33.7837L116.865 33.2759L116.103 29.3491ZM111.922 31.3561L111.102 34.7936L114.992 35.722L115.813 32.2845L111.922 31.3561ZM112.746 33.2806L104.542 34.5306L105.145 38.485L113.348 37.235L112.746 33.2806ZM119.095 26.3197L120.892 11.5541L116.921 11.0709L115.124 25.8365L119.095 26.3197ZM118.906 9.3125H118.867V13.3125H118.906V9.3125ZM116.924 10.8404L113.252 25.9576L117.139 26.9017L120.811 11.7846L116.924 10.8404ZM115.557 28.3968L117.471 28.0452L116.748 24.111L114.834 24.4626L115.557 28.3968ZM132.852 32.4844L134.717 31.7642L134.712 31.7501L134.706 31.736L132.852 32.4844ZM132.773 21.7422L134.708 22.25L134.711 22.2372L132.773 21.7422ZM137.656 11.9375L139.226 13.1768L139.23 13.1716L137.656 11.9375ZM152.617 11.1172L154.08 12.4814L154.923 11.5771L154.491 10.4184L152.617 11.1172ZM148.281 15.7656L146.617 16.875L148.019 18.9784L149.744 17.1298L148.281 15.7656ZM141.211 18.3828L139.525 17.3067L139.522 17.3121L141.211 18.3828ZM138.594 24.5156L140.527 25.0274L140.529 25.0194L140.531 25.0113L138.594 24.5156ZM139.062 29.4766L140.608 28.2071L140.601 28.1986L140.594 28.1902L139.062 29.4766ZM144.961 28.8906L143.505 27.5199L143.497 27.5284L144.961 28.8906ZM146.992 25.5312L148.859 26.2492L150.167 22.8469L146.595 23.5711L146.992 25.5312ZM141.641 26.7422L139.686 26.3195L139.003 29.4754L142.133 28.6806L141.641 26.7422ZM142.891 20.9609L142.477 19.0042L141.21 19.272L140.936 20.5383L142.891 20.9609ZM153.242 18.7734L155.241 18.7119L155.168 16.3224L152.829 16.8167L153.242 18.7734ZM152.148 24.5938L154.027 25.2793L154.032 25.2664L152.148 24.5938ZM149.531 29.9062L151.208 30.9962L151.212 30.9905L149.531 29.9062ZM138.711 34.9375C137.71 34.9375 136.971 34.6768 136.386 34.2319C135.78 33.7715 135.196 33.0036 134.717 31.7642L130.986 33.2045C131.653 34.9339 132.618 36.3925 133.966 37.4165C135.333 38.456 136.951 38.9375 138.711 38.9375V34.9375ZM134.706 31.736C134.217 30.5234 133.953 29.1162 133.953 27.4844H129.953C129.953 29.5505 130.288 31.4766 130.997 33.2328L134.706 31.736ZM133.953 27.4844C133.953 25.9455 134.195 24.2046 134.708 22.25L130.839 21.2344C130.258 23.4464 129.953 25.5337 129.953 27.4844H133.953ZM134.711 22.2372C135.551 18.9481 137.051 15.9321 139.226 13.1768L136.086 10.6982C133.574 13.8804 131.818 17.4009 130.836 21.2471L134.711 22.2372ZM139.23 13.1716C141.862 9.8147 144.364 8.50781 146.719 8.50781V4.50781C142.667 4.50781 139.127 6.82072 136.082 10.7034L139.23 13.1716ZM146.719 8.50781C147.721 8.50781 148.461 8.77469 149.052 9.23605C149.666 9.71587 150.26 10.5193 150.743 11.816L154.491 10.4184C153.829 8.64215 152.867 7.1409 151.515 6.08427C150.139 5.00916 148.503 4.50781 146.719 4.50781V8.50781ZM151.155 9.75299L146.819 14.4014L149.744 17.1298L154.08 12.4814L151.155 9.75299ZM149.945 14.6562C149.072 13.3468 147.729 12.7109 146.211 12.7109V16.7109C146.407 16.7109 146.486 16.7474 146.504 16.7567C146.516 16.7628 146.555 16.7821 146.617 16.875L149.945 14.6562ZM146.211 12.7109C143.405 12.7109 141.214 14.6616 139.525 17.3067L142.897 19.4589C144.333 17.2082 145.475 16.7109 146.211 16.7109V12.7109ZM139.522 17.3121C138.231 19.3483 137.278 21.5883 136.656 24.02L140.531 25.0113C141.055 22.9638 141.847 21.1153 142.9 19.4535L139.522 17.3121ZM136.66 24.0038C136.394 25.0089 136.242 25.9796 136.242 26.8984H140.242C140.242 26.411 140.324 25.7932 140.527 25.0274L136.66 24.0038ZM136.242 26.8984C136.242 28.313 136.61 29.667 137.531 30.7629L140.594 28.1902C140.421 27.984 140.242 27.6193 140.242 26.8984H136.242ZM137.517 30.746C138.549 32.0021 139.985 32.5703 141.562 32.5703V28.5703C141.005 28.5703 140.774 28.4094 140.608 28.2071L137.517 30.746ZM141.562 32.5703C143.475 32.5703 145.106 31.6709 146.425 30.2528L143.497 27.5284C142.732 28.3499 142.098 28.5703 141.562 28.5703V32.5703ZM146.417 30.2614C147.459 29.1543 148.263 27.7997 148.859 26.2492L145.125 24.8133C144.68 25.9711 144.129 26.8561 143.505 27.5199L146.417 30.2614ZM146.595 23.5711C144.641 23.9672 142.825 24.3779 141.148 24.8037L142.133 28.6806C143.738 28.2731 145.489 27.8766 147.39 27.4914L146.595 23.5711ZM143.595 27.1649L144.845 21.3836L140.936 20.5383L139.686 26.3195L143.595 27.1649ZM143.304 22.9177L153.656 20.7302L152.829 16.8167L142.477 19.0042L143.304 22.9177ZM151.243 18.8349C151.285 20.2038 150.991 21.8873 150.265 23.9211L154.032 25.2664C154.868 22.9252 155.303 20.7285 155.241 18.7119L151.243 18.8349ZM150.27 23.9082C149.614 25.7048 148.806 27.3407 147.851 28.822L151.212 30.9905C152.339 29.2427 153.277 27.3368 154.027 25.2793L150.27 23.9082ZM147.854 28.8163C145.036 33.1517 141.979 34.9375 138.711 34.9375V38.9375C143.777 38.9375 147.932 36.0358 151.208 30.9962L147.854 28.8163ZM160.547 14.2422L160.234 12.2669L158.961 12.4686L158.619 13.7103L160.547 14.2422ZM160 16.4688L158.044 16.0497L158.042 16.0631L158.039 16.0765L160 16.4688ZM159.57 18.6172L157.609 18.225L157.013 21.2053L159.986 20.5735L159.57 18.6172ZM165.82 17.2891L167.816 17.4192L167.988 14.7838L165.405 15.3327L165.82 17.2891ZM165.469 22.6797L165.814 24.6496L167.362 24.378L167.465 22.8098L165.469 22.6797ZM158.477 24.0469L158.027 22.0981L156.769 22.3884L156.515 23.6546L158.477 24.0469ZM158.203 25.6094L160.172 25.9627L160.177 25.9344L160.181 25.9061L158.203 25.6094ZM157.93 27.1328L155.961 26.7795L155.471 29.5107L158.217 29.1121L157.93 27.1328ZM165.195 26.0781L167.19 26.2176L167.363 23.7424L164.908 24.0989L165.195 26.0781ZM164.688 33.3438L164.854 35.3368L166.563 35.1944L166.683 33.4832L164.688 33.3438ZM150.43 36.0391L148.457 35.7116L147.954 38.7432L150.929 37.9757L150.43 36.0391ZM155.078 8.03125L154.793 6.05171L153.345 6.26045L153.105 7.70379L155.078 8.03125ZM168.086 6.15625L170.081 6.29644L170.255 3.82295L167.801 4.17671L168.086 6.15625ZM167.578 13.3828L167.761 15.3744L169.454 15.219L169.573 13.523L167.578 13.3828ZM158.619 13.7103C158.401 14.501 158.209 15.2808 158.044 16.0497L161.956 16.8878C162.103 16.1983 162.276 15.4938 162.475 14.774L158.619 13.7103ZM158.039 16.0765L157.609 18.225L161.531 19.0094L161.961 16.861L158.039 16.0765ZM159.986 20.5735L166.236 19.2454L165.405 15.3327L159.155 16.6609L159.986 20.5735ZM163.825 17.1589L163.473 22.5495L167.465 22.8098L167.816 17.4192L163.825 17.1589ZM165.123 20.7098C162.141 21.233 159.77 21.6958 158.027 22.0981L158.926 25.9957C160.568 25.6167 162.859 25.168 165.814 24.6496L165.123 20.7098ZM156.515 23.6546C156.405 24.2069 156.308 24.7596 156.225 25.3127L160.181 25.9061C160.254 25.4175 160.34 24.9285 160.438 24.4391L156.515 23.6546ZM156.235 25.256L155.961 26.7795L159.898 27.4861L160.172 25.9627L156.235 25.256ZM158.217 29.1121L165.483 28.0574L164.908 24.0989L157.642 25.1536L158.217 29.1121ZM163.2 25.9387L162.692 33.2043L166.683 33.4832L167.19 26.2176L163.2 25.9387ZM164.521 31.3507C160.614 31.6763 155.74 32.604 149.93 34.1024L150.929 37.9757C156.63 36.5053 161.261 35.6362 164.854 35.3368L164.521 31.3507ZM152.403 36.3665L157.051 8.35871L153.105 7.70379L148.457 35.7116L152.403 36.3665ZM155.363 10.0108L168.371 8.13579L167.801 4.17671L154.793 6.05171L155.363 10.0108ZM166.091 6.01606L165.583 13.2426L169.573 13.523L170.081 6.29644L166.091 6.01606ZM167.395 11.3912C164.807 11.6289 162.419 11.9203 160.234 12.2669L160.86 16.2175C162.945 15.8869 165.245 15.6055 167.761 15.3744L167.395 11.3912ZM170.273 8.53906L169.877 6.57878L168.539 6.84935L168.304 8.19329L170.273 8.53906ZM177.031 7.17188L179.027 7.30064L179.195 4.69354L176.635 5.21159L177.031 7.17188ZM177.305 19.9453L179.298 19.7764L179.297 19.7712L177.305 19.9453ZM177.891 23.6562L175.964 24.1915L179.861 23.9998L177.891 23.6562ZM180.547 8.42188L180.181 6.45561L178.815 6.70972L178.577 8.07834L180.547 8.42188ZM187.266 7.17188L189.202 7.67397L189.991 4.63053L186.9 5.20561L187.266 7.17188ZM181.953 34.3203L182.49 36.247L183.795 35.8835L183.941 34.5367L181.953 34.3203ZM175.781 36.0391L173.992 36.9335L174.73 38.408L176.318 37.9657L175.781 36.0391ZM175.273 34.6719L173.387 35.3348L173.39 35.3451L173.394 35.3554L175.273 34.6719ZM173.242 28.8906L175.129 28.2277L175.126 28.2195L175.123 28.2113L173.242 28.8906ZM172.656 27.0938L174.617 26.7015L170.687 26.7433L172.656 27.0938ZM171.367 36.0391L171.942 37.9547L173.213 37.5734L173.356 36.254L171.367 36.0391ZM165.117 37.9141L163.147 37.5683L162.587 40.7612L165.692 39.8297L165.117 37.9141ZM170.67 10.4993L177.428 9.13216L176.635 5.21159L169.877 6.57878L170.67 10.4993ZM175.035 7.04311C174.979 7.91481 174.953 9.11109 174.953 10.6094H178.953C178.953 9.13891 178.979 8.04352 179.027 7.30064L175.035 7.04311ZM174.953 10.6094C174.953 14.1922 175.072 17.3645 175.312 20.1194L179.297 19.7712C179.069 17.1615 178.953 14.1099 178.953 10.6094H174.953ZM175.312 20.1142C175.447 21.7118 175.656 23.0858 175.964 24.1915L179.818 23.121C179.604 22.3517 179.423 21.2518 179.298 19.7764L175.312 20.1142ZM179.861 23.9998L182.517 8.76541L178.577 8.07834L175.92 23.3127L179.861 23.9998ZM180.913 10.3881L187.631 9.13814L186.9 5.20561L180.181 6.45561L180.913 10.3881ZM185.33 6.66978C182.606 17.1722 180.812 26.3217 179.965 34.1039L183.941 34.5367C184.761 27.0064 186.509 18.0569 189.202 7.67397L185.33 6.66978ZM181.417 32.3936L175.245 34.1124L176.318 37.9657L182.49 36.247L181.417 32.3936ZM177.57 35.1446C177.608 35.2201 177.63 35.2793 177.619 35.251C177.617 35.2469 177.612 35.2333 177.602 35.2064C177.581 35.1535 177.551 35.0732 177.51 34.9618C177.427 34.7405 177.309 34.4168 177.153 33.9884L173.394 35.3554C173.551 35.7863 173.673 36.1202 173.76 36.3546C173.815 36.5019 173.916 36.7815 173.992 36.9335L177.57 35.1446ZM177.16 34.0089L175.129 28.2277L171.355 29.5536L173.387 35.3348L177.16 34.0089ZM175.123 28.2113C174.958 27.7524 174.832 27.3899 174.743 27.1182C174.699 26.9825 174.667 26.8774 174.644 26.7993C174.62 26.7144 174.615 26.6883 174.617 26.7015L170.695 27.486C170.783 27.9245 171.039 28.6791 171.361 29.5699L175.123 28.2113ZM170.687 26.7433C170.133 29.8579 169.697 32.8849 169.379 35.8241L173.356 36.254C173.663 33.4119 174.086 30.4754 174.625 27.4442L170.687 26.7433ZM170.792 34.1234L164.542 35.9984L165.692 39.8297L171.942 37.9547L170.792 34.1234ZM167.087 38.2598L172.243 8.88484L168.304 8.19329L163.147 37.5683L167.087 38.2598ZM188.867 8.42188L188.501 6.45561L187.135 6.70982L186.897 8.07908L188.867 8.42188ZM195.586 7.17188L197.522 7.67397L198.311 4.63053L195.22 5.20561L195.586 7.17188ZM190.273 34.3203L190.807 36.2479L192.115 35.8859L192.262 34.5367L190.273 34.3203ZM184.062 36.0391L182.092 35.6963L181.55 38.8094L184.596 37.9666L184.062 36.0391ZM189.233 10.3881L195.952 9.13814L195.22 5.20561L188.501 6.45561L189.233 10.3881ZM193.65 6.66978C190.926 17.1722 189.132 26.3217 188.285 34.1039L192.262 34.5367C193.081 27.0064 194.829 18.0569 197.522 7.67397L193.65 6.66978ZM189.74 32.3928L183.529 34.1115L184.596 37.9666L190.807 36.2479L189.74 32.3928ZM186.033 36.3819L190.838 8.76467L186.897 8.07908L182.092 35.6963L186.033 36.3819ZM197.031 8.42188L196.663 6.456L195.301 6.71099L195.061 8.07637L197.031 8.42188ZM203.711 7.17188L205.645 7.68122L206.45 4.62459L203.343 5.206L203.711 7.17188ZM199.727 25.5312L197.751 25.2179L197.188 28.7703L200.503 27.3745L199.727 25.5312ZM203.438 23.9688L204.214 25.812L205.218 25.3889L205.407 24.3152L203.438 23.9688ZM206.172 8.42188L205.804 6.456L204.442 6.71086L204.202 8.07543L206.172 8.42188ZM212.852 7.17188L214.79 7.66362L215.56 4.6304L212.484 5.206L212.852 7.17188ZM207.578 34.3203L208.108 36.2487L209.419 35.8882L209.566 34.5366L207.578 34.3203ZM201.328 36.0391L199.36 35.6844L198.797 38.8094L201.858 37.9675L201.328 36.0391ZM202.109 31.7031L204.078 32.0578L204.744 28.357L201.303 29.8728L202.109 31.7031ZM192.188 36.0391L190.218 35.6936L189.575 39.3576L192.986 37.8729L192.188 36.0391ZM197.399 10.3877L204.079 9.13775L203.343 5.206L196.663 6.456L197.399 10.3877ZM201.777 6.66253C199.968 13.5328 198.624 19.7197 197.751 25.2179L201.702 25.8446C202.548 20.5095 203.861 14.4568 205.645 7.68122L201.777 6.66253ZM200.503 27.3745L204.214 25.812L202.661 22.1255L198.95 23.688L200.503 27.3745ZM205.407 24.3152L208.142 8.76832L204.202 8.07543L201.468 23.6223L205.407 24.3152ZM206.54 10.3877L213.219 9.13775L212.484 5.206L205.804 6.456L206.54 10.3877ZM210.913 6.68013C208.191 17.4095 206.411 26.5569 205.59 34.104L209.566 34.5366C210.36 27.2399 212.095 18.2884 214.79 7.66362L210.913 6.68013ZM207.048 32.3919L200.798 34.1107L201.858 37.9675L208.108 36.2487L207.048 32.3919ZM203.296 36.3937L204.078 32.0578L200.141 31.3485L199.36 35.6844L203.296 36.3937ZM201.303 29.8728C199.12 30.8345 195.816 32.2784 191.389 34.2053L192.986 37.8729C197.413 35.9455 200.724 34.4988 202.916 33.5334L201.303 29.8728ZM194.157 36.3846L199.001 8.76738L195.061 8.07637L190.218 35.6936L194.157 36.3846ZM227.695 15.3359L228.398 17.2086L229.544 16.7786L229.683 15.5618L227.695 15.3359ZM224.727 16.4688L224.006 14.6032L224.005 14.6033L224.727 16.4688ZM221.797 17.6016H219.797V20.5192L222.518 19.467L221.797 17.6016ZM217.891 17.4062L216.39 16.0842L216.374 16.1024L216.358 16.121L217.891 17.4062ZM217.031 19.75L215.05 20.0233L215.053 20.0426L215.056 20.0619L217.031 19.75ZM220.469 20.2578L220.849 22.2214L220.864 22.2185L220.878 22.2154L220.469 20.2578ZM227.266 22.1719L229.218 21.738L229.214 21.7203L229.21 21.7026L227.266 22.1719ZM225.547 29.0469L223.869 27.9585L223.862 27.9698L225.547 29.0469ZM218.75 35.4141L217.735 33.691L217.73 33.694L218.75 35.4141ZM210.234 35.6484L208.388 34.8792L207.714 36.4984L209.231 37.3785L210.234 35.6484ZM213.359 28.7344L214.492 27.0863L212.551 25.7519L211.549 27.8835L213.359 28.7344ZM217.305 29.3984L216.805 27.4619L216.772 27.4703L216.74 27.4797L217.305 29.3984ZM219.609 28.5L220.554 30.263L220.564 30.2577L220.573 30.2524L219.609 28.5ZM216.367 26.2344L216.774 28.1926L216.787 28.1898L216.801 28.1867L216.367 26.2344ZM210.977 26.1172L212.123 24.4787L212.105 24.4657L212.086 24.4531L210.977 26.1172ZM209.727 22.9531L211.711 23.2056L211.712 23.1957L211.713 23.1858L209.727 22.9531ZM215.312 12.9141L216.806 14.2441L216.809 14.2409L215.312 12.9141ZM224.258 6.78125L224.129 4.7854L224.121 4.78594L224.112 4.78655L224.258 6.78125ZM226.993 13.4633C226.152 13.7788 225.156 14.1589 224.006 14.6032L225.447 18.3343C226.589 17.8932 227.572 17.5181 228.398 17.2086L226.993 13.4633ZM224.005 14.6033L221.076 15.7362L222.518 19.467L225.448 18.3342L224.005 14.6033ZM223.797 17.6016C223.797 16.8707 223.707 16.005 223.293 15.2565C223.069 14.852 222.735 14.455 222.258 14.1673C221.777 13.8776 221.262 13.7656 220.781 13.7656V17.7656C220.639 17.7656 220.42 17.7301 220.193 17.5934C219.97 17.4587 219.847 17.2912 219.793 17.1927C219.745 17.1057 219.751 17.0772 219.767 17.161C219.781 17.2406 219.797 17.382 219.797 17.6016H223.797ZM220.781 13.7656C219.002 13.7656 217.537 14.7815 216.39 16.0842L219.391 18.7283C220.171 17.8435 220.633 17.7656 220.781 17.7656V13.7656ZM216.358 16.121C215.462 17.1898 214.843 18.5198 215.05 20.0233L219.012 19.4767C219.012 19.4698 218.965 19.2373 219.423 18.6915L216.358 16.121ZM215.056 20.0619C215.207 21.021 215.812 21.718 216.567 22.0955C217.216 22.4201 217.927 22.4922 218.516 22.4922V18.4922C218.374 18.4922 218.292 18.4822 218.257 18.4761C218.219 18.4694 218.264 18.4723 218.355 18.5178C218.453 18.5665 218.609 18.6678 218.751 18.8526C218.899 19.0437 218.978 19.2537 219.007 19.4381L215.056 20.0619ZM218.516 22.4922C219.194 22.4922 219.987 22.3882 220.849 22.2214L220.089 18.2943C219.336 18.4399 218.827 18.4922 218.516 18.4922V22.4922ZM220.878 22.2154C221.905 22.0006 222.752 21.9062 223.438 21.9062V17.9062C222.404 17.9062 221.272 18.0463 220.059 18.3002L220.878 22.2154ZM223.438 21.9062C224.332 21.9062 224.8 22.0656 225.017 22.1938C225.165 22.2819 225.259 22.383 225.321 22.6412L229.21 21.7026C228.908 20.4504 228.181 19.4187 227.054 18.7515C225.994 18.1245 224.731 17.9062 223.438 17.9062V21.9062ZM225.313 22.6057C225.383 22.9206 225.422 23.2691 225.422 23.6562H229.422C229.422 23.0017 229.356 22.3607 229.218 21.738L225.313 22.6057ZM225.422 23.6562C225.422 24.8163 224.986 26.2371 223.869 27.9585L227.225 30.1353C228.608 28.0025 229.422 25.8295 229.422 23.6562H225.422ZM223.862 27.9698C222.437 30.1983 220.416 32.1111 217.735 33.691L219.765 37.1371C222.918 35.2795 225.427 32.9475 227.232 30.124L223.862 27.9698ZM217.73 33.694C216.439 34.4596 215.277 34.7812 214.219 34.7812V38.7812C216.129 38.7812 217.988 38.1915 219.77 37.1342L217.73 33.694ZM214.219 34.7812C213.255 34.7812 212.27 34.517 211.238 33.9184L209.231 37.3785C210.803 38.2903 212.474 38.7812 214.219 38.7812V34.7812ZM212.081 36.4177C212.714 34.8978 213.74 32.6259 215.169 29.5852L211.549 27.8835C210.114 30.9366 209.057 33.2741 208.388 34.8792L212.081 36.4177ZM212.226 30.3825C213.365 31.1656 214.641 31.5938 216.016 31.5938V27.5938C215.515 27.5938 215.02 27.4489 214.492 27.0863L212.226 30.3825ZM216.016 31.5938C216.643 31.5938 217.263 31.4956 217.869 31.3172L216.74 27.4797C216.461 27.5617 216.222 27.5938 216.016 27.5938V31.5938ZM217.804 31.335C218.765 31.0871 219.683 30.7296 220.554 30.263L218.665 26.737C218.078 27.0517 217.459 27.2931 216.805 27.4619L217.804 31.335ZM220.573 30.2524C221.202 29.9069 221.807 29.4872 222.276 28.9596C222.759 28.4161 223.172 27.6667 223.172 26.7422H219.172C219.172 26.5931 219.206 26.469 219.243 26.3842C219.278 26.3057 219.306 26.2798 219.286 26.3021C219.266 26.3248 219.212 26.3798 219.102 26.4615C218.993 26.5423 218.844 26.6387 218.646 26.7476L220.573 30.2524ZM223.172 26.7422C223.172 25.7543 222.704 24.8459 221.813 24.3022C221.082 23.8564 220.242 23.7656 219.57 23.7656V27.7656C219.742 27.7656 219.836 27.7792 219.873 27.7866C219.911 27.7945 219.845 27.7874 219.73 27.7174C219.602 27.6392 219.438 27.4965 219.317 27.2743C219.197 27.0558 219.172 26.8575 219.172 26.7422H223.172ZM219.57 23.7656C218.615 23.7656 217.372 23.9622 215.933 24.282L216.801 28.1867C218.174 27.8815 219.068 27.7656 219.57 27.7656V23.7656ZM215.961 24.2761C214.615 24.5554 213.722 24.6641 213.203 24.6641V28.6641C214.142 28.6641 215.359 28.4862 216.774 28.1926L215.961 24.2761ZM213.203 24.6641C212.451 24.6641 212.176 24.5152 212.123 24.4787L209.83 27.7557C210.819 28.4483 212.028 28.6641 213.203 28.6641V24.6641ZM212.086 24.4531C211.89 24.3224 211.809 24.2025 211.762 24.0835C211.707 23.9439 211.651 23.6768 211.711 23.2056L207.743 22.7006C207.62 23.6617 207.681 24.6382 208.042 25.5532C208.412 26.4889 209.048 27.2349 209.867 27.7813L212.086 24.4531ZM211.713 23.1858C211.98 20.9082 213.513 17.9427 216.806 14.2441L213.819 11.5841C210.341 15.4896 208.15 19.2168 207.74 22.7205L211.713 23.1858ZM216.809 14.2409C218.476 12.361 219.966 10.9998 221.277 10.1007C222.598 9.19556 223.629 8.8324 224.403 8.77595L224.112 4.78655C222.387 4.91239 220.677 5.66252 219.016 6.80162C217.345 7.94682 215.613 9.56092 213.816 11.5872L216.809 14.2409ZM224.387 8.7771C224.977 8.73898 225.157 8.89729 225.316 9.1379C225.596 9.55864 225.891 10.4866 225.891 12.25H229.891C229.891 10.2113 229.58 8.32678 228.648 6.9246C227.597 5.34229 225.96 4.66727 224.129 4.7854L224.387 8.7771ZM225.891 12.25C225.891 13.0693 225.832 14.0206 225.708 15.1101L229.683 15.5618C229.819 14.3596 229.891 13.2536 229.891 12.25H225.891ZM231.68 29.6328L231.938 31.616L231.95 31.6144L231.963 31.6127L231.68 29.6328ZM234.102 30.0234L233.13 31.7718L233.168 31.7929L233.207 31.8123L234.102 30.0234ZM233.438 35.2578L232.212 33.6774L232.205 33.6827L232.198 33.688L233.438 35.2578ZM230.195 36.6641L229.931 34.6816L229.92 34.6831L230.195 36.6641ZM227.773 36.3516L226.856 38.1288L226.868 38.1347L226.879 38.1404L227.773 36.3516ZM228.398 31.0781L227.134 29.5284L227.128 29.5337L227.121 29.539L228.398 31.0781ZM236.094 5.33594L236.424 3.36341L234.662 3.06826L234.171 4.7865L236.094 5.33594ZM244.258 6.70312L246.005 7.6764L247.385 5.19898L244.588 4.73059L244.258 6.70312ZM239.492 15.8047L237.678 14.9625L237.676 14.9676L239.492 15.8047ZM235.82 25.5312L235.734 27.5294L237.28 27.5961L237.733 26.1164L235.82 25.5312ZM230.391 25.2969L228.468 24.7474L227.771 27.1857L230.304 27.295L230.391 25.2969ZM231.963 31.6127C232.507 31.5349 232.863 31.6231 233.13 31.7718L235.073 28.2751C233.934 27.6426 232.675 27.4703 231.397 27.6529L231.963 31.6127ZM233.207 31.8123C233.289 31.8533 233.332 31.8856 233.349 31.9006C233.366 31.9144 233.363 31.9155 233.355 31.9023C233.346 31.8887 233.343 31.8782 233.343 31.8799C233.344 31.8834 233.352 31.9124 233.352 31.9766H237.352C237.352 31.2087 237.167 30.4383 236.724 29.7461C236.284 29.0598 235.669 28.571 234.996 28.2346L233.207 31.8123ZM233.352 31.9766C233.352 32.3571 233.182 32.9251 232.212 33.6774L234.663 36.8383C236.245 35.6114 237.352 33.9918 237.352 31.9766H233.352ZM232.198 33.688C231.471 34.262 230.723 34.576 229.931 34.6816L230.46 38.6465C232.011 38.4396 233.425 37.8161 234.677 36.8276L232.198 33.688ZM229.92 34.6831C229.282 34.7717 228.902 34.6798 228.668 34.5627L226.879 38.1404C227.999 38.7004 229.233 38.8169 230.47 38.645L229.92 34.6831ZM228.691 34.5743C228.617 34.5363 228.58 34.5072 228.566 34.495C228.554 34.484 228.557 34.4845 228.565 34.4969C228.573 34.5095 228.574 34.517 228.573 34.5104C228.57 34.5019 228.562 34.4676 228.562 34.3984H224.562C224.562 35.1544 224.738 35.9159 225.165 36.6047C225.591 37.2906 226.191 37.7857 226.856 38.1288L228.691 34.5743ZM228.562 34.3984C228.562 33.9762 228.749 33.3857 229.676 32.6172L227.121 29.539C225.6 30.8018 224.562 32.4248 224.562 34.3984H228.562ZM229.663 32.6279C230.381 32.0417 231.131 31.7213 231.938 31.616L231.421 27.6496C229.833 27.8568 228.395 28.4999 227.134 29.5284L229.663 32.6279ZM235.763 7.30847L243.927 8.67566L244.588 4.73059L236.424 3.36341L235.763 7.30847ZM242.511 5.72985C240.342 9.62374 238.725 12.708 237.678 14.9625L241.306 16.6469C242.291 14.5264 243.851 11.5429 246.005 7.6764L242.511 5.72985ZM237.676 14.9676C236.254 18.0522 234.999 21.3794 233.908 24.9461L237.733 26.1164C238.777 22.7039 239.97 19.5468 241.309 16.6418L237.676 14.9676ZM235.907 23.5331L230.477 23.2987L230.304 27.295L235.734 27.5294L235.907 23.5331ZM232.314 25.8463L238.017 5.88538L234.171 4.7865L228.468 24.7474L232.314 25.8463Z" fill="#F7931E" mask="url(#path-1-outside-1_2878_7722)"/>
</svg>
