<svg width="301" height="43" viewBox="0 0 301 43" fill="none" xmlns="http://www.w3.org/2000/svg">
<mask id="path-1-outside-1_2878_7718" maskUnits="userSpaceOnUse" x="7" y="2" width="292" height="39" fill="black">
<rect fill="white" x="7" y="2" width="292" height="39"/>
<path d="M23.5664 7.83594L29.8555 8.92969C24.2305 18.7995 19.7773 27.7318 16.4961 35.7266L10.4805 35.3359L14.6211 26.625L11.3398 10.9219L18.957 7.40625C18.8789 8.60417 18.8268 10.1016 18.8008 11.8984C18.7747 13.6953 18.8659 15.4922 19.0742 17.2891L23.5664 7.83594ZM39.3086 5.45312C42.069 5.45312 44.0221 6.98958 45.168 10.0625C45.7669 11.651 46.0664 13.3958 46.0664 15.2969C46.0664 17.1198 45.793 19.099 45.2461 21.2344C44.2826 24.8802 42.6159 28.2396 40.2461 31.3125C37.3555 35.0625 34.2956 36.9375 31.0664 36.9375C28.2799 36.9375 26.3008 35.401 25.1289 32.3281C24.556 30.8177 24.2695 29.125 24.2695 27.25C24.2695 25.401 24.556 23.3958 25.1289 21.2344C26.0924 17.5625 27.7461 14.1901 30.0898 11.1172C32.9805 7.34115 36.0534 5.45312 39.3086 5.45312ZM37.9023 15.1406C36.4701 15.1406 35.0117 16.3125 33.5273 18.6562C32.3294 20.5052 31.4961 22.3151 31.0273 24.0859C30.793 25.0234 30.6758 25.8698 30.6758 26.625C30.6758 27.6927 30.9362 28.5651 31.457 29.2422C32.056 29.9974 32.8893 30.375 33.957 30.375C35.4154 30.375 36.7305 29.6068 37.9023 28.0703C38.8398 26.8464 39.5169 25.401 39.9336 23.7344C40.4284 21.7812 40.5326 19.8542 40.2461 17.9531C39.9336 16.0781 39.1523 15.1406 37.9023 15.1406ZM48.2148 8.42188L54.8945 7.17188C53.0977 13.9948 51.7695 20.1146 50.9102 25.5312L54.6211 23.9688L57.3555 8.42188L64.0352 7.17188C61.3268 17.849 59.569 26.8984 58.7617 34.3203L52.5117 36.0391L53.293 31.7031C51.1055 32.6667 47.7982 34.112 43.3711 36.0391L48.2148 8.42188ZM74.4258 4.47656C72.7591 9.00781 71.6003 13.1224 70.9492 16.8203L63.4102 17.9922L67.1992 5.02344L74.4258 4.47656ZM74.3867 8.38281C78.4753 7.15885 81.8216 6.54688 84.4258 6.54688C87.9414 6.54688 89.6862 7.77083 89.6602 10.2188C89.6341 13.7344 87.4206 17.263 83.0195 20.8047C83.3841 21.7943 84.8945 24.9062 87.5508 30.1406C86.1966 31.3906 84.1523 33.2266 81.418 35.6484L77.2383 24.8672H77.1992C76.5742 28.2786 76.1055 31.4297 75.793 34.3203L69.6211 36.0391C69.6732 35.4661 69.9596 33.7344 70.4805 30.8438L74.3867 8.38281ZM79.3086 14.5547C79.0742 15.4401 78.8659 16.3255 78.6836 17.2109L78.1367 19.8672C79.0482 19.3984 79.9466 18.7865 80.832 18.0312C81.8477 17.1458 82.5247 16.2995 82.8633 15.4922C82.9935 15.2578 83.0586 15.0365 83.0586 14.8281C83.0586 14.2552 82.681 13.9688 81.9258 13.9688C81.3268 13.9688 80.4544 14.1641 79.3086 14.5547ZM95.6367 14.2422C95.4284 14.9974 95.2461 15.7396 95.0898 16.4688L94.6602 18.6172L100.91 17.2891L100.559 22.6797C97.5898 23.2005 95.2591 23.6562 93.5664 24.0469C93.4622 24.5677 93.3711 25.0885 93.293 25.6094L93.0195 27.1328L100.285 26.0781L99.7773 33.3438C96.0273 33.6562 91.2747 34.5547 85.5195 36.0391L90.168 8.03125L103.176 6.15625L102.668 13.3828C100.116 13.6172 97.7721 13.9036 95.6367 14.2422ZM112.277 8.38281C115.272 7.39323 117.811 6.89844 119.895 6.89844C122.238 6.89844 124.022 7.51042 125.246 8.73438C126.939 10.4792 127.785 12.6016 127.785 15.1016C127.785 16.013 127.668 16.9766 127.434 17.9922C126.418 22.5755 124.022 26.5859 120.246 30.0234C116.47 33.4349 112.264 35.4401 107.629 36.0391C107.681 35.4661 107.954 33.7604 108.449 30.9219L111.574 12.9531C112.017 10.2708 112.251 8.7474 112.277 8.38281ZM117.863 14.8281C116.665 19.9323 115.754 24.763 115.129 29.3203C116.691 27.8359 118.085 26.1172 119.309 24.1641C120.819 21.7682 121.574 19.7109 121.574 17.9922C121.574 15.7786 120.337 14.724 117.863 14.8281ZM140.09 5.45312C142.85 5.45312 144.803 6.98958 145.949 10.0625C146.548 11.651 146.848 13.3958 146.848 15.2969C146.848 17.1198 146.574 19.099 146.027 21.2344C145.064 24.8802 143.397 28.2396 141.027 31.3125C138.137 35.0625 135.077 36.9375 131.848 36.9375C129.061 36.9375 127.082 35.401 125.91 32.3281C125.337 30.8177 125.051 29.125 125.051 27.25C125.051 25.401 125.337 23.3958 125.91 21.2344C126.874 17.5625 128.527 14.1901 130.871 11.1172C133.762 7.34115 136.835 5.45312 140.09 5.45312ZM138.684 15.1406C137.251 15.1406 135.793 16.3125 134.309 18.6562C133.111 20.5052 132.277 22.3151 131.809 24.0859C131.574 25.0234 131.457 25.8698 131.457 26.625C131.457 27.6927 131.717 28.5651 132.238 29.2422C132.837 29.9974 133.671 30.375 134.738 30.375C136.197 30.375 137.512 29.6068 138.684 28.0703C139.621 26.8464 140.298 25.401 140.715 23.7344C141.21 21.7812 141.314 19.8542 141.027 17.9531C140.715 16.0781 139.934 15.1406 138.684 15.1406ZM149.543 8.42188L156.262 7.17188C153.553 17.6146 151.783 26.6641 150.949 34.3203L144.738 36.0391L149.543 8.42188ZM157.863 8.53906L164.621 7.17188C164.569 7.97917 164.543 9.125 164.543 10.6094C164.543 14.151 164.66 17.263 164.895 19.9453C165.025 21.4818 165.22 22.7188 165.48 23.6562L168.137 8.42188L174.855 7.17188C172.147 17.6146 170.376 26.6641 169.543 34.3203L163.371 36.0391C163.345 35.987 163.176 35.5312 162.863 34.6719L160.832 28.8906C160.493 27.9531 160.298 27.3542 160.246 27.0938C159.699 30.1667 159.27 33.1484 158.957 36.0391L152.707 37.9141L157.863 8.53906ZM178.02 36.9375C175.259 36.9375 173.306 35.4531 172.16 32.4844C171.561 31 171.262 29.3333 171.262 27.4844C171.262 25.7396 171.535 23.8255 172.082 21.7422C172.993 18.1745 174.621 14.9062 176.965 11.9375C179.803 8.31771 182.824 6.50781 186.027 6.50781C188.814 6.50781 190.78 8.04427 191.926 11.1172L187.59 15.7656C187.121 15.0625 186.431 14.7109 185.52 14.7109C183.749 14.7109 182.082 15.9349 180.52 18.3828C179.348 20.2318 178.475 22.276 177.902 24.5156C177.668 25.401 177.551 26.1953 177.551 26.8984C177.551 27.9661 177.824 28.8255 178.371 29.4766C178.97 30.2057 179.803 30.5703 180.871 30.5703C182.095 30.5703 183.228 30.0104 184.27 28.8906C185.103 28.0052 185.78 26.8854 186.301 25.5312C184.374 25.9219 182.59 26.3255 180.949 26.7422L182.199 20.9609L192.551 18.7734C192.603 20.4661 192.238 22.4062 191.457 24.5938C190.754 26.5208 189.882 28.2917 188.84 29.9062C185.793 34.5938 182.186 36.9375 178.02 36.9375ZM204.855 36.9375C202.095 36.9375 200.142 35.4531 198.996 32.4844C198.397 31 198.098 29.3333 198.098 27.4844C198.098 25.7396 198.371 23.8255 198.918 21.7422C199.829 18.1745 201.457 14.9062 203.801 11.9375C206.639 8.31771 209.66 6.50781 212.863 6.50781C215.65 6.50781 217.616 8.04427 218.762 11.1172L214.426 15.7656C213.957 15.0625 213.267 14.7109 212.355 14.7109C210.585 14.7109 208.918 15.9349 207.355 18.3828C206.184 20.2318 205.311 22.276 204.738 24.5156C204.504 25.401 204.387 26.1953 204.387 26.8984C204.387 27.9661 204.66 28.8255 205.207 29.4766C205.806 30.2057 206.639 30.5703 207.707 30.5703C208.931 30.5703 210.064 30.0104 211.105 28.8906C211.939 28.0052 212.616 26.8854 213.137 25.5312C211.21 25.9219 209.426 26.3255 207.785 26.7422L209.035 20.9609L219.387 18.7734C219.439 20.4661 219.074 22.4062 218.293 24.5938C217.59 26.5208 216.717 28.2917 215.676 29.9062C212.629 34.5938 209.022 36.9375 204.855 36.9375ZM221.379 8.38281C225.467 7.15885 228.814 6.54688 231.418 6.54688C234.934 6.54688 236.678 7.77083 236.652 10.2188C236.626 13.7344 234.413 17.263 230.012 20.8047C230.376 21.7943 231.887 24.9062 234.543 30.1406C233.189 31.3906 231.145 33.2266 228.41 35.6484L224.23 24.8672H224.191C223.566 28.2786 223.098 31.4297 222.785 34.3203L216.613 36.0391C216.665 35.4661 216.952 33.7344 217.473 30.8438L221.379 8.38281ZM226.301 14.5547C226.066 15.4401 225.858 16.3255 225.676 17.2109L225.129 19.8672C226.04 19.3984 226.939 18.7865 227.824 18.0312C228.84 17.1458 229.517 16.2995 229.855 15.4922C229.986 15.2578 230.051 15.0365 230.051 14.8281C230.051 14.2552 229.673 13.9688 228.918 13.9688C228.319 13.9688 227.447 14.1641 226.301 14.5547ZM242.629 14.2422C242.421 14.9974 242.238 15.7396 242.082 16.4688L241.652 18.6172L247.902 17.2891L247.551 22.6797C244.582 23.2005 242.251 23.6562 240.559 24.0469C240.454 24.5677 240.363 25.0885 240.285 25.6094L240.012 27.1328L247.277 26.0781L246.77 33.3438C243.02 33.6562 238.267 34.5547 232.512 36.0391L237.16 8.03125L250.168 6.15625L249.66 13.3828C247.108 13.6172 244.764 13.9036 242.629 14.2422ZM244.113 36.5078C247.941 26.7422 251.04 17.3281 253.41 8.26562L265.285 6.27344C263.931 14.1641 263.319 23.5 263.449 34.2812L255.168 36.1953L255.754 31.3125L253.137 31.8203L252.316 35.2578L244.113 36.5078ZM256.379 26.0781L258.176 11.3125H258.137L254.465 26.4297L256.379 26.0781ZM282.277 6.78125L282.043 14.0469C280.22 14.151 278.488 14.2812 276.848 14.4375C275.129 21.651 273.97 28.2786 273.371 34.3203L266.77 36.0391L270.363 15.2578C269.66 15.362 268.957 15.4792 268.254 15.6094L266.184 16L265.715 8.69531L282.277 6.78125ZM282.668 29.6328C283.579 29.5026 284.387 29.6328 285.09 30.0234C285.923 30.4401 286.34 31.0911 286.34 31.9766C286.34 33.1745 285.702 34.2682 284.426 35.2578C283.436 36.0391 282.355 36.5078 281.184 36.6641C280.246 36.7943 279.439 36.6901 278.762 36.3516C277.954 35.9349 277.551 35.2839 277.551 34.3984C277.551 33.2005 278.163 32.0938 279.387 31.0781C280.376 30.2708 281.47 29.7891 282.668 29.6328ZM287.082 5.33594L295.246 6.70312C293.085 10.5833 291.496 13.6172 290.48 15.8047C289.1 18.7995 287.876 22.0417 286.809 25.5312L281.379 25.2969L287.082 5.33594Z"/>
</mask>
<path d="M23.5664 7.83594L29.8555 8.92969C24.2305 18.7995 19.7773 27.7318 16.4961 35.7266L10.4805 35.3359L14.6211 26.625L11.3398 10.9219L18.957 7.40625C18.8789 8.60417 18.8268 10.1016 18.8008 11.8984C18.7747 13.6953 18.8659 15.4922 19.0742 17.2891L23.5664 7.83594ZM39.3086 5.45312C42.069 5.45312 44.0221 6.98958 45.168 10.0625C45.7669 11.651 46.0664 13.3958 46.0664 15.2969C46.0664 17.1198 45.793 19.099 45.2461 21.2344C44.2826 24.8802 42.6159 28.2396 40.2461 31.3125C37.3555 35.0625 34.2956 36.9375 31.0664 36.9375C28.2799 36.9375 26.3008 35.401 25.1289 32.3281C24.556 30.8177 24.2695 29.125 24.2695 27.25C24.2695 25.401 24.556 23.3958 25.1289 21.2344C26.0924 17.5625 27.7461 14.1901 30.0898 11.1172C32.9805 7.34115 36.0534 5.45312 39.3086 5.45312ZM37.9023 15.1406C36.4701 15.1406 35.0117 16.3125 33.5273 18.6562C32.3294 20.5052 31.4961 22.3151 31.0273 24.0859C30.793 25.0234 30.6758 25.8698 30.6758 26.625C30.6758 27.6927 30.9362 28.5651 31.457 29.2422C32.056 29.9974 32.8893 30.375 33.957 30.375C35.4154 30.375 36.7305 29.6068 37.9023 28.0703C38.8398 26.8464 39.5169 25.401 39.9336 23.7344C40.4284 21.7812 40.5326 19.8542 40.2461 17.9531C39.9336 16.0781 39.1523 15.1406 37.9023 15.1406ZM48.2148 8.42188L54.8945 7.17188C53.0977 13.9948 51.7695 20.1146 50.9102 25.5312L54.6211 23.9688L57.3555 8.42188L64.0352 7.17188C61.3268 17.849 59.569 26.8984 58.7617 34.3203L52.5117 36.0391L53.293 31.7031C51.1055 32.6667 47.7982 34.112 43.3711 36.0391L48.2148 8.42188ZM74.4258 4.47656C72.7591 9.00781 71.6003 13.1224 70.9492 16.8203L63.4102 17.9922L67.1992 5.02344L74.4258 4.47656ZM74.3867 8.38281C78.4753 7.15885 81.8216 6.54688 84.4258 6.54688C87.9414 6.54688 89.6862 7.77083 89.6602 10.2188C89.6341 13.7344 87.4206 17.263 83.0195 20.8047C83.3841 21.7943 84.8945 24.9062 87.5508 30.1406C86.1966 31.3906 84.1523 33.2266 81.418 35.6484L77.2383 24.8672H77.1992C76.5742 28.2786 76.1055 31.4297 75.793 34.3203L69.6211 36.0391C69.6732 35.4661 69.9596 33.7344 70.4805 30.8438L74.3867 8.38281ZM79.3086 14.5547C79.0742 15.4401 78.8659 16.3255 78.6836 17.2109L78.1367 19.8672C79.0482 19.3984 79.9466 18.7865 80.832 18.0312C81.8477 17.1458 82.5247 16.2995 82.8633 15.4922C82.9935 15.2578 83.0586 15.0365 83.0586 14.8281C83.0586 14.2552 82.681 13.9688 81.9258 13.9688C81.3268 13.9688 80.4544 14.1641 79.3086 14.5547ZM95.6367 14.2422C95.4284 14.9974 95.2461 15.7396 95.0898 16.4688L94.6602 18.6172L100.91 17.2891L100.559 22.6797C97.5898 23.2005 95.2591 23.6562 93.5664 24.0469C93.4622 24.5677 93.3711 25.0885 93.293 25.6094L93.0195 27.1328L100.285 26.0781L99.7773 33.3438C96.0273 33.6562 91.2747 34.5547 85.5195 36.0391L90.168 8.03125L103.176 6.15625L102.668 13.3828C100.116 13.6172 97.7721 13.9036 95.6367 14.2422ZM112.277 8.38281C115.272 7.39323 117.811 6.89844 119.895 6.89844C122.238 6.89844 124.022 7.51042 125.246 8.73438C126.939 10.4792 127.785 12.6016 127.785 15.1016C127.785 16.013 127.668 16.9766 127.434 17.9922C126.418 22.5755 124.022 26.5859 120.246 30.0234C116.47 33.4349 112.264 35.4401 107.629 36.0391C107.681 35.4661 107.954 33.7604 108.449 30.9219L111.574 12.9531C112.017 10.2708 112.251 8.7474 112.277 8.38281ZM117.863 14.8281C116.665 19.9323 115.754 24.763 115.129 29.3203C116.691 27.8359 118.085 26.1172 119.309 24.1641C120.819 21.7682 121.574 19.7109 121.574 17.9922C121.574 15.7786 120.337 14.724 117.863 14.8281ZM140.09 5.45312C142.85 5.45312 144.803 6.98958 145.949 10.0625C146.548 11.651 146.848 13.3958 146.848 15.2969C146.848 17.1198 146.574 19.099 146.027 21.2344C145.064 24.8802 143.397 28.2396 141.027 31.3125C138.137 35.0625 135.077 36.9375 131.848 36.9375C129.061 36.9375 127.082 35.401 125.91 32.3281C125.337 30.8177 125.051 29.125 125.051 27.25C125.051 25.401 125.337 23.3958 125.91 21.2344C126.874 17.5625 128.527 14.1901 130.871 11.1172C133.762 7.34115 136.835 5.45312 140.09 5.45312ZM138.684 15.1406C137.251 15.1406 135.793 16.3125 134.309 18.6562C133.111 20.5052 132.277 22.3151 131.809 24.0859C131.574 25.0234 131.457 25.8698 131.457 26.625C131.457 27.6927 131.717 28.5651 132.238 29.2422C132.837 29.9974 133.671 30.375 134.738 30.375C136.197 30.375 137.512 29.6068 138.684 28.0703C139.621 26.8464 140.298 25.401 140.715 23.7344C141.21 21.7812 141.314 19.8542 141.027 17.9531C140.715 16.0781 139.934 15.1406 138.684 15.1406ZM149.543 8.42188L156.262 7.17188C153.553 17.6146 151.783 26.6641 150.949 34.3203L144.738 36.0391L149.543 8.42188ZM157.863 8.53906L164.621 7.17188C164.569 7.97917 164.543 9.125 164.543 10.6094C164.543 14.151 164.66 17.263 164.895 19.9453C165.025 21.4818 165.22 22.7188 165.48 23.6562L168.137 8.42188L174.855 7.17188C172.147 17.6146 170.376 26.6641 169.543 34.3203L163.371 36.0391C163.345 35.987 163.176 35.5312 162.863 34.6719L160.832 28.8906C160.493 27.9531 160.298 27.3542 160.246 27.0938C159.699 30.1667 159.27 33.1484 158.957 36.0391L152.707 37.9141L157.863 8.53906ZM178.02 36.9375C175.259 36.9375 173.306 35.4531 172.16 32.4844C171.561 31 171.262 29.3333 171.262 27.4844C171.262 25.7396 171.535 23.8255 172.082 21.7422C172.993 18.1745 174.621 14.9062 176.965 11.9375C179.803 8.31771 182.824 6.50781 186.027 6.50781C188.814 6.50781 190.78 8.04427 191.926 11.1172L187.59 15.7656C187.121 15.0625 186.431 14.7109 185.52 14.7109C183.749 14.7109 182.082 15.9349 180.52 18.3828C179.348 20.2318 178.475 22.276 177.902 24.5156C177.668 25.401 177.551 26.1953 177.551 26.8984C177.551 27.9661 177.824 28.8255 178.371 29.4766C178.97 30.2057 179.803 30.5703 180.871 30.5703C182.095 30.5703 183.228 30.0104 184.27 28.8906C185.103 28.0052 185.78 26.8854 186.301 25.5312C184.374 25.9219 182.59 26.3255 180.949 26.7422L182.199 20.9609L192.551 18.7734C192.603 20.4661 192.238 22.4062 191.457 24.5938C190.754 26.5208 189.882 28.2917 188.84 29.9062C185.793 34.5938 182.186 36.9375 178.02 36.9375ZM204.855 36.9375C202.095 36.9375 200.142 35.4531 198.996 32.4844C198.397 31 198.098 29.3333 198.098 27.4844C198.098 25.7396 198.371 23.8255 198.918 21.7422C199.829 18.1745 201.457 14.9062 203.801 11.9375C206.639 8.31771 209.66 6.50781 212.863 6.50781C215.65 6.50781 217.616 8.04427 218.762 11.1172L214.426 15.7656C213.957 15.0625 213.267 14.7109 212.355 14.7109C210.585 14.7109 208.918 15.9349 207.355 18.3828C206.184 20.2318 205.311 22.276 204.738 24.5156C204.504 25.401 204.387 26.1953 204.387 26.8984C204.387 27.9661 204.66 28.8255 205.207 29.4766C205.806 30.2057 206.639 30.5703 207.707 30.5703C208.931 30.5703 210.064 30.0104 211.105 28.8906C211.939 28.0052 212.616 26.8854 213.137 25.5312C211.21 25.9219 209.426 26.3255 207.785 26.7422L209.035 20.9609L219.387 18.7734C219.439 20.4661 219.074 22.4062 218.293 24.5938C217.59 26.5208 216.717 28.2917 215.676 29.9062C212.629 34.5938 209.022 36.9375 204.855 36.9375ZM221.379 8.38281C225.467 7.15885 228.814 6.54688 231.418 6.54688C234.934 6.54688 236.678 7.77083 236.652 10.2188C236.626 13.7344 234.413 17.263 230.012 20.8047C230.376 21.7943 231.887 24.9062 234.543 30.1406C233.189 31.3906 231.145 33.2266 228.41 35.6484L224.23 24.8672H224.191C223.566 28.2786 223.098 31.4297 222.785 34.3203L216.613 36.0391C216.665 35.4661 216.952 33.7344 217.473 30.8438L221.379 8.38281ZM226.301 14.5547C226.066 15.4401 225.858 16.3255 225.676 17.2109L225.129 19.8672C226.04 19.3984 226.939 18.7865 227.824 18.0312C228.84 17.1458 229.517 16.2995 229.855 15.4922C229.986 15.2578 230.051 15.0365 230.051 14.8281C230.051 14.2552 229.673 13.9688 228.918 13.9688C228.319 13.9688 227.447 14.1641 226.301 14.5547ZM242.629 14.2422C242.421 14.9974 242.238 15.7396 242.082 16.4688L241.652 18.6172L247.902 17.2891L247.551 22.6797C244.582 23.2005 242.251 23.6562 240.559 24.0469C240.454 24.5677 240.363 25.0885 240.285 25.6094L240.012 27.1328L247.277 26.0781L246.77 33.3438C243.02 33.6562 238.267 34.5547 232.512 36.0391L237.16 8.03125L250.168 6.15625L249.66 13.3828C247.108 13.6172 244.764 13.9036 242.629 14.2422ZM244.113 36.5078C247.941 26.7422 251.04 17.3281 253.41 8.26562L265.285 6.27344C263.931 14.1641 263.319 23.5 263.449 34.2812L255.168 36.1953L255.754 31.3125L253.137 31.8203L252.316 35.2578L244.113 36.5078ZM256.379 26.0781L258.176 11.3125H258.137L254.465 26.4297L256.379 26.0781ZM282.277 6.78125L282.043 14.0469C280.22 14.151 278.488 14.2812 276.848 14.4375C275.129 21.651 273.97 28.2786 273.371 34.3203L266.77 36.0391L270.363 15.2578C269.66 15.362 268.957 15.4792 268.254 15.6094L266.184 16L265.715 8.69531L282.277 6.78125ZM282.668 29.6328C283.579 29.5026 284.387 29.6328 285.09 30.0234C285.923 30.4401 286.34 31.0911 286.34 31.9766C286.34 33.1745 285.702 34.2682 284.426 35.2578C283.436 36.0391 282.355 36.5078 281.184 36.6641C280.246 36.7943 279.439 36.6901 278.762 36.3516C277.954 35.9349 277.551 35.2839 277.551 34.3984C277.551 33.2005 278.163 32.0938 279.387 31.0781C280.376 30.2708 281.47 29.7891 282.668 29.6328ZM287.082 5.33594L295.246 6.70312C293.085 10.5833 291.496 13.6172 290.48 15.8047C289.1 18.7995 287.876 22.0417 286.809 25.5312L281.379 25.2969L287.082 5.33594Z" fill="#FAD557"/>
<path d="M23.5664 7.83594L23.9091 5.86551L22.4121 5.60518L21.76 6.97752L23.5664 7.83594ZM29.8555 8.92969L31.5931 9.91999L33.0025 7.44698L30.1982 6.95926L29.8555 8.92969ZM16.4961 35.7266L16.3665 37.7224L17.8006 37.8155L18.3463 36.4859L16.4961 35.7266ZM10.4805 35.3359L8.67415 34.4773L7.40818 37.1407L10.3509 37.3317L10.4805 35.3359ZM14.6211 26.625L16.4274 27.4836L16.7166 26.8753L16.5788 26.2159L14.6211 26.625ZM11.3398 10.9219L10.5017 9.10596L9.05657 9.77295L9.38213 11.331L11.3398 10.9219ZM18.957 7.40625L20.9528 7.53641L21.1716 4.1814L18.1189 5.59033L18.957 7.40625ZM19.0742 17.2891L17.0875 17.5194L17.89 24.4408L20.8806 18.1475L19.0742 17.2891ZM23.2237 9.80636L29.5128 10.9001L30.1982 6.95926L23.9091 5.86551L23.2237 9.80636ZM28.1179 7.93939C22.4628 17.862 17.9679 26.8729 14.6459 34.9672L18.3463 36.4859C21.5868 28.5906 25.9982 19.737 31.5931 9.91999L28.1179 7.93939ZM16.6257 33.7308L10.6101 33.3401L10.3509 37.3317L16.3665 37.7224L16.6257 33.7308ZM12.2868 36.1945L16.4274 27.4836L12.8148 25.7664L8.67415 34.4773L12.2868 36.1945ZM16.5788 26.2159L13.2976 10.5128L9.38213 11.331L12.6634 27.0341L16.5788 26.2159ZM12.178 12.7378L19.7951 9.22217L18.1189 5.59033L10.5017 9.10596L12.178 12.7378ZM16.9613 7.27609C16.8802 8.51977 16.8273 10.0536 16.801 11.8695L20.8006 11.9274C20.8263 10.1495 20.8777 8.68856 20.9528 7.53641L16.9613 7.27609ZM16.801 11.8695C16.7737 13.7535 16.8693 15.637 17.0875 17.5194L21.0609 17.0587C20.8625 15.3473 20.7758 13.6371 20.8006 11.9274L16.801 11.8695ZM20.8806 18.1475L25.3728 8.69436L21.76 6.97752L17.2678 16.4306L20.8806 18.1475ZM45.168 10.0625L43.294 10.7613L43.2966 10.7681L45.168 10.0625ZM45.2461 21.2344L47.1797 21.7454L47.1817 21.738L47.1836 21.7306L45.2461 21.2344ZM40.2461 31.3125L38.6623 30.0911L38.6621 30.0915L40.2461 31.3125ZM25.1289 32.3281L23.2589 33.0374L23.2602 33.0408L25.1289 32.3281ZM25.1289 21.2344L27.0622 21.7468L27.0634 21.742L25.1289 21.2344ZM30.0898 11.1172L28.5017 9.90147L28.4996 9.90429L30.0898 11.1172ZM33.5273 18.6562L35.2058 19.7437L35.2115 19.7351L35.217 19.7264L33.5273 18.6562ZM31.0273 24.0859L29.0939 23.5742L29.0904 23.5875L29.0871 23.6009L31.0273 24.0859ZM31.457 29.2422L29.8718 30.4616L29.8808 30.4734L29.89 30.485L31.457 29.2422ZM37.9023 28.0703L36.3146 26.8542L36.3121 26.8574L37.9023 28.0703ZM39.9336 23.7344L37.9948 23.2432L37.9933 23.2493L39.9336 23.7344ZM40.2461 17.9531L42.2238 17.6551L42.2214 17.6397L42.2189 17.6243L40.2461 17.9531ZM39.3086 7.45312C40.2929 7.45312 41.0224 7.71734 41.6072 8.17738C42.2168 8.65694 42.8094 9.4616 43.294 10.7613L47.0419 9.36374C46.3807 7.59048 45.4238 6.09046 44.0803 5.03356C42.712 3.95714 41.0847 3.45312 39.3086 3.45312V7.45312ZM43.2966 10.7681C43.8009 12.1057 44.0664 13.6082 44.0664 15.2969H48.0664C48.0664 13.1835 47.7329 11.1963 47.0394 9.35689L43.2966 10.7681ZM44.0664 15.2969C44.0664 16.9219 43.8223 18.7324 43.3086 20.7382L47.1836 21.7306C47.7636 19.4656 48.0664 17.3177 48.0664 15.2969H44.0664ZM43.3125 20.7233C42.4191 24.1039 40.8742 27.223 38.6623 30.0911L41.8298 32.5339C44.3576 29.2561 46.1461 25.6565 47.1797 21.7454L43.3125 20.7233ZM38.6621 30.0915C35.9663 33.5887 33.4262 34.9375 31.0664 34.9375V38.9375C35.165 38.9375 38.7446 36.5363 41.8301 32.5335L38.6621 30.0915ZM31.0664 34.9375C30.0647 34.9375 29.318 34.6706 28.7186 34.2053C28.0957 33.7218 27.4928 32.914 26.9976 31.6155L23.2602 33.0408C23.9368 34.8151 24.9095 36.3121 26.2657 37.365C27.6456 38.4362 29.2817 38.9375 31.0664 38.9375V34.9375ZM26.9989 31.6188C26.5246 30.3683 26.2695 28.921 26.2695 27.25H22.2695C22.2695 29.329 22.5874 31.2671 23.2589 33.0374L26.9989 31.6188ZM26.2695 27.25C26.2695 25.6056 26.5246 23.7747 27.0621 21.7468L23.1957 20.7219C22.5873 23.017 22.2695 25.1964 22.2695 27.25H26.2695ZM27.0634 21.742C27.9587 18.3303 29.4936 15.1968 31.6801 12.3301L28.4996 9.90429C25.9986 13.1834 24.2262 16.7947 23.1944 20.7267L27.0634 21.742ZM31.6779 12.3329C34.3722 8.8134 36.9243 7.45312 39.3086 7.45312V3.45312C35.1825 3.45312 31.5888 5.86889 28.5018 9.90147L31.6779 12.3329ZM37.9023 13.1406C35.3417 13.1406 33.3626 15.1785 31.8377 17.5861L35.217 19.7264C36.6609 17.4465 37.5984 17.1406 37.9023 17.1406V13.1406ZM31.8488 17.5688C30.5586 19.5602 29.6264 21.5626 29.0939 23.5742L32.9608 24.5977C33.3658 23.0676 34.1002 21.4502 35.2058 19.7437L31.8488 17.5688ZM29.0871 23.6009C28.8235 24.6552 28.6758 25.6682 28.6758 26.625H32.6758C32.6758 26.0714 32.7625 25.3916 32.9676 24.571L29.0871 23.6009ZM28.6758 26.625C28.6758 28.0216 29.0208 29.3553 29.8718 30.4616L33.0423 28.0228C32.8516 27.7749 32.6758 27.3639 32.6758 26.625H28.6758ZM29.89 30.485C30.9126 31.7744 32.3538 32.375 33.957 32.375V28.375C33.4249 28.375 33.1993 28.2204 33.024 27.9994L29.89 30.485ZM33.957 32.375C36.2302 32.375 38.0757 31.141 39.4926 29.2832L36.3121 26.8574C35.3853 28.0726 34.6005 28.375 33.957 28.375V32.375ZM39.4901 29.2865C40.6119 27.8219 41.3985 26.1209 41.8739 24.2194L37.9933 23.2493C37.6354 24.6811 37.0678 25.8708 36.3146 26.8542L39.4901 29.2865ZM41.8723 24.2255C42.4293 22.0272 42.5518 19.8317 42.2238 17.6551L38.2684 18.2511C38.5134 19.8766 38.4275 21.5353 37.9948 23.2432L41.8723 24.2255ZM42.2189 17.6243C42.034 16.5149 41.6732 15.4166 40.9622 14.5634C40.1811 13.626 39.1043 13.1406 37.9023 13.1406V17.1406C37.9596 17.1406 37.9521 17.15 37.9138 17.1323C37.8743 17.1141 37.8666 17.0968 37.8893 17.1241C37.9596 17.2084 38.1457 17.5164 38.2733 18.2819L42.2189 17.6243ZM48.2148 8.42188L47.847 6.456L46.4844 6.71099L46.2449 8.07637L48.2148 8.42188ZM54.8945 7.17188L56.8286 7.68122L57.6336 4.62459L54.5266 5.206L54.8945 7.17188ZM50.9102 25.5312L48.9349 25.2179L48.3713 28.7703L51.6863 27.3745L50.9102 25.5312ZM54.6211 23.9688L55.3972 25.812L56.402 25.3889L56.5909 24.3152L54.6211 23.9688ZM57.3555 8.42188L56.9876 6.456L55.6257 6.71086L55.3857 8.07543L57.3555 8.42188ZM64.0352 7.17188L65.9738 7.66362L66.7432 4.6304L63.6673 5.206L64.0352 7.17188ZM58.7617 34.3203L59.292 36.2487L60.603 35.8882L60.75 34.5366L58.7617 34.3203ZM52.5117 36.0391L50.5434 35.6844L49.9803 38.8094L53.042 37.9675L52.5117 36.0391ZM53.293 31.7031L55.2613 32.0578L55.9281 28.357L52.4868 29.8728L53.293 31.7031ZM43.3711 36.0391L41.4012 35.6936L40.7585 39.3576L44.1693 37.8729L43.3711 36.0391ZM48.5827 10.3877L55.2624 9.13775L54.5266 5.206L47.847 6.456L48.5827 10.3877ZM52.9605 6.66253C51.1511 13.5328 49.8072 19.7197 48.9349 25.2179L52.8855 25.8446C53.7319 20.5095 55.0442 14.4568 56.8286 7.68122L52.9605 6.66253ZM51.6863 27.3745L55.3972 25.812L53.845 22.1255L50.134 23.688L51.6863 27.3745ZM56.5909 24.3152L59.3252 8.76832L55.3857 8.07543L52.6513 23.6223L56.5909 24.3152ZM57.7234 10.3877L64.403 9.13775L63.6673 5.206L56.9876 6.456L57.7234 10.3877ZM62.0966 6.68013C59.375 17.4095 57.5944 26.5569 56.7734 34.104L60.75 34.5366C61.5437 27.2399 63.2787 18.2884 65.9738 7.66362L62.0966 6.68013ZM58.2314 32.3919L51.9814 34.1107L53.042 37.9675L59.292 36.2487L58.2314 32.3919ZM54.48 36.3937L55.2613 32.0578L51.3247 31.3485L50.5434 35.6844L54.48 36.3937ZM52.4868 29.8728C50.3034 30.8345 46.9994 32.2784 42.5729 34.2053L44.1693 37.8729C48.597 35.9455 51.9075 34.4988 54.0992 33.5334L52.4868 29.8728ZM45.341 36.3846L50.1848 8.76738L46.2449 8.07637L41.4012 35.6936L45.341 36.3846ZM74.4258 4.47656L76.3028 5.16697L77.3767 2.24753L74.2749 2.48226L74.4258 4.47656ZM70.9492 16.8203L71.2564 18.7966L72.6707 18.5767L72.9189 17.1671L70.9492 16.8203ZM63.4102 17.9922L61.4904 17.4313L60.6079 20.4518L63.7173 19.9685L63.4102 17.9922ZM67.1992 5.02344L67.0483 3.02914L65.6678 3.13361L65.2795 4.46255L67.1992 5.02344ZM72.5487 3.78615C70.852 8.39914 69.656 12.6309 68.9795 16.4735L72.9189 17.1671C73.5445 13.6139 74.6662 9.61648 76.3028 5.16697L72.5487 3.78615ZM70.642 14.844L63.103 16.0159L63.7173 19.9685L71.2564 18.7966L70.642 14.844ZM65.3299 18.5531L69.119 5.58433L65.2795 4.46255L61.4904 17.4313L65.3299 18.5531ZM67.3501 7.01774L74.5767 6.47086L74.2749 2.48226L67.0483 3.02914L67.3501 7.01774ZM74.3867 8.38281L73.8131 6.46682L72.6282 6.82155L72.4163 8.04013L74.3867 8.38281ZM89.6602 10.2188L87.6603 10.1975L87.6602 10.2039L89.6602 10.2188ZM83.0195 20.8047L81.7656 19.2466L80.646 20.1476L81.1428 21.4961L83.0195 20.8047ZM87.5508 30.1406L88.9073 31.6102L90.0187 30.5843L89.3343 29.2356L87.5508 30.1406ZM81.418 35.6484L79.5532 36.3714L80.5922 39.0515L82.744 37.1456L81.418 35.6484ZM77.2383 24.8672L79.1031 24.1443L78.608 22.8672H77.2383V24.8672ZM77.1992 24.8672V22.8672H75.5323L75.232 24.5068L77.1992 24.8672ZM75.793 34.3203L76.3295 36.247L77.6357 35.8833L77.7814 34.5353L75.793 34.3203ZM69.6211 36.0391L67.6293 35.858L67.367 38.7429L70.1576 37.9657L69.6211 36.0391ZM70.4805 30.8438L72.4488 31.1984L72.4509 31.1864L70.4805 30.8438ZM79.3086 14.5547L78.6632 12.6617L77.6493 13.0073L77.3752 14.0429L79.3086 14.5547ZM78.6836 17.2109L80.6425 17.6142L78.6836 17.2109ZM78.1367 19.8672L76.1778 19.4639L75.3351 23.557L79.0514 21.6458L78.1367 19.8672ZM80.832 18.0312L82.1299 19.5529L82.1382 19.5459L82.1463 19.5388L80.832 18.0312ZM82.8633 15.4922L81.115 14.5209L81.0615 14.6172L81.0189 14.7187L82.8633 15.4922ZM74.9603 10.2988C78.9653 9.09985 82.0998 8.54688 84.4258 8.54688V4.54688C81.5434 4.54688 77.9852 5.21786 73.8131 6.46682L74.9603 10.2988ZM84.4258 8.54688C86.0148 8.54688 86.8417 8.835 87.2225 9.10216C87.4683 9.27458 87.6675 9.51937 87.6603 10.1975L91.66 10.24C91.6789 8.47021 91.0187 6.87907 89.5197 5.82753C88.1557 4.87073 86.3524 4.54688 84.4258 4.54688V8.54688ZM87.6602 10.2039C87.6407 12.8329 85.9806 15.8546 81.7656 19.2466L84.2734 22.3628C88.8606 18.6714 91.6275 14.6358 91.6601 10.2336L87.6602 10.2039ZM81.1428 21.4961C81.5587 22.625 83.1419 25.8722 85.7673 31.0457L89.3343 29.2356C86.6472 23.9403 85.2095 20.9636 84.8962 20.1133L81.1428 21.4961ZM86.1942 28.671C84.8557 29.9066 82.8239 31.7315 80.0919 34.1513L82.744 37.1456C85.4808 34.7216 87.5376 32.8746 88.9073 31.6102L86.1942 28.671ZM83.2827 34.9255L79.1031 24.1443L75.3735 25.5901L79.5532 36.3714L83.2827 34.9255ZM77.2383 22.8672H77.1992V26.8672H77.2383V22.8672ZM75.232 24.5068C74.5998 27.9576 74.1232 31.1578 73.8046 34.1053L77.7814 34.5353C78.0877 31.7016 78.5487 28.5997 79.1665 25.2276L75.232 24.5068ZM75.2564 32.3936L69.0845 34.1124L70.1576 37.9657L76.3295 36.247L75.2564 32.3936ZM71.6129 36.2201C71.6549 35.7574 71.9197 34.1349 72.4488 31.1984L68.5122 30.4891C67.9996 33.3338 67.6914 35.1749 67.6293 35.858L71.6129 36.2201ZM72.4509 31.1864L76.3571 8.72549L72.4163 8.04013L68.51 30.5011L72.4509 31.1864ZM77.3752 14.0429C77.1314 14.9638 76.9146 15.8853 76.7247 16.8076L80.6425 17.6142C80.8172 16.7657 81.017 15.9164 81.242 15.0665L77.3752 14.0429ZM76.7247 16.8076L76.1778 19.4639L80.0956 20.2705L80.6425 17.6142L76.7247 16.8076ZM79.0514 21.6458C80.1171 21.0977 81.1426 20.395 82.1299 19.5529L79.5341 16.5096C78.7506 17.1779 77.9792 17.6992 77.222 18.0886L79.0514 21.6458ZM82.1463 19.5388C83.2799 18.5505 84.2042 17.4662 84.7077 16.2656L81.0189 14.7187C80.8453 15.1328 80.4154 15.7412 79.5178 16.5237L82.1463 19.5388ZM84.6116 16.4635C84.8607 16.0151 85.0586 15.4603 85.0586 14.8281H81.0586C81.0586 14.6127 81.1263 14.5005 81.115 14.5209L84.6116 16.4635ZM85.0586 14.8281C85.0586 14.0622 84.7774 13.192 83.9842 12.5902C83.2952 12.0676 82.4993 11.9688 81.9258 11.9688V15.9688C82.1075 15.9688 81.8779 16.0131 81.5666 15.777C81.3927 15.645 81.2479 15.4641 81.1568 15.2567C81.0708 15.0611 81.0586 14.9022 81.0586 14.8281H85.0586ZM81.9258 11.9688C80.9816 11.9688 79.8496 12.2572 78.6632 12.6617L79.9539 16.4477C81.0593 16.0709 81.672 15.9688 81.9258 15.9688V11.9688ZM95.6367 14.2422L95.3236 12.2669L94.0513 12.4686L93.7087 13.7103L95.6367 14.2422ZM95.0898 16.4688L93.1342 16.0497L93.1314 16.0631L93.1287 16.0765L95.0898 16.4688ZM94.6602 18.6172L92.699 18.225L92.1029 21.2053L95.0759 20.5735L94.6602 18.6172ZM100.91 17.2891L102.906 17.4192L103.078 14.7838L100.494 15.3327L100.91 17.2891ZM100.559 22.6797L100.904 24.6496L102.452 24.378L102.554 22.8098L100.559 22.6797ZM93.5664 24.0469L93.1167 22.0981L91.8585 22.3884L91.6052 23.6546L93.5664 24.0469ZM93.293 25.6094L95.2615 25.9627L95.2666 25.9344L95.2708 25.9061L93.293 25.6094ZM93.0195 27.1328L91.051 26.7795L90.5608 29.5107L93.3068 29.1121L93.0195 27.1328ZM100.285 26.0781L102.28 26.2176L102.453 23.7424L99.9978 24.0989L100.285 26.0781ZM99.7773 33.3438L99.9434 35.3368L101.653 35.1944L101.772 33.4832L99.7773 33.3438ZM85.5195 36.0391L83.5465 35.7116L83.0434 38.7432L86.019 37.9757L85.5195 36.0391ZM90.168 8.03125L89.8826 6.05171L88.4345 6.26045L88.195 7.70379L90.168 8.03125ZM103.176 6.15625L105.171 6.29644L105.345 3.82295L102.89 4.17671L103.176 6.15625ZM102.668 13.3828L102.851 15.3744L104.544 15.219L104.663 13.523L102.668 13.3828ZM93.7087 13.7103C93.4906 14.501 93.299 15.2808 93.1342 16.0497L97.0454 16.8878C97.1932 16.1983 97.3662 15.4938 97.5647 14.774L93.7087 13.7103ZM93.1287 16.0765L92.699 18.225L96.6213 19.0094L97.051 16.861L93.1287 16.0765ZM95.0759 20.5735L101.326 19.2454L100.494 15.3327L94.2444 16.6609L95.0759 20.5735ZM98.9144 17.1589L98.5628 22.5495L102.554 22.8098L102.906 17.4192L98.9144 17.1589ZM100.213 20.7098C97.2306 21.233 94.86 21.6958 93.1167 22.0981L94.0161 25.9957C95.6583 25.6167 97.949 25.168 100.904 24.6496L100.213 20.7098ZM91.6052 23.6546C91.4948 24.2069 91.3981 24.7596 91.3151 25.3127L95.2708 25.9061C95.3441 25.4175 95.4297 24.9285 95.5276 24.4391L91.6052 23.6546ZM91.3244 25.256L91.051 26.7795L94.9881 27.4861L95.2615 25.9627L91.3244 25.256ZM93.3068 29.1121L100.572 28.0574L99.9978 24.0989L92.7322 25.1536L93.3068 29.1121ZM98.29 25.9387L97.7822 33.2043L101.772 33.4832L102.28 26.2176L98.29 25.9387ZM99.6113 31.3507C95.7036 31.6763 90.8297 32.604 85.02 34.1024L86.019 37.9757C91.7198 36.5053 96.3511 35.6362 99.9434 35.3368L99.6113 31.3507ZM87.4925 36.3665L92.141 8.35871L88.195 7.70379L83.5465 35.7116L87.4925 36.3665ZM90.4533 10.0108L103.461 8.13579L102.89 4.17671L89.8826 6.05171L90.4533 10.0108ZM101.181 6.01606L100.673 13.2426L104.663 13.523L105.171 6.29644L101.181 6.01606ZM102.485 11.3912C99.8971 11.6289 97.5092 11.9203 95.3236 12.2669L95.9499 16.2175C98.035 15.8869 100.335 15.6055 102.851 15.3744L102.485 11.3912ZM112.277 8.38281L111.65 6.4838L110.378 6.90411L110.282 8.24032L112.277 8.38281ZM125.246 8.73438L126.682 7.34175L126.671 7.33087L126.66 7.32016L125.246 8.73438ZM127.434 17.9922L125.485 17.5425L125.483 17.551L125.481 17.5595L127.434 17.9922ZM120.246 30.0234L121.587 31.5075L121.592 31.5024L120.246 30.0234ZM107.629 36.0391L105.637 35.858L105.411 38.3422L107.885 38.0226L107.629 36.0391ZM108.449 30.9219L110.42 31.2653L110.42 31.2646L108.449 30.9219ZM111.574 12.9531L113.545 13.2958L113.546 13.2873L113.548 13.2788L111.574 12.9531ZM117.863 14.8281L117.779 12.8299L116.263 12.8937L115.916 14.3712L117.863 14.8281ZM115.129 29.3203L113.147 29.0486L112.373 34.6973L116.506 30.7703L115.129 29.3203ZM119.309 24.1641L117.617 23.0975L117.614 23.102L119.309 24.1641ZM112.905 10.2818C115.79 9.32842 118.104 8.89844 119.895 8.89844V4.89844C117.518 4.89844 114.754 5.45804 111.65 6.4838L112.905 10.2818ZM119.895 8.89844C121.901 8.89844 123.1 9.41707 123.832 10.1486L126.66 7.32016C124.944 5.60377 122.576 4.89844 119.895 4.89844V8.89844ZM123.811 10.127C125.13 11.487 125.785 13.1051 125.785 15.1016H129.785C129.785 12.0981 128.748 9.47136 126.682 7.34175L123.811 10.127ZM125.785 15.1016C125.785 15.8419 125.69 16.6537 125.485 17.5425L129.382 18.4419C129.646 17.2994 129.785 16.1842 129.785 15.1016H125.785ZM125.481 17.5595C124.563 21.7042 122.399 25.3592 118.9 28.5445L121.592 31.5024C125.646 27.8127 128.273 23.4468 129.386 18.4249L125.481 17.5595ZM118.905 28.5394C115.403 31.7033 111.568 33.5134 107.373 34.0556L107.885 38.0226C112.961 37.3668 117.537 35.1665 121.587 31.5075L118.905 28.5394ZM109.621 36.2201C109.663 35.75 109.917 34.1459 110.42 31.2653L106.479 30.5784C105.991 33.375 105.699 35.1823 105.637 35.858L109.621 36.2201ZM110.42 31.2646L113.545 13.2958L109.604 12.6104L106.479 30.5792L110.42 31.2646ZM113.548 13.2788C113.979 10.6639 114.238 9.00924 114.272 8.52531L110.282 8.24032C110.283 8.23876 110.28 8.26579 110.272 8.33673C110.264 8.40245 110.253 8.4895 110.238 8.60026C110.207 8.82169 110.163 9.11871 110.105 9.49471C109.99 10.2458 109.822 11.289 109.601 12.6274L113.548 13.2788ZM115.916 14.3712C114.706 19.5282 113.782 24.4212 113.147 29.0486L117.11 29.5921C117.726 25.1049 118.625 20.3364 119.81 15.2851L115.916 14.3712ZM116.506 30.7703C118.199 29.1627 119.696 27.3115 121.003 25.2261L117.614 23.102C116.473 24.9229 115.184 26.5092 113.751 27.8703L116.506 30.7703ZM121 25.2307C122.595 22.7013 123.574 20.2602 123.574 17.9922H119.574C119.574 19.1616 119.043 20.8352 117.617 23.0975L121 25.2307ZM123.574 17.9922C123.574 16.5227 123.154 15.0505 121.944 14.0191C120.783 13.0292 119.264 12.7674 117.779 12.8299L117.947 16.8264C118.936 16.7847 119.273 16.9982 119.349 17.0629C119.376 17.0862 119.574 17.2482 119.574 17.9922H123.574ZM145.949 10.0625L144.075 10.7613L144.078 10.7681L145.949 10.0625ZM146.027 21.2344L147.961 21.7454L147.963 21.738L147.965 21.7306L146.027 21.2344ZM141.027 31.3125L139.444 30.0911L139.443 30.0915L141.027 31.3125ZM125.91 32.3281L124.04 33.0374L124.041 33.0408L125.91 32.3281ZM125.91 21.2344L127.843 21.7468L127.845 21.742L125.91 21.2344ZM130.871 11.1172L129.283 9.90147L129.281 9.90429L130.871 11.1172ZM134.309 18.6562L135.987 19.7437L135.993 19.7351L135.998 19.7264L134.309 18.6562ZM131.809 24.0859L129.875 23.5742L129.872 23.5875L129.868 23.6009L131.809 24.0859ZM132.238 29.2422L130.653 30.4616L130.662 30.4734L130.671 30.485L132.238 29.2422ZM138.684 28.0703L137.096 26.8542L137.093 26.8574L138.684 28.0703ZM140.715 23.7344L138.776 23.2432L138.775 23.2493L140.715 23.7344ZM141.027 17.9531L143.005 17.6551L143.003 17.6397L143 17.6243L141.027 17.9531ZM140.09 7.45312C141.074 7.45312 141.804 7.71734 142.388 8.17738C142.998 8.65694 143.591 9.4616 144.075 10.7613L147.823 9.36374C147.162 7.59048 146.205 6.09046 144.862 5.03356C143.493 3.95714 141.866 3.45312 140.09 3.45312V7.45312ZM144.078 10.7681C144.582 12.1057 144.848 13.6082 144.848 15.2969H148.848C148.848 13.1835 148.514 11.1963 147.821 9.35689L144.078 10.7681ZM144.848 15.2969C144.848 16.9219 144.604 18.7324 144.09 20.7382L147.965 21.7306C148.545 19.4656 148.848 17.3177 148.848 15.2969H144.848ZM144.094 20.7233C143.2 24.1039 141.655 27.223 139.444 30.0911L142.611 32.5339C145.139 29.2561 146.927 25.6565 147.961 21.7454L144.094 20.7233ZM139.443 30.0915C136.748 33.5887 134.207 34.9375 131.848 34.9375V38.9375C135.946 38.9375 139.526 36.5363 142.611 32.5335L139.443 30.0915ZM131.848 34.9375C130.846 34.9375 130.099 34.6706 129.5 34.2053C128.877 33.7218 128.274 32.914 127.779 31.6155L124.041 33.0408C124.718 34.8151 125.691 36.3121 127.047 37.365C128.427 38.4362 130.063 38.9375 131.848 38.9375V34.9375ZM127.78 31.6188C127.306 30.3683 127.051 28.921 127.051 27.25H123.051C123.051 29.329 123.369 31.2671 124.04 33.0374L127.78 31.6188ZM127.051 27.25C127.051 25.6056 127.306 23.7747 127.843 21.7468L123.977 20.7219C123.369 23.017 123.051 25.1964 123.051 27.25H127.051ZM127.845 21.742C128.74 18.3303 130.275 15.1968 132.461 12.3301L129.281 9.90429C126.78 13.1834 125.007 16.7947 123.976 20.7267L127.845 21.742ZM132.459 12.3329C135.153 8.8134 137.706 7.45312 140.09 7.45312V3.45312C135.964 3.45312 132.37 5.86889 129.283 9.90147L132.459 12.3329ZM138.684 13.1406C136.123 13.1406 134.144 15.1785 132.619 17.5861L135.998 19.7264C137.442 17.4465 138.38 17.1406 138.684 17.1406V13.1406ZM132.63 17.5688C131.34 19.5602 130.408 21.5626 129.875 23.5742L133.742 24.5977C134.147 23.0676 134.881 21.4502 135.987 19.7437L132.63 17.5688ZM129.868 23.6009C129.605 24.6552 129.457 25.6682 129.457 26.625H133.457C133.457 26.0714 133.544 25.3916 133.749 24.571L129.868 23.6009ZM129.457 26.625C129.457 28.0216 129.802 29.3553 130.653 30.4616L133.824 28.0228C133.633 27.7749 133.457 27.3639 133.457 26.625H129.457ZM130.671 30.485C131.694 31.7744 133.135 32.375 134.738 32.375V28.375C134.206 28.375 133.981 28.2204 133.805 27.9994L130.671 30.485ZM134.738 32.375C137.011 32.375 138.857 31.141 140.274 29.2832L137.093 26.8574C136.167 28.0726 135.382 28.375 134.738 28.375V32.375ZM140.271 29.2865C141.393 27.8219 142.18 26.1209 142.655 24.2194L138.775 23.2493C138.417 24.6811 137.849 25.8708 137.096 26.8542L140.271 29.2865ZM142.654 24.2255C143.211 22.0272 143.333 19.8317 143.005 17.6551L139.05 18.2511C139.295 19.8766 139.209 21.5353 138.776 23.2432L142.654 24.2255ZM143 17.6243C142.815 16.5149 142.454 15.4166 141.743 14.5634C140.962 13.626 139.886 13.1406 138.684 13.1406V17.1406C138.741 17.1406 138.733 17.15 138.695 17.1323C138.656 17.1141 138.648 17.0968 138.671 17.1241C138.741 17.2084 138.927 17.5164 139.055 18.2819L143 17.6243ZM149.543 8.42188L149.177 6.45561L147.811 6.70982L147.573 8.07908L149.543 8.42188ZM156.262 7.17188L158.198 7.67397L158.987 4.63053L155.896 5.20561L156.262 7.17188ZM150.949 34.3203L151.483 36.2479L152.791 35.8859L152.937 34.5367L150.949 34.3203ZM144.738 36.0391L142.768 35.6963L142.226 38.8094L145.272 37.9666L144.738 36.0391ZM149.909 10.3881L156.628 9.13814L155.896 5.20561L149.177 6.45561L149.909 10.3881ZM154.326 6.66978C151.602 17.1722 149.808 26.3217 148.961 34.1039L152.937 34.5367C153.757 27.0064 155.505 18.0569 158.198 7.67397L154.326 6.66978ZM150.416 32.3928L144.205 34.1115L145.272 37.9666L151.483 36.2479L150.416 32.3928ZM146.709 36.3819L151.513 8.76467L147.573 8.07908L142.768 35.6963L146.709 36.3819ZM157.863 8.53906L157.467 6.57878L156.129 6.84935L155.893 8.19329L157.863 8.53906ZM164.621 7.17188L166.617 7.30064L166.785 4.69354L164.225 5.21159L164.621 7.17188ZM164.895 19.9453L166.887 19.7764L166.887 19.7712L164.895 19.9453ZM165.48 23.6562L163.553 24.1915L167.451 23.9998L165.48 23.6562ZM168.137 8.42188L167.771 6.45561L166.405 6.70972L166.166 8.07834L168.137 8.42188ZM174.855 7.17188L176.791 7.67397L177.581 4.63053L174.49 5.20561L174.855 7.17188ZM169.543 34.3203L170.08 36.247L171.385 35.8835L171.531 34.5367L169.543 34.3203ZM163.371 36.0391L161.582 36.9335L162.32 38.408L163.908 37.9657L163.371 36.0391ZM162.863 34.6719L160.976 35.3348L160.98 35.3451L160.984 35.3554L162.863 34.6719ZM160.832 28.8906L162.719 28.2277L162.716 28.2195L162.713 28.2113L160.832 28.8906ZM160.246 27.0938L162.207 26.7015L158.277 26.7433L160.246 27.0938ZM158.957 36.0391L159.532 37.9547L160.803 37.5734L160.945 36.254L158.957 36.0391ZM152.707 37.9141L150.737 37.5683L150.177 40.7612L153.282 39.8297L152.707 37.9141ZM158.26 10.4993L165.018 9.13216L164.225 5.21159L157.467 6.57878L158.26 10.4993ZM162.625 7.04311C162.569 7.91481 162.543 9.11109 162.543 10.6094H166.543C166.543 9.13891 166.569 8.04352 166.617 7.30064L162.625 7.04311ZM162.543 10.6094C162.543 14.1922 162.661 17.3645 162.902 20.1194L166.887 19.7712C166.659 17.1615 166.543 14.1099 166.543 10.6094H162.543ZM162.902 20.1142C163.037 21.7118 163.246 23.0858 163.553 24.1915L167.408 23.121C167.194 22.3517 167.012 21.2518 166.887 19.7764L162.902 20.1142ZM167.451 23.9998L170.107 8.76541L166.166 8.07834L163.51 23.3127L167.451 23.9998ZM168.503 10.3881L175.221 9.13814L174.49 5.20561L167.771 6.45561L168.503 10.3881ZM172.92 6.66978C170.196 17.1722 168.402 26.3217 167.555 34.1039L171.531 34.5367C172.351 27.0064 174.099 18.0569 176.791 7.67397L172.92 6.66978ZM169.006 32.3936L162.835 34.1124L163.908 37.9657L170.08 36.247L169.006 32.3936ZM165.16 35.1446C165.198 35.2201 165.22 35.2793 165.209 35.251C165.207 35.2469 165.202 35.2333 165.191 35.2064C165.171 35.1535 165.141 35.0732 165.099 34.9618C165.017 34.7405 164.899 34.4168 164.743 33.9884L160.984 35.3554C161.14 35.7863 161.263 36.1202 161.35 36.3546C161.404 36.5019 161.506 36.7815 161.582 36.9335L165.16 35.1446ZM164.75 34.0089L162.719 28.2277L158.945 29.5536L160.976 35.3348L164.75 34.0089ZM162.713 28.2113C162.547 27.7524 162.422 27.3899 162.333 27.1182C162.289 26.9825 162.256 26.8774 162.234 26.7993C162.21 26.7144 162.205 26.6883 162.207 26.7015L158.285 27.486C158.373 27.9245 158.629 28.6791 158.951 29.5699L162.713 28.2113ZM158.277 26.7433C157.723 29.8579 157.286 32.8849 156.969 35.8241L160.945 36.254C161.253 33.4119 161.676 30.4754 162.215 27.4442L158.277 26.7433ZM158.382 34.1234L152.132 35.9984L153.282 39.8297L159.532 37.9547L158.382 34.1234ZM154.677 38.2598L159.833 8.88484L155.893 8.19329L150.737 37.5683L154.677 38.2598ZM172.16 32.4844L174.026 31.7642L174.021 31.7501L174.015 31.736L172.16 32.4844ZM172.082 21.7422L174.017 22.25L174.02 22.2372L172.082 21.7422ZM176.965 11.9375L178.535 13.1768L178.539 13.1716L176.965 11.9375ZM191.926 11.1172L193.388 12.4814L194.232 11.5771L193.8 10.4184L191.926 11.1172ZM187.59 15.7656L185.926 16.875L187.328 18.9784L189.052 17.1298L187.59 15.7656ZM180.52 18.3828L178.834 17.3067L178.83 17.3121L180.52 18.3828ZM177.902 24.5156L179.836 25.0274L179.838 25.0194L179.84 25.0113L177.902 24.5156ZM178.371 29.4766L179.917 28.2071L179.91 28.1986L179.903 28.1902L178.371 29.4766ZM184.27 28.8906L182.813 27.5199L182.805 27.5284L184.27 28.8906ZM186.301 25.5312L188.167 26.2492L189.476 22.8469L185.903 23.5711L186.301 25.5312ZM180.949 26.7422L178.994 26.3195L178.312 29.4754L181.442 28.6806L180.949 26.7422ZM182.199 20.9609L181.786 19.0042L180.518 19.272L180.244 20.5383L182.199 20.9609ZM192.551 18.7734L194.55 18.7119L194.476 16.3224L192.137 16.8167L192.551 18.7734ZM191.457 24.5938L193.336 25.2793L193.341 25.2664L191.457 24.5938ZM188.84 29.9062L190.517 30.9962L190.52 30.9905L188.84 29.9062ZM178.02 34.9375C177.019 34.9375 176.28 34.6768 175.695 34.2319C175.089 33.7715 174.504 33.0036 174.026 31.7642L170.294 33.2045C170.962 34.9339 171.927 36.3925 173.274 37.4165C174.642 38.456 176.26 38.9375 178.02 38.9375V34.9375ZM174.015 31.736C173.526 30.5234 173.262 29.1162 173.262 27.4844H169.262C169.262 29.5505 169.597 31.4766 170.305 33.2328L174.015 31.736ZM173.262 27.4844C173.262 25.9455 173.503 24.2046 174.016 22.25L170.148 21.2344C169.567 23.4464 169.262 25.5337 169.262 27.4844H173.262ZM174.02 22.2372C174.86 18.9481 176.359 15.9321 178.535 13.1768L175.395 10.6982C172.883 13.8804 171.127 17.4009 170.144 21.2471L174.02 22.2372ZM178.539 13.1716C181.171 9.8147 183.673 8.50781 186.027 8.50781V4.50781C181.975 4.50781 178.436 6.82072 175.391 10.7034L178.539 13.1716ZM186.027 8.50781C187.029 8.50781 187.77 8.77469 188.36 9.23605C188.974 9.71587 189.568 10.5193 190.052 11.816L193.8 10.4184C193.137 8.64215 192.175 7.1409 190.823 6.08427C189.448 5.00916 187.812 4.50781 186.027 4.50781V8.50781ZM190.463 9.75299L186.127 14.4014L189.052 17.1298L193.388 12.4814L190.463 9.75299ZM189.254 14.6562C188.381 13.3468 187.037 12.7109 185.52 12.7109V16.7109C185.715 16.7109 185.795 16.7474 185.813 16.7567C185.825 16.7628 185.864 16.7821 185.926 16.875L189.254 14.6562ZM185.52 12.7109C182.714 12.7109 180.522 14.6616 178.834 17.3067L182.205 19.4589C183.642 17.2082 184.784 16.7109 185.52 16.7109V12.7109ZM178.83 17.3121C177.54 19.3483 176.587 21.5883 175.965 24.02L179.84 25.0113C180.364 22.9638 181.156 21.1153 182.209 19.4535L178.83 17.3121ZM175.969 24.0038C175.703 25.0089 175.551 25.9796 175.551 26.8984H179.551C179.551 26.411 179.633 25.7932 179.836 25.0274L175.969 24.0038ZM175.551 26.8984C175.551 28.313 175.919 29.667 176.84 30.7629L179.903 28.1902C179.729 27.984 179.551 27.6193 179.551 26.8984H175.551ZM176.826 30.746C177.857 32.0021 179.294 32.5703 180.871 32.5703V28.5703C180.313 28.5703 180.083 28.4094 179.917 28.2071L176.826 30.746ZM180.871 32.5703C182.783 32.5703 184.415 31.6709 185.734 30.2528L182.805 27.5284C182.041 28.3499 181.407 28.5703 180.871 28.5703V32.5703ZM185.726 30.2614C186.768 29.1543 187.571 27.7997 188.167 26.2492L184.434 24.8133C183.989 25.9711 183.438 26.8561 182.813 27.5199L185.726 30.2614ZM185.903 23.5711C183.949 23.9672 182.134 24.3779 180.457 24.8037L181.442 28.6806C183.046 28.2731 184.798 27.8766 186.698 27.4914L185.903 23.5711ZM182.904 27.1649L184.154 21.3836L180.244 20.5383L178.994 26.3195L182.904 27.1649ZM182.613 22.9177L192.964 20.7302L192.137 16.8167L181.786 19.0042L182.613 22.9177ZM190.552 18.8349C190.594 20.2038 190.3 21.8873 189.574 23.9211L193.341 25.2664C194.177 22.9252 194.612 20.7285 194.55 18.7119L190.552 18.8349ZM189.578 23.9082C188.923 25.7048 188.115 27.3407 187.159 28.822L190.52 30.9905C191.648 29.2427 192.585 27.3368 193.336 25.2793L189.578 23.9082ZM187.163 28.8163C184.345 33.1517 181.287 34.9375 178.02 34.9375V38.9375C183.085 38.9375 187.241 36.0358 190.517 30.9962L187.163 28.8163ZM198.996 32.4844L200.862 31.7642L200.856 31.7501L200.851 31.736L198.996 32.4844ZM198.918 21.7422L200.852 22.25L200.856 22.2372L198.918 21.7422ZM203.801 11.9375L205.371 13.1768L205.375 13.1716L203.801 11.9375ZM218.762 11.1172L220.224 12.4814L221.068 11.5771L220.636 10.4184L218.762 11.1172ZM214.426 15.7656L212.762 16.875L214.164 18.9784L215.888 17.1298L214.426 15.7656ZM207.355 18.3828L205.67 17.3067L205.666 17.3121L207.355 18.3828ZM204.738 24.5156L206.672 25.0274L206.674 25.0194L206.676 25.0113L204.738 24.5156ZM205.207 29.4766L206.752 28.2071L206.746 28.1986L206.738 28.1902L205.207 29.4766ZM211.105 28.8906L209.649 27.5199L209.641 27.5284L211.105 28.8906ZM213.137 25.5312L215.003 26.2492L216.312 22.8469L212.739 23.5711L213.137 25.5312ZM207.785 26.7422L205.83 26.3195L205.148 29.4754L208.277 28.6806L207.785 26.7422ZM209.035 20.9609L208.622 19.0042L207.354 19.272L207.08 20.5383L209.035 20.9609ZM219.387 18.7734L221.386 18.7119L221.312 16.3224L218.973 16.8167L219.387 18.7734ZM218.293 24.5938L220.172 25.2793L220.176 25.2664L218.293 24.5938ZM215.676 29.9062L217.353 30.9962L217.356 30.9905L215.676 29.9062ZM204.855 34.9375C203.855 34.9375 203.116 34.6768 202.53 34.2319C201.925 33.7715 201.34 33.0036 200.862 31.7642L197.13 33.2045C197.798 34.9339 198.763 36.3925 200.11 37.4165C201.478 38.456 203.096 38.9375 204.855 38.9375V34.9375ZM200.851 31.736C200.361 30.5234 200.098 29.1162 200.098 27.4844H196.098C196.098 29.5505 196.433 31.4766 197.141 33.2328L200.851 31.736ZM200.098 27.4844C200.098 25.9455 200.339 24.2046 200.852 22.25L196.984 21.2344C196.403 23.4464 196.098 25.5337 196.098 27.4844H200.098ZM200.856 22.2372C201.696 18.9481 203.195 15.9321 205.371 13.1768L202.231 10.6982C199.719 13.8804 197.963 17.4009 196.98 21.2471L200.856 22.2372ZM205.375 13.1716C208.007 9.8147 210.509 8.50781 212.863 8.50781V4.50781C208.811 4.50781 205.272 6.82072 202.227 10.7034L205.375 13.1716ZM212.863 8.50781C213.865 8.50781 214.606 8.77469 215.196 9.23605C215.81 9.71587 216.404 10.5193 216.888 11.816L220.636 10.4184C219.973 8.64215 219.011 7.1409 217.659 6.08427C216.283 5.00916 214.648 4.50781 212.863 4.50781V8.50781ZM217.299 9.75299L212.963 14.4014L215.888 17.1298L220.224 12.4814L217.299 9.75299ZM216.09 14.6562C215.217 13.3468 213.873 12.7109 212.355 12.7109V16.7109C212.551 16.7109 212.631 16.7474 212.649 16.7567C212.661 16.7628 212.7 16.7821 212.762 16.875L216.09 14.6562ZM212.355 12.7109C209.55 12.7109 207.358 14.6616 205.67 17.3067L209.041 19.4589C210.478 17.2082 211.62 16.7109 212.355 16.7109V12.7109ZM205.666 17.3121C204.376 19.3483 203.423 21.5883 202.801 24.02L206.676 25.0113C207.2 22.9638 207.991 21.1153 209.045 19.4535L205.666 17.3121ZM202.805 24.0038C202.539 25.0089 202.387 25.9796 202.387 26.8984H206.387C206.387 26.411 206.469 25.7932 206.672 25.0274L202.805 24.0038ZM202.387 26.8984C202.387 28.313 202.755 29.667 203.676 30.7629L206.738 28.1902C206.565 27.984 206.387 27.6193 206.387 26.8984H202.387ZM203.662 30.746C204.693 32.0021 206.129 32.5703 207.707 32.5703V28.5703C207.149 28.5703 206.919 28.4094 206.752 28.2071L203.662 30.746ZM207.707 32.5703C209.619 32.5703 211.251 31.6709 212.57 30.2528L209.641 27.5284C208.877 28.3499 208.243 28.5703 207.707 28.5703V32.5703ZM212.562 30.2614C213.604 29.1543 214.407 27.7997 215.003 26.2492L211.27 24.8133C210.825 25.9711 210.274 26.8561 209.649 27.5199L212.562 30.2614ZM212.739 23.5711C210.785 23.9672 208.969 24.3779 207.293 24.8037L208.277 28.6806C209.882 28.2731 211.634 27.8766 213.534 27.4914L212.739 23.5711ZM209.74 27.1649L210.99 21.3836L207.08 20.5383L205.83 26.3195L209.74 27.1649ZM209.449 22.9177L219.8 20.7302L218.973 16.8167L208.622 19.0042L209.449 22.9177ZM217.388 18.8349C217.43 20.2038 217.136 21.8873 216.409 23.9211L220.176 25.2664C221.013 22.9252 221.448 20.7285 221.386 18.7119L217.388 18.8349ZM216.414 23.9082C215.759 25.7048 214.951 27.3407 213.995 28.822L217.356 30.9905C218.484 29.2427 219.421 27.3368 220.172 25.2793L216.414 23.9082ZM213.999 28.8163C211.181 33.1517 208.123 34.9375 204.855 34.9375V38.9375C209.921 38.9375 214.077 36.0358 217.353 30.9962L213.999 28.8163ZM221.379 8.38281L220.805 6.46682L219.62 6.82155L219.408 8.04013L221.379 8.38281ZM236.652 10.2188L234.652 10.1975L234.652 10.2039L236.652 10.2188ZM230.012 20.8047L228.758 19.2466L227.638 20.1476L228.135 21.4961L230.012 20.8047ZM234.543 30.1406L235.9 31.6102L237.011 30.5843L236.326 29.2356L234.543 30.1406ZM228.41 35.6484L226.545 36.3714L227.584 39.0515L229.736 37.1456L228.41 35.6484ZM224.23 24.8672L226.095 24.1443L225.6 22.8672H224.23V24.8672ZM224.191 24.8672V22.8672H222.525L222.224 24.5068L224.191 24.8672ZM222.785 34.3203L223.322 36.247L224.628 35.8833L224.774 34.5353L222.785 34.3203ZM216.613 36.0391L214.621 35.858L214.359 38.7429L217.15 37.9657L216.613 36.0391ZM217.473 30.8438L219.441 31.1984L219.443 31.1864L217.473 30.8438ZM226.301 14.5547L225.655 12.6617L224.641 13.0073L224.367 14.0429L226.301 14.5547ZM225.676 17.2109L227.635 17.6142L225.676 17.2109ZM225.129 19.8672L223.17 19.4639L222.327 23.557L226.044 21.6458L225.129 19.8672ZM227.824 18.0312L229.122 19.5529L229.13 19.5459L229.138 19.5388L227.824 18.0312ZM229.855 15.4922L228.107 14.5209L228.054 14.6172L228.011 14.7187L229.855 15.4922ZM221.952 10.2988C225.957 9.09985 229.092 8.54688 231.418 8.54688V4.54688C228.536 4.54688 224.977 5.21786 220.805 6.46682L221.952 10.2988ZM231.418 8.54688C233.007 8.54688 233.834 8.835 234.215 9.10216C234.461 9.27458 234.66 9.51937 234.652 10.1975L238.652 10.24C238.671 8.47021 238.011 6.87907 236.512 5.82753C235.148 4.87073 233.345 4.54688 231.418 4.54688V8.54688ZM234.652 10.2039C234.633 12.8329 232.973 15.8546 228.758 19.2466L231.266 22.3628C235.853 18.6714 238.62 14.6358 238.652 10.2336L234.652 10.2039ZM228.135 21.4961C228.551 22.625 230.134 25.8722 232.759 31.0457L236.326 29.2356C233.639 23.9403 232.202 20.9636 231.888 20.1133L228.135 21.4961ZM233.186 28.671C231.848 29.9066 229.816 31.7315 227.084 34.1513L229.736 37.1456C232.473 34.7216 234.53 32.8746 235.9 31.6102L233.186 28.671ZM230.275 34.9255L226.095 24.1443L222.366 25.5901L226.545 36.3714L230.275 34.9255ZM224.23 22.8672H224.191V26.8672H224.23V22.8672ZM222.224 24.5068C221.592 27.9576 221.115 31.1578 220.797 34.1053L224.774 34.5353C225.08 31.7016 225.541 28.5997 226.159 25.2276L222.224 24.5068ZM222.249 32.3936L216.077 34.1124L217.15 37.9657L223.322 36.247L222.249 32.3936ZM218.605 36.2201C218.647 35.7574 218.912 34.1349 219.441 31.1984L215.504 30.4891C214.992 33.3338 214.684 35.1749 214.621 35.858L218.605 36.2201ZM219.443 31.1864L223.349 8.72549L219.408 8.04013L215.502 30.5011L219.443 31.1864ZM224.367 14.0429C224.124 14.9638 223.907 15.8853 223.717 16.8076L227.635 17.6142C227.809 16.7657 228.009 15.9164 228.234 15.0665L224.367 14.0429ZM223.717 16.8076L223.17 19.4639L227.088 20.2705L227.635 17.6142L223.717 16.8076ZM226.044 21.6458C227.109 21.0977 228.135 20.395 229.122 19.5529L226.526 16.5096C225.743 17.1779 224.971 17.6992 224.214 18.0886L226.044 21.6458ZM229.138 19.5388C230.272 18.5505 231.196 17.4662 231.7 16.2656L228.011 14.7187C227.837 15.1328 227.408 15.7412 226.51 16.5237L229.138 19.5388ZM231.604 16.4635C231.853 16.0151 232.051 15.4603 232.051 14.8281H228.051C228.051 14.6127 228.118 14.5005 228.107 14.5209L231.604 16.4635ZM232.051 14.8281C232.051 14.0622 231.77 13.192 230.976 12.5902C230.287 12.0676 229.491 11.9688 228.918 11.9688V15.9688C229.1 15.9688 228.87 16.0131 228.559 15.777C228.385 15.645 228.24 15.4641 228.149 15.2567C228.063 15.0611 228.051 14.9022 228.051 14.8281H232.051ZM228.918 11.9688C227.974 11.9688 226.842 12.2572 225.655 12.6617L226.946 16.4477C228.051 16.0709 228.664 15.9688 228.918 15.9688V11.9688ZM242.629 14.2422L242.316 12.2669L241.043 12.4686L240.701 13.7103L242.629 14.2422ZM242.082 16.4688L240.126 16.0497L240.124 16.0631L240.121 16.0765L242.082 16.4688ZM241.652 18.6172L239.691 18.225L239.095 21.2053L242.068 20.5735L241.652 18.6172ZM247.902 17.2891L249.898 17.4192L250.07 14.7838L247.487 15.3327L247.902 17.2891ZM247.551 22.6797L247.896 24.6496L249.444 24.378L249.547 22.8098L247.551 22.6797ZM240.559 24.0469L240.109 22.0981L238.851 22.3884L238.597 23.6546L240.559 24.0469ZM240.285 25.6094L242.254 25.9627L242.259 25.9344L242.263 25.9061L240.285 25.6094ZM240.012 27.1328L238.043 26.7795L237.553 29.5107L240.299 29.1121L240.012 27.1328ZM247.277 26.0781L249.272 26.2176L249.445 23.7424L246.99 24.0989L247.277 26.0781ZM246.77 33.3438L246.936 35.3368L248.645 35.1944L248.765 33.4832L246.77 33.3438ZM232.512 36.0391L230.539 35.7116L230.036 38.7432L233.011 37.9757L232.512 36.0391ZM237.16 8.03125L236.875 6.05171L235.427 6.26045L235.187 7.70379L237.16 8.03125ZM250.168 6.15625L252.163 6.29644L252.337 3.82295L249.883 4.17671L250.168 6.15625ZM249.66 13.3828L249.843 15.3744L251.536 15.219L251.655 13.523L249.66 13.3828ZM240.701 13.7103C240.483 14.501 240.291 15.2808 240.126 16.0497L244.038 16.8878C244.185 16.1983 244.358 15.4938 244.557 14.774L240.701 13.7103ZM240.121 16.0765L239.691 18.225L243.614 19.0094L244.043 16.861L240.121 16.0765ZM242.068 20.5735L248.318 19.2454L247.487 15.3327L241.237 16.6609L242.068 20.5735ZM245.907 17.1589L245.555 22.5495L249.547 22.8098L249.898 17.4192L245.907 17.1589ZM247.205 20.7098C244.223 21.233 241.852 21.6958 240.109 22.0981L241.008 25.9957C242.65 25.6167 244.941 25.168 247.896 24.6496L247.205 20.7098ZM238.597 23.6546C238.487 24.2069 238.39 24.7596 238.307 25.3127L242.263 25.9061C242.336 25.4175 242.422 24.9285 242.52 24.4391L238.597 23.6546ZM238.317 25.256L238.043 26.7795L241.98 27.4861L242.254 25.9627L238.317 25.256ZM240.299 29.1121L247.565 28.0574L246.99 24.0989L239.724 25.1536L240.299 29.1121ZM245.282 25.9387L244.774 33.2043L248.765 33.4832L249.272 26.2176L245.282 25.9387ZM246.603 31.3507C242.696 31.6763 237.822 32.604 232.012 34.1024L233.011 37.9757C238.712 36.5053 243.343 35.6362 246.936 35.3368L246.603 31.3507ZM234.485 36.3665L239.133 8.35871L235.187 7.70379L230.539 35.7116L234.485 36.3665ZM237.445 10.0108L250.453 8.13579L249.883 4.17671L236.875 6.05171L237.445 10.0108ZM248.173 6.01606L247.665 13.2426L251.655 13.523L252.163 6.29644L248.173 6.01606ZM249.477 11.3912C246.889 11.6289 244.501 11.9203 242.316 12.2669L242.942 16.2175C245.027 15.8869 247.327 15.6055 249.843 15.3744L249.477 11.3912ZM244.113 36.5078L242.251 35.7779L240.985 39.0076L244.415 38.485L244.113 36.5078ZM253.41 8.26562L253.079 6.29319L251.803 6.50735L251.475 7.75965L253.41 8.26562ZM265.285 6.27344L267.256 6.61173L267.733 3.83485L264.954 4.301L265.285 6.27344ZM263.449 34.2812L263.9 36.2299L265.469 35.8673L265.449 34.2571L263.449 34.2812ZM255.168 36.1953L253.182 35.957L252.843 38.7855L255.618 38.1439L255.168 36.1953ZM255.754 31.3125L257.74 31.5508L258.067 28.8265L255.373 29.3491L255.754 31.3125ZM253.137 31.8203L252.756 29.8569L251.491 30.1024L251.191 31.3561L253.137 31.8203ZM252.316 35.2578L252.618 37.235L253.949 37.0321L254.262 35.722L252.316 35.2578ZM256.379 26.0781L256.74 28.0452L258.187 27.7796L258.364 26.3197L256.379 26.0781ZM258.176 11.3125L260.161 11.5541L260.434 9.3125H258.176V11.3125ZM258.137 11.3125V9.3125H256.564L256.193 10.8404L258.137 11.3125ZM254.465 26.4297L252.521 25.9576L251.794 28.9538L254.826 28.3968L254.465 26.4297ZM245.975 37.2377C249.829 27.4075 252.953 17.9185 255.345 8.7716L251.475 7.75965C249.127 16.7378 246.054 26.0769 242.251 35.7779L245.975 37.2377ZM253.741 10.2381L265.616 8.24587L264.954 4.301L253.079 6.29319L253.741 10.2381ZM263.314 5.93515C261.934 13.9784 261.318 23.4415 261.449 34.3054L265.449 34.2571C265.32 23.5585 265.928 14.3497 267.256 6.61173L263.314 5.93515ZM262.999 32.3326L254.718 34.2467L255.618 38.1439L263.9 36.2299L262.999 32.3326ZM257.154 36.4336L257.74 31.5508L253.768 31.0742L253.182 35.957L257.154 36.4336ZM255.373 29.3491L252.756 29.8569L253.518 33.7837L256.135 33.2759L255.373 29.3491ZM251.191 31.3561L250.371 34.7936L254.262 35.722L255.082 32.2845L251.191 31.3561ZM252.015 33.2806L243.812 34.5306L244.415 38.485L252.618 37.235L252.015 33.2806ZM258.364 26.3197L260.161 11.5541L256.19 11.0709L254.394 25.8365L258.364 26.3197ZM258.176 9.3125H258.137V13.3125H258.176V9.3125ZM256.193 10.8404L252.521 25.9576L256.408 26.9017L260.08 11.7846L256.193 10.8404ZM254.826 28.3968L256.74 28.0452L256.018 24.111L254.104 24.4626L254.826 28.3968ZM282.277 6.78125L284.276 6.84573L284.351 4.52829L282.048 4.79447L282.277 6.78125ZM282.043 14.0469L282.157 16.0436L283.983 15.9393L284.042 14.1114L282.043 14.0469ZM276.848 14.4375L276.658 12.4465L275.234 12.5822L274.902 13.9739L276.848 14.4375ZM273.371 34.3203L273.875 36.2558L275.224 35.9046L275.361 34.5176L273.371 34.3203ZM266.77 36.0391L264.799 35.6983L264.27 38.7565L267.273 37.9745L266.77 36.0391ZM270.363 15.2578L272.334 15.5986L272.805 12.8742L270.07 13.2794L270.363 15.2578ZM268.254 15.6094L267.89 13.6428L267.883 13.6441L268.254 15.6094ZM266.184 16L264.188 16.1281L264.332 18.3846L266.554 17.9653L266.184 16ZM265.715 8.69531L265.485 6.70854L263.597 6.92672L263.719 8.82339L265.715 8.69531ZM280.278 6.71677L280.044 13.9824L284.042 14.1114L284.276 6.84573L280.278 6.71677ZM281.929 12.0501C280.083 12.1556 278.326 12.2876 276.658 12.4465L277.037 16.4285C278.65 16.2749 280.357 16.1465 282.157 16.0436L281.929 12.0501ZM274.902 13.9739C273.167 21.2567 271.99 27.9746 271.381 34.123L275.361 34.5176C275.95 28.5826 277.091 22.0454 278.793 14.9011L274.902 13.9739ZM272.867 32.3848L266.266 34.1036L267.273 37.9745L273.875 36.2558L272.867 32.3848ZM268.74 36.3799L272.334 15.5986L268.393 14.917L264.799 35.6983L268.74 36.3799ZM270.07 13.2794C269.343 13.3871 268.616 13.5083 267.89 13.6428L268.618 17.5759C269.298 17.4501 269.977 17.3368 270.656 17.2362L270.07 13.2794ZM267.883 13.6441L265.813 14.0347L266.554 17.9653L268.625 17.5747L267.883 13.6441ZM268.179 15.8719L267.711 8.56723L263.719 8.82339L264.188 16.1281L268.179 15.8719ZM265.944 10.6821L282.507 8.76803L282.048 4.79447L265.485 6.70854L265.944 10.6821ZM282.668 29.6328L282.927 31.616L282.939 31.6144L282.951 31.6127L282.668 29.6328ZM285.09 30.0234L284.119 31.7718L284.157 31.7929L284.195 31.8123L285.09 30.0234ZM284.426 35.2578L283.2 33.6774L283.193 33.6827L283.186 33.688L284.426 35.2578ZM281.184 36.6641L280.919 34.6816L280.908 34.6831L281.184 36.6641ZM278.762 36.3516L277.844 38.1288L277.856 38.1347L277.867 38.1404L278.762 36.3516ZM279.387 31.0781L278.122 29.5284L278.116 29.5337L278.11 29.539L279.387 31.0781ZM287.082 5.33594L287.412 3.36341L285.65 3.06826L285.159 4.7865L287.082 5.33594ZM295.246 6.70312L296.993 7.6764L298.373 5.19898L295.576 4.73059L295.246 6.70312ZM290.48 15.8047L288.666 14.9625L288.664 14.9676L290.48 15.8047ZM286.809 25.5312L286.722 27.5294L288.268 27.5961L288.721 26.1164L286.809 25.5312ZM281.379 25.2969L279.456 24.7474L278.759 27.1857L281.293 27.295L281.379 25.2969ZM282.951 31.6127C283.495 31.5349 283.851 31.6231 284.119 31.7718L286.061 28.2751C284.923 27.6426 283.663 27.4703 282.385 27.6529L282.951 31.6127ZM284.195 31.8123C284.277 31.8533 284.32 31.8856 284.338 31.9006C284.354 31.9144 284.351 31.9155 284.343 31.9023C284.334 31.8887 284.331 31.8782 284.331 31.8799C284.332 31.8834 284.34 31.9124 284.34 31.9766H288.34C288.34 31.2087 288.155 30.4383 287.712 29.7461C287.273 29.0598 286.657 28.571 285.984 28.2346L284.195 31.8123ZM284.34 31.9766C284.34 32.3571 284.17 32.9251 283.2 33.6774L285.651 36.8383C287.233 35.6114 288.34 33.9918 288.34 31.9766H284.34ZM283.186 33.688C282.459 34.262 281.711 34.576 280.919 34.6816L281.448 38.6465C283 38.4396 284.413 37.8161 285.665 36.8276L283.186 33.688ZM280.908 34.6831C280.271 34.7717 279.89 34.6798 279.656 34.5627L277.867 38.1404C278.987 38.7004 280.222 38.8169 281.459 38.645L280.908 34.6831ZM279.679 34.5743C279.605 34.5363 279.568 34.5072 279.555 34.495C279.542 34.484 279.546 34.4845 279.553 34.4969C279.561 34.5095 279.563 34.517 279.561 34.5104C279.559 34.5019 279.551 34.4676 279.551 34.3984H275.551C275.551 35.1544 275.727 35.9159 276.154 36.6047C276.579 37.2906 277.18 37.7857 277.844 38.1288L279.679 34.5743ZM279.551 34.3984C279.551 33.9762 279.738 33.3857 280.664 32.6172L278.11 29.539C276.588 30.8018 275.551 32.4248 275.551 34.3984H279.551ZM280.651 32.6279C281.369 32.0417 282.119 31.7213 282.927 31.616L282.409 27.6496C280.821 27.8568 279.383 28.4999 278.122 29.5284L280.651 32.6279ZM286.752 7.30847L294.916 8.67566L295.576 4.73059L287.412 3.36341L286.752 7.30847ZM293.499 5.72985C291.33 9.62374 289.713 12.708 288.666 14.9625L292.294 16.6469C293.279 14.5264 294.839 11.5429 296.993 7.6764L293.499 5.72985ZM288.664 14.9676C287.242 18.0522 285.987 21.3794 284.896 24.9461L288.721 26.1164C289.765 22.7039 290.958 19.5468 292.297 16.6418L288.664 14.9676ZM286.895 23.5331L281.465 23.2987L281.293 27.295L286.722 27.5294L286.895 23.5331ZM283.302 25.8463L289.005 5.88538L285.159 4.7865L279.456 24.7474L283.302 25.8463Z" fill="#F7931E" mask="url(#path-1-outside-1_2878_7718)"/>
</svg>
