<svg width="287" height="43" viewBox="0 0 287 43" fill="none" xmlns="http://www.w3.org/2000/svg">
<mask id="path-1-outside-1_2878_7719" maskUnits="userSpaceOnUse" x="7" y="2" width="278" height="38" fill="black">
<rect fill="white" x="7" y="2" width="278" height="38"/>
<path d="M23.5781 7.83594L29.8672 8.92969C24.2422 18.7995 19.7891 27.7318 16.5078 35.7266L10.4922 35.3359L14.6328 26.625L11.3516 10.9219L18.9688 7.40625C18.8906 8.60417 18.8385 10.1016 18.8125 11.8984C18.7865 13.6953 18.8776 15.4922 19.0859 17.2891L23.5781 7.83594ZM39.3203 5.45312C42.0807 5.45312 44.0339 6.98958 45.1797 10.0625C45.7786 11.651 46.0781 13.3958 46.0781 15.2969C46.0781 17.1198 45.8047 19.099 45.2578 21.2344C44.2943 24.8802 42.6276 28.2396 40.2578 31.3125C37.3672 35.0625 34.3073 36.9375 31.0781 36.9375C28.2917 36.9375 26.3125 35.401 25.1406 32.3281C24.5677 30.8177 24.2812 29.125 24.2812 27.25C24.2812 25.401 24.5677 23.3958 25.1406 21.2344C26.1042 17.5625 27.7578 14.1901 30.1016 11.1172C32.9922 7.34115 36.0651 5.45312 39.3203 5.45312ZM37.9141 15.1406C36.4818 15.1406 35.0234 16.3125 33.5391 18.6562C32.3411 20.5052 31.5078 22.3151 31.0391 24.0859C30.8047 25.0234 30.6875 25.8698 30.6875 26.625C30.6875 27.6927 30.9479 28.5651 31.4688 29.2422C32.0677 29.9974 32.901 30.375 33.9688 30.375C35.4271 30.375 36.7422 29.6068 37.9141 28.0703C38.8516 26.8464 39.5286 25.401 39.9453 23.7344C40.4401 21.7812 40.5443 19.8542 40.2578 17.9531C39.9453 16.0781 39.1641 15.1406 37.9141 15.1406ZM48.2266 8.42188L54.9062 7.17188C53.1094 13.9948 51.7812 20.1146 50.9219 25.5312L54.6328 23.9688L57.3672 8.42188L64.0469 7.17188C61.3385 17.849 59.5807 26.8984 58.7734 34.3203L52.5234 36.0391L53.3047 31.7031C51.1172 32.6667 47.8099 34.112 43.3828 36.0391L48.2266 8.42188ZM74.4375 4.47656C72.7708 9.00781 71.612 13.1224 70.9609 16.8203L63.4219 17.9922L67.2109 5.02344L74.4375 4.47656ZM74.3984 8.38281C78.487 7.15885 81.8333 6.54688 84.4375 6.54688C87.9531 6.54688 89.6979 7.77083 89.6719 10.2188C89.6458 13.7344 87.4323 17.263 83.0312 20.8047C83.3958 21.7943 84.9062 24.9062 87.5625 30.1406C86.2083 31.3906 84.1641 33.2266 81.4297 35.6484L77.25 24.8672H77.2109C76.5859 28.2786 76.1172 31.4297 75.8047 34.3203L69.6328 36.0391C69.6849 35.4661 69.9714 33.7344 70.4922 30.8438L74.3984 8.38281ZM79.3203 14.5547C79.0859 15.4401 78.8776 16.3255 78.6953 17.2109L78.1484 19.8672C79.0599 19.3984 79.9583 18.7865 80.8438 18.0312C81.8594 17.1458 82.5365 16.2995 82.875 15.4922C83.0052 15.2578 83.0703 15.0365 83.0703 14.8281C83.0703 14.2552 82.6927 13.9688 81.9375 13.9688C81.3385 13.9688 80.4661 14.1641 79.3203 14.5547ZM95.6484 14.2422C95.4401 14.9974 95.2578 15.7396 95.1016 16.4688L94.6719 18.6172L100.922 17.2891L100.57 22.6797C97.6016 23.2005 95.2708 23.6562 93.5781 24.0469C93.474 24.5677 93.3828 25.0885 93.3047 25.6094L93.0312 27.1328L100.297 26.0781L99.7891 33.3438C96.0391 33.6562 91.2865 34.5547 85.5312 36.0391L90.1797 8.03125L103.188 6.15625L102.68 13.3828C100.128 13.6172 97.7839 13.9036 95.6484 14.2422ZM104.867 36.5078C108.695 26.7422 111.794 17.3281 114.164 8.26562L126.039 6.27344C124.685 14.1641 124.073 23.5 124.203 34.2812L115.922 36.1953L116.508 31.3125L113.891 31.8203L113.07 35.2578L104.867 36.5078ZM117.133 26.0781L118.93 11.3125H118.891L115.219 26.4297L117.133 26.0781ZM136.156 8.38281C140.245 7.15885 143.591 6.54688 146.195 6.54688C149.711 6.54688 151.456 7.77083 151.43 10.2188C151.404 13.7344 149.19 17.263 144.789 20.8047C145.154 21.7943 146.664 24.9062 149.32 30.1406C147.966 31.3906 145.922 33.2266 143.188 35.6484L139.008 24.8672H138.969C138.344 28.2786 137.875 31.4297 137.562 34.3203L131.391 36.0391C131.443 35.4661 131.729 33.7344 132.25 30.8438L136.156 8.38281ZM141.078 14.5547C140.844 15.4401 140.635 16.3255 140.453 17.2109L139.906 19.8672C140.818 19.3984 141.716 18.7865 142.602 18.0312C143.617 17.1458 144.294 16.2995 144.633 15.4922C144.763 15.2578 144.828 15.0365 144.828 14.8281C144.828 14.2552 144.451 13.9688 143.695 13.9688C143.096 13.9688 142.224 14.1641 141.078 14.5547ZM162.992 5.45312C165.753 5.45312 167.706 6.98958 168.852 10.0625C169.451 11.651 169.75 13.3958 169.75 15.2969C169.75 17.1198 169.477 19.099 168.93 21.2344C167.966 24.8802 166.299 28.2396 163.93 31.3125C161.039 35.0625 157.979 36.9375 154.75 36.9375C151.964 36.9375 149.984 35.401 148.812 32.3281C148.24 30.8177 147.953 29.125 147.953 27.25C147.953 25.401 148.24 23.3958 148.812 21.2344C149.776 17.5625 151.43 14.1901 153.773 11.1172C156.664 7.34115 159.737 5.45312 162.992 5.45312ZM161.586 15.1406C160.154 15.1406 158.695 16.3125 157.211 18.6562C156.013 20.5052 155.18 22.3151 154.711 24.0859C154.477 25.0234 154.359 25.8698 154.359 26.625C154.359 27.6927 154.62 28.5651 155.141 29.2422C155.74 29.9974 156.573 30.375 157.641 30.375C159.099 30.375 160.414 29.6068 161.586 28.0703C162.523 26.8464 163.201 25.401 163.617 23.7344C164.112 21.7812 164.216 19.8542 163.93 17.9531C163.617 16.0781 162.836 15.1406 161.586 15.1406ZM181.156 6.50781C183.865 6.50781 185.857 7.97917 187.133 10.9219L182.719 15.7656C182.12 15.1406 181.43 14.8281 180.648 14.8281C179.268 14.8281 177.836 16.013 176.352 18.3828C175.128 20.3359 174.333 22.1589 173.969 23.8516C173.786 24.6589 173.695 25.388 173.695 26.0391C173.695 27.7839 174.333 28.9818 175.609 29.6328C176.026 29.8411 176.469 29.9453 176.938 29.9453C178.292 29.9453 179.711 28.9427 181.195 26.9375L182.445 31.5859C179.867 34.4505 177.25 35.8828 174.594 35.8828C171.885 35.8828 169.906 34.4505 168.656 31.5859C167.901 29.9193 167.523 28.0573 167.523 26C167.523 24.4896 167.719 22.888 168.109 21.1953C168.891 17.7318 170.375 14.5677 172.562 11.7031C175.193 8.23958 178.057 6.50781 181.156 6.50781ZM187.367 8.42188L194.086 7.17188C193.487 9.46354 193.044 11.2734 192.758 12.6016C195.023 10.6224 197.094 8.72135 198.969 6.89844L203.891 10.1016L196.195 16.9375L200.531 32.8359L193.461 36.5859L190.727 21.8594C189.919 26.0521 189.281 30.2057 188.812 34.3203L182.602 36.0391L187.367 8.42188ZM218.539 15.3359C217.706 15.6484 216.716 16.026 215.57 16.4688L212.641 17.6016C212.641 16.3776 212.302 15.7656 211.625 15.7656C210.661 15.7656 209.698 16.3125 208.734 17.4062C208.057 18.2135 207.771 18.9948 207.875 19.75C207.953 20.2448 208.448 20.4922 209.359 20.4922C209.854 20.4922 210.505 20.4141 211.312 20.2578C212.432 20.0234 213.422 19.9062 214.281 19.9062C216.469 19.9062 217.745 20.6615 218.109 22.1719C218.214 22.6406 218.266 23.1354 218.266 23.6562C218.266 25.3229 217.641 27.1198 216.391 29.0469C214.776 31.5729 212.51 33.6953 209.594 35.4141C208.057 36.3255 206.547 36.7812 205.062 36.7812C203.708 36.7812 202.38 36.4036 201.078 35.6484C201.729 34.0859 202.771 31.7812 204.203 28.7344C205.036 29.3073 205.922 29.5938 206.859 29.5938C207.276 29.5938 207.706 29.5286 208.148 29.3984C208.956 29.1901 209.724 28.8906 210.453 28.5C211.495 27.9271 212.016 27.3411 212.016 26.7422C212.016 26.0911 211.482 25.7656 210.414 25.7656C209.685 25.7656 208.617 25.9219 207.211 26.2344C205.831 26.5208 204.776 26.6641 204.047 26.6641C203.083 26.6641 202.341 26.4818 201.82 26.1172C200.805 25.4401 200.388 24.3854 200.57 22.9531C200.909 20.0625 202.771 16.7161 206.156 12.9141C209.62 9.00781 212.602 6.96354 215.102 6.78125C217.523 6.625 218.734 8.44792 218.734 12.25C218.734 13.1615 218.669 14.1901 218.539 15.3359ZM236.391 6.78125L236.156 14.0469C234.333 14.151 232.602 14.2812 230.961 14.4375C229.242 21.651 228.083 28.2786 227.484 34.3203L220.883 36.0391L224.477 15.2578C223.773 15.362 223.07 15.4792 222.367 15.6094L220.297 16L219.828 8.69531L236.391 6.78125ZM228.422 36.5078C232.25 26.7422 235.349 17.3281 237.719 8.26562L249.594 6.27344C248.24 14.1641 247.628 23.5 247.758 34.2812L239.477 36.1953L240.062 31.3125L237.445 31.8203L236.625 35.2578L228.422 36.5078ZM240.688 26.0781L242.484 11.3125H242.445L238.773 26.4297L240.688 26.0781ZM251.977 8.38281C256.065 7.15885 259.411 6.54688 262.016 6.54688C265.531 6.54688 267.276 7.77083 267.25 10.2188C267.224 13.7344 265.01 17.263 260.609 20.8047C260.974 21.7943 262.484 24.9062 265.141 30.1406C263.786 31.3906 261.742 33.2266 259.008 35.6484L254.828 24.8672H254.789C254.164 28.2786 253.695 31.4297 253.383 34.3203L247.211 36.0391C247.263 35.4661 247.549 33.7344 248.07 30.8438L251.977 8.38281ZM256.898 14.5547C256.664 15.4401 256.456 16.3255 256.273 17.2109L255.727 19.8672C256.638 19.3984 257.536 18.7865 258.422 18.0312C259.438 17.1458 260.115 16.2995 260.453 15.4922C260.583 15.2578 260.648 15.0365 260.648 14.8281C260.648 14.2552 260.271 13.9688 259.516 13.9688C258.917 13.9688 258.044 14.1641 256.898 14.5547ZM268.656 29.6328C269.568 29.5026 270.375 29.6328 271.078 30.0234C271.911 30.4401 272.328 31.0911 272.328 31.9766C272.328 33.1745 271.69 34.2682 270.414 35.2578C269.424 36.0391 268.344 36.5078 267.172 36.6641C266.234 36.7943 265.427 36.6901 264.75 36.3516C263.943 35.9349 263.539 35.2839 263.539 34.3984C263.539 33.2005 264.151 32.0938 265.375 31.0781C266.365 30.2708 267.458 29.7891 268.656 29.6328ZM273.07 5.33594L281.234 6.70312C279.073 10.5833 277.484 13.6172 276.469 15.8047C275.089 18.7995 273.865 22.0417 272.797 25.5312L267.367 25.2969L273.07 5.33594Z"/>
</mask>
<path d="M23.5781 7.83594L29.8672 8.92969C24.2422 18.7995 19.7891 27.7318 16.5078 35.7266L10.4922 35.3359L14.6328 26.625L11.3516 10.9219L18.9688 7.40625C18.8906 8.60417 18.8385 10.1016 18.8125 11.8984C18.7865 13.6953 18.8776 15.4922 19.0859 17.2891L23.5781 7.83594ZM39.3203 5.45312C42.0807 5.45312 44.0339 6.98958 45.1797 10.0625C45.7786 11.651 46.0781 13.3958 46.0781 15.2969C46.0781 17.1198 45.8047 19.099 45.2578 21.2344C44.2943 24.8802 42.6276 28.2396 40.2578 31.3125C37.3672 35.0625 34.3073 36.9375 31.0781 36.9375C28.2917 36.9375 26.3125 35.401 25.1406 32.3281C24.5677 30.8177 24.2812 29.125 24.2812 27.25C24.2812 25.401 24.5677 23.3958 25.1406 21.2344C26.1042 17.5625 27.7578 14.1901 30.1016 11.1172C32.9922 7.34115 36.0651 5.45312 39.3203 5.45312ZM37.9141 15.1406C36.4818 15.1406 35.0234 16.3125 33.5391 18.6562C32.3411 20.5052 31.5078 22.3151 31.0391 24.0859C30.8047 25.0234 30.6875 25.8698 30.6875 26.625C30.6875 27.6927 30.9479 28.5651 31.4688 29.2422C32.0677 29.9974 32.901 30.375 33.9688 30.375C35.4271 30.375 36.7422 29.6068 37.9141 28.0703C38.8516 26.8464 39.5286 25.401 39.9453 23.7344C40.4401 21.7812 40.5443 19.8542 40.2578 17.9531C39.9453 16.0781 39.1641 15.1406 37.9141 15.1406ZM48.2266 8.42188L54.9062 7.17188C53.1094 13.9948 51.7812 20.1146 50.9219 25.5312L54.6328 23.9688L57.3672 8.42188L64.0469 7.17188C61.3385 17.849 59.5807 26.8984 58.7734 34.3203L52.5234 36.0391L53.3047 31.7031C51.1172 32.6667 47.8099 34.112 43.3828 36.0391L48.2266 8.42188ZM74.4375 4.47656C72.7708 9.00781 71.612 13.1224 70.9609 16.8203L63.4219 17.9922L67.2109 5.02344L74.4375 4.47656ZM74.3984 8.38281C78.487 7.15885 81.8333 6.54688 84.4375 6.54688C87.9531 6.54688 89.6979 7.77083 89.6719 10.2188C89.6458 13.7344 87.4323 17.263 83.0312 20.8047C83.3958 21.7943 84.9062 24.9062 87.5625 30.1406C86.2083 31.3906 84.1641 33.2266 81.4297 35.6484L77.25 24.8672H77.2109C76.5859 28.2786 76.1172 31.4297 75.8047 34.3203L69.6328 36.0391C69.6849 35.4661 69.9714 33.7344 70.4922 30.8438L74.3984 8.38281ZM79.3203 14.5547C79.0859 15.4401 78.8776 16.3255 78.6953 17.2109L78.1484 19.8672C79.0599 19.3984 79.9583 18.7865 80.8438 18.0312C81.8594 17.1458 82.5365 16.2995 82.875 15.4922C83.0052 15.2578 83.0703 15.0365 83.0703 14.8281C83.0703 14.2552 82.6927 13.9688 81.9375 13.9688C81.3385 13.9688 80.4661 14.1641 79.3203 14.5547ZM95.6484 14.2422C95.4401 14.9974 95.2578 15.7396 95.1016 16.4688L94.6719 18.6172L100.922 17.2891L100.57 22.6797C97.6016 23.2005 95.2708 23.6562 93.5781 24.0469C93.474 24.5677 93.3828 25.0885 93.3047 25.6094L93.0312 27.1328L100.297 26.0781L99.7891 33.3438C96.0391 33.6562 91.2865 34.5547 85.5312 36.0391L90.1797 8.03125L103.188 6.15625L102.68 13.3828C100.128 13.6172 97.7839 13.9036 95.6484 14.2422ZM104.867 36.5078C108.695 26.7422 111.794 17.3281 114.164 8.26562L126.039 6.27344C124.685 14.1641 124.073 23.5 124.203 34.2812L115.922 36.1953L116.508 31.3125L113.891 31.8203L113.07 35.2578L104.867 36.5078ZM117.133 26.0781L118.93 11.3125H118.891L115.219 26.4297L117.133 26.0781ZM136.156 8.38281C140.245 7.15885 143.591 6.54688 146.195 6.54688C149.711 6.54688 151.456 7.77083 151.43 10.2188C151.404 13.7344 149.19 17.263 144.789 20.8047C145.154 21.7943 146.664 24.9062 149.32 30.1406C147.966 31.3906 145.922 33.2266 143.188 35.6484L139.008 24.8672H138.969C138.344 28.2786 137.875 31.4297 137.562 34.3203L131.391 36.0391C131.443 35.4661 131.729 33.7344 132.25 30.8438L136.156 8.38281ZM141.078 14.5547C140.844 15.4401 140.635 16.3255 140.453 17.2109L139.906 19.8672C140.818 19.3984 141.716 18.7865 142.602 18.0312C143.617 17.1458 144.294 16.2995 144.633 15.4922C144.763 15.2578 144.828 15.0365 144.828 14.8281C144.828 14.2552 144.451 13.9688 143.695 13.9688C143.096 13.9688 142.224 14.1641 141.078 14.5547ZM162.992 5.45312C165.753 5.45312 167.706 6.98958 168.852 10.0625C169.451 11.651 169.75 13.3958 169.75 15.2969C169.75 17.1198 169.477 19.099 168.93 21.2344C167.966 24.8802 166.299 28.2396 163.93 31.3125C161.039 35.0625 157.979 36.9375 154.75 36.9375C151.964 36.9375 149.984 35.401 148.812 32.3281C148.24 30.8177 147.953 29.125 147.953 27.25C147.953 25.401 148.24 23.3958 148.812 21.2344C149.776 17.5625 151.43 14.1901 153.773 11.1172C156.664 7.34115 159.737 5.45312 162.992 5.45312ZM161.586 15.1406C160.154 15.1406 158.695 16.3125 157.211 18.6562C156.013 20.5052 155.18 22.3151 154.711 24.0859C154.477 25.0234 154.359 25.8698 154.359 26.625C154.359 27.6927 154.62 28.5651 155.141 29.2422C155.74 29.9974 156.573 30.375 157.641 30.375C159.099 30.375 160.414 29.6068 161.586 28.0703C162.523 26.8464 163.201 25.401 163.617 23.7344C164.112 21.7812 164.216 19.8542 163.93 17.9531C163.617 16.0781 162.836 15.1406 161.586 15.1406ZM181.156 6.50781C183.865 6.50781 185.857 7.97917 187.133 10.9219L182.719 15.7656C182.12 15.1406 181.43 14.8281 180.648 14.8281C179.268 14.8281 177.836 16.013 176.352 18.3828C175.128 20.3359 174.333 22.1589 173.969 23.8516C173.786 24.6589 173.695 25.388 173.695 26.0391C173.695 27.7839 174.333 28.9818 175.609 29.6328C176.026 29.8411 176.469 29.9453 176.938 29.9453C178.292 29.9453 179.711 28.9427 181.195 26.9375L182.445 31.5859C179.867 34.4505 177.25 35.8828 174.594 35.8828C171.885 35.8828 169.906 34.4505 168.656 31.5859C167.901 29.9193 167.523 28.0573 167.523 26C167.523 24.4896 167.719 22.888 168.109 21.1953C168.891 17.7318 170.375 14.5677 172.562 11.7031C175.193 8.23958 178.057 6.50781 181.156 6.50781ZM187.367 8.42188L194.086 7.17188C193.487 9.46354 193.044 11.2734 192.758 12.6016C195.023 10.6224 197.094 8.72135 198.969 6.89844L203.891 10.1016L196.195 16.9375L200.531 32.8359L193.461 36.5859L190.727 21.8594C189.919 26.0521 189.281 30.2057 188.812 34.3203L182.602 36.0391L187.367 8.42188ZM218.539 15.3359C217.706 15.6484 216.716 16.026 215.57 16.4688L212.641 17.6016C212.641 16.3776 212.302 15.7656 211.625 15.7656C210.661 15.7656 209.698 16.3125 208.734 17.4062C208.057 18.2135 207.771 18.9948 207.875 19.75C207.953 20.2448 208.448 20.4922 209.359 20.4922C209.854 20.4922 210.505 20.4141 211.312 20.2578C212.432 20.0234 213.422 19.9062 214.281 19.9062C216.469 19.9062 217.745 20.6615 218.109 22.1719C218.214 22.6406 218.266 23.1354 218.266 23.6562C218.266 25.3229 217.641 27.1198 216.391 29.0469C214.776 31.5729 212.51 33.6953 209.594 35.4141C208.057 36.3255 206.547 36.7812 205.062 36.7812C203.708 36.7812 202.38 36.4036 201.078 35.6484C201.729 34.0859 202.771 31.7812 204.203 28.7344C205.036 29.3073 205.922 29.5938 206.859 29.5938C207.276 29.5938 207.706 29.5286 208.148 29.3984C208.956 29.1901 209.724 28.8906 210.453 28.5C211.495 27.9271 212.016 27.3411 212.016 26.7422C212.016 26.0911 211.482 25.7656 210.414 25.7656C209.685 25.7656 208.617 25.9219 207.211 26.2344C205.831 26.5208 204.776 26.6641 204.047 26.6641C203.083 26.6641 202.341 26.4818 201.82 26.1172C200.805 25.4401 200.388 24.3854 200.57 22.9531C200.909 20.0625 202.771 16.7161 206.156 12.9141C209.62 9.00781 212.602 6.96354 215.102 6.78125C217.523 6.625 218.734 8.44792 218.734 12.25C218.734 13.1615 218.669 14.1901 218.539 15.3359ZM236.391 6.78125L236.156 14.0469C234.333 14.151 232.602 14.2812 230.961 14.4375C229.242 21.651 228.083 28.2786 227.484 34.3203L220.883 36.0391L224.477 15.2578C223.773 15.362 223.07 15.4792 222.367 15.6094L220.297 16L219.828 8.69531L236.391 6.78125ZM228.422 36.5078C232.25 26.7422 235.349 17.3281 237.719 8.26562L249.594 6.27344C248.24 14.1641 247.628 23.5 247.758 34.2812L239.477 36.1953L240.062 31.3125L237.445 31.8203L236.625 35.2578L228.422 36.5078ZM240.688 26.0781L242.484 11.3125H242.445L238.773 26.4297L240.688 26.0781ZM251.977 8.38281C256.065 7.15885 259.411 6.54688 262.016 6.54688C265.531 6.54688 267.276 7.77083 267.25 10.2188C267.224 13.7344 265.01 17.263 260.609 20.8047C260.974 21.7943 262.484 24.9062 265.141 30.1406C263.786 31.3906 261.742 33.2266 259.008 35.6484L254.828 24.8672H254.789C254.164 28.2786 253.695 31.4297 253.383 34.3203L247.211 36.0391C247.263 35.4661 247.549 33.7344 248.07 30.8438L251.977 8.38281ZM256.898 14.5547C256.664 15.4401 256.456 16.3255 256.273 17.2109L255.727 19.8672C256.638 19.3984 257.536 18.7865 258.422 18.0312C259.438 17.1458 260.115 16.2995 260.453 15.4922C260.583 15.2578 260.648 15.0365 260.648 14.8281C260.648 14.2552 260.271 13.9688 259.516 13.9688C258.917 13.9688 258.044 14.1641 256.898 14.5547ZM268.656 29.6328C269.568 29.5026 270.375 29.6328 271.078 30.0234C271.911 30.4401 272.328 31.0911 272.328 31.9766C272.328 33.1745 271.69 34.2682 270.414 35.2578C269.424 36.0391 268.344 36.5078 267.172 36.6641C266.234 36.7943 265.427 36.6901 264.75 36.3516C263.943 35.9349 263.539 35.2839 263.539 34.3984C263.539 33.2005 264.151 32.0938 265.375 31.0781C266.365 30.2708 267.458 29.7891 268.656 29.6328ZM273.07 5.33594L281.234 6.70312C279.073 10.5833 277.484 13.6172 276.469 15.8047C275.089 18.7995 273.865 22.0417 272.797 25.5312L267.367 25.2969L273.07 5.33594Z" fill="#FAD557"/>
<path d="M23.5781 7.83594L23.9208 5.86551L22.4239 5.60518L21.7717 6.97752L23.5781 7.83594ZM29.8672 8.92969L31.6048 9.91999L33.0142 7.44698L30.2099 6.95926L29.8672 8.92969ZM16.5078 35.7266L16.3782 37.7224L17.8124 37.8155L18.358 36.4859L16.5078 35.7266ZM10.4922 35.3359L8.68587 34.4773L7.41989 37.1407L10.3626 37.3317L10.4922 35.3359ZM14.6328 26.625L16.4391 27.4836L16.7283 26.8753L16.5905 26.2159L14.6328 26.625ZM11.3516 10.9219L10.5134 9.10596L9.06829 9.77295L9.39385 11.331L11.3516 10.9219ZM18.9688 7.40625L20.9645 7.53641L21.1833 4.1814L18.1306 5.59033L18.9688 7.40625ZM19.0859 17.2891L17.0992 17.5194L17.9017 24.4408L20.8923 18.1475L19.0859 17.2891ZM23.2354 9.80636L29.5245 10.9001L30.2099 6.95926L23.9208 5.86551L23.2354 9.80636ZM28.1296 7.93939C22.4745 17.862 17.9797 26.8729 14.6576 34.9672L18.358 36.4859C21.5985 28.5906 26.0099 19.737 31.6048 9.91999L28.1296 7.93939ZM16.6374 33.7308L10.6218 33.3401L10.3626 37.3317L16.3782 37.7224L16.6374 33.7308ZM12.2985 36.1945L16.4391 27.4836L12.8265 25.7664L8.68587 34.4773L12.2985 36.1945ZM16.5905 26.2159L13.3093 10.5128L9.39385 11.331L12.6751 27.0341L16.5905 26.2159ZM12.1897 12.7378L19.8069 9.22217L18.1306 5.59033L10.5134 9.10596L12.1897 12.7378ZM16.973 7.27609C16.8919 8.51977 16.839 10.0536 16.8127 11.8695L20.8123 11.9274C20.8381 10.1495 20.8894 8.68856 20.9645 7.53641L16.973 7.27609ZM16.8127 11.8695C16.7854 13.7535 16.881 15.637 17.0992 17.5194L21.0726 17.0587C20.8742 15.3473 20.7875 13.6371 20.8123 11.9274L16.8127 11.8695ZM20.8923 18.1475L25.3845 8.69436L21.7717 6.97752L17.2795 16.4306L20.8923 18.1475ZM45.1797 10.0625L43.3057 10.7613L43.3083 10.7681L45.1797 10.0625ZM45.2578 21.2344L47.1914 21.7454L47.1934 21.738L47.1953 21.7306L45.2578 21.2344ZM40.2578 31.3125L38.6741 30.0911L38.6738 30.0915L40.2578 31.3125ZM25.1406 32.3281L23.2706 33.0374L23.2719 33.0408L25.1406 32.3281ZM25.1406 21.2344L27.0739 21.7468L27.0751 21.742L25.1406 21.2344ZM30.1016 11.1172L28.5135 9.90147L28.5113 9.90429L30.1016 11.1172ZM33.5391 18.6562L35.2176 19.7437L35.2232 19.7351L35.2287 19.7264L33.5391 18.6562ZM31.0391 24.0859L29.1057 23.5742L29.1021 23.5875L29.0988 23.6009L31.0391 24.0859ZM31.4688 29.2422L29.8835 30.4616L29.8925 30.4734L29.9018 30.485L31.4688 29.2422ZM37.9141 28.0703L36.3263 26.8542L36.3238 26.8574L37.9141 28.0703ZM39.9453 23.7344L38.0065 23.2432L38.005 23.2493L39.9453 23.7344ZM40.2578 17.9531L42.2355 17.6551L42.2332 17.6397L42.2306 17.6243L40.2578 17.9531ZM39.3203 7.45312C40.3046 7.45312 41.0341 7.71734 41.6189 8.17738C42.2285 8.65694 42.8211 9.4616 43.3057 10.7613L47.0536 9.36374C46.3924 7.59048 45.4355 6.09046 44.092 5.03356C42.7237 3.95714 41.0964 3.45312 39.3203 3.45312V7.45312ZM43.3083 10.7681C43.8126 12.1057 44.0781 13.6082 44.0781 15.2969H48.0781C48.0781 13.1835 47.7446 11.1963 47.0511 9.35689L43.3083 10.7681ZM44.0781 15.2969C44.0781 16.9219 43.834 18.7324 43.3203 20.7382L47.1953 21.7306C47.7753 19.4656 48.0781 17.3177 48.0781 15.2969H44.0781ZM43.3242 20.7233C42.4308 24.1039 40.8859 27.223 38.6741 30.0911L41.8416 32.5339C44.3693 29.2561 46.1578 25.6565 47.1914 21.7454L43.3242 20.7233ZM38.6738 30.0915C35.978 33.5887 33.4379 34.9375 31.0781 34.9375V38.9375C35.1767 38.9375 38.7563 36.5363 41.8418 32.5335L38.6738 30.0915ZM31.0781 34.9375C30.0764 34.9375 29.3297 34.6706 28.7303 34.2053C28.1075 33.7218 27.5046 32.914 27.0093 31.6155L23.2719 33.0408C23.9486 34.8151 24.9212 36.3121 26.2775 37.365C27.6573 38.4362 29.2934 38.9375 31.0781 38.9375V34.9375ZM27.0106 31.6188C26.5363 30.3683 26.2812 28.921 26.2812 27.25H22.2812C22.2812 29.329 22.5991 31.2671 23.2706 33.0374L27.0106 31.6188ZM26.2812 27.25C26.2812 25.6056 26.5364 23.7747 27.0739 21.7468L23.2074 20.7219C22.5991 23.017 22.2812 25.1964 22.2812 27.25H26.2812ZM27.0751 21.742C27.9704 18.3303 29.5053 15.1968 31.6918 12.3301L28.5113 9.90429C26.0103 13.1834 24.2379 16.7947 23.2061 20.7267L27.0751 21.742ZM31.6897 12.3329C34.3839 8.8134 36.936 7.45312 39.3203 7.45312V3.45312C35.1942 3.45312 31.6005 5.86889 28.5135 9.90147L31.6897 12.3329ZM37.9141 13.1406C35.3534 13.1406 33.3743 15.1785 31.8494 17.5861L35.2287 19.7264C36.6726 17.4465 37.6101 17.1406 37.9141 17.1406V13.1406ZM31.8606 17.5688C30.5703 19.5602 29.6381 21.5626 29.1057 23.5742L32.9725 24.5977C33.3775 23.0676 34.112 21.4502 35.2176 19.7437L31.8606 17.5688ZM29.0988 23.6009C28.8352 24.6552 28.6875 25.6682 28.6875 26.625H32.6875C32.6875 26.0714 32.7742 25.3916 32.9793 24.571L29.0988 23.6009ZM28.6875 26.625C28.6875 28.0216 29.0325 29.3553 29.8835 30.4616L33.054 28.0228C32.8633 27.7749 32.6875 27.3639 32.6875 26.625H28.6875ZM29.9018 30.485C30.9244 31.7744 32.3655 32.375 33.9688 32.375V28.375C33.4366 28.375 33.2111 28.2204 33.0357 27.9994L29.9018 30.485ZM33.9688 32.375C36.242 32.375 38.0874 31.141 39.5043 29.2832L36.3238 26.8574C35.397 28.0726 34.6122 28.375 33.9688 28.375V32.375ZM39.5018 29.2865C40.6236 27.8219 41.4102 26.1209 41.8856 24.2194L38.005 23.2493C37.6471 24.6811 37.0795 25.8708 36.3263 26.8542L39.5018 29.2865ZM41.8841 24.2255C42.441 22.0272 42.5635 19.8317 42.2355 17.6551L38.2801 18.2511C38.5251 19.8766 38.4392 21.5353 38.0066 23.2432L41.8841 24.2255ZM42.2306 17.6243C42.0457 16.5149 41.6849 15.4166 40.9739 14.5634C40.1928 13.626 39.116 13.1406 37.9141 13.1406V17.1406C37.9714 17.1406 37.9638 17.15 37.9256 17.1323C37.886 17.1141 37.8783 17.0968 37.9011 17.1241C37.9713 17.2084 38.1574 17.5164 38.285 18.2819L42.2306 17.6243ZM48.2266 8.42188L47.8587 6.456L46.4961 6.71099L46.2566 8.07637L48.2266 8.42188ZM54.9062 7.17188L56.8403 7.68122L57.6453 4.62459L54.5384 5.206L54.9062 7.17188ZM50.9219 25.5312L48.9466 25.2179L48.383 28.7703L51.698 27.3745L50.9219 25.5312ZM54.6328 23.9688L55.4089 25.812L56.4137 25.3889L56.6026 24.3152L54.6328 23.9688ZM57.3672 8.42188L56.9993 6.456L55.6374 6.71086L55.3974 8.07543L57.3672 8.42188ZM64.0469 7.17188L65.9855 7.66362L66.7549 4.6304L63.679 5.206L64.0469 7.17188ZM58.7734 34.3203L59.3038 36.2487L60.6147 35.8882L60.7617 34.5366L58.7734 34.3203ZM52.5234 36.0391L50.5551 35.6844L49.9921 38.8094L53.0538 37.9675L52.5234 36.0391ZM53.3047 31.7031L55.273 32.0578L55.9398 28.357L52.4985 29.8728L53.3047 31.7031ZM43.3828 36.0391L41.4129 35.6936L40.7703 39.3576L44.1811 37.8729L43.3828 36.0391ZM48.5944 10.3877L55.2741 9.13775L54.5384 5.206L47.8587 6.456L48.5944 10.3877ZM52.9722 6.66253C51.1628 13.5328 49.8189 19.7197 48.9466 25.2179L52.8972 25.8446C53.7436 20.5095 55.0559 14.4568 56.8403 7.68122L52.9722 6.66253ZM51.698 27.3745L55.4089 25.812L53.8567 22.1255L50.1458 23.688L51.698 27.3745ZM56.6026 24.3152L59.337 8.76832L55.3974 8.07543L52.663 23.6223L56.6026 24.3152ZM57.7351 10.3877L64.4148 9.13775L63.679 5.206L56.9993 6.456L57.7351 10.3877ZM62.1083 6.68013C59.3867 17.4095 57.6061 26.5569 56.7852 34.104L60.7617 34.5366C61.5554 27.2399 63.2904 18.2884 65.9855 7.66362L62.1083 6.68013ZM58.2431 32.3919L51.9931 34.1107L53.0538 37.9675L59.3038 36.2487L58.2431 32.3919ZM54.4917 36.3937L55.273 32.0578L51.3364 31.3485L50.5551 35.6844L54.4917 36.3937ZM52.4985 29.8728C50.3151 30.8345 47.0111 32.2784 42.5846 34.2053L44.1811 37.8729C48.6087 35.9455 51.9193 34.4988 54.1109 33.5334L52.4985 29.8728ZM45.3527 36.3846L50.1965 8.76738L46.2566 8.07637L41.4129 35.6936L45.3527 36.3846ZM74.4375 4.47656L76.3146 5.16697L77.3884 2.24753L74.2866 2.48226L74.4375 4.47656ZM70.9609 16.8203L71.2681 18.7966L72.6825 18.5767L72.9306 17.1671L70.9609 16.8203ZM63.4219 17.9922L61.5021 17.4313L60.6196 20.4518L63.7291 19.9685L63.4219 17.9922ZM67.2109 5.02344L67.06 3.02914L65.6795 3.13361L65.2912 4.46255L67.2109 5.02344ZM72.5604 3.78615C70.8637 8.39914 69.6677 12.6309 68.9912 16.4735L72.9306 17.1671C73.5562 13.6139 74.678 9.61648 76.3146 5.16697L72.5604 3.78615ZM70.6537 14.844L63.1147 16.0159L63.7291 19.9685L71.2681 18.7966L70.6537 14.844ZM65.3416 18.5531L69.1307 5.58433L65.2912 4.46255L61.5021 17.4313L65.3416 18.5531ZM67.3619 7.01774L74.5884 6.47086L74.2866 2.48226L67.06 3.02914L67.3619 7.01774ZM74.3984 8.38281L73.8249 6.46682L72.6399 6.82155L72.428 8.04013L74.3984 8.38281ZM89.6719 10.2188L87.672 10.1975L87.6719 10.2039L89.6719 10.2188ZM83.0312 20.8047L81.7774 19.2466L80.6577 20.1476L81.1546 21.4961L83.0312 20.8047ZM87.5625 30.1406L88.9191 31.6102L90.0304 30.5843L89.346 29.2356L87.5625 30.1406ZM81.4297 35.6484L79.5649 36.3714L80.604 39.0515L82.7558 37.1456L81.4297 35.6484ZM77.25 24.8672L79.1148 24.1443L78.6197 22.8672H77.25V24.8672ZM77.2109 24.8672V22.8672H75.5441L75.2437 24.5068L77.2109 24.8672ZM75.8047 34.3203L76.3412 36.247L77.6474 35.8833L77.7931 34.5353L75.8047 34.3203ZM69.6328 36.0391L67.641 35.858L67.3788 38.7429L70.1694 37.9657L69.6328 36.0391ZM70.4922 30.8438L72.4605 31.1984L72.4626 31.1864L70.4922 30.8438ZM79.3203 14.5547L78.675 12.6617L77.661 13.0073L77.3869 14.0429L79.3203 14.5547ZM78.6953 17.2109L80.6542 17.6142L78.6953 17.2109ZM78.1484 19.8672L76.1895 19.4639L75.3468 23.557L79.0631 21.6458L78.1484 19.8672ZM80.8438 18.0312L82.1416 19.5529L82.1499 19.5459L82.158 19.5388L80.8438 18.0312ZM82.875 15.4922L81.1267 14.5209L81.0732 14.6172L81.0306 14.7187L82.875 15.4922ZM74.972 10.2988C78.977 9.09985 82.1115 8.54688 84.4375 8.54688V4.54688C81.5551 4.54688 77.9969 5.21786 73.8249 6.46682L74.972 10.2988ZM84.4375 8.54688C86.0265 8.54688 86.8534 8.835 87.2342 9.10216C87.48 9.27458 87.6792 9.51937 87.672 10.1975L91.6718 10.24C91.6906 8.47021 91.0304 6.87907 89.5314 5.82753C88.1674 4.87073 86.3641 4.54688 84.4375 4.54688V8.54688ZM87.6719 10.2039C87.6525 12.8329 85.9923 15.8546 81.7774 19.2466L84.2851 22.3628C88.8723 18.6714 91.6392 14.6358 91.6718 10.2336L87.6719 10.2039ZM81.1546 21.4961C81.5705 22.625 83.1536 25.8722 85.779 31.0457L89.346 29.2356C86.6589 23.9403 85.2212 20.9636 84.9079 20.1133L81.1546 21.4961ZM86.2059 28.671C84.8674 29.9066 82.8356 31.7315 80.1036 34.1513L82.7558 37.1456C85.4925 34.7216 87.5493 32.8746 88.9191 31.6102L86.2059 28.671ZM83.2945 34.9255L79.1148 24.1443L75.3852 25.5901L79.5649 36.3714L83.2945 34.9255ZM77.25 22.8672H77.2109V26.8672H77.25V22.8672ZM75.2437 24.5068C74.6115 27.9576 74.1349 31.1578 73.8163 34.1053L77.7931 34.5353C78.0994 31.7016 78.5604 28.5997 79.1782 25.2276L75.2437 24.5068ZM75.2681 32.3936L69.0963 34.1124L70.1694 37.9657L76.3412 36.247L75.2681 32.3936ZM71.6246 36.2201C71.6667 35.7574 71.9314 34.1349 72.4605 31.1984L68.5239 30.4891C68.0113 33.3338 67.7031 35.1749 67.641 35.858L71.6246 36.2201ZM72.4626 31.1864L76.3689 8.72549L72.428 8.04013L68.5218 30.5011L72.4626 31.1864ZM77.3869 14.0429C77.1431 14.9638 76.9263 15.8853 76.7364 16.8076L80.6542 17.6142C80.8289 16.7657 81.0287 15.9164 81.2537 15.0665L77.3869 14.0429ZM76.7364 16.8076L76.1895 19.4639L80.1074 20.2705L80.6542 17.6142L76.7364 16.8076ZM79.0631 21.6458C80.1288 21.0977 81.1544 20.395 82.1416 19.5529L79.5459 16.5096C78.7623 17.1779 77.991 17.6992 77.2337 18.0886L79.0631 21.6458ZM82.158 19.5388C83.2916 18.5505 84.2159 17.4662 84.7194 16.2656L81.0306 14.7187C80.857 15.1328 80.4271 15.7412 79.5295 16.5237L82.158 19.5388ZM84.6233 16.4635C84.8724 16.0151 85.0703 15.4603 85.0703 14.8281H81.0703C81.0703 14.6127 81.138 14.5005 81.1267 14.5209L84.6233 16.4635ZM85.0703 14.8281C85.0703 14.0622 84.7891 13.192 83.9959 12.5902C83.307 12.0676 82.511 11.9688 81.9375 11.9688V15.9688C82.1192 15.9688 81.8897 16.0131 81.5783 15.777C81.4044 15.645 81.2596 15.4641 81.1685 15.2567C81.0825 15.0611 81.0703 14.9022 81.0703 14.8281H85.0703ZM81.9375 11.9688C80.9933 11.9688 79.8613 12.2572 78.675 12.6617L79.9657 16.4477C81.071 16.0709 81.6838 15.9688 81.9375 15.9688V11.9688ZM95.6484 14.2422L95.3353 12.2669L94.063 12.4686L93.7205 13.7103L95.6484 14.2422ZM95.1016 16.4688L93.146 16.0497L93.1431 16.0631L93.1404 16.0765L95.1016 16.4688ZM94.6719 18.6172L92.7107 18.225L92.1147 21.2053L95.0876 20.5735L94.6719 18.6172ZM100.922 17.2891L102.918 17.4192L103.09 14.7838L100.506 15.3327L100.922 17.2891ZM100.57 22.6797L100.916 24.6496L102.464 24.378L102.566 22.8098L100.57 22.6797ZM93.5781 24.0469L93.1284 22.0981L91.8702 22.3884L91.617 23.6546L93.5781 24.0469ZM93.3047 25.6094L95.2732 25.9627L95.2783 25.9344L95.2826 25.9061L93.3047 25.6094ZM93.0312 27.1328L91.0627 26.7795L90.5725 29.5107L93.3186 29.1121L93.0312 27.1328ZM100.297 26.0781L102.292 26.2176L102.465 23.7424L100.01 24.0989L100.297 26.0781ZM99.7891 33.3438L99.9552 35.3368L101.665 35.1944L101.784 33.4832L99.7891 33.3438ZM85.5312 36.0391L83.5582 35.7116L83.0551 38.7432L86.0307 37.9757L85.5312 36.0391ZM90.1797 8.03125L89.8943 6.05171L88.4462 6.26045L88.2067 7.70379L90.1797 8.03125ZM103.188 6.15625L105.183 6.29644L105.356 3.82295L102.902 4.17671L103.188 6.15625ZM102.68 13.3828L102.863 15.3744L104.556 15.219L104.675 13.523L102.68 13.3828ZM93.7205 13.7103C93.5023 14.501 93.3107 15.2808 93.146 16.0497L97.0572 16.8878C97.2049 16.1983 97.3779 15.4938 97.5764 14.774L93.7205 13.7103ZM93.1404 16.0765L92.7107 18.225L96.633 19.0094L97.0627 16.861L93.1404 16.0765ZM95.0876 20.5735L101.338 19.2454L100.506 15.3327L94.2562 16.6609L95.0876 20.5735ZM98.9261 17.1589L98.5746 22.5495L102.566 22.8098L102.918 17.4192L98.9261 17.1589ZM100.225 20.7098C97.2424 21.233 94.8717 21.6958 93.1284 22.0981L94.0278 25.9957C95.67 25.6167 97.9608 25.168 100.916 24.6496L100.225 20.7098ZM91.617 23.6546C91.5065 24.2069 91.4098 24.7596 91.3268 25.3127L95.2826 25.9061C95.3558 25.4175 95.4414 24.9285 95.5393 24.4391L91.617 23.6546ZM91.3361 25.256L91.0627 26.7795L94.9998 27.4861L95.2732 25.9627L91.3361 25.256ZM93.3186 29.1121L100.584 28.0574L100.01 24.0989L92.7439 25.1536L93.3186 29.1121ZM98.3017 25.9387L97.7939 33.2043L101.784 33.4832L102.292 26.2176L98.3017 25.9387ZM99.623 31.3507C95.7153 31.6763 90.8414 32.604 85.0318 34.1024L86.0307 37.9757C91.7315 36.5053 96.3628 35.6362 99.9552 35.3368L99.623 31.3507ZM87.5043 36.3665L92.1527 8.35871L88.2067 7.70379L83.5582 35.7116L87.5043 36.3665ZM90.465 10.0108L103.473 8.13579L102.902 4.17671L89.8943 6.05171L90.465 10.0108ZM101.192 6.01606L100.685 13.2426L104.675 13.523L105.183 6.29644L101.192 6.01606ZM102.497 11.3912C99.9088 11.6289 97.5209 11.9203 95.3353 12.2669L95.9616 16.2175C98.0468 15.8869 100.346 15.6055 102.863 15.3744L102.497 11.3912ZM104.867 36.5078L103.005 35.7779L101.739 39.0076L105.168 38.485L104.867 36.5078ZM114.164 8.26562L113.833 6.29319L112.557 6.50735L112.229 7.75965L114.164 8.26562ZM126.039 6.27344L128.01 6.61173L128.487 3.83485L125.708 4.301L126.039 6.27344ZM124.203 34.2812L124.654 36.2299L126.222 35.8673L126.203 34.2571L124.203 34.2812ZM115.922 36.1953L113.936 35.957L113.597 38.7855L116.372 38.1439L115.922 36.1953ZM116.508 31.3125L118.494 31.5508L118.82 28.8265L116.127 29.3491L116.508 31.3125ZM113.891 31.8203L113.51 29.8569L112.244 30.1024L111.945 31.3561L113.891 31.8203ZM113.07 35.2578L113.372 37.235L114.703 37.0321L115.016 35.722L113.07 35.2578ZM117.133 26.0781L117.494 28.0452L118.941 27.7796L119.118 26.3197L117.133 26.0781ZM118.93 11.3125L120.915 11.5541L121.188 9.3125H118.93V11.3125ZM118.891 11.3125V9.3125H117.318L116.947 10.8404L118.891 11.3125ZM115.219 26.4297L113.275 25.9576L112.548 28.9538L115.58 28.3968L115.219 26.4297ZM106.729 37.2377C110.583 27.4075 113.707 17.9185 116.099 8.7716L112.229 7.75965C109.881 16.7378 106.808 26.0769 103.005 35.7779L106.729 37.2377ZM114.495 10.2381L126.37 8.24587L125.708 4.301L113.833 6.29319L114.495 10.2381ZM124.068 5.93515C122.688 13.9784 122.072 23.4415 122.203 34.3054L126.203 34.2571C126.074 23.5585 126.682 14.3497 128.01 6.61173L124.068 5.93515ZM123.753 32.3326L115.471 34.2467L116.372 38.1439L124.654 36.2299L123.753 32.3326ZM117.908 36.4336L118.494 31.5508L114.522 31.0742L113.936 35.957L117.908 36.4336ZM116.127 29.3491L113.51 29.8569L114.272 33.7837L116.889 33.2759L116.127 29.3491ZM111.945 31.3561L111.125 34.7936L115.016 35.722L115.836 32.2845L111.945 31.3561ZM112.769 33.2806L104.566 34.5306L105.168 38.485L113.372 37.235L112.769 33.2806ZM119.118 26.3197L120.915 11.5541L116.944 11.0709L115.147 25.8365L119.118 26.3197ZM118.93 9.3125H118.891V13.3125H118.93V9.3125ZM116.947 10.8404L113.275 25.9576L117.162 26.9017L120.834 11.7846L116.947 10.8404ZM115.58 28.3968L117.494 28.0452L116.772 24.111L114.857 24.4626L115.58 28.3968ZM136.156 8.38281L135.583 6.46682L134.398 6.82155L134.186 8.04013L136.156 8.38281ZM151.43 10.2188L149.43 10.1975L149.43 10.2039L151.43 10.2188ZM144.789 20.8047L143.535 19.2466L142.416 20.1476L142.912 21.4961L144.789 20.8047ZM149.32 30.1406L150.677 31.6102L151.788 30.5843L151.104 29.2356L149.32 30.1406ZM143.188 35.6484L141.323 36.3714L142.362 39.0515L144.514 37.1456L143.188 35.6484ZM139.008 24.8672L140.873 24.1443L140.377 22.8672H139.008V24.8672ZM138.969 24.8672V22.8672H137.302L137.001 24.5068L138.969 24.8672ZM137.562 34.3203L138.099 36.247L139.405 35.8833L139.551 34.5353L137.562 34.3203ZM131.391 36.0391L129.399 35.858L129.137 38.7429L131.927 37.9657L131.391 36.0391ZM132.25 30.8438L134.218 31.1984L134.22 31.1864L132.25 30.8438ZM141.078 14.5547L140.433 12.6617L139.419 13.0073L139.145 14.0429L141.078 14.5547ZM140.453 17.2109L142.412 17.6142L140.453 17.2109ZM139.906 19.8672L137.947 19.4639L137.105 23.557L140.821 21.6458L139.906 19.8672ZM142.602 18.0312L143.899 19.5529L143.908 19.5459L143.916 19.5388L142.602 18.0312ZM144.633 15.4922L142.884 14.5209L142.831 14.6172L142.788 14.7187L144.633 15.4922ZM136.73 10.2988C140.735 9.09985 143.869 8.54688 146.195 8.54688V4.54688C143.313 4.54688 139.755 5.21786 135.583 6.46682L136.73 10.2988ZM146.195 8.54688C147.784 8.54688 148.611 8.835 148.992 9.10216C149.238 9.27458 149.437 9.51937 149.43 10.1975L153.43 10.24C153.448 8.47021 152.788 6.87907 151.289 5.82753C149.925 4.87073 148.122 4.54688 146.195 4.54688V8.54688ZM149.43 10.2039C149.41 12.8329 147.75 15.8546 143.535 19.2466L146.043 22.3628C150.63 18.6714 153.397 14.6358 153.43 10.2336L149.43 10.2039ZM142.912 21.4961C143.328 22.625 144.911 25.8722 147.537 31.0457L151.104 29.2356C148.417 23.9403 146.979 20.9636 146.666 20.1133L142.912 21.4961ZM147.964 28.671C146.625 29.9066 144.593 31.7315 141.861 34.1513L144.514 37.1456C147.25 34.7216 149.307 32.8746 150.677 31.6102L147.964 28.671ZM145.052 34.9255L140.873 24.1443L137.143 25.5901L141.323 36.3714L145.052 34.9255ZM139.008 22.8672H138.969V26.8672H139.008V22.8672ZM137.001 24.5068C136.369 27.9576 135.893 31.1578 135.574 34.1053L139.551 34.5353C139.857 31.7016 140.318 28.5997 140.936 25.2276L137.001 24.5068ZM137.026 32.3936L130.854 34.1124L131.927 37.9657L138.099 36.247L137.026 32.3936ZM133.382 36.2201C133.424 35.7574 133.689 34.1349 134.218 31.1984L130.282 30.4891C129.769 33.3338 129.461 35.1749 129.399 35.858L133.382 36.2201ZM134.22 31.1864L138.127 8.72549L134.186 8.04013L130.28 30.5011L134.22 31.1864ZM139.145 14.0429C138.901 14.9638 138.684 15.8853 138.494 16.8076L142.412 17.6142C142.587 16.7657 142.787 15.9164 143.012 15.0665L139.145 14.0429ZM138.494 16.8076L137.947 19.4639L141.865 20.2705L142.412 17.6142L138.494 16.8076ZM140.821 21.6458C141.887 21.0977 142.912 20.395 143.899 19.5529L141.304 16.5096C140.52 17.1779 139.749 17.6992 138.992 18.0886L140.821 21.6458ZM143.916 19.5388C145.049 18.5505 145.974 17.4662 146.477 16.2656L142.788 14.7187C142.615 15.1328 142.185 15.7412 141.287 16.5237L143.916 19.5388ZM146.381 16.4635C146.63 16.0151 146.828 15.4603 146.828 14.8281H142.828C142.828 14.6127 142.896 14.5005 142.884 14.5209L146.381 16.4635ZM146.828 14.8281C146.828 14.0622 146.547 13.192 145.754 12.5902C145.065 12.0676 144.269 11.9688 143.695 11.9688V15.9688C143.877 15.9688 143.647 16.0131 143.336 15.777C143.162 15.645 143.017 15.4641 142.926 15.2567C142.84 15.0611 142.828 14.9022 142.828 14.8281H146.828ZM143.695 11.9688C142.751 11.9688 141.619 12.2572 140.433 12.6617L141.723 16.4477C142.829 16.0709 143.442 15.9688 143.695 15.9688V11.9688ZM168.852 10.0625L166.978 10.7613L166.98 10.7681L168.852 10.0625ZM168.93 21.2344L170.863 21.7454L170.865 21.738L170.867 21.7306L168.93 21.2344ZM163.93 31.3125L162.346 30.0911L162.346 30.0915L163.93 31.3125ZM148.812 32.3281L146.943 33.0374L146.944 33.0408L148.812 32.3281ZM148.812 21.2344L150.746 21.7468L150.747 21.742L148.812 21.2344ZM153.773 11.1172L152.185 9.90147L152.183 9.90429L153.773 11.1172ZM157.211 18.6562L158.889 19.7437L158.895 19.7351L158.901 19.7264L157.211 18.6562ZM154.711 24.0859L152.778 23.5742L152.774 23.5875L152.771 23.6009L154.711 24.0859ZM155.141 29.2422L153.555 30.4616L153.564 30.4734L153.574 30.485L155.141 29.2422ZM161.586 28.0703L159.998 26.8542L159.996 26.8574L161.586 28.0703ZM163.617 23.7344L161.678 23.2432L161.677 23.2493L163.617 23.7344ZM163.93 17.9531L165.907 17.6551L165.905 17.6397L165.902 17.6243L163.93 17.9531ZM162.992 7.45312C163.976 7.45312 164.706 7.71734 165.291 8.17738C165.9 8.65694 166.493 9.4616 166.978 10.7613L170.726 9.36374C170.064 7.59048 169.107 6.09046 167.764 5.03356C166.396 3.95714 164.768 3.45312 162.992 3.45312V7.45312ZM166.98 10.7681C167.485 12.1057 167.75 13.6082 167.75 15.2969H171.75C171.75 13.1835 171.417 11.1963 170.723 9.35689L166.98 10.7681ZM167.75 15.2969C167.75 16.9219 167.506 18.7324 166.992 20.7382L170.867 21.7306C171.447 19.4656 171.75 17.3177 171.75 15.2969H167.75ZM166.996 20.7233C166.103 24.1039 164.558 27.223 162.346 30.0911L165.513 32.5339C168.041 29.2561 169.83 25.6565 170.863 21.7454L166.996 20.7233ZM162.346 30.0915C159.65 33.5887 157.11 34.9375 154.75 34.9375V38.9375C158.849 38.9375 162.428 36.5363 165.514 32.5335L162.346 30.0915ZM154.75 34.9375C153.748 34.9375 153.002 34.6706 152.402 34.2053C151.779 33.7218 151.176 32.914 150.681 31.6155L146.944 33.0408C147.62 34.8151 148.593 36.3121 149.949 37.365C151.329 38.4362 152.965 38.9375 154.75 38.9375V34.9375ZM150.682 31.6188C150.208 30.3683 149.953 28.921 149.953 27.25H145.953C145.953 29.329 146.271 31.2671 146.943 33.0374L150.682 31.6188ZM149.953 27.25C149.953 25.6056 150.208 23.7747 150.746 21.7468L146.879 20.7219C146.271 23.017 145.953 25.1964 145.953 27.25H149.953ZM150.747 21.742C151.642 18.3303 153.177 15.1968 155.364 12.3301L152.183 9.90429C149.682 13.1834 147.91 16.7947 146.878 20.7267L150.747 21.742ZM155.362 12.3329C158.056 8.8134 160.608 7.45312 162.992 7.45312V3.45312C158.866 3.45312 155.272 5.86889 152.185 9.90147L155.362 12.3329ZM161.586 13.1406C159.025 13.1406 157.046 15.1785 155.521 17.5861L158.901 19.7264C160.344 17.4465 161.282 17.1406 161.586 17.1406V13.1406ZM155.532 17.5688C154.242 19.5602 153.31 21.5626 152.778 23.5742L156.644 24.5977C157.049 23.0676 157.784 21.4502 158.889 19.7437L155.532 17.5688ZM152.771 23.6009C152.507 24.6552 152.359 25.6682 152.359 26.625H156.359C156.359 26.0714 156.446 25.3916 156.651 24.571L152.771 23.6009ZM152.359 26.625C152.359 28.0216 152.704 29.3553 153.555 30.4616L156.726 28.0228C156.535 27.7749 156.359 27.3639 156.359 26.625H152.359ZM153.574 30.485C154.596 31.7744 156.037 32.375 157.641 32.375V28.375C157.108 28.375 156.883 28.2204 156.708 27.9994L153.574 30.485ZM157.641 32.375C159.914 32.375 161.759 31.141 163.176 29.2832L159.996 26.8574C159.069 28.0726 158.284 28.375 157.641 28.375V32.375ZM163.174 29.2865C164.295 27.8219 165.082 26.1209 165.557 24.2194L161.677 23.2493C161.319 24.6811 160.751 25.8708 159.998 26.8542L163.174 29.2865ZM165.556 24.2255C166.113 22.0272 166.235 19.8317 165.907 17.6551L161.952 18.2511C162.197 19.8766 162.111 21.5353 161.678 23.2432L165.556 24.2255ZM165.902 17.6243C165.718 16.5149 165.357 15.4166 164.646 14.5634C163.865 13.626 162.788 13.1406 161.586 13.1406V17.1406C161.643 17.1406 161.636 17.15 161.597 17.1323C161.558 17.1141 161.55 17.0968 161.573 17.1241C161.643 17.2084 161.829 17.5164 161.957 18.2819L165.902 17.6243ZM187.133 10.9219L188.611 12.269L189.482 11.3129L188.968 10.1262L187.133 10.9219ZM182.719 15.7656L181.275 17.1494L182.756 18.6946L184.197 17.1127L182.719 15.7656ZM176.352 18.3828L178.046 19.4448L178.047 19.4445L176.352 18.3828ZM173.969 23.8516L175.92 24.2921L175.922 24.2824L175.924 24.2727L173.969 23.8516ZM175.609 29.6328L174.7 31.4143L174.708 31.418L174.715 31.4217L175.609 29.6328ZM181.195 26.9375L183.127 26.4181L182.051 22.4195L179.588 25.7475L181.195 26.9375ZM182.445 31.5859L183.932 32.9239L184.659 32.1161L184.377 31.0666L182.445 31.5859ZM168.656 31.5859L170.489 30.786L170.484 30.7732L170.478 30.7605L168.656 31.5859ZM168.109 21.1953L170.058 21.645L170.06 21.6354L168.109 21.1953ZM172.562 11.7031L174.152 12.917L174.155 12.9127L172.562 11.7031ZM181.156 8.50781C182.125 8.50781 182.874 8.76253 183.493 9.22012C184.134 9.6934 184.76 10.4763 185.298 11.7175L188.968 10.1262C188.23 8.42476 187.221 7.00061 185.87 6.00254C184.497 4.98877 182.896 4.50781 181.156 4.50781V8.50781ZM185.655 9.57475L181.24 14.4185L184.197 17.1127L188.611 12.269L185.655 9.57475ZM184.163 14.3818C183.232 13.4101 182.037 12.8281 180.648 12.8281V16.8281C180.823 16.8281 181.008 16.8711 181.275 17.1494L184.163 14.3818ZM180.648 12.8281C179.353 12.8281 178.214 13.3897 177.264 14.1758C176.323 14.9548 175.461 16.0369 174.657 17.3211L178.047 19.4445C178.726 18.359 179.323 17.6637 179.814 17.2578C180.296 16.859 180.563 16.8281 180.648 16.8281V12.8281ZM174.657 17.3208C173.348 19.4095 172.44 21.4493 172.014 23.4305L175.924 24.2727C176.226 22.8684 176.907 21.2624 178.046 19.4448L174.657 17.3208ZM172.018 23.411C171.811 24.326 171.695 25.2062 171.695 26.0391H175.695C175.695 25.5698 175.762 24.9917 175.92 24.2921L172.018 23.411ZM171.695 26.0391C171.695 28.3384 172.596 30.3405 174.7 31.4143L176.518 27.8513C176.071 27.6231 175.695 27.2293 175.695 26.0391H171.695ZM174.715 31.4217C175.411 31.7698 176.16 31.9453 176.938 31.9453V27.9453C176.777 27.9453 176.641 27.9125 176.504 27.844L174.715 31.4217ZM176.938 31.9453C179.302 31.9453 181.242 30.2354 182.803 28.1275L179.588 25.7475C178.18 27.65 177.282 27.9453 176.938 27.9453V31.9453ZM179.264 27.4569L180.514 32.1053L184.377 31.0666L183.127 26.4181L179.264 27.4569ZM180.959 30.248C178.586 32.8846 176.467 33.8828 174.594 33.8828V37.8828C178.033 37.8828 181.149 36.0164 183.932 32.9239L180.959 30.248ZM174.594 33.8828C173.613 33.8828 172.862 33.6309 172.251 33.1884C171.621 32.7326 171.011 31.9807 170.489 30.786L166.823 32.3858C167.552 34.0558 168.556 35.4523 169.906 36.4288C171.273 37.4185 172.866 37.8828 174.594 37.8828V33.8828ZM170.478 30.7605C169.854 29.3836 169.523 27.8081 169.523 26H165.523C165.523 28.3065 165.948 30.4549 166.835 32.4114L170.478 30.7605ZM169.523 26C169.523 24.6615 169.697 23.2118 170.058 21.645L166.161 20.7456C165.741 22.5643 165.523 24.3176 165.523 26H169.523ZM170.06 21.6354C170.777 18.4571 172.137 15.5562 174.152 12.917L170.973 10.4893C168.613 13.5792 167.004 17.0064 166.158 20.7552L170.06 21.6354ZM174.155 12.9127C176.569 9.73385 178.909 8.50781 181.156 8.50781V4.50781C177.206 4.50781 173.816 6.74532 170.97 10.4936L174.155 12.9127ZM187.367 8.42188L187.001 6.45561L185.633 6.7102L185.396 8.08178L187.367 8.42188ZM194.086 7.17188L196.021 7.67761L196.818 4.62933L193.72 5.20561L194.086 7.17188ZM192.758 12.6016L190.803 12.1799L189.531 18.076L194.074 14.1078L192.758 12.6016ZM198.969 6.89844L200.06 5.22216L198.72 4.35053L197.575 5.46445L198.969 6.89844ZM203.891 10.1016L205.219 11.5968L207.179 9.85546L204.982 8.42528L203.891 10.1016ZM196.195 16.9375L194.867 15.4423L193.939 16.2665L194.266 17.4637L196.195 16.9375ZM200.531 32.8359L201.468 34.6028L202.882 33.8532L202.461 32.3097L200.531 32.8359ZM193.461 36.5859L191.495 36.951L191.992 39.6291L194.398 38.3528L193.461 36.5859ZM190.727 21.8594L192.693 21.4943L188.763 21.4812L190.727 21.8594ZM188.812 34.3203L189.346 36.2479L190.647 35.8879L190.8 34.5467L188.812 34.3203ZM182.602 36.0391L180.631 35.699L180.094 38.8081L183.135 37.9666L182.602 36.0391ZM187.733 10.3881L194.452 9.13814L193.72 5.20561L187.001 6.45561L187.733 10.3881ZM192.151 6.66614C191.549 8.96852 191.098 10.8104 190.803 12.1799L194.713 13.0232C194.99 11.7365 195.425 9.95856 196.021 7.67761L192.151 6.66614ZM194.074 14.1078C196.362 12.1086 198.459 10.1835 200.363 8.33243L197.575 5.46445C195.729 7.25925 193.685 9.13616 191.442 11.0953L194.074 14.1078ZM197.878 8.57472L202.8 11.7778L204.982 8.42528L200.06 5.22216L197.878 8.57472ZM202.562 8.60633L194.867 15.4423L197.524 18.4327L205.219 11.5968L202.562 8.60633ZM194.266 17.4637L198.602 33.3622L202.461 32.3097L198.125 16.4113L194.266 17.4637ZM199.594 31.0691L192.524 34.8191L194.398 38.3528L201.468 34.6028L199.594 31.0691ZM195.427 36.2208L192.693 21.4943L188.76 22.2245L191.495 36.951L195.427 36.2208ZM188.763 21.4812C187.946 25.7227 187.3 29.9269 186.825 34.0939L190.8 34.5467C191.262 30.4845 191.893 26.3815 192.69 22.2375L188.763 21.4812ZM188.279 32.3928L182.068 34.1115L183.135 37.9666L189.346 36.2479L188.279 32.3928ZM184.572 36.3792L189.338 8.76197L185.396 8.08178L180.631 35.699L184.572 36.3792ZM218.539 15.3359L219.241 17.2086L220.388 16.7786L220.526 15.5618L218.539 15.3359ZM215.57 16.4688L214.85 14.6032L214.849 14.6033L215.57 16.4688ZM212.641 17.6016H210.641V20.5192L213.362 19.467L212.641 17.6016ZM208.734 17.4062L207.234 16.0842L207.218 16.1024L207.202 16.121L208.734 17.4062ZM207.875 19.75L205.894 20.0233L205.896 20.0426L205.899 20.0619L207.875 19.75ZM211.312 20.2578L211.693 22.2214L211.707 22.2185L211.722 22.2154L211.312 20.2578ZM218.109 22.1719L220.062 21.738L220.058 21.7203L220.054 21.7026L218.109 22.1719ZM216.391 29.0469L214.713 27.9585L214.705 27.9698L216.391 29.0469ZM209.594 35.4141L208.578 33.691L208.573 33.694L209.594 35.4141ZM201.078 35.6484L199.232 34.8792L198.557 36.4984L200.075 37.3785L201.078 35.6484ZM204.203 28.7344L205.336 27.0863L203.395 25.7519L202.393 27.8835L204.203 28.7344ZM208.148 29.3984L207.649 27.4619L207.616 27.4703L207.584 27.4797L208.148 29.3984ZM210.453 28.5L211.398 30.263L211.407 30.2577L211.417 30.2524L210.453 28.5ZM207.211 26.2344L207.617 28.1926L207.631 28.1898L207.645 28.1867L207.211 26.2344ZM201.82 26.1172L202.967 24.4787L202.949 24.4657L202.93 24.4531L201.82 26.1172ZM200.57 22.9531L202.554 23.2056L202.556 23.1957L202.557 23.1858L200.57 22.9531ZM206.156 12.9141L207.65 14.2441L207.653 14.2409L206.156 12.9141ZM215.102 6.78125L214.973 4.7854L214.964 4.78594L214.956 4.78655L215.102 6.78125ZM217.837 13.4633C216.995 13.7788 215.999 14.1589 214.85 14.6032L216.291 18.3343C217.433 17.8932 218.416 17.5181 219.241 17.2086L217.837 13.4633ZM214.849 14.6033L211.919 15.7362L213.362 19.467L216.292 18.3342L214.849 14.6033ZM214.641 17.6016C214.641 16.8707 214.551 16.005 214.137 15.2565C213.913 14.852 213.579 14.455 213.102 14.1673C212.621 13.8776 212.105 13.7656 211.625 13.7656V17.7656C211.483 17.7656 211.264 17.7301 211.037 17.5934C210.814 17.4587 210.691 17.2912 210.637 17.1927C210.589 17.1057 210.595 17.0772 210.61 17.161C210.625 17.2406 210.641 17.382 210.641 17.6016H214.641ZM211.625 13.7656C209.846 13.7656 208.381 14.7815 207.234 16.0842L210.235 18.7283C211.015 17.8435 211.477 17.7656 211.625 17.7656V13.7656ZM207.202 16.121C206.306 17.1898 205.686 18.5198 205.894 20.0233L209.856 19.4767C209.855 19.4698 209.809 19.2373 210.267 18.6915L207.202 16.121ZM205.899 20.0619C206.051 21.021 206.655 21.718 207.41 22.0955C208.059 22.4201 208.77 22.4922 209.359 22.4922V18.4922C209.218 18.4922 209.136 18.4822 209.1 18.4761C209.063 18.4694 209.108 18.4723 209.199 18.5178C209.297 18.5665 209.452 18.6678 209.595 18.8526C209.742 19.0437 209.821 19.2537 209.851 19.4381L205.899 20.0619ZM209.359 22.4922C210.038 22.4922 210.831 22.3882 211.693 22.2214L210.932 18.2943C210.18 18.4399 209.671 18.4922 209.359 18.4922V22.4922ZM211.722 22.2154C212.749 22.0006 213.596 21.9062 214.281 21.9062V17.9062C213.248 17.9062 212.116 18.0463 210.903 18.3002L211.722 22.2154ZM214.281 21.9062C215.176 21.9062 215.644 22.0656 215.86 22.1938C216.009 22.2819 216.103 22.383 216.165 22.6412L220.054 21.7026C219.751 20.4504 219.025 19.4187 217.898 18.7515C216.838 18.1245 215.574 17.9062 214.281 17.9062V21.9062ZM216.157 22.6057C216.227 22.9206 216.266 23.2691 216.266 23.6562H220.266C220.266 23.0017 220.2 22.3607 220.062 21.738L216.157 22.6057ZM216.266 23.6562C216.266 24.8163 215.829 26.2371 214.713 27.9585L218.069 30.1353C219.452 28.0025 220.266 25.8295 220.266 23.6562H216.266ZM214.705 27.9698C213.281 30.1983 211.259 32.1111 208.578 33.691L210.609 37.1371C213.761 35.2795 216.271 32.9475 218.076 30.124L214.705 27.9698ZM208.573 33.694C207.283 34.4596 206.121 34.7812 205.062 34.7812V38.7812C206.973 38.7812 208.832 38.1915 210.614 37.1342L208.573 33.694ZM205.062 34.7812C204.099 34.7812 203.114 34.517 202.082 33.9184L200.075 37.3785C201.647 38.2903 203.318 38.7812 205.062 38.7812V34.7812ZM202.924 36.4177C203.558 34.8978 204.584 32.6259 206.013 29.5852L202.393 27.8835C200.958 30.9366 199.901 33.2741 199.232 34.8792L202.924 36.4177ZM203.07 30.3825C204.209 31.1656 205.485 31.5938 206.859 31.5938V27.5938C206.359 27.5938 205.864 27.4489 205.336 27.0863L203.07 30.3825ZM206.859 31.5938C207.486 31.5938 208.106 31.4956 208.713 31.3172L207.584 27.4797C207.305 27.5617 207.066 27.5938 206.859 27.5938V31.5938ZM208.648 31.335C209.609 31.0871 210.527 30.7296 211.398 30.263L209.509 26.737C208.921 27.0517 208.303 27.2931 207.649 27.4619L208.648 31.335ZM211.417 30.2524C212.045 29.9069 212.651 29.4872 213.12 28.9596C213.603 28.4161 214.016 27.6667 214.016 26.7422H210.016C210.016 26.5931 210.05 26.469 210.087 26.3842C210.122 26.3057 210.15 26.2798 210.13 26.3021C210.11 26.3248 210.055 26.3798 209.945 26.4615C209.836 26.5423 209.687 26.6387 209.489 26.7476L211.417 30.2524ZM214.016 26.7422C214.016 25.7543 213.548 24.8459 212.656 24.3022C211.925 23.8564 211.086 23.7656 210.414 23.7656V27.7656C210.585 27.7656 210.68 27.7792 210.716 27.7866C210.755 27.7945 210.689 27.7874 210.574 27.7174C210.446 27.6392 210.282 27.4965 210.161 27.2743C210.041 27.0558 210.016 26.8575 210.016 26.7422H214.016ZM210.414 23.7656C209.458 23.7656 208.216 23.9622 206.777 24.282L207.645 28.1867C209.018 27.8815 209.911 27.7656 210.414 27.7656V23.7656ZM206.805 24.2761C205.459 24.5554 204.566 24.6641 204.047 24.6641V28.6641C204.986 28.6641 206.203 28.4862 207.617 28.1926L206.805 24.2761ZM204.047 24.6641C203.295 24.6641 203.019 24.5152 202.967 24.4787L200.673 27.7557C201.663 28.4483 202.872 28.6641 204.047 28.6641V24.6641ZM202.93 24.4531C202.734 24.3224 202.653 24.2025 202.606 24.0835C202.551 23.9439 202.494 23.6768 202.554 23.2056L198.586 22.7006C198.464 23.6617 198.524 24.6382 198.886 25.5532C199.256 26.4889 199.891 27.2349 200.711 27.7813L202.93 24.4531ZM202.557 23.1858C202.823 20.9082 204.357 17.9427 207.65 14.2441L204.663 11.5841C201.185 15.4896 198.994 19.2168 198.584 22.7205L202.557 23.1858ZM207.653 14.2409C209.32 12.361 210.81 10.9998 212.121 10.1007C213.441 9.19556 214.473 8.8324 215.247 8.77595L214.956 4.78655C213.23 4.91239 211.521 5.66252 209.859 6.80162C208.189 7.94682 206.456 9.56092 204.66 11.5872L207.653 14.2409ZM215.23 8.7771C215.821 8.73898 216 8.89729 216.16 9.1379C216.44 9.55864 216.734 10.4866 216.734 12.25H220.734C220.734 10.2113 220.424 8.32678 219.492 6.9246C218.441 5.34229 216.804 4.66727 214.973 4.7854L215.23 8.7771ZM216.734 12.25C216.734 13.0693 216.676 14.0206 216.552 15.1101L220.526 15.5618C220.663 14.3596 220.734 13.2536 220.734 12.25H216.734ZM236.391 6.78125L238.39 6.84573L238.464 4.52829L236.161 4.79447L236.391 6.78125ZM236.156 14.0469L236.27 16.0436L238.096 15.9393L238.155 14.1114L236.156 14.0469ZM230.961 14.4375L230.771 12.4465L229.347 12.5822L229.015 13.9739L230.961 14.4375ZM227.484 34.3203L227.988 36.2558L229.337 35.9046L229.475 34.5176L227.484 34.3203ZM220.883 36.0391L218.912 35.6983L218.383 38.7565L221.387 37.9745L220.883 36.0391ZM224.477 15.2578L226.447 15.5986L226.918 12.8742L224.183 13.2794L224.477 15.2578ZM222.367 15.6094L222.003 13.6428L221.996 13.6441L222.367 15.6094ZM220.297 16L218.301 16.1281L218.446 18.3846L220.668 17.9653L220.297 16ZM219.828 8.69531L219.599 6.70854L217.711 6.92672L217.832 8.82339L219.828 8.69531ZM234.392 6.71677L234.157 13.9824L238.155 14.1114L238.39 6.84573L234.392 6.71677ZM236.042 12.0501C234.197 12.1556 232.44 12.2876 230.771 12.4465L231.151 16.4285C232.764 16.2749 234.47 16.1465 236.27 16.0436L236.042 12.0501ZM229.015 13.9739C227.28 21.2567 226.104 27.9746 225.494 34.123L229.475 34.5176C230.063 28.5826 231.204 22.0454 232.906 14.9011L229.015 13.9739ZM226.98 32.3848L220.379 34.1036L221.387 37.9745L227.988 36.2558L226.98 32.3848ZM222.854 36.3799L226.447 15.5986L222.506 14.917L218.912 35.6983L222.854 36.3799ZM224.183 13.2794C223.456 13.3871 222.73 13.5083 222.003 13.6428L222.731 17.5759C223.411 17.4501 224.09 17.3368 224.77 17.2362L224.183 13.2794ZM221.996 13.6441L219.926 14.0347L220.668 17.9653L222.738 17.5747L221.996 13.6441ZM222.293 15.8719L221.824 8.56723L217.832 8.82339L218.301 16.1281L222.293 15.8719ZM220.058 10.6821L236.62 8.76803L236.161 4.79447L219.599 6.70854L220.058 10.6821ZM228.422 36.5078L226.56 35.7779L225.294 39.0076L228.723 38.485L228.422 36.5078ZM237.719 8.26562L237.388 6.29319L236.111 6.50735L235.784 7.75965L237.719 8.26562ZM249.594 6.27344L251.565 6.61173L252.041 3.83485L249.263 4.301L249.594 6.27344ZM247.758 34.2812L248.208 36.2299L249.777 35.8673L249.758 34.2571L247.758 34.2812ZM239.477 36.1953L237.491 35.957L237.151 38.7855L239.927 38.1439L239.477 36.1953ZM240.062 31.3125L242.048 31.5508L242.375 28.8265L239.682 29.3491L240.062 31.3125ZM237.445 31.8203L237.064 29.8569L235.799 30.1024L235.5 31.3561L237.445 31.8203ZM236.625 35.2578L236.926 37.235L238.258 37.0321L238.57 35.722L236.625 35.2578ZM240.688 26.0781L241.049 28.0452L242.495 27.7796L242.673 26.3197L240.688 26.0781ZM242.484 11.3125L244.47 11.5541L244.743 9.3125H242.484V11.3125ZM242.445 11.3125V9.3125H240.873L240.502 10.8404L242.445 11.3125ZM238.773 26.4297L236.83 25.9576L236.102 28.9538L239.135 28.3968L238.773 26.4297ZM230.284 37.2377C234.137 27.4075 237.262 17.9185 239.654 8.7716L235.784 7.75965C233.436 16.7378 230.363 26.0769 226.56 35.7779L230.284 37.2377ZM238.05 10.2381L249.925 8.24587L249.263 4.301L237.388 6.29319L238.05 10.2381ZM247.623 5.93515C246.242 13.9784 245.627 23.4415 245.758 34.3054L249.758 34.2571C249.628 23.5585 250.237 14.3497 251.565 6.61173L247.623 5.93515ZM247.307 32.3326L239.026 34.2467L239.927 38.1439L248.208 36.2299L247.307 32.3326ZM241.462 36.4336L242.048 31.5508L238.077 31.0742L237.491 35.957L241.462 36.4336ZM239.682 29.3491L237.064 29.8569L237.826 33.7837L240.443 33.2759L239.682 29.3491ZM235.5 31.3561L234.68 34.7936L238.57 35.722L239.391 32.2845L235.5 31.3561ZM236.324 33.2806L228.121 34.5306L228.723 38.485L236.926 37.235L236.324 33.2806ZM242.673 26.3197L244.47 11.5541L240.499 11.0709L238.702 25.8365L242.673 26.3197ZM242.484 9.3125H242.445V13.3125H242.484V9.3125ZM240.502 10.8404L236.83 25.9576L240.717 26.9017L244.389 11.7846L240.502 10.8404ZM239.135 28.3968L241.049 28.0452L240.326 24.111L238.412 24.4626L239.135 28.3968ZM251.977 8.38281L251.403 6.46682L250.218 6.82155L250.006 8.04013L251.977 8.38281ZM267.25 10.2188L265.25 10.1975L265.25 10.2039L267.25 10.2188ZM260.609 20.8047L259.355 19.2466L258.236 20.1476L258.733 21.4961L260.609 20.8047ZM265.141 30.1406L266.497 31.6102L267.609 30.5843L266.924 29.2356L265.141 30.1406ZM259.008 35.6484L257.143 36.3714L258.182 39.0515L260.334 37.1456L259.008 35.6484ZM254.828 24.8672L256.693 24.1443L256.198 22.8672H254.828V24.8672ZM254.789 24.8672V22.8672H253.122L252.822 24.5068L254.789 24.8672ZM253.383 34.3203L253.919 36.247L255.225 35.8833L255.371 34.5353L253.383 34.3203ZM247.211 36.0391L245.219 35.858L244.957 38.7429L247.747 37.9657L247.211 36.0391ZM248.07 30.8438L250.039 31.1984L250.041 31.1864L248.07 30.8438ZM256.898 14.5547L256.253 12.6617L255.239 13.0073L254.965 14.0429L256.898 14.5547ZM256.273 17.2109L258.232 17.6142L256.273 17.2109ZM255.727 19.8672L253.768 19.4639L252.925 23.557L256.641 21.6458L255.727 19.8672ZM258.422 18.0312L259.72 19.5529L259.728 19.5459L259.736 19.5388L258.422 18.0312ZM260.453 15.4922L258.705 14.5209L258.651 14.6172L258.609 14.7187L260.453 15.4922ZM252.55 10.2988C256.555 9.09985 259.69 8.54688 262.016 8.54688V4.54688C259.133 4.54688 255.575 5.21786 251.403 6.46682L252.55 10.2988ZM262.016 8.54688C263.605 8.54688 264.432 8.835 264.812 9.10216C265.058 9.27458 265.257 9.51937 265.25 10.1975L269.25 10.24C269.269 8.47021 268.609 6.87907 267.11 5.82753C265.746 4.87073 263.942 4.54688 262.016 4.54688V8.54688ZM265.25 10.2039C265.231 12.8329 263.57 15.8546 259.355 19.2466L261.863 22.3628C266.45 18.6714 269.217 14.6358 269.25 10.2336L265.25 10.2039ZM258.733 21.4961C259.149 22.625 260.732 25.8722 263.357 31.0457L266.924 29.2356C264.237 23.9403 262.799 20.9636 262.486 20.1133L258.733 21.4961ZM263.784 28.671C262.446 29.9066 260.414 31.7315 257.682 34.1513L260.334 37.1456C263.071 34.7216 265.127 32.8746 266.497 31.6102L263.784 28.671ZM260.873 34.9255L256.693 24.1443L252.963 25.5901L257.143 36.3714L260.873 34.9255ZM254.828 22.8672H254.789V26.8672H254.828V22.8672ZM252.822 24.5068C252.19 27.9576 251.713 31.1578 251.394 34.1053L255.371 34.5353C255.678 31.7016 256.139 28.5997 256.756 25.2276L252.822 24.5068ZM252.846 32.3936L246.674 34.1124L247.747 37.9657L253.919 36.247L252.846 32.3936ZM249.203 36.2201C249.245 35.7574 249.51 34.1349 250.039 31.1984L246.102 30.4891C245.589 33.3338 245.281 35.1749 245.219 35.858L249.203 36.2201ZM250.041 31.1864L253.947 8.72549L250.006 8.04013L246.1 30.5011L250.041 31.1864ZM254.965 14.0429C254.721 14.9638 254.504 15.8853 254.315 16.8076L258.232 17.6142C258.407 16.7657 258.607 15.9164 258.832 15.0665L254.965 14.0429ZM254.315 16.8076L253.768 19.4639L257.685 20.2705L258.232 17.6142L254.315 16.8076ZM256.641 21.6458C257.707 21.0977 258.732 20.395 259.72 19.5529L257.124 16.5096C256.34 17.1779 255.569 17.6992 254.812 18.0886L256.641 21.6458ZM259.736 19.5388C260.87 18.5505 261.794 17.4662 262.298 16.2656L258.609 14.7187C258.435 15.1328 258.005 15.7412 257.108 16.5237L259.736 19.5388ZM262.201 16.4635C262.451 16.0151 262.648 15.4603 262.648 14.8281H258.648C258.648 14.6127 258.716 14.5005 258.705 14.5209L262.201 16.4635ZM262.648 14.8281C262.648 14.0622 262.367 13.192 261.574 12.5902C260.885 12.0676 260.089 11.9688 259.516 11.9688V15.9688C259.697 15.9688 259.468 16.0131 259.156 15.777C258.982 15.645 258.838 15.4641 258.747 15.2567C258.661 15.0611 258.648 14.9022 258.648 14.8281H262.648ZM259.516 11.9688C258.571 11.9688 257.439 12.2572 256.253 12.6617L257.544 16.4477C258.649 16.0709 259.262 15.9688 259.516 15.9688V11.9688ZM268.656 29.6328L268.915 31.616L268.927 31.6144L268.939 31.6127L268.656 29.6328ZM271.078 30.0234L270.107 31.7718L270.145 31.7929L270.184 31.8123L271.078 30.0234ZM270.414 35.2578L269.188 33.6774L269.182 33.6827L269.175 33.688L270.414 35.2578ZM267.172 36.6641L266.908 34.6816L266.897 34.6831L267.172 36.6641ZM264.75 36.3516L263.833 38.1288L263.844 38.1347L263.856 38.1404L264.75 36.3516ZM265.375 31.0781L264.111 29.5284L264.104 29.5337L264.098 29.539L265.375 31.0781ZM273.07 5.33594L273.401 3.36341L271.638 3.06826L271.147 4.7865L273.07 5.33594ZM281.234 6.70312L282.982 7.6764L284.362 5.19898L281.565 4.73059L281.234 6.70312ZM276.469 15.8047L274.655 14.9625L274.652 14.9676L276.469 15.8047ZM272.797 25.5312L272.711 27.5294L274.257 27.5961L274.709 26.1164L272.797 25.5312ZM267.367 25.2969L265.444 24.7474L264.748 27.1857L267.281 27.295L267.367 25.2969ZM268.939 31.6127C269.484 31.5349 269.839 31.6231 270.107 31.7718L272.049 28.2751C270.911 27.6426 269.652 27.4703 268.373 27.6529L268.939 31.6127ZM270.184 31.8123C270.266 31.8533 270.308 31.8856 270.326 31.9006C270.342 31.9144 270.339 31.9155 270.331 31.9023C270.322 31.8887 270.319 31.8782 270.32 31.8799C270.321 31.8834 270.328 31.9124 270.328 31.9766H274.328C274.328 31.2087 274.143 30.4383 273.7 29.7461C273.261 29.0598 272.645 28.571 271.973 28.2346L270.184 31.8123ZM270.328 31.9766C270.328 32.3571 270.158 32.9251 269.188 33.6774L271.64 36.8383C273.222 35.6114 274.328 33.9918 274.328 31.9766H270.328ZM269.175 33.688C268.448 34.262 267.699 34.576 266.908 34.6816L267.436 38.6465C268.988 38.4396 270.401 37.8161 271.653 36.8276L269.175 33.688ZM266.897 34.6831C266.259 34.7717 265.879 34.6798 265.644 34.5627L263.856 38.1404C264.975 38.7004 266.21 38.8169 267.447 38.645L266.897 34.6831ZM265.667 34.5743C265.594 34.5363 265.557 34.5072 265.543 34.495C265.531 34.484 265.534 34.4845 265.542 34.4969C265.549 34.5095 265.551 34.517 265.549 34.5104C265.547 34.5019 265.539 34.4676 265.539 34.3984H261.539C261.539 35.1544 261.715 35.9159 262.142 36.6047C262.567 37.2906 263.168 37.7857 263.833 38.1288L265.667 34.5743ZM265.539 34.3984C265.539 33.9762 265.726 33.3857 266.652 32.6172L264.098 29.539C262.576 30.8018 261.539 32.4248 261.539 34.3984H265.539ZM266.639 32.6279C267.358 32.0417 268.107 31.7213 268.915 31.616L268.398 27.6496C266.809 27.8568 265.371 28.4999 264.111 29.5284L266.639 32.6279ZM272.74 7.30847L280.904 8.67566L281.565 4.73059L273.401 3.36341L272.74 7.30847ZM279.487 5.72985C277.318 9.62374 275.701 12.708 274.655 14.9625L278.283 16.6469C279.267 14.5264 280.828 11.5429 282.982 7.6764L279.487 5.72985ZM274.652 14.9676C273.231 18.0522 271.976 21.3794 270.884 24.9461L274.709 26.1164C275.753 22.7039 276.946 19.5468 278.285 16.6418L274.652 14.9676ZM272.883 23.5331L267.453 23.2987L267.281 27.295L272.711 27.5294L272.883 23.5331ZM269.29 25.8463L274.993 5.88538L271.147 4.7865L265.444 24.7474L269.29 25.8463Z" fill="#F7931E" mask="url(#path-1-outside-1_2878_7719)"/>
</svg>
