<svg width="249" height="43" viewBox="0 0 249 43" fill="none" xmlns="http://www.w3.org/2000/svg">
<mask id="path-1-outside-1_2878_7725" maskUnits="userSpaceOnUse" x="7" y="2" width="240" height="38" fill="black">
<rect fill="white" x="7" y="2" width="240" height="38"/>
<path d="M23.4648 7.83594L29.7539 8.92969C24.1289 18.7995 19.6758 27.7318 16.3945 35.7266L10.3789 35.3359L14.5195 26.625L11.2383 10.9219L18.8555 7.40625C18.7773 8.60417 18.7253 10.1016 18.6992 11.8984C18.6732 13.6953 18.7643 15.4922 18.9727 17.2891L23.4648 7.83594ZM39.207 5.45312C41.9674 5.45312 43.9206 6.98958 45.0664 10.0625C45.6654 11.651 45.9648 13.3958 45.9648 15.2969C45.9648 17.1198 45.6914 19.099 45.1445 21.2344C44.181 24.8802 42.5143 28.2396 40.1445 31.3125C37.2539 35.0625 34.194 36.9375 30.9648 36.9375C28.1784 36.9375 26.1992 35.401 25.0273 32.3281C24.4544 30.8177 24.168 29.125 24.168 27.25C24.168 25.401 24.4544 23.3958 25.0273 21.2344C25.9909 17.5625 27.6445 14.1901 29.9883 11.1172C32.8789 7.34115 35.9518 5.45312 39.207 5.45312ZM37.8008 15.1406C36.3685 15.1406 34.9102 16.3125 33.4258 18.6562C32.2279 20.5052 31.3945 22.3151 30.9258 24.0859C30.6914 25.0234 30.5742 25.8698 30.5742 26.625C30.5742 27.6927 30.8346 28.5651 31.3555 29.2422C31.9544 29.9974 32.7878 30.375 33.8555 30.375C35.3138 30.375 36.6289 29.6068 37.8008 28.0703C38.7383 26.8464 39.4154 25.401 39.832 23.7344C40.3268 21.7812 40.431 19.8542 40.1445 17.9531C39.832 16.0781 39.0508 15.1406 37.8008 15.1406ZM48.1133 8.42188L54.793 7.17188C52.9961 13.9948 51.668 20.1146 50.8086 25.5312L54.5195 23.9688L57.2539 8.42188L63.9336 7.17188C61.2253 17.849 59.4674 26.8984 58.6602 34.3203L52.4102 36.0391L53.1914 31.7031C51.0039 32.6667 47.6966 34.112 43.2695 36.0391L48.1133 8.42188ZM74.3242 4.47656C72.6576 9.00781 71.4987 13.1224 70.8477 16.8203L63.3086 17.9922L67.0977 5.02344L74.3242 4.47656ZM90.6914 7.17188C87.5924 15.6615 84.819 24.763 82.3711 34.4766L71.9805 36.3516C72.6315 32.6536 73.0352 28.1484 73.1914 22.8359C73.2695 18.3047 73.3477 13.7734 73.4258 9.24219L81.2383 7.48438L77.8789 32.4062H77.918L83.6211 8.46094L90.6914 7.17188ZM95.1445 14.2422C94.9362 14.9974 94.7539 15.7396 94.5977 16.4688L94.168 18.6172L100.418 17.2891L100.066 22.6797C97.0977 23.2005 94.7669 23.6562 93.0742 24.0469C92.9701 24.5677 92.8789 25.0885 92.8008 25.6094L92.5273 27.1328L99.793 26.0781L99.2852 33.3438C95.5352 33.6562 90.7826 34.5547 85.0273 36.0391L89.6758 8.03125L102.684 6.15625L102.176 13.3828C99.6237 13.6172 97.2799 13.9036 95.1445 14.2422ZM114.559 36.9375C111.798 36.9375 109.845 35.4531 108.699 32.4844C108.1 31 107.801 29.3333 107.801 27.4844C107.801 25.7396 108.074 23.8255 108.621 21.7422C109.533 18.1745 111.16 14.9062 113.504 11.9375C116.342 8.31771 119.363 6.50781 122.566 6.50781C125.353 6.50781 127.319 8.04427 128.465 11.1172L124.129 15.7656C123.66 15.0625 122.97 14.7109 122.059 14.7109C120.288 14.7109 118.621 15.9349 117.059 18.3828C115.887 20.2318 115.014 22.276 114.441 24.5156C114.207 25.401 114.09 26.1953 114.09 26.8984C114.09 27.9661 114.363 28.8255 114.91 29.4766C115.509 30.2057 116.342 30.5703 117.41 30.5703C118.634 30.5703 119.767 30.0104 120.809 28.8906C121.642 28.0052 122.319 26.8854 122.84 25.5312C120.913 25.9219 119.129 26.3255 117.488 26.7422L118.738 20.9609L129.09 18.7734C129.142 20.4661 128.777 22.4062 127.996 24.5938C127.293 26.5208 126.421 28.2917 125.379 29.9062C122.332 34.5938 118.725 36.9375 114.559 36.9375ZM141.98 5.45312C144.741 5.45312 146.694 6.98958 147.84 10.0625C148.439 11.651 148.738 13.3958 148.738 15.2969C148.738 17.1198 148.465 19.099 147.918 21.2344C146.954 24.8802 145.288 28.2396 142.918 31.3125C140.027 35.0625 136.967 36.9375 133.738 36.9375C130.952 36.9375 128.973 35.401 127.801 32.3281C127.228 30.8177 126.941 29.125 126.941 27.25C126.941 25.401 127.228 23.3958 127.801 21.2344C128.764 17.5625 130.418 14.1901 132.762 11.1172C135.652 7.34115 138.725 5.45312 141.98 5.45312ZM140.574 15.1406C139.142 15.1406 137.684 16.3125 136.199 18.6562C135.001 20.5052 134.168 22.3151 133.699 24.0859C133.465 25.0234 133.348 25.8698 133.348 26.625C133.348 27.6927 133.608 28.5651 134.129 29.2422C134.728 29.9974 135.561 30.375 136.629 30.375C138.087 30.375 139.402 29.6068 140.574 28.0703C141.512 26.8464 142.189 25.401 142.605 23.7344C143.1 21.7812 143.204 19.8542 142.918 17.9531C142.605 16.0781 141.824 15.1406 140.574 15.1406ZM165.027 6.78125L164.793 14.0469C162.97 14.151 161.238 14.2812 159.598 14.4375C157.879 21.651 156.72 28.2786 156.121 34.3203L149.52 36.0391L153.113 15.2578C152.41 15.362 151.707 15.4792 151.004 15.6094L148.934 16L148.465 8.69531L165.027 6.78125ZM187.02 6.78125L186.785 14.0469C184.962 14.151 183.23 14.2812 181.59 14.4375C179.871 21.651 178.712 28.2786 178.113 34.3203L171.512 36.0391L175.105 15.2578C174.402 15.362 173.699 15.4792 172.996 15.6094L170.926 16L170.457 8.69531L187.02 6.78125ZM186.902 8.42188L194.129 7.17188C192.827 12.1458 191.772 16.6771 190.965 20.7656L194.207 20.1016L196.199 8.42188L203.426 7.17188C200.665 17.8229 198.921 26.8724 198.191 34.3203L191.473 36.0391L193.27 25.4141C192.54 25.5703 191.434 25.8047 189.949 26.1172C189.454 29.3203 189.103 32.0547 188.895 34.3203L182.176 36.0391L186.902 8.42188ZM204.949 8.42188L211.668 7.17188C208.96 17.6146 207.189 26.6641 206.355 34.3203L200.145 36.0391L204.949 8.42188ZM226.785 15.3359C225.952 15.6484 224.962 16.026 223.816 16.4688L220.887 17.6016C220.887 16.3776 220.548 15.7656 219.871 15.7656C218.908 15.7656 217.944 16.3125 216.98 17.4062C216.303 18.2135 216.017 18.9948 216.121 19.75C216.199 20.2448 216.694 20.4922 217.605 20.4922C218.1 20.4922 218.751 20.4141 219.559 20.2578C220.678 20.0234 221.668 19.9062 222.527 19.9062C224.715 19.9062 225.991 20.6615 226.355 22.1719C226.46 22.6406 226.512 23.1354 226.512 23.6562C226.512 25.3229 225.887 27.1198 224.637 29.0469C223.022 31.5729 220.757 33.6953 217.84 35.4141C216.303 36.3255 214.793 36.7812 213.309 36.7812C211.954 36.7812 210.626 36.4036 209.324 35.6484C209.975 34.0859 211.017 31.7812 212.449 28.7344C213.283 29.3073 214.168 29.5938 215.105 29.5938C215.522 29.5938 215.952 29.5286 216.395 29.3984C217.202 29.1901 217.97 28.8906 218.699 28.5C219.741 27.9271 220.262 27.3411 220.262 26.7422C220.262 26.0911 219.728 25.7656 218.66 25.7656C217.931 25.7656 216.863 25.9219 215.457 26.2344C214.077 26.5208 213.022 26.6641 212.293 26.6641C211.329 26.6641 210.587 26.4818 210.066 26.1172C209.051 25.4401 208.634 24.3854 208.816 22.9531C209.155 20.0625 211.017 16.7161 214.402 12.9141C217.866 9.00781 220.848 6.96354 223.348 6.78125C225.77 6.625 226.98 8.44792 226.98 12.25C226.98 13.1615 226.915 14.1901 226.785 15.3359ZM230.77 29.6328C231.681 29.5026 232.488 29.6328 233.191 30.0234C234.025 30.4401 234.441 31.0911 234.441 31.9766C234.441 33.1745 233.803 34.2682 232.527 35.2578C231.538 36.0391 230.457 36.5078 229.285 36.6641C228.348 36.7943 227.54 36.6901 226.863 36.3516C226.056 35.9349 225.652 35.2839 225.652 34.3984C225.652 33.2005 226.264 32.0938 227.488 31.0781C228.478 30.2708 229.572 29.7891 230.77 29.6328ZM235.184 5.33594L243.348 6.70312C241.186 10.5833 239.598 13.6172 238.582 15.8047C237.202 18.7995 235.978 22.0417 234.91 25.5312L229.48 25.2969L235.184 5.33594Z"/>
</mask>
<path d="M23.4648 7.83594L29.7539 8.92969C24.1289 18.7995 19.6758 27.7318 16.3945 35.7266L10.3789 35.3359L14.5195 26.625L11.2383 10.9219L18.8555 7.40625C18.7773 8.60417 18.7253 10.1016 18.6992 11.8984C18.6732 13.6953 18.7643 15.4922 18.9727 17.2891L23.4648 7.83594ZM39.207 5.45312C41.9674 5.45312 43.9206 6.98958 45.0664 10.0625C45.6654 11.651 45.9648 13.3958 45.9648 15.2969C45.9648 17.1198 45.6914 19.099 45.1445 21.2344C44.181 24.8802 42.5143 28.2396 40.1445 31.3125C37.2539 35.0625 34.194 36.9375 30.9648 36.9375C28.1784 36.9375 26.1992 35.401 25.0273 32.3281C24.4544 30.8177 24.168 29.125 24.168 27.25C24.168 25.401 24.4544 23.3958 25.0273 21.2344C25.9909 17.5625 27.6445 14.1901 29.9883 11.1172C32.8789 7.34115 35.9518 5.45312 39.207 5.45312ZM37.8008 15.1406C36.3685 15.1406 34.9102 16.3125 33.4258 18.6562C32.2279 20.5052 31.3945 22.3151 30.9258 24.0859C30.6914 25.0234 30.5742 25.8698 30.5742 26.625C30.5742 27.6927 30.8346 28.5651 31.3555 29.2422C31.9544 29.9974 32.7878 30.375 33.8555 30.375C35.3138 30.375 36.6289 29.6068 37.8008 28.0703C38.7383 26.8464 39.4154 25.401 39.832 23.7344C40.3268 21.7812 40.431 19.8542 40.1445 17.9531C39.832 16.0781 39.0508 15.1406 37.8008 15.1406ZM48.1133 8.42188L54.793 7.17188C52.9961 13.9948 51.668 20.1146 50.8086 25.5312L54.5195 23.9688L57.2539 8.42188L63.9336 7.17188C61.2253 17.849 59.4674 26.8984 58.6602 34.3203L52.4102 36.0391L53.1914 31.7031C51.0039 32.6667 47.6966 34.112 43.2695 36.0391L48.1133 8.42188ZM74.3242 4.47656C72.6576 9.00781 71.4987 13.1224 70.8477 16.8203L63.3086 17.9922L67.0977 5.02344L74.3242 4.47656ZM90.6914 7.17188C87.5924 15.6615 84.819 24.763 82.3711 34.4766L71.9805 36.3516C72.6315 32.6536 73.0352 28.1484 73.1914 22.8359C73.2695 18.3047 73.3477 13.7734 73.4258 9.24219L81.2383 7.48438L77.8789 32.4062H77.918L83.6211 8.46094L90.6914 7.17188ZM95.1445 14.2422C94.9362 14.9974 94.7539 15.7396 94.5977 16.4688L94.168 18.6172L100.418 17.2891L100.066 22.6797C97.0977 23.2005 94.7669 23.6562 93.0742 24.0469C92.9701 24.5677 92.8789 25.0885 92.8008 25.6094L92.5273 27.1328L99.793 26.0781L99.2852 33.3438C95.5352 33.6562 90.7826 34.5547 85.0273 36.0391L89.6758 8.03125L102.684 6.15625L102.176 13.3828C99.6237 13.6172 97.2799 13.9036 95.1445 14.2422ZM114.559 36.9375C111.798 36.9375 109.845 35.4531 108.699 32.4844C108.1 31 107.801 29.3333 107.801 27.4844C107.801 25.7396 108.074 23.8255 108.621 21.7422C109.533 18.1745 111.16 14.9062 113.504 11.9375C116.342 8.31771 119.363 6.50781 122.566 6.50781C125.353 6.50781 127.319 8.04427 128.465 11.1172L124.129 15.7656C123.66 15.0625 122.97 14.7109 122.059 14.7109C120.288 14.7109 118.621 15.9349 117.059 18.3828C115.887 20.2318 115.014 22.276 114.441 24.5156C114.207 25.401 114.09 26.1953 114.09 26.8984C114.09 27.9661 114.363 28.8255 114.91 29.4766C115.509 30.2057 116.342 30.5703 117.41 30.5703C118.634 30.5703 119.767 30.0104 120.809 28.8906C121.642 28.0052 122.319 26.8854 122.84 25.5312C120.913 25.9219 119.129 26.3255 117.488 26.7422L118.738 20.9609L129.09 18.7734C129.142 20.4661 128.777 22.4062 127.996 24.5938C127.293 26.5208 126.421 28.2917 125.379 29.9062C122.332 34.5938 118.725 36.9375 114.559 36.9375ZM141.98 5.45312C144.741 5.45312 146.694 6.98958 147.84 10.0625C148.439 11.651 148.738 13.3958 148.738 15.2969C148.738 17.1198 148.465 19.099 147.918 21.2344C146.954 24.8802 145.288 28.2396 142.918 31.3125C140.027 35.0625 136.967 36.9375 133.738 36.9375C130.952 36.9375 128.973 35.401 127.801 32.3281C127.228 30.8177 126.941 29.125 126.941 27.25C126.941 25.401 127.228 23.3958 127.801 21.2344C128.764 17.5625 130.418 14.1901 132.762 11.1172C135.652 7.34115 138.725 5.45312 141.98 5.45312ZM140.574 15.1406C139.142 15.1406 137.684 16.3125 136.199 18.6562C135.001 20.5052 134.168 22.3151 133.699 24.0859C133.465 25.0234 133.348 25.8698 133.348 26.625C133.348 27.6927 133.608 28.5651 134.129 29.2422C134.728 29.9974 135.561 30.375 136.629 30.375C138.087 30.375 139.402 29.6068 140.574 28.0703C141.512 26.8464 142.189 25.401 142.605 23.7344C143.1 21.7812 143.204 19.8542 142.918 17.9531C142.605 16.0781 141.824 15.1406 140.574 15.1406ZM165.027 6.78125L164.793 14.0469C162.97 14.151 161.238 14.2812 159.598 14.4375C157.879 21.651 156.72 28.2786 156.121 34.3203L149.52 36.0391L153.113 15.2578C152.41 15.362 151.707 15.4792 151.004 15.6094L148.934 16L148.465 8.69531L165.027 6.78125ZM187.02 6.78125L186.785 14.0469C184.962 14.151 183.23 14.2812 181.59 14.4375C179.871 21.651 178.712 28.2786 178.113 34.3203L171.512 36.0391L175.105 15.2578C174.402 15.362 173.699 15.4792 172.996 15.6094L170.926 16L170.457 8.69531L187.02 6.78125ZM186.902 8.42188L194.129 7.17188C192.827 12.1458 191.772 16.6771 190.965 20.7656L194.207 20.1016L196.199 8.42188L203.426 7.17188C200.665 17.8229 198.921 26.8724 198.191 34.3203L191.473 36.0391L193.27 25.4141C192.54 25.5703 191.434 25.8047 189.949 26.1172C189.454 29.3203 189.103 32.0547 188.895 34.3203L182.176 36.0391L186.902 8.42188ZM204.949 8.42188L211.668 7.17188C208.96 17.6146 207.189 26.6641 206.355 34.3203L200.145 36.0391L204.949 8.42188ZM226.785 15.3359C225.952 15.6484 224.962 16.026 223.816 16.4688L220.887 17.6016C220.887 16.3776 220.548 15.7656 219.871 15.7656C218.908 15.7656 217.944 16.3125 216.98 17.4062C216.303 18.2135 216.017 18.9948 216.121 19.75C216.199 20.2448 216.694 20.4922 217.605 20.4922C218.1 20.4922 218.751 20.4141 219.559 20.2578C220.678 20.0234 221.668 19.9062 222.527 19.9062C224.715 19.9062 225.991 20.6615 226.355 22.1719C226.46 22.6406 226.512 23.1354 226.512 23.6562C226.512 25.3229 225.887 27.1198 224.637 29.0469C223.022 31.5729 220.757 33.6953 217.84 35.4141C216.303 36.3255 214.793 36.7812 213.309 36.7812C211.954 36.7812 210.626 36.4036 209.324 35.6484C209.975 34.0859 211.017 31.7812 212.449 28.7344C213.283 29.3073 214.168 29.5938 215.105 29.5938C215.522 29.5938 215.952 29.5286 216.395 29.3984C217.202 29.1901 217.97 28.8906 218.699 28.5C219.741 27.9271 220.262 27.3411 220.262 26.7422C220.262 26.0911 219.728 25.7656 218.66 25.7656C217.931 25.7656 216.863 25.9219 215.457 26.2344C214.077 26.5208 213.022 26.6641 212.293 26.6641C211.329 26.6641 210.587 26.4818 210.066 26.1172C209.051 25.4401 208.634 24.3854 208.816 22.9531C209.155 20.0625 211.017 16.7161 214.402 12.9141C217.866 9.00781 220.848 6.96354 223.348 6.78125C225.77 6.625 226.98 8.44792 226.98 12.25C226.98 13.1615 226.915 14.1901 226.785 15.3359ZM230.77 29.6328C231.681 29.5026 232.488 29.6328 233.191 30.0234C234.025 30.4401 234.441 31.0911 234.441 31.9766C234.441 33.1745 233.803 34.2682 232.527 35.2578C231.538 36.0391 230.457 36.5078 229.285 36.6641C228.348 36.7943 227.54 36.6901 226.863 36.3516C226.056 35.9349 225.652 35.2839 225.652 34.3984C225.652 33.2005 226.264 32.0938 227.488 31.0781C228.478 30.2708 229.572 29.7891 230.77 29.6328ZM235.184 5.33594L243.348 6.70312C241.186 10.5833 239.598 13.6172 238.582 15.8047C237.202 18.7995 235.978 22.0417 234.91 25.5312L229.48 25.2969L235.184 5.33594Z" fill="#FAD557"/>
<path d="M23.4648 7.83594L23.8075 5.86551L22.3106 5.60518L21.6584 6.97752L23.4648 7.83594ZM29.7539 8.92969L31.4915 9.91999L32.9009 7.44698L30.0966 6.95926L29.7539 8.92969ZM16.3945 35.7266L16.2649 37.7224L17.6991 37.8155L18.2448 36.4859L16.3945 35.7266ZM10.3789 35.3359L8.57259 34.4773L7.30661 37.1407L10.2493 37.3317L10.3789 35.3359ZM14.5195 26.625L16.3259 27.4836L16.615 26.8753L16.4772 26.2159L14.5195 26.625ZM11.2383 10.9219L10.4002 9.10596L8.95501 9.77295L9.28056 11.331L11.2383 10.9219ZM18.8555 7.40625L20.8512 7.53641L21.07 4.1814L18.0174 5.59033L18.8555 7.40625ZM18.9727 17.2891L16.986 17.5194L17.7884 24.4408L20.7791 18.1475L18.9727 17.2891ZM23.1222 9.80636L29.4112 10.9001L30.0966 6.95926L23.8075 5.86551L23.1222 9.80636ZM28.0163 7.93939C22.3612 17.862 17.8664 26.8729 14.5443 34.9672L18.2448 36.4859C21.4852 28.5906 25.8966 19.737 31.4915 9.91999L28.0163 7.93939ZM16.5241 33.7308L10.5085 33.3401L10.2493 37.3317L16.2649 37.7224L16.5241 33.7308ZM12.1852 36.1945L16.3259 27.4836L12.7132 25.7664L8.57259 34.4773L12.1852 36.1945ZM16.4772 26.2159L13.196 10.5128L9.28056 11.331L12.5618 27.0341L16.4772 26.2159ZM12.0764 12.7378L19.6936 9.22217L18.0174 5.59033L10.4002 9.10596L12.0764 12.7378ZM16.8597 7.27609C16.7786 8.51977 16.7257 10.0536 16.6994 11.8695L20.699 11.9274C20.7248 10.1495 20.7761 8.68856 20.8512 7.53641L16.8597 7.27609ZM16.6994 11.8695C16.6721 13.7535 16.7677 15.637 16.986 17.5194L20.9593 17.0587C20.7609 15.3473 20.6742 13.6371 20.699 11.9274L16.6994 11.8695ZM20.7791 18.1475L25.2713 8.69436L21.6584 6.97752L17.1662 16.4306L20.7791 18.1475ZM45.0664 10.0625L43.1924 10.7613L43.195 10.7681L45.0664 10.0625ZM45.1445 21.2344L47.0781 21.7454L47.0801 21.738L47.082 21.7306L45.1445 21.2344ZM40.1445 31.3125L38.5608 30.0911L38.5605 30.0915L40.1445 31.3125ZM25.0273 32.3281L23.1573 33.0374L23.1586 33.0408L25.0273 32.3281ZM25.0273 21.2344L26.9606 21.7468L26.9618 21.742L25.0273 21.2344ZM29.9883 11.1172L28.4002 9.90147L28.398 9.90429L29.9883 11.1172ZM33.4258 18.6562L35.1043 19.7437L35.1099 19.7351L35.1154 19.7264L33.4258 18.6562ZM30.9258 24.0859L28.9924 23.5742L28.9888 23.5875L28.9855 23.6009L30.9258 24.0859ZM31.3555 29.2422L29.7702 30.4616L29.7793 30.4734L29.7885 30.485L31.3555 29.2422ZM37.8008 28.0703L36.213 26.8542L36.2105 26.8574L37.8008 28.0703ZM39.832 23.7344L37.8933 23.2432L37.8917 23.2493L39.832 23.7344ZM40.1445 17.9531L42.1222 17.6551L42.1199 17.6397L42.1173 17.6243L40.1445 17.9531ZM39.207 7.45312C40.1913 7.45312 40.9208 7.71734 41.5056 8.17738C42.1152 8.65694 42.7078 9.4616 43.1924 10.7613L46.9404 9.36374C46.2792 7.59048 45.3223 6.09046 43.9788 5.03356C42.6104 3.95714 40.9831 3.45312 39.207 3.45312V7.45312ZM43.195 10.7681C43.6994 12.1057 43.9648 13.6082 43.9648 15.2969H47.9648C47.9648 13.1835 47.6314 11.1963 46.9378 9.35689L43.195 10.7681ZM43.9648 15.2969C43.9648 16.9219 43.7207 18.7324 43.2071 20.7382L47.082 21.7306C47.6621 19.4656 47.9648 17.3177 47.9648 15.2969H43.9648ZM43.2109 20.7233C42.3175 24.1039 40.7726 27.223 38.5608 30.0911L41.7283 32.5339C44.256 29.2561 46.0445 25.6565 47.0781 21.7454L43.2109 20.7233ZM38.5605 30.0915C35.8648 33.5887 33.3246 34.9375 30.9648 34.9375V38.9375C35.0634 38.9375 38.6431 36.5363 41.7286 32.5335L38.5605 30.0915ZM30.9648 34.9375C29.9631 34.9375 29.2164 34.6706 28.6171 34.2053C27.9942 33.7218 27.3913 32.914 26.8961 31.6155L23.1586 33.0408C23.8353 34.8151 24.8079 36.3121 26.1642 37.365C27.544 38.4362 29.1801 38.9375 30.9648 38.9375V34.9375ZM26.8973 31.6188C26.423 30.3683 26.168 28.921 26.168 27.25H22.168C22.168 29.329 22.4859 31.2671 23.1573 33.0374L26.8973 31.6188ZM26.168 27.25C26.168 25.6056 26.4231 23.7747 26.9606 21.7468L23.0941 20.7219C22.4858 23.017 22.168 25.1964 22.168 27.25H26.168ZM26.9618 21.742C27.8571 18.3303 29.392 15.1968 31.5785 12.3301L28.398 9.90429C25.897 13.1834 24.1247 16.7947 23.0928 20.7267L26.9618 21.742ZM31.5764 12.3329C34.2706 8.8134 36.8227 7.45312 39.207 7.45312V3.45312C35.0809 3.45312 31.4872 5.86889 28.4002 9.90147L31.5764 12.3329ZM37.8008 13.1406C35.2401 13.1406 33.261 15.1785 31.7361 17.5861L35.1154 19.7264C36.5593 17.4465 37.4969 17.1406 37.8008 17.1406V13.1406ZM31.7473 17.5688C30.4571 19.5602 29.5248 21.5626 28.9924 23.5742L32.8592 24.5977C33.2642 23.0676 33.9987 21.4502 35.1043 19.7437L31.7473 17.5688ZM28.9855 23.6009C28.7219 24.6552 28.5742 25.6682 28.5742 26.625H32.5742C32.5742 26.0714 32.6609 25.3916 32.8661 24.571L28.9855 23.6009ZM28.5742 26.625C28.5742 28.0216 28.9192 29.3553 29.7702 30.4616L32.9407 28.0228C32.7501 27.7749 32.5742 27.3639 32.5742 26.625H28.5742ZM29.7885 30.485C30.8111 31.7744 32.2522 32.375 33.8555 32.375V28.375C33.3233 28.375 33.0978 28.2204 32.9225 27.9994L29.7885 30.485ZM33.8555 32.375C36.1287 32.375 37.9741 31.141 39.391 29.2832L36.2105 26.8574C35.2837 28.0726 34.4989 28.375 33.8555 28.375V32.375ZM39.3885 29.2865C40.5103 27.8219 41.2969 26.1209 41.7723 24.2194L37.8917 23.2493C37.5338 24.6811 36.9662 25.8708 36.213 26.8542L39.3885 29.2865ZM41.7708 24.2255C42.3277 22.0272 42.4502 19.8317 42.1222 17.6551L38.1669 18.2511C38.4118 19.8766 38.3259 21.5353 37.8933 23.2432L41.7708 24.2255ZM42.1173 17.6243C41.9324 16.5149 41.5717 15.4166 40.8607 14.5634C40.0795 13.626 39.0027 13.1406 37.8008 13.1406V17.1406C37.8581 17.1406 37.8505 17.15 37.8123 17.1323C37.7727 17.1141 37.765 17.0968 37.7878 17.1241C37.858 17.2084 38.0442 17.5164 38.1717 18.2819L42.1173 17.6243ZM48.1133 8.42188L47.7454 6.456L46.3828 6.71099L46.1434 8.07637L48.1133 8.42188ZM54.793 7.17188L56.727 7.68122L57.532 4.62459L54.4251 5.206L54.793 7.17188ZM50.8086 25.5312L48.8333 25.2179L48.2697 28.7703L51.5847 27.3745L50.8086 25.5312ZM54.5195 23.9688L55.2956 25.812L56.3004 25.3889L56.4893 24.3152L54.5195 23.9688ZM57.2539 8.42188L56.886 6.456L55.5241 6.71086L55.2841 8.07543L57.2539 8.42188ZM63.9336 7.17188L65.8722 7.66362L66.6416 4.6304L63.5657 5.206L63.9336 7.17188ZM58.6602 34.3203L59.1905 36.2487L60.5014 35.8882L60.6484 34.5366L58.6602 34.3203ZM52.4102 36.0391L50.4419 35.6844L49.8788 38.8094L52.9405 37.9675L52.4102 36.0391ZM53.1914 31.7031L55.1597 32.0578L55.8265 28.357L52.3852 29.8728L53.1914 31.7031ZM43.2695 36.0391L41.2996 35.6936L40.657 39.3576L44.0678 37.8729L43.2695 36.0391ZM48.4812 10.3877L55.1609 9.13775L54.4251 5.206L47.7454 6.456L48.4812 10.3877ZM52.8589 6.66253C51.0496 13.5328 49.7056 19.7197 48.8333 25.2179L52.7839 25.8446C53.6303 20.5095 54.9426 14.4568 56.727 7.68122L52.8589 6.66253ZM51.5847 27.3745L55.2956 25.812L53.7434 22.1255L50.0325 23.688L51.5847 27.3745ZM56.4893 24.3152L59.2237 8.76832L55.2841 8.07543L52.5498 23.6223L56.4893 24.3152ZM57.6218 10.3877L64.3015 9.13775L63.5657 5.206L56.886 6.456L57.6218 10.3877ZM61.995 6.68013C59.2734 17.4095 57.4928 26.5569 56.6719 34.104L60.6484 34.5366C61.4421 27.2399 63.1771 18.2884 65.8722 7.66362L61.995 6.68013ZM58.1298 32.3919L51.8798 34.1107L52.9405 37.9675L59.1905 36.2487L58.1298 32.3919ZM54.3785 36.3937L55.1597 32.0578L51.2231 31.3485L50.4419 35.6844L54.3785 36.3937ZM52.3852 29.8728C50.2018 30.8345 46.8978 32.2784 42.4713 34.2053L44.0678 37.8729C48.4954 35.9455 51.806 34.4988 53.9976 33.5334L52.3852 29.8728ZM45.2395 36.3846L50.0832 8.76738L46.1434 8.07637L41.2996 35.6936L45.2395 36.3846ZM74.3242 4.47656L76.2013 5.16697L77.2751 2.24753L74.1733 2.48226L74.3242 4.47656ZM70.8477 16.8203L71.1548 18.7966L72.5692 18.5767L72.8174 17.1671L70.8477 16.8203ZM63.3086 17.9922L61.3889 17.4313L60.5064 20.4518L63.6158 19.9685L63.3086 17.9922ZM67.0977 5.02344L66.9467 3.02914L65.5662 3.13361L65.1779 4.46255L67.0977 5.02344ZM72.4472 3.78615C70.7504 8.39914 69.5545 12.6309 68.8779 16.4735L72.8174 17.1671C73.4429 13.6139 74.5647 9.61648 76.2013 5.16697L72.4472 3.78615ZM70.5405 14.844L63.0014 16.0159L63.6158 19.9685L71.1548 18.7966L70.5405 14.844ZM65.2283 18.5531L69.0174 5.58433L65.1779 4.46255L61.3889 17.4313L65.2283 18.5531ZM67.2486 7.01774L74.4751 6.47086L74.1733 2.48226L66.9467 3.02914L67.2486 7.01774ZM90.6914 7.17188L92.5702 7.85767L93.7673 4.57811L90.3327 5.20431L90.6914 7.17188ZM82.3711 34.4766L82.7263 36.4448L83.9953 36.2158L84.3105 34.9653L82.3711 34.4766ZM71.9805 36.3516L70.0108 36.0048L69.5135 38.829L72.3356 38.3198L71.9805 36.3516ZM73.1914 22.8359L75.1905 22.8947L75.1909 22.8826L75.1911 22.8704L73.1914 22.8359ZM73.4258 9.24219L72.9868 7.29097L71.4532 7.63602L71.4261 9.20771L73.4258 9.24219ZM81.2383 7.48438L83.2204 7.75155L83.6045 4.90198L80.7993 5.53316L81.2383 7.48438ZM77.8789 32.4062L75.8968 32.1391L75.5912 34.4062H77.8789V32.4062ZM77.918 32.4062V34.4062H79.4976L79.8635 32.8696L77.918 32.4062ZM83.6211 8.46094L83.2624 6.49337L81.978 6.72754L81.6755 7.99755L83.6211 8.46094ZM88.8127 6.48608C85.6878 15.0467 82.8947 24.2146 80.4317 33.9878L84.3105 34.9653C86.7433 25.3114 89.4971 16.2762 92.5702 7.85767L88.8127 6.48608ZM82.0159 32.5084L71.6253 34.3834L72.3356 38.3198L82.7263 36.4448L82.0159 32.5084ZM73.9502 36.6983C74.6233 32.8752 75.0325 28.2676 75.1905 22.8947L71.1923 22.7771C71.0378 28.0293 70.6398 32.4321 70.0108 36.0048L73.9502 36.6983ZM75.1911 22.8704C75.1913 22.8616 75.1914 22.8527 75.1916 22.8439C75.1917 22.835 75.1919 22.8262 75.192 22.8173C75.1922 22.8085 75.1923 22.7996 75.1925 22.7908C75.1926 22.7819 75.1928 22.7731 75.1929 22.7642C75.1931 22.7554 75.1932 22.7465 75.1934 22.7377C75.1936 22.7288 75.1937 22.72 75.1939 22.7111C75.194 22.7023 75.1942 22.6934 75.1943 22.6846C75.1945 22.6757 75.1946 22.6669 75.1948 22.658C75.1949 22.6492 75.1951 22.6403 75.1952 22.6315C75.1954 22.6226 75.1955 22.6138 75.1957 22.6049C75.1958 22.5961 75.196 22.5872 75.1961 22.5784C75.1963 22.5695 75.1964 22.5607 75.1966 22.5518C75.1968 22.543 75.1969 22.5341 75.1971 22.5253C75.1972 22.5164 75.1974 22.5076 75.1975 22.4987C75.1977 22.4899 75.1978 22.481 75.198 22.4722C75.1981 22.4633 75.1983 22.4545 75.1984 22.4456C75.1986 22.4368 75.1987 22.4279 75.1989 22.4191C75.199 22.4102 75.1992 22.4014 75.1993 22.3925C75.1995 22.3837 75.1997 22.3748 75.1998 22.366C75.2 22.3571 75.2001 22.3483 75.2003 22.3394C75.2004 22.3306 75.2006 22.3217 75.2007 22.3129C75.2009 22.304 75.201 22.2952 75.2012 22.2863C75.2013 22.2775 75.2015 22.2686 75.2016 22.2598C75.2018 22.2509 75.2019 22.2421 75.2021 22.2332C75.2022 22.2244 75.2024 22.2155 75.2026 22.2067C75.2027 22.1978 75.2029 22.189 75.203 22.1801C75.2032 22.1713 75.2033 22.1624 75.2035 22.1536C75.2036 22.1447 75.2038 22.1359 75.2039 22.127C75.2041 22.1182 75.2042 22.1093 75.2044 22.1005C75.2045 22.0916 75.2047 22.0828 75.2048 22.0739C75.205 22.0651 75.2051 22.0562 75.2053 22.0474C75.2055 22.0385 75.2056 22.0297 75.2058 22.0208C75.2059 22.012 75.2061 22.0031 75.2062 21.9943C75.2064 21.9854 75.2065 21.9766 75.2067 21.9677C75.2068 21.9589 75.207 21.95 75.2071 21.9412C75.2073 21.9323 75.2074 21.9235 75.2076 21.9146C75.2077 21.9058 75.2079 21.8969 75.208 21.8881C75.2082 21.8792 75.2084 21.8704 75.2085 21.8615C75.2087 21.8527 75.2088 21.8438 75.209 21.835C75.2091 21.8261 75.2093 21.8173 75.2094 21.8084C75.2096 21.7996 75.2097 21.7907 75.2099 21.7819C75.21 21.773 75.2102 21.7642 75.2103 21.7553C75.2105 21.7465 75.2106 21.7376 75.2108 21.7288C75.2109 21.7199 75.2111 21.7111 75.2113 21.7022C75.2114 21.6934 75.2116 21.6845 75.2117 21.6757C75.2119 21.6668 75.212 21.658 75.2122 21.6491C75.2123 21.6403 75.2125 21.6314 75.2126 21.6226C75.2128 21.6137 75.2129 21.6049 75.2131 21.596C75.2132 21.5872 75.2134 21.5783 75.2135 21.5695C75.2137 21.5606 75.2138 21.5518 75.214 21.5429C75.2141 21.5341 75.2143 21.5252 75.2145 21.5164C75.2146 21.5075 75.2148 21.4986 75.2149 21.4898C75.2151 21.4809 75.2152 21.4721 75.2154 21.4632C75.2155 21.4544 75.2157 21.4455 75.2158 21.4367C75.216 21.4278 75.2161 21.419 75.2163 21.4101C75.2164 21.4013 75.2166 21.3924 75.2167 21.3836C75.2169 21.3747 75.217 21.3659 75.2172 21.357C75.2174 21.3482 75.2175 21.3393 75.2177 21.3305C75.2178 21.3216 75.218 21.3128 75.2181 21.3039C75.2183 21.2951 75.2184 21.2862 75.2186 21.2774C75.2187 21.2685 75.2189 21.2597 75.219 21.2508C75.2192 21.242 75.2193 21.2331 75.2195 21.2243C75.2196 21.2154 75.2198 21.2066 75.2199 21.1977C75.2201 21.1889 75.2203 21.18 75.2204 21.1712C75.2206 21.1623 75.2207 21.1535 75.2209 21.1446C75.221 21.1358 75.2212 21.1269 75.2213 21.1181C75.2215 21.1092 75.2216 21.1004 75.2218 21.0915C75.2219 21.0827 75.2221 21.0738 75.2222 21.065C75.2224 21.0561 75.2225 21.0473 75.2227 21.0384C75.2228 21.0296 75.223 21.0207 75.2232 21.0119C75.2233 21.003 75.2235 20.9942 75.2236 20.9853C75.2238 20.9765 75.2239 20.9676 75.2241 20.9588C75.2242 20.9499 75.2244 20.9411 75.2245 20.9322C75.2247 20.9234 75.2248 20.9145 75.225 20.9057C75.2251 20.8968 75.2253 20.888 75.2254 20.8791C75.2256 20.8703 75.2257 20.8614 75.2259 20.8526C75.2261 20.8437 75.2262 20.8349 75.2264 20.826C75.2265 20.8172 75.2267 20.8083 75.2268 20.7995C75.227 20.7906 75.2271 20.7818 75.2273 20.7729C75.2274 20.7641 75.2276 20.7552 75.2277 20.7464C75.2279 20.7375 75.228 20.7287 75.2282 20.7198C75.2283 20.711 75.2285 20.7021 75.2286 20.6933C75.2288 20.6844 75.229 20.6756 75.2291 20.6667C75.2293 20.6579 75.2294 20.649 75.2296 20.6402C75.2297 20.6313 75.2299 20.6225 75.23 20.6136C75.2302 20.6048 75.2303 20.5959 75.2305 20.5871C75.2306 20.5782 75.2308 20.5694 75.2309 20.5605C75.2311 20.5517 75.2312 20.5428 75.2314 20.534C75.2315 20.5251 75.2317 20.5163 75.2319 20.5074C75.232 20.4986 75.2322 20.4897 75.2323 20.4809C75.2325 20.472 75.2326 20.4632 75.2328 20.4543C75.2329 20.4455 75.2331 20.4366 75.2332 20.4278C75.2334 20.4189 75.2335 20.4101 75.2337 20.4012C75.2338 20.3924 75.234 20.3835 75.2341 20.3747C75.2343 20.3658 75.2344 20.357 75.2346 20.3481C75.2347 20.3393 75.2349 20.3304 75.2351 20.3216C75.2352 20.3127 75.2354 20.3039 75.2355 20.295C75.2357 20.2862 75.2358 20.2773 75.236 20.2685C75.2361 20.2596 75.2363 20.2508 75.2364 20.2419C75.2366 20.2331 75.2367 20.2242 75.2369 20.2154C75.237 20.2065 75.2372 20.1977 75.2373 20.1888C75.2375 20.18 75.2376 20.1711 75.2378 20.1623C75.238 20.1534 75.2381 20.1446 75.2383 20.1357C75.2384 20.1269 75.2386 20.118 75.2387 20.1092C75.2389 20.1003 75.239 20.0915 75.2392 20.0826C75.2393 20.0738 75.2395 20.0649 75.2396 20.0561C75.2398 20.0472 75.2399 20.0384 75.2401 20.0295C75.2402 20.0207 75.2404 20.0118 75.2405 20.003C75.2407 19.9941 75.2409 19.9853 75.241 19.9764C75.2412 19.9676 75.2413 19.9587 75.2415 19.9499C75.2416 19.941 75.2418 19.9322 75.2419 19.9233C75.2421 19.9145 75.2422 19.9056 75.2424 19.8968C75.2425 19.8879 75.2427 19.8791 75.2428 19.8702C75.243 19.8614 75.2431 19.8525 75.2433 19.8437C75.2434 19.8348 75.2436 19.826 75.2438 19.8171C75.2439 19.8083 75.2441 19.7994 75.2442 19.7906C75.2444 19.7817 75.2445 19.7729 75.2447 19.764C75.2448 19.7552 75.245 19.7463 75.2451 19.7375C75.2453 19.7286 75.2454 19.7198 75.2456 19.7109C75.2457 19.7021 75.2459 19.6932 75.246 19.6844C75.2462 19.6755 75.2463 19.6667 75.2465 19.6578C75.2467 19.649 75.2468 19.6401 75.247 19.6313C75.2471 19.6224 75.2473 19.6136 75.2474 19.6047C75.2476 19.5959 75.2477 19.587 75.2479 19.5782C75.248 19.5693 75.2482 19.5605 75.2483 19.5516C75.2485 19.5428 75.2486 19.5339 75.2488 19.5251C75.2489 19.5162 75.2491 19.5074 75.2492 19.4985C75.2494 19.4897 75.2496 19.4808 75.2497 19.472C75.2499 19.4631 75.25 19.4543 75.2502 19.4454C75.2503 19.4366 75.2505 19.4277 75.2506 19.4189C75.2508 19.41 75.2509 19.4012 75.2511 19.3923C75.2512 19.3835 75.2514 19.3746 75.2515 19.3658C75.2517 19.3569 75.2518 19.3481 75.252 19.3392C75.2521 19.3304 75.2523 19.3215 75.2524 19.3127C75.2526 19.3038 75.2528 19.295 75.2529 19.2861C75.2531 19.2773 75.2532 19.2684 75.2534 19.2596C75.2535 19.2507 75.2537 19.2419 75.2538 19.233C75.254 19.2242 75.2541 19.2153 75.2543 19.2065C75.2544 19.1976 75.2546 19.1888 75.2547 19.1799C75.2549 19.1711 75.255 19.1622 75.2552 19.1534C75.2553 19.1445 75.2555 19.1357 75.2557 19.1268C75.2558 19.118 75.256 19.1091 75.2561 19.1003C75.2563 19.0914 75.2564 19.0826 75.2566 19.0737C75.2567 19.0649 75.2569 19.056 75.257 19.0472C75.2572 19.0383 75.2573 19.0295 75.2575 19.0206C75.2576 19.0118 75.2578 19.0029 75.2579 18.9941C75.2581 18.9852 75.2582 18.9764 75.2584 18.9675C75.2586 18.9587 75.2587 18.9498 75.2589 18.941C75.259 18.9321 75.2592 18.9233 75.2593 18.9144C75.2595 18.9056 75.2596 18.8967 75.2598 18.8879C75.2599 18.879 75.2601 18.8702 75.2602 18.8613C75.2604 18.8525 75.2605 18.8436 75.2607 18.8348C75.2608 18.8259 75.261 18.8171 75.2611 18.8082C75.2613 18.7994 75.2615 18.7905 75.2616 18.7817C75.2618 18.7728 75.2619 18.764 75.2621 18.7551C75.2622 18.7463 75.2624 18.7374 75.2625 18.7286C75.2627 18.7197 75.2628 18.7109 75.263 18.702C75.2631 18.6932 75.2633 18.6843 75.2634 18.6755C75.2636 18.6666 75.2637 18.6578 75.2639 18.6489C75.264 18.6401 75.2642 18.6312 75.2644 18.6224C75.2645 18.6135 75.2647 18.6047 75.2648 18.5958C75.265 18.587 75.2651 18.5781 75.2653 18.5693C75.2654 18.5604 75.2656 18.5516 75.2657 18.5427C75.2659 18.5339 75.266 18.525 75.2662 18.5162C75.2663 18.5073 75.2665 18.4985 75.2666 18.4896C75.2668 18.4808 75.2669 18.4719 75.2671 18.4631C75.2673 18.4542 75.2674 18.4454 75.2676 18.4365C75.2677 18.4277 75.2679 18.4188 75.268 18.41C75.2682 18.4011 75.2683 18.3923 75.2685 18.3834C75.2686 18.3746 75.2688 18.3657 75.2689 18.3569C75.2691 18.348 75.2692 18.3392 75.2694 18.3303C75.2695 18.3215 75.2697 18.3126 75.2698 18.3038C75.27 18.2949 75.2701 18.2861 75.2703 18.2772C75.2705 18.2684 75.2706 18.2595 75.2708 18.2507C75.2709 18.2418 75.2711 18.233 75.2712 18.2241C75.2714 18.2153 75.2715 18.2064 75.2717 18.1976C75.2718 18.1887 75.272 18.1799 75.2721 18.171C75.2723 18.1622 75.2724 18.1533 75.2726 18.1445C75.2727 18.1356 75.2729 18.1268 75.273 18.1179C75.2732 18.1091 75.2734 18.1002 75.2735 18.0914C75.2737 18.0825 75.2738 18.0737 75.274 18.0648C75.2741 18.056 75.2743 18.0471 75.2744 18.0383C75.2746 18.0294 75.2747 18.0206 75.2749 18.0117C75.275 18.0029 75.2752 17.994 75.2753 17.9852C75.2755 17.9763 75.2756 17.9675 75.2758 17.9586C75.2759 17.9498 75.2761 17.9409 75.2763 17.9321C75.2764 17.9232 75.2766 17.9144 75.2767 17.9055C75.2769 17.8967 75.277 17.8878 75.2772 17.879C75.2773 17.8701 75.2775 17.8613 75.2776 17.8524C75.2778 17.8436 75.2779 17.8347 75.2781 17.8259C75.2782 17.817 75.2784 17.8082 75.2785 17.7993C75.2787 17.7905 75.2788 17.7816 75.279 17.7728C75.2792 17.7639 75.2793 17.7551 75.2795 17.7462C75.2796 17.7374 75.2798 17.7285 75.2799 17.7197C75.2801 17.7108 75.2802 17.702 75.2804 17.6931C75.2805 17.6843 75.2807 17.6754 75.2808 17.6666C75.281 17.6577 75.2811 17.6489 75.2813 17.64C75.2814 17.6312 75.2816 17.6223 75.2817 17.6135C75.2819 17.6046 75.2821 17.5958 75.2822 17.5869C75.2824 17.5781 75.2825 17.5692 75.2827 17.5604C75.2828 17.5515 75.283 17.5427 75.2831 17.5338C75.2833 17.525 75.2834 17.5161 75.2836 17.5073C75.2837 17.4984 75.2839 17.4896 75.284 17.4807C75.2842 17.4719 75.2843 17.463 75.2845 17.4542C75.2846 17.4453 75.2848 17.4365 75.285 17.4276C75.2851 17.4188 75.2853 17.4099 75.2854 17.4011C75.2856 17.3922 75.2857 17.3834 75.2859 17.3745C75.286 17.3657 75.2862 17.3568 75.2863 17.348C75.2865 17.3391 75.2866 17.3303 75.2868 17.3214C75.2869 17.3126 75.2871 17.3037 75.2872 17.2949C75.2874 17.286 75.2875 17.2772 75.2877 17.2683C75.2878 17.2595 75.288 17.2506 75.2882 17.2418C75.2883 17.2329 75.2885 17.2241 75.2886 17.2152C75.2888 17.2064 75.2889 17.1975 75.2891 17.1887C75.2892 17.1798 75.2894 17.171 75.2895 17.1621C75.2897 17.1533 75.2898 17.1444 75.29 17.1356C75.2901 17.1267 75.2903 17.1179 75.2904 17.109C75.2906 17.1002 75.2907 17.0913 75.2909 17.0825C75.2911 17.0736 75.2912 17.0648 75.2914 17.0559C75.2915 17.0471 75.2917 17.0382 75.2918 17.0294C75.292 17.0205 75.2921 17.0117 75.2923 17.0028C75.2924 16.994 75.2926 16.9851 75.2927 16.9763C75.2929 16.9674 75.293 16.9585 75.2932 16.9497C75.2933 16.9408 75.2935 16.932 75.2936 16.9231C75.2938 16.9143 75.294 16.9054 75.2941 16.8966C75.2943 16.8877 75.2944 16.8789 75.2946 16.87C75.2947 16.8612 75.2949 16.8523 75.295 16.8435C75.2952 16.8346 75.2953 16.8258 75.2955 16.8169C75.2956 16.8081 75.2958 16.7992 75.2959 16.7904C75.2961 16.7815 75.2962 16.7727 75.2964 16.7638C75.2965 16.755 75.2967 16.7461 75.2969 16.7373C75.297 16.7284 75.2972 16.7196 75.2973 16.7107C75.2975 16.7019 75.2976 16.693 75.2978 16.6842C75.2979 16.6753 75.2981 16.6665 75.2982 16.6576C75.2984 16.6488 75.2985 16.6399 75.2987 16.6311C75.2988 16.6222 75.299 16.6134 75.2991 16.6045C75.2993 16.5957 75.2994 16.5868 75.2996 16.578C75.2998 16.5691 75.2999 16.5603 75.3001 16.5514C75.3002 16.5426 75.3004 16.5337 75.3005 16.5249C75.3007 16.516 75.3008 16.5072 75.301 16.4983C75.3011 16.4895 75.3013 16.4806 75.3014 16.4718C75.3016 16.4629 75.3017 16.4541 75.3019 16.4452C75.302 16.4364 75.3022 16.4275 75.3023 16.4187C75.3025 16.4098 75.3027 16.401 75.3028 16.3921C75.303 16.3833 75.3031 16.3744 75.3033 16.3656C75.3034 16.3567 75.3036 16.3479 75.3037 16.339C75.3039 16.3302 75.304 16.3213 75.3042 16.3125C75.3043 16.3036 75.3045 16.2948 75.3046 16.2859C75.3048 16.2771 75.3049 16.2682 75.3051 16.2594C75.3052 16.2505 75.3054 16.2417 75.3055 16.2328C75.3057 16.224 75.3059 16.2151 75.306 16.2063C75.3062 16.1974 75.3063 16.1886 75.3065 16.1797C75.3066 16.1709 75.3068 16.162 75.3069 16.1532C75.3071 16.1443 75.3072 16.1355 75.3074 16.1266C75.3075 16.1178 75.3077 16.1089 75.3078 16.1001C75.308 16.0912 75.3081 16.0824 75.3083 16.0735C75.3084 16.0647 75.3086 16.0558 75.3088 16.047C75.3089 16.0381 75.3091 16.0293 75.3092 16.0204C75.3094 16.0116 75.3095 16.0027 75.3097 15.9939C75.3098 15.985 75.31 15.9762 75.3101 15.9673C75.3103 15.9585 75.3104 15.9496 75.3106 15.9408C75.3107 15.9319 75.3109 15.9231 75.311 15.9142C75.3112 15.9054 75.3113 15.8965 75.3115 15.8877C75.3117 15.8788 75.3118 15.87 75.312 15.8611C75.3121 15.8523 75.3123 15.8434 75.3124 15.8346C75.3126 15.8257 75.3127 15.8169 75.3129 15.808C75.313 15.7992 75.3132 15.7903 75.3133 15.7815C75.3135 15.7726 75.3136 15.7638 75.3138 15.7549C75.3139 15.7461 75.3141 15.7372 75.3142 15.7284C75.3144 15.7195 75.3146 15.7107 75.3147 15.7018C75.3149 15.693 75.315 15.6841 75.3152 15.6753C75.3153 15.6664 75.3155 15.6576 75.3156 15.6487C75.3158 15.6399 75.3159 15.631 75.3161 15.6222C75.3162 15.6133 75.3164 15.6045 75.3165 15.5956C75.3167 15.5868 75.3168 15.5779 75.317 15.5691C75.3171 15.5602 75.3173 15.5514 75.3175 15.5425C75.3176 15.5337 75.3178 15.5248 75.3179 15.516C75.3181 15.5071 75.3182 15.4983 75.3184 15.4894C75.3185 15.4806 75.3187 15.4717 75.3188 15.4629C75.319 15.454 75.3191 15.4452 75.3193 15.4363C75.3194 15.4275 75.3196 15.4186 75.3197 15.4098C75.3199 15.4009 75.32 15.3921 75.3202 15.3832C75.3204 15.3744 75.3205 15.3655 75.3207 15.3567C75.3208 15.3478 75.321 15.339 75.3211 15.3301C75.3213 15.3213 75.3214 15.3124 75.3216 15.3036C75.3217 15.2947 75.3219 15.2859 75.322 15.277C75.3222 15.2682 75.3223 15.2593 75.3225 15.2505C75.3226 15.2416 75.3228 15.2328 75.3229 15.2239C75.3231 15.2151 75.3233 15.2062 75.3234 15.1974C75.3236 15.1885 75.3237 15.1797 75.3239 15.1708C75.324 15.162 75.3242 15.1531 75.3243 15.1443C75.3245 15.1354 75.3246 15.1266 75.3248 15.1177C75.3249 15.1089 75.3251 15.1 75.3252 15.0912C75.3254 15.0823 75.3255 15.0735 75.3257 15.0646C75.3258 15.0558 75.326 15.0469 75.3261 15.0381C75.3263 15.0292 75.3265 15.0204 75.3266 15.0115C75.3268 15.0027 75.3269 14.9938 75.3271 14.985C75.3272 14.9761 75.3274 14.9673 75.3275 14.9584C75.3277 14.9496 75.3278 14.9407 75.328 14.9319C75.3281 14.923 75.3283 14.9142 75.3284 14.9053C75.3286 14.8965 75.3287 14.8876 75.3289 14.8788C75.329 14.8699 75.3292 14.8611 75.3294 14.8522C75.3295 14.8434 75.3297 14.8345 75.3298 14.8257C75.33 14.8168 75.3301 14.808 75.3303 14.7991C75.3304 14.7903 75.3306 14.7814 75.3307 14.7726C75.3309 14.7637 75.331 14.7549 75.3312 14.746C75.3313 14.7372 75.3315 14.7283 75.3316 14.7195C75.3318 14.7106 75.3319 14.7018 75.3321 14.6929C75.3323 14.6841 75.3324 14.6752 75.3326 14.6664C75.3327 14.6575 75.3329 14.6487 75.333 14.6398C75.3332 14.631 75.3333 14.6221 75.3335 14.6133C75.3336 14.6044 75.3338 14.5956 75.3339 14.5867C75.3341 14.5779 75.3342 14.569 75.3344 14.5602C75.3345 14.5513 75.3347 14.5425 75.3348 14.5336C75.335 14.5248 75.3352 14.5159 75.3353 14.5071C75.3355 14.4982 75.3356 14.4894 75.3358 14.4805C75.3359 14.4717 75.3361 14.4628 75.3362 14.454C75.3364 14.4451 75.3365 14.4363 75.3367 14.4274C75.3368 14.4186 75.337 14.4097 75.3371 14.4009C75.3373 14.392 75.3374 14.3832 75.3376 14.3743C75.3377 14.3655 75.3379 14.3566 75.3381 14.3478C75.3382 14.3389 75.3384 14.3301 75.3385 14.3212C75.3387 14.3124 75.3388 14.3035 75.339 14.2947C75.3391 14.2858 75.3393 14.277 75.3394 14.2681C75.3396 14.2593 75.3397 14.2504 75.3399 14.2416C75.34 14.2327 75.3402 14.2239 75.3403 14.215C75.3405 14.2062 75.3406 14.1973 75.3408 14.1885C75.341 14.1796 75.3411 14.1708 75.3413 14.1619C75.3414 14.1531 75.3416 14.1442 75.3417 14.1354C75.3419 14.1265 75.342 14.1177 75.3422 14.1088C75.3423 14.1 75.3425 14.0911 75.3426 14.0823C75.3428 14.0734 75.3429 14.0646 75.3431 14.0557C75.3432 14.0469 75.3434 14.038 75.3435 14.0292C75.3437 14.0203 75.3438 14.0115 75.344 14.0026C75.3442 13.9938 75.3443 13.9849 75.3445 13.9761C75.3446 13.9672 75.3448 13.9584 75.3449 13.9495C75.3451 13.9407 75.3452 13.9318 75.3454 13.923C75.3455 13.9141 75.3457 13.9053 75.3458 13.8964C75.346 13.8876 75.3461 13.8787 75.3463 13.8699C75.3464 13.861 75.3466 13.8522 75.3467 13.8433C75.3469 13.8345 75.3471 13.8256 75.3472 13.8168C75.3474 13.8079 75.3475 13.7991 75.3477 13.7902C75.3478 13.7814 75.348 13.7725 75.3481 13.7637C75.3483 13.7548 75.3484 13.746 75.3486 13.7371C75.3487 13.7283 75.3489 13.7194 75.349 13.7106C75.3492 13.7017 75.3493 13.6929 75.3495 13.684C75.3496 13.6752 75.3498 13.6663 75.35 13.6575C75.3501 13.6486 75.3503 13.6398 75.3504 13.6309C75.3506 13.6221 75.3507 13.6132 75.3509 13.6044C75.351 13.5955 75.3512 13.5867 75.3513 13.5778C75.3515 13.569 75.3516 13.5601 75.3518 13.5513C75.3519 13.5424 75.3521 13.5336 75.3522 13.5247C75.3524 13.5159 75.3525 13.507 75.3527 13.4982C75.3529 13.4893 75.353 13.4805 75.3532 13.4716C75.3533 13.4628 75.3535 13.4539 75.3536 13.4451C75.3538 13.4362 75.3539 13.4274 75.3541 13.4185C75.3542 13.4097 75.3544 13.4008 75.3545 13.392C75.3547 13.3831 75.3548 13.3743 75.355 13.3654C75.3551 13.3566 75.3553 13.3477 75.3554 13.3389C75.3556 13.33 75.3558 13.3212 75.3559 13.3123C75.3561 13.3035 75.3562 13.2946 75.3564 13.2858C75.3565 13.2769 75.3567 13.2681 75.3568 13.2592C75.357 13.2504 75.3571 13.2415 75.3573 13.2327C75.3574 13.2238 75.3576 13.215 75.3577 13.2061C75.3579 13.1973 75.358 13.1884 75.3582 13.1796C75.3583 13.1707 75.3585 13.1619 75.3587 13.153C75.3588 13.1442 75.359 13.1353 75.3591 13.1265C75.3593 13.1176 75.3594 13.1088 75.3596 13.0999C75.3597 13.0911 75.3599 13.0822 75.36 13.0734C75.3602 13.0645 75.3603 13.0557 75.3605 13.0468C75.3606 13.038 75.3608 13.0291 75.3609 13.0203C75.3611 13.0114 75.3612 13.0026 75.3614 12.9937C75.3615 12.9849 75.3617 12.976 75.3619 12.9672C75.362 12.9583 75.3622 12.9495 75.3623 12.9406C75.3625 12.9318 75.3626 12.9229 75.3628 12.9141C75.3629 12.9052 75.3631 12.8964 75.3632 12.8875C75.3634 12.8787 75.3635 12.8698 75.3637 12.861C75.3638 12.8521 75.364 12.8433 75.3641 12.8344C75.3643 12.8256 75.3644 12.8167 75.3646 12.8079C75.3648 12.799 75.3649 12.7902 75.3651 12.7813C75.3652 12.7725 75.3654 12.7636 75.3655 12.7548C75.3657 12.7459 75.3658 12.7371 75.366 12.7282C75.3661 12.7194 75.3663 12.7105 75.3664 12.7017C75.3666 12.6928 75.3667 12.684 75.3669 12.6751C75.367 12.6663 75.3672 12.6574 75.3673 12.6486C75.3675 12.6397 75.3677 12.6309 75.3678 12.622C75.368 12.6132 75.3681 12.6043 75.3683 12.5955C75.3684 12.5866 75.3686 12.5778 75.3687 12.5689C75.3689 12.5601 75.369 12.5512 75.3692 12.5424C75.3693 12.5335 75.3695 12.5247 75.3696 12.5158C75.3698 12.507 75.3699 12.4981 75.3701 12.4893C75.3702 12.4804 75.3704 12.4716 75.3706 12.4627C75.3707 12.4539 75.3709 12.445 75.371 12.4361C75.3712 12.4273 75.3713 12.4184 75.3715 12.4096C75.3716 12.4007 75.3718 12.3919 75.3719 12.383C75.3721 12.3742 75.3722 12.3653 75.3724 12.3565C75.3725 12.3476 75.3727 12.3388 75.3728 12.3299C75.373 12.3211 75.3731 12.3122 75.3733 12.3034C75.3735 12.2945 75.3736 12.2857 75.3738 12.2768C75.3739 12.268 75.3741 12.2591 75.3742 12.2503C75.3744 12.2414 75.3745 12.2326 75.3747 12.2237C75.3748 12.2149 75.375 12.206 75.3751 12.1972C75.3753 12.1883 75.3754 12.1795 75.3756 12.1706C75.3757 12.1618 75.3759 12.1529 75.376 12.1441C75.3762 12.1352 75.3764 12.1264 75.3765 12.1175C75.3767 12.1087 75.3768 12.0998 75.377 12.091C75.3771 12.0821 75.3773 12.0733 75.3774 12.0644C75.3776 12.0556 75.3777 12.0467 75.3779 12.0379C75.378 12.029 75.3782 12.0202 75.3783 12.0113C75.3785 12.0025 75.3786 11.9936 75.3788 11.9848C75.3789 11.9759 75.3791 11.9671 75.3792 11.9582C75.3794 11.9494 75.3796 11.9405 75.3797 11.9317C75.3799 11.9228 75.38 11.914 75.3802 11.9051C75.3803 11.8963 75.3805 11.8874 75.3806 11.8786C75.3808 11.8697 75.3809 11.8609 75.3811 11.852C75.3812 11.8432 75.3814 11.8343 75.3815 11.8255C75.3817 11.8166 75.3818 11.8078 75.382 11.7989C75.3821 11.7901 75.3823 11.7812 75.3825 11.7724C75.3826 11.7635 75.3828 11.7547 75.3829 11.7458C75.3831 11.737 75.3832 11.7281 75.3834 11.7193C75.3835 11.7104 75.3837 11.7016 75.3838 11.6927C75.384 11.6839 75.3841 11.675 75.3843 11.6662C75.3844 11.6573 75.3846 11.6485 75.3847 11.6396C75.3849 11.6308 75.385 11.6219 75.3852 11.6131C75.3854 11.6042 75.3855 11.5954 75.3857 11.5865C75.3858 11.5777 75.386 11.5688 75.3861 11.56C75.3863 11.5511 75.3864 11.5423 75.3866 11.5334C75.3867 11.5246 75.3869 11.5157 75.387 11.5069C75.3872 11.498 75.3873 11.4892 75.3875 11.4803C75.3876 11.4715 75.3878 11.4626 75.3879 11.4538C75.3881 11.4449 75.3883 11.4361 75.3884 11.4272C75.3886 11.4184 75.3887 11.4095 75.3889 11.4007C75.389 11.3918 75.3892 11.383 75.3893 11.3741C75.3895 11.3653 75.3896 11.3564 75.3898 11.3476C75.3899 11.3387 75.3901 11.3299 75.3902 11.321C75.3904 11.3122 75.3905 11.3033 75.3907 11.2945C75.3908 11.2856 75.391 11.2768 75.3912 11.2679C75.3913 11.2591 75.3915 11.2502 75.3916 11.2414C75.3918 11.2325 75.3919 11.2237 75.3921 11.2148C75.3922 11.206 75.3924 11.1971 75.3925 11.1883C75.3927 11.1794 75.3928 11.1706 75.393 11.1617C75.3931 11.1529 75.3933 11.144 75.3934 11.1352C75.3936 11.1263 75.3937 11.1175 75.3939 11.1086C75.3941 11.0998 75.3942 11.0909 75.3944 11.0821C75.3945 11.0732 75.3947 11.0644 75.3948 11.0555C75.395 11.0467 75.3951 11.0378 75.3953 11.029C75.3954 11.0201 75.3956 11.0113 75.3957 11.0024C75.3959 10.9936 75.396 10.9847 75.3962 10.9759C75.3963 10.967 75.3965 10.9582 75.3966 10.9493C75.3968 10.9405 75.397 10.9316 75.3971 10.9228C75.3973 10.9139 75.3974 10.9051 75.3976 10.8962C75.3977 10.8874 75.3979 10.8785 75.398 10.8697C75.3982 10.8608 75.3983 10.852 75.3985 10.8431C75.3986 10.8343 75.3988 10.8254 75.3989 10.8166C75.3991 10.8077 75.3992 10.7989 75.3994 10.79C75.3995 10.7812 75.3997 10.7723 75.3998 10.7635C75.4 10.7546 75.4002 10.7458 75.4003 10.7369C75.4005 10.7281 75.4006 10.7192 75.4008 10.7104C75.4009 10.7015 75.4011 10.6927 75.4012 10.6838C75.4014 10.675 75.4015 10.6661 75.4017 10.6573C75.4018 10.6484 75.402 10.6396 75.4021 10.6307C75.4023 10.6219 75.4024 10.613 75.4026 10.6042C75.4027 10.5953 75.4029 10.5865 75.4031 10.5776C75.4032 10.5688 75.4034 10.5599 75.4035 10.5511C75.4037 10.5422 75.4038 10.5334 75.404 10.5245C75.4041 10.5157 75.4043 10.5068 75.4044 10.498C75.4046 10.4891 75.4047 10.4803 75.4049 10.4714C75.405 10.4626 75.4052 10.4537 75.4053 10.4449C75.4055 10.436 75.4056 10.4272 75.4058 10.4183C75.406 10.4095 75.4061 10.4006 75.4063 10.3918C75.4064 10.3829 75.4066 10.3741 75.4067 10.3652C75.4069 10.3564 75.407 10.3475 75.4072 10.3387C75.4073 10.3298 75.4075 10.321 75.4076 10.3121C75.4078 10.3033 75.4079 10.2944 75.4081 10.2856C75.4082 10.2767 75.4084 10.2679 75.4085 10.259C75.4087 10.2502 75.4089 10.2413 75.409 10.2325C75.4092 10.2236 75.4093 10.2148 75.4095 10.2059C75.4096 10.1971 75.4098 10.1882 75.4099 10.1794C75.4101 10.1705 75.4102 10.1617 75.4104 10.1528C75.4105 10.144 75.4107 10.1351 75.4108 10.1263C75.411 10.1174 75.4111 10.1086 75.4113 10.0997C75.4114 10.0909 75.4116 10.082 75.4118 10.0732C75.4119 10.0643 75.4121 10.0555 75.4122 10.0466C75.4124 10.0378 75.4125 10.0289 75.4127 10.0201C75.4128 10.0112 75.413 10.0024 75.4131 9.99352C75.4133 9.98467 75.4134 9.97582 75.4136 9.96697C75.4137 9.95812 75.4139 9.94927 75.414 9.94042C75.4142 9.93157 75.4143 9.92272 75.4145 9.91387C75.4147 9.90502 75.4148 9.89617 75.415 9.88732C75.4151 9.87847 75.4153 9.86962 75.4154 9.86077C75.4156 9.85192 75.4157 9.84307 75.4159 9.83422C75.416 9.82537 75.4162 9.81652 75.4163 9.80767C75.4165 9.79882 75.4166 9.78997 75.4168 9.78112C75.4169 9.77227 75.4171 9.76342 75.4172 9.75457C75.4174 9.74572 75.4175 9.73687 75.4177 9.72802C75.4179 9.71917 75.418 9.71032 75.4182 9.70147C75.4183 9.69262 75.4185 9.68377 75.4186 9.67492C75.4188 9.66607 75.4189 9.65722 75.4191 9.64837C75.4192 9.63952 75.4194 9.63067 75.4195 9.62182C75.4197 9.61297 75.4198 9.60412 75.42 9.59527C75.4201 9.58642 75.4203 9.57757 75.4204 9.56872C75.4206 9.55987 75.4208 9.55102 75.4209 9.54217C75.4211 9.53332 75.4212 9.52447 75.4214 9.51562C75.4215 9.50677 75.4217 9.49792 75.4218 9.48907C75.422 9.48022 75.4221 9.47137 75.4223 9.46252C75.4224 9.45367 75.4226 9.44482 75.4227 9.43597C75.4229 9.42712 75.423 9.41827 75.4232 9.40942C75.4233 9.40057 75.4235 9.39172 75.4237 9.38287C75.4238 9.37402 75.424 9.36517 75.4241 9.35632C75.4243 9.34747 75.4244 9.33862 75.4246 9.32977C75.4247 9.32092 75.4249 9.31207 75.425 9.30322C75.4252 9.29437 75.4253 9.28552 75.4255 9.27667L71.4261 9.20771C71.4259 9.21656 71.4258 9.22541 71.4256 9.23426C71.4255 9.24311 71.4253 9.25196 71.4252 9.26081C71.425 9.26966 71.4249 9.27851 71.4247 9.28736C71.4246 9.29621 71.4244 9.30506 71.4242 9.31391C71.4241 9.32276 71.4239 9.33161 71.4238 9.34046C71.4236 9.34931 71.4235 9.35816 71.4233 9.36701C71.4232 9.37586 71.423 9.38471 71.4229 9.39356C71.4227 9.40241 71.4226 9.41126 71.4224 9.42011C71.4223 9.42896 71.4221 9.43781 71.422 9.44666C71.4218 9.45551 71.4217 9.46436 71.4215 9.47321C71.4213 9.48206 71.4212 9.49091 71.421 9.49976C71.4209 9.50861 71.4207 9.51746 71.4206 9.52631C71.4204 9.53516 71.4203 9.54401 71.4201 9.55286C71.42 9.56171 71.4198 9.57056 71.4197 9.57941C71.4195 9.58826 71.4194 9.59711 71.4192 9.60596C71.4191 9.61481 71.4189 9.62366 71.4188 9.63251C71.4186 9.64136 71.4184 9.65021 71.4183 9.65906C71.4181 9.66791 71.418 9.67677 71.4178 9.68562C71.4177 9.69447 71.4175 9.70332 71.4174 9.71217C71.4172 9.72102 71.4171 9.72987 71.4169 9.73872C71.4168 9.74757 71.4166 9.75642 71.4165 9.76527C71.4163 9.77412 71.4162 9.78297 71.416 9.79182C71.4159 9.80067 71.4157 9.80952 71.4155 9.81837C71.4154 9.82722 71.4152 9.83607 71.4151 9.84492C71.4149 9.85377 71.4148 9.86262 71.4146 9.87147C71.4145 9.88032 71.4143 9.88917 71.4142 9.89802C71.414 9.90687 71.4139 9.91572 71.4137 9.92457C71.4136 9.93342 71.4134 9.94227 71.4133 9.95112C71.4131 9.95997 71.413 9.96882 71.4128 9.97767C71.4127 9.98652 71.4125 9.99537 71.4123 10.0042C71.4122 10.0131 71.412 10.0219 71.4119 10.0308C71.4117 10.0396 71.4116 10.0485 71.4114 10.0573C71.4113 10.0662 71.4111 10.075 71.411 10.0839C71.4108 10.0927 71.4107 10.1016 71.4105 10.1104C71.4104 10.1193 71.4102 10.1281 71.4101 10.137C71.4099 10.1458 71.4098 10.1547 71.4096 10.1635C71.4094 10.1724 71.4093 10.1812 71.4091 10.1901C71.409 10.1989 71.4088 10.2078 71.4087 10.2166C71.4085 10.2255 71.4084 10.2343 71.4082 10.2432C71.4081 10.252 71.4079 10.2609 71.4078 10.2697C71.4076 10.2786 71.4075 10.2874 71.4073 10.2963C71.4072 10.3051 71.407 10.314 71.4069 10.3228C71.4067 10.3317 71.4065 10.3405 71.4064 10.3494C71.4062 10.3582 71.4061 10.3671 71.4059 10.3759C71.4058 10.3848 71.4056 10.3936 71.4055 10.4025C71.4053 10.4113 71.4052 10.4202 71.405 10.429C71.4049 10.4379 71.4047 10.4467 71.4046 10.4556C71.4044 10.4644 71.4043 10.4733 71.4041 10.4821C71.404 10.491 71.4038 10.4998 71.4036 10.5087C71.4035 10.5175 71.4033 10.5264 71.4032 10.5352C71.403 10.5441 71.4029 10.5529 71.4027 10.5618C71.4026 10.5706 71.4024 10.5795 71.4023 10.5883C71.4021 10.5972 71.402 10.606 71.4018 10.6149C71.4017 10.6237 71.4015 10.6326 71.4014 10.6414C71.4012 10.6503 71.4011 10.6591 71.4009 10.668C71.4007 10.6768 71.4006 10.6857 71.4004 10.6945C71.4003 10.7034 71.4001 10.7122 71.4 10.7211C71.3998 10.7299 71.3997 10.7388 71.3995 10.7476C71.3994 10.7565 71.3992 10.7653 71.3991 10.7742C71.3989 10.783 71.3988 10.7919 71.3986 10.8007C71.3985 10.8096 71.3983 10.8184 71.3982 10.8273C71.398 10.8361 71.3978 10.845 71.3977 10.8538C71.3975 10.8627 71.3974 10.8715 71.3972 10.8804C71.3971 10.8892 71.3969 10.8981 71.3968 10.9069C71.3966 10.9158 71.3965 10.9246 71.3963 10.9335C71.3962 10.9423 71.396 10.9512 71.3959 10.96C71.3957 10.9689 71.3956 10.9777 71.3954 10.9866C71.3953 10.9954 71.3951 11.0043 71.395 11.0131C71.3948 11.022 71.3946 11.0308 71.3945 11.0397C71.3943 11.0485 71.3942 11.0574 71.394 11.0662C71.3939 11.0751 71.3937 11.0839 71.3936 11.0928C71.3934 11.1016 71.3933 11.1105 71.3931 11.1193C71.393 11.1282 71.3928 11.137 71.3927 11.1459C71.3925 11.1547 71.3924 11.1636 71.3922 11.1724C71.3921 11.1813 71.3919 11.1901 71.3917 11.199C71.3916 11.2078 71.3914 11.2167 71.3913 11.2255C71.3911 11.2344 71.391 11.2432 71.3908 11.2521C71.3907 11.2609 71.3905 11.2698 71.3904 11.2786C71.3902 11.2875 71.3901 11.2963 71.3899 11.3052C71.3898 11.314 71.3896 11.3229 71.3895 11.3317C71.3893 11.3406 71.3892 11.3494 71.389 11.3583C71.3888 11.3671 71.3887 11.376 71.3885 11.3848C71.3884 11.3937 71.3882 11.4025 71.3881 11.4114C71.3879 11.4202 71.3878 11.4291 71.3876 11.4379C71.3875 11.4468 71.3873 11.4556 71.3872 11.4645C71.387 11.4733 71.3869 11.4822 71.3867 11.491C71.3866 11.4999 71.3864 11.5087 71.3863 11.5176C71.3861 11.5264 71.3859 11.5353 71.3858 11.5441C71.3856 11.553 71.3855 11.5618 71.3853 11.5707C71.3852 11.5795 71.385 11.5884 71.3849 11.5972C71.3847 11.6061 71.3846 11.6149 71.3844 11.6238C71.3843 11.6326 71.3841 11.6415 71.384 11.6503C71.3838 11.6592 71.3837 11.668 71.3835 11.6769C71.3834 11.6857 71.3832 11.6946 71.383 11.7034C71.3829 11.7123 71.3827 11.7211 71.3826 11.73C71.3824 11.7388 71.3823 11.7477 71.3821 11.7565C71.382 11.7654 71.3818 11.7742 71.3817 11.7831C71.3815 11.7919 71.3814 11.8008 71.3812 11.8096C71.3811 11.8185 71.3809 11.8273 71.3808 11.8362C71.3806 11.845 71.3805 11.8539 71.3803 11.8627C71.3801 11.8716 71.38 11.8804 71.3798 11.8893C71.3797 11.8981 71.3795 11.907 71.3794 11.9158C71.3792 11.9247 71.3791 11.9335 71.3789 11.9424C71.3788 11.9512 71.3786 11.9601 71.3785 11.9689C71.3783 11.9778 71.3782 11.9866 71.378 11.9955C71.3779 12.0043 71.3777 12.0132 71.3776 12.022C71.3774 12.0309 71.3773 12.0397 71.3771 12.0486C71.3769 12.0574 71.3768 12.0663 71.3766 12.0751C71.3765 12.084 71.3763 12.0928 71.3762 12.1017C71.376 12.1105 71.3759 12.1194 71.3757 12.1282C71.3756 12.1371 71.3754 12.1459 71.3753 12.1548C71.3751 12.1636 71.375 12.1725 71.3748 12.1813C71.3747 12.1902 71.3745 12.199 71.3744 12.2079C71.3742 12.2167 71.374 12.2256 71.3739 12.2344C71.3737 12.2433 71.3736 12.2521 71.3734 12.261C71.3733 12.2698 71.3731 12.2787 71.373 12.2875C71.3728 12.2964 71.3727 12.3052 71.3725 12.3141C71.3724 12.3229 71.3722 12.3318 71.3721 12.3406C71.3719 12.3495 71.3718 12.3583 71.3716 12.3672C71.3715 12.376 71.3713 12.3849 71.3711 12.3937C71.371 12.4026 71.3708 12.4114 71.3707 12.4203C71.3705 12.4291 71.3704 12.438 71.3702 12.4468C71.3701 12.4557 71.3699 12.4645 71.3698 12.4734C71.3696 12.4822 71.3695 12.4911 71.3693 12.4999C71.3692 12.5088 71.369 12.5176 71.3689 12.5265C71.3687 12.5353 71.3686 12.5442 71.3684 12.553C71.3682 12.5619 71.3681 12.5707 71.3679 12.5796C71.3678 12.5884 71.3676 12.5973 71.3675 12.6061C71.3673 12.615 71.3672 12.6238 71.367 12.6327C71.3669 12.6415 71.3667 12.6504 71.3666 12.6592C71.3664 12.6681 71.3663 12.6769 71.3661 12.6858C71.366 12.6946 71.3658 12.7035 71.3657 12.7123C71.3655 12.7212 71.3653 12.73 71.3652 12.7389C71.365 12.7477 71.3649 12.7566 71.3647 12.7654C71.3646 12.7743 71.3644 12.7831 71.3643 12.792C71.3641 12.8008 71.364 12.8097 71.3638 12.8185C71.3637 12.8274 71.3635 12.8362 71.3634 12.8451C71.3632 12.854 71.3631 12.8628 71.3629 12.8717C71.3628 12.8805 71.3626 12.8894 71.3624 12.8982C71.3623 12.9071 71.3621 12.9159 71.362 12.9248C71.3618 12.9336 71.3617 12.9425 71.3615 12.9513C71.3614 12.9602 71.3612 12.969 71.3611 12.9779C71.3609 12.9867 71.3608 12.9956 71.3606 13.0044C71.3605 13.0133 71.3603 13.0221 71.3602 13.031C71.36 13.0398 71.3599 13.0487 71.3597 13.0575C71.3596 13.0664 71.3594 13.0752 71.3592 13.0841C71.3591 13.0929 71.3589 13.1018 71.3588 13.1106C71.3586 13.1195 71.3585 13.1283 71.3583 13.1372C71.3582 13.146 71.358 13.1549 71.3579 13.1637C71.3577 13.1726 71.3576 13.1814 71.3574 13.1903C71.3573 13.1991 71.3571 13.208 71.357 13.2168C71.3568 13.2257 71.3567 13.2345 71.3565 13.2434C71.3563 13.2522 71.3562 13.2611 71.356 13.2699C71.3559 13.2788 71.3557 13.2876 71.3556 13.2965C71.3554 13.3053 71.3553 13.3142 71.3551 13.323C71.355 13.3319 71.3548 13.3407 71.3547 13.3496C71.3545 13.3584 71.3544 13.3673 71.3542 13.3761C71.3541 13.385 71.3539 13.3938 71.3538 13.4027C71.3536 13.4115 71.3534 13.4204 71.3533 13.4292C71.3531 13.4381 71.353 13.4469 71.3528 13.4558C71.3527 13.4646 71.3525 13.4735 71.3524 13.4823C71.3522 13.4912 71.3521 13.5 71.3519 13.5089C71.3518 13.5177 71.3516 13.5266 71.3515 13.5354C71.3513 13.5443 71.3512 13.5531 71.351 13.562C71.3509 13.5708 71.3507 13.5797 71.3505 13.5885C71.3504 13.5974 71.3502 13.6062 71.3501 13.6151C71.3499 13.6239 71.3498 13.6328 71.3496 13.6416C71.3495 13.6505 71.3493 13.6593 71.3492 13.6682C71.349 13.677 71.3489 13.6859 71.3487 13.6947C71.3486 13.7036 71.3484 13.7124 71.3483 13.7213C71.3481 13.7301 71.348 13.739 71.3478 13.7478C71.3476 13.7567 71.3475 13.7655 71.3473 13.7744C71.3472 13.7832 71.347 13.7921 71.3469 13.8009C71.3467 13.8098 71.3466 13.8186 71.3464 13.8275C71.3463 13.8363 71.3461 13.8452 71.346 13.854C71.3458 13.8629 71.3457 13.8717 71.3455 13.8806C71.3454 13.8894 71.3452 13.8983 71.3451 13.9071C71.3449 13.916 71.3447 13.9248 71.3446 13.9337C71.3444 13.9425 71.3443 13.9514 71.3441 13.9602C71.344 13.9691 71.3438 13.9779 71.3437 13.9868C71.3435 13.9956 71.3434 14.0045 71.3432 14.0133C71.3431 14.0222 71.3429 14.031 71.3428 14.0399C71.3426 14.0487 71.3425 14.0576 71.3423 14.0664C71.3422 14.0753 71.342 14.0841 71.3418 14.093C71.3417 14.1018 71.3415 14.1107 71.3414 14.1195C71.3412 14.1284 71.3411 14.1372 71.3409 14.1461C71.3408 14.1549 71.3406 14.1638 71.3405 14.1726C71.3403 14.1815 71.3402 14.1903 71.34 14.1992C71.3399 14.208 71.3397 14.2169 71.3396 14.2257C71.3394 14.2346 71.3393 14.2434 71.3391 14.2523C71.339 14.2611 71.3388 14.27 71.3386 14.2788C71.3385 14.2877 71.3383 14.2965 71.3382 14.3054C71.338 14.3142 71.3379 14.3231 71.3377 14.3319C71.3376 14.3408 71.3374 14.3496 71.3373 14.3585C71.3371 14.3673 71.337 14.3762 71.3368 14.385C71.3367 14.3939 71.3365 14.4027 71.3364 14.4116C71.3362 14.4204 71.3361 14.4293 71.3359 14.4381C71.3357 14.447 71.3356 14.4558 71.3354 14.4647C71.3353 14.4735 71.3351 14.4824 71.335 14.4912C71.3348 14.5001 71.3347 14.5089 71.3345 14.5178C71.3344 14.5266 71.3342 14.5355 71.3341 14.5443C71.3339 14.5532 71.3338 14.562 71.3336 14.5709C71.3335 14.5797 71.3333 14.5886 71.3332 14.5974C71.333 14.6063 71.3328 14.6151 71.3327 14.624C71.3325 14.6328 71.3324 14.6417 71.3322 14.6505C71.3321 14.6594 71.3319 14.6682 71.3318 14.6771C71.3316 14.6859 71.3315 14.6948 71.3313 14.7036C71.3312 14.7125 71.331 14.7213 71.3309 14.7302C71.3307 14.739 71.3306 14.7479 71.3304 14.7567C71.3303 14.7656 71.3301 14.7744 71.3299 14.7833C71.3298 14.7921 71.3296 14.801 71.3295 14.8098C71.3293 14.8187 71.3292 14.8275 71.329 14.8364C71.3289 14.8452 71.3287 14.8541 71.3286 14.8629C71.3284 14.8718 71.3283 14.8806 71.3281 14.8895C71.328 14.8983 71.3278 14.9072 71.3277 14.916C71.3275 14.9249 71.3274 14.9337 71.3272 14.9426C71.327 14.9514 71.3269 14.9603 71.3267 14.9691C71.3266 14.978 71.3264 14.9868 71.3263 14.9957C71.3261 15.0045 71.326 15.0134 71.3258 15.0222C71.3257 15.0311 71.3255 15.0399 71.3254 15.0488C71.3252 15.0576 71.3251 15.0665 71.3249 15.0753C71.3248 15.0842 71.3246 15.093 71.3245 15.1019C71.3243 15.1107 71.3241 15.1196 71.324 15.1284C71.3238 15.1373 71.3237 15.1461 71.3235 15.155C71.3234 15.1638 71.3232 15.1727 71.3231 15.1815C71.3229 15.1904 71.3228 15.1992 71.3226 15.2081C71.3225 15.2169 71.3223 15.2258 71.3222 15.2346C71.322 15.2435 71.3219 15.2523 71.3217 15.2612C71.3216 15.27 71.3214 15.2789 71.3213 15.2877C71.3211 15.2966 71.3209 15.3054 71.3208 15.3143C71.3206 15.3231 71.3205 15.332 71.3203 15.3408C71.3202 15.3497 71.32 15.3585 71.3199 15.3674C71.3197 15.3762 71.3196 15.3851 71.3194 15.3939C71.3193 15.4028 71.3191 15.4116 71.319 15.4205C71.3188 15.4293 71.3187 15.4382 71.3185 15.447C71.3184 15.4559 71.3182 15.4647 71.318 15.4736C71.3179 15.4824 71.3177 15.4913 71.3176 15.5001C71.3174 15.509 71.3173 15.5178 71.3171 15.5267C71.317 15.5355 71.3168 15.5444 71.3167 15.5532C71.3165 15.5621 71.3164 15.5709 71.3162 15.5798C71.3161 15.5886 71.3159 15.5975 71.3158 15.6063C71.3156 15.6152 71.3155 15.624 71.3153 15.6329C71.3151 15.6417 71.315 15.6506 71.3148 15.6594C71.3147 15.6683 71.3145 15.6771 71.3144 15.686C71.3142 15.6948 71.3141 15.7037 71.3139 15.7125C71.3138 15.7214 71.3136 15.7302 71.3135 15.7391C71.3133 15.7479 71.3132 15.7568 71.313 15.7656C71.3129 15.7745 71.3127 15.7833 71.3126 15.7922C71.3124 15.801 71.3122 15.8099 71.3121 15.8187C71.3119 15.8276 71.3118 15.8364 71.3116 15.8453C71.3115 15.8541 71.3113 15.863 71.3112 15.8718C71.311 15.8807 71.3109 15.8895 71.3107 15.8984C71.3106 15.9072 71.3104 15.9161 71.3103 15.9249C71.3101 15.9338 71.31 15.9426 71.3098 15.9515C71.3097 15.9603 71.3095 15.9692 71.3093 15.978C71.3092 15.9869 71.309 15.9957 71.3089 16.0046C71.3087 16.0134 71.3086 16.0223 71.3084 16.0311C71.3083 16.04 71.3081 16.0488 71.308 16.0577C71.3078 16.0665 71.3077 16.0754 71.3075 16.0842C71.3074 16.0931 71.3072 16.1019 71.3071 16.1108C71.3069 16.1196 71.3068 16.1285 71.3066 16.1373C71.3064 16.1462 71.3063 16.155 71.3061 16.1639C71.306 16.1727 71.3058 16.1816 71.3057 16.1904C71.3055 16.1993 71.3054 16.2081 71.3052 16.217C71.3051 16.2258 71.3049 16.2347 71.3048 16.2435C71.3046 16.2524 71.3045 16.2612 71.3043 16.2701C71.3042 16.2789 71.304 16.2878 71.3039 16.2966C71.3037 16.3055 71.3036 16.3143 71.3034 16.3232C71.3032 16.332 71.3031 16.3409 71.3029 16.3497C71.3028 16.3586 71.3026 16.3674 71.3025 16.3763C71.3023 16.3851 71.3022 16.394 71.302 16.4028C71.3019 16.4117 71.3017 16.4205 71.3016 16.4294C71.3014 16.4382 71.3013 16.4471 71.3011 16.4559C71.301 16.4648 71.3008 16.4736 71.3007 16.4825C71.3005 16.4913 71.3003 16.5002 71.3002 16.509C71.3 16.5179 71.2999 16.5267 71.2997 16.5356C71.2996 16.5444 71.2994 16.5533 71.2993 16.5621C71.2991 16.571 71.299 16.5798 71.2988 16.5887C71.2987 16.5975 71.2985 16.6064 71.2984 16.6152C71.2982 16.6241 71.2981 16.6329 71.2979 16.6418C71.2978 16.6506 71.2976 16.6595 71.2974 16.6683C71.2973 16.6772 71.2971 16.686 71.297 16.6949C71.2968 16.7037 71.2967 16.7126 71.2965 16.7214C71.2964 16.7303 71.2962 16.7391 71.2961 16.748C71.2959 16.7568 71.2958 16.7657 71.2956 16.7745C71.2955 16.7834 71.2953 16.7922 71.2952 16.8011C71.295 16.8099 71.2949 16.8188 71.2947 16.8276C71.2945 16.8365 71.2944 16.8453 71.2942 16.8542C71.2941 16.863 71.2939 16.8719 71.2938 16.8807C71.2936 16.8896 71.2935 16.8984 71.2933 16.9073C71.2932 16.9161 71.293 16.925 71.2929 16.9338C71.2927 16.9427 71.2926 16.9515 71.2924 16.9604C71.2923 16.9692 71.2921 16.9781 71.292 16.9869C71.2918 16.9958 71.2916 17.0046 71.2915 17.0135C71.2913 17.0223 71.2912 17.0312 71.291 17.04C71.2909 17.0489 71.2907 17.0577 71.2906 17.0666C71.2904 17.0754 71.2903 17.0843 71.2901 17.0931C71.29 17.102 71.2898 17.1108 71.2897 17.1197C71.2895 17.1285 71.2894 17.1374 71.2892 17.1462C71.2891 17.1551 71.2889 17.1639 71.2887 17.1728C71.2886 17.1816 71.2884 17.1905 71.2883 17.1993C71.2881 17.2082 71.288 17.217 71.2878 17.2259C71.2877 17.2347 71.2875 17.2436 71.2874 17.2524C71.2872 17.2613 71.2871 17.2701 71.2869 17.279C71.2868 17.2878 71.2866 17.2967 71.2865 17.3055C71.2863 17.3144 71.2862 17.3232 71.286 17.3321C71.2859 17.3409 71.2857 17.3498 71.2855 17.3586C71.2854 17.3675 71.2852 17.3764 71.2851 17.3852C71.2849 17.3941 71.2848 17.4029 71.2846 17.4118C71.2845 17.4206 71.2843 17.4295 71.2842 17.4383C71.284 17.4472 71.2839 17.456 71.2837 17.4649C71.2836 17.4737 71.2834 17.4826 71.2833 17.4914C71.2831 17.5003 71.283 17.5091 71.2828 17.518C71.2826 17.5268 71.2825 17.5357 71.2823 17.5445C71.2822 17.5534 71.282 17.5622 71.2819 17.5711C71.2817 17.5799 71.2816 17.5888 71.2814 17.5976C71.2813 17.6065 71.2811 17.6153 71.281 17.6242C71.2808 17.633 71.2807 17.6419 71.2805 17.6507C71.2804 17.6596 71.2802 17.6684 71.2801 17.6773C71.2799 17.6861 71.2797 17.695 71.2796 17.7038C71.2794 17.7127 71.2793 17.7215 71.2791 17.7304C71.279 17.7392 71.2788 17.7481 71.2787 17.7569C71.2785 17.7658 71.2784 17.7746 71.2782 17.7835C71.2781 17.7923 71.2779 17.8012 71.2778 17.81C71.2776 17.8189 71.2775 17.8277 71.2773 17.8366C71.2772 17.8454 71.277 17.8543 71.2768 17.8631C71.2767 17.872 71.2765 17.8808 71.2764 17.8897C71.2762 17.8985 71.2761 17.9074 71.2759 17.9162C71.2758 17.9251 71.2756 17.9339 71.2755 17.9428C71.2753 17.9516 71.2752 17.9605 71.275 17.9693C71.2749 17.9782 71.2747 17.987 71.2746 17.9959C71.2744 18.0047 71.2743 18.0136 71.2741 18.0224C71.2739 18.0313 71.2738 18.0401 71.2736 18.049C71.2735 18.0578 71.2733 18.0667 71.2732 18.0755C71.273 18.0844 71.2729 18.0932 71.2727 18.1021C71.2726 18.1109 71.2724 18.1198 71.2723 18.1286C71.2721 18.1375 71.272 18.1463 71.2718 18.1552C71.2717 18.164 71.2715 18.1729 71.2714 18.1817C71.2712 18.1906 71.271 18.1994 71.2709 18.2083C71.2707 18.2171 71.2706 18.226 71.2704 18.2348C71.2703 18.2437 71.2701 18.2525 71.27 18.2614C71.2698 18.2702 71.2697 18.2791 71.2695 18.2879C71.2694 18.2968 71.2692 18.3056 71.2691 18.3145C71.2689 18.3233 71.2688 18.3322 71.2686 18.341C71.2685 18.3499 71.2683 18.3587 71.2681 18.3676C71.268 18.3764 71.2678 18.3853 71.2677 18.3941C71.2675 18.403 71.2674 18.4118 71.2672 18.4207C71.2671 18.4295 71.2669 18.4384 71.2668 18.4472C71.2666 18.4561 71.2665 18.4649 71.2663 18.4738C71.2662 18.4826 71.266 18.4915 71.2659 18.5003C71.2657 18.5092 71.2656 18.518 71.2654 18.5269C71.2653 18.5357 71.2651 18.5446 71.2649 18.5534C71.2648 18.5623 71.2646 18.5711 71.2645 18.58C71.2643 18.5888 71.2642 18.5977 71.264 18.6065C71.2639 18.6154 71.2637 18.6242 71.2636 18.6331C71.2634 18.6419 71.2633 18.6508 71.2631 18.6596C71.263 18.6685 71.2628 18.6773 71.2627 18.6862C71.2625 18.695 71.2624 18.7039 71.2622 18.7127C71.262 18.7216 71.2619 18.7304 71.2617 18.7393C71.2616 18.7481 71.2614 18.757 71.2613 18.7658C71.2611 18.7747 71.261 18.7835 71.2608 18.7924C71.2607 18.8012 71.2605 18.8101 71.2604 18.8189C71.2602 18.8278 71.2601 18.8366 71.2599 18.8455C71.2598 18.8543 71.2596 18.8632 71.2595 18.872C71.2593 18.8809 71.2591 18.8897 71.259 18.8986C71.2588 18.9074 71.2587 18.9163 71.2585 18.9251C71.2584 18.934 71.2582 18.9428 71.2581 18.9517C71.2579 18.9605 71.2578 18.9694 71.2576 18.9782C71.2575 18.9871 71.2573 18.9959 71.2572 19.0048C71.257 19.0136 71.2569 19.0225 71.2567 19.0313C71.2566 19.0402 71.2564 19.049 71.2562 19.0579C71.2561 19.0667 71.2559 19.0756 71.2558 19.0844C71.2556 19.0933 71.2555 19.1021 71.2553 19.111C71.2552 19.1198 71.255 19.1287 71.2549 19.1375C71.2547 19.1464 71.2546 19.1552 71.2544 19.1641C71.2543 19.1729 71.2541 19.1818 71.254 19.1906C71.2538 19.1995 71.2537 19.2083 71.2535 19.2172C71.2533 19.226 71.2532 19.2349 71.253 19.2437C71.2529 19.2526 71.2527 19.2614 71.2526 19.2703C71.2524 19.2791 71.2523 19.288 71.2521 19.2968C71.252 19.3057 71.2518 19.3145 71.2517 19.3234C71.2515 19.3322 71.2514 19.3411 71.2512 19.3499C71.2511 19.3588 71.2509 19.3676 71.2508 19.3765C71.2506 19.3853 71.2504 19.3942 71.2503 19.403C71.2501 19.4119 71.25 19.4207 71.2498 19.4296C71.2497 19.4384 71.2495 19.4473 71.2494 19.4561C71.2492 19.465 71.2491 19.4738 71.2489 19.4827C71.2488 19.4915 71.2486 19.5004 71.2485 19.5092C71.2483 19.5181 71.2482 19.5269 71.248 19.5358C71.2479 19.5446 71.2477 19.5535 71.2476 19.5623C71.2474 19.5712 71.2472 19.58 71.2471 19.5889C71.2469 19.5977 71.2468 19.6066 71.2466 19.6154C71.2465 19.6243 71.2463 19.6331 71.2462 19.642C71.246 19.6508 71.2459 19.6597 71.2457 19.6685C71.2456 19.6774 71.2454 19.6862 71.2453 19.6951C71.2451 19.7039 71.245 19.7128 71.2448 19.7216C71.2447 19.7305 71.2445 19.7393 71.2443 19.7482C71.2442 19.757 71.244 19.7659 71.2439 19.7747C71.2437 19.7836 71.2436 19.7924 71.2434 19.8013C71.2433 19.8101 71.2431 19.819 71.243 19.8278C71.2428 19.8367 71.2427 19.8455 71.2425 19.8544C71.2424 19.8632 71.2422 19.8721 71.2421 19.8809C71.2419 19.8898 71.2418 19.8986 71.2416 19.9075C71.2414 19.9163 71.2413 19.9252 71.2411 19.934C71.241 19.9429 71.2408 19.9517 71.2407 19.9606C71.2405 19.9694 71.2404 19.9783 71.2402 19.9871C71.2401 19.996 71.2399 20.0048 71.2398 20.0137C71.2396 20.0225 71.2395 20.0314 71.2393 20.0402C71.2392 20.0491 71.239 20.0579 71.2389 20.0668C71.2387 20.0756 71.2385 20.0845 71.2384 20.0933C71.2382 20.1022 71.2381 20.111 71.2379 20.1199C71.2378 20.1287 71.2376 20.1376 71.2375 20.1464C71.2373 20.1553 71.2372 20.1641 71.237 20.173C71.2369 20.1818 71.2367 20.1907 71.2366 20.1995C71.2364 20.2084 71.2363 20.2172 71.2361 20.2261C71.236 20.2349 71.2358 20.2438 71.2356 20.2526C71.2355 20.2615 71.2353 20.2703 71.2352 20.2792C71.235 20.288 71.2349 20.2969 71.2347 20.3057C71.2346 20.3146 71.2344 20.3234 71.2343 20.3323C71.2341 20.3411 71.234 20.35 71.2338 20.3588C71.2337 20.3677 71.2335 20.3765 71.2334 20.3854C71.2332 20.3942 71.2331 20.4031 71.2329 20.4119C71.2327 20.4208 71.2326 20.4296 71.2324 20.4385C71.2323 20.4473 71.2321 20.4562 71.232 20.465C71.2318 20.4739 71.2317 20.4827 71.2315 20.4916C71.2314 20.5004 71.2312 20.5093 71.2311 20.5181C71.2309 20.527 71.2308 20.5358 71.2306 20.5447C71.2305 20.5535 71.2303 20.5624 71.2302 20.5712C71.23 20.5801 71.2299 20.5889 71.2297 20.5978C71.2295 20.6066 71.2294 20.6155 71.2292 20.6243C71.2291 20.6332 71.2289 20.642 71.2288 20.6509C71.2286 20.6597 71.2285 20.6686 71.2283 20.6774C71.2282 20.6863 71.228 20.6951 71.2279 20.704C71.2277 20.7128 71.2276 20.7217 71.2274 20.7305C71.2273 20.7394 71.2271 20.7482 71.227 20.7571C71.2268 20.7659 71.2266 20.7748 71.2265 20.7836C71.2263 20.7925 71.2262 20.8013 71.226 20.8102C71.2259 20.819 71.2257 20.8279 71.2256 20.8367C71.2254 20.8456 71.2253 20.8544 71.2251 20.8633C71.225 20.8721 71.2248 20.881 71.2247 20.8898C71.2245 20.8987 71.2244 20.9075 71.2242 20.9164C71.2241 20.9252 71.2239 20.9341 71.2237 20.9429C71.2236 20.9518 71.2234 20.9606 71.2233 20.9695C71.2231 20.9783 71.223 20.9872 71.2228 20.996C71.2227 21.0049 71.2225 21.0137 71.2224 21.0226C71.2222 21.0314 71.2221 21.0403 71.2219 21.0491C71.2218 21.058 71.2216 21.0668 71.2215 21.0757C71.2213 21.0845 71.2212 21.0934 71.221 21.1022C71.2208 21.1111 71.2207 21.1199 71.2205 21.1288C71.2204 21.1376 71.2202 21.1465 71.2201 21.1553C71.2199 21.1642 71.2198 21.173 71.2196 21.1819C71.2195 21.1907 71.2193 21.1996 71.2192 21.2084C71.219 21.2173 71.2189 21.2261 71.2187 21.235C71.2186 21.2438 71.2184 21.2527 71.2183 21.2615C71.2181 21.2704 71.2179 21.2792 71.2178 21.2881C71.2176 21.2969 71.2175 21.3058 71.2173 21.3146C71.2172 21.3235 71.217 21.3323 71.2169 21.3412C71.2167 21.35 71.2166 21.3589 71.2164 21.3677C71.2163 21.3766 71.2161 21.3854 71.216 21.3943C71.2158 21.4031 71.2157 21.412 71.2155 21.4208C71.2154 21.4297 71.2152 21.4385 71.215 21.4474C71.2149 21.4562 71.2147 21.4651 71.2146 21.4739C71.2144 21.4828 71.2143 21.4916 71.2141 21.5005C71.214 21.5093 71.2138 21.5182 71.2137 21.527C71.2135 21.5359 71.2134 21.5447 71.2132 21.5536C71.2131 21.5624 71.2129 21.5713 71.2128 21.5801C71.2126 21.589 71.2125 21.5978 71.2123 21.6067C71.2122 21.6155 71.212 21.6244 71.2118 21.6332C71.2117 21.6421 71.2115 21.6509 71.2114 21.6598C71.2112 21.6686 71.2111 21.6775 71.2109 21.6863C71.2108 21.6952 71.2106 21.704 71.2105 21.7129C71.2103 21.7217 71.2102 21.7306 71.21 21.7394C71.2099 21.7483 71.2097 21.7571 71.2096 21.766C71.2094 21.7748 71.2093 21.7837 71.2091 21.7925C71.2089 21.8014 71.2088 21.8102 71.2086 21.8191C71.2085 21.8279 71.2083 21.8368 71.2082 21.8456C71.208 21.8545 71.2079 21.8633 71.2077 21.8722C71.2076 21.881 71.2074 21.8899 71.2073 21.8987C71.2071 21.9076 71.207 21.9165 71.2068 21.9253C71.2067 21.9342 71.2065 21.943 71.2064 21.9519C71.2062 21.9607 71.206 21.9696 71.2059 21.9784C71.2057 21.9873 71.2056 21.9961 71.2054 22.005C71.2053 22.0138 71.2051 22.0227 71.205 22.0315C71.2048 22.0404 71.2047 22.0492 71.2045 22.0581C71.2044 22.0669 71.2042 22.0758 71.2041 22.0846C71.2039 22.0935 71.2038 22.1023 71.2036 22.1112C71.2035 22.12 71.2033 22.1289 71.2031 22.1377C71.203 22.1466 71.2028 22.1554 71.2027 22.1643C71.2025 22.1731 71.2024 22.182 71.2022 22.1908C71.2021 22.1997 71.2019 22.2085 71.2018 22.2174C71.2016 22.2262 71.2015 22.2351 71.2013 22.2439C71.2012 22.2528 71.201 22.2616 71.2009 22.2705C71.2007 22.2793 71.2006 22.2882 71.2004 22.297C71.2002 22.3059 71.2001 22.3147 71.1999 22.3236C71.1998 22.3324 71.1996 22.3413 71.1995 22.3501C71.1993 22.359 71.1992 22.3678 71.199 22.3767C71.1989 22.3855 71.1987 22.3944 71.1986 22.4032C71.1984 22.4121 71.1983 22.4209 71.1981 22.4298C71.198 22.4386 71.1978 22.4475 71.1977 22.4563C71.1975 22.4652 71.1973 22.474 71.1972 22.4829C71.197 22.4917 71.1969 22.5006 71.1967 22.5094C71.1966 22.5183 71.1964 22.5271 71.1963 22.536C71.1961 22.5448 71.196 22.5537 71.1958 22.5625C71.1957 22.5714 71.1955 22.5802 71.1954 22.5891C71.1952 22.5979 71.1951 22.6068 71.1949 22.6156C71.1948 22.6245 71.1946 22.6333 71.1945 22.6422C71.1943 22.651 71.1941 22.6599 71.194 22.6687C71.1938 22.6776 71.1937 22.6864 71.1935 22.6953C71.1934 22.7041 71.1932 22.713 71.1931 22.7218C71.1929 22.7307 71.1928 22.7395 71.1926 22.7484C71.1925 22.7572 71.1923 22.7661 71.1922 22.7749C71.192 22.7838 71.1919 22.7926 71.1917 22.8015L75.1911 22.8704ZM73.8648 11.1934L81.6773 9.43559L80.7993 5.53316L72.9868 7.29097L73.8648 11.1934ZM79.2562 7.2172L75.8968 32.1391L79.861 32.6734L83.2204 7.75155L79.2562 7.2172ZM77.8789 34.4062H77.918V30.4062H77.8789V34.4062ZM79.8635 32.8696L85.5667 8.92432L81.6755 7.99755L75.9724 31.9429L79.8635 32.8696ZM83.9798 10.4285L91.0501 9.13944L90.3327 5.20431L83.2624 6.49337L83.9798 10.4285ZM95.1445 14.2422L94.8314 12.2669L93.5591 12.4686L93.2165 13.7103L95.1445 14.2422ZM94.5977 16.4688L92.6421 16.0497L92.6392 16.0631L92.6365 16.0765L94.5977 16.4688ZM94.168 18.6172L92.2068 18.225L91.6107 21.2053L94.5837 20.5735L94.168 18.6172ZM100.418 17.2891L102.414 17.4192L102.586 14.7838L100.002 15.3327L100.418 17.2891ZM100.066 22.6797L100.412 24.6496L101.96 24.378L102.062 22.8098L100.066 22.6797ZM93.0742 24.0469L92.6245 22.0981L91.3663 22.3884L91.1131 23.6546L93.0742 24.0469ZM92.8008 25.6094L94.7693 25.9627L94.7744 25.9344L94.7787 25.9061L92.8008 25.6094ZM92.5273 27.1328L90.5588 26.7795L90.0686 29.5107L92.8147 29.1121L92.5273 27.1328ZM99.793 26.0781L101.788 26.2176L101.961 23.7424L99.5057 24.0989L99.793 26.0781ZM99.2852 33.3438L99.4512 35.3368L101.161 35.1944L101.28 33.4832L99.2852 33.3438ZM85.0273 36.0391L83.0543 35.7116L82.5512 38.7432L85.5268 37.9757L85.0273 36.0391ZM89.6758 8.03125L89.3904 6.05171L87.9423 6.26045L87.7028 7.70379L89.6758 8.03125ZM102.684 6.15625L104.679 6.29644L104.852 3.82295L102.398 4.17671L102.684 6.15625ZM102.176 13.3828L102.359 15.3744L104.052 15.219L104.171 13.523L102.176 13.3828ZM93.2165 13.7103C92.9984 14.501 92.8068 15.2808 92.6421 16.0497L96.5533 16.8878C96.701 16.1983 96.874 15.4938 97.0725 14.774L93.2165 13.7103ZM92.6365 16.0765L92.2068 18.225L96.1291 19.0094L96.5588 16.861L92.6365 16.0765ZM94.5837 20.5735L100.834 19.2454L100.002 15.3327L93.7523 16.6609L94.5837 20.5735ZM98.4222 17.1589L98.0706 22.5495L102.062 22.8098L102.414 17.4192L98.4222 17.1589ZM99.7208 20.7098C96.7385 21.233 94.3678 21.6958 92.6245 22.0981L93.5239 25.9957C95.1661 25.6167 97.4569 25.168 100.412 24.6496L99.7208 20.7098ZM91.1131 23.6546C91.0026 24.2069 90.9059 24.7596 90.8229 25.3127L94.7787 25.9061C94.8519 25.4175 94.9375 24.9285 95.0354 24.4391L91.1131 23.6546ZM90.8322 25.256L90.5588 26.7795L94.4959 27.4861L94.7693 25.9627L90.8322 25.256ZM92.8147 29.1121L100.08 28.0574L99.5057 24.0989L92.24 25.1536L92.8147 29.1121ZM97.7978 25.9387L97.29 33.2043L101.28 33.4832L101.788 26.2176L97.7978 25.9387ZM99.1191 31.3507C95.2114 31.6763 90.3375 32.604 84.5279 34.1024L85.5268 37.9757C91.2276 36.5053 95.8589 35.6362 99.4512 35.3368L99.1191 31.3507ZM87.0004 36.3665L91.6488 8.35871L87.7028 7.70379L83.0543 35.7116L87.0004 36.3665ZM89.9611 10.0108L102.969 8.13579L102.398 4.17671L89.3904 6.05171L89.9611 10.0108ZM100.689 6.01606L100.181 13.2426L104.171 13.523L104.679 6.29644L100.689 6.01606ZM101.993 11.3912C99.4049 11.6289 97.017 11.9203 94.8314 12.2669L95.4577 16.2175C97.5429 15.8869 99.8425 15.6055 102.359 15.3744L101.993 11.3912ZM108.699 32.4844L110.565 31.7642L110.56 31.7501L110.554 31.736L108.699 32.4844ZM108.621 21.7422L110.556 22.25L110.559 22.2372L108.621 21.7422ZM113.504 11.9375L115.074 13.1768L115.078 13.1716L113.504 11.9375ZM128.465 11.1172L129.927 12.4814L130.771 11.5771L130.339 10.4184L128.465 11.1172ZM124.129 15.7656L122.465 16.875L123.867 18.9784L125.591 17.1298L124.129 15.7656ZM117.059 18.3828L115.373 17.3067L115.369 17.3121L117.059 18.3828ZM114.441 24.5156L116.375 25.0274L116.377 25.0194L116.379 25.0113L114.441 24.5156ZM114.91 29.4766L116.456 28.2071L116.449 28.1986L116.442 28.1902L114.91 29.4766ZM120.809 28.8906L119.352 27.5199L119.344 27.5284L120.809 28.8906ZM122.84 25.5312L124.707 26.2492L126.015 22.8469L122.443 23.5711L122.84 25.5312ZM117.488 26.7422L115.533 26.3195L114.851 29.4754L117.981 28.6806L117.488 26.7422ZM118.738 20.9609L118.325 19.0042L117.057 19.272L116.783 20.5383L118.738 20.9609ZM129.09 18.7734L131.089 18.7119L131.015 16.3224L128.676 16.8167L129.09 18.7734ZM127.996 24.5938L129.875 25.2793L129.88 25.2664L127.996 24.5938ZM125.379 29.9062L127.056 30.9962L127.059 30.9905L125.379 29.9062ZM114.559 34.9375C113.558 34.9375 112.819 34.6768 112.234 34.2319C111.628 33.7715 111.043 33.0036 110.565 31.7642L106.833 33.2045C107.501 34.9339 108.466 36.3925 109.813 37.4165C111.181 38.456 112.799 38.9375 114.559 38.9375V34.9375ZM110.554 31.736C110.065 30.5234 109.801 29.1162 109.801 27.4844H105.801C105.801 29.5505 106.136 31.4766 106.845 33.2328L110.554 31.736ZM109.801 27.4844C109.801 25.9455 110.042 24.2046 110.556 22.25L106.687 21.2344C106.106 23.4464 105.801 25.5337 105.801 27.4844H109.801ZM110.559 22.2372C111.399 18.9481 112.898 15.9321 115.074 13.1768L111.934 10.6982C109.422 13.8804 107.666 17.4009 106.683 21.2471L110.559 22.2372ZM115.078 13.1716C117.71 9.8147 120.212 8.50781 122.566 8.50781V4.50781C118.515 4.50781 114.975 6.82072 111.93 10.7034L115.078 13.1716ZM122.566 8.50781C123.568 8.50781 124.309 8.77469 124.899 9.23605C125.513 9.71587 126.107 10.5193 126.591 11.816L130.339 10.4184C129.676 8.64215 128.714 7.1409 127.362 6.08427C125.987 5.00916 124.351 4.50781 122.566 4.50781V8.50781ZM127.002 9.75299L122.666 14.4014L125.591 17.1298L129.927 12.4814L127.002 9.75299ZM125.793 14.6562C124.92 13.3468 123.576 12.7109 122.059 12.7109V16.7109C122.254 16.7109 122.334 16.7474 122.352 16.7567C122.364 16.7628 122.403 16.7821 122.465 16.875L125.793 14.6562ZM122.059 12.7109C119.253 12.7109 117.061 14.6616 115.373 17.3067L118.744 19.4589C120.181 17.2082 121.323 16.7109 122.059 16.7109V12.7109ZM115.369 17.3121C114.079 19.3483 113.126 21.5883 112.504 24.02L116.379 25.0113C116.903 22.9638 117.695 21.1153 118.748 19.4535L115.369 17.3121ZM112.508 24.0038C112.242 25.0089 112.09 25.9796 112.09 26.8984H116.09C116.09 26.411 116.172 25.7932 116.375 25.0274L112.508 24.0038ZM112.09 26.8984C112.09 28.313 112.458 29.667 113.379 30.7629L116.442 28.1902C116.268 27.984 116.09 27.6193 116.09 26.8984H112.09ZM113.365 30.746C114.396 32.0021 115.833 32.5703 117.41 32.5703V28.5703C116.852 28.5703 116.622 28.4094 116.456 28.2071L113.365 30.746ZM117.41 32.5703C119.322 32.5703 120.954 31.6709 122.273 30.2528L119.344 27.5284C118.58 28.3499 117.946 28.5703 117.41 28.5703V32.5703ZM122.265 30.2614C123.307 29.1543 124.11 27.7997 124.707 26.2492L120.973 24.8133C120.528 25.9711 119.977 26.8561 119.352 27.5199L122.265 30.2614ZM122.443 23.5711C120.489 23.9672 118.673 24.3779 116.996 24.8037L117.981 28.6806C119.585 28.2731 121.337 27.8766 123.237 27.4914L122.443 23.5711ZM119.443 27.1649L120.693 21.3836L116.783 20.5383L115.533 26.3195L119.443 27.1649ZM119.152 22.9177L129.503 20.7302L128.676 16.8167L118.325 19.0042L119.152 22.9177ZM127.091 18.8349C127.133 20.2038 126.839 21.8873 126.113 23.9211L129.88 25.2664C130.716 22.9252 131.151 20.7285 131.089 18.7119L127.091 18.8349ZM126.117 23.9082C125.462 25.7048 124.654 27.3407 123.698 28.822L127.059 30.9905C128.187 29.2427 129.124 27.3368 129.875 25.2793L126.117 23.9082ZM123.702 28.8163C120.884 33.1517 117.826 34.9375 114.559 34.9375V38.9375C119.624 38.9375 123.78 36.0358 127.056 30.9962L123.702 28.8163ZM147.84 10.0625L145.966 10.7613L145.968 10.7681L147.84 10.0625ZM147.918 21.2344L149.852 21.7454L149.854 21.738L149.855 21.7306L147.918 21.2344ZM142.918 31.3125L141.334 30.0911L141.334 30.0915L142.918 31.3125ZM127.801 32.3281L125.931 33.0374L125.932 33.0408L127.801 32.3281ZM127.801 21.2344L129.734 21.7468L129.735 21.742L127.801 21.2344ZM132.762 11.1172L131.174 9.90147L131.171 9.90429L132.762 11.1172ZM136.199 18.6562L137.878 19.7437L137.883 19.7351L137.889 19.7264L136.199 18.6562ZM133.699 24.0859L131.766 23.5742L131.762 23.5875L131.759 23.6009L133.699 24.0859ZM134.129 29.2422L132.544 30.4616L132.553 30.4734L132.562 30.485L134.129 29.2422ZM140.574 28.0703L138.986 26.8542L138.984 26.8574L140.574 28.0703ZM142.605 23.7344L140.667 23.2432L140.665 23.2493L142.605 23.7344ZM142.918 17.9531L144.896 17.6551L144.893 17.6397L144.891 17.6243L142.918 17.9531ZM141.98 7.45312C142.965 7.45312 143.694 7.71734 144.279 8.17738C144.889 8.65694 145.481 9.4616 145.966 10.7613L149.714 9.36374C149.053 7.59048 148.096 6.09046 146.752 5.03356C145.384 3.95714 143.757 3.45312 141.98 3.45312V7.45312ZM145.968 10.7681C146.473 12.1057 146.738 13.6082 146.738 15.2969H150.738C150.738 13.1835 150.405 11.1963 149.711 9.35689L145.968 10.7681ZM146.738 15.2969C146.738 16.9219 146.494 18.7324 145.98 20.7382L149.855 21.7306C150.436 19.4656 150.738 17.3177 150.738 15.2969H146.738ZM145.984 20.7233C145.091 24.1039 143.546 27.223 141.334 30.0911L144.502 32.5339C147.029 29.2561 148.818 25.6565 149.852 21.7454L145.984 20.7233ZM141.334 30.0915C138.638 33.5887 136.098 34.9375 133.738 34.9375V38.9375C137.837 38.9375 141.416 36.5363 144.502 32.5335L141.334 30.0915ZM133.738 34.9375C132.737 34.9375 131.99 34.6706 131.391 34.2053C130.768 33.7218 130.165 32.914 129.67 31.6155L125.932 33.0408C126.609 34.8151 127.581 36.3121 128.938 37.365C130.317 38.4362 131.954 38.9375 133.738 38.9375V34.9375ZM129.671 31.6188C129.196 30.3683 128.941 28.921 128.941 27.25H124.941C124.941 29.329 125.259 31.2671 125.931 33.0374L129.671 31.6188ZM128.941 27.25C128.941 25.6056 129.197 23.7747 129.734 21.7468L125.868 20.7219C125.259 23.017 124.941 25.1964 124.941 27.25H128.941ZM129.735 21.742C130.631 18.3303 132.165 15.1968 134.352 12.3301L131.171 9.90429C128.67 13.1834 126.898 16.7947 125.866 20.7267L129.735 21.742ZM134.35 12.3329C137.044 8.8134 139.596 7.45312 141.98 7.45312V3.45312C137.854 3.45312 134.261 5.86889 131.174 9.90147L134.35 12.3329ZM140.574 13.1406C138.014 13.1406 136.034 15.1785 134.51 17.5861L137.889 19.7264C139.333 17.4465 140.27 17.1406 140.574 17.1406V13.1406ZM134.521 17.5688C133.23 19.5602 132.298 21.5626 131.766 23.5742L135.633 24.5977C136.038 23.0676 136.772 21.4502 137.878 19.7437L134.521 17.5688ZM131.759 23.6009C131.495 24.6552 131.348 25.6682 131.348 26.625H135.348C135.348 26.0714 135.434 25.3916 135.64 24.571L131.759 23.6009ZM131.348 26.625C131.348 28.0216 131.693 29.3553 132.544 30.4616L135.714 28.0228C135.523 27.7749 135.348 27.3639 135.348 26.625H131.348ZM132.562 30.485C133.585 31.7744 135.026 32.375 136.629 32.375V28.375C136.097 28.375 135.871 28.2204 135.696 27.9994L132.562 30.485ZM136.629 32.375C138.902 32.375 140.748 31.141 142.164 29.2832L138.984 26.8574C138.057 28.0726 137.272 28.375 136.629 28.375V32.375ZM142.162 29.2865C143.284 27.8219 144.07 26.1209 144.546 24.2194L140.665 23.2493C140.307 24.6811 139.74 25.8708 138.986 26.8542L142.162 29.2865ZM144.544 24.2255C145.101 22.0272 145.224 19.8317 144.896 17.6551L140.94 18.2511C141.185 19.8766 141.099 21.5353 140.667 23.2432L144.544 24.2255ZM144.891 17.6243C144.706 16.5149 144.345 15.4166 143.634 14.5634C142.853 13.626 141.776 13.1406 140.574 13.1406V17.1406C140.632 17.1406 140.624 17.15 140.586 17.1323C140.546 17.1141 140.538 17.0968 140.561 17.1241C140.631 17.2084 140.818 17.5164 140.945 18.2819L144.891 17.6243ZM165.027 6.78125L167.026 6.84573L167.101 4.52829L164.798 4.79447L165.027 6.78125ZM164.793 14.0469L164.907 16.0436L166.733 15.9393L166.792 14.1114L164.793 14.0469ZM159.598 14.4375L159.408 12.4465L157.984 12.5822L157.652 13.9739L159.598 14.4375ZM156.121 34.3203L156.625 36.2558L157.974 35.9046L158.111 34.5176L156.121 34.3203ZM149.52 36.0391L147.549 35.6983L147.02 38.7565L150.023 37.9745L149.52 36.0391ZM153.113 15.2578L155.084 15.5986L155.555 12.8742L152.82 13.2794L153.113 15.2578ZM151.004 15.6094L150.64 13.6428L150.633 13.6441L151.004 15.6094ZM148.934 16L146.938 16.1281L147.082 18.3846L149.304 17.9653L148.934 16ZM148.465 8.69531L148.235 6.70854L146.347 6.92672L146.469 8.82339L148.465 8.69531ZM163.028 6.71677L162.794 13.9824L166.792 14.1114L167.026 6.84573L163.028 6.71677ZM164.679 12.0501C162.833 12.1556 161.076 12.2876 159.408 12.4465L159.787 16.4285C161.4 16.2749 163.107 16.1465 164.907 16.0436L164.679 12.0501ZM157.652 13.9739C155.917 21.2567 154.74 27.9746 154.131 34.123L158.111 34.5176C158.7 28.5826 159.841 22.0454 161.543 14.9011L157.652 13.9739ZM155.617 32.3848L149.016 34.1036L150.023 37.9745L156.625 36.2558L155.617 32.3848ZM151.49 36.3799L155.084 15.5986L151.143 14.917L147.549 35.6983L151.49 36.3799ZM152.82 13.2794C152.093 13.3871 151.366 13.5083 150.64 13.6428L151.368 17.5759C152.048 17.4501 152.727 17.3368 153.406 17.2362L152.82 13.2794ZM150.633 13.6441L148.563 14.0347L149.304 17.9653L151.375 17.5747L150.633 13.6441ZM150.929 15.8719L150.461 8.56723L146.469 8.82339L146.938 16.1281L150.929 15.8719ZM148.694 10.6821L165.257 8.76803L164.798 4.79447L148.235 6.70854L148.694 10.6821ZM187.02 6.78125L189.018 6.84573L189.093 4.52829L186.79 4.79447L187.02 6.78125ZM186.785 14.0469L186.899 16.0436L188.725 15.9393L188.784 14.1114L186.785 14.0469ZM181.59 14.4375L181.4 12.4465L179.976 12.5822L179.644 13.9739L181.59 14.4375ZM178.113 34.3203L178.617 36.2558L179.966 35.9046L180.104 34.5176L178.113 34.3203ZM171.512 36.0391L169.541 35.6983L169.012 38.7565L172.016 37.9745L171.512 36.0391ZM175.105 15.2578L177.076 15.5986L177.547 12.8742L174.812 13.2794L175.105 15.2578ZM172.996 15.6094L172.632 13.6428L172.625 13.6441L172.996 15.6094ZM170.926 16L168.93 16.1281L169.075 18.3846L171.297 17.9653L170.926 16ZM170.457 8.69531L170.227 6.70854L168.339 6.92672L168.461 8.82339L170.457 8.69531ZM185.021 6.71677L184.786 13.9824L188.784 14.1114L189.018 6.84573L185.021 6.71677ZM186.671 12.0501C184.826 12.1556 183.068 12.2876 181.4 12.4465L181.779 16.4285C183.392 16.2749 185.099 16.1465 186.899 16.0436L186.671 12.0501ZM179.644 13.9739C177.909 21.2567 176.733 27.9746 176.123 34.123L180.104 34.5176C180.692 28.5826 181.833 22.0454 183.535 14.9011L179.644 13.9739ZM177.609 32.3848L171.008 34.1036L172.016 37.9745L178.617 36.2558L177.609 32.3848ZM173.482 36.3799L177.076 15.5986L173.135 14.917L169.541 35.6983L173.482 36.3799ZM174.812 13.2794C174.085 13.3871 173.359 13.5083 172.632 13.6428L173.36 17.5759C174.04 17.4501 174.719 17.3368 175.399 17.2362L174.812 13.2794ZM172.625 13.6441L170.555 14.0347L171.297 17.9653L173.367 17.5747L172.625 13.6441ZM172.922 15.8719L172.453 8.56723L168.461 8.82339L168.93 16.1281L172.922 15.8719ZM170.687 10.6821L187.249 8.76803L186.79 4.79447L170.227 6.70854L170.687 10.6821ZM186.902 8.42188L186.561 6.45114L185.169 6.69194L184.931 8.08449L186.902 8.42188ZM194.129 7.17188L196.064 7.67837L196.851 4.67135L193.788 5.20114L194.129 7.17188ZM190.965 20.7656L189.003 20.3782L188.42 23.3283L191.366 22.7249L190.965 20.7656ZM194.207 20.1016L194.608 22.0609L195.949 21.7864L196.179 20.4378L194.207 20.1016ZM196.199 8.42188L195.858 6.45114L194.465 6.69208L194.228 8.08559L196.199 8.42188ZM203.426 7.17188L205.362 7.67364L206.14 4.67277L203.085 5.20114L203.426 7.17188ZM198.191 34.3203L198.687 36.2579L200.045 35.9105L200.182 34.5152L198.191 34.3203ZM191.473 36.0391L189.501 35.7056L188.988 38.7392L191.968 37.9767L191.473 36.0391ZM193.27 25.4141L195.242 25.7476L195.733 22.8407L192.85 23.4585L193.27 25.4141ZM189.949 26.1172L189.537 24.1601L188.184 24.445L187.973 25.8119L189.949 26.1172ZM188.895 34.3203L189.39 36.2579L190.757 35.9083L190.886 34.5034L188.895 34.3203ZM182.176 36.0391L180.204 35.7017L179.684 38.7408L182.671 37.9767L182.176 36.0391ZM187.243 10.3926L194.47 9.14261L193.788 5.20114L186.561 6.45114L187.243 10.3926ZM192.194 6.66538C190.884 11.6701 189.819 16.2418 189.003 20.3782L192.927 21.153C193.725 17.1124 194.77 12.6216 196.064 7.67837L192.194 6.66538ZM191.366 22.7249L194.608 22.0609L193.806 18.1422L190.564 18.8063L191.366 22.7249ZM196.179 20.4378L198.171 8.75816L194.228 8.08559L192.236 19.7653L196.179 20.4378ZM196.54 10.3926L203.767 9.14261L203.085 5.20114L195.858 6.45114L196.54 10.3926ZM201.49 6.67011C198.714 17.3797 196.944 26.5381 196.201 34.1254L200.182 34.5152C200.897 27.2067 202.617 18.2661 205.362 7.67364L201.49 6.67011ZM197.696 32.3827L190.977 34.1015L191.968 37.9767L198.687 36.2579L197.696 32.3827ZM193.445 36.3726L195.242 25.7476L191.298 25.0806L189.501 35.7056L193.445 36.3726ZM192.85 23.4585C192.125 23.6139 191.021 23.8477 189.537 24.1601L190.361 28.0743C191.846 27.7617 192.956 27.5267 193.689 27.3697L192.85 23.4585ZM187.973 25.8119C187.474 29.0401 187.116 31.8176 186.903 34.1372L190.886 34.5034C191.09 32.2918 191.435 29.6005 191.926 26.4225L187.973 25.8119ZM188.399 32.3827L181.68 34.1015L182.671 37.9767L189.39 36.2579L188.399 32.3827ZM184.147 36.3764L188.874 8.75926L184.931 8.08449L180.204 35.7017L184.147 36.3764ZM204.949 8.42188L204.583 6.45561L203.217 6.70982L202.979 8.07908L204.949 8.42188ZM211.668 7.17188L213.604 7.67397L214.393 4.63053L211.302 5.20561L211.668 7.17188ZM206.355 34.3203L206.889 36.2479L208.197 35.8859L208.344 34.5367L206.355 34.3203ZM200.145 36.0391L198.174 35.6963L197.633 38.8094L200.678 37.9666L200.145 36.0391ZM205.315 10.3881L212.034 9.13814L211.302 5.20561L204.583 6.45561L205.315 10.3881ZM209.732 6.66978C207.008 17.1722 205.214 26.3217 204.367 34.1039L208.344 34.5367C209.163 27.0064 210.911 18.0569 213.604 7.67397L209.732 6.66978ZM205.822 32.3928L199.611 34.1115L200.678 37.9666L206.889 36.2479L205.822 32.3928ZM202.115 36.3819L206.92 8.76467L202.979 8.07908L198.174 35.6963L202.115 36.3819ZM226.785 15.3359L227.487 17.2086L228.634 16.7786L228.772 15.5618L226.785 15.3359ZM223.816 16.4688L223.096 14.6032L223.095 14.6033L223.816 16.4688ZM220.887 17.6016H218.887V20.5192L221.608 19.467L220.887 17.6016ZM216.98 17.4062L215.48 16.0842L215.464 16.1024L215.448 16.121L216.98 17.4062ZM216.121 19.75L214.14 20.0233L214.143 20.0426L214.146 20.0619L216.121 19.75ZM219.559 20.2578L219.939 22.2214L219.954 22.2185L219.968 22.2154L219.559 20.2578ZM226.355 22.1719L228.308 21.738L228.304 21.7203L228.3 21.7026L226.355 22.1719ZM224.637 29.0469L222.959 27.9585L222.952 27.9698L224.637 29.0469ZM217.84 35.4141L216.824 33.691L216.819 33.694L217.84 35.4141ZM209.324 35.6484L207.478 34.8792L206.803 36.4984L208.321 37.3785L209.324 35.6484ZM212.449 28.7344L213.582 27.0863L211.641 25.7519L210.639 27.8835L212.449 28.7344ZM216.395 29.3984L215.895 27.4619L215.862 27.4703L215.83 27.4797L216.395 29.3984ZM218.699 28.5L219.644 30.263L219.653 30.2577L219.663 30.2524L218.699 28.5ZM215.457 26.2344L215.863 28.1926L215.877 28.1898L215.891 28.1867L215.457 26.2344ZM210.066 26.1172L211.213 24.4787L211.195 24.4657L211.176 24.4531L210.066 26.1172ZM208.816 22.9531L210.8 23.2056L210.802 23.1957L210.803 23.1858L208.816 22.9531ZM214.402 12.9141L215.896 14.2441L215.899 14.2409L214.402 12.9141ZM223.348 6.78125L223.219 4.7854L223.211 4.78594L223.202 4.78655L223.348 6.78125ZM226.083 13.4633C225.242 13.7788 224.245 14.1589 223.096 14.6032L224.537 18.3343C225.679 17.8932 226.662 17.5181 227.487 17.2086L226.083 13.4633ZM223.095 14.6033L220.165 15.7362L221.608 19.467L224.538 18.3342L223.095 14.6033ZM222.887 17.6016C222.887 16.8707 222.797 16.005 222.383 15.2565C222.159 14.852 221.825 14.455 221.348 14.1673C220.867 13.8776 220.351 13.7656 219.871 13.7656V17.7656C219.729 17.7656 219.51 17.7301 219.283 17.5934C219.06 17.4587 218.937 17.2912 218.883 17.1927C218.835 17.1057 218.841 17.0772 218.856 17.161C218.871 17.2406 218.887 17.382 218.887 17.6016H222.887ZM219.871 13.7656C218.092 13.7656 216.627 14.7815 215.48 16.0842L218.481 18.7283C219.261 17.8435 219.723 17.7656 219.871 17.7656V13.7656ZM215.448 16.121C214.552 17.1898 213.932 18.5198 214.14 20.0233L218.102 19.4767C218.101 19.4698 218.055 19.2373 218.513 18.6915L215.448 16.121ZM214.146 20.0619C214.297 21.021 214.901 21.718 215.656 22.0955C216.305 22.4201 217.017 22.4922 217.605 22.4922V18.4922C217.464 18.4922 217.382 18.4822 217.347 18.4761C217.309 18.4694 217.354 18.4723 217.445 18.5178C217.543 18.5665 217.698 18.6678 217.841 18.8526C217.988 19.0437 218.068 19.2537 218.097 19.4381L214.146 20.0619ZM217.605 22.4922C218.284 22.4922 219.077 22.3882 219.939 22.2214L219.179 18.2943C218.426 18.4399 217.917 18.4922 217.605 18.4922V22.4922ZM219.968 22.2154C220.995 22.0006 221.842 21.9062 222.527 21.9062V17.9062C221.494 17.9062 220.362 18.0463 219.149 18.3002L219.968 22.2154ZM222.527 21.9062C223.422 21.9062 223.89 22.0656 224.106 22.1938C224.255 22.2819 224.349 22.383 224.411 22.6412L228.3 21.7026C227.997 20.4504 227.271 19.4187 226.144 18.7515C225.084 18.1245 223.82 17.9062 222.527 17.9062V21.9062ZM224.403 22.6057C224.473 22.9206 224.512 23.2691 224.512 23.6562H228.512C228.512 23.0017 228.446 22.3607 228.308 21.738L224.403 22.6057ZM224.512 23.6562C224.512 24.8163 224.075 26.2371 222.959 27.9585L226.315 30.1353C227.698 28.0025 228.512 25.8295 228.512 23.6562H224.512ZM222.952 27.9698C221.527 30.1983 219.506 32.1111 216.824 33.691L218.855 37.1371C222.008 35.2795 224.517 32.9475 226.322 30.124L222.952 27.9698ZM216.819 33.694C215.529 34.4596 214.367 34.7812 213.309 34.7812V38.7812C215.219 38.7812 217.078 38.1915 218.86 37.1342L216.819 33.694ZM213.309 34.7812C212.345 34.7812 211.36 34.517 210.328 33.9184L208.321 37.3785C209.893 38.2903 211.564 38.7812 213.309 38.7812V34.7812ZM211.17 36.4177C211.804 34.8978 212.83 32.6259 214.259 29.5852L210.639 27.8835C209.204 30.9366 208.147 33.2741 207.478 34.8792L211.17 36.4177ZM211.316 30.3825C212.455 31.1656 213.731 31.5938 215.105 31.5938V27.5938C214.605 27.5938 214.11 27.4489 213.582 27.0863L211.316 30.3825ZM215.105 31.5938C215.732 31.5938 216.352 31.4956 216.959 31.3172L215.83 27.4797C215.551 27.5617 215.312 27.5938 215.105 27.5938V31.5938ZM216.894 31.335C217.855 31.0871 218.773 30.7296 219.644 30.263L217.755 26.737C217.167 27.0517 216.549 27.2931 215.895 27.4619L216.894 31.335ZM219.663 30.2524C220.291 29.9069 220.897 29.4872 221.366 28.9596C221.849 28.4161 222.262 27.6667 222.262 26.7422H218.262C218.262 26.5931 218.296 26.469 218.333 26.3842C218.368 26.3057 218.396 26.2798 218.376 26.3021C218.356 26.3248 218.301 26.3798 218.191 26.4615C218.082 26.5423 217.933 26.6387 217.735 26.7476L219.663 30.2524ZM222.262 26.7422C222.262 25.7543 221.794 24.8459 220.903 24.3022C220.171 23.8564 219.332 23.7656 218.66 23.7656V27.7656C218.832 27.7656 218.926 27.7792 218.962 27.7866C219.001 27.7945 218.935 27.7874 218.82 27.7174C218.692 27.6392 218.528 27.4965 218.407 27.2743C218.287 27.0558 218.262 26.8575 218.262 26.7422H222.262ZM218.66 23.7656C217.704 23.7656 216.462 23.9622 215.023 24.282L215.891 28.1867C217.264 27.8815 218.158 27.7656 218.66 27.7656V23.7656ZM215.051 24.2761C213.705 24.5554 212.812 24.6641 212.293 24.6641V28.6641C213.232 28.6641 214.449 28.4862 215.863 28.1926L215.051 24.2761ZM212.293 24.6641C211.541 24.6641 211.265 24.5152 211.213 24.4787L208.919 27.7557C209.909 28.4483 211.118 28.6641 212.293 28.6641V24.6641ZM211.176 24.4531C210.98 24.3224 210.899 24.2025 210.852 24.0835C210.797 23.9439 210.74 23.6768 210.8 23.2056L206.832 22.7006C206.71 23.6617 206.771 24.6382 207.132 25.5532C207.502 26.4889 208.137 27.2349 208.957 27.7813L211.176 24.4531ZM210.803 23.1858C211.07 20.9082 212.603 17.9427 215.896 14.2441L212.909 11.5841C209.431 15.4896 207.24 19.2168 206.83 22.7205L210.803 23.1858ZM215.899 14.2409C217.566 12.361 219.056 10.9998 220.367 10.1007C221.688 9.19556 222.719 8.8324 223.493 8.77595L223.202 4.78655C221.476 4.91239 219.767 5.66252 218.105 6.80162C216.435 7.94682 214.703 9.56092 212.906 11.5872L215.899 14.2409ZM223.476 8.7771C224.067 8.73898 224.247 8.89729 224.406 9.1379C224.686 9.55864 224.98 10.4866 224.98 12.25H228.98C228.98 10.2113 228.67 8.32678 227.738 6.9246C226.687 5.34229 225.05 4.66727 223.219 4.7854L223.476 8.7771ZM224.98 12.25C224.98 13.0693 224.922 14.0206 224.798 15.1101L228.772 15.5618C228.909 14.3596 228.98 13.2536 228.98 12.25H224.98ZM230.77 29.6328L231.028 31.616L231.04 31.6144L231.052 31.6127L230.77 29.6328ZM233.191 30.0234L232.22 31.7718L232.258 31.7929L232.297 31.8123L233.191 30.0234ZM232.527 35.2578L231.302 33.6774L231.295 33.6827L231.288 33.688L232.527 35.2578ZM229.285 36.6641L229.021 34.6816L229.01 34.6831L229.285 36.6641ZM226.863 36.3516L225.946 38.1288L225.957 38.1347L225.969 38.1404L226.863 36.3516ZM227.488 31.0781L226.224 29.5284L226.218 29.5337L226.211 29.539L227.488 31.0781ZM235.184 5.33594L235.514 3.36341L233.751 3.06826L233.261 4.7865L235.184 5.33594ZM243.348 6.70312L245.095 7.6764L246.475 5.19898L243.678 4.73059L243.348 6.70312ZM238.582 15.8047L236.768 14.9625L236.766 14.9676L238.582 15.8047ZM234.91 25.5312L234.824 27.5294L236.37 27.5961L236.823 26.1164L234.91 25.5312ZM229.48 25.2969L227.557 24.7474L226.861 27.1857L229.394 27.295L229.48 25.2969ZM231.052 31.6127C231.597 31.5349 231.952 31.6231 232.22 31.7718L234.163 28.2751C233.024 27.6426 231.765 27.4703 230.487 27.6529L231.052 31.6127ZM232.297 31.8123C232.379 31.8533 232.422 31.8856 232.439 31.9006C232.455 31.9144 232.453 31.9155 232.444 31.9023C232.436 31.8887 232.433 31.8782 232.433 31.8799C232.434 31.8834 232.441 31.9124 232.441 31.9766H236.441C236.441 31.2087 236.256 30.4383 235.813 29.7461C235.374 29.0598 234.759 28.571 234.086 28.2346L232.297 31.8123ZM232.441 31.9766C232.441 32.3571 232.272 32.9251 231.302 33.6774L233.753 36.8383C235.335 35.6114 236.441 33.9918 236.441 31.9766H232.441ZM231.288 33.688C230.561 34.262 229.813 34.576 229.021 34.6816L229.549 38.6465C231.101 38.4396 232.514 37.8161 233.767 36.8276L231.288 33.688ZM229.01 34.6831C228.372 34.7717 227.992 34.6798 227.758 34.5627L225.969 38.1404C227.089 38.7004 228.323 38.8169 229.56 38.645L229.01 34.6831ZM227.781 34.5743C227.707 34.5363 227.67 34.5072 227.656 34.495C227.644 34.484 227.647 34.4845 227.655 34.4969C227.663 34.5095 227.664 34.517 227.662 34.5104C227.66 34.5019 227.652 34.4676 227.652 34.3984H223.652C223.652 35.1544 223.828 35.9159 224.255 36.6047C224.681 37.2906 225.281 37.7857 225.946 38.1288L227.781 34.5743ZM227.652 34.3984C227.652 33.9762 227.839 33.3857 228.765 32.6172L226.211 29.539C224.689 30.8018 223.652 32.4248 223.652 34.3984H227.652ZM228.753 32.6279C229.471 32.0417 230.221 31.7213 231.028 31.616L230.511 27.6496C228.923 27.8568 227.485 28.4999 226.224 29.5284L228.753 32.6279ZM234.853 7.30847L243.017 8.67566L243.678 4.73059L235.514 3.36341L234.853 7.30847ZM241.6 5.72985C239.431 9.62374 237.815 12.708 236.768 14.9625L240.396 16.6469C241.381 14.5264 242.941 11.5429 245.095 7.6764L241.6 5.72985ZM236.766 14.9676C235.344 18.0522 234.089 21.3794 232.998 24.9461L236.823 26.1164C237.867 22.7039 239.06 19.5468 240.398 16.6418L236.766 14.9676ZM234.996 23.5331L229.567 23.2987L229.394 27.295L234.824 27.5294L234.996 23.5331ZM231.404 25.8463L237.107 5.88538L233.261 4.7865L227.557 24.7474L231.404 25.8463Z" fill="#F7931E" mask="url(#path-1-outside-1_2878_7725)"/>
</svg>
