<svg width="275" height="43" viewBox="0 0 275 43" fill="none" xmlns="http://www.w3.org/2000/svg">
<mask id="path-1-outside-1_2877_7713" maskUnits="userSpaceOnUse" x="7" y="2" width="266" height="39" fill="black">
<rect fill="white" x="7" y="2" width="266" height="39"/>
<path d="M23.5156 7.83594L29.8047 8.92969C24.1797 18.7995 19.7266 27.7318 16.4453 35.7266L10.4297 35.3359L14.5703 26.625L11.2891 10.9219L18.9062 7.40625C18.8281 8.60417 18.776 10.1016 18.75 11.8984C18.724 13.6953 18.8151 15.4922 19.0234 17.2891L23.5156 7.83594ZM39.2578 5.45312C42.0182 5.45312 43.9714 6.98958 45.1172 10.0625C45.7161 11.651 46.0156 13.3958 46.0156 15.2969C46.0156 17.1198 45.7422 19.099 45.1953 21.2344C44.2318 24.8802 42.5651 28.2396 40.1953 31.3125C37.3047 35.0625 34.2448 36.9375 31.0156 36.9375C28.2292 36.9375 26.25 35.401 25.0781 32.3281C24.5052 30.8177 24.2188 29.125 24.2188 27.25C24.2188 25.401 24.5052 23.3958 25.0781 21.2344C26.0417 17.5625 27.6953 14.1901 30.0391 11.1172C32.9297 7.34115 36.0026 5.45312 39.2578 5.45312ZM37.8516 15.1406C36.4193 15.1406 34.9609 16.3125 33.4766 18.6562C32.2786 20.5052 31.4453 22.3151 30.9766 24.0859C30.7422 25.0234 30.625 25.8698 30.625 26.625C30.625 27.6927 30.8854 28.5651 31.4062 29.2422C32.0052 29.9974 32.8385 30.375 33.9062 30.375C35.3646 30.375 36.6797 29.6068 37.8516 28.0703C38.7891 26.8464 39.4661 25.401 39.8828 23.7344C40.3776 21.7812 40.4818 19.8542 40.1953 17.9531C39.8828 16.0781 39.1016 15.1406 37.8516 15.1406ZM48.1641 8.42188L54.8438 7.17188C53.0469 13.9948 51.7188 20.1146 50.8594 25.5312L54.5703 23.9688L57.3047 8.42188L63.9844 7.17188C61.276 17.849 59.5182 26.8984 58.7109 34.3203L52.4609 36.0391L53.2422 31.7031C51.0547 32.6667 47.7474 34.112 43.3203 36.0391L48.1641 8.42188ZM74.375 4.47656C72.7083 9.00781 71.5495 13.1224 70.8984 16.8203L63.3594 17.9922L67.1484 5.02344L74.375 4.47656ZM74.3359 8.38281C78.4245 7.15885 81.7708 6.54688 84.375 6.54688C87.8906 6.54688 89.6354 7.77083 89.6094 10.2188C89.5833 13.7344 87.3698 17.263 82.9688 20.8047C83.3333 21.7943 84.8438 24.9062 87.5 30.1406C86.1458 31.3906 84.1016 33.2266 81.3672 35.6484L77.1875 24.8672H77.1484C76.5234 28.2786 76.0547 31.4297 75.7422 34.3203L69.5703 36.0391C69.6224 35.4661 69.9089 33.7344 70.4297 30.8438L74.3359 8.38281ZM79.2578 14.5547C79.0234 15.4401 78.8151 16.3255 78.6328 17.2109L78.0859 19.8672C78.9974 19.3984 79.8958 18.7865 80.7812 18.0312C81.7969 17.1458 82.474 16.2995 82.8125 15.4922C82.9427 15.2578 83.0078 15.0365 83.0078 14.8281C83.0078 14.2552 82.6302 13.9688 81.875 13.9688C81.276 13.9688 80.4036 14.1641 79.2578 14.5547ZM95.5859 14.2422C95.3776 14.9974 95.1953 15.7396 95.0391 16.4688L94.6094 18.6172L100.859 17.2891L100.508 22.6797C97.5391 23.2005 95.2083 23.6562 93.5156 24.0469C93.4115 24.5677 93.3203 25.0885 93.2422 25.6094L92.9688 27.1328L100.234 26.0781L99.7266 33.3438C95.9766 33.6562 91.224 34.5547 85.4688 36.0391L90.1172 8.03125L103.125 6.15625L102.617 13.3828C100.065 13.6172 97.7214 13.9036 95.5859 14.2422ZM113.438 8.42188L120.156 7.17188C117.448 17.6146 115.677 26.6641 114.844 34.3203L108.633 36.0391L113.438 8.42188ZM121.758 8.53906L128.516 7.17188C128.464 7.97917 128.438 9.125 128.438 10.6094C128.438 14.151 128.555 17.263 128.789 19.9453C128.919 21.4818 129.115 22.7188 129.375 23.6562L132.031 8.42188L138.75 7.17188C136.042 17.6146 134.271 26.6641 133.438 34.3203L127.266 36.0391C127.24 35.987 127.07 35.5312 126.758 34.6719L124.727 28.8906C124.388 27.9531 124.193 27.3542 124.141 27.0938C123.594 30.1667 123.164 33.1484 122.852 36.0391L116.602 37.9141L121.758 8.53906ZM149.062 6.50781C151.771 6.50781 153.763 7.97917 155.039 10.9219L150.625 15.7656C150.026 15.1406 149.336 14.8281 148.555 14.8281C147.174 14.8281 145.742 16.013 144.258 18.3828C143.034 20.3359 142.24 22.1589 141.875 23.8516C141.693 24.6589 141.602 25.388 141.602 26.0391C141.602 27.7839 142.24 28.9818 143.516 29.6328C143.932 29.8411 144.375 29.9453 144.844 29.9453C146.198 29.9453 147.617 28.9427 149.102 26.9375L150.352 31.5859C147.773 34.4505 145.156 35.8828 142.5 35.8828C139.792 35.8828 137.812 34.4505 136.562 31.5859C135.807 29.9193 135.43 28.0573 135.43 26C135.43 24.4896 135.625 22.888 136.016 21.1953C136.797 17.7318 138.281 14.5677 140.469 11.7031C143.099 8.23958 145.964 6.50781 149.062 6.50781ZM155.117 8.38281C159.206 7.15885 162.552 6.54688 165.156 6.54688C168.672 6.54688 170.417 7.77083 170.391 10.2188C170.365 13.7344 168.151 17.263 163.75 20.8047C164.115 21.7943 165.625 24.9062 168.281 30.1406C166.927 31.3906 164.883 33.2266 162.148 35.6484L157.969 24.8672H157.93C157.305 28.2786 156.836 31.4297 156.523 34.3203L150.352 36.0391C150.404 35.4661 150.69 33.7344 151.211 30.8438L155.117 8.38281ZM160.039 14.5547C159.805 15.4401 159.596 16.3255 159.414 17.2109L158.867 19.8672C159.779 19.3984 160.677 18.7865 161.562 18.0312C162.578 17.1458 163.255 16.2995 163.594 15.4922C163.724 15.2578 163.789 15.0365 163.789 14.8281C163.789 14.2552 163.411 13.9688 162.656 13.9688C162.057 13.9688 161.185 14.1641 160.039 14.5547ZM176.367 14.2422C176.159 14.9974 175.977 15.7396 175.82 16.4688L175.391 18.6172L181.641 17.2891L181.289 22.6797C178.32 23.2005 175.99 23.6562 174.297 24.0469C174.193 24.5677 174.102 25.0885 174.023 25.6094L173.75 27.1328L181.016 26.0781L180.508 33.3438C176.758 33.6562 172.005 34.5547 166.25 36.0391L170.898 8.03125L183.906 6.15625L183.398 13.3828C180.846 13.6172 178.503 13.9036 176.367 14.2422ZM185.273 8.38281C188.268 7.39323 190.807 6.89844 192.891 6.89844C195.234 6.89844 197.018 7.51042 198.242 8.73438C199.935 10.4792 200.781 12.6016 200.781 15.1016C200.781 16.013 200.664 16.9766 200.43 17.9922C199.414 22.5755 197.018 26.5859 193.242 30.0234C189.466 33.4349 185.26 35.4401 180.625 36.0391C180.677 35.4661 180.951 33.7604 181.445 30.9219L184.57 12.9531C185.013 10.2708 185.247 8.7474 185.273 8.38281ZM190.859 14.8281C189.661 19.9323 188.75 24.763 188.125 29.3203C189.688 27.8359 191.081 26.1172 192.305 24.1641C193.815 21.7682 194.57 19.7109 194.57 17.9922C194.57 15.7786 193.333 14.724 190.859 14.8281ZM203.203 8.42188L209.922 7.17188C207.214 17.6146 205.443 26.6641 204.609 34.3203L198.398 36.0391L203.203 8.42188ZM210.703 8.53906C211.536 8.40885 213.099 8.05729 215.391 7.48438C217.37 7.01562 218.958 6.71615 220.156 6.58594C220.625 6.5599 221.081 6.54688 221.523 6.54688C224.961 6.54688 226.667 7.77083 226.641 10.2188C226.641 13.6823 224.505 17.1458 220.234 20.6094C222.917 20.4271 224.466 21.1823 224.883 22.875C224.961 23.2396 225 23.6172 225 24.0078C225 25.9609 224.062 27.9401 222.188 29.9453C220.755 31.4818 218.984 32.8359 216.875 34.0078C214.349 35.4141 211.445 36.1172 208.164 36.1172C207.643 36.1172 207.122 36.1042 206.602 36.0781C207.617 30.7396 208.737 23.5651 209.961 14.5547C210.326 12.0026 210.573 9.9974 210.703 8.53906ZM214.844 24.7891C214.635 25.7786 214.414 27.1198 214.18 28.8125C217.852 27.6927 219.688 26.4167 219.688 24.9844C219.688 24.4635 219.232 24.2031 218.32 24.2031C217.513 24.2031 216.354 24.3984 214.844 24.7891ZM216.992 14.3203C216.784 15.1797 216.589 16.0391 216.406 16.8984L215.859 19.4766C217.76 18.3047 219.115 16.9505 219.922 15.4141C220.104 15.0755 220.195 14.8021 220.195 14.5938C220.195 14.151 219.857 13.9297 219.18 13.9297C218.659 13.9297 217.93 14.0599 216.992 14.3203ZM228.789 8.42188L235.508 7.17188C233.633 14.3854 232.188 21.0391 231.172 27.1328L238.047 26.0781L237.461 33.3438C233.919 33.6562 229.427 34.5547 223.984 36.0391L228.789 8.42188ZM246.875 14.2422C246.667 14.9974 246.484 15.7396 246.328 16.4688L245.898 18.6172L252.148 17.2891L251.797 22.6797C248.828 23.2005 246.497 23.6562 244.805 24.0469C244.701 24.5677 244.609 25.0885 244.531 25.6094L244.258 27.1328L251.523 26.0781L251.016 33.3438C247.266 33.6562 242.513 34.5547 236.758 36.0391L241.406 8.03125L254.414 6.15625L253.906 13.3828C251.354 13.6172 249.01 13.9036 246.875 14.2422ZM256.719 29.6328C257.63 29.5026 258.438 29.6328 259.141 30.0234C259.974 30.4401 260.391 31.0911 260.391 31.9766C260.391 33.1745 259.753 34.2682 258.477 35.2578C257.487 36.0391 256.406 36.5078 255.234 36.6641C254.297 36.7943 253.49 36.6901 252.812 36.3516C252.005 35.9349 251.602 35.2839 251.602 34.3984C251.602 33.2005 252.214 32.0938 253.438 31.0781C254.427 30.2708 255.521 29.7891 256.719 29.6328ZM261.133 5.33594L269.297 6.70312C267.135 10.5833 265.547 13.6172 264.531 15.8047C263.151 18.7995 261.927 22.0417 260.859 25.5312L255.43 25.2969L261.133 5.33594Z"/>
</mask>
<path d="M23.5156 7.83594L29.8047 8.92969C24.1797 18.7995 19.7266 27.7318 16.4453 35.7266L10.4297 35.3359L14.5703 26.625L11.2891 10.9219L18.9062 7.40625C18.8281 8.60417 18.776 10.1016 18.75 11.8984C18.724 13.6953 18.8151 15.4922 19.0234 17.2891L23.5156 7.83594ZM39.2578 5.45312C42.0182 5.45312 43.9714 6.98958 45.1172 10.0625C45.7161 11.651 46.0156 13.3958 46.0156 15.2969C46.0156 17.1198 45.7422 19.099 45.1953 21.2344C44.2318 24.8802 42.5651 28.2396 40.1953 31.3125C37.3047 35.0625 34.2448 36.9375 31.0156 36.9375C28.2292 36.9375 26.25 35.401 25.0781 32.3281C24.5052 30.8177 24.2188 29.125 24.2188 27.25C24.2188 25.401 24.5052 23.3958 25.0781 21.2344C26.0417 17.5625 27.6953 14.1901 30.0391 11.1172C32.9297 7.34115 36.0026 5.45312 39.2578 5.45312ZM37.8516 15.1406C36.4193 15.1406 34.9609 16.3125 33.4766 18.6562C32.2786 20.5052 31.4453 22.3151 30.9766 24.0859C30.7422 25.0234 30.625 25.8698 30.625 26.625C30.625 27.6927 30.8854 28.5651 31.4062 29.2422C32.0052 29.9974 32.8385 30.375 33.9062 30.375C35.3646 30.375 36.6797 29.6068 37.8516 28.0703C38.7891 26.8464 39.4661 25.401 39.8828 23.7344C40.3776 21.7812 40.4818 19.8542 40.1953 17.9531C39.8828 16.0781 39.1016 15.1406 37.8516 15.1406ZM48.1641 8.42188L54.8438 7.17188C53.0469 13.9948 51.7188 20.1146 50.8594 25.5312L54.5703 23.9688L57.3047 8.42188L63.9844 7.17188C61.276 17.849 59.5182 26.8984 58.7109 34.3203L52.4609 36.0391L53.2422 31.7031C51.0547 32.6667 47.7474 34.112 43.3203 36.0391L48.1641 8.42188ZM74.375 4.47656C72.7083 9.00781 71.5495 13.1224 70.8984 16.8203L63.3594 17.9922L67.1484 5.02344L74.375 4.47656ZM74.3359 8.38281C78.4245 7.15885 81.7708 6.54688 84.375 6.54688C87.8906 6.54688 89.6354 7.77083 89.6094 10.2188C89.5833 13.7344 87.3698 17.263 82.9688 20.8047C83.3333 21.7943 84.8438 24.9062 87.5 30.1406C86.1458 31.3906 84.1016 33.2266 81.3672 35.6484L77.1875 24.8672H77.1484C76.5234 28.2786 76.0547 31.4297 75.7422 34.3203L69.5703 36.0391C69.6224 35.4661 69.9089 33.7344 70.4297 30.8438L74.3359 8.38281ZM79.2578 14.5547C79.0234 15.4401 78.8151 16.3255 78.6328 17.2109L78.0859 19.8672C78.9974 19.3984 79.8958 18.7865 80.7812 18.0312C81.7969 17.1458 82.474 16.2995 82.8125 15.4922C82.9427 15.2578 83.0078 15.0365 83.0078 14.8281C83.0078 14.2552 82.6302 13.9688 81.875 13.9688C81.276 13.9688 80.4036 14.1641 79.2578 14.5547ZM95.5859 14.2422C95.3776 14.9974 95.1953 15.7396 95.0391 16.4688L94.6094 18.6172L100.859 17.2891L100.508 22.6797C97.5391 23.2005 95.2083 23.6562 93.5156 24.0469C93.4115 24.5677 93.3203 25.0885 93.2422 25.6094L92.9688 27.1328L100.234 26.0781L99.7266 33.3438C95.9766 33.6562 91.224 34.5547 85.4688 36.0391L90.1172 8.03125L103.125 6.15625L102.617 13.3828C100.065 13.6172 97.7214 13.9036 95.5859 14.2422ZM113.438 8.42188L120.156 7.17188C117.448 17.6146 115.677 26.6641 114.844 34.3203L108.633 36.0391L113.438 8.42188ZM121.758 8.53906L128.516 7.17188C128.464 7.97917 128.438 9.125 128.438 10.6094C128.438 14.151 128.555 17.263 128.789 19.9453C128.919 21.4818 129.115 22.7188 129.375 23.6562L132.031 8.42188L138.75 7.17188C136.042 17.6146 134.271 26.6641 133.438 34.3203L127.266 36.0391C127.24 35.987 127.07 35.5312 126.758 34.6719L124.727 28.8906C124.388 27.9531 124.193 27.3542 124.141 27.0938C123.594 30.1667 123.164 33.1484 122.852 36.0391L116.602 37.9141L121.758 8.53906ZM149.062 6.50781C151.771 6.50781 153.763 7.97917 155.039 10.9219L150.625 15.7656C150.026 15.1406 149.336 14.8281 148.555 14.8281C147.174 14.8281 145.742 16.013 144.258 18.3828C143.034 20.3359 142.24 22.1589 141.875 23.8516C141.693 24.6589 141.602 25.388 141.602 26.0391C141.602 27.7839 142.24 28.9818 143.516 29.6328C143.932 29.8411 144.375 29.9453 144.844 29.9453C146.198 29.9453 147.617 28.9427 149.102 26.9375L150.352 31.5859C147.773 34.4505 145.156 35.8828 142.5 35.8828C139.792 35.8828 137.812 34.4505 136.562 31.5859C135.807 29.9193 135.43 28.0573 135.43 26C135.43 24.4896 135.625 22.888 136.016 21.1953C136.797 17.7318 138.281 14.5677 140.469 11.7031C143.099 8.23958 145.964 6.50781 149.062 6.50781ZM155.117 8.38281C159.206 7.15885 162.552 6.54688 165.156 6.54688C168.672 6.54688 170.417 7.77083 170.391 10.2188C170.365 13.7344 168.151 17.263 163.75 20.8047C164.115 21.7943 165.625 24.9062 168.281 30.1406C166.927 31.3906 164.883 33.2266 162.148 35.6484L157.969 24.8672H157.93C157.305 28.2786 156.836 31.4297 156.523 34.3203L150.352 36.0391C150.404 35.4661 150.69 33.7344 151.211 30.8438L155.117 8.38281ZM160.039 14.5547C159.805 15.4401 159.596 16.3255 159.414 17.2109L158.867 19.8672C159.779 19.3984 160.677 18.7865 161.562 18.0312C162.578 17.1458 163.255 16.2995 163.594 15.4922C163.724 15.2578 163.789 15.0365 163.789 14.8281C163.789 14.2552 163.411 13.9688 162.656 13.9688C162.057 13.9688 161.185 14.1641 160.039 14.5547ZM176.367 14.2422C176.159 14.9974 175.977 15.7396 175.82 16.4688L175.391 18.6172L181.641 17.2891L181.289 22.6797C178.32 23.2005 175.99 23.6562 174.297 24.0469C174.193 24.5677 174.102 25.0885 174.023 25.6094L173.75 27.1328L181.016 26.0781L180.508 33.3438C176.758 33.6562 172.005 34.5547 166.25 36.0391L170.898 8.03125L183.906 6.15625L183.398 13.3828C180.846 13.6172 178.503 13.9036 176.367 14.2422ZM185.273 8.38281C188.268 7.39323 190.807 6.89844 192.891 6.89844C195.234 6.89844 197.018 7.51042 198.242 8.73438C199.935 10.4792 200.781 12.6016 200.781 15.1016C200.781 16.013 200.664 16.9766 200.43 17.9922C199.414 22.5755 197.018 26.5859 193.242 30.0234C189.466 33.4349 185.26 35.4401 180.625 36.0391C180.677 35.4661 180.951 33.7604 181.445 30.9219L184.57 12.9531C185.013 10.2708 185.247 8.7474 185.273 8.38281ZM190.859 14.8281C189.661 19.9323 188.75 24.763 188.125 29.3203C189.688 27.8359 191.081 26.1172 192.305 24.1641C193.815 21.7682 194.57 19.7109 194.57 17.9922C194.57 15.7786 193.333 14.724 190.859 14.8281ZM203.203 8.42188L209.922 7.17188C207.214 17.6146 205.443 26.6641 204.609 34.3203L198.398 36.0391L203.203 8.42188ZM210.703 8.53906C211.536 8.40885 213.099 8.05729 215.391 7.48438C217.37 7.01562 218.958 6.71615 220.156 6.58594C220.625 6.5599 221.081 6.54688 221.523 6.54688C224.961 6.54688 226.667 7.77083 226.641 10.2188C226.641 13.6823 224.505 17.1458 220.234 20.6094C222.917 20.4271 224.466 21.1823 224.883 22.875C224.961 23.2396 225 23.6172 225 24.0078C225 25.9609 224.062 27.9401 222.188 29.9453C220.755 31.4818 218.984 32.8359 216.875 34.0078C214.349 35.4141 211.445 36.1172 208.164 36.1172C207.643 36.1172 207.122 36.1042 206.602 36.0781C207.617 30.7396 208.737 23.5651 209.961 14.5547C210.326 12.0026 210.573 9.9974 210.703 8.53906ZM214.844 24.7891C214.635 25.7786 214.414 27.1198 214.18 28.8125C217.852 27.6927 219.688 26.4167 219.688 24.9844C219.688 24.4635 219.232 24.2031 218.32 24.2031C217.513 24.2031 216.354 24.3984 214.844 24.7891ZM216.992 14.3203C216.784 15.1797 216.589 16.0391 216.406 16.8984L215.859 19.4766C217.76 18.3047 219.115 16.9505 219.922 15.4141C220.104 15.0755 220.195 14.8021 220.195 14.5938C220.195 14.151 219.857 13.9297 219.18 13.9297C218.659 13.9297 217.93 14.0599 216.992 14.3203ZM228.789 8.42188L235.508 7.17188C233.633 14.3854 232.188 21.0391 231.172 27.1328L238.047 26.0781L237.461 33.3438C233.919 33.6562 229.427 34.5547 223.984 36.0391L228.789 8.42188ZM246.875 14.2422C246.667 14.9974 246.484 15.7396 246.328 16.4688L245.898 18.6172L252.148 17.2891L251.797 22.6797C248.828 23.2005 246.497 23.6562 244.805 24.0469C244.701 24.5677 244.609 25.0885 244.531 25.6094L244.258 27.1328L251.523 26.0781L251.016 33.3438C247.266 33.6562 242.513 34.5547 236.758 36.0391L241.406 8.03125L254.414 6.15625L253.906 13.3828C251.354 13.6172 249.01 13.9036 246.875 14.2422ZM256.719 29.6328C257.63 29.5026 258.438 29.6328 259.141 30.0234C259.974 30.4401 260.391 31.0911 260.391 31.9766C260.391 33.1745 259.753 34.2682 258.477 35.2578C257.487 36.0391 256.406 36.5078 255.234 36.6641C254.297 36.7943 253.49 36.6901 252.812 36.3516C252.005 35.9349 251.602 35.2839 251.602 34.3984C251.602 33.2005 252.214 32.0938 253.438 31.0781C254.427 30.2708 255.521 29.7891 256.719 29.6328ZM261.133 5.33594L269.297 6.70312C267.135 10.5833 265.547 13.6172 264.531 15.8047C263.151 18.7995 261.927 22.0417 260.859 25.5312L255.43 25.2969L261.133 5.33594Z" fill="#FAD557"/>
<path d="M23.5156 7.83594L23.8583 5.86551L22.3614 5.60518L21.7092 6.97752L23.5156 7.83594ZM29.8047 8.92969L31.5423 9.91999L32.9517 7.44698L30.1474 6.95926L29.8047 8.92969ZM16.4453 35.7266L16.3157 37.7224L17.7499 37.8155L18.2955 36.4859L16.4453 35.7266ZM10.4297 35.3359L8.62337 34.4773L7.35739 37.1407L10.3001 37.3317L10.4297 35.3359ZM14.5703 26.625L16.3766 27.4836L16.6658 26.8753L16.528 26.2159L14.5703 26.625ZM11.2891 10.9219L10.4509 9.10596L9.00579 9.77295L9.33135 11.331L11.2891 10.9219ZM18.9062 7.40625L20.902 7.53641L21.1208 4.1814L18.0681 5.59033L18.9062 7.40625ZM19.0234 17.2891L17.0367 17.5194L17.8392 24.4408L20.8298 18.1475L19.0234 17.2891ZM23.1729 9.80636L29.462 10.9001L30.1474 6.95926L23.8583 5.86551L23.1729 9.80636ZM28.0671 7.93939C22.412 17.862 17.9172 26.8729 14.5951 34.9672L18.2955 36.4859C21.536 28.5906 25.9474 19.737 31.5423 9.91999L28.0671 7.93939ZM16.5749 33.7308L10.5593 33.3401L10.3001 37.3317L16.3157 37.7224L16.5749 33.7308ZM12.236 36.1945L16.3766 27.4836L12.764 25.7664L8.62337 34.4773L12.236 36.1945ZM16.528 26.2159L13.2468 10.5128L9.33135 11.331L12.6126 27.0341L16.528 26.2159ZM12.1272 12.7378L19.7444 9.22217L18.0681 5.59033L10.4509 9.10596L12.1272 12.7378ZM16.9105 7.27609C16.8294 8.51977 16.7765 10.0536 16.7502 11.8695L20.7498 11.9274C20.7756 10.1495 20.8269 8.68856 20.902 7.53641L16.9105 7.27609ZM16.7502 11.8695C16.7229 13.7535 16.8185 15.637 17.0367 17.5194L21.0101 17.0587C20.8117 15.3473 20.725 13.6371 20.7498 11.9274L16.7502 11.8695ZM20.8298 18.1475L25.322 8.69436L21.7092 6.97752L17.217 16.4306L20.8298 18.1475ZM45.1172 10.0625L43.2432 10.7613L43.2458 10.7681L45.1172 10.0625ZM45.1953 21.2344L47.1289 21.7454L47.1309 21.738L47.1328 21.7306L45.1953 21.2344ZM40.1953 31.3125L38.6116 30.0911L38.6113 30.0915L40.1953 31.3125ZM25.0781 32.3281L23.2081 33.0374L23.2094 33.0408L25.0781 32.3281ZM25.0781 21.2344L27.0114 21.7468L27.0126 21.742L25.0781 21.2344ZM30.0391 11.1172L28.451 9.90147L28.4488 9.90429L30.0391 11.1172ZM33.4766 18.6562L35.1551 19.7437L35.1607 19.7351L35.1662 19.7264L33.4766 18.6562ZM30.9766 24.0859L29.0432 23.5742L29.0396 23.5875L29.0363 23.6009L30.9766 24.0859ZM31.4062 29.2422L29.821 30.4616L29.83 30.4734L29.8393 30.485L31.4062 29.2422ZM37.8516 28.0703L36.2638 26.8542L36.2613 26.8574L37.8516 28.0703ZM39.8828 23.7344L37.944 23.2432L37.9425 23.2493L39.8828 23.7344ZM40.1953 17.9531L42.173 17.6551L42.1707 17.6397L42.1681 17.6243L40.1953 17.9531ZM39.2578 7.45312C40.2421 7.45312 40.9716 7.71734 41.5564 8.17738C42.166 8.65694 42.7586 9.4616 43.2432 10.7613L46.9911 9.36374C46.3299 7.59048 45.373 6.09046 44.0295 5.03356C42.6612 3.95714 41.0339 3.45312 39.2578 3.45312V7.45312ZM43.2458 10.7681C43.7501 12.1057 44.0156 13.6082 44.0156 15.2969H48.0156C48.0156 13.1835 47.6821 11.1963 46.9886 9.35689L43.2458 10.7681ZM44.0156 15.2969C44.0156 16.9219 43.7715 18.7324 43.2578 20.7382L47.1328 21.7306C47.7128 19.4656 48.0156 17.3177 48.0156 15.2969H44.0156ZM43.2617 20.7233C42.3683 24.1039 40.8234 27.223 38.6116 30.0911L41.7791 32.5339C44.3068 29.2561 46.0953 25.6565 47.1289 21.7454L43.2617 20.7233ZM38.6113 30.0915C35.9155 33.5887 33.3754 34.9375 31.0156 34.9375V38.9375C35.1142 38.9375 38.6938 36.5363 41.7793 32.5335L38.6113 30.0915ZM31.0156 34.9375C30.0139 34.9375 29.2672 34.6706 28.6678 34.2053C28.045 33.7218 27.4421 32.914 26.9468 31.6155L23.2094 33.0408C23.8861 34.8151 24.8587 36.3121 26.215 37.365C27.5948 38.4362 29.2309 38.9375 31.0156 38.9375V34.9375ZM26.9481 31.6188C26.4738 30.3683 26.2188 28.921 26.2188 27.25H22.2188C22.2188 29.329 22.5366 31.2671 23.2081 33.0374L26.9481 31.6188ZM26.2188 27.25C26.2188 25.6056 26.4739 23.7747 27.0114 21.7468L23.1449 20.7219C22.5366 23.017 22.2188 25.1964 22.2188 27.25H26.2188ZM27.0126 21.742C27.9079 18.3303 29.4428 15.1968 31.6293 12.3301L28.4488 9.90429C25.9478 13.1834 24.1754 16.7947 23.1436 20.7267L27.0126 21.742ZM31.6272 12.3329C34.3214 8.8134 36.8735 7.45312 39.2578 7.45312V3.45312C35.1317 3.45312 31.538 5.86889 28.451 9.90147L31.6272 12.3329ZM37.8516 13.1406C35.2909 13.1406 33.3118 15.1785 31.7869 17.5861L35.1662 19.7264C36.6101 17.4465 37.5476 17.1406 37.8516 17.1406V13.1406ZM31.7981 17.5688C30.5078 19.5602 29.5756 21.5626 29.0432 23.5742L32.91 24.5977C33.315 23.0676 34.0495 21.4502 35.1551 19.7437L31.7981 17.5688ZM29.0363 23.6009C28.7727 24.6552 28.625 25.6682 28.625 26.625H32.625C32.625 26.0714 32.7117 25.3916 32.9168 24.571L29.0363 23.6009ZM28.625 26.625C28.625 28.0216 28.97 29.3553 29.821 30.4616L32.9915 28.0228C32.8008 27.7749 32.625 27.3639 32.625 26.625H28.625ZM29.8393 30.485C30.8619 31.7744 32.303 32.375 33.9062 32.375V28.375C33.3741 28.375 33.1486 28.2204 32.9732 27.9994L29.8393 30.485ZM33.9062 32.375C36.1795 32.375 38.0249 31.141 39.4418 29.2832L36.2613 26.8574C35.3345 28.0726 34.5497 28.375 33.9062 28.375V32.375ZM39.4393 29.2865C40.5611 27.8219 41.3477 26.1209 41.8231 24.2194L37.9425 23.2493C37.5846 24.6811 37.017 25.8708 36.2638 26.8542L39.4393 29.2865ZM41.8216 24.2255C42.3785 22.0272 42.501 19.8317 42.173 17.6551L38.2176 18.2511C38.4626 19.8766 38.3767 21.5353 37.9441 23.2432L41.8216 24.2255ZM42.1681 17.6243C41.9832 16.5149 41.6224 15.4166 40.9114 14.5634C40.1303 13.626 39.0535 13.1406 37.8516 13.1406V17.1406C37.9089 17.1406 37.9013 17.15 37.8631 17.1323C37.8235 17.1141 37.8158 17.0968 37.8386 17.1241C37.9088 17.2084 38.0949 17.5164 38.2225 18.2819L42.1681 17.6243ZM48.1641 8.42188L47.7962 6.456L46.4336 6.71099L46.1941 8.07637L48.1641 8.42188ZM54.8438 7.17188L56.7778 7.68122L57.5828 4.62459L54.4759 5.206L54.8438 7.17188ZM50.8594 25.5312L48.8841 25.2179L48.3205 28.7703L51.6355 27.3745L50.8594 25.5312ZM54.5703 23.9688L55.3464 25.812L56.3512 25.3889L56.5401 24.3152L54.5703 23.9688ZM57.3047 8.42188L56.9368 6.456L55.5749 6.71086L55.3349 8.07543L57.3047 8.42188ZM63.9844 7.17188L65.923 7.66362L66.6924 4.6304L63.6165 5.206L63.9844 7.17188ZM58.7109 34.3203L59.2413 36.2487L60.5522 35.8882L60.6992 34.5366L58.7109 34.3203ZM52.4609 36.0391L50.4926 35.6844L49.9296 38.8094L52.9913 37.9675L52.4609 36.0391ZM53.2422 31.7031L55.2105 32.0578L55.8773 28.357L52.436 29.8728L53.2422 31.7031ZM43.3203 36.0391L41.3504 35.6936L40.7078 39.3576L44.1186 37.8729L43.3203 36.0391ZM48.5319 10.3877L55.2116 9.13775L54.4759 5.206L47.7962 6.456L48.5319 10.3877ZM52.9097 6.66253C51.1003 13.5328 49.7564 19.7197 48.8841 25.2179L52.8347 25.8446C53.6811 20.5095 54.9934 14.4568 56.7778 7.68122L52.9097 6.66253ZM51.6355 27.3745L55.3464 25.812L53.7942 22.1255L50.0833 23.688L51.6355 27.3745ZM56.5401 24.3152L59.2745 8.76832L55.3349 8.07543L52.6005 23.6223L56.5401 24.3152ZM57.6726 10.3877L64.3523 9.13775L63.6165 5.206L56.9368 6.456L57.6726 10.3877ZM62.0458 6.68013C59.3242 17.4095 57.5436 26.5569 56.7227 34.104L60.6992 34.5366C61.4929 27.2399 63.2279 18.2884 65.923 7.66362L62.0458 6.68013ZM58.1806 32.3919L51.9306 34.1107L52.9913 37.9675L59.2413 36.2487L58.1806 32.3919ZM54.4292 36.3937L55.2105 32.0578L51.2739 31.3485L50.4926 35.6844L54.4292 36.3937ZM52.436 29.8728C50.2526 30.8345 46.9486 32.2784 42.5221 34.2053L44.1186 37.8729C48.5462 35.9455 51.8568 34.4988 54.0484 33.5334L52.436 29.8728ZM45.2902 36.3846L50.134 8.76738L46.1941 8.07637L41.3504 35.6936L45.2902 36.3846ZM74.375 4.47656L76.2521 5.16697L77.3259 2.24753L74.2241 2.48226L74.375 4.47656ZM70.8984 16.8203L71.2056 18.7966L72.62 18.5767L72.8681 17.1671L70.8984 16.8203ZM63.3594 17.9922L61.4396 17.4313L60.5571 20.4518L63.6666 19.9685L63.3594 17.9922ZM67.1484 5.02344L66.9975 3.02914L65.617 3.13361L65.2287 4.46255L67.1484 5.02344ZM72.4979 3.78615C70.8012 8.39914 69.6052 12.6309 68.9287 16.4735L72.8681 17.1671C73.4937 13.6139 74.6155 9.61648 76.2521 5.16697L72.4979 3.78615ZM70.5912 14.844L63.0522 16.0159L63.6666 19.9685L71.2056 18.7966L70.5912 14.844ZM65.2791 18.5531L69.0682 5.58433L65.2287 4.46255L61.4396 17.4313L65.2791 18.5531ZM67.2994 7.01774L74.5259 6.47086L74.2241 2.48226L66.9975 3.02914L67.2994 7.01774ZM74.3359 8.38281L73.7624 6.46682L72.5774 6.82155L72.3655 8.04013L74.3359 8.38281ZM89.6094 10.2188L87.6095 10.1975L87.6094 10.2039L89.6094 10.2188ZM82.9688 20.8047L81.7149 19.2466L80.5952 20.1476L81.0921 21.4961L82.9688 20.8047ZM87.5 30.1406L88.8566 31.6102L89.9679 30.5843L89.2835 29.2356L87.5 30.1406ZM81.3672 35.6484L79.5024 36.3714L80.5415 39.0515L82.6933 37.1456L81.3672 35.6484ZM77.1875 24.8672L79.0523 24.1443L78.5572 22.8672H77.1875V24.8672ZM77.1484 24.8672V22.8672H75.4816L75.1812 24.5068L77.1484 24.8672ZM75.7422 34.3203L76.2787 36.247L77.5849 35.8833L77.7306 34.5353L75.7422 34.3203ZM69.5703 36.0391L67.5785 35.858L67.3163 38.7429L70.1069 37.9657L69.5703 36.0391ZM70.4297 30.8438L72.398 31.1984L72.4001 31.1864L70.4297 30.8438ZM79.2578 14.5547L78.6125 12.6617L77.5985 13.0073L77.3244 14.0429L79.2578 14.5547ZM78.6328 17.2109L80.5917 17.6142L78.6328 17.2109ZM78.0859 19.8672L76.127 19.4639L75.2843 23.557L79.0006 21.6458L78.0859 19.8672ZM80.7812 18.0312L82.0791 19.5529L82.0874 19.5459L82.0955 19.5388L80.7812 18.0312ZM82.8125 15.4922L81.0642 14.5209L81.0107 14.6172L80.9681 14.7187L82.8125 15.4922ZM74.9095 10.2988C78.9145 9.09985 82.049 8.54688 84.375 8.54688V4.54688C81.4926 4.54688 77.9344 5.21786 73.7624 6.46682L74.9095 10.2988ZM84.375 8.54688C85.964 8.54688 86.7909 8.835 87.1717 9.10216C87.4175 9.27458 87.6167 9.51937 87.6095 10.1975L91.6093 10.24C91.6281 8.47021 90.9679 6.87907 89.4689 5.82753C88.1049 4.87073 86.3016 4.54688 84.375 4.54688V8.54688ZM87.6094 10.2039C87.59 12.8329 85.9298 15.8546 81.7149 19.2466L84.2226 22.3628C88.8098 18.6714 91.5767 14.6358 91.6093 10.2336L87.6094 10.2039ZM81.0921 21.4961C81.508 22.625 83.0911 25.8722 85.7165 31.0457L89.2835 29.2356C86.5964 23.9403 85.1587 20.9636 84.8454 20.1133L81.0921 21.4961ZM86.1434 28.671C84.8049 29.9066 82.7731 31.7315 80.0411 34.1513L82.6933 37.1456C85.43 34.7216 87.4868 32.8746 88.8566 31.6102L86.1434 28.671ZM83.232 34.9255L79.0523 24.1443L75.3227 25.5901L79.5024 36.3714L83.232 34.9255ZM77.1875 22.8672H77.1484V26.8672H77.1875V22.8672ZM75.1812 24.5068C74.549 27.9576 74.0724 31.1578 73.7538 34.1053L77.7306 34.5353C78.0369 31.7016 78.4979 28.5997 79.1157 25.2276L75.1812 24.5068ZM75.2056 32.3936L69.0338 34.1124L70.1069 37.9657L76.2787 36.247L75.2056 32.3936ZM71.5621 36.2201C71.6042 35.7574 71.8689 34.1349 72.398 31.1984L68.4614 30.4891C67.9488 33.3338 67.6406 35.1749 67.5785 35.858L71.5621 36.2201ZM72.4001 31.1864L76.3064 8.72549L72.3655 8.04013L68.4593 30.5011L72.4001 31.1864ZM77.3244 14.0429C77.0806 14.9638 76.8638 15.8853 76.6739 16.8076L80.5917 17.6142C80.7664 16.7657 80.9662 15.9164 81.1912 15.0665L77.3244 14.0429ZM76.6739 16.8076L76.127 19.4639L80.0449 20.2705L80.5917 17.6142L76.6739 16.8076ZM79.0006 21.6458C80.0663 21.0977 81.0919 20.395 82.0791 19.5529L79.4834 16.5096C78.6998 17.1779 77.9285 17.6992 77.1712 18.0886L79.0006 21.6458ZM82.0955 19.5388C83.2291 18.5505 84.1534 17.4662 84.6569 16.2656L80.9681 14.7187C80.7945 15.1328 80.3646 15.7412 79.467 16.5237L82.0955 19.5388ZM84.5608 16.4635C84.8099 16.0151 85.0078 15.4603 85.0078 14.8281H81.0078C81.0078 14.6127 81.0755 14.5005 81.0642 14.5209L84.5608 16.4635ZM85.0078 14.8281C85.0078 14.0622 84.7266 13.192 83.9334 12.5902C83.2445 12.0676 82.4485 11.9688 81.875 11.9688V15.9688C82.0567 15.9688 81.8272 16.0131 81.5158 15.777C81.3419 15.645 81.1971 15.4641 81.106 15.2567C81.02 15.0611 81.0078 14.9022 81.0078 14.8281H85.0078ZM81.875 11.9688C80.9308 11.9688 79.7988 12.2572 78.6125 12.6617L79.9032 16.4477C81.0085 16.0709 81.6213 15.9688 81.875 15.9688V11.9688ZM95.5859 14.2422L95.2728 12.2669L94.0005 12.4686L93.658 13.7103L95.5859 14.2422ZM95.0391 16.4688L93.0835 16.0497L93.0806 16.0631L93.0779 16.0765L95.0391 16.4688ZM94.6094 18.6172L92.6482 18.225L92.0522 21.2053L95.0251 20.5735L94.6094 18.6172ZM100.859 17.2891L102.855 17.4192L103.027 14.7838L100.444 15.3327L100.859 17.2891ZM100.508 22.6797L100.853 24.6496L102.401 24.378L102.504 22.8098L100.508 22.6797ZM93.5156 24.0469L93.0659 22.0981L91.8077 22.3884L91.5545 23.6546L93.5156 24.0469ZM93.2422 25.6094L95.2107 25.9627L95.2158 25.9344L95.2201 25.9061L93.2422 25.6094ZM92.9688 27.1328L91.0002 26.7795L90.51 29.5107L93.2561 29.1121L92.9688 27.1328ZM100.234 26.0781L102.23 26.2176L102.403 23.7424L99.9471 24.0989L100.234 26.0781ZM99.7266 33.3438L99.8927 35.3368L101.602 35.1944L101.722 33.4832L99.7266 33.3438ZM85.4688 36.0391L83.4957 35.7116L82.9926 38.7432L85.9682 37.9757L85.4688 36.0391ZM90.1172 8.03125L89.8318 6.05171L88.3837 6.26045L88.1442 7.70379L90.1172 8.03125ZM103.125 6.15625L105.12 6.29644L105.294 3.82295L102.84 4.17671L103.125 6.15625ZM102.617 13.3828L102.8 15.3744L104.493 15.219L104.612 13.523L102.617 13.3828ZM93.658 13.7103C93.4398 14.501 93.2482 15.2808 93.0835 16.0497L96.9947 16.8878C97.1424 16.1983 97.3154 15.4938 97.5139 14.774L93.658 13.7103ZM93.0779 16.0765L92.6482 18.225L96.5705 19.0094L97.0002 16.861L93.0779 16.0765ZM95.0251 20.5735L101.275 19.2454L100.444 15.3327L94.1937 16.6609L95.0251 20.5735ZM98.8636 17.1589L98.5121 22.5495L102.504 22.8098L102.855 17.4192L98.8636 17.1589ZM100.162 20.7098C97.1799 21.233 94.8092 21.6958 93.0659 22.0981L93.9653 25.9957C95.6075 25.6167 97.8983 25.168 100.853 24.6496L100.162 20.7098ZM91.5545 23.6546C91.444 24.2069 91.3473 24.7596 91.2643 25.3127L95.2201 25.9061C95.2933 25.4175 95.3789 24.9285 95.4768 24.4391L91.5545 23.6546ZM91.2736 25.256L91.0002 26.7795L94.9373 27.4861L95.2107 25.9627L91.2736 25.256ZM93.2561 29.1121L100.522 28.0574L99.9471 24.0989L92.6814 25.1536L93.2561 29.1121ZM98.2392 25.9387L97.7314 33.2043L101.722 33.4832L102.23 26.2176L98.2392 25.9387ZM99.5605 31.3507C95.6528 31.6763 90.7789 32.604 84.9693 34.1024L85.9682 37.9757C91.669 36.5053 96.3003 35.6362 99.8927 35.3368L99.5605 31.3507ZM87.4418 36.3665L92.0902 8.35871L88.1442 7.70379L83.4957 35.7116L87.4418 36.3665ZM90.4025 10.0108L103.41 8.13579L102.84 4.17671L89.8318 6.05171L90.4025 10.0108ZM101.13 6.01606L100.622 13.2426L104.612 13.523L105.12 6.29644L101.13 6.01606ZM102.434 11.3912C99.8463 11.6289 97.4584 11.9203 95.2728 12.2669L95.8991 16.2175C97.9843 15.8869 100.284 15.6055 102.8 15.3744L102.434 11.3912ZM113.438 8.42188L113.072 6.45561L111.705 6.70982L111.467 8.07908L113.438 8.42188ZM120.156 7.17188L122.092 7.67397L122.882 4.63053L119.79 5.20561L120.156 7.17188ZM114.844 34.3203L115.377 36.2479L116.685 35.8859L116.832 34.5367L114.844 34.3203ZM108.633 36.0391L106.662 35.6963L106.121 38.8094L109.166 37.9666L108.633 36.0391ZM113.803 10.3881L120.522 9.13814L119.79 5.20561L113.072 6.45561L113.803 10.3881ZM118.22 6.66978C115.496 17.1722 113.703 26.3217 112.855 34.1039L116.832 34.5367C117.652 27.0064 119.399 18.0569 122.092 7.67397L118.22 6.66978ZM114.31 32.3928L108.099 34.1115L109.166 37.9666L115.377 36.2479L114.31 32.3928ZM110.603 36.3819L115.408 8.76467L111.467 8.07908L106.662 35.6963L110.603 36.3819ZM121.758 8.53906L121.361 6.57878L120.024 6.84935L119.788 8.19329L121.758 8.53906ZM128.516 7.17188L130.511 7.30064L130.68 4.69354L128.119 5.21159L128.516 7.17188ZM128.789 19.9453L130.782 19.7764L130.781 19.7712L128.789 19.9453ZM129.375 23.6562L127.448 24.1915L131.345 23.9998L129.375 23.6562ZM132.031 8.42188L131.665 6.45561L130.3 6.70972L130.061 8.07834L132.031 8.42188ZM138.75 7.17188L140.686 7.67397L141.475 4.63053L138.384 5.20561L138.75 7.17188ZM133.438 34.3203L133.974 36.247L135.279 35.8835L135.426 34.5367L133.438 34.3203ZM127.266 36.0391L125.477 36.9335L126.214 38.408L127.802 37.9657L127.266 36.0391ZM126.758 34.6719L124.871 35.3348L124.875 35.3451L124.878 35.3554L126.758 34.6719ZM124.727 28.8906L126.613 28.2277L126.611 28.2195L126.608 28.2113L124.727 28.8906ZM124.141 27.0938L126.102 26.7015L122.172 26.7433L124.141 27.0938ZM122.852 36.0391L123.426 37.9547L124.697 37.5734L124.84 36.254L122.852 36.0391ZM116.602 37.9141L114.632 37.5683L114.071 40.7612L117.176 39.8297L116.602 37.9141ZM122.154 10.4993L128.912 9.13216L128.119 5.21159L121.361 6.57878L122.154 10.4993ZM126.52 7.04311C126.464 7.91481 126.438 9.11109 126.438 10.6094H130.438C130.438 9.13891 130.464 8.04352 130.511 7.30064L126.52 7.04311ZM126.438 10.6094C126.438 14.1922 126.556 17.3645 126.797 20.1194L130.781 19.7712C130.553 17.1615 130.438 14.1099 130.438 10.6094H126.438ZM126.796 20.1142C126.932 21.7118 127.141 23.0858 127.448 24.1915L131.302 23.121C131.088 22.3517 130.907 21.2518 130.782 19.7764L126.796 20.1142ZM131.345 23.9998L134.002 8.76541L130.061 8.07834L127.405 23.3127L131.345 23.9998ZM132.397 10.3881L139.116 9.13814L138.384 5.20561L131.665 6.45561L132.397 10.3881ZM136.814 6.66978C134.09 17.1722 132.296 26.3217 131.449 34.1039L135.426 34.5367C136.245 27.0064 137.993 18.0569 140.686 7.67397L136.814 6.66978ZM132.901 32.3936L126.729 34.1124L127.802 37.9657L133.974 36.247L132.901 32.3936ZM129.054 35.1446C129.092 35.2201 129.115 35.2793 129.103 35.251C129.102 35.2469 129.096 35.2333 129.086 35.2064C129.066 35.1535 129.035 35.0732 128.994 34.9618C128.912 34.7405 128.793 34.4168 128.637 33.9884L124.878 35.3554C125.035 35.7863 125.157 36.1202 125.244 36.3546C125.299 36.5019 125.401 36.7815 125.477 36.9335L129.054 35.1446ZM128.645 34.0089L126.613 28.2277L122.84 29.5536L124.871 35.3348L128.645 34.0089ZM126.608 28.2113C126.442 27.7524 126.316 27.3899 126.228 27.1182C126.183 26.9825 126.151 26.8774 126.128 26.7993C126.104 26.7144 126.099 26.6883 126.102 26.7015L122.179 27.486C122.267 27.9245 122.524 28.6791 122.845 29.5699L126.608 28.2113ZM122.172 26.7433C121.617 29.8579 121.181 32.8849 120.863 35.8241L124.84 36.254C125.147 33.4119 125.57 30.4754 126.11 27.4442L122.172 26.7433ZM122.277 34.1234L116.027 35.9984L117.176 39.8297L123.426 37.9547L122.277 34.1234ZM118.571 38.2598L123.728 8.88484L119.788 8.19329L114.632 37.5683L118.571 38.2598ZM155.039 10.9219L156.517 12.269L157.389 11.3129L156.874 10.1262L155.039 10.9219ZM150.625 15.7656L149.181 17.1494L150.662 18.6946L152.103 17.1127L150.625 15.7656ZM144.258 18.3828L145.953 19.4448L145.953 19.4445L144.258 18.3828ZM141.875 23.8516L143.826 24.2921L143.828 24.2824L143.83 24.2727L141.875 23.8516ZM143.516 29.6328L142.607 31.4143L142.614 31.418L142.621 31.4217L143.516 29.6328ZM149.102 26.9375L151.033 26.4181L149.958 22.4195L147.494 25.7475L149.102 26.9375ZM150.352 31.5859L151.838 32.9239L152.565 32.1161L152.283 31.0666L150.352 31.5859ZM136.562 31.5859L138.396 30.786L138.39 30.7732L138.384 30.7605L136.562 31.5859ZM136.016 21.1953L137.964 21.645L137.967 21.6354L136.016 21.1953ZM140.469 11.7031L142.058 12.917L142.062 12.9127L140.469 11.7031ZM149.062 8.50781C150.031 8.50781 150.78 8.76253 151.4 9.22012C152.041 9.6934 152.666 10.4763 153.204 11.7175L156.874 10.1262C156.136 8.42476 155.127 7.00061 153.776 6.00254C152.403 4.98877 150.802 4.50781 149.062 4.50781V8.50781ZM153.561 9.57475L149.147 14.4185L152.103 17.1127L156.517 12.269L153.561 9.57475ZM152.069 14.3818C151.138 13.4101 149.943 12.8281 148.555 12.8281V16.8281C148.729 16.8281 148.914 16.8711 149.181 17.1494L152.069 14.3818ZM148.555 12.8281C147.26 12.8281 146.121 13.3897 145.17 14.1758C144.229 14.9548 143.367 16.0369 142.563 17.3211L145.953 19.4445C146.633 18.359 147.23 17.6637 147.72 17.2578C148.202 16.859 148.469 16.8281 148.555 16.8281V12.8281ZM142.563 17.3208C141.254 19.4095 140.347 21.4493 139.92 23.4305L143.83 24.2727C144.133 22.8684 144.814 21.2624 145.953 19.4448L142.563 17.3208ZM139.924 23.411C139.718 24.326 139.602 25.2062 139.602 26.0391H143.602C143.602 25.5698 143.668 24.9917 143.826 24.2921L139.924 23.411ZM139.602 26.0391C139.602 28.3384 140.502 30.3405 142.607 31.4143L144.425 27.8513C143.977 27.6231 143.602 27.2293 143.602 26.0391H139.602ZM142.621 31.4217C143.317 31.7698 144.067 31.9453 144.844 31.9453V27.9453C144.683 27.9453 144.547 27.9125 144.41 27.844L142.621 31.4217ZM144.844 31.9453C147.208 31.9453 149.149 30.2354 150.709 28.1275L147.494 25.7475C146.086 27.65 145.188 27.9453 144.844 27.9453V31.9453ZM147.17 27.4569L148.42 32.1053L152.283 31.0666L151.033 26.4181L147.17 27.4569ZM148.865 30.248C146.492 32.8846 144.373 33.8828 142.5 33.8828V37.8828C145.94 37.8828 149.055 36.0164 151.838 32.9239L148.865 30.248ZM142.5 33.8828C141.519 33.8828 140.768 33.6309 140.157 33.1884C139.527 32.7326 138.917 31.9807 138.396 30.786L134.729 32.3858C135.458 34.0558 136.462 35.4523 137.812 36.4288C139.179 37.4185 140.773 37.8828 142.5 37.8828V33.8828ZM138.384 30.7605C137.76 29.3836 137.43 27.8081 137.43 26H133.43C133.43 28.3065 133.854 30.4549 134.741 32.4114L138.384 30.7605ZM137.43 26C137.43 24.6615 137.603 23.2118 137.964 21.645L134.067 20.7456C133.647 22.5643 133.43 24.3176 133.43 26H137.43ZM137.967 21.6354C138.684 18.4571 140.043 15.5562 142.058 12.917L138.879 10.4893C136.52 13.5792 134.91 17.0064 134.065 20.7552L137.967 21.6354ZM142.062 12.9127C144.476 9.73385 146.815 8.50781 149.062 8.50781V4.50781C145.112 4.50781 141.722 6.74532 138.876 10.4936L142.062 12.9127ZM155.117 8.38281L154.544 6.46682L153.359 6.82155L153.147 8.04013L155.117 8.38281ZM170.391 10.2188L168.391 10.1975L168.391 10.2039L170.391 10.2188ZM163.75 20.8047L162.496 19.2466L161.376 20.1476L161.873 21.4961L163.75 20.8047ZM168.281 30.1406L169.638 31.6102L170.749 30.5843L170.065 29.2356L168.281 30.1406ZM162.148 35.6484L160.284 36.3714L161.323 39.0515L163.475 37.1456L162.148 35.6484ZM157.969 24.8672L159.834 24.1443L159.338 22.8672H157.969V24.8672ZM157.93 24.8672V22.8672H156.263L155.962 24.5068L157.93 24.8672ZM156.523 34.3203L157.06 36.247L158.366 35.8833L158.512 34.5353L156.523 34.3203ZM150.352 36.0391L148.36 35.858L148.098 38.7429L150.888 37.9657L150.352 36.0391ZM151.211 30.8438L153.179 31.1984L153.181 31.1864L151.211 30.8438ZM160.039 14.5547L159.394 12.6617L158.38 13.0073L158.106 14.0429L160.039 14.5547ZM159.414 17.2109L161.373 17.6142L159.414 17.2109ZM158.867 19.8672L156.908 19.4639L156.066 23.557L159.782 21.6458L158.867 19.8672ZM161.562 18.0312L162.86 19.5529L162.869 19.5459L162.877 19.5388L161.562 18.0312ZM163.594 15.4922L161.845 14.5209L161.792 14.6172L161.749 14.7187L163.594 15.4922ZM155.691 10.2988C159.696 9.09985 162.83 8.54688 165.156 8.54688V4.54688C162.274 4.54688 158.716 5.21786 154.544 6.46682L155.691 10.2988ZM165.156 8.54688C166.745 8.54688 167.572 8.835 167.953 9.10216C168.199 9.27458 168.398 9.51937 168.391 10.1975L172.391 10.24C172.409 8.47021 171.749 6.87907 170.25 5.82753C168.886 4.87073 167.083 4.54688 165.156 4.54688V8.54688ZM168.391 10.2039C168.371 12.8329 166.711 15.8546 162.496 19.2466L165.004 22.3628C169.591 18.6714 172.358 14.6358 172.391 10.2336L168.391 10.2039ZM161.873 21.4961C162.289 22.625 163.872 25.8722 166.498 31.0457L170.065 29.2356C167.378 23.9403 165.94 20.9636 165.627 20.1133L161.873 21.4961ZM166.925 28.671C165.586 29.9066 163.554 31.7315 160.822 34.1513L163.475 37.1456C166.211 34.7216 168.268 32.8746 169.638 31.6102L166.925 28.671ZM164.013 34.9255L159.834 24.1443L156.104 25.5901L160.284 36.3714L164.013 34.9255ZM157.969 22.8672H157.93V26.8672H157.969V22.8672ZM155.962 24.5068C155.33 27.9576 154.854 31.1578 154.535 34.1053L158.512 34.5353C158.818 31.7016 159.279 28.5997 159.897 25.2276L155.962 24.5068ZM155.987 32.3936L149.815 34.1124L150.888 37.9657L157.06 36.247L155.987 32.3936ZM152.343 36.2201C152.385 35.7574 152.65 34.1349 153.179 31.1984L149.243 30.4891C148.73 33.3338 148.422 35.1749 148.36 35.858L152.343 36.2201ZM153.181 31.1864L157.088 8.72549L153.147 8.04013L149.241 30.5011L153.181 31.1864ZM158.106 14.0429C157.862 14.9638 157.645 15.8853 157.455 16.8076L161.373 17.6142C161.548 16.7657 161.747 15.9164 161.972 15.0665L158.106 14.0429ZM157.455 16.8076L156.908 19.4639L160.826 20.2705L161.373 17.6142L157.455 16.8076ZM159.782 21.6458C160.848 21.0977 161.873 20.395 162.86 19.5529L160.265 16.5096C159.481 17.1779 158.71 17.6992 157.952 18.0886L159.782 21.6458ZM162.877 19.5388C164.01 18.5505 164.935 17.4662 165.438 16.2656L161.749 14.7187C161.576 15.1328 161.146 15.7412 160.248 16.5237L162.877 19.5388ZM165.342 16.4635C165.591 16.0151 165.789 15.4603 165.789 14.8281H161.789C161.789 14.6127 161.857 14.5005 161.845 14.5209L165.342 16.4635ZM165.789 14.8281C165.789 14.0622 165.508 13.192 164.715 12.5902C164.026 12.0676 163.23 11.9688 162.656 11.9688V15.9688C162.838 15.9688 162.608 16.0131 162.297 15.777C162.123 15.645 161.978 15.4641 161.887 15.2567C161.801 15.0611 161.789 14.9022 161.789 14.8281H165.789ZM162.656 11.9688C161.712 11.9688 160.58 12.2572 159.394 12.6617L160.684 16.4477C161.79 16.0709 162.403 15.9688 162.656 15.9688V11.9688ZM176.367 14.2422L176.054 12.2669L174.782 12.4686L174.439 13.7103L176.367 14.2422ZM175.82 16.4688L173.865 16.0497L173.862 16.0631L173.859 16.0765L175.82 16.4688ZM175.391 18.6172L173.429 18.225L172.833 21.2053L175.806 20.5735L175.391 18.6172ZM181.641 17.2891L183.636 17.4192L183.808 14.7838L181.225 15.3327L181.641 17.2891ZM181.289 22.6797L181.635 24.6496L183.183 24.378L183.285 22.8098L181.289 22.6797ZM174.297 24.0469L173.847 22.0981L172.589 22.3884L172.336 23.6546L174.297 24.0469ZM174.023 25.6094L175.992 25.9627L175.997 25.9344L176.001 25.9061L174.023 25.6094ZM173.75 27.1328L171.781 26.7795L171.291 29.5107L174.037 29.1121L173.75 27.1328ZM181.016 26.0781L183.011 26.2176L183.184 23.7424L180.728 24.0989L181.016 26.0781ZM180.508 33.3438L180.674 35.3368L182.383 35.1944L182.503 33.4832L180.508 33.3438ZM166.25 36.0391L164.277 35.7116L163.774 38.7432L166.749 37.9757L166.25 36.0391ZM170.898 8.03125L170.613 6.05171L169.165 6.26045L168.925 7.70379L170.898 8.03125ZM183.906 6.15625L185.901 6.29644L186.075 3.82295L183.621 4.17671L183.906 6.15625ZM183.398 13.3828L183.581 15.3744L185.274 15.219L185.394 13.523L183.398 13.3828ZM174.439 13.7103C174.221 14.501 174.029 15.2808 173.865 16.0497L177.776 16.8878C177.924 16.1983 178.097 15.4938 178.295 14.774L174.439 13.7103ZM173.859 16.0765L173.429 18.225L177.352 19.0094L177.781 16.861L173.859 16.0765ZM175.806 20.5735L182.056 19.2454L181.225 15.3327L174.975 16.6609L175.806 20.5735ZM179.645 17.1589L179.293 22.5495L183.285 22.8098L183.636 17.4192L179.645 17.1589ZM180.943 20.7098C177.961 21.233 175.59 21.6958 173.847 22.0981L174.747 25.9957C176.389 25.6167 178.68 25.168 181.635 24.6496L180.943 20.7098ZM172.336 23.6546C172.225 24.2069 172.129 24.7596 172.046 25.3127L176.001 25.9061C176.075 25.4175 176.16 24.9285 176.258 24.4391L172.336 23.6546ZM172.055 25.256L171.781 26.7795L175.719 27.4861L175.992 25.9627L172.055 25.256ZM174.037 29.1121L181.303 28.0574L180.728 24.0989L173.463 25.1536L174.037 29.1121ZM179.02 25.9387L178.513 33.2043L182.503 33.4832L183.011 26.2176L179.02 25.9387ZM180.342 31.3507C176.434 31.6763 171.56 32.604 165.751 34.1024L166.749 37.9757C172.45 36.5053 177.082 35.6362 180.674 35.3368L180.342 31.3507ZM168.223 36.3665L172.871 8.35871L168.925 7.70379L164.277 35.7116L168.223 36.3665ZM171.184 10.0108L184.192 8.13579L183.621 4.17671L170.613 6.05171L171.184 10.0108ZM181.911 6.01606L181.403 13.2426L185.394 13.523L185.901 6.29644L181.911 6.01606ZM183.216 11.3912C180.628 11.6289 178.24 11.9203 176.054 12.2669L176.68 16.2175C178.766 15.8869 181.065 15.6055 183.581 15.3744L183.216 11.3912ZM185.273 8.38281L184.646 6.4838L183.374 6.90411L183.279 8.24032L185.273 8.38281ZM198.242 8.73438L199.678 7.34175L199.667 7.33087L199.656 7.32016L198.242 8.73438ZM200.43 17.9922L198.481 17.5425L198.479 17.551L198.477 17.5595L200.43 17.9922ZM193.242 30.0234L194.583 31.5075L194.589 31.5024L193.242 30.0234ZM180.625 36.0391L178.633 35.858L178.407 38.3422L180.881 38.0226L180.625 36.0391ZM181.445 30.9219L183.416 31.2653L183.416 31.2646L181.445 30.9219ZM184.57 12.9531L186.541 13.2958L186.542 13.2873L186.544 13.2788L184.57 12.9531ZM190.859 14.8281L190.775 12.8299L189.259 12.8937L188.912 14.3712L190.859 14.8281ZM188.125 29.3203L186.144 29.0486L185.369 34.6973L189.502 30.7703L188.125 29.3203ZM192.305 24.1641L190.613 23.0975L190.61 23.102L192.305 24.1641ZM185.901 10.2818C188.786 9.32842 191.1 8.89844 192.891 8.89844V4.89844C190.514 4.89844 187.75 5.45804 184.646 6.4838L185.901 10.2818ZM192.891 8.89844C194.897 8.89844 196.096 9.41707 196.828 10.1486L199.656 7.32016C197.94 5.60377 195.572 4.89844 192.891 4.89844V8.89844ZM196.807 10.127C198.126 11.487 198.781 13.1051 198.781 15.1016H202.781C202.781 12.0981 201.744 9.47136 199.678 7.34175L196.807 10.127ZM198.781 15.1016C198.781 15.8419 198.686 16.6537 198.481 17.5425L202.378 18.4419C202.642 17.2994 202.781 16.1842 202.781 15.1016H198.781ZM198.477 17.5595C197.559 21.7042 195.395 25.3592 191.896 28.5445L194.589 31.5024C198.642 27.8127 201.27 23.4468 202.382 18.4249L198.477 17.5595ZM191.901 28.5394C188.399 31.7033 184.564 33.5134 180.369 34.0556L180.881 38.0226C185.957 37.3668 190.533 35.1665 194.583 31.5075L191.901 28.5394ZM182.617 36.2201C182.66 35.75 182.913 34.1459 183.416 31.2653L179.475 30.5784C178.988 33.375 178.695 35.1823 178.633 35.858L182.617 36.2201ZM183.416 31.2646L186.541 13.2958L182.6 12.6104L179.475 30.5792L183.416 31.2646ZM186.544 13.2788C186.975 10.6639 187.234 9.00924 187.268 8.52531L183.279 8.24032C183.279 8.23876 183.276 8.26579 183.268 8.33673C183.26 8.40245 183.249 8.4895 183.234 8.60026C183.203 8.82169 183.159 9.11871 183.101 9.49471C182.986 10.2458 182.818 11.289 182.597 12.6274L186.544 13.2788ZM188.912 14.3712C187.702 19.5282 186.778 24.4212 186.144 29.0486L190.106 29.5921C190.722 25.1049 191.621 20.3364 192.806 15.2851L188.912 14.3712ZM189.502 30.7703C191.195 29.1627 192.693 27.3115 193.999 25.2261L190.61 23.102C189.469 24.9229 188.18 26.5092 186.748 27.8703L189.502 30.7703ZM193.997 25.2307C195.591 22.7013 196.57 20.2602 196.57 17.9922H192.57C192.57 19.1616 192.039 20.8352 190.613 23.0975L193.997 25.2307ZM196.57 17.9922C196.57 16.5227 196.15 15.0505 194.94 14.0191C193.779 13.0292 192.26 12.7674 190.775 12.8299L190.944 16.8264C191.933 16.7847 192.269 16.9982 192.345 17.0629C192.372 17.0862 192.57 17.2482 192.57 17.9922H196.57ZM203.203 8.42188L202.837 6.45561L201.471 6.70982L201.233 8.07908L203.203 8.42188ZM209.922 7.17188L211.858 7.67397L212.647 4.63053L209.556 5.20561L209.922 7.17188ZM204.609 34.3203L205.143 36.2479L206.451 35.8859L206.598 34.5367L204.609 34.3203ZM198.398 36.0391L196.428 35.6963L195.886 38.8094L198.932 37.9666L198.398 36.0391ZM203.569 10.3881L210.288 9.13814L209.556 5.20561L202.837 6.45561L203.569 10.3881ZM207.986 6.66978C205.262 17.1722 203.468 26.3217 202.621 34.1039L206.598 34.5367C207.417 27.0064 209.165 18.0569 211.858 7.67397L207.986 6.66978ZM204.076 32.3928L197.865 34.1115L198.932 37.9666L205.143 36.2479L204.076 32.3928ZM200.369 36.3819L205.174 8.76467L201.233 8.07908L196.428 35.6963L200.369 36.3819ZM210.703 8.53906L210.394 6.56304L208.85 6.80434L208.711 8.3612L210.703 8.53906ZM215.391 7.48438L214.93 5.53821L214.918 5.54108L214.906 5.54409L215.391 7.48438ZM220.156 6.58594L220.045 4.58902L219.993 4.59194L219.94 4.59765L220.156 6.58594ZM226.641 10.2188L224.641 10.1975L224.641 10.2081V10.2188H226.641ZM220.234 20.6094L218.975 19.056L214.071 23.0329L220.37 22.6048L220.234 20.6094ZM224.883 22.875L226.838 22.4559L226.832 22.4263L226.825 22.397L224.883 22.875ZM222.188 29.9453L220.727 28.5793L220.725 28.5816L222.188 29.9453ZM216.875 34.0078L215.904 32.2595L215.902 32.2603L216.875 34.0078ZM206.602 36.0781L204.637 35.7043L204.208 37.9609L206.502 38.0756L206.602 36.0781ZM209.961 14.5547L207.981 14.2718L207.979 14.2855L209.961 14.5547ZM214.844 24.7891L214.343 22.8528L213.142 23.1633L212.887 24.377L214.844 24.7891ZM214.18 28.8125L212.199 28.5382L211.769 31.6385L214.763 30.7255L214.18 28.8125ZM216.992 14.3203L216.457 12.3933L215.325 12.7076L215.048 13.8491L216.992 14.3203ZM215.859 19.4766L213.903 19.0616L212.934 23.6294L216.909 21.1791L215.859 19.4766ZM219.922 15.4141L218.161 14.4659L218.156 14.4748L218.151 14.4838L219.922 15.4141ZM211.012 10.5151C211.947 10.3689 213.594 9.99505 215.876 9.42466L214.906 5.54409C212.604 6.11953 211.126 6.4488 210.394 6.56304L211.012 10.5151ZM215.852 9.43054C217.797 8.96983 219.294 8.69147 220.372 8.57423L219.94 4.59765C218.623 4.74082 216.943 5.06142 214.93 5.53821L215.852 9.43054ZM220.267 8.58286C220.701 8.55875 221.12 8.54688 221.523 8.54688V4.54688C221.042 4.54688 220.549 4.56104 220.045 4.58902L220.267 8.58286ZM221.523 8.54688C223.067 8.54688 223.857 8.83299 224.215 9.08979C224.445 9.2546 224.648 9.50106 224.641 10.1975L228.641 10.24C228.659 8.48852 228.023 6.89905 226.547 5.83989C225.199 4.87274 223.417 4.54688 221.523 4.54688V8.54688ZM224.641 10.2188C224.641 12.7976 223.052 15.7494 218.975 19.056L221.494 22.1628C225.958 18.5423 228.641 14.567 228.641 10.2188H224.641ZM220.37 22.6048C221.54 22.5252 222.2 22.6752 222.532 22.8369C222.766 22.9511 222.872 23.0754 222.941 23.353L226.825 22.397C226.477 20.9819 225.6 19.8822 224.284 19.2412C223.067 18.6478 221.611 18.5112 220.099 18.614L220.37 22.6048ZM222.927 23.2941C222.974 23.5145 223 23.7514 223 24.0078H227C227 23.483 226.947 22.9646 226.838 22.4559L222.927 23.2941ZM223 24.0078C223 25.2794 222.396 26.7939 220.727 28.5793L223.648 31.3113C225.729 29.0864 227 26.6425 227 24.0078H223ZM220.725 28.5816C219.454 29.944 217.857 31.1745 215.904 32.2595L217.846 35.7561C220.112 34.4974 222.056 33.0195 223.65 31.3091L220.725 28.5816ZM215.902 32.2603C213.712 33.4797 211.151 34.1172 208.164 34.1172V38.1172C211.739 38.1172 214.986 37.3484 217.848 35.7553L215.902 32.2603ZM208.164 34.1172C207.677 34.1172 207.189 34.105 206.701 34.0806L206.502 38.0756C207.056 38.1033 207.61 38.1172 208.164 38.1172V34.1172ZM208.566 36.4519C209.591 31.0634 210.717 23.8494 211.943 14.8239L207.979 14.2855C206.757 23.2808 205.643 30.4158 204.637 35.7043L208.566 36.4519ZM211.941 14.8375C212.307 12.2724 212.56 10.227 212.695 8.71693L208.711 8.3612C208.585 9.76775 208.344 11.7328 207.981 14.2718L211.941 14.8375ZM212.887 24.377C212.664 25.4326 212.436 26.8261 212.199 28.5382L216.161 29.0868C216.392 27.4135 216.606 26.1246 216.801 25.2011L212.887 24.377ZM214.763 30.7255C216.677 30.1418 218.284 29.47 219.452 28.6579C220.596 27.8628 221.688 26.6605 221.688 24.9844H217.688C217.688 24.7405 217.861 24.8924 217.169 25.3733C216.502 25.8373 215.354 26.3634 213.596 26.8995L214.763 30.7255ZM221.688 24.9844C221.688 23.9993 221.183 23.1448 220.338 22.662C219.66 22.2746 218.901 22.2031 218.32 22.2031V26.2031C218.459 26.2031 218.528 26.2135 218.544 26.2166C218.564 26.2205 218.483 26.2087 218.353 26.1349C218.212 26.0542 218.021 25.9016 217.874 25.6503C217.727 25.3982 217.688 25.1538 217.688 24.9844H221.688ZM218.32 22.2031C217.253 22.2031 215.895 22.4514 214.343 22.8528L215.345 26.7254C216.813 26.3455 217.773 26.2031 218.32 26.2031V22.2031ZM215.048 13.8491C214.836 14.727 214.636 15.6051 214.45 16.4834L218.363 17.3134C218.541 16.473 218.732 15.6323 218.936 14.7915L215.048 13.8491ZM214.45 16.4834L213.903 19.0616L217.816 19.8916L218.363 17.3134L214.45 16.4834ZM216.909 21.1791C219.029 19.872 220.677 18.2769 221.692 16.3443L218.151 14.4838C217.552 15.6242 216.492 16.7374 214.81 17.774L216.909 21.1791ZM221.683 16.3623C221.91 15.94 222.195 15.308 222.195 14.5938H218.195C218.195 14.5015 218.205 14.4319 218.213 14.3904C218.221 14.3486 218.229 14.3252 218.23 14.3226C218.231 14.3197 218.227 14.3305 218.215 14.3565C218.204 14.3821 218.187 14.4184 218.161 14.4659L221.683 16.3623ZM222.195 14.5938C222.195 13.773 221.831 12.9414 221.036 12.4218C220.389 11.9987 219.672 11.9297 219.18 11.9297V15.9297C219.364 15.9297 219.155 15.9714 218.847 15.7696C218.665 15.6509 218.479 15.4656 218.35 15.2116C218.224 14.9651 218.195 14.7399 218.195 14.5938H222.195ZM219.18 11.9297C218.384 11.9297 217.446 12.1186 216.457 12.3933L217.527 16.2473C218.414 16.0012 218.934 15.9297 219.18 15.9297V11.9297ZM228.789 8.42188L228.423 6.45561L227.057 6.70982L226.819 8.07908L228.789 8.42188ZM235.508 7.17188L237.443 7.67501L238.235 4.63019L235.142 5.20561L235.508 7.17188ZM231.172 27.1328L229.199 26.804L228.745 29.5285L231.475 29.1097L231.172 27.1328ZM238.047 26.0781L240.04 26.2389L240.244 23.7177L237.744 24.1013L238.047 26.0781ZM237.461 33.3438L237.637 35.336L239.319 35.1876L239.454 33.5045L237.461 33.3438ZM223.984 36.0391L222.014 35.6963L221.475 38.7966L224.511 37.9686L223.984 36.0391ZM229.155 10.3881L235.874 9.13814L235.142 5.20561L228.423 6.45561L229.155 10.3881ZM233.572 6.66874C231.685 13.9285 230.226 20.6412 229.199 26.804L233.145 27.4616C234.149 21.437 235.581 14.8423 237.443 7.67501L233.572 6.66874ZM231.475 29.1097L238.35 28.055L237.744 24.1013L230.869 25.1559L231.475 29.1097ZM236.053 25.9174L235.467 33.183L239.454 33.5045L240.04 26.2389L236.053 25.9174ZM237.285 31.3515C233.577 31.6787 228.957 32.6098 223.458 34.1095L224.511 37.9686C229.897 36.4996 234.261 35.6338 237.637 35.336L237.285 31.3515ZM225.955 36.3819L230.759 8.76467L226.819 8.07908L222.014 35.6963L225.955 36.3819ZM246.875 14.2422L246.562 12.2669L245.29 12.4686L244.947 13.7103L246.875 14.2422ZM246.328 16.4688L244.373 16.0497L244.37 16.0631L244.367 16.0765L246.328 16.4688ZM245.898 18.6172L243.937 18.225L243.341 21.2053L246.314 20.5735L245.898 18.6172ZM252.148 17.2891L254.144 17.4192L254.316 14.7838L251.733 15.3327L252.148 17.2891ZM251.797 22.6797L252.142 24.6496L253.69 24.378L253.793 22.8098L251.797 22.6797ZM244.805 24.0469L244.355 22.0981L243.097 22.3884L242.844 23.6546L244.805 24.0469ZM244.531 25.6094L246.5 25.9627L246.505 25.9344L246.509 25.9061L244.531 25.6094ZM244.258 27.1328L242.289 26.7795L241.799 29.5107L244.545 29.1121L244.258 27.1328ZM251.523 26.0781L253.519 26.2176L253.692 23.7424L251.236 24.0989L251.523 26.0781ZM251.016 33.3438L251.182 35.3368L252.891 35.1944L253.011 33.4832L251.016 33.3438ZM236.758 36.0391L234.785 35.7116L234.282 38.7432L237.257 37.9757L236.758 36.0391ZM241.406 8.03125L241.121 6.05171L239.673 6.26045L239.433 7.70379L241.406 8.03125ZM254.414 6.15625L256.409 6.29644L256.583 3.82295L254.129 4.17671L254.414 6.15625ZM253.906 13.3828L254.089 15.3744L255.782 15.219L255.901 13.523L253.906 13.3828ZM244.947 13.7103C244.729 14.501 244.537 15.2808 244.373 16.0497L248.284 16.8878C248.431 16.1983 248.604 15.4938 248.803 14.774L244.947 13.7103ZM244.367 16.0765L243.937 18.225L247.86 19.0094L248.289 16.861L244.367 16.0765ZM246.314 20.5735L252.564 19.2454L251.733 15.3327L245.483 16.6609L246.314 20.5735ZM250.153 17.1589L249.801 22.5495L253.793 22.8098L254.144 17.4192L250.153 17.1589ZM251.451 20.7098C248.469 21.233 246.098 21.6958 244.355 22.0981L245.254 25.9957C246.897 25.6167 249.187 25.168 252.142 24.6496L251.451 20.7098ZM242.844 23.6546C242.733 24.2069 242.636 24.7596 242.553 25.3127L246.509 25.9061C246.582 25.4175 246.668 24.9285 246.766 24.4391L242.844 23.6546ZM242.563 25.256L242.289 26.7795L246.226 27.4861L246.5 25.9627L242.563 25.256ZM244.545 29.1121L251.811 28.0574L251.236 24.0989L243.971 25.1536L244.545 29.1121ZM249.528 25.9387L249.02 33.2043L253.011 33.4832L253.519 26.2176L249.528 25.9387ZM250.85 31.3507C246.942 31.6763 242.068 32.604 236.258 34.1024L237.257 37.9757C242.958 36.5053 247.589 35.6362 251.182 35.3368L250.85 31.3507ZM238.731 36.3665L243.379 8.35871L239.433 7.70379L234.785 35.7116L238.731 36.3665ZM241.692 10.0108L254.699 8.13579L254.129 4.17671L241.121 6.05171L241.692 10.0108ZM252.419 6.01606L251.911 13.2426L255.901 13.523L256.409 6.29644L252.419 6.01606ZM253.723 11.3912C251.135 11.6289 248.748 11.9203 246.562 12.2669L247.188 16.2175C249.273 15.8869 251.573 15.6055 254.089 15.3744L253.723 11.3912ZM256.719 29.6328L256.977 31.616L256.99 31.6144L257.002 31.6127L256.719 29.6328ZM259.141 30.0234L258.169 31.7718L258.207 31.7929L258.246 31.8123L259.141 30.0234ZM258.477 35.2578L257.251 33.6774L257.244 33.6827L257.237 33.688L258.477 35.2578ZM255.234 36.6641L254.97 34.6816L254.959 34.6831L255.234 36.6641ZM252.812 36.3516L251.895 38.1288L251.907 38.1347L251.918 38.1404L252.812 36.3516ZM253.438 31.0781L252.173 29.5284L252.167 29.5337L252.16 29.539L253.438 31.0781ZM261.133 5.33594L261.463 3.36341L259.701 3.06826L259.21 4.7865L261.133 5.33594ZM269.297 6.70312L271.044 7.6764L272.424 5.19898L269.627 4.73059L269.297 6.70312ZM264.531 15.8047L262.717 14.9625L262.715 14.9676L264.531 15.8047ZM260.859 25.5312L260.773 27.5294L262.319 27.5961L262.772 26.1164L260.859 25.5312ZM255.43 25.2969L253.507 24.7474L252.81 27.1857L255.343 27.295L255.43 25.2969ZM257.002 31.6127C257.546 31.5349 257.902 31.6231 258.169 31.7718L260.112 28.2751C258.973 27.6426 257.714 27.4703 256.436 27.6529L257.002 31.6127ZM258.246 31.8123C258.328 31.8533 258.371 31.8856 258.389 31.9006C258.405 31.9144 258.402 31.9155 258.394 31.9023C258.385 31.8887 258.382 31.8782 258.382 31.8799C258.383 31.8834 258.391 31.9124 258.391 31.9766H262.391C262.391 31.2087 262.206 30.4383 261.763 29.7461C261.323 29.0598 260.708 28.571 260.035 28.2346L258.246 31.8123ZM258.391 31.9766C258.391 32.3571 258.221 32.9251 257.251 33.6774L259.702 36.8383C261.284 35.6114 262.391 33.9918 262.391 31.9766H258.391ZM257.237 33.688C256.51 34.262 255.762 34.576 254.97 34.6816L255.499 38.6465C257.051 38.4396 258.464 37.8161 259.716 36.8276L257.237 33.688ZM254.959 34.6831C254.321 34.7717 253.941 34.6798 253.707 34.5627L251.918 38.1404C253.038 38.7004 254.272 38.8169 255.51 38.645L254.959 34.6831ZM253.73 34.5743C253.656 34.5363 253.619 34.5072 253.605 34.495C253.593 34.484 253.596 34.4845 253.604 34.4969C253.612 34.5095 253.613 34.517 253.612 34.5104C253.609 34.5019 253.602 34.4676 253.602 34.3984H249.602C249.602 35.1544 249.777 35.9159 250.204 36.6047C250.63 37.2906 251.23 37.7857 251.895 38.1288L253.73 34.5743ZM253.602 34.3984C253.602 33.9762 253.789 33.3857 254.715 32.6172L252.16 29.539C250.639 30.8018 249.602 32.4248 249.602 34.3984H253.602ZM254.702 32.6279C255.42 32.0417 256.17 31.7213 256.977 31.616L256.46 27.6496C254.872 27.8568 253.434 28.4999 252.173 29.5284L254.702 32.6279ZM260.802 7.30847L268.967 8.67566L269.627 4.73059L261.463 3.36341L260.802 7.30847ZM267.55 5.72985C265.381 9.62374 263.764 12.708 262.717 14.9625L266.345 16.6469C267.33 14.5264 268.89 11.5429 271.044 7.6764L267.55 5.72985ZM262.715 14.9676C261.293 18.0522 260.038 21.3794 258.947 24.9461L262.772 26.1164C263.816 22.7039 265.009 19.5468 266.348 16.6418L262.715 14.9676ZM260.946 23.5331L255.516 23.2987L255.343 27.295L260.773 27.5294L260.946 23.5331ZM257.353 25.8463L263.056 5.88538L259.21 4.7865L253.507 24.7474L257.353 25.8463Z" fill="#F7931E" mask="url(#path-1-outside-1_2877_7713)"/>
</svg>
