<svg width="230" height="43" viewBox="0 0 230 43" fill="none" xmlns="http://www.w3.org/2000/svg">
<mask id="path-1-outside-1_2878_7726" maskUnits="userSpaceOnUse" x="7" y="2" width="221" height="39" fill="black">
<rect fill="white" x="7" y="2" width="221" height="39"/>
<path d="M23.3984 7.83594L29.6875 8.92969C24.0625 18.7995 19.6094 27.7318 16.3281 35.7266L10.3125 35.3359L14.4531 26.625L11.1719 10.9219L18.7891 7.40625C18.7109 8.60417 18.6589 10.1016 18.6328 11.8984C18.6068 13.6953 18.6979 15.4922 18.9062 17.2891L23.3984 7.83594ZM39.1406 5.45312C41.901 5.45312 43.8542 6.98958 45 10.0625C45.599 11.651 45.8984 13.3958 45.8984 15.2969C45.8984 17.1198 45.625 19.099 45.0781 21.2344C44.1146 24.8802 42.4479 28.2396 40.0781 31.3125C37.1875 35.0625 34.1276 36.9375 30.8984 36.9375C28.112 36.9375 26.1328 35.401 24.9609 32.3281C24.388 30.8177 24.1016 29.125 24.1016 27.25C24.1016 25.401 24.388 23.3958 24.9609 21.2344C25.9245 17.5625 27.5781 14.1901 29.9219 11.1172C32.8125 7.34115 35.8854 5.45312 39.1406 5.45312ZM37.7344 15.1406C36.3021 15.1406 34.8438 16.3125 33.3594 18.6562C32.1615 20.5052 31.3281 22.3151 30.8594 24.0859C30.625 25.0234 30.5078 25.8698 30.5078 26.625C30.5078 27.6927 30.7682 28.5651 31.2891 29.2422C31.888 29.9974 32.7214 30.375 33.7891 30.375C35.2474 30.375 36.5625 29.6068 37.7344 28.0703C38.6719 26.8464 39.349 25.401 39.7656 23.7344C40.2604 21.7812 40.3646 19.8542 40.0781 17.9531C39.7656 16.0781 38.9844 15.1406 37.7344 15.1406ZM48.0469 8.42188L54.7266 7.17188C52.9297 13.9948 51.6016 20.1146 50.7422 25.5312L54.4531 23.9688L57.1875 8.42188L63.8672 7.17188C61.1589 17.849 59.401 26.8984 58.5938 34.3203L52.3438 36.0391L53.125 31.7031C50.9375 32.6667 47.6302 34.112 43.2031 36.0391L48.0469 8.42188ZM74.2578 4.47656C72.5911 9.00781 71.4323 13.1224 70.7812 16.8203L63.2422 17.9922L67.0312 5.02344L74.2578 4.47656ZM74.2188 8.38281C78.3073 7.15885 81.6536 6.54688 84.2578 6.54688C87.7734 6.54688 89.5182 7.77083 89.4922 10.2188C89.4661 13.7344 87.2526 17.263 82.8516 20.8047C83.2161 21.7943 84.7266 24.9062 87.3828 30.1406C86.0286 31.3906 83.9844 33.2266 81.25 35.6484L77.0703 24.8672H77.0312C76.4062 28.2786 75.9375 31.4297 75.625 34.3203L69.4531 36.0391C69.5052 35.4661 69.7917 33.7344 70.3125 30.8438L74.2188 8.38281ZM79.1406 14.5547C78.9062 15.4401 78.6979 16.3255 78.5156 17.2109L77.9688 19.8672C78.8802 19.3984 79.7786 18.7865 80.6641 18.0312C81.6797 17.1458 82.3568 16.2995 82.6953 15.4922C82.8255 15.2578 82.8906 15.0365 82.8906 14.8281C82.8906 14.2552 82.513 13.9688 81.7578 13.9688C81.1589 13.9688 80.2865 14.1641 79.1406 14.5547ZM95.4688 14.2422C95.2604 14.9974 95.0781 15.7396 94.9219 16.4688L94.4922 18.6172L100.742 17.2891L100.391 22.6797C97.4219 23.2005 95.0911 23.6562 93.3984 24.0469C93.2943 24.5677 93.2031 25.0885 93.125 25.6094L92.8516 27.1328L100.117 26.0781L99.6094 33.3438C95.8594 33.6562 91.1068 34.5547 85.3516 36.0391L90 8.03125L103.008 6.15625L102.5 13.3828C99.9479 13.6172 97.6042 13.9036 95.4688 14.2422ZM123.203 5.45312C125.964 5.45312 127.917 6.98958 129.062 10.0625C129.661 11.651 129.961 13.3958 129.961 15.2969C129.961 17.1198 129.688 19.099 129.141 21.2344C128.177 24.8802 126.51 28.2396 124.141 31.3125C121.25 35.0625 118.19 36.9375 114.961 36.9375C112.174 36.9375 110.195 35.401 109.023 32.3281C108.451 30.8177 108.164 29.125 108.164 27.25C108.164 25.401 108.451 23.3958 109.023 21.2344C109.987 17.5625 111.641 14.1901 113.984 11.1172C116.875 7.34115 119.948 5.45312 123.203 5.45312ZM121.797 15.1406C120.365 15.1406 118.906 16.3125 117.422 18.6562C116.224 20.5052 115.391 22.3151 114.922 24.0859C114.688 25.0234 114.57 25.8698 114.57 26.625C114.57 27.6927 114.831 28.5651 115.352 29.2422C115.951 29.9974 116.784 30.375 117.852 30.375C119.31 30.375 120.625 29.6068 121.797 28.0703C122.734 26.8464 123.411 25.401 123.828 23.7344C124.323 21.7812 124.427 19.8542 124.141 17.9531C123.828 16.0781 123.047 15.1406 121.797 15.1406ZM132.266 8.53906L139.023 7.17188C138.971 7.97917 138.945 9.125 138.945 10.6094C138.945 14.151 139.062 17.263 139.297 19.9453C139.427 21.4818 139.622 22.7188 139.883 23.6562L142.539 8.42188L149.258 7.17188C146.549 17.6146 144.779 26.6641 143.945 34.3203L137.773 36.0391C137.747 35.987 137.578 35.5312 137.266 34.6719L135.234 28.8906C134.896 27.9531 134.701 27.3542 134.648 27.0938C134.102 30.1667 133.672 33.1484 133.359 36.0391L127.109 37.9141L132.266 8.53906ZM162.93 14.2422C162.747 14.9714 162.591 15.6875 162.461 16.3906L161.992 18.5L168.828 17.0547L168.477 22.5234C165.794 22.9401 163.268 23.4219 160.898 23.9688C160.273 27.4583 159.779 30.9089 159.414 34.3203L152.734 36.0391L157.305 8.03125L170.664 6.15625L170.195 13.3828C167.591 13.6172 165.169 13.9036 162.93 14.2422ZM173.047 8.42188L179.766 7.17188C177.057 17.6146 175.286 26.6641 174.453 34.3203L168.242 36.0391L173.047 8.42188ZM180.742 8.38281C184.831 7.15885 188.177 6.54688 190.781 6.54688C194.297 6.54688 196.042 7.77083 196.016 10.2188C195.99 13.7344 193.776 17.263 189.375 20.8047C189.74 21.7943 191.25 24.9062 193.906 30.1406C192.552 31.3906 190.508 33.2266 187.773 35.6484L183.594 24.8672H183.555C182.93 28.2786 182.461 31.4297 182.148 34.3203L175.977 36.0391C176.029 35.4661 176.315 33.7344 176.836 30.8438L180.742 8.38281ZM185.664 14.5547C185.43 15.4401 185.221 16.3255 185.039 17.2109L184.492 19.8672C185.404 19.3984 186.302 18.7865 187.188 18.0312C188.203 17.1458 188.88 16.2995 189.219 15.4922C189.349 15.2578 189.414 15.0365 189.414 14.8281C189.414 14.2552 189.036 13.9688 188.281 13.9688C187.682 13.9688 186.81 14.1641 185.664 14.5547ZM201.992 14.2422C201.784 14.9974 201.602 15.7396 201.445 16.4688L201.016 18.6172L207.266 17.2891L206.914 22.6797C203.945 23.2005 201.615 23.6562 199.922 24.0469C199.818 24.5677 199.727 25.0885 199.648 25.6094L199.375 27.1328L206.641 26.0781L206.133 33.3438C202.383 33.6562 197.63 34.5547 191.875 36.0391L196.523 8.03125L209.531 6.15625L209.023 13.3828C206.471 13.6172 204.128 13.9036 201.992 14.2422ZM211.836 29.6328C212.747 29.5026 213.555 29.6328 214.258 30.0234C215.091 30.4401 215.508 31.0911 215.508 31.9766C215.508 33.1745 214.87 34.2682 213.594 35.2578C212.604 36.0391 211.523 36.5078 210.352 36.6641C209.414 36.7943 208.607 36.6901 207.93 36.3516C207.122 35.9349 206.719 35.2839 206.719 34.3984C206.719 33.2005 207.331 32.0938 208.555 31.0781C209.544 30.2708 210.638 29.7891 211.836 29.6328ZM216.25 5.33594L224.414 6.70312C222.253 10.5833 220.664 13.6172 219.648 15.8047C218.268 18.7995 217.044 22.0417 215.977 25.5312L210.547 25.2969L216.25 5.33594Z"/>
</mask>
<path d="M23.3984 7.83594L29.6875 8.92969C24.0625 18.7995 19.6094 27.7318 16.3281 35.7266L10.3125 35.3359L14.4531 26.625L11.1719 10.9219L18.7891 7.40625C18.7109 8.60417 18.6589 10.1016 18.6328 11.8984C18.6068 13.6953 18.6979 15.4922 18.9062 17.2891L23.3984 7.83594ZM39.1406 5.45312C41.901 5.45312 43.8542 6.98958 45 10.0625C45.599 11.651 45.8984 13.3958 45.8984 15.2969C45.8984 17.1198 45.625 19.099 45.0781 21.2344C44.1146 24.8802 42.4479 28.2396 40.0781 31.3125C37.1875 35.0625 34.1276 36.9375 30.8984 36.9375C28.112 36.9375 26.1328 35.401 24.9609 32.3281C24.388 30.8177 24.1016 29.125 24.1016 27.25C24.1016 25.401 24.388 23.3958 24.9609 21.2344C25.9245 17.5625 27.5781 14.1901 29.9219 11.1172C32.8125 7.34115 35.8854 5.45312 39.1406 5.45312ZM37.7344 15.1406C36.3021 15.1406 34.8438 16.3125 33.3594 18.6562C32.1615 20.5052 31.3281 22.3151 30.8594 24.0859C30.625 25.0234 30.5078 25.8698 30.5078 26.625C30.5078 27.6927 30.7682 28.5651 31.2891 29.2422C31.888 29.9974 32.7214 30.375 33.7891 30.375C35.2474 30.375 36.5625 29.6068 37.7344 28.0703C38.6719 26.8464 39.349 25.401 39.7656 23.7344C40.2604 21.7812 40.3646 19.8542 40.0781 17.9531C39.7656 16.0781 38.9844 15.1406 37.7344 15.1406ZM48.0469 8.42188L54.7266 7.17188C52.9297 13.9948 51.6016 20.1146 50.7422 25.5312L54.4531 23.9688L57.1875 8.42188L63.8672 7.17188C61.1589 17.849 59.401 26.8984 58.5938 34.3203L52.3438 36.0391L53.125 31.7031C50.9375 32.6667 47.6302 34.112 43.2031 36.0391L48.0469 8.42188ZM74.2578 4.47656C72.5911 9.00781 71.4323 13.1224 70.7812 16.8203L63.2422 17.9922L67.0312 5.02344L74.2578 4.47656ZM74.2188 8.38281C78.3073 7.15885 81.6536 6.54688 84.2578 6.54688C87.7734 6.54688 89.5182 7.77083 89.4922 10.2188C89.4661 13.7344 87.2526 17.263 82.8516 20.8047C83.2161 21.7943 84.7266 24.9062 87.3828 30.1406C86.0286 31.3906 83.9844 33.2266 81.25 35.6484L77.0703 24.8672H77.0312C76.4062 28.2786 75.9375 31.4297 75.625 34.3203L69.4531 36.0391C69.5052 35.4661 69.7917 33.7344 70.3125 30.8438L74.2188 8.38281ZM79.1406 14.5547C78.9062 15.4401 78.6979 16.3255 78.5156 17.2109L77.9688 19.8672C78.8802 19.3984 79.7786 18.7865 80.6641 18.0312C81.6797 17.1458 82.3568 16.2995 82.6953 15.4922C82.8255 15.2578 82.8906 15.0365 82.8906 14.8281C82.8906 14.2552 82.513 13.9688 81.7578 13.9688C81.1589 13.9688 80.2865 14.1641 79.1406 14.5547ZM95.4688 14.2422C95.2604 14.9974 95.0781 15.7396 94.9219 16.4688L94.4922 18.6172L100.742 17.2891L100.391 22.6797C97.4219 23.2005 95.0911 23.6562 93.3984 24.0469C93.2943 24.5677 93.2031 25.0885 93.125 25.6094L92.8516 27.1328L100.117 26.0781L99.6094 33.3438C95.8594 33.6562 91.1068 34.5547 85.3516 36.0391L90 8.03125L103.008 6.15625L102.5 13.3828C99.9479 13.6172 97.6042 13.9036 95.4688 14.2422ZM123.203 5.45312C125.964 5.45312 127.917 6.98958 129.062 10.0625C129.661 11.651 129.961 13.3958 129.961 15.2969C129.961 17.1198 129.688 19.099 129.141 21.2344C128.177 24.8802 126.51 28.2396 124.141 31.3125C121.25 35.0625 118.19 36.9375 114.961 36.9375C112.174 36.9375 110.195 35.401 109.023 32.3281C108.451 30.8177 108.164 29.125 108.164 27.25C108.164 25.401 108.451 23.3958 109.023 21.2344C109.987 17.5625 111.641 14.1901 113.984 11.1172C116.875 7.34115 119.948 5.45312 123.203 5.45312ZM121.797 15.1406C120.365 15.1406 118.906 16.3125 117.422 18.6562C116.224 20.5052 115.391 22.3151 114.922 24.0859C114.688 25.0234 114.57 25.8698 114.57 26.625C114.57 27.6927 114.831 28.5651 115.352 29.2422C115.951 29.9974 116.784 30.375 117.852 30.375C119.31 30.375 120.625 29.6068 121.797 28.0703C122.734 26.8464 123.411 25.401 123.828 23.7344C124.323 21.7812 124.427 19.8542 124.141 17.9531C123.828 16.0781 123.047 15.1406 121.797 15.1406ZM132.266 8.53906L139.023 7.17188C138.971 7.97917 138.945 9.125 138.945 10.6094C138.945 14.151 139.062 17.263 139.297 19.9453C139.427 21.4818 139.622 22.7188 139.883 23.6562L142.539 8.42188L149.258 7.17188C146.549 17.6146 144.779 26.6641 143.945 34.3203L137.773 36.0391C137.747 35.987 137.578 35.5312 137.266 34.6719L135.234 28.8906C134.896 27.9531 134.701 27.3542 134.648 27.0938C134.102 30.1667 133.672 33.1484 133.359 36.0391L127.109 37.9141L132.266 8.53906ZM162.93 14.2422C162.747 14.9714 162.591 15.6875 162.461 16.3906L161.992 18.5L168.828 17.0547L168.477 22.5234C165.794 22.9401 163.268 23.4219 160.898 23.9688C160.273 27.4583 159.779 30.9089 159.414 34.3203L152.734 36.0391L157.305 8.03125L170.664 6.15625L170.195 13.3828C167.591 13.6172 165.169 13.9036 162.93 14.2422ZM173.047 8.42188L179.766 7.17188C177.057 17.6146 175.286 26.6641 174.453 34.3203L168.242 36.0391L173.047 8.42188ZM180.742 8.38281C184.831 7.15885 188.177 6.54688 190.781 6.54688C194.297 6.54688 196.042 7.77083 196.016 10.2188C195.99 13.7344 193.776 17.263 189.375 20.8047C189.74 21.7943 191.25 24.9062 193.906 30.1406C192.552 31.3906 190.508 33.2266 187.773 35.6484L183.594 24.8672H183.555C182.93 28.2786 182.461 31.4297 182.148 34.3203L175.977 36.0391C176.029 35.4661 176.315 33.7344 176.836 30.8438L180.742 8.38281ZM185.664 14.5547C185.43 15.4401 185.221 16.3255 185.039 17.2109L184.492 19.8672C185.404 19.3984 186.302 18.7865 187.188 18.0312C188.203 17.1458 188.88 16.2995 189.219 15.4922C189.349 15.2578 189.414 15.0365 189.414 14.8281C189.414 14.2552 189.036 13.9688 188.281 13.9688C187.682 13.9688 186.81 14.1641 185.664 14.5547ZM201.992 14.2422C201.784 14.9974 201.602 15.7396 201.445 16.4688L201.016 18.6172L207.266 17.2891L206.914 22.6797C203.945 23.2005 201.615 23.6562 199.922 24.0469C199.818 24.5677 199.727 25.0885 199.648 25.6094L199.375 27.1328L206.641 26.0781L206.133 33.3438C202.383 33.6562 197.63 34.5547 191.875 36.0391L196.523 8.03125L209.531 6.15625L209.023 13.3828C206.471 13.6172 204.128 13.9036 201.992 14.2422ZM211.836 29.6328C212.747 29.5026 213.555 29.6328 214.258 30.0234C215.091 30.4401 215.508 31.0911 215.508 31.9766C215.508 33.1745 214.87 34.2682 213.594 35.2578C212.604 36.0391 211.523 36.5078 210.352 36.6641C209.414 36.7943 208.607 36.6901 207.93 36.3516C207.122 35.9349 206.719 35.2839 206.719 34.3984C206.719 33.2005 207.331 32.0938 208.555 31.0781C209.544 30.2708 210.638 29.7891 211.836 29.6328ZM216.25 5.33594L224.414 6.70312C222.253 10.5833 220.664 13.6172 219.648 15.8047C218.268 18.7995 217.044 22.0417 215.977 25.5312L210.547 25.2969L216.25 5.33594Z" fill="#FAD557"/>
<path d="M23.3984 7.83594L23.7411 5.86551L22.2442 5.60518L21.592 6.97752L23.3984 7.83594ZM29.6875 8.92969L31.4251 9.91999L32.8345 7.44698L30.0302 6.95926L29.6875 8.92969ZM16.3281 35.7266L16.1985 37.7224L17.6327 37.8155L18.1784 36.4859L16.3281 35.7266ZM10.3125 35.3359L8.50618 34.4773L7.24021 37.1407L10.1829 37.3317L10.3125 35.3359ZM14.4531 26.625L16.2594 27.4836L16.5486 26.8753L16.4108 26.2159L14.4531 26.625ZM11.1719 10.9219L10.3338 9.10596L8.88861 9.77295L9.21416 11.331L11.1719 10.9219ZM18.7891 7.40625L20.7848 7.53641L21.0036 4.1814L17.9509 5.59033L18.7891 7.40625ZM18.9062 17.2891L16.9196 17.5194L17.722 24.4408L20.7127 18.1475L18.9062 17.2891ZM23.0558 9.80636L29.3448 10.9001L30.0302 6.95926L23.7411 5.86551L23.0558 9.80636ZM27.9499 7.93939C22.2948 17.862 17.8 26.8729 14.4779 34.9672L18.1784 36.4859C21.4188 28.5906 25.8302 19.737 31.4251 9.91999L27.9499 7.93939ZM16.4577 33.7308L10.4421 33.3401L10.1829 37.3317L16.1985 37.7224L16.4577 33.7308ZM12.1188 36.1945L16.2594 27.4836L12.6468 25.7664L8.50618 34.4773L12.1188 36.1945ZM16.4108 26.2159L13.1296 10.5128L9.21416 11.331L12.4954 27.0341L16.4108 26.2159ZM12.01 12.7378L19.6272 9.22217L17.9509 5.59033L10.3338 9.10596L12.01 12.7378ZM16.7933 7.27609C16.7122 8.51977 16.6593 10.0536 16.633 11.8695L20.6326 11.9274C20.6584 10.1495 20.7097 8.68856 20.7848 7.53641L16.7933 7.27609ZM16.633 11.8695C16.6057 13.7535 16.7013 15.637 16.9196 17.5194L20.8929 17.0587C20.6945 15.3473 20.6078 13.6371 20.6326 11.9274L16.633 11.8695ZM20.7127 18.1475L25.2048 8.69436L21.592 6.97752L17.0998 16.4306L20.7127 18.1475ZM45 10.0625L43.126 10.7613L43.1286 10.7681L45 10.0625ZM45.0781 21.2344L47.0117 21.7454L47.0137 21.738L47.0156 21.7306L45.0781 21.2344ZM40.0781 31.3125L38.4944 30.0911L38.4941 30.0915L40.0781 31.3125ZM24.9609 32.3281L23.0909 33.0374L23.0922 33.0408L24.9609 32.3281ZM24.9609 21.2344L26.8942 21.7468L26.8954 21.742L24.9609 21.2344ZM29.9219 11.1172L28.3338 9.90147L28.3316 9.90429L29.9219 11.1172ZM33.3594 18.6562L35.0379 19.7437L35.0435 19.7351L35.049 19.7264L33.3594 18.6562ZM30.8594 24.0859L28.926 23.5742L28.9224 23.5875L28.9191 23.6009L30.8594 24.0859ZM31.2891 29.2422L29.7038 30.4616L29.7129 30.4734L29.7221 30.485L31.2891 29.2422ZM37.7344 28.0703L36.1466 26.8542L36.1441 26.8574L37.7344 28.0703ZM39.7656 23.7344L37.8269 23.2432L37.8253 23.2493L39.7656 23.7344ZM40.0781 17.9531L42.0558 17.6551L42.0535 17.6397L42.0509 17.6243L40.0781 17.9531ZM39.1406 7.45312C40.1249 7.45312 40.8544 7.71734 41.4392 8.17738C42.0488 8.65694 42.6414 9.4616 43.126 10.7613L46.874 9.36374C46.2127 7.59048 45.2559 6.09046 43.9123 5.03356C42.544 3.95714 40.9167 3.45312 39.1406 3.45312V7.45312ZM43.1286 10.7681C43.633 12.1057 43.8984 13.6082 43.8984 15.2969H47.8984C47.8984 13.1835 47.565 11.1963 46.8714 9.35689L43.1286 10.7681ZM43.8984 15.2969C43.8984 16.9219 43.6543 18.7324 43.1407 20.7382L47.0156 21.7306C47.5957 19.4656 47.8984 17.3177 47.8984 15.2969H43.8984ZM43.1445 20.7233C42.2511 24.1039 40.7062 27.223 38.4944 30.0911L41.6619 32.5339C44.1896 29.2561 45.9781 25.6565 47.0117 21.7454L43.1445 20.7233ZM38.4941 30.0915C35.7983 33.5887 33.2582 34.9375 30.8984 34.9375V38.9375C34.997 38.9375 38.5767 36.5363 41.6621 32.5335L38.4941 30.0915ZM30.8984 34.9375C29.8967 34.9375 29.15 34.6706 28.5507 34.2053C27.9278 33.7218 27.3249 32.914 26.8297 31.6155L23.0922 33.0408C23.7689 34.8151 24.7415 36.3121 26.0978 37.365C27.4776 38.4362 29.1137 38.9375 30.8984 38.9375V34.9375ZM26.8309 31.6188C26.3566 30.3683 26.1016 28.921 26.1016 27.25H22.1016C22.1016 29.329 22.4195 31.2671 23.0909 33.0374L26.8309 31.6188ZM26.1016 27.25C26.1016 25.6056 26.3567 23.7747 26.8942 21.7468L23.0277 20.7219C22.4194 23.017 22.1016 25.1964 22.1016 27.25H26.1016ZM26.8954 21.742C27.7907 18.3303 29.3256 15.1968 31.5121 12.3301L28.3316 9.90429C25.8306 13.1834 24.0583 16.7947 23.0264 20.7267L26.8954 21.742ZM31.51 12.3329C34.2042 8.8134 36.7563 7.45312 39.1406 7.45312V3.45312C35.0145 3.45312 31.4208 5.86889 28.3338 9.90147L31.51 12.3329ZM37.7344 13.1406C35.1737 13.1406 33.1946 15.1785 31.6697 17.5861L35.049 19.7264C36.4929 17.4465 37.4305 17.1406 37.7344 17.1406V13.1406ZM31.6809 17.5688C30.3906 19.5602 29.4584 21.5626 28.926 23.5742L32.7928 24.5977C33.1978 23.0676 33.9323 21.4502 35.0379 19.7437L31.6809 17.5688ZM28.9191 23.6009C28.6555 24.6552 28.5078 25.6682 28.5078 26.625H32.5078C32.5078 26.0714 32.5945 25.3916 32.7997 24.571L28.9191 23.6009ZM28.5078 26.625C28.5078 28.0216 28.8528 29.3553 29.7038 30.4616L32.8743 28.0228C32.6836 27.7749 32.5078 27.3639 32.5078 26.625H28.5078ZM29.7221 30.485C30.7447 31.7744 32.1858 32.375 33.7891 32.375V28.375C33.2569 28.375 33.0314 28.2204 32.8561 27.9994L29.7221 30.485ZM33.7891 32.375C36.0623 32.375 37.9077 31.141 39.3246 29.2832L36.1441 26.8574C35.2173 28.0726 34.4325 28.375 33.7891 28.375V32.375ZM39.3221 29.2865C40.4439 27.8219 41.2305 26.1209 41.7059 24.2194L37.8253 23.2493C37.4674 24.6811 36.8998 25.8708 36.1466 26.8542L39.3221 29.2865ZM41.7044 24.2255C42.2613 22.0272 42.3838 19.8317 42.0558 17.6551L38.1005 18.2511C38.3454 19.8766 38.2595 21.5353 37.8269 23.2432L41.7044 24.2255ZM42.0509 17.6243C41.866 16.5149 41.5053 15.4166 40.7943 14.5634C40.0131 13.626 38.9363 13.1406 37.7344 13.1406V17.1406C37.7917 17.1406 37.7841 17.15 37.7459 17.1323C37.7063 17.1141 37.6986 17.0968 37.7214 17.1241C37.7916 17.2084 37.9777 17.5164 38.1053 18.2819L42.0509 17.6243ZM48.0469 8.42188L47.679 6.456L46.3164 6.71099L46.0769 8.07637L48.0469 8.42188ZM54.7266 7.17188L56.6606 7.68122L57.4656 4.62459L54.3587 5.206L54.7266 7.17188ZM50.7422 25.5312L48.7669 25.2179L48.2033 28.7703L51.5183 27.3745L50.7422 25.5312ZM54.4531 23.9688L55.2292 25.812L56.234 25.3889L56.4229 24.3152L54.4531 23.9688ZM57.1875 8.42188L56.8196 6.456L55.4577 6.71086L55.2177 8.07543L57.1875 8.42188ZM63.8672 7.17188L65.8058 7.66362L66.5752 4.6304L63.4993 5.206L63.8672 7.17188ZM58.5938 34.3203L59.1241 36.2487L60.435 35.8882L60.582 34.5366L58.5938 34.3203ZM52.3438 36.0391L50.3754 35.6844L49.8124 38.8094L52.8741 37.9675L52.3438 36.0391ZM53.125 31.7031L55.0933 32.0578L55.7601 28.357L52.3188 29.8728L53.125 31.7031ZM43.2031 36.0391L41.2332 35.6936L40.5906 39.3576L44.0014 37.8729L43.2031 36.0391ZM48.4148 10.3877L55.0944 9.13775L54.3587 5.206L47.679 6.456L48.4148 10.3877ZM52.7925 6.66253C50.9832 13.5328 49.6392 19.7197 48.7669 25.2179L52.7175 25.8446C53.5639 20.5095 54.8762 14.4568 56.6606 7.68122L52.7925 6.66253ZM51.5183 27.3745L55.2292 25.812L53.677 22.1255L49.9661 23.688L51.5183 27.3745ZM56.4229 24.3152L59.1573 8.76832L55.2177 8.07543L52.4834 23.6223L56.4229 24.3152ZM57.5554 10.3877L64.2351 9.13775L63.4993 5.206L56.8196 6.456L57.5554 10.3877ZM61.9286 6.68013C59.207 17.4095 57.4264 26.5569 56.6055 34.104L60.582 34.5366C61.3757 27.2399 63.1107 18.2884 65.8058 7.66362L61.9286 6.68013ZM58.0634 32.3919L51.8134 34.1107L52.8741 37.9675L59.1241 36.2487L58.0634 32.3919ZM54.3121 36.3937L55.0933 32.0578L51.1567 31.3485L50.3754 35.6844L54.3121 36.3937ZM52.3188 29.8728C50.1354 30.8345 46.8314 32.2784 42.4049 34.2053L44.0014 37.8729C48.429 35.9455 51.7396 34.4988 53.9312 33.5334L52.3188 29.8728ZM45.1731 36.3846L50.0168 8.76738L46.0769 8.07637L41.2332 35.6936L45.1731 36.3846ZM74.2578 4.47656L76.1349 5.16697L77.2087 2.24753L74.1069 2.48226L74.2578 4.47656ZM70.7812 16.8203L71.0884 18.7966L72.5028 18.5767L72.751 17.1671L70.7812 16.8203ZM63.2422 17.9922L61.3224 17.4313L60.44 20.4518L63.5494 19.9685L63.2422 17.9922ZM67.0312 5.02344L66.8803 3.02914L65.4998 3.13361L65.1115 4.46255L67.0312 5.02344ZM72.3808 3.78615C70.684 8.39914 69.4881 12.6309 68.8115 16.4735L72.751 17.1671C73.3765 13.6139 74.4983 9.61648 76.1349 5.16697L72.3808 3.78615ZM70.4741 14.844L62.935 16.0159L63.5494 19.9685L71.0884 18.7966L70.4741 14.844ZM65.1619 18.5531L68.951 5.58433L65.1115 4.46255L61.3224 17.4313L65.1619 18.5531ZM67.1822 7.01774L74.4087 6.47086L74.1069 2.48226L66.8803 3.02914L67.1822 7.01774ZM74.2188 8.38281L73.6452 6.46682L72.4603 6.82155L72.2483 8.04013L74.2188 8.38281ZM89.4922 10.2188L87.4923 10.1975L87.4922 10.2039L89.4922 10.2188ZM82.8516 20.8047L81.5977 19.2466L80.478 20.1476L80.9749 21.4961L82.8516 20.8047ZM87.3828 30.1406L88.7394 31.6102L89.8508 30.5843L89.1663 29.2356L87.3828 30.1406ZM81.25 35.6484L79.3852 36.3714L80.4243 39.0515L82.5761 37.1456L81.25 35.6484ZM77.0703 24.8672L78.9351 24.1443L78.44 22.8672H77.0703V24.8672ZM77.0312 24.8672V22.8672H75.3644L75.064 24.5068L77.0312 24.8672ZM75.625 34.3203L76.1615 36.247L77.4677 35.8833L77.6134 34.5353L75.625 34.3203ZM69.4531 36.0391L67.4613 35.858L67.1991 38.7429L69.9897 37.9657L69.4531 36.0391ZM70.3125 30.8438L72.2808 31.1984L72.2829 31.1864L70.3125 30.8438ZM79.1406 14.5547L78.4953 12.6617L77.4813 13.0073L77.2072 14.0429L79.1406 14.5547ZM78.5156 17.2109L80.4745 17.6142L78.5156 17.2109ZM77.9688 19.8672L76.0098 19.4639L75.1671 23.557L78.8834 21.6458L77.9688 19.8672ZM80.6641 18.0312L81.962 19.5529L81.9702 19.5459L81.9783 19.5388L80.6641 18.0312ZM82.6953 15.4922L80.947 14.5209L80.8935 14.6172L80.8509 14.7187L82.6953 15.4922ZM74.7923 10.2988C78.7973 9.09985 81.9319 8.54688 84.2578 8.54688V4.54688C81.3754 4.54688 77.8172 5.21786 73.6452 6.46682L74.7923 10.2988ZM84.2578 8.54688C85.8468 8.54688 86.6737 8.835 87.0546 9.10216C87.3004 9.27458 87.4995 9.51937 87.4923 10.1975L91.4921 10.24C91.5109 8.47021 90.8507 6.87907 89.3517 5.82753C87.9877 4.87073 86.1844 4.54688 84.2578 4.54688V8.54688ZM87.4922 10.2039C87.4728 12.8329 85.8126 15.8546 81.5977 19.2466L84.1054 22.3628C88.6926 18.6714 91.4595 14.6358 91.4921 10.2336L87.4922 10.2039ZM80.9749 21.4961C81.3908 22.625 82.9739 25.8722 85.5993 31.0457L89.1663 29.2356C86.4792 23.9403 85.0415 20.9636 84.7282 20.1133L80.9749 21.4961ZM86.0263 28.671C84.6877 29.9066 82.6559 31.7315 79.9239 34.1513L82.5761 37.1456C85.3128 34.7216 87.3696 32.8746 88.7394 31.6102L86.0263 28.671ZM83.1148 34.9255L78.9351 24.1443L75.2055 25.5901L79.3852 36.3714L83.1148 34.9255ZM77.0703 22.8672H77.0312V26.8672H77.0703V22.8672ZM75.064 24.5068C74.4318 27.9576 73.9552 31.1578 73.6366 34.1053L77.6134 34.5353C77.9198 31.7016 78.3807 28.5997 78.9985 25.2276L75.064 24.5068ZM75.0885 32.3936L68.9166 34.1124L69.9897 37.9657L76.1615 36.247L75.0885 32.3936ZM71.4449 36.2201C71.487 35.7574 71.7517 34.1349 72.2808 31.1984L68.3442 30.4891C67.8316 33.3338 67.5234 35.1749 67.4613 35.858L71.4449 36.2201ZM72.2829 31.1864L76.1892 8.72549L72.2483 8.04013L68.3421 30.5011L72.2829 31.1864ZM77.2072 14.0429C76.9635 14.9638 76.7466 15.8853 76.5567 16.8076L80.4745 17.6142C80.6492 16.7657 80.849 15.9164 81.074 15.0665L77.2072 14.0429ZM76.5567 16.8076L76.0098 19.4639L79.9277 20.2705L80.4745 17.6142L76.5567 16.8076ZM78.8834 21.6458C79.9491 21.0977 80.9747 20.395 81.962 19.5529L79.3662 16.5096C78.5826 17.1779 77.8113 17.6992 77.0541 18.0886L78.8834 21.6458ZM81.9783 19.5388C83.112 18.5505 84.0363 17.4662 84.5397 16.2656L80.8509 14.7187C80.6773 15.1328 80.2474 15.7412 79.3498 16.5237L81.9783 19.5388ZM84.4436 16.4635C84.6927 16.0151 84.8906 15.4603 84.8906 14.8281H80.8906C80.8906 14.6127 80.9583 14.5005 80.947 14.5209L84.4436 16.4635ZM84.8906 14.8281C84.8906 14.0622 84.6094 13.192 83.8162 12.5902C83.1273 12.0676 82.3313 11.9688 81.7578 11.9688V15.9688C81.9395 15.9688 81.71 16.0131 81.3986 15.777C81.2247 15.645 81.0799 15.4641 80.9888 15.2567C80.9028 15.0611 80.8906 14.9022 80.8906 14.8281H84.8906ZM81.7578 11.9688C80.8136 11.9688 79.6816 12.2572 78.4953 12.6617L79.786 16.4477C80.8913 16.0709 81.5041 15.9688 81.7578 15.9688V11.9688ZM95.4688 14.2422L95.1556 12.2669L93.8833 12.4686L93.5408 13.7103L95.4688 14.2422ZM94.9219 16.4688L92.9663 16.0497L92.9634 16.0631L92.9607 16.0765L94.9219 16.4688ZM94.4922 18.6172L92.531 18.225L91.935 21.2053L94.9079 20.5735L94.4922 18.6172ZM100.742 17.2891L102.738 17.4192L102.91 14.7838L100.326 15.3327L100.742 17.2891ZM100.391 22.6797L100.736 24.6496L102.284 24.378L102.386 22.8098L100.391 22.6797ZM93.3984 24.0469L92.9487 22.0981L91.6905 22.3884L91.4373 23.6546L93.3984 24.0469ZM93.125 25.6094L95.0935 25.9627L95.0986 25.9344L95.1029 25.9061L93.125 25.6094ZM92.8516 27.1328L90.883 26.7795L90.3928 29.5107L93.1389 29.1121L92.8516 27.1328ZM100.117 26.0781L102.112 26.2176L102.285 23.7424L99.8299 24.0989L100.117 26.0781ZM99.6094 33.3438L99.7755 35.3368L101.485 35.1944L101.605 33.4832L99.6094 33.3438ZM85.3516 36.0391L83.3786 35.7116L82.8754 38.7432L85.8511 37.9757L85.3516 36.0391ZM90 8.03125L89.7147 6.05171L88.2665 6.26045L88.027 7.70379L90 8.03125ZM103.008 6.15625L105.003 6.29644L105.177 3.82295L102.722 4.17671L103.008 6.15625ZM102.5 13.3828L102.683 15.3744L104.376 15.219L104.495 13.523L102.5 13.3828ZM93.5408 13.7103C93.3226 14.501 93.131 15.2808 92.9663 16.0497L96.8775 16.8878C97.0252 16.1983 97.1982 15.4938 97.3967 14.774L93.5408 13.7103ZM92.9607 16.0765L92.531 18.225L96.4533 19.0094L96.883 16.861L92.9607 16.0765ZM94.9079 20.5735L101.158 19.2454L100.326 15.3327L94.0765 16.6609L94.9079 20.5735ZM98.7464 17.1589L98.3949 22.5495L102.386 22.8098L102.738 17.4192L98.7464 17.1589ZM100.045 20.7098C97.0627 21.233 94.692 21.6958 92.9487 22.0981L93.8482 25.9957C95.4903 25.6167 97.7811 25.168 100.736 24.6496L100.045 20.7098ZM91.4373 23.6546C91.3268 24.2069 91.2301 24.7596 91.1471 25.3127L95.1029 25.9061C95.1762 25.4175 95.2617 24.9285 95.3596 24.4391L91.4373 23.6546ZM91.1565 25.256L90.883 26.7795L94.8201 27.4861L95.0935 25.9627L91.1565 25.256ZM93.1389 29.1121L100.404 28.0574L99.8299 24.0989L92.5643 25.1536L93.1389 29.1121ZM98.1221 25.9387L97.6142 33.2043L101.605 33.4832L102.112 26.2176L98.1221 25.9387ZM99.4433 31.3507C95.5356 31.6763 90.6617 32.604 84.8521 34.1024L85.8511 37.9757C91.5519 36.5053 96.1831 35.6362 99.7755 35.3368L99.4433 31.3507ZM87.3246 36.3665L91.973 8.35871L88.027 7.70379L83.3786 35.7116L87.3246 36.3665ZM90.2853 10.0108L103.293 8.13579L102.722 4.17671L89.7147 6.05171L90.2853 10.0108ZM101.013 6.01606L100.505 13.2426L104.495 13.523L105.003 6.29644L101.013 6.01606ZM102.317 11.3912C99.7291 11.6289 97.3413 11.9203 95.1556 12.2669L95.7819 16.2175C97.8671 15.8869 100.167 15.6055 102.683 15.3744L102.317 11.3912ZM129.062 10.0625L127.189 10.7613L127.191 10.7681L129.062 10.0625ZM129.141 21.2344L131.074 21.7454L131.076 21.738L131.078 21.7306L129.141 21.2344ZM124.141 31.3125L122.557 30.0911L122.557 30.0915L124.141 31.3125ZM109.023 32.3281L107.153 33.0374L107.155 33.0408L109.023 32.3281ZM109.023 21.2344L110.957 21.7468L110.958 21.742L109.023 21.2344ZM113.984 11.1172L112.396 9.90147L112.394 9.90429L113.984 11.1172ZM117.422 18.6562L119.1 19.7437L119.106 19.7351L119.112 19.7264L117.422 18.6562ZM114.922 24.0859L112.988 23.5742L112.985 23.5875L112.982 23.6009L114.922 24.0859ZM115.352 29.2422L113.766 30.4616L113.775 30.4734L113.785 30.485L115.352 29.2422ZM121.797 28.0703L120.209 26.8542L120.207 26.8574L121.797 28.0703ZM123.828 23.7344L121.889 23.2432L121.888 23.2493L123.828 23.7344ZM124.141 17.9531L126.118 17.6551L126.116 17.6397L126.113 17.6243L124.141 17.9531ZM123.203 7.45312C124.187 7.45312 124.917 7.71734 125.502 8.17738C126.111 8.65694 126.704 9.4616 127.189 10.7613L130.936 9.36374C130.275 7.59048 129.318 6.09046 127.975 5.03356C126.607 3.95714 124.979 3.45312 123.203 3.45312V7.45312ZM127.191 10.7681C127.695 12.1057 127.961 13.6082 127.961 15.2969H131.961C131.961 13.1835 131.627 11.1963 130.934 9.35689L127.191 10.7681ZM127.961 15.2969C127.961 16.9219 127.717 18.7324 127.203 20.7382L131.078 21.7306C131.658 19.4656 131.961 17.3177 131.961 15.2969H127.961ZM127.207 20.7233C126.314 24.1039 124.769 27.223 122.557 30.0911L125.724 32.5339C128.252 29.2561 130.041 25.6565 131.074 21.7454L127.207 20.7233ZM122.557 30.0915C119.861 33.5887 117.321 34.9375 114.961 34.9375V38.9375C119.059 38.9375 122.639 36.5363 125.725 32.5335L122.557 30.0915ZM114.961 34.9375C113.959 34.9375 113.213 34.6706 112.613 34.2053C111.99 33.7218 111.387 32.914 110.892 31.6155L107.155 33.0408C107.831 34.8151 108.804 36.3121 110.16 37.365C111.54 38.4362 113.176 38.9375 114.961 38.9375V34.9375ZM110.893 31.6188C110.419 30.3683 110.164 28.921 110.164 27.25H106.164C106.164 29.329 106.482 31.2671 107.153 33.0374L110.893 31.6188ZM110.164 27.25C110.164 25.6056 110.419 23.7747 110.957 21.7468L107.09 20.7219C106.482 23.017 106.164 25.1964 106.164 27.25H110.164ZM110.958 21.742C111.853 18.3303 113.388 15.1968 115.575 12.3301L112.394 9.90429C109.893 13.1834 108.121 16.7947 107.089 20.7267L110.958 21.742ZM115.572 12.3329C118.267 8.8134 120.819 7.45312 123.203 7.45312V3.45312C119.077 3.45312 115.483 5.86889 112.396 9.90147L115.572 12.3329ZM121.797 13.1406C119.236 13.1406 117.257 15.1785 115.732 17.5861L119.112 19.7264C120.555 17.4465 121.493 17.1406 121.797 17.1406V13.1406ZM115.743 17.5688C114.453 19.5602 113.521 21.5626 112.988 23.5742L116.855 24.5977C117.26 23.0676 117.995 21.4502 119.1 19.7437L115.743 17.5688ZM112.982 23.6009C112.718 24.6552 112.57 25.6682 112.57 26.625H116.57C116.57 26.0714 116.657 25.3916 116.862 24.571L112.982 23.6009ZM112.57 26.625C112.57 28.0216 112.915 29.3553 113.766 30.4616L116.937 28.0228C116.746 27.7749 116.57 27.3639 116.57 26.625H112.57ZM113.785 30.485C114.807 31.7744 116.248 32.375 117.852 32.375V28.375C117.319 28.375 117.094 28.2204 116.919 27.9994L113.785 30.485ZM117.852 32.375C120.125 32.375 121.97 31.141 123.387 29.2832L120.207 26.8574C119.28 28.0726 118.495 28.375 117.852 28.375V32.375ZM123.385 29.2865C124.506 27.8219 125.293 26.1209 125.768 24.2194L121.888 23.2493C121.53 24.6811 120.962 25.8708 120.209 26.8542L123.385 29.2865ZM125.767 24.2255C126.324 22.0272 126.446 19.8317 126.118 17.6551L122.163 18.2511C122.408 19.8766 122.322 21.5353 121.889 23.2432L125.767 24.2255ZM126.113 17.6243C125.929 16.5149 125.568 15.4166 124.857 14.5634C124.076 13.626 122.999 13.1406 121.797 13.1406V17.1406C121.854 17.1406 121.847 17.15 121.808 17.1323C121.769 17.1141 121.761 17.0968 121.784 17.1241C121.854 17.2084 122.04 17.5164 122.168 18.2819L126.113 17.6243ZM132.266 8.53906L131.869 6.57878L130.532 6.84935L130.296 8.19329L132.266 8.53906ZM139.023 7.17188L141.019 7.30064L141.187 4.69354L138.627 5.21159L139.023 7.17188ZM139.297 19.9453L141.29 19.7764L141.289 19.7712L139.297 19.9453ZM139.883 23.6562L137.956 24.1915L141.853 23.9998L139.883 23.6562ZM142.539 8.42188L142.173 6.45561L140.807 6.70972L140.569 8.07834L142.539 8.42188ZM149.258 7.17188L151.194 7.67397L151.983 4.63053L148.892 5.20561L149.258 7.17188ZM143.945 34.3203L144.482 36.247L145.787 35.8835L145.934 34.5367L143.945 34.3203ZM137.773 36.0391L135.985 36.9335L136.722 38.408L138.31 37.9657L137.773 36.0391ZM137.266 34.6719L135.379 35.3348L135.382 35.3451L135.386 35.3554L137.266 34.6719ZM135.234 28.8906L137.121 28.2277L137.118 28.2195L137.115 28.2113L135.234 28.8906ZM134.648 27.0938L136.61 26.7015L132.679 26.7433L134.648 27.0938ZM133.359 36.0391L133.934 37.9547L135.205 37.5734L135.348 36.254L133.359 36.0391ZM127.109 37.9141L125.139 37.5683L124.579 40.7612L127.684 39.8297L127.109 37.9141ZM132.662 10.4993L139.42 9.13216L138.627 5.21159L131.869 6.57878L132.662 10.4993ZM137.028 7.04311C136.971 7.91481 136.945 9.11109 136.945 10.6094H140.945C140.945 9.13891 140.971 8.04352 141.019 7.30064L137.028 7.04311ZM136.945 10.6094C136.945 14.1922 137.064 17.3645 137.304 20.1194L141.289 19.7712C141.061 17.1615 140.945 14.1099 140.945 10.6094H136.945ZM137.304 20.1142C137.439 21.7118 137.649 23.0858 137.956 24.1915L141.81 23.121C141.596 22.3517 141.415 21.2518 141.29 19.7764L137.304 20.1142ZM141.853 23.9998L144.509 8.76541L140.569 8.07834L137.913 23.3127L141.853 23.9998ZM142.905 10.3881L149.624 9.13814L148.892 5.20561L142.173 6.45561L142.905 10.3881ZM147.322 6.66978C144.598 17.1722 142.804 26.3217 141.957 34.1039L145.934 34.5367C146.753 27.0064 148.501 18.0569 151.194 7.67397L147.322 6.66978ZM143.409 32.3936L137.237 34.1124L138.31 37.9657L144.482 36.247L143.409 32.3936ZM139.562 35.1446C139.6 35.2201 139.623 35.2793 139.611 35.251C139.61 35.2469 139.604 35.2333 139.594 35.2064C139.573 35.1535 139.543 35.0732 139.502 34.9618C139.42 34.7405 139.301 34.4168 139.145 33.9884L135.386 35.3554C135.543 35.7863 135.665 36.1202 135.752 36.3546C135.807 36.5019 135.909 36.7815 135.985 36.9335L139.562 35.1446ZM139.153 34.0089L137.121 28.2277L133.347 29.5536L135.379 35.3348L139.153 34.0089ZM137.115 28.2113C136.95 27.7524 136.824 27.3899 136.735 27.1182C136.691 26.9825 136.659 26.8774 136.636 26.7993C136.612 26.7144 136.607 26.6883 136.61 26.7015L132.687 27.486C132.775 27.9245 133.032 28.6791 133.353 29.5699L137.115 28.2113ZM132.679 26.7433C132.125 29.8579 131.689 32.8849 131.371 35.8241L135.348 36.254C135.655 33.4119 136.078 30.4754 136.617 27.4442L132.679 26.7433ZM132.785 34.1234L126.535 35.9984L127.684 39.8297L133.934 37.9547L132.785 34.1234ZM129.079 38.2598L134.236 8.88484L130.296 8.19329L125.139 37.5683L129.079 38.2598ZM162.93 14.2422L162.631 12.2647L161.313 12.4639L160.989 13.7571L162.93 14.2422ZM162.461 16.3906L164.413 16.8245L164.421 16.7898L164.428 16.7548L162.461 16.3906ZM161.992 18.5L160.04 18.0661L159.366 21.0995L162.406 20.4567L161.992 18.5ZM168.828 17.0547L170.824 17.183L170.993 14.5527L168.414 15.0979L168.828 17.0547ZM168.477 22.5234L168.784 24.4997L170.369 24.2534L170.472 22.6517L168.477 22.5234ZM160.898 23.9688L160.449 22.02L159.162 22.3168L158.93 23.6162L160.898 23.9688ZM159.414 34.3203L159.912 36.2572L161.255 35.9117L161.403 34.5328L159.414 34.3203ZM152.734 36.0391L150.76 35.717L150.267 38.739L153.233 37.976L152.734 36.0391ZM157.305 8.03125L157.027 6.05066L155.568 6.25539L155.331 7.70915L157.305 8.03125ZM170.664 6.15625L172.66 6.28571L172.819 3.83422L170.386 4.17566L170.664 6.15625ZM170.195 13.3828L170.375 15.3748L172.08 15.2213L172.191 13.5123L170.195 13.3828ZM160.989 13.7571C160.798 14.5243 160.632 15.2808 160.494 16.0264L164.428 16.7548C164.55 16.0942 164.697 15.4184 164.87 14.7273L160.989 13.7571ZM160.509 15.9568L160.04 18.0661L163.945 18.9339L164.413 16.8245L160.509 15.9568ZM162.406 20.4567L169.242 19.0114L168.414 15.0979L161.578 16.5433L162.406 20.4567ZM166.832 16.9264L166.481 22.3951L170.472 22.6517L170.824 17.183L166.832 16.9264ZM168.17 20.5471C165.445 20.9704 162.871 21.461 160.449 22.02L161.348 25.9175C163.666 25.3827 166.144 24.9098 168.784 24.4997L168.17 20.5471ZM158.93 23.6162C158.297 27.1506 157.795 30.6479 157.425 34.1078L161.403 34.5328C161.762 31.1698 162.25 27.766 162.867 24.3213L158.93 23.6162ZM158.916 32.3834L152.236 34.1022L153.233 37.976L159.912 36.2572L158.916 32.3834ZM154.708 36.3612L159.279 8.35335L155.331 7.70915L150.76 35.717L154.708 36.3612ZM157.583 10.0118L170.942 8.13684L170.386 4.17566L157.027 6.05066L157.583 10.0118ZM168.668 6.02679L168.2 13.2534L172.191 13.5123L172.66 6.28571L168.668 6.02679ZM170.016 11.3909C167.378 11.6283 164.916 11.9193 162.631 12.2647L163.229 16.2197C165.423 15.888 167.804 15.6061 170.375 15.3748L170.016 11.3909ZM173.047 8.42188L172.681 6.45561L171.315 6.70982L171.076 8.07908L173.047 8.42188ZM179.766 7.17188L181.702 7.67397L182.491 4.63053L179.4 5.20561L179.766 7.17188ZM174.453 34.3203L174.987 36.2479L176.295 35.8859L176.441 34.5367L174.453 34.3203ZM168.242 36.0391L166.272 35.6963L165.73 38.8094L168.776 37.9666L168.242 36.0391ZM173.413 10.3881L180.131 9.13814L179.4 5.20561L172.681 6.45561L173.413 10.3881ZM177.83 6.66978C175.106 17.1722 173.312 26.3217 172.465 34.1039L176.441 34.5367C177.261 27.0064 179.009 18.0569 181.702 7.67397L177.83 6.66978ZM173.92 32.3928L167.709 34.1115L168.776 37.9666L174.987 36.2479L173.92 32.3928ZM170.213 36.3819L175.017 8.76467L171.076 8.07908L166.272 35.6963L170.213 36.3819ZM180.742 8.38281L180.169 6.46682L178.984 6.82155L178.772 8.04013L180.742 8.38281ZM196.016 10.2188L194.016 10.1975L194.016 10.2039L196.016 10.2188ZM189.375 20.8047L188.121 19.2466L187.001 20.1476L187.498 21.4961L189.375 20.8047ZM193.906 30.1406L195.263 31.6102L196.374 30.5843L195.69 29.2356L193.906 30.1406ZM187.773 35.6484L185.909 36.3714L186.948 39.0515L189.1 37.1456L187.773 35.6484ZM183.594 24.8672L185.459 24.1443L184.963 22.8672H183.594V24.8672ZM183.555 24.8672V22.8672H181.888L181.587 24.5068L183.555 24.8672ZM182.148 34.3203L182.685 36.247L183.991 35.8833L184.137 34.5353L182.148 34.3203ZM175.977 36.0391L173.985 35.858L173.723 38.7429L176.513 37.9657L175.977 36.0391ZM176.836 30.8438L178.804 31.1984L178.806 31.1864L176.836 30.8438ZM185.664 14.5547L185.019 12.6617L184.005 13.0073L183.731 14.0429L185.664 14.5547ZM185.039 17.2109L186.998 17.6142L185.039 17.2109ZM184.492 19.8672L182.533 19.4639L181.691 23.557L185.407 21.6458L184.492 19.8672ZM187.188 18.0312L188.485 19.5529L188.494 19.5459L188.502 19.5388L187.188 18.0312ZM189.219 15.4922L187.47 14.5209L187.417 14.6172L187.374 14.7187L189.219 15.4922ZM181.316 10.2988C185.321 9.09985 188.455 8.54688 190.781 8.54688V4.54688C187.899 4.54688 184.341 5.21786 180.169 6.46682L181.316 10.2988ZM190.781 8.54688C192.37 8.54688 193.197 8.835 193.578 9.10216C193.824 9.27458 194.023 9.51937 194.016 10.1975L198.016 10.24C198.034 8.47021 197.374 6.87907 195.875 5.82753C194.511 4.87073 192.708 4.54688 190.781 4.54688V8.54688ZM194.016 10.2039C193.996 12.8329 192.336 15.8546 188.121 19.2466L190.629 22.3628C195.216 18.6714 197.983 14.6358 198.016 10.2336L194.016 10.2039ZM187.498 21.4961C187.914 22.625 189.497 25.8722 192.123 31.0457L195.69 29.2356C193.003 23.9403 191.565 20.9636 191.252 20.1133L187.498 21.4961ZM192.55 28.671C191.211 29.9066 189.179 31.7315 186.447 34.1513L189.1 37.1456C191.836 34.7216 193.893 32.8746 195.263 31.6102L192.55 28.671ZM189.638 34.9255L185.459 24.1443L181.729 25.5901L185.909 36.3714L189.638 34.9255ZM183.594 22.8672H183.555V26.8672H183.594V22.8672ZM181.587 24.5068C180.955 27.9576 180.479 31.1578 180.16 34.1053L184.137 34.5353C184.443 31.7016 184.904 28.5997 185.522 25.2276L181.587 24.5068ZM181.612 32.3936L175.44 34.1124L176.513 37.9657L182.685 36.247L181.612 32.3936ZM177.968 36.2201C178.01 35.7574 178.275 34.1349 178.804 31.1984L174.868 30.4891C174.355 33.3338 174.047 35.1749 173.985 35.858L177.968 36.2201ZM178.806 31.1864L182.713 8.72549L178.772 8.04013L174.866 30.5011L178.806 31.1864ZM183.731 14.0429C183.487 14.9638 183.27 15.8853 183.08 16.8076L186.998 17.6142C187.173 16.7657 187.372 15.9164 187.597 15.0665L183.731 14.0429ZM183.08 16.8076L182.533 19.4639L186.451 20.2705L186.998 17.6142L183.08 16.8076ZM185.407 21.6458C186.473 21.0977 187.498 20.395 188.485 19.5529L185.89 16.5096C185.106 17.1779 184.335 17.6992 183.577 18.0886L185.407 21.6458ZM188.502 19.5388C189.635 18.5505 190.56 17.4662 191.063 16.2656L187.374 14.7187C187.201 15.1328 186.771 15.7412 185.873 16.5237L188.502 19.5388ZM190.967 16.4635C191.216 16.0151 191.414 15.4603 191.414 14.8281H187.414C187.414 14.6127 187.482 14.5005 187.47 14.5209L190.967 16.4635ZM191.414 14.8281C191.414 14.0622 191.133 13.192 190.34 12.5902C189.651 12.0676 188.855 11.9688 188.281 11.9688V15.9688C188.463 15.9688 188.233 16.0131 187.922 15.777C187.748 15.645 187.603 15.4641 187.512 15.2567C187.426 15.0611 187.414 14.9022 187.414 14.8281H191.414ZM188.281 11.9688C187.337 11.9688 186.205 12.2572 185.019 12.6617L186.309 16.4477C187.415 16.0709 188.028 15.9688 188.281 15.9688V11.9688ZM201.992 14.2422L201.679 12.2669L200.407 12.4686L200.064 13.7103L201.992 14.2422ZM201.445 16.4688L199.49 16.0497L199.487 16.0631L199.484 16.0765L201.445 16.4688ZM201.016 18.6172L199.054 18.225L198.458 21.2053L201.431 20.5735L201.016 18.6172ZM207.266 17.2891L209.261 17.4192L209.433 14.7838L206.85 15.3327L207.266 17.2891ZM206.914 22.6797L207.26 24.6496L208.808 24.378L208.91 22.8098L206.914 22.6797ZM199.922 24.0469L199.472 22.0981L198.214 22.3884L197.961 23.6546L199.922 24.0469ZM199.648 25.6094L201.617 25.9627L201.622 25.9344L201.626 25.9061L199.648 25.6094ZM199.375 27.1328L197.406 26.7795L196.916 29.5107L199.662 29.1121L199.375 27.1328ZM206.641 26.0781L208.636 26.2176L208.809 23.7424L206.353 24.0989L206.641 26.0781ZM206.133 33.3438L206.299 35.3368L208.008 35.1944L208.128 33.4832L206.133 33.3438ZM191.875 36.0391L189.902 35.7116L189.399 38.7432L192.374 37.9757L191.875 36.0391ZM196.523 8.03125L196.238 6.05171L194.79 6.26045L194.55 7.70379L196.523 8.03125ZM209.531 6.15625L211.526 6.29644L211.7 3.82295L209.246 4.17671L209.531 6.15625ZM209.023 13.3828L209.206 15.3744L210.899 15.219L211.019 13.523L209.023 13.3828ZM200.064 13.7103C199.846 14.501 199.654 15.2808 199.49 16.0497L203.401 16.8878C203.549 16.1983 203.722 15.4938 203.92 14.774L200.064 13.7103ZM199.484 16.0765L199.054 18.225L202.977 19.0094L203.406 16.861L199.484 16.0765ZM201.431 20.5735L207.681 19.2454L206.85 15.3327L200.6 16.6609L201.431 20.5735ZM205.27 17.1589L204.918 22.5495L208.91 22.8098L209.261 17.4192L205.27 17.1589ZM206.568 20.7098C203.586 21.233 201.215 21.6958 199.472 22.0981L200.372 25.9957C202.014 25.6167 204.305 25.168 207.26 24.6496L206.568 20.7098ZM197.961 23.6546C197.85 24.2069 197.754 24.7596 197.671 25.3127L201.626 25.9061C201.7 25.4175 201.785 24.9285 201.883 24.4391L197.961 23.6546ZM197.68 25.256L197.406 26.7795L201.344 27.4861L201.617 25.9627L197.68 25.256ZM199.662 29.1121L206.928 28.0574L206.353 24.0989L199.088 25.1536L199.662 29.1121ZM204.645 25.9387L204.138 33.2043L208.128 33.4832L208.636 26.2176L204.645 25.9387ZM205.967 31.3507C202.059 31.6763 197.185 32.604 191.376 34.1024L192.374 37.9757C198.075 36.5053 202.707 35.6362 206.299 35.3368L205.967 31.3507ZM193.848 36.3665L198.496 8.35871L194.55 7.70379L189.902 35.7116L193.848 36.3665ZM196.809 10.0108L209.817 8.13579L209.246 4.17671L196.238 6.05171L196.809 10.0108ZM207.536 6.01606L207.028 13.2426L211.019 13.523L211.526 6.29644L207.536 6.01606ZM208.841 11.3912C206.253 11.6289 203.865 11.9203 201.679 12.2669L202.305 16.2175C204.391 15.8869 206.69 15.6055 209.206 15.3744L208.841 11.3912ZM211.836 29.6328L212.095 31.616L212.107 31.6144L212.119 31.6127L211.836 29.6328ZM214.258 30.0234L213.287 31.7718L213.325 31.7929L213.363 31.8123L214.258 30.0234ZM213.594 35.2578L212.368 33.6774L212.361 33.6827L212.354 33.688L213.594 35.2578ZM210.352 36.6641L210.087 34.6816L210.076 34.6831L210.352 36.6641ZM207.93 36.3516L207.012 38.1288L207.024 38.1347L207.035 38.1404L207.93 36.3516ZM208.555 31.0781L207.29 29.5284L207.284 29.5337L207.278 29.539L208.555 31.0781ZM216.25 5.33594L216.58 3.36341L214.818 3.06826L214.327 4.7865L216.25 5.33594ZM224.414 6.70312L226.161 7.6764L227.541 5.19898L224.744 4.73059L224.414 6.70312ZM219.648 15.8047L217.834 14.9625L217.832 14.9676L219.648 15.8047ZM215.977 25.5312L215.89 27.5294L217.436 27.5961L217.889 26.1164L215.977 25.5312ZM210.547 25.2969L208.624 24.7474L207.927 27.1857L210.461 27.295L210.547 25.2969ZM212.119 31.6127C212.663 31.5349 213.019 31.6231 213.287 31.7718L215.229 28.2751C214.09 27.6426 212.831 27.4703 211.553 27.6529L212.119 31.6127ZM213.363 31.8123C213.445 31.8533 213.488 31.8856 213.506 31.9006C213.522 31.9144 213.519 31.9155 213.511 31.9023C213.502 31.8887 213.499 31.8782 213.499 31.8799C213.5 31.8834 213.508 31.9124 213.508 31.9766H217.508C217.508 31.2087 217.323 30.4383 216.88 29.7461C216.441 29.0598 215.825 28.571 215.152 28.2346L213.363 31.8123ZM213.508 31.9766C213.508 32.3571 213.338 32.9251 212.368 33.6774L214.819 36.8383C216.401 35.6114 217.508 33.9918 217.508 31.9766H213.508ZM212.354 33.688C211.627 34.262 210.879 34.576 210.087 34.6816L210.616 38.6465C212.168 38.4396 213.581 37.8161 214.833 36.8276L212.354 33.688ZM210.076 34.6831C209.439 34.7717 209.058 34.6798 208.824 34.5627L207.035 38.1404C208.155 38.7004 209.39 38.8169 210.627 38.645L210.076 34.6831ZM208.847 34.5743C208.773 34.5363 208.736 34.5072 208.723 34.495C208.71 34.484 208.714 34.4845 208.721 34.4969C208.729 34.5095 208.731 34.517 208.729 34.5104C208.727 34.5019 208.719 34.4676 208.719 34.3984H204.719C204.719 35.1544 204.895 35.9159 205.322 36.6047C205.747 37.2906 206.348 37.7857 207.012 38.1288L208.847 34.5743ZM208.719 34.3984C208.719 33.9762 208.906 33.3857 209.832 32.6172L207.278 29.539C205.756 30.8018 204.719 32.4248 204.719 34.3984H208.719ZM209.819 32.6279C210.537 32.0417 211.287 31.7213 212.095 31.616L211.577 27.6496C209.989 27.8568 208.551 28.4999 207.29 29.5284L209.819 32.6279ZM215.92 7.30847L224.084 8.67566L224.744 4.73059L216.58 3.36341L215.92 7.30847ZM222.667 5.72985C220.498 9.62374 218.881 12.708 217.834 14.9625L221.462 16.6469C222.447 14.5264 224.007 11.5429 226.161 7.6764L222.667 5.72985ZM217.832 14.9676C216.41 18.0522 215.155 21.3794 214.064 24.9461L217.889 26.1164C218.933 22.7039 220.126 19.5468 221.465 16.6418L217.832 14.9676ZM216.063 23.5331L210.633 23.2987L210.461 27.295L215.89 27.5294L216.063 23.5331ZM212.47 25.8463L218.173 5.88538L214.327 4.7865L208.624 24.7474L212.47 25.8463Z" fill="#F7931E" mask="url(#path-1-outside-1_2878_7726)"/>
</svg>
