<svg fill="none" xmlns="http://www.w3.org/2000/svg" viewBox="0 0 387 341"><path d="M318.511 320.772c4.973 8.905-1.464 19.873-11.663 19.873H44.88a13.359 13.359 0 0 1-11.57-6.681L1.79 279.351a13.359 13.359 0 0 1-.019-13.323L150.467 6.713A13.358 13.358 0 0 1 162.055 0h63.194c4.767 0 9.173 2.54 11.561 6.667l83.223 143.783c5.155 8.906-1.271 20.051-11.561 20.051h-47.605c-4.776 0-9.188-2.55-11.573-6.687l-43.722-75.838c-5.145-8.924-18.027-8.913-23.157.02l-94.228 164.07c-5.115 8.906 1.314 20.012 11.584 20.012h183.706c4.84 0 9.302 2.618 11.663 6.845l23.371 41.849Z" fill="url(#a)"/><path d="M384.796 266.268a13.357 13.357 0 0 1-.049 13.445l-24.125 41.081c-5.194 8.845-18.006 8.779-23.108-.12l-33.701-58.777a13.358 13.358 0 0 0-11.589-6.714H127.988c-10.273 0-16.702-11.113-11.58-20.019l24-41.734a13.362 13.362 0 0 1 11.61-6.699l179.387.392a13.357 13.357 0 0 1 11.539 6.677l41.852 72.468Z" fill="url(#b)"/><defs><linearGradient id="a" x1="337.073" y1="382.627" x2="107.067" y2="-20.236" gradientUnits="userSpaceOnUse"><stop offset=".045" stop-color="#00F0FF"/><stop offset=".336" stop-color="#0012B8"/><stop offset=".658" stop-color="#D70CBC"/><stop offset=".933" stop-color="#FF8D21"/></linearGradient><linearGradient id="b" x1="337.073" y1="382.627" x2="107.067" y2="-20.236" gradientUnits="userSpaceOnUse"><stop offset=".045" stop-color="#00F0FF"/><stop offset=".336" stop-color="#0012B8"/><stop offset=".658" stop-color="#D70CBC"/><stop offset=".933" stop-color="#FF8D21"/></linearGradient></defs></svg>